<svg width="720" height="360" xmlns="http://www.w3.org/2000/svg">

<style>
  .background {
    fill: none;
  }
  .axis {
    stroke: #111;
    stroke-width: 1;
  }
  .axis-label {
    text-anchor: middle;
  }
  .axis-units {
    font-size: 10px;
    font-family: Arial;
  }
  .y-axis-text {
    text-anchor: end;
  }
  .x-axis-text {
    text-anchor: middle;
  }
  .gridlines {
    stroke: black;
    stroke-width: 0.3;
    fill: none;
    opacity: 0.5;
  }
  .series-red {
    color: #ae5d40;
  }
  .series-green {
    color: #4f7754;
  }
  .series-blue {
    color: #433a60;
  }
  .data-series {
    fill: none;
    opacity: 0.9;
    stroke: currentColor;
    stroke-width: 2;
  }
  </style>

    <text class="axis-label" x="377.5" y="345">Time (1000 ticks)</text>
    <text class="axis-label" x="0" y="162.5" transform="translate(20.0) rotate(-90, 0, 162.5)">Population size</text>
    <line class="axis" x1="55" y1="310" x2="701" y2="310"></line>
    <line class="axis" x1="55" y1="310" x2="55" y2="15"></line>
    <g class="axis-units">
        <g class="x-axis-text">
            <text x="55.0" y="322">0</text>
            <text x="119.5" y="322">10</text>
            <text x="184.0" y="322">20</text>
            <text x="248.5" y="322">30</text>
            <text x="313.0" y="322">40</text>
            <text x="377.5" y="322">50</text>
            <text x="442.0" y="322">60</text>
            <text x="506.5" y="322">70</text>
            <text x="571.0" y="322">80</text>
            <text x="635.5" y="322">90</text>
            <text x="700.0" y="322">100</text>
        </g>
        <g class="y-axis-text">
            <text x="52" y="313.0">0</text>
            <text x="52" y="283.5">50</text>
            <text x="52" y="254.0">100</text>
            <text x="52" y="224.5">150</text>
            <text x="52" y="195.0">200</text>
            <text x="52" y="165.5">250</text>
            <text x="52" y="136.0">300</text>
            <text x="52" y="106.5">350</text>
            <text x="52" y="77.0">400</text>
            <text x="52" y="47.5">450</text>
            <text x="52" y="18.0">500</text>
        </g>
    </g>
    <g class="gridlines">
        <line x1="119.5" y1="310" x2="119.5" y2="15"></line>
        <line x1="184.5" y1="310" x2="184.5" y2="15"></line>
        <line x1="248.5" y1="310" x2="248.5" y2="15"></line>
        <line x1="313.5" y1="310" x2="313.5" y2="15"></line>
        <line x1="377.5" y1="310" x2="377.5" y2="15"></line>
        <line x1="442.5" y1="310" x2="442.5" y2="15"></line>
        <line x1="506.5" y1="310" x2="506.5" y2="15"></line>
        <line x1="571.5" y1="310" x2="571.5" y2="15"></line>
        <line x1="635.5" y1="310" x2="635.5" y2="15"></line>
        <line x1="700.5" y1="310" x2="700.5" y2="15"></line>
        <line x1="55" y1="280.5" x2="700" y2="280.5"></line>
        <line x1="55" y1="251.5" x2="700" y2="251.5"></line>
        <line x1="55" y1="221.5" x2="700" y2="221.5"></line>
        <line x1="55" y1="192.5" x2="700" y2="192.5"></line>
        <line x1="55" y1="162.5" x2="700" y2="162.5"></line>
        <line x1="55" y1="133.5" x2="700" y2="133.5"></line>
        <line x1="55" y1="103.5" x2="700" y2="103.5"></line>
        <line x1="55" y1="74.5" x2="700" y2="74.5"></line>
        <line x1="55" y1="44.5" x2="700" y2="44.5"></line>
        <line x1="55" y1="15.5" x2="700" y2="15.5"></line>
    </g>
    <path class="data-series series-green" d="M55.6,130.6 56.3,132.4 56.9,136.0 57.6,128.9 58.2,135.4 58.9,133.6 59.5,139.5 60.2,134.2 60.8,137.7 61.5,137.7 62.1,139.5 62.7,140.7 63.4,143.0 64.0,143.0 64.7,145.4 65.3,141.3 66.0,141.3 66.6,143.0 67.3,145.4 67.9,148.3 68.5,150.7 69.2,152.5 69.8,153.1 70.5,153.7 71.1,147.2 71.8,147.2 72.4,144.2 73.1,140.7 73.7,135.4 74.3,133.6 75.0,128.3 75.6,126.5 76.3,124.7 76.9,121.8 77.6,120.6 78.2,118.2 78.9,113.5 79.5,112.9 80.2,106.5 80.8,106.5 81.4,101.7 82.1,100.6 82.7,102.3 83.4,102.9 84.0,105.9 84.7,104.7 85.3,103.5 86.0,103.5 86.6,101.1 87.2,98.8 87.9,102.3 88.5,101.1 89.2,102.3 89.8,99.4 90.5,97.6 91.1,102.9 91.8,103.5 92.4,107.6 93.1,114.1 93.7,117.7 94.3,121.8 95.0,125.3 95.6,123.6 96.3,130.6 96.9,130.6 97.6,137.7 98.2,137.7 98.9,144.8 99.5,144.8 100.2,148.3 100.8,149.5 101.4,153.1 102.1,157.2 102.7,155.4 103.4,154.2 104.0,154.8 104.7,154.2 105.3,156.6 106.0,150.1 106.6,150.7 107.2,149.5 107.9,150.1 108.5,148.9 109.2,153.1 109.8,155.4 110.5,156.6 111.1,153.1 111.8,152.5 112.4,148.3 113.0,148.3 113.7,141.9 114.3,140.7 115.0,139.5 115.6,138.9 116.3,135.4 116.9,139.5 117.6,136.5 118.2,141.9 118.9,143.0 119.5,136.5 120.1,140.1 120.8,143.0 121.4,148.9 122.1,148.3 122.7,144.2 123.4,146.0 124.0,146.6 124.7,148.3 125.3,144.8 126.0,141.9 126.6,142.4 127.2,139.5 127.9,136.5 128.5,136.5 129.2,133.6 129.8,134.8 130.5,134.2 131.1,135.4 131.8,134.2 132.4,134.8 133.0,134.8 133.7,137.7 134.3,133.0 135.0,127.7 135.6,128.3 136.3,128.9 136.9,128.3 137.6,129.5 138.2,131.2 138.8,131.2 139.5,128.9 140.1,127.1 140.8,128.9 141.4,131.2 142.1,134.2 142.7,135.4 143.4,133.0 144.0,130.6 144.7,126.5 145.3,126.5 145.9,129.5 146.6,130.6 147.2,131.8 147.9,127.7 148.5,128.3 149.2,124.7 149.8,125.3 150.5,128.9 151.1,128.9 151.8,126.5 152.4,127.7 153.0,127.7 153.7,128.3 154.3,125.3 155.0,123.6 155.6,124.2 156.3,118.8 156.9,114.1 157.6,110.0 158.2,110.6 158.8,108.8 159.5,107.0 160.1,105.3 160.8,100.6 161.4,101.1 162.1,101.1 162.7,107.6 163.4,111.2 164.0,111.2 164.7,108.2 165.3,106.5 165.9,104.7 166.6,107.0 167.2,105.3 167.9,103.5 168.5,104.1 169.2,100.6 169.8,104.1 170.5,103.5 171.1,105.3 171.7,106.5 172.4,105.3 173.0,107.0 173.7,110.6 174.3,111.2 175.0,114.7 175.6,120.6 176.3,124.7 176.9,124.2 177.6,127.1 178.2,133.6 178.8,139.5 179.5,143.6 180.1,144.8 180.8,146.6 181.4,148.9 182.1,152.5 182.7,153.7 183.4,156.0 184.0,163.7 184.6,169.0 185.3,170.2 185.9,169.6 186.6,169.6 187.2,174.9 187.9,174.3 188.5,174.3 189.2,172.5 189.8,175.5 190.4,179.0 191.1,175.5 191.7,175.5 192.4,174.3 193.0,172.5 193.7,171.3 194.3,167.2 195.0,168.4 195.6,171.3 196.3,174.3 196.9,170.8 197.5,171.9 198.2,173.1 198.8,171.3 199.5,170.2 200.1,163.1 200.8,163.7 201.4,161.9 202.1,156.6 202.7,160.1 203.3,160.7 204.0,159.0 204.6,155.4 205.3,153.7 205.9,146.6 206.6,149.5 207.2,141.9 207.9,134.2 208.5,133.6 209.2,131.2 209.8,130.6 210.4,124.2 211.1,125.9 211.7,128.9 212.4,121.8 213.0,125.3 213.7,125.9 214.3,124.2 215.0,123.0 215.6,120.6 216.2,122.4 216.9,118.8 217.5,118.8 218.2,121.2 218.8,124.2 219.5,128.3 220.1,128.9 220.8,133.6 221.4,140.1 222.1,138.9 222.7,134.2 223.3,139.5 224.0,138.3 224.6,144.8 225.3,143.6 225.9,143.6 226.6,144.8 227.2,147.2 227.9,148.3 228.5,150.7 229.2,148.3 229.8,153.1 230.4,154.8 231.1,159.6 231.7,158.4 232.4,155.4 233.0,157.2 233.7,158.4 234.3,156.0 235.0,157.8 235.6,151.9 236.2,154.8 236.9,154.8 237.5,156.0 238.2,153.1 238.8,155.4 239.5,155.4 240.1,156.0 240.8,154.2 241.4,146.0 242.1,143.6 242.7,144.2 243.3,141.9 244.0,144.8 244.6,138.9 245.3,139.5 245.9,137.1 246.6,137.1 247.2,134.2 247.9,133.6 248.5,130.1 249.1,127.1 249.8,127.1 250.4,129.5 251.1,128.3 251.7,128.3 252.4,123.0 253.0,123.6 253.7,121.2 254.3,123.6 254.9,117.7 255.6,116.5 256.2,111.8 256.9,114.1 257.5,113.5 258.2,114.1 258.8,112.9 259.5,115.9 260.1,118.8 260.8,118.8 261.4,127.1 262.0,133.0 262.7,134.8 263.3,129.5 264.0,130.1 264.6,127.1 265.3,131.8 265.9,131.8 266.6,130.6 267.2,130.1 267.9,125.3 268.5,123.0 269.1,123.0 269.8,121.8 270.4,118.8 271.1,118.2 271.7,116.5 272.4,117.1 273.0,112.9 273.7,110.6 274.3,108.8 274.9,107.6 275.6,113.5 276.2,111.8 276.9,111.8 277.5,108.8 278.2,103.5 278.8,100.0 279.5,100.0 280.1,97.6 280.8,97.0 281.4,97.0 282.0,97.6 282.7,98.2 283.3,103.5 284.0,101.1 284.6,105.3 285.3,102.9 285.9,102.9 286.6,101.1 287.2,102.9 287.8,110.0 288.5,112.9 289.1,115.3 289.8,121.8 290.4,118.2 291.1,118.8 291.7,118.2 292.4,120.0 293.0,123.6 293.6,127.7 294.3,137.1 294.9,141.3 295.6,144.2 296.2,148.9 296.9,149.5 297.5,148.3 298.2,147.8 298.8,146.6 299.5,143.0 300.1,141.9 300.7,143.6 301.4,141.3 302.0,142.4 302.7,150.7 303.3,152.5 304.0,156.0 304.6,158.4 305.3,167.2 305.9,170.2 306.6,169.0 307.2,169.6 307.8,166.6 308.5,167.8 309.1,169.6 309.8,169.6 310.4,167.2 311.1,163.7 311.7,164.9 312.4,163.1 313.0,163.1 313.6,159.0 314.3,156.6 314.9,150.7 315.6,151.9 316.2,150.1 316.9,147.8 317.5,146.0 318.2,141.9 318.8,140.1 319.4,138.3 320.1,137.7 320.7,130.1 321.4,128.9 322.0,123.6 322.7,119.4 323.3,114.7 324.0,108.8 324.6,110.0 325.3,102.3 325.9,102.9 326.5,95.8 327.2,88.2 327.8,87.0 328.5,85.2 329.1,82.3 329.8,80.5 330.4,78.7 331.1,75.8 331.7,73.4 332.4,72.8 333.0,75.8 333.6,74.6 334.3,75.8 334.9,70.5 335.6,69.3 336.2,67.5 336.9,69.9 337.5,75.2 338.2,74.6 338.8,75.2 339.4,76.4 340.1,85.2 340.7,85.2 341.4,94.1 342.0,101.7 342.7,110.0 343.3,112.9 344.0,120.0 344.6,132.4 345.2,139.5 345.9,136.5 346.5,140.1 347.2,153.7 347.8,155.4 348.5,164.3 349.1,164.9 349.8,170.2 350.4,177.2 351.1,183.2 351.7,189.1 352.3,188.5 353.0,186.7 353.6,184.3 354.3,183.2 354.9,185.5 355.6,182.6 356.2,179.0 356.9,177.2 357.5,174.9 358.1,171.3 358.8,166.6 359.4,159.6 360.1,157.2 360.7,156.6 361.4,153.7 362.0,150.7 362.7,144.8 363.3,138.9 364.0,139.5 364.6,138.3 365.2,136.0 365.9,134.2 366.5,128.9 367.2,121.2 367.8,118.2 368.5,111.8 369.1,107.0 369.8,102.9 370.4,98.8 371.1,95.8 371.7,91.1 372.3,89.3 373.0,83.4 373.6,81.7 374.3,74.6 374.9,71.6 375.6,67.5 376.2,63.4 376.9,59.2 377.5,59.2 378.1,58.1 378.8,53.9 379.4,46.9 380.1,45.7 380.7,43.3 381.4,42.1 382.0,36.8 382.7,39.2 383.3,35.1 383.9,30.9 384.6,30.9 385.2,27.4 385.9,25.6 386.5,22.7 387.2,27.4 387.8,30.3 388.5,33.3 389.1,33.3 389.8,30.9 390.4,32.7 391.0,34.5 391.7,32.7 392.3,35.1 393.0,42.7 393.6,45.1 394.3,51.0 394.9,60.4 395.6,75.8 396.2,87.0 396.9,94.1 397.5,103.5 398.1,111.2 398.8,119.4 399.4,127.1 400.1,137.7 400.7,151.3 401.4,161.3 402.0,165.5 402.7,171.9 403.3,178.4 403.9,185.5 404.6,183.7 405.2,185.5 405.9,186.1 406.5,183.7 407.2,180.8 407.8,179.6 408.5,179.6 409.1,175.5 409.8,173.7 410.4,174.3 411.0,169.6 411.7,168.4 412.3,166.6 413.0,163.7 413.6,160.7 414.3,157.8 414.9,152.5 415.6,152.5 416.2,153.7 416.8,151.3 417.5,148.9 418.1,144.8 418.8,144.2 419.4,147.8 420.1,148.3 420.7,146.6 421.4,144.8 422.0,143.0 422.6,143.6 423.3,141.9 423.9,143.6 424.6,144.8 425.2,144.2 425.9,141.9 426.5,136.0 427.2,136.0 427.8,131.2 428.5,137.1 429.1,136.5 429.7,132.4 430.4,132.4 431.0,129.5 431.7,133.0 432.3,131.8 433.0,133.0 433.6,137.1 434.3,137.1 434.9,137.7 435.6,136.5 436.2,137.1 436.8,137.7 437.5,137.1 438.1,134.2 438.8,135.4 439.4,131.8 440.1,130.6 440.7,128.9 441.4,124.7 442.0,118.8 442.6,117.7 443.3,114.7 443.9,110.0 444.6,108.8 445.2,109.4 445.9,109.4 446.5,112.4 447.2,110.6 447.8,110.0 448.4,109.4 449.1,108.8 449.7,108.8 450.4,104.7 451.0,102.3 451.7,97.0 452.3,92.3 453.0,92.3 453.6,85.8 454.3,86.4 454.9,88.2 455.5,86.4 456.2,82.3 456.8,88.2 457.5,88.8 458.1,90.5 458.8,95.8 459.4,102.9 460.1,101.1 460.7,98.2 461.4,96.4 462.0,99.4 462.6,100.0 463.3,102.3 463.9,103.5 464.6,104.7 465.2,108.2 465.9,112.9 466.5,112.4 467.2,114.7 467.8,120.6 468.4,123.0 469.1,121.2 469.7,121.8 470.4,124.7 471.0,128.9 471.7,136.5 472.3,133.0 473.0,135.4 473.6,142.4 474.2,148.3 474.9,148.3 475.5,147.8 476.2,147.8 476.8,148.9 477.5,158.4 478.1,160.1 478.8,161.9 479.4,164.9 480.1,168.4 480.7,168.4 481.3,169.6 482.0,172.5 482.6,173.7 483.3,176.7 483.9,177.2 484.6,181.4 485.2,178.4 485.9,176.7 486.5,179.0 487.1,177.8 487.8,180.8 488.4,180.8 489.1,180.8 489.7,176.1 490.4,174.9 491.0,170.8 491.7,163.1 492.3,162.5 493.0,161.3 493.6,160.7 494.2,158.4 494.9,151.9 495.5,152.5 496.2,148.3 496.8,147.2 497.5,140.7 498.1,134.2 498.8,129.5 499.4,129.5 500.1,127.1 500.7,124.2 501.3,123.6 502.0,121.8 502.6,122.4 503.3,121.8 503.9,116.5 504.6,115.3 505.2,115.3 505.9,112.4 506.5,112.4 507.1,106.5 507.8,103.5 508.4,101.7 509.1,102.9 509.7,102.3 510.4,97.0 511.0,96.4 511.7,95.8 512.3,94.7 513.0,89.9 513.6,89.3 514.2,87.0 514.9,91.1 515.5,93.5 516.2,94.1 516.8,91.7 517.5,92.3 518.1,96.4 518.8,95.8 519.4,98.8 520.0,107.6 520.7,110.6 521.3,118.8 522.0,121.8 522.6,125.9 523.3,128.3 523.9,128.9 524.6,133.6 525.2,136.0 525.9,137.7 526.5,142.4 527.1,146.0 527.8,145.4 528.4,145.4 529.1,147.2 529.7,150.1 530.4,151.9 531.0,154.2 531.7,156.6 532.3,153.7 532.9,151.3 533.6,148.9 534.2,151.3 534.9,152.5 535.5,148.3 536.2,146.6 536.8,142.4 537.5,138.9 538.1,138.3 538.8,138.9 539.4,137.1 540.0,137.7 540.7,138.9 541.3,134.8 542.0,133.0 542.6,130.6 543.3,130.6 543.9,129.5 544.6,134.2 545.2,132.4 545.8,135.4 546.5,135.4 547.1,137.1 547.8,133.6 548.4,131.8 549.1,130.1 549.7,132.4 550.4,138.9 551.0,136.0 551.6,132.4 552.3,133.0 552.9,130.6 553.6,128.9 554.2,128.9 554.9,127.7 555.5,125.3 556.2,126.5 556.8,127.1 557.5,124.7 558.1,128.9 558.7,130.6 559.4,132.4 560.0,131.2 560.7,133.6 561.3,132.4 562.0,135.4 562.6,136.5 563.3,134.2 563.9,134.8 564.5,139.5 565.2,133.6 565.8,136.0 566.5,137.1 567.1,130.1 567.8,128.9 568.4,130.1 569.1,126.5 569.7,125.3 570.4,117.7 571.0,110.6 571.6,107.0 572.3,104.7 572.9,102.9 573.6,97.0 574.2,98.2 574.9,95.2 575.5,91.1 576.2,89.3 576.8,91.7 577.5,95.2 578.1,95.8 578.7,87.0 579.4,89.9 580.0,89.3 580.7,88.8 581.3,92.3 582.0,94.1 582.6,98.8 583.3,107.0 583.9,109.4 584.5,108.8 585.2,114.7 585.8,115.9 586.5,120.0 587.1,125.9 587.8,130.1 588.4,127.1 589.1,126.5 589.7,129.5 590.4,135.4 591.0,136.0 591.6,136.0 592.3,137.7 592.9,140.1 593.6,140.7 594.2,138.3 594.9,138.3 595.5,140.1 596.2,141.9 596.8,145.4 597.4,146.6 598.1,146.6 598.7,144.2 599.4,143.6 600.0,141.3 600.7,136.5 601.3,131.8 602.0,126.5 602.6,124.2 603.2,115.9 603.9,112.9 604.5,112.9 605.2,108.2 605.8,103.5 606.5,96.4 607.1,95.8 607.8,93.5 608.4,91.7 609.1,85.2 609.7,81.1 610.3,76.4 611.0,76.4 611.6,73.4 612.3,75.8 612.9,72.2 613.6,69.3 614.2,67.5 614.9,66.9 615.5,64.6 616.1,60.4 616.8,58.7 617.4,60.4 618.1,62.8 618.7,62.8 619.4,69.3 620.0,72.8 620.7,73.4 621.3,75.8 622.0,79.3 622.6,85.8 623.2,87.6 623.9,95.2 624.5,94.1 625.2,100.0 625.8,106.5 626.5,112.4 627.1,113.5 627.8,117.7 628.4,125.3 629.0,134.2 629.7,142.4 630.3,146.6 631.0,150.1 631.6,151.3 632.3,154.8 632.9,160.7 633.6,156.6 634.2,156.6 634.9,159.6 635.5,161.9 636.1,164.3 636.8,161.3 637.4,160.1 638.1,160.7 638.7,161.3 639.4,160.1 640.0,162.5 640.7,164.9 641.3,164.9 642.0,165.5 642.6,163.1 643.2,163.1 643.9,164.3 644.5,167.2 645.2,166.0 645.8,160.7 646.5,159.0 647.1,157.8 647.8,155.4 648.4,148.3 649.0,151.3 649.7,144.8 650.3,143.6 651.0,141.3 651.6,138.3 652.3,136.5 652.9,138.3 653.6,135.4 654.2,134.2 654.9,128.9 655.5,121.2 656.1,118.8 656.8,114.1 657.4,111.8 658.1,111.8 658.7,112.9 659.4,111.2 660.0,110.6 660.7,106.5 661.3,108.2 661.9,105.3 662.6,114.7 663.2,117.1 663.9,121.2 664.5,122.4 665.2,130.6 665.8,132.4 666.5,138.3 667.1,133.6 667.8,136.5 668.4,132.4 669.0,133.6 669.7,134.2 670.3,131.2 671.0,135.4 671.6,139.5 672.3,139.5 672.9,142.4 673.6,139.5 674.2,144.2 674.8,147.2 675.5,146.6 676.1,146.6 676.8,143.0 677.4,140.1 678.1,136.5 678.7,133.6 679.4,130.6 680.0,124.7 680.6,123.0 681.3,121.2 681.9,122.4 682.6,122.4 683.2,123.6 683.9,123.0 684.5,121.8 685.2,118.8 685.8,113.5 686.5,115.9 687.1,111.2 687.7,106.5 688.4,105.3 689.0,105.9 689.7,109.4 690.3,105.3 691.0,104.7 691.6,102.3 692.3,102.3 692.9,104.7 693.5,105.9 694.2,106.5 694.8,106.5 695.5,99.4 696.1,96.4 696.8,92.3 697.4,90.5 698.1,92.3 698.7,94.7 699.4,93.5 700.0,100.6"></path>
    <path class="data-series series-blue" d="M55.6,279.9 56.3,276.4 56.9,271.6 57.6,266.3 58.2,262.8 58.9,269.3 59.5,265.8 60.2,267.5 60.8,268.7 61.5,268.7 62.1,271.6 62.7,269.3 63.4,268.7 64.0,270.5 64.7,269.9 65.3,268.7 66.0,271.1 66.6,272.8 67.3,272.8 67.9,269.9 68.5,269.9 69.2,271.6 69.8,272.2 70.5,275.8 71.1,279.3 71.8,278.7 72.4,284.6 73.1,283.4 73.7,287.0 74.3,287.0 75.0,288.8 75.6,286.4 76.3,285.2 76.9,286.4 77.6,285.8 78.2,288.2 78.9,288.8 79.5,289.4 80.2,289.4 80.8,287.0 81.4,286.4 82.1,288.2 82.7,287.0 83.4,285.8 84.0,285.2 84.7,284.6 85.3,281.7 86.0,279.3 86.6,281.1 87.2,281.1 87.9,276.4 88.5,277.0 89.2,277.0 89.8,276.4 90.5,273.4 91.1,273.4 91.8,272.8 92.4,270.5 93.1,266.3 93.7,266.3 94.3,262.8 95.0,259.9 95.6,259.3 96.3,255.1 96.9,256.3 97.6,256.3 98.2,259.3 98.9,259.9 99.5,260.4 100.2,262.8 100.8,263.4 101.4,261.6 102.1,265.2 102.7,269.9 103.4,268.7 104.0,269.3 104.7,272.2 105.3,275.2 106.0,275.2 106.6,275.2 107.2,274.6 107.9,276.4 108.5,275.8 109.2,273.4 109.8,273.4 110.5,275.2 111.1,275.8 111.8,279.9 112.4,283.4 113.0,283.4 113.7,285.8 114.3,285.2 115.0,284.6 115.6,282.9 116.3,283.4 116.9,278.1 117.6,278.1 118.2,274.0 118.9,271.1 119.5,271.1 120.1,269.3 120.8,271.1 121.4,269.9 122.1,272.8 122.7,278.1 123.4,277.6 124.0,276.4 124.7,280.5 125.3,281.7 126.0,281.7 126.6,281.1 127.2,279.9 127.9,281.7 128.5,281.1 129.2,281.7 129.8,281.1 130.5,281.1 131.1,283.4 131.8,284.6 132.4,283.4 133.0,281.7 133.7,282.3 134.3,280.5 135.0,279.9 135.6,275.8 136.3,277.6 136.9,275.8 137.6,274.0 138.2,272.2 138.8,269.9 139.5,271.6 140.1,273.4 140.8,275.8 141.4,278.1 142.1,277.6 142.7,277.0 143.4,276.4 144.0,277.0 144.7,277.6 145.3,277.0 145.9,280.5 146.6,282.3 147.2,281.1 147.9,279.9 148.5,280.5 149.2,281.7 149.8,278.1 150.5,278.1 151.1,282.3 151.8,281.7 152.4,282.9 153.0,283.4 153.7,282.3 154.3,282.3 155.0,283.4 155.6,282.3 156.3,282.3 156.9,283.4 157.6,286.4 158.2,287.0 158.8,287.6 159.5,284.6 160.1,281.7 160.8,282.9 161.4,282.3 162.1,282.3 162.7,279.3 163.4,277.6 164.0,278.1 164.7,278.1 165.3,278.1 165.9,278.7 166.6,279.9 167.2,283.4 167.9,281.1 168.5,278.7 169.2,278.1 169.8,281.1 170.5,279.9 171.1,279.9 171.7,281.7 172.4,278.1 173.0,276.4 173.7,275.2 174.3,273.4 175.0,273.4 175.6,269.9 176.3,267.5 176.9,268.1 177.6,268.7 178.2,268.1 178.8,266.9 179.5,267.5 180.1,269.9 180.8,267.5 181.4,266.3 182.1,266.9 182.7,268.1 183.4,262.2 184.0,256.9 184.6,262.2 185.3,265.8 185.9,267.5 186.6,269.9 187.2,267.5 187.9,271.6 188.5,274.0 189.2,272.8 189.8,277.6 190.4,277.6 191.1,281.7 191.7,282.3 192.4,280.5 193.0,282.3 193.7,281.7 194.3,281.7 195.0,282.3 195.6,279.3 196.3,277.0 196.9,278.1 197.5,279.3 198.2,280.5 198.8,281.1 199.5,285.2 200.1,289.9 200.8,289.4 201.4,287.6 202.1,291.1 202.7,289.4 203.3,287.0 204.0,286.4 204.6,287.6 205.3,287.0 205.9,287.0 206.6,285.8 207.2,288.8 207.9,289.4 208.5,287.6 209.2,287.6 209.8,287.6 210.4,288.2 211.1,287.6 211.7,286.4 212.4,286.4 213.0,284.6 213.7,281.7 214.3,278.1 215.0,278.7 215.6,279.3 216.2,276.4 216.9,277.0 217.5,275.8 218.2,272.2 218.8,271.6 219.5,269.9 220.1,269.9 220.8,268.1 221.4,265.2 222.1,267.5 222.7,265.8 223.3,260.4 224.0,260.4 224.6,264.6 225.3,265.2 225.9,264.0 226.6,263.4 227.2,265.8 227.9,264.6 228.5,264.0 229.2,265.2 229.8,265.8 230.4,266.3 231.1,265.8 231.7,265.2 232.4,264.6 233.0,266.9 233.7,269.9 234.3,272.2 235.0,272.8 235.6,275.2 236.2,276.4 236.9,272.2 237.5,277.0 238.2,278.1 238.8,278.7 239.5,277.6 240.1,278.1 240.8,277.6 241.4,280.5 242.1,281.1 242.7,282.3 243.3,281.7 244.0,284.6 244.6,286.4 245.3,285.8 245.9,286.4 246.6,284.6 247.2,281.1 247.9,282.3 248.5,281.7 249.1,281.7 249.8,279.3 250.4,280.5 251.1,281.7 251.7,281.1 252.4,281.1 253.0,281.7 253.7,281.7 254.3,287.6 254.9,289.4 255.6,288.2 256.2,286.4 256.9,284.6 257.5,283.4 258.2,283.4 258.8,282.9 259.5,281.7 260.1,281.1 260.8,282.3 261.4,277.0 262.0,275.8 262.7,275.8 263.3,277.0 264.0,277.0 264.6,276.4 265.3,278.7 265.9,279.9 266.6,281.7 267.2,280.5 267.9,280.5 268.5,279.9 269.1,280.5 269.8,278.7 270.4,283.4 271.1,284.0 271.7,285.8 272.4,282.9 273.0,283.4 273.7,287.0 274.3,285.8 274.9,283.4 275.6,281.7 276.2,284.0 276.9,284.0 277.5,285.8 278.2,285.2 278.8,286.4 279.5,287.6 280.1,289.9 280.8,289.4 281.4,288.8 282.0,284.0 282.7,285.2 283.3,282.3 284.0,280.5 284.6,277.0 285.3,275.8 285.9,275.8 286.6,275.8 287.2,272.8 287.8,271.1 288.5,268.7 289.1,268.1 289.8,265.8 290.4,264.6 291.1,265.2 291.7,266.9 292.4,269.9 293.0,269.3 293.6,269.3 294.3,265.2 294.9,264.0 295.6,263.4 296.2,259.9 296.9,258.1 297.5,257.5 298.2,263.4 298.8,264.6 299.5,266.9 300.1,269.3 300.7,269.9 301.4,272.2 302.0,271.1 302.7,271.1 303.3,271.6 304.0,269.9 304.6,269.3 305.3,264.6 305.9,262.8 306.6,264.6 307.2,268.7 307.8,271.1 308.5,273.4 309.1,276.4 309.8,277.6 310.4,278.7 311.1,279.3 311.7,280.5 312.4,284.6 313.0,282.3 313.6,281.1 314.3,283.4 314.9,285.8 315.6,287.0 316.2,287.0 316.9,289.4 317.5,291.1 318.2,291.1 318.8,290.5 319.4,292.9 320.1,291.7 320.7,291.7 321.4,291.7 322.0,292.9 322.7,292.9 323.3,292.9 324.0,295.8 324.6,292.9 325.3,291.7 325.9,291.7 326.5,293.5 327.2,293.5 327.8,294.1 328.5,294.7 329.1,295.2 329.8,291.7 330.4,289.9 331.1,288.8 331.7,289.4 332.4,288.8 333.0,285.8 333.6,284.6 334.3,285.2 334.9,284.6 335.6,282.3 336.2,278.1 336.9,277.0 337.5,275.2 338.2,273.4 338.8,271.1 339.4,272.2 340.1,269.3 340.7,267.5 341.4,264.0 342.0,261.6 342.7,259.3 343.3,255.7 344.0,252.2 344.6,252.8 345.2,251.6 345.9,251.0 346.5,251.6 347.2,246.3 347.8,245.1 348.5,241.6 349.1,242.7 349.8,241.0 350.4,242.7 351.1,247.5 351.7,250.4 352.3,254.5 353.0,260.4 353.6,264.0 354.3,266.9 354.9,269.3 355.6,272.8 356.2,276.4 356.9,281.1 357.5,285.2 358.1,285.8 358.8,288.8 359.4,291.7 360.1,290.5 360.7,292.3 361.4,294.1 362.0,294.1 362.7,293.5 363.3,295.2 364.0,295.8 364.6,295.8 365.2,294.7 365.9,293.5 366.5,297.0 367.2,297.6 367.8,299.4 368.5,300.6 369.1,300.6 369.8,301.7 370.4,300.0 371.1,300.0 371.7,301.1 372.3,302.3 373.0,302.9 373.6,300.0 374.3,300.6 374.9,301.1 375.6,300.6 376.2,300.0 376.9,301.7 377.5,301.1 378.1,298.8 378.8,297.6 379.4,297.0 380.1,297.0 380.7,296.4 381.4,294.1 382.0,293.5 382.7,291.7 383.3,292.9 383.9,291.1 384.6,293.5 385.2,292.9 385.9,292.3 386.5,291.7 387.2,289.4 387.8,286.4 388.5,280.5 389.1,279.9 389.8,279.9 390.4,279.9 391.0,277.0 391.7,279.3 392.3,278.7 393.0,275.8 393.6,271.6 394.3,264.0 394.9,260.4 395.6,252.8 396.2,245.7 396.9,241.0 397.5,236.2 398.1,236.8 398.8,232.7 399.4,235.1 400.1,229.8 400.7,233.3 401.4,229.8 402.0,227.4 402.7,228.0 403.3,232.7 403.9,241.0 404.6,243.3 405.2,245.1 405.9,255.1 406.5,258.1 407.2,266.9 407.8,269.3 408.5,272.8 409.1,278.1 409.8,281.7 410.4,284.0 411.0,284.0 411.7,288.8 412.3,288.2 413.0,288.8 413.6,288.2 414.3,287.6 414.9,287.6 415.6,289.4 416.2,289.4 416.8,291.1 417.5,289.4 418.1,289.4 418.8,287.6 419.4,287.6 420.1,285.8 420.7,286.4 421.4,287.0 422.0,286.4 422.6,285.2 423.3,282.9 423.9,284.0 424.6,281.7 425.2,278.7 425.9,278.7 426.5,281.1 427.2,281.7 427.8,284.0 428.5,281.1 429.1,281.1 429.7,282.9 430.4,282.9 431.0,283.4 431.7,282.3 432.3,284.0 433.0,282.9 433.6,278.1 434.3,277.0 434.9,278.7 435.6,279.9 436.2,280.5 436.8,279.3 437.5,284.6 438.1,285.8 438.8,283.4 439.4,283.4 440.1,281.1 440.7,284.6 441.4,287.0 442.0,285.2 442.6,287.0 443.3,287.6 443.9,288.2 444.6,286.4 445.2,285.2 445.9,285.2 446.5,281.7 447.2,280.5 447.8,281.1 448.4,280.5 449.1,281.7 449.7,281.1 450.4,282.3 451.0,284.6 451.7,285.2 452.3,285.2 453.0,287.0 453.6,289.4 454.3,288.2 454.9,282.9 455.5,282.9 456.2,281.7 456.8,279.3 457.5,278.1 458.1,277.0 458.8,277.6 459.4,276.4 460.1,275.8 460.7,276.4 461.4,279.3 462.0,279.3 462.6,279.3 463.3,278.7 463.9,279.9 464.6,276.4 465.2,275.2 465.9,271.1 466.5,268.1 467.2,268.7 467.8,264.6 468.4,266.3 469.1,265.8 469.7,268.7 470.4,269.9 471.0,268.1 471.7,263.4 472.3,264.6 473.0,263.4 473.6,261.0 474.2,256.3 474.9,256.3 475.5,256.9 476.2,253.9 476.8,256.3 477.5,255.7 478.1,257.5 478.8,261.0 479.4,267.5 480.1,264.6 480.7,262.2 481.3,262.8 482.0,265.8 482.6,269.9 483.3,266.3 483.9,272.2 484.6,275.8 485.2,274.0 485.9,275.2 486.5,277.6 487.1,279.3 487.8,276.4 488.4,277.0 489.1,277.0 489.7,279.9 490.4,277.6 491.0,280.5 491.7,284.0 492.3,286.4 493.0,287.6 493.6,286.4 494.2,287.6 494.9,289.4 495.5,291.1 496.2,290.5 496.8,291.1 497.5,293.5 498.1,293.5 498.8,294.1 499.4,292.9 500.1,292.3 500.7,292.3 501.3,289.9 502.0,287.0 502.6,288.8 503.3,288.8 503.9,289.9 504.6,288.2 505.2,289.4 505.9,289.9 506.5,288.2 507.1,288.2 507.8,288.2 508.4,287.6 509.1,285.2 509.7,282.3 510.4,282.3 511.0,284.0 511.7,281.7 512.3,279.9 513.0,281.7 513.6,279.9 514.2,278.7 514.9,277.0 515.5,274.6 516.2,275.8 516.8,274.0 517.5,272.8 518.1,270.5 518.8,271.6 519.4,269.9 520.0,263.4 520.7,261.6 521.3,257.5 522.0,259.3 522.6,255.1 523.3,258.7 523.9,258.7 524.6,261.6 525.2,259.3 525.9,259.3 526.5,259.3 527.1,261.6 527.8,265.2 528.4,265.2 529.1,266.9 529.7,265.2 530.4,269.3 531.0,272.2 531.7,272.2 532.3,275.2 532.9,276.4 533.6,278.1 534.2,279.3 534.9,278.7 535.5,279.9 536.2,281.7 536.8,282.3 537.5,281.7 538.1,281.7 538.8,282.3 539.4,278.7 540.0,276.4 540.7,277.6 541.3,274.6 542.0,274.6 542.6,278.1 543.3,279.3 543.9,279.9 544.6,279.9 545.2,280.5 545.8,281.7 546.5,281.1 547.1,282.9 547.8,282.9 548.4,285.2 549.1,286.4 549.7,286.4 550.4,278.7 551.0,278.1 551.6,279.3 552.3,277.0 552.9,275.2 553.6,276.4 554.2,279.9 554.9,279.3 555.5,278.7 556.2,277.6 556.8,277.6 557.5,277.6 558.1,278.1 558.7,277.0 559.4,276.4 560.0,275.8 560.7,274.0 561.3,277.6 562.0,276.4 562.6,275.8 563.3,277.6 563.9,279.3 564.5,280.5 565.2,279.9 565.8,279.3 566.5,279.9 567.1,281.7 567.8,281.7 568.4,282.9 569.1,283.4 569.7,285.8 570.4,287.6 571.0,289.9 571.6,290.5 572.3,293.5 572.9,293.5 573.6,294.1 574.2,294.1 574.9,293.5 575.5,291.7 576.2,290.5 576.8,288.8 577.5,281.1 578.1,278.1 578.7,278.1 579.4,275.8 580.0,273.4 580.7,275.2 581.3,272.2 582.0,272.2 582.6,270.5 583.3,268.1 583.9,265.8 584.5,263.4 585.2,262.2 585.8,262.2 586.5,260.4 587.1,262.2 587.8,261.6 588.4,267.5 589.1,269.3 589.7,268.7 590.4,268.1 591.0,272.2 591.6,272.2 592.3,272.8 592.9,274.6 593.6,277.6 594.2,278.1 594.9,277.0 595.5,275.2 596.2,278.7 596.8,276.4 597.4,274.6 598.1,272.8 598.7,275.2 599.4,277.0 600.0,279.9 600.7,284.0 601.3,289.9 602.0,292.3 602.6,292.9 603.2,294.7 603.9,294.1 604.5,295.8 605.2,297.0 605.8,296.4 606.5,297.0 607.1,295.8 607.8,295.8 608.4,296.4 609.1,297.0 609.7,298.2 610.3,297.6 611.0,297.0 611.6,297.0 612.3,295.8 612.9,294.1 613.6,291.7 614.2,291.7 614.9,291.1 615.5,289.4 616.1,289.4 616.8,288.8 617.4,287.6 618.1,281.7 618.7,279.9 619.4,275.8 620.0,270.5 620.7,266.9 621.3,263.4 622.0,260.4 622.6,255.7 623.2,260.4 623.9,256.3 624.5,255.7 625.2,255.7 625.8,252.2 626.5,248.1 627.1,250.4 627.8,251.0 628.4,253.4 629.0,251.0 629.7,253.9 630.3,257.5 631.0,256.9 631.6,253.4 632.3,255.1 632.9,259.3 633.6,260.4 634.2,258.7 634.9,262.8 635.5,266.9 636.1,268.1 636.8,271.6 637.4,269.3 638.1,268.7 638.7,268.1 639.4,264.0 640.0,265.2 640.7,264.0 641.3,266.9 642.0,268.1 642.6,271.1 643.2,273.4 643.9,274.6 644.5,277.0 645.2,278.1 645.8,279.3 646.5,280.5 647.1,283.4 647.8,285.8 648.4,287.6 649.0,284.0 649.7,285.8 650.3,286.4 651.0,285.8 651.6,287.0 652.3,288.8 652.9,290.5 653.6,290.5 654.2,288.2 654.9,288.8 655.5,289.4 656.1,288.8 656.8,287.6 657.4,287.6 658.1,288.2 658.7,287.0 659.4,285.2 660.0,281.7 660.7,284.0 661.3,279.3 661.9,278.1 662.6,274.0 663.2,272.2 663.9,267.5 664.5,266.3 665.2,262.8 665.8,260.4 666.5,261.0 667.1,261.6 667.8,259.9 668.4,262.8 669.0,266.9 669.7,267.5 670.3,269.3 671.0,272.2 671.6,272.2 672.3,274.6 672.9,272.8 673.6,271.6 674.2,269.9 674.8,270.5 675.5,269.9 676.1,272.2 676.8,275.2 677.4,278.1 678.1,281.1 678.7,283.4 679.4,284.0 680.0,287.0 680.6,286.4 681.3,289.4 681.9,288.2 682.6,286.4 683.2,285.8 683.9,285.2 684.5,285.2 685.2,287.0 685.8,286.4 686.5,287.0 687.1,288.2 687.7,291.7 688.4,291.1 689.0,289.9 689.7,287.6 690.3,287.6 691.0,286.4 691.6,287.0 692.3,285.8 692.9,283.4 693.5,281.7 694.2,281.1 694.8,281.1 695.5,280.5 696.1,279.9 696.8,282.9 697.4,284.6 698.1,283.4 698.7,279.9 699.4,278.7 700.0,273.4"></path>
    <text text-anchor="end" fill="currentColor" font-weight="600" class="series-green" x="696" y="90">Food</text>
    <text text-anchor="end" fill="currentColor" font-weight="600" class="series-blue" x="696" y="248">Creatures</text>
</svg>