<svg width="660" xmlns="http://www.w3.org/2000/svg" height="300">

<style>
  .data-series {
    opacity: 1;
    stroke-width: 1.8;
    fill: none;
  }
  .axis {
    stroke: #111;
    stroke-width: 1;
  }
  .y-axis-text {
    text-anchor: end;
  }
  .background {
    fill: none;
  }
  .axis-units {
    font-size: 10px;
    font-family: Arial;
  }
  .gridlines {
    opacity: 0.5;
    stroke: black;
    stroke-width: 0.3;
    fill: none;
  }
  .x-axis-text {
    text-anchor: middle;
  }
  .axis-label {
    font-size: 14px;
    font-family: Arial;
    text-anchor: middle;
  }
  </style>

    <text y="290" x="347.0" class="axis-label">Time (ticks)</text>
    <text y="134.0" x="0" class="axis-label" transform="translate(15.0) rotate(-90, 0, 134.0)">Population size</text>
    <line y1="258" x2="645" x1="50" y2="258" class="axis"></line>
    <line y1="258" x2="50" x1="50" y2="10" class="axis"></line>
    <g class="axis-units">
        <g class="x-axis-text">
            <text y="270" x="50.0">0</text>
            <text y="270" x="109.4">10K</text>
            <text y="270" x="168.8">20K</text>
            <text y="270" x="228.2">30K</text>
            <text y="270" x="287.6">40K</text>
            <text y="270" x="347.0">50K</text>
            <text y="270" x="406.4">60K</text>
            <text y="270" x="465.8">70K</text>
            <text y="270" x="525.2">80K</text>
            <text y="270" x="584.6">90K</text>
            <text y="270" x="644.0">100K</text>
        </g>
        <g class="y-axis-text">
            <text y="261.0" x="47">0</text>
            <text y="211.4" x="47">1000</text>
            <text y="161.8" x="47">2000</text>
            <text y="112.2" x="47">3000</text>
            <text y="62.6" x="47">4000</text>
            <text y="13.0" x="47">5000</text>
        </g>
    </g>
    <g class="gridlines">
        <line y1="258" x2="109.5" x1="109.5" y2="10"></line>
        <line y1="258" x2="168.5" x1="168.5" y2="10"></line>
        <line y1="258" x2="228.5" x1="228.5" y2="10"></line>
        <line y1="258" x2="287.5" x1="287.5" y2="10"></line>
        <line y1="258" x2="347.5" x1="347.5" y2="10"></line>
        <line y1="258" x2="406.5" x1="406.5" y2="10"></line>
        <line y1="258" x2="465.5" x1="465.5" y2="10"></line>
        <line y1="258" x2="525.5" x1="525.5" y2="10"></line>
        <line y1="258" x2="584.5" x1="584.5" y2="10"></line>
        <line y1="258" x2="644.5" x1="644.5" y2="10"></line>
        <line y1="208.5" x2="644" x1="50" y2="208.5"></line>
        <line y1="158.5" x2="644" x1="50" y2="158.5"></line>
        <line y1="109.5" x2="644" x1="50" y2="109.5"></line>
        <line y1="59.5" x2="644" x1="50" y2="59.5"></line>
        <line y1="10.5" x2="644" x1="50" y2="10.5"></line>
    </g>
    <path stroke="green" class="data-series" d="M50.6,197.1 51.2,195.3 51.8,193.1 52.4,191.6 53.0,189.1 53.6,186.1 54.2,182.7 54.8,181.1 55.3,178.1 55.9,174.7 56.5,172.7 57.1,170.2 57.7,167.2 58.3,164.6 58.9,160.8 59.5,157.9 60.1,153.6 60.7,152.0 61.3,148.9 61.9,145.6 62.5,142.3 63.1,139.3 63.7,136.3 64.3,132.3 64.8,128.4 65.4,125.1 66.0,121.5 66.6,118.6 67.2,115.1 67.8,112.5 68.4,109.5 69.0,106.5 69.6,102.9 70.2,99.3 70.8,97.3 71.4,95.5 72.0,91.9 72.6,88.9 73.2,87.2 73.8,84.6 74.4,82.5 74.9,80.7 75.5,78.2 76.1,76.1 76.7,73.6 77.3,72.1 77.9,69.1 78.5,67.2 79.1,65.1 79.7,63.1 80.3,59.4 80.9,57.4 81.5,55.4 82.1,53.7 82.7,52.3 83.3,51.2 83.9,50.1 84.5,48.0 85.0,48.1 85.6,47.7 86.2,46.8 86.8,44.4 87.4,44.6 88.0,44.1 88.6,44.1 89.2,43.5 89.8,43.3 90.4,44.0 91.0,45.2 91.6,45.8 92.2,46.8 92.8,49.0 93.4,51.4 94.0,53.9 94.5,56.2 95.1,59.6 95.7,61.3 96.3,65.0 96.9,68.3 97.5,70.8 98.1,74.1 98.7,78.5 99.3,83.4 99.9,88.1 100.5,92.4 101.1,96.2 101.7,102.1 102.3,107.4 102.9,112.6 103.5,118.1 104.1,122.9 104.6,126.7 105.2,130.7 105.8,134.7 106.4,138.7 107.0,140.5 107.6,144.8 108.2,147.6 108.8,151.0 109.4,154.1 110.0,159.0 110.6,160.9 111.2,163.3 111.8,164.8 112.4,167.4 113.0,170.5 113.6,171.9 114.2,173.2 114.7,173.9 115.3,173.5 115.9,174.2 116.5,174.0 117.1,173.4 117.7,171.3 118.3,170.9 118.9,169.3 119.5,167.0 120.1,166.0 120.7,163.5 121.3,161.8 121.9,159.4 122.5,157.0 123.1,154.6 123.7,152.7 124.2,150.5 124.8,148.3 125.4,145.4 126.0,143.4 126.6,141.6 127.2,139.7 127.8,137.7 128.4,134.8 129.0,133.7 129.6,131.9 130.2,129.0 130.8,127.1 131.4,124.9 132.0,121.3 132.6,119.5 133.2,116.7 133.8,114.8 134.3,112.6 134.9,110.7 135.5,109.3 136.1,107.4 136.7,104.2 137.3,102.5 137.9,99.9 138.5,97.6 139.1,96.3 139.7,94.8 140.3,92.7 140.9,90.3 141.5,89.3 142.1,87.7 142.7,85.7 143.3,85.4 143.9,84.7 144.4,83.2 145.0,83.1 145.6,82.4 146.2,81.2 146.8,79.3 147.4,79.1 148.0,78.6 148.6,78.9 149.2,78.2 149.8,79.2 150.4,78.8 151.0,79.0 151.6,78.2 152.2,78.1 152.8,79.5 153.4,79.9 153.9,80.4 154.5,81.8 155.1,83.2 155.7,83.8 156.3,85.3 156.9,86.0 157.5,88.2 158.1,89.9 158.7,90.7 159.3,92.3 159.9,95.6 160.5,98.2 161.1,101.5 161.7,104.6 162.3,108.9 162.9,112.3 163.5,115.1 164.0,119.9 164.6,122.8 165.2,126.9 165.8,128.2 166.4,131.1 167.0,136.6 167.6,140.0 168.2,142.7 168.8,145.5 169.4,147.7 170.0,150.8 170.6,154.1 171.2,157.5 171.8,160.1 172.4,162.0 173.0,163.3 173.6,164.0 174.1,163.4 174.7,164.6 175.3,164.1 175.9,164.2 176.5,164.1 177.1,163.3 177.7,163.3 178.3,163.4 178.9,162.3 179.5,161.5 180.1,160.7 180.7,159.9 181.3,158.2 181.9,157.2 182.5,156.2 183.1,155.8 183.7,154.2 184.2,153.4 184.8,152.8 185.4,151.0 186.0,149.8 186.6,149.0 187.2,147.7 187.8,146.5 188.4,145.7 189.0,144.4 189.6,144.0 190.2,142.4 190.8,141.1 191.4,139.9 192.0,138.4 192.6,137.8 193.2,136.8 193.7,135.0 194.3,134.1 194.9,132.7 195.5,131.6 196.1,129.4 196.7,128.8 197.3,127.3 197.9,125.3 198.5,122.5 199.1,121.1 199.7,120.6 200.3,119.1 200.9,117.8 201.5,116.6 202.1,114.6 202.7,113.5 203.3,111.4 203.8,109.9 204.4,109.0 205.0,108.9 205.6,108.1 206.2,106.8 206.8,105.9 207.4,104.4 208.0,103.0 208.6,102.8 209.2,101.2 209.8,100.3 210.4,97.7 211.0,96.3 211.6,95.3 212.2,95.2 212.8,94.8 213.3,94.3 213.9,94.6 214.5,94.0 215.1,94.0 215.7,93.6 216.3,94.1 216.9,95.0 217.5,95.4 218.1,95.4 218.7,94.9 219.3,96.8 219.9,96.9 220.5,98.2 221.1,99.6 221.7,101.5 222.3,103.3 222.9,105.7 223.4,107.8 224.0,110.2 224.6,111.1 225.2,114.0 225.8,117.0 226.4,120.1 227.0,123.3 227.6,124.9 228.2,127.6 228.8,130.2 229.4,132.8 230.0,134.6 230.6,136.5 231.2,137.6 231.8,139.2 232.4,140.1 233.0,141.6 233.5,142.0 234.1,142.8 234.7,142.2 235.3,142.9 235.9,143.5 236.5,144.3 237.1,144.4 237.7,144.3 238.3,144.9 238.9,145.9 239.5,146.0 240.1,147.2 240.7,147.4 241.3,147.5 241.9,147.9 242.5,147.3 243.1,147.5 243.6,147.4 244.2,147.6 244.8,147.4 245.4,148.1 246.0,147.5 246.6,147.3 247.2,146.9 247.8,145.8 248.4,145.3 249.0,143.2 249.6,142.4 250.2,142.2 250.8,141.9 251.4,141.4 252.0,141.8 252.6,141.9 253.1,141.1 253.7,140.1 254.3,140.2 254.9,139.3 255.5,138.1 256.1,138.6 256.7,137.0 257.3,136.5 257.9,136.1 258.5,134.6 259.1,133.6 259.7,133.2 260.3,131.3 260.9,130.2 261.5,131.0 262.1,130.4 262.7,129.8 263.2,129.2 263.8,127.8 264.4,128.0 265.0,125.9 265.6,124.6 266.2,123.6 266.8,124.0 267.4,122.8 268.0,123.1 268.6,122.2 269.2,121.7 269.8,121.6 270.4,122.2 271.0,121.5 271.6,119.9 272.2,118.7 272.8,117.5 273.3,117.7 273.9,118.1 274.5,117.4 275.1,117.1 275.7,115.9 276.3,116.3 276.9,116.0 277.5,116.2 278.1,116.3 278.7,117.8 279.3,119.3 279.9,119.7 280.5,119.1 281.1,120.3 281.7,119.7 282.3,120.3 282.8,120.1 283.4,121.1 284.0,120.4 284.6,120.8 285.2,122.2 285.8,123.6 286.4,124.9 287.0,126.5 287.6,126.2 288.2,126.9 288.8,127.0 289.4,128.3 290.0,129.5 290.6,132.0 291.2,132.8 291.8,133.8 292.4,133.8 292.9,134.3 293.5,136.5 294.1,136.2 294.7,136.9 295.3,138.7 295.9,139.0 296.5,139.6 297.1,140.5 297.7,141.9 298.3,141.7 298.9,142.0 299.5,142.6 300.1,143.0 300.7,143.8 301.3,144.5 301.9,146.2 302.4,146.4 303.0,145.8 303.6,146.3 304.2,145.8 304.8,145.4 305.4,144.6 306.0,144.6 306.6,143.4 307.2,142.7 307.8,142.4 308.4,142.7 309.0,142.6 309.6,142.4 310.2,141.9 310.8,141.8 311.4,140.9 312.0,141.0 312.5,140.5 313.1,140.2 313.7,139.4 314.3,139.0 314.9,138.4 315.5,137.1 316.1,136.5 316.7,134.0 317.3,133.2 317.9,132.8 318.5,131.6 319.1,131.0 319.7,128.2 320.3,126.6 320.9,125.9 321.5,124.6 322.1,123.7 322.6,123.1 323.2,123.6 323.8,122.4 324.4,120.7 325.0,119.1 325.6,117.1 326.2,116.3 326.8,115.3 327.4,113.5 328.0,113.3 328.6,113.4 329.2,113.8 329.8,114.9 330.4,116.1 331.0,115.7 331.6,116.5 332.1,116.6 332.7,117.3 333.3,118.0 333.9,118.5 334.5,119.2 335.1,120.2 335.7,120.7 336.3,122.3 336.9,123.4 337.5,123.3 338.1,122.7 338.7,122.7 339.3,122.8 339.9,122.1 340.5,121.3 341.1,120.1 341.7,120.4 342.2,120.5 342.8,120.4 343.4,121.9 344.0,122.0 344.6,122.2 345.2,121.9 345.8,121.7 346.4,122.3 347.0,121.7 347.6,122.4 348.2,123.2 348.8,123.5 349.4,124.7 350.0,125.5 350.6,125.5 351.2,127.1 351.8,128.7 352.3,129.1 352.9,130.1 353.5,130.4 354.1,131.0 354.7,132.5 355.3,133.7 355.9,134.1 356.5,135.9 357.1,138.0 357.7,140.5 358.3,141.2 358.9,141.4 359.5,143.0 360.1,144.4 360.7,145.8 361.3,146.8 361.9,148.0 362.4,147.7 363.0,147.2 363.6,147.1 364.2,147.5 364.8,147.5 365.4,148.0 366.0,147.4 366.6,146.3 367.2,145.3 367.8,145.6 368.4,145.3 369.0,144.2 369.6,143.5 370.2,142.5 370.8,141.9 371.4,141.1 371.9,139.4 372.5,138.4 373.1,136.7 373.7,135.4 374.3,133.3 374.9,133.6 375.5,132.4 376.1,132.0 376.7,131.4 377.3,130.7 377.9,129.2 378.5,128.7 379.1,127.3 379.7,126.7 380.3,124.6 380.9,123.6 381.5,122.7 382.0,119.8 382.6,118.1 383.2,117.2 383.8,115.8 384.4,115.2 385.0,113.8 385.6,113.1 386.2,113.2 386.8,112.3 387.4,111.4 388.0,110.7 388.6,109.6 389.2,109.1 389.8,107.7 390.4,108.2 391.0,108.6 391.6,108.5 392.1,109.5 392.7,109.7 393.3,110.2 393.9,110.0 394.5,110.4 395.1,112.6 395.7,112.9 396.3,113.7 396.9,114.7 397.5,115.7 398.1,115.8 398.7,116.9 399.3,118.2 399.9,119.8 400.5,121.3 401.1,122.1 401.6,124.1 402.2,125.2 402.8,126.4 403.4,127.6 404.0,129.4 404.6,131.2 405.2,132.3 405.8,132.7 406.4,134.4 407.0,134.7 407.6,135.4 408.2,136.1 408.8,137.7 409.4,138.5 410.0,138.4 410.6,138.4 411.2,138.2 411.7,139.6 412.3,138.7 412.9,138.5 413.5,137.6 414.1,137.8 414.7,138.8 415.3,139.0 415.9,139.7 416.5,140.2 417.1,139.7 417.7,139.2 418.3,138.9 418.9,137.4 419.5,136.1 420.1,136.3 420.7,135.7 421.2,134.9 421.8,134.3 422.4,134.2 423.0,133.1 423.6,132.9 424.2,131.6 424.8,129.5 425.4,128.9 426.0,128.3 426.6,127.1 427.2,127.1 427.8,127.5 428.4,126.0 429.0,125.4 429.6,124.6 430.2,123.4 430.8,122.6 431.3,121.2 431.9,119.9 432.5,117.9 433.1,115.9 433.7,114.6 434.3,113.9 434.9,112.5 435.5,110.8 436.1,108.3 436.7,107.2 437.3,106.2 437.9,105.4 438.5,105.0 439.1,103.4 439.7,102.1 440.3,101.7 440.9,101.7 441.4,101.8 442.0,102.1 442.6,102.6 443.2,102.2 443.8,102.3 444.4,102.1 445.0,102.3 445.6,103.3 446.2,103.9 446.8,104.6 447.4,105.5 448.0,107.4 448.6,110.2 449.2,111.8 449.8,114.1 450.4,116.2 450.9,118.7 451.5,121.2 452.1,123.3 452.7,124.4 453.3,127.0 453.9,128.9 454.5,130.8 455.1,132.3 455.7,134.5 456.3,135.7 456.9,136.5 457.5,137.4 458.1,139.3 458.7,140.2 459.3,141.7 459.9,141.8 460.5,142.5 461.0,143.8 461.6,144.4 462.2,145.0 462.8,145.4 463.4,146.3 464.0,146.8 464.6,146.9 465.2,146.2 465.8,145.7 466.4,146.4 467.0,146.8 467.6,146.2 468.2,145.9 468.8,145.0 469.4,145.1 470.0,144.4 470.6,143.6 471.1,142.5 471.7,142.6 472.3,141.9 472.9,139.9 473.5,137.7 474.1,137.7 474.7,137.5 475.3,137.2 475.9,136.7 476.5,135.7 477.1,135.3 477.7,134.0 478.3,133.3 478.9,132.1 479.5,131.2 480.1,130.7 480.6,129.6 481.2,127.7 481.8,127.0 482.4,127.3 483.0,126.5 483.6,124.9 484.2,123.6 484.8,122.4 485.4,121.0 486.0,119.9 486.6,118.7 487.2,118.5 487.8,117.6 488.4,116.3 489.0,115.5 489.6,113.9 490.2,113.1 490.7,112.8 491.3,112.3 491.9,112.1 492.5,111.6 493.1,111.2 493.7,109.9 494.3,109.1 494.9,108.4 495.5,108.9 496.1,108.3 496.7,108.2 497.3,108.1 497.9,107.0 498.5,106.4 499.1,106.7 499.7,105.8 500.3,106.1 500.8,105.8 501.4,105.6 502.0,105.9 502.6,107.5 503.2,108.6 503.8,109.7 504.4,111.9 505.0,112.8 505.6,114.5 506.2,116.9 506.8,119.4 507.4,121.4 508.0,123.1 508.6,125.6 509.2,128.6 509.8,130.2 510.4,133.0 510.9,133.3 511.5,134.9 512.1,136.9 512.7,138.6 513.3,139.3 513.9,139.7 514.5,141.4 515.1,142.7 515.7,144.6 516.3,145.7 516.9,146.2 517.5,146.8 518.1,147.8 518.7,147.8 519.3,147.7 519.9,147.4 520.4,146.5 521.0,147.4 521.6,147.8 522.2,147.5 522.8,146.2 523.4,146.4 524.0,145.4 524.6,144.6 525.2,143.8 525.8,144.7 526.4,145.1 527.0,143.8 527.6,144.0 528.2,143.8 528.8,142.8 529.4,142.5 530.0,140.9 530.5,140.5 531.1,139.1 531.7,139.6 532.3,139.4 532.9,138.8 533.5,138.1 534.1,136.7 534.7,136.0 535.3,135.0 535.9,133.5 536.5,132.7 537.1,129.8 537.7,128.4 538.3,129.0 538.9,128.4 539.5,128.7 540.0,127.7 540.6,127.8 541.2,128.1 541.8,127.8 542.4,127.6 543.0,128.1 543.6,128.2 544.2,127.0 544.8,126.5 545.4,126.2 546.0,126.6 546.6,127.3 547.2,127.6 547.8,127.8 548.4,127.1 549.0,126.8 549.6,125.9 550.1,126.0 550.7,126.3 551.3,124.8 551.9,124.6 552.5,125.3 553.1,125.3 553.7,125.6 554.3,125.1 554.9,125.8 555.5,125.7 556.1,123.7 556.7,125.4 557.3,125.5 557.9,125.4 558.5,126.1 559.1,127.1 559.7,127.2 560.2,127.9 560.8,128.3 561.4,129.8 562.0,129.9 562.6,130.5 563.2,129.4 563.8,129.1 564.4,129.3 565.0,129.6 565.6,129.0 566.2,128.9 566.8,127.9 567.4,128.1 568.0,126.6 568.6,126.5 569.2,125.6 569.8,125.1 570.3,125.0 570.9,124.1 571.5,124.0 572.1,123.3 572.7,122.6 573.3,122.3 573.9,121.7 574.5,119.8 575.1,118.4 575.7,117.9 576.3,119.2 576.9,117.8 577.5,117.1 578.1,117.3 578.7,117.3 579.3,118.3 579.8,119.0 580.4,119.9 581.0,120.0 581.6,121.5 582.2,122.7 582.8,123.7 583.4,124.6 584.0,125.7 584.6,126.2 585.2,126.2 585.8,126.4 586.4,128.6 587.0,129.0 587.6,129.6 588.2,129.9 588.8,130.1 589.4,130.2 589.9,130.2 590.5,131.0 591.1,130.8 591.7,130.6 592.3,130.1 592.9,130.2 593.5,130.0 594.1,130.3 594.7,130.3 595.3,130.9 595.9,129.6 596.5,129.8 597.1,129.1 597.7,128.3 598.3,127.5 598.9,128.2 599.5,128.9 600.0,128.9 600.6,129.0 601.2,128.7 601.8,127.7 602.4,127.4 603.0,127.3 603.6,127.8 604.2,128.0 604.8,129.4 605.4,129.7 606.0,129.8 606.6,129.2 607.2,129.0 607.8,128.4 608.4,128.8 609.0,129.0 609.5,128.0 610.1,126.9 610.7,126.1 611.3,126.3 611.9,125.0 612.5,125.6 613.1,125.0 613.7,124.3 614.3,124.3 614.9,123.2 615.5,123.3 616.1,122.6 616.7,121.6 617.3,120.7 617.9,121.2 618.5,121.1 619.1,121.5 619.6,121.4 620.2,120.7 620.8,119.2 621.4,119.8 622.0,121.1 622.6,120.8 623.2,121.2 623.8,120.8 624.4,121.7 625.0,122.1 625.6,122.0 626.2,122.1 626.8,123.4 627.4,123.5 628.0,124.8 628.6,125.8 629.1,126.1 629.7,127.0 630.3,127.0 630.9,128.3 631.5,129.4 632.1,130.2 632.7,132.2 633.3,132.2 633.9,134.7 634.5,137.2 635.1,138.9 635.7,140.5 636.3,140.8 636.9,140.9 637.5,141.5 638.1,143.9 638.7,143.8 639.2,145.8 639.8,145.4 640.4,145.8 641.0,145.3 641.6,146.3 642.2,145.6 642.8,145.2 643.4,145.4 644.0,143.7"></path>
    <path stroke="#0060e5" class="data-series" d="M50.6,247.9 51.2,247.8 51.8,247.4 52.4,247.1 53.0,246.9 53.6,252.1 54.2,252.0 54.8,251.8 55.3,252.0 55.9,252.2 56.5,254.5 57.1,254.4 57.7,254.5 58.3,254.8 58.9,255.1 59.5,255.3 60.1,255.4 60.7,255.7 61.3,255.9 61.9,256.2 62.5,256.4 63.1,256.3 63.7,256.3 64.3,256.4 64.8,256.3 65.4,256.3 66.0,256.4 66.6,256.4 67.2,256.4 67.8,256.3 68.4,256.2 69.0,256.3 69.6,256.4 70.2,256.5 70.8,256.6 71.4,256.6 72.0,256.4 72.6,256.1 73.2,255.8 73.8,255.7 74.4,255.6 74.9,255.3 75.5,255.2 76.1,255.0 76.7,254.5 77.3,254.6 77.9,254.5 78.5,254.5 79.1,254.2 79.7,254.1 80.3,253.8 80.9,253.4 81.5,253.0 82.1,252.6 82.7,252.2 83.3,252.1 83.9,251.3 84.5,251.0 85.0,250.0 85.6,249.1 86.2,248.6 86.8,248.0 87.4,247.2 88.0,246.9 88.6,245.6 89.2,244.8 89.8,244.1 90.4,242.3 91.0,241.4 91.6,240.1 92.2,239.7 92.8,238.9 93.4,237.2 94.0,235.8 94.5,235.0 95.1,233.8 95.7,233.2 96.3,231.3 96.9,230.0 97.5,228.7 98.1,227.5 98.7,226.3 99.3,225.1 99.9,223.7 100.5,222.2 101.1,221.4 101.7,220.6 102.3,219.5 102.9,218.4 103.5,217.0 104.1,217.1 104.6,217.3 105.2,217.1 105.8,218.1 106.4,219.9 107.0,221.7 107.6,221.5 108.2,223.4 108.8,224.1 109.4,224.3 110.0,224.2 110.6,224.1 111.2,225.1 111.8,225.9 112.4,228.0 113.0,228.9 113.6,230.0 114.2,231.6 114.7,232.7 115.3,234.3 115.9,235.7 116.5,237.6 117.1,239.0 117.7,241.4 118.3,243.4 118.9,245.3 119.5,246.6 120.1,247.5 120.7,248.8 121.3,250.1 121.9,250.6 122.5,251.1 123.1,251.7 123.7,252.2 124.2,252.5 124.8,252.6 125.4,252.4 126.0,252.8 126.6,252.9 127.2,253.0 127.8,253.1 128.4,253.2 129.0,253.2 129.6,253.1 130.2,253.0 130.8,253.1 131.4,253.2 132.0,253.4 132.6,253.1 133.2,253.2 133.8,253.2 134.3,253.0 134.9,252.6 135.5,252.7 136.1,252.8 136.7,252.7 137.3,252.5 137.9,252.9 138.5,252.9 139.1,252.7 139.7,252.5 140.3,252.5 140.9,252.3 141.5,251.8 142.1,251.7 142.7,251.0 143.3,250.7 143.9,249.9 144.4,249.2 145.0,248.5 145.6,247.6 146.2,247.0 146.8,246.4 147.4,245.6 148.0,245.5 148.6,244.9 149.2,244.2 149.8,244.0 150.4,243.8 151.0,243.3 151.6,243.1 152.2,242.5 152.8,241.8 153.4,241.5 153.9,241.0 154.5,239.8 155.1,239.0 155.7,238.8 156.3,237.9 156.9,236.6 157.5,235.9 158.1,235.7 158.7,234.8 159.3,233.4 159.9,233.4 160.5,232.3 161.1,230.8 161.7,230.4 162.3,229.1 162.9,227.5 163.5,226.4 164.0,225.3 164.6,225.0 165.2,223.8 165.8,223.2 166.4,223.5 167.0,222.6 167.6,222.3 168.2,222.5 168.8,222.6 169.4,223.4 170.0,224.7 170.6,225.1 171.2,225.1 171.8,226.2 172.4,227.4 173.0,227.4 173.6,228.7 174.1,231.0 174.7,232.9 175.3,234.2 175.9,236.0 176.5,237.1 177.1,238.8 177.7,239.8 178.3,241.3 178.9,241.9 179.5,242.9 180.1,243.8 180.7,245.0 181.3,245.5 181.9,245.6 182.5,246.6 183.1,246.6 183.7,246.8 184.2,246.6 184.8,247.1 185.4,247.3 186.0,247.7 186.6,247.5 187.2,247.6 187.8,247.7 188.4,248.0 189.0,248.3 189.6,248.3 190.2,248.4 190.8,248.3 191.4,247.8 192.0,247.6 192.6,247.5 193.2,247.4 193.7,247.6 194.3,248.3 194.9,248.8 195.5,249.1 196.1,249.1 196.7,249.2 197.3,249.1 197.9,249.4 198.5,249.7 199.1,249.6 199.7,249.3 200.3,249.1 200.9,249.5 201.5,249.3 202.1,249.4 202.7,249.5 203.3,249.2 203.8,249.4 204.4,248.9 205.0,248.8 205.6,249.2 206.2,249.2 206.8,248.8 207.4,248.3 208.0,248.0 208.6,247.7 209.2,247.3 209.8,247.6 210.4,247.9 211.0,247.9 211.6,247.4 212.2,246.7 212.8,245.6 213.3,245.1 213.9,244.4 214.5,244.2 215.1,243.4 215.7,242.6 216.3,241.8 216.9,240.6 217.5,239.7 218.1,238.8 218.7,239.0 219.3,238.4 219.9,238.5 220.5,238.0 221.1,237.6 221.7,237.0 222.3,236.0 222.9,235.4 223.4,234.2 224.0,233.4 224.6,232.9 225.2,232.0 225.8,230.9 226.4,230.1 227.0,229.0 227.6,228.5 228.2,227.2 228.8,227.5 229.4,228.3 230.0,228.7 230.6,229.9 231.2,230.6 231.8,231.6 232.4,232.0 233.0,233.5 233.5,234.5 234.1,235.4 234.7,236.5 235.3,237.6 235.9,237.8 236.5,238.6 237.1,238.8 237.7,238.9 238.3,238.5 238.9,238.5 239.5,238.8 240.1,239.1 240.7,239.1 241.3,239.9 241.9,240.4 242.5,240.5 243.1,240.4 243.6,241.1 244.2,241.4 244.8,241.7 245.4,241.3 246.0,240.7 246.6,240.5 247.2,241.0 247.8,241.6 248.4,241.9 249.0,243.2 249.6,244.1 250.2,245.0 250.8,244.5 251.4,245.0 252.0,244.6 252.6,245.0 253.1,244.8 253.7,245.2 254.3,246.0 254.9,246.0 255.5,246.4 256.1,246.2 256.7,246.1 257.3,245.9 257.9,245.3 258.5,245.3 259.1,245.2 259.7,244.8 260.3,245.4 260.9,245.1 261.5,244.7 262.1,244.8 262.7,244.5 263.2,244.9 263.8,244.6 264.4,244.7 265.0,245.0 265.6,245.3 266.2,245.1 266.8,245.1 267.4,245.1 268.0,245.0 268.6,245.1 269.2,244.9 269.8,244.5 270.4,244.6 271.0,244.7 271.6,244.7 272.2,244.3 272.8,244.0 273.3,243.8 273.9,242.8 274.5,242.8 275.1,243.4 275.7,243.1 276.3,242.7 276.9,242.7 277.5,242.0 278.1,241.6 278.7,240.8 279.3,239.8 279.9,239.4 280.5,239.3 281.1,238.0 281.7,238.3 282.3,239.0 282.8,239.4 283.4,239.1 284.0,239.3 284.6,239.1 285.2,238.2 285.8,237.3 286.4,236.8 287.0,236.0 287.6,236.0 288.2,235.8 288.8,236.3 289.4,236.5 290.0,237.4 290.6,236.6 291.2,236.5 291.8,235.8 292.4,236.5 292.9,236.5 293.5,236.0 294.1,236.9 294.7,236.8 295.3,236.9 295.9,236.8 296.5,236.9 297.1,236.3 297.7,236.0 298.3,236.3 298.9,236.9 299.5,238.0 300.1,238.0 300.7,238.3 301.3,238.6 301.9,238.9 302.4,239.5 303.0,239.4 303.6,240.1 304.2,240.6 304.8,241.1 305.4,241.9 306.0,242.8 306.6,243.2 307.2,243.4 307.8,244.2 308.4,243.4 309.0,242.8 309.6,242.6 310.2,243.1 310.8,243.1 311.4,243.0 312.0,243.6 312.5,243.8 313.1,243.7 313.7,244.4 314.3,244.1 314.9,244.3 315.5,244.1 316.1,244.9 316.7,245.2 317.3,246.1 317.9,246.6 318.5,247.1 319.1,247.0 319.7,247.1 320.3,247.1 320.9,247.3 321.5,247.2 322.1,246.7 322.6,246.6 323.2,246.7 323.8,246.5 324.4,246.8 325.0,247.5 325.6,247.2 326.2,247.3 326.8,247.2 327.4,246.8 328.0,246.4 328.6,245.9 329.2,245.0 329.8,244.6 330.4,243.2 331.0,242.5 331.6,241.9 332.1,241.0 332.7,240.1 333.3,239.4 333.9,239.3 334.5,238.8 335.1,238.1 335.7,238.4 336.3,237.7 336.9,238.0 337.5,237.7 338.1,238.5 338.7,238.2 339.3,239.1 339.9,239.8 340.5,240.6 341.1,240.9 341.7,241.3 342.2,241.8 342.8,241.6 343.4,241.6 344.0,241.0 344.6,240.7 345.2,241.0 345.8,240.8 346.4,241.1 347.0,241.4 347.6,241.1 348.2,241.1 348.8,241.3 349.4,240.0 350.0,239.4 350.6,238.8 351.2,238.5 351.8,238.1 352.3,237.9 352.9,237.9 353.5,237.3 354.1,236.8 354.7,236.0 355.3,235.4 355.9,235.6 356.5,235.6 357.1,235.7 357.7,235.6 358.3,236.5 358.9,236.3 359.5,235.4 360.1,235.8 360.7,235.2 361.3,235.5 361.9,236.2 362.4,236.4 363.0,237.6 363.6,238.8 364.2,239.4 364.8,240.2 365.4,241.2 366.0,241.7 366.6,242.0 367.2,243.4 367.8,244.1 368.4,244.1 369.0,244.4 369.6,244.1 370.2,244.3 370.8,245.4 371.4,245.6 371.9,246.3 372.5,247.5 373.1,247.7 373.7,248.0 374.3,248.2 374.9,247.9 375.5,248.0 376.1,247.9 376.7,247.2 377.3,247.2 377.9,247.1 378.5,247.3 379.1,247.2 379.7,246.9 380.3,246.7 380.9,247.0 381.5,247.4 382.0,248.0 382.6,247.9 383.2,248.1 383.8,248.0 384.4,247.5 385.0,247.0 385.6,246.8 386.2,246.6 386.8,246.4 387.4,245.7 388.0,245.5 388.6,245.3 389.2,245.3 389.8,244.6 390.4,244.3 391.0,243.9 391.6,243.6 392.1,242.6 392.7,241.1 393.3,240.1 393.9,240.0 394.5,238.9 395.1,237.5 395.7,237.4 396.3,237.3 396.9,236.6 397.5,236.4 398.1,237.2 398.7,237.3 399.3,237.0 399.9,236.5 400.5,237.2 401.1,236.8 401.6,236.6 402.2,236.5 402.8,236.0 403.4,235.8 404.0,235.7 404.6,236.2 405.2,236.8 405.8,236.3 406.4,235.8 407.0,236.2 407.6,236.6 408.2,236.9 408.8,237.5 409.4,237.2 410.0,237.3 410.6,237.7 411.2,238.0 411.7,238.5 412.3,239.4 412.9,239.6 413.5,240.1 414.1,239.9 414.7,240.6 415.3,241.0 415.9,240.7 416.5,240.6 417.1,241.1 417.7,241.5 418.3,241.7 418.9,243.2 419.5,243.2 420.1,243.5 420.7,243.2 421.2,242.7 421.8,242.4 422.4,242.7 423.0,243.2 423.6,243.0 424.2,243.4 424.8,244.6 425.4,243.9 426.0,244.1 426.6,244.2 427.2,244.5 427.8,244.3 428.4,244.3 429.0,244.9 429.6,245.0 430.2,245.5 430.8,246.0 431.3,246.4 431.9,246.5 432.5,246.7 433.1,247.3 433.7,247.2 434.3,246.8 434.9,247.4 435.5,247.4 436.1,247.5 436.7,247.1 437.3,247.4 437.9,247.4 438.5,247.7 439.1,247.2 439.7,247.2 440.3,246.4 440.9,245.5 441.4,244.6 442.0,244.3 442.6,243.8 443.2,243.0 443.8,242.5 444.4,241.8 445.0,241.3 445.6,240.6 446.2,239.6 446.8,238.7 447.4,238.1 448.0,236.8 448.6,235.4 449.2,235.3 449.8,233.6 450.4,232.4 450.9,231.6 451.5,230.3 452.1,229.7 452.7,230.1 453.3,230.0 453.9,230.4 454.5,230.4 455.1,231.2 455.7,231.4 456.3,232.8 456.9,234.8 457.5,235.4 458.1,236.0 458.7,236.0 459.3,236.9 459.9,237.8 460.5,237.0 461.0,236.3 461.6,236.2 462.2,236.6 462.8,236.1 463.4,235.2 464.0,237.0 464.6,238.1 465.2,238.2 465.8,237.8 466.4,238.3 467.0,239.4 467.6,239.6 468.2,240.2 468.8,240.5 469.4,242.3 470.0,243.1 470.6,243.5 471.1,244.0 471.7,244.5 472.3,245.0 472.9,245.4 473.5,245.4 474.1,245.3 474.7,244.5 475.3,244.3 475.9,243.8 476.5,243.5 477.1,243.5 477.7,244.2 478.3,244.7 478.9,244.7 479.5,245.3 480.1,246.1 480.6,246.3 481.2,246.1 481.8,246.1 482.4,245.8 483.0,245.6 483.6,246.1 484.2,246.3 484.8,246.3 485.4,246.9 486.0,247.2 486.6,247.3 487.2,246.9 487.8,247.0 488.4,247.0 489.0,246.7 489.6,246.7 490.2,246.6 490.7,246.7 491.3,245.9 491.9,246.1 492.5,245.9 493.1,245.8 493.7,245.8 494.3,245.6 494.9,245.6 495.5,244.6 496.1,244.3 496.7,244.2 497.3,243.1 497.9,243.1 498.5,242.8 499.1,243.1 499.7,243.4 500.3,243.2 500.8,241.8 501.4,241.2 502.0,239.8 502.6,239.4 503.2,238.8 503.8,238.4 504.4,237.8 505.0,236.9 505.6,235.6 506.2,234.3 506.8,233.7 507.4,232.5 508.0,232.6 508.6,231.8 509.2,230.8 509.8,230.0 510.4,229.5 510.9,230.2 511.5,230.4 512.1,231.0 512.7,231.7 513.3,232.2 513.9,233.4 514.5,233.7 515.1,234.8 515.7,235.1 516.3,235.5 516.9,236.4 517.5,236.4 518.1,236.2 518.7,237.2 519.3,238.7 519.9,239.2 520.4,239.9 521.0,240.8 521.6,241.4 522.2,241.0 522.8,241.6 523.4,241.9 524.0,242.5 524.6,243.2 525.2,243.6 525.8,243.5 526.4,243.4 527.0,243.8 527.6,243.2 528.2,242.9 528.8,243.2 529.4,243.4 530.0,244.0 530.5,243.7 531.1,243.9 531.7,244.0 532.3,244.1 532.9,244.5 533.5,244.9 534.1,245.5 534.7,245.8 535.3,245.6 535.9,245.8 536.5,246.4 537.1,246.7 537.7,246.9 538.3,246.5 538.9,246.8 539.5,246.0 540.0,245.4 540.6,245.0 541.2,244.3 541.8,244.0 542.4,244.0 543.0,243.6 543.6,243.5 544.2,244.0 544.8,243.0 545.4,242.8 546.0,243.0 546.6,243.3 547.2,243.0 547.8,242.7 548.4,243.2 549.0,243.5 549.6,243.3 550.1,243.2 550.7,243.5 551.3,244.4 551.9,244.1 552.5,243.4 553.1,243.5 553.7,243.1 554.3,242.5 554.9,241.1 555.5,240.4 556.1,240.6 556.7,240.0 557.3,240.0 557.9,239.9 558.5,240.5 559.1,240.6 559.7,240.1 560.2,240.3 560.8,239.8 561.4,239.6 562.0,239.4 562.6,240.1 563.2,240.4 563.8,240.3 564.4,240.6 565.0,241.1 565.6,241.5 566.2,241.3 566.8,242.1 567.4,242.2 568.0,242.9 568.6,243.3 569.2,243.6 569.8,243.8 570.3,243.8 570.9,243.8 571.5,244.2 572.1,244.2 572.7,244.8 573.3,245.0 573.9,244.7 574.5,244.5 575.1,244.4 575.7,243.4 576.3,243.2 576.9,243.6 577.5,243.4 578.1,242.9 578.7,242.6 579.3,242.1 579.8,241.8 580.4,241.5 581.0,240.3 581.6,239.5 582.2,238.7 582.8,238.4 583.4,237.7 584.0,238.1 584.6,237.8 585.2,238.0 585.8,238.4 586.4,238.3 587.0,239.0 587.6,239.4 588.2,239.3 588.8,238.9 589.4,239.6 589.9,239.7 590.5,240.0 591.1,239.8 591.7,240.2 592.3,240.4 592.9,240.5 593.5,241.1 594.1,241.5 594.7,242.3 595.3,242.2 595.9,242.6 596.5,242.4 597.1,242.1 597.7,242.0 598.3,242.1 598.9,242.1 599.5,241.8 600.0,241.5 600.6,240.9 601.2,241.1 601.8,241.6 602.4,241.7 603.0,242.1 603.6,241.5 604.2,242.2 604.8,241.5 605.4,240.9 606.0,241.5 606.6,241.8 607.2,241.5 607.8,241.8 608.4,242.5 609.0,242.6 609.5,242.8 610.1,243.2 610.7,243.2 611.3,243.4 611.9,243.6 612.5,243.3 613.1,243.8 613.7,243.7 614.3,243.6 614.9,243.7 615.5,243.6 616.1,243.8 616.7,244.4 617.3,244.1 617.9,243.7 618.5,243.8 619.1,243.2 619.6,242.5 620.2,242.4 620.8,242.5 621.4,242.2 622.0,241.7 622.6,241.6 623.2,242.3 623.8,242.0 624.4,241.2 625.0,240.8 625.6,240.4 626.2,240.3 626.8,239.4 627.4,239.4 628.0,239.0 628.6,239.0 629.1,238.7 629.7,238.5 630.3,238.4 630.9,238.0 631.5,238.3 632.1,238.1 632.7,237.3 633.3,237.3 633.9,236.3 634.5,235.7 635.1,235.3 635.7,234.8 636.3,235.5 636.9,235.8 637.5,235.6 638.1,235.4 638.7,235.9 639.2,235.5 639.8,236.2 640.4,236.6 641.0,237.0 641.6,237.7 642.2,238.0 642.8,239.4 643.4,239.9 644.0,240.1"></path>
    <text y="105" x="640" text-anchor="end" fill="green">Food</text>
    <text y="208" x="640" text-anchor="end" fill="#0060e5">Creatures</text>
</svg>