<svg width="660" xmlns="http://www.w3.org/2000/svg" height="300">

<style>
  .data-series {
    opacity: 1;
    stroke-width: 1.8;
    fill: none;
  }
  .axis {
    stroke: #111;
    stroke-width: 1;
  }
  .y-axis-text {
    text-anchor: end;
  }
  .background {
    fill: none;
  }
  .axis-units {
    font-size: 10px;
    font-family: Arial;
  }
  .gridlines {
    opacity: 0.5;
    stroke: black;
    stroke-width: 0.3;
    fill: none;
  }
  .x-axis-text {
    text-anchor: middle;
  }
  .axis-label {
    font-size: 14px;
    font-family: Arial;
    text-anchor: middle;
  }
  </style>

    <text y="290" x="344.5" class="axis-label">Time (ticks)</text>
    <text y="134.0" x="0" class="axis-label" transform="translate(15.0) rotate(-90, 0, 134.0)">Population size</text>
    <line y1="258" x2="645" x1="45" y2="258" class="axis"></line>
    <line y1="258" x2="45" x1="45" y2="10" class="axis"></line>
    <g class="axis-units">
        <g class="x-axis-text">
            <text y="270" x="45.0">0</text>
            <text y="270" x="104.9">10K</text>
            <text y="270" x="164.8">20K</text>
            <text y="270" x="224.7">30K</text>
            <text y="270" x="284.6">40K</text>
            <text y="270" x="344.5">50K</text>
            <text y="270" x="404.4">60K</text>
            <text y="270" x="464.3">70K</text>
            <text y="270" x="524.2">80K</text>
            <text y="270" x="584.1">90K</text>
            <text y="270" x="644.0">100K</text>
        </g>
        <g class="y-axis-text">
            <text y="261.0" x="42">0</text>
            <text y="236.2" x="42">50</text>
            <text y="211.4" x="42">100</text>
            <text y="186.6" x="42">150</text>
            <text y="161.8" x="42">200</text>
            <text y="137.0" x="42">250</text>
            <text y="112.2" x="42">300</text>
            <text y="87.4" x="42">350</text>
            <text y="62.6" x="42">400</text>
            <text y="37.8" x="42">450</text>
            <text y="13.0" x="42">500</text>
        </g>
    </g>
    <g class="gridlines">
        <line y1="258" x2="104.5" x1="104.5" y2="10"></line>
        <line y1="258" x2="164.5" x1="164.5" y2="10"></line>
        <line y1="258" x2="224.5" x1="224.5" y2="10"></line>
        <line y1="258" x2="284.5" x1="284.5" y2="10"></line>
        <line y1="258" x2="344.5" x1="344.5" y2="10"></line>
        <line y1="258" x2="404.5" x1="404.5" y2="10"></line>
        <line y1="258" x2="464.5" x1="464.5" y2="10"></line>
        <line y1="258" x2="524.5" x1="524.5" y2="10"></line>
        <line y1="258" x2="584.5" x1="584.5" y2="10"></line>
        <line y1="258" x2="644.5" x1="644.5" y2="10"></line>
        <line y1="233.5" x2="644" x1="45" y2="233.5"></line>
        <line y1="208.5" x2="644" x1="45" y2="208.5"></line>
        <line y1="183.5" x2="644" x1="45" y2="183.5"></line>
        <line y1="158.5" x2="644" x1="45" y2="158.5"></line>
        <line y1="134.5" x2="644" x1="45" y2="134.5"></line>
        <line y1="109.5" x2="644" x1="45" y2="109.5"></line>
        <line y1="84.5" x2="644" x1="45" y2="84.5"></line>
        <line y1="59.5" x2="644" x1="45" y2="59.5"></line>
        <line y1="34.5" x2="644" x1="45" y2="34.5"></line>
        <line y1="10.5" x2="644" x1="45" y2="10.5"></line>
    </g>
    <path stroke="green" class="data-series" d="M45.6,156.8 46.2,152.8 46.8,148.9 47.4,146.4 48.0,140.0 48.6,135.5 49.2,133.0 49.8,126.6 50.4,121.1 51.0,114.2 51.6,109.7 52.2,103.2 52.8,94.3 53.4,91.8 54.0,85.9 54.6,83.4 55.2,78.0 55.8,73.0 56.4,66.0 57.0,64.6 57.6,62.6 58.2,59.1 58.8,54.6 59.4,50.2 60.0,46.7 60.6,43.2 61.2,35.3 61.8,30.8 62.4,29.8 63.0,25.9 63.6,23.4 64.2,20.9 64.8,16.9 65.4,11.5 66.0,11.5 66.6,15.0 67.2,13.5 67.8,16.0 68.4,13.5 69.0,16.0 69.6,13.5 70.2,18.9 70.8,24.9 71.4,24.4 72.0,29.3 72.6,34.3 73.2,39.3 73.8,50.2 74.4,58.6 75.0,69.5 75.5,79.9 76.1,89.9 76.7,100.8 77.3,114.7 77.9,125.6 78.5,131.5 79.1,137.5 79.7,148.9 80.3,152.8 80.9,156.8 81.5,160.3 82.1,164.3 82.7,164.3 83.3,163.8 83.9,168.2 84.5,171.2 85.1,168.2 85.7,167.2 86.3,166.7 86.9,164.8 87.5,164.3 88.1,161.3 88.7,157.8 89.3,155.8 89.9,154.8 90.5,149.9 91.1,147.4 91.7,146.4 92.3,144.9 92.9,140.4 93.5,138.0 94.1,134.5 94.7,131.5 95.3,126.6 95.9,124.6 96.5,121.6 97.1,115.2 97.7,108.7 98.3,103.2 98.9,99.8 99.5,93.8 100.1,89.9 100.7,84.4 101.3,82.4 101.9,79.9 102.5,76.0 103.1,74.0 103.7,67.0 104.3,64.6 104.9,63.6 105.5,59.1 106.1,52.2 106.7,50.2 107.3,48.7 107.9,46.7 108.5,41.7 109.1,38.8 109.7,36.8 110.3,34.3 110.9,29.8 111.5,27.4 112.1,26.9 112.7,27.9 113.3,24.4 113.9,20.4 114.5,17.4 115.1,18.9 115.7,19.4 116.3,18.9 116.9,22.9 117.5,20.4 118.1,21.9 118.7,28.4 119.3,36.3 119.9,41.2 120.5,49.2 121.1,52.2 121.7,58.1 122.3,66.0 122.9,70.5 123.5,76.5 124.1,83.4 124.7,92.8 125.3,94.8 125.9,105.7 126.5,113.7 127.1,122.1 127.7,130.0 128.3,137.0 128.9,144.4 129.5,150.4 130.1,158.3 130.7,161.8 131.3,164.3 131.9,169.2 132.5,166.2 133.1,166.7 133.7,168.2 134.3,168.7 134.8,168.2 135.4,173.7 136.0,173.7 136.6,168.2 137.2,167.7 137.8,166.7 138.4,161.3 139.0,155.8 139.6,155.3 140.2,151.4 140.8,149.4 141.4,143.9 142.0,144.4 142.6,144.4 143.2,142.4 143.8,138.0 144.4,136.5 145.0,134.5 145.6,127.6 146.2,123.6 146.8,118.1 147.4,111.2 148.0,105.2 148.6,101.8 149.2,98.8 149.8,98.3 150.4,93.3 151.0,89.4 151.6,86.4 152.2,84.9 152.8,80.4 153.4,74.0 154.0,71.0 154.6,71.5 155.2,69.0 155.8,70.5 156.4,69.5 157.0,67.5 157.6,66.5 158.2,66.5 158.8,69.0 159.4,69.5 160.0,71.5 160.6,66.5 161.2,62.1 161.8,63.6 162.4,58.1 163.0,58.6 163.6,58.1 164.2,58.6 164.8,61.6 165.4,61.6 166.0,65.6 166.6,66.5 167.2,70.0 167.8,73.0 168.4,78.4 169.0,78.0 169.6,78.9 170.2,81.9 170.8,80.4 171.4,89.4 172.0,95.8 172.6,96.3 173.2,97.3 173.8,100.3 174.4,102.8 175.0,107.7 175.6,107.2 176.2,109.2 176.8,115.2 177.4,115.2 178.0,119.1 178.6,121.6 179.2,118.1 179.8,117.6 180.4,116.1 181.0,115.6 181.6,113.7 182.2,112.7 182.8,111.2 183.4,110.2 184.0,111.7 184.6,108.7 185.2,106.2 185.8,110.2 186.4,106.7 187.0,107.2 187.6,103.2 188.2,103.2 188.8,102.3 189.4,98.8 190.0,99.8 190.6,96.8 191.2,91.3 191.8,92.3 192.4,96.3 193.0,93.3 193.6,94.3 194.2,94.8 194.8,94.8 195.3,96.3 195.9,95.8 196.5,94.3 197.1,93.3 197.7,90.8 198.3,85.4 198.9,85.9 199.5,87.9 200.1,90.8 200.7,93.3 201.3,91.8 201.9,90.8 202.5,89.4 203.1,95.3 203.7,98.3 204.3,99.8 204.9,102.3 205.5,105.2 206.1,110.2 206.7,111.2 207.3,112.7 207.9,115.6 208.5,117.1 209.1,118.6 209.7,122.1 210.3,123.1 210.9,122.1 211.5,119.6 212.1,127.1 212.7,126.1 213.3,128.0 213.9,126.6 214.5,129.0 215.1,129.5 215.7,128.0 216.3,130.0 216.9,127.6 217.5,124.6 218.1,126.1 218.7,125.1 219.3,125.1 219.9,126.6 220.5,121.6 221.1,123.6 221.7,125.6 222.3,126.6 222.9,119.6 223.5,121.1 224.1,119.1 224.7,123.6 225.3,123.1 225.9,121.6 226.5,122.1 227.1,121.1 227.7,120.6 228.3,121.6 228.9,125.1 229.5,130.0 230.1,135.5 230.7,134.0 231.3,128.0 231.9,131.0 232.5,128.0 233.1,128.5 233.7,130.5 234.3,128.0 234.9,127.1 235.5,124.1 236.1,120.1 236.7,120.6 237.3,120.1 237.9,117.6 238.5,112.2 239.1,108.2 239.7,102.8 240.3,99.3 240.9,97.3 241.5,95.8 242.1,93.8 242.7,89.9 243.3,84.9 243.9,81.9 244.5,80.4 245.1,73.5 245.7,68.5 246.3,64.1 246.9,63.6 247.5,62.6 248.1,63.1 248.7,57.6 249.3,56.6 249.9,54.6 250.5,53.6 251.1,52.7 251.7,55.1 252.3,55.1 252.9,56.6 253.5,60.1 254.1,62.1 254.6,62.1 255.2,67.5 255.8,72.5 256.4,73.5 257.0,78.0 257.6,78.0 258.2,83.4 258.8,84.9 259.4,86.4 260.0,89.4 260.6,93.8 261.2,97.3 261.8,98.3 262.4,97.3 263.0,103.7 263.6,109.2 264.2,125.1 264.8,129.0 265.4,135.0 266.0,136.0 266.6,144.4 267.2,145.4 267.8,151.9 268.4,151.9 269.0,152.8 269.6,153.3 270.2,153.8 270.8,152.8 271.4,154.8 272.0,154.3 272.6,151.4 273.2,148.4 273.8,146.4 274.4,141.4 275.0,141.4 275.6,137.0 276.2,132.5 276.8,132.0 277.4,128.0 278.0,123.1 278.6,122.6 279.2,120.6 279.8,117.1 280.4,111.7 281.0,112.7 281.6,103.7 282.2,101.8 282.8,98.3 283.4,91.3 284.0,88.9 284.6,85.9 285.2,80.9 285.8,78.0 286.4,76.5 287.0,77.0 287.6,75.0 288.2,72.5 288.8,71.5 289.4,71.0 290.0,68.0 290.6,65.6 291.2,61.6 291.8,62.1 292.4,53.2 293.0,48.7 293.6,49.2 294.2,47.7 294.8,42.7 295.4,40.3 296.0,37.3 296.6,38.3 297.2,37.3 297.8,36.3 298.4,38.3 299.0,41.2 299.6,43.2 300.2,44.7 300.8,43.7 301.4,47.2 302.0,52.7 302.6,58.1 303.2,67.0 303.8,65.1 304.4,73.5 305.0,79.4 305.6,86.4 306.2,91.8 306.8,98.3 307.4,105.2 308.0,111.2 308.6,112.2 309.2,117.6 309.8,117.1 310.4,121.1 311.0,123.6 311.6,130.0 312.2,132.5 312.8,134.0 313.4,136.0 314.0,142.9 314.6,142.4 315.1,140.0 315.7,140.0 316.3,140.0 316.9,138.5 317.5,134.5 318.1,135.5 318.7,134.5 319.3,129.5 319.9,130.5 320.5,132.0 321.1,130.5 321.7,127.1 322.3,128.0 322.9,129.0 323.5,124.1 324.1,123.6 324.7,120.6 325.3,119.1 325.9,115.2 326.5,114.7 327.1,113.7 327.7,108.7 328.3,105.7 328.9,104.2 329.5,100.8 330.1,95.8 330.7,91.8 331.3,89.4 331.9,85.9 332.5,83.4 333.1,83.9 333.7,77.0 334.3,74.0 334.9,72.0 335.5,69.0 336.1,65.6 336.7,63.6 337.3,58.6 337.9,54.1 338.5,51.2 339.1,46.2 339.7,43.7 340.3,39.3 340.9,33.3 341.5,30.8 342.1,31.8 342.7,26.9 343.3,22.9 343.9,22.4 344.5,26.9 345.1,27.4 345.7,26.4 346.3,24.4 346.9,27.4 347.5,28.4 348.1,27.9 348.7,26.9 349.3,34.8 349.9,34.8 350.5,38.8 351.1,50.2 351.7,56.6 352.3,58.1 352.9,69.0 353.5,76.0 354.1,84.4 354.7,86.9 355.3,93.8 355.9,98.8 356.5,104.2 357.1,114.7 357.7,123.1 358.3,131.0 358.9,134.0 359.5,133.0 360.1,136.5 360.7,136.0 361.3,137.5 361.9,140.0 362.5,139.0 363.1,139.0 363.7,140.0 364.3,140.4 364.9,141.4 365.5,141.9 366.1,141.4 366.7,141.4 367.3,139.5 367.9,141.4 368.5,136.5 369.1,131.0 369.7,129.5 370.3,127.6 370.9,124.1 371.5,115.6 372.1,113.7 372.7,113.2 373.3,109.7 373.9,106.7 374.4,103.2 375.0,101.3 375.6,95.3 376.2,95.8 376.8,90.8 377.4,87.4 378.0,83.4 378.6,79.9 379.2,75.5 379.8,72.0 380.4,69.5 381.0,61.6 381.6,57.1 382.2,52.7 382.8,53.2 383.4,49.2 384.0,48.7 384.6,42.7 385.2,40.8 385.8,43.7 386.4,41.2 387.0,39.8 387.6,38.3 388.2,36.8 388.8,36.3 389.4,34.8 390.0,31.8 390.6,37.8 391.2,39.8 391.8,46.2 392.4,51.2 393.0,57.1 393.6,61.6 394.2,67.0 394.8,71.0 395.4,73.5 396.0,77.0 396.6,78.4 397.2,83.4 397.8,86.4 398.4,94.8 399.0,99.8 399.6,104.2 400.2,113.2 400.8,118.1 401.4,121.6 402.0,128.5 402.6,127.6 403.2,133.5 403.8,136.0 404.4,141.9 405.0,145.9 405.6,148.4 406.2,150.4 406.8,146.4 407.4,144.9 408.0,150.4 408.6,150.9 409.2,153.8 409.8,155.3 410.4,149.9 411.0,152.8 411.6,149.9 412.2,148.4 412.8,144.9 413.4,141.9 414.0,140.9 414.6,142.4 415.2,143.9 415.8,140.4 416.4,139.5 417.0,137.5 417.6,131.5 418.2,128.0 418.8,127.6 419.4,128.0 420.0,124.1 420.6,119.1 421.2,116.6 421.8,113.7 422.4,107.7 423.0,101.3 423.6,94.8 424.2,93.3 424.8,87.4 425.4,83.4 426.0,77.5 426.6,78.9 427.2,75.5 427.8,76.0 428.4,72.0 429.0,69.5 429.6,64.1 430.2,60.6 430.8,55.6 431.4,54.6 432.0,50.7 432.6,49.7 433.2,51.2 433.8,49.2 434.3,46.2 434.9,49.2 435.5,48.2 436.1,47.7 436.7,48.7 437.3,50.7 437.9,53.2 438.5,58.1 439.1,60.1 439.7,67.0 440.3,68.0 440.9,70.5 441.5,77.0 442.1,77.5 442.7,78.9 443.3,82.4 443.9,82.9 444.5,83.4 445.1,83.9 445.7,91.3 446.3,92.8 446.9,96.8 447.5,104.2 448.1,108.7 448.7,111.7 449.3,113.7 449.9,117.6 450.5,118.6 451.1,120.1 451.7,119.6 452.3,119.1 452.9,120.1 453.5,118.1 454.1,117.1 454.7,114.7 455.3,116.1 455.9,115.6 456.5,115.2 457.1,115.6 457.7,118.6 458.3,117.1 458.9,115.6 459.5,118.6 460.1,116.6 460.7,115.6 461.3,113.2 461.9,108.2 462.5,110.2 463.1,109.7 463.7,110.2 464.3,112.2 464.9,108.2 465.5,108.2 466.1,114.7 466.7,111.7 467.3,108.2 467.9,115.6 468.5,114.7 469.1,118.1 469.7,119.1 470.3,118.1 470.9,119.6 471.5,118.6 472.1,119.1 472.7,118.1 473.3,118.1 473.9,120.1 474.5,122.6 475.1,129.0 475.7,127.6 476.3,126.6 476.9,128.5 477.5,126.1 478.1,127.1 478.7,124.6 479.3,125.6 479.9,126.6 480.5,121.6 481.1,121.1 481.7,117.1 482.3,118.6 482.9,119.6 483.5,117.6 484.1,118.6 484.7,119.6 485.3,117.6 485.9,122.6 486.5,122.1 487.1,120.1 487.7,117.6 488.3,116.6 488.9,118.6 489.5,120.6 490.1,119.1 490.7,120.6 491.3,121.6 491.9,119.6 492.5,118.1 493.1,112.7 493.7,118.1 494.2,114.7 494.8,115.2 495.4,117.1 496.0,120.1 496.6,120.6 497.2,120.1 497.8,120.6 498.4,121.1 499.0,122.1 499.6,119.6 500.2,119.6 500.8,118.6 501.4,120.6 502.0,122.6 502.6,119.1 503.2,120.6 503.8,118.1 504.4,114.7 505.0,109.7 505.6,110.2 506.2,113.2 506.8,111.2 507.4,109.7 508.0,110.7 508.6,111.7 509.2,109.7 509.8,106.2 510.4,99.3 511.0,103.2 511.6,101.8 512.2,99.8 512.8,96.8 513.4,93.8 514.0,96.3 514.6,97.8 515.2,96.3 515.8,94.8 516.4,93.3 517.0,93.3 517.6,94.3 518.2,95.3 518.8,93.8 519.4,90.8 520.0,86.9 520.6,85.4 521.2,84.9 521.8,82.4 522.4,83.4 523.0,82.9 523.6,81.4 524.2,82.9 524.8,86.4 525.4,90.4 526.0,89.4 526.6,95.8 527.2,97.8 527.8,102.8 528.4,103.2 529.0,101.3 529.6,103.2 530.2,103.7 530.8,106.2 531.4,107.2 532.0,112.2 532.6,110.7 533.2,111.7 533.8,118.1 534.4,120.6 535.0,121.6 535.6,121.6 536.2,121.1 536.8,125.1 537.4,124.1 538.0,126.1 538.6,126.6 539.2,122.6 539.8,118.6 540.4,119.1 541.0,114.7 541.6,116.6 542.2,112.7 542.8,113.2 543.4,112.2 544.0,111.2 544.6,109.7 545.2,108.7 545.8,109.2 546.4,107.7 547.0,109.7 547.6,104.2 548.2,103.2 548.8,103.7 549.4,102.3 550.0,101.8 550.6,100.3 551.2,100.8 551.8,98.8 552.4,98.8 553.0,97.3 553.6,99.3 554.1,97.8 554.7,94.3 555.3,94.8 555.9,94.8 556.5,91.8 557.1,86.4 557.7,82.9 558.3,85.9 558.9,83.4 559.5,80.9 560.1,78.4 560.7,76.5 561.3,78.9 561.9,79.4 562.5,82.4 563.1,80.9 563.7,86.4 564.3,86.4 564.9,84.9 565.5,85.4 566.1,89.9 566.7,88.9 567.3,94.3 567.9,100.3 568.5,102.3 569.1,106.7 569.7,110.7 570.3,115.2 570.9,118.1 571.5,122.1 572.1,124.1 572.7,124.1 573.3,124.6 573.9,129.0 574.5,132.0 575.1,136.5 575.7,136.0 576.3,135.5 576.9,135.0 577.5,137.0 578.1,132.0 578.7,133.0 579.3,129.5 579.9,128.5 580.5,125.6 581.1,122.1 581.7,123.1 582.3,124.6 582.9,123.1 583.5,122.6 584.1,119.6 584.7,120.1 585.3,116.6 585.9,114.7 586.5,111.2 587.1,110.7 587.7,110.7 588.3,105.7 588.9,103.2 589.5,100.8 590.1,99.3 590.7,96.8 591.3,93.8 591.9,90.4 592.5,91.8 593.1,93.3 593.7,91.8 594.3,94.8 594.9,92.8 595.5,91.3 596.1,89.9 596.7,88.9 597.3,92.3 597.9,90.4 598.5,92.8 599.1,95.3 599.7,95.8 600.3,96.8 600.9,100.8 601.5,101.3 602.1,102.8 602.7,100.8 603.3,106.2 603.9,103.2 604.5,103.7 605.1,104.7 605.7,107.2 606.3,108.7 606.9,109.2 607.5,105.2 608.1,108.7 608.7,113.2 609.3,113.7 609.9,113.7 610.5,113.2 611.1,116.6 611.7,121.1 612.3,120.1 612.9,119.1 613.5,116.1 614.0,121.1 614.6,120.1 615.2,122.6 615.8,122.1 616.4,123.1 617.0,121.6 617.6,120.1 618.2,119.1 618.8,121.6 619.4,121.6 620.0,118.6 620.6,120.1 621.2,121.6 621.8,118.6 622.4,121.1 623.0,119.1 623.6,121.6 624.2,126.6 624.8,124.1 625.4,122.1 626.0,119.6 626.6,118.1 627.2,117.1 627.8,117.1 628.4,111.7 629.0,110.7 629.6,108.2 630.2,102.8 630.8,99.8 631.4,99.3 632.0,95.8 632.6,96.3 633.2,95.3 633.8,95.8 634.4,93.8 635.0,92.8 635.6,93.3 636.2,90.8 636.8,92.3 637.4,91.8 638.0,91.8 638.6,91.8 639.2,96.8 639.8,97.3 640.4,103.2 641.0,109.7 641.6,105.7 642.2,109.7 642.8,108.7 643.4,105.2 644.0,99.8"></path>
    <path stroke="#0060e5" class="data-series" d="M45.6,252.0 46.2,251.6 46.8,250.6 47.4,249.6 48.0,249.6 48.6,249.6 49.2,249.1 49.8,249.6 50.4,251.6 51.0,252.0 51.6,254.0 52.2,253.5 52.8,254.5 53.4,253.0 54.0,253.0 54.6,252.0 55.2,251.6 55.8,251.6 56.4,251.6 57.0,250.6 57.6,250.6 58.2,249.6 58.8,251.1 59.4,250.1 60.0,250.6 60.6,250.1 61.2,250.6 61.8,249.6 62.4,248.6 63.0,249.6 63.6,247.1 64.2,245.1 64.8,244.1 65.4,243.6 66.0,244.1 66.6,239.6 67.2,238.2 67.8,237.7 68.4,236.7 69.0,232.2 69.6,231.2 70.2,229.7 70.8,226.3 71.4,222.3 72.0,219.3 72.6,213.9 73.2,210.9 73.8,207.4 74.4,202.9 75.0,198.5 75.5,195.5 76.1,191.5 76.7,187.6 77.3,184.6 77.9,185.1 78.5,182.1 79.1,183.6 79.7,182.1 80.3,183.1 80.9,187.1 81.5,191.0 82.1,194.5 82.7,202.4 83.3,207.9 83.9,209.4 84.5,213.4 85.1,215.3 85.7,222.3 86.3,225.3 86.9,229.2 87.5,232.7 88.1,235.2 88.7,237.2 89.3,237.7 89.9,241.6 90.5,243.6 91.1,246.6 91.7,247.1 92.3,246.1 92.9,246.1 93.5,246.6 94.1,247.1 94.7,247.6 95.3,248.6 95.9,248.1 96.5,248.6 97.1,249.6 97.7,250.1 98.3,250.6 98.9,252.5 99.5,254.0 100.1,254.0 100.7,253.5 101.3,252.5 101.9,253.0 102.5,253.0 103.1,252.5 103.7,252.5 104.3,252.5 104.9,252.0 105.5,251.1 106.1,250.6 106.7,250.1 107.3,248.1 107.9,245.6 108.5,244.1 109.1,242.6 109.7,242.6 110.3,242.6 110.9,241.6 111.5,242.6 112.1,242.6 112.7,240.6 113.3,241.6 113.9,240.6 114.5,240.1 115.1,237.2 115.7,236.7 116.3,237.2 116.9,228.7 117.5,229.2 118.1,227.7 118.7,223.8 119.3,220.3 119.9,219.8 120.5,217.3 121.1,214.4 121.7,212.4 122.3,209.4 122.9,208.4 123.5,204.9 124.1,199.5 124.7,196.0 125.3,194.5 125.9,193.0 126.5,192.0 127.1,191.5 127.7,187.6 128.3,189.1 128.9,190.0 129.5,194.0 130.1,194.0 130.7,200.5 131.3,201.0 131.9,205.4 132.5,209.4 133.1,218.3 133.7,218.3 134.3,216.3 134.8,219.8 135.4,217.8 136.0,218.8 136.6,224.3 137.2,224.8 137.8,230.2 138.4,232.7 139.0,234.2 139.6,240.1 140.2,241.6 140.8,241.1 141.4,244.1 142.0,244.6 142.6,246.1 143.2,245.1 143.8,245.1 144.4,245.1 145.0,247.6 145.6,248.6 146.2,248.6 146.8,249.1 147.4,249.6 148.0,250.1 148.6,250.6 149.2,250.6 149.8,249.6 150.4,249.6 151.0,249.6 151.6,248.6 152.2,247.1 152.8,248.1 153.4,247.1 154.0,246.6 154.6,245.1 155.2,243.1 155.8,241.6 156.4,241.6 157.0,240.1 157.6,239.2 158.2,239.6 158.8,237.2 159.4,236.2 160.0,235.2 160.6,235.2 161.2,235.7 161.8,233.7 162.4,235.2 163.0,234.7 163.6,232.7 164.2,231.7 164.8,229.2 165.4,228.7 166.0,227.2 166.6,225.3 167.2,223.3 167.8,221.3 168.4,220.3 169.0,220.3 169.6,222.8 170.2,221.3 170.8,221.3 171.4,219.8 172.0,216.8 172.6,216.8 173.2,213.9 173.8,209.9 174.4,208.4 175.0,209.9 175.6,208.4 176.2,214.8 176.8,209.9 177.4,213.4 178.0,211.4 178.6,212.4 179.2,214.8 179.8,215.3 180.4,218.3 181.0,226.3 181.6,231.2 182.2,234.7 182.8,234.2 183.4,233.7 184.0,234.7 184.6,234.7 185.2,233.2 185.8,231.7 186.4,230.2 187.0,232.7 187.6,232.2 188.2,232.7 188.8,234.2 189.4,235.2 190.0,236.2 190.6,237.2 191.2,239.6 191.8,239.2 192.4,237.7 193.0,237.2 193.6,235.7 194.2,234.7 194.8,233.2 195.3,234.2 195.9,235.7 196.5,233.7 197.1,231.7 197.7,233.7 198.3,234.7 198.9,232.7 199.5,232.2 200.1,229.7 200.7,227.7 201.3,226.8 201.9,226.3 202.5,226.3 203.1,226.8 203.7,226.3 204.3,223.8 204.9,222.8 205.5,219.3 206.1,217.8 206.7,216.3 207.3,217.3 207.9,213.9 208.5,213.4 209.1,213.4 209.7,213.4 210.3,216.8 210.9,219.3 211.5,218.3 212.1,219.8 212.7,223.3 213.3,226.3 213.9,227.2 214.5,227.2 215.1,228.7 215.7,231.2 216.3,229.7 216.9,230.2 217.5,231.2 218.1,231.2 218.7,230.7 219.3,232.2 219.9,233.2 220.5,234.7 221.1,236.2 221.7,236.7 222.3,236.2 222.9,237.2 223.5,237.2 224.1,236.2 224.7,236.2 225.3,236.2 225.9,234.7 226.5,230.7 227.1,230.2 227.7,228.7 228.3,228.2 228.9,226.8 229.5,226.3 230.1,226.8 230.7,226.8 231.3,226.3 231.9,227.2 232.5,227.2 233.1,231.7 233.7,233.2 234.3,235.2 234.9,235.7 235.5,238.2 236.1,238.2 236.7,238.2 237.3,238.7 237.9,239.2 238.5,241.1 239.1,244.1 239.7,245.6 240.3,248.1 240.9,248.1 241.5,247.6 242.1,247.6 242.7,248.6 243.3,247.1 243.9,248.1 244.5,246.6 245.1,248.1 245.7,249.1 246.3,249.6 246.9,247.6 247.5,245.1 248.1,243.6 248.7,243.6 249.3,240.6 249.9,240.1 250.5,240.1 251.1,239.6 251.7,233.7 252.3,234.7 252.9,233.2 253.5,230.2 254.1,226.8 254.6,226.3 255.2,221.8 255.8,218.8 256.4,217.8 257.0,216.3 257.6,215.3 258.2,214.4 258.8,215.3 259.4,216.3 260.0,218.3 260.6,217.8 261.2,216.3 261.8,216.3 262.4,214.4 263.0,215.8 263.6,211.9 264.2,204.9 264.8,207.4 265.4,204.4 266.0,205.9 266.6,203.9 267.2,202.9 267.8,207.9 268.4,208.4 269.0,214.8 269.6,217.3 270.2,220.8 270.8,222.3 271.4,224.8 272.0,228.2 272.6,229.2 273.2,231.7 273.8,232.2 274.4,234.7 275.0,238.2 275.6,240.6 276.2,241.1 276.8,242.6 277.4,244.6 278.0,245.1 278.6,244.1 279.2,245.1 279.8,248.6 280.4,248.6 281.0,245.6 281.6,245.6 282.2,248.6 282.8,247.6 283.4,247.6 284.0,248.1 284.6,248.1 285.2,248.1 285.8,248.1 286.4,248.6 287.0,247.6 287.6,249.6 288.2,248.1 288.8,248.1 289.4,247.1 290.0,247.1 290.6,246.6 291.2,246.1 291.8,245.6 292.4,246.1 293.0,245.6 293.6,246.6 294.2,244.1 294.8,244.6 295.4,245.1 296.0,243.6 296.6,241.6 297.2,240.6 297.8,238.7 298.4,235.7 299.0,230.7 299.6,227.7 300.2,227.7 300.8,226.8 301.4,225.3 302.0,223.8 302.6,220.8 303.2,213.9 303.8,211.9 304.4,205.9 305.0,204.9 305.6,202.0 306.2,202.4 306.8,201.5 307.4,202.9 308.0,202.9 308.6,202.4 309.2,206.9 309.8,213.4 310.4,213.9 311.0,215.8 311.6,218.3 312.2,217.8 312.8,216.3 313.4,216.8 314.0,216.3 314.6,220.3 315.1,221.8 315.7,222.3 316.3,224.8 316.9,227.7 317.5,230.2 318.1,229.7 318.7,230.2 319.3,232.2 319.9,234.2 320.5,231.7 321.1,232.2 321.7,235.2 322.3,236.7 322.9,235.7 323.5,237.2 324.1,237.2 324.7,238.2 325.3,237.7 325.9,238.2 326.5,238.7 327.1,242.6 327.7,245.6 328.3,246.1 328.9,246.6 329.5,246.6 330.1,247.6 330.7,247.6 331.3,247.1 331.9,248.1 332.5,248.6 333.1,247.6 333.7,247.6 334.3,248.1 334.9,248.1 335.5,249.1 336.1,248.1 336.7,247.1 337.3,249.1 337.9,249.6 338.5,249.6 339.1,249.6 339.7,249.6 340.3,250.1 340.9,250.1 341.5,247.6 342.1,244.6 342.7,244.1 343.3,243.1 343.9,240.6 344.5,236.7 345.1,236.2 345.7,235.7 346.3,233.2 346.9,232.2 347.5,230.7 348.1,228.7 348.7,229.2 349.3,226.8 349.9,223.8 350.5,221.8 351.1,217.3 351.7,210.9 352.3,209.9 352.9,207.9 353.5,205.9 354.1,203.9 354.7,201.0 355.3,200.0 355.9,199.5 356.5,197.0 357.1,198.0 357.7,197.5 358.3,200.0 358.9,198.5 359.5,202.0 360.1,207.9 360.7,213.9 361.3,215.8 361.9,216.3 362.5,218.3 363.1,222.3 363.7,225.8 364.3,224.8 364.9,220.3 365.5,224.8 366.1,225.3 366.7,227.7 367.3,229.2 367.9,230.7 368.5,237.7 369.1,239.2 369.7,238.7 370.3,239.6 370.9,241.1 371.5,244.1 372.1,245.1 372.7,245.1 373.3,247.1 373.9,247.6 374.4,247.6 375.0,248.1 375.6,247.6 376.2,248.1 376.8,246.6 377.4,247.1 378.0,246.1 378.6,245.6 379.2,246.6 379.8,247.6 380.4,247.6 381.0,246.6 381.6,246.6 382.2,245.6 382.8,244.6 383.4,243.1 384.0,242.1 384.6,241.6 385.2,242.1 385.8,241.1 386.4,241.1 387.0,240.1 387.6,239.6 388.2,239.2 388.8,236.7 389.4,236.2 390.0,238.2 390.6,234.7 391.2,231.7 391.8,228.7 392.4,225.3 393.0,219.3 393.6,215.8 394.2,214.8 394.8,212.4 395.4,214.8 396.0,214.4 396.6,214.8 397.2,214.4 397.8,210.4 398.4,208.9 399.0,203.9 399.6,202.9 400.2,202.0 400.8,200.5 401.4,203.4 402.0,205.4 402.6,208.4 403.2,209.9 403.8,211.4 404.4,212.4 405.0,211.4 405.6,213.9 406.2,216.3 406.8,221.3 407.4,221.8 408.0,221.8 408.6,222.8 409.2,222.3 409.8,223.8 410.4,226.3 411.0,227.7 411.6,229.2 412.2,232.7 412.8,236.2 413.4,236.7 414.0,239.2 414.6,239.2 415.2,238.2 415.8,236.2 416.4,235.2 417.0,235.2 417.6,236.2 418.2,237.2 418.8,238.7 419.4,239.2 420.0,241.6 420.6,240.6 421.2,241.1 421.8,242.6 422.4,244.1 423.0,246.1 423.6,247.1 424.2,248.1 424.8,249.1 425.4,248.6 426.0,249.1 426.6,248.6 427.2,247.6 427.8,245.6 428.4,245.1 429.0,244.1 429.6,243.6 430.2,242.6 430.8,244.6 431.4,241.1 432.0,241.6 432.6,240.1 433.2,239.2 433.8,239.2 434.3,238.2 434.9,236.7 435.5,236.7 436.1,235.2 436.7,234.7 437.3,231.7 437.9,228.7 438.5,225.3 439.1,220.8 439.7,217.8 440.3,215.8 440.9,215.3 441.5,214.4 442.1,216.3 442.7,216.3 443.3,215.3 443.9,217.3 444.5,217.3 445.1,220.3 445.7,216.8 446.3,217.8 446.9,218.8 447.5,214.4 448.1,210.9 448.7,210.9 449.3,212.9 449.9,214.4 450.5,218.8 451.1,218.8 451.7,218.3 452.3,222.8 452.9,225.3 453.5,226.8 454.1,227.2 454.7,231.7 455.3,232.7 455.9,231.7 456.5,232.2 457.1,231.2 457.7,230.2 458.3,228.2 458.9,227.7 459.5,226.8 460.1,228.2 460.7,226.3 461.3,226.3 461.9,228.7 462.5,229.7 463.1,230.2 463.7,229.2 464.3,227.2 464.9,228.2 465.5,228.7 466.1,227.7 466.7,229.2 467.3,230.7 467.9,225.3 468.5,226.3 469.1,224.3 469.7,223.8 470.3,226.3 470.9,227.2 471.5,227.2 472.1,224.8 472.7,222.8 473.3,221.8 473.9,222.3 474.5,221.3 475.1,217.8 475.7,220.8 476.3,221.8 476.9,221.3 477.5,221.3 478.1,222.8 478.7,227.2 479.3,226.8 479.9,227.2 480.5,229.7 481.1,230.7 481.7,230.7 482.3,227.7 482.9,228.7 483.5,228.7 484.1,228.2 484.7,227.7 485.3,227.2 485.9,231.7 486.5,232.2 487.1,234.2 487.7,236.7 488.3,236.7 488.9,236.2 489.5,232.2 490.1,231.7 490.7,229.7 491.3,230.7 491.9,229.7 492.5,227.7 493.1,228.7 493.7,227.7 494.2,228.2 494.8,228.2 495.4,227.2 496.0,227.2 496.6,228.2 497.2,228.2 497.8,226.3 498.4,226.8 499.0,225.8 499.6,225.8 500.2,225.8 500.8,225.8 501.4,227.2 502.0,227.2 502.6,229.2 503.2,230.7 503.8,231.7 504.4,234.2 505.0,235.2 505.6,237.2 506.2,237.7 506.8,238.2 507.4,238.2 508.0,239.6 508.6,238.7 509.2,240.6 509.8,241.6 510.4,241.1 511.0,238.2 511.6,239.2 512.2,238.7 512.8,238.2 513.4,237.2 514.0,238.2 514.6,239.2 515.2,236.7 515.8,236.7 516.4,235.7 517.0,235.7 517.6,237.2 518.2,237.2 518.8,236.2 519.4,237.2 520.0,238.2 520.6,239.6 521.2,239.6 521.8,239.2 522.4,236.7 523.0,233.7 523.6,233.7 524.2,231.2 524.8,231.2 525.4,229.7 526.0,229.2 526.6,227.7 527.2,227.2 527.8,225.3 528.4,224.8 529.0,225.8 529.6,224.3 530.2,223.8 530.8,221.3 531.4,222.3 532.0,219.8 532.6,220.3 533.2,222.8 533.8,220.8 534.4,221.8 535.0,222.3 535.6,222.3 536.2,224.8 536.8,222.3 537.4,224.8 538.0,222.3 538.6,222.3 539.2,223.3 539.8,224.3 540.4,225.3 541.0,229.2 541.6,232.2 542.2,234.7 542.8,235.7 543.4,235.7 544.0,236.7 544.6,237.7 545.2,239.2 545.8,237.7 546.4,237.7 547.0,238.7 547.6,238.7 548.2,239.2 548.8,238.2 549.4,239.2 550.0,238.7 550.6,238.2 551.2,237.7 551.8,239.6 552.4,236.2 553.0,235.7 553.6,236.2 554.1,235.7 554.7,237.2 555.3,238.2 555.9,241.1 556.5,241.1 557.1,240.1 557.7,241.6 558.3,240.6 558.9,240.6 559.5,240.6 560.1,239.2 560.7,238.2 561.3,236.7 561.9,236.7 562.5,235.2 563.1,235.7 563.7,233.2 564.3,229.7 564.9,227.7 565.5,225.3 566.1,222.8 566.7,225.8 567.3,221.8 567.9,220.8 568.5,218.8 569.1,218.8 569.7,216.3 570.3,215.8 570.9,218.8 571.5,219.8 572.1,217.3 572.7,217.3 573.3,222.3 573.9,218.8 574.5,217.3 575.1,220.8 575.7,221.8 576.3,217.8 576.9,218.8 577.5,221.8 578.1,223.8 578.7,224.8 579.3,226.8 579.9,229.7 580.5,231.7 581.1,233.2 581.7,236.7 582.3,237.7 582.9,239.6 583.5,241.1 584.1,242.6 584.7,241.6 585.3,241.6 585.9,240.6 586.5,240.6 587.1,239.2 587.7,240.6 588.3,240.6 588.9,242.6 589.5,241.1 590.1,240.6 590.7,241.6 591.3,240.1 591.9,239.2 592.5,239.2 593.1,237.7 593.7,238.2 594.3,237.2 594.9,237.7 595.5,236.7 596.1,238.2 596.7,239.2 597.3,235.2 597.9,235.7 598.5,234.2 599.1,232.7 599.7,230.2 600.3,228.2 600.9,227.7 601.5,225.3 602.1,224.3 602.7,224.8 603.3,223.3 603.9,222.8 604.5,221.8 605.1,223.8 605.7,223.3 606.3,222.3 606.9,220.8 607.5,222.3 608.1,226.3 608.7,223.8 609.3,221.3 609.9,221.3 610.5,221.3 611.1,220.8 611.7,218.3 612.3,221.8 612.9,221.3 613.5,221.3 614.0,221.3 614.6,221.8 615.2,222.3 615.8,225.8 616.4,224.8 617.0,224.8 617.6,228.2 618.2,227.2 618.8,225.8 619.4,226.3 620.0,228.2 620.6,224.8 621.2,220.8 621.8,222.8 622.4,223.3 623.0,224.3 623.6,229.2 624.2,228.7 624.8,231.7 625.4,232.2 626.0,231.7 626.6,232.2 627.2,233.7 627.8,234.7 628.4,236.2 629.0,235.7 629.6,235.7 630.2,239.6 630.8,237.7 631.4,236.7 632.0,236.2 632.6,239.2 633.2,239.2 633.8,238.7 634.4,236.7 635.0,235.2 635.6,235.2 636.2,235.7 636.8,234.7 637.4,233.7 638.0,234.2 638.6,234.7 639.2,231.2 639.8,230.2 640.4,226.3 641.0,225.8 641.6,224.8 642.2,223.8 642.8,223.3 643.4,225.3 644.0,225.8"></path>
    <text y="78" x="640" text-anchor="end" fill="green">Food</text>
    <text y="200" x="640" text-anchor="end" fill="#0060e5">Creatures</text>
</svg>