<svg width="660" height="300" xmlns="http://www.w3.org/2000/svg">

<style>
  .background {
    fill: none;
  }
  .axis {
    stroke: #111;
    stroke-width: 1;
  }
  .axis-label {
    font-size: 14px;
    font-family: Arial;
    text-anchor: middle;
  }
  .axis-units {
    font-size: 10px;
    font-family: Arial;
  }
  .y-axis-text {
    text-anchor: end;
  }
  .x-axis-text {
    text-anchor: middle;
  }
  .gridlines {
    stroke: black;
    stroke-width: 0.3;
    fill: none;
    opacity: 0.5;
  }
  .data-series {
    stroke-width: 1.8;
    fill: none;
    opacity: 1;
  }
  </style>

    <text class="axis-label" x="347.0" y="290">Time (ticks)</text>
    <text class="axis-label" x="0" y="134.0" transform="translate(15.0) rotate(-90, 0, 134.0)">Population size</text>
    <line class="axis" x1="50" y1="258" x2="645" y2="258"></line>
    <line class="axis" x1="50" y1="258" x2="50" y2="10"></line>
    <g class="axis-units">
        <g class="x-axis-text">
            <text x="50.0" y="270">0</text>
            <text x="134.85714285714286" y="270">10K</text>
            <text x="219.71428571428572" y="270">20K</text>
            <text x="304.57142857142856" y="270">30K</text>
            <text x="389.42857142857144" y="270">40K</text>
            <text x="474.2857142857143" y="270">50K</text>
            <text x="559.1428571428571" y="270">60K</text>
            <text x="644.0" y="270">70K</text>
        </g>
        <g class="y-axis-text">
            <text x="47" y="261.0">0</text>
            <text x="47" y="219.66666666666666">500</text>
            <text x="47" y="178.33333333333331">1000</text>
            <text x="47" y="137.0">1500</text>
            <text x="47" y="95.66666666666666">2000</text>
            <text x="47" y="54.33333333333334">2500</text>
            <text x="47" y="13.0">3000</text>
        </g>
    </g>
    <g class="gridlines">
        <line x1="134.5" y1="258" x2="134.5" y2="10"></line>
        <line x1="219.5" y1="258" x2="219.5" y2="10"></line>
        <line x1="304.5" y1="258" x2="304.5" y2="10"></line>
        <line x1="389.5" y1="258" x2="389.5" y2="10"></line>
        <line x1="474.5" y1="258" x2="474.5" y2="10"></line>
        <line x1="559.5" y1="258" x2="559.5" y2="10"></line>
        <line x1="644.5" y1="258" x2="644.5" y2="10"></line>
        <line x1="50" y1="216.5" x2="644" y2="216.5"></line>
        <line x1="50" y1="175.5" x2="644" y2="175.5"></line>
        <line x1="50" y1="134.5" x2="644" y2="134.5"></line>
        <line x1="50" y1="92.5" x2="644" y2="92.5"></line>
        <line x1="50" y1="51.5" x2="644" y2="51.5"></line>
        <line x1="50" y1="10.5" x2="644" y2="10.5"></line>
    </g>
    <path class="data-series" stroke="green" d="M50.8,160.4 51.7,160.3 52.5,159.5 53.4,160.9 54.2,161.1 55.1,161.2 55.9,161.9 56.8,161.9 57.6,162.4 58.5,161.8 59.3,162.1 60.2,162.6 61.0,162.4 61.9,162.5 62.7,162.7 63.6,163.3 64.4,163.5 65.3,163.5 66.1,163.5 67.0,163.6 67.8,163.2 68.7,163.4 69.5,162.9 70.4,162.9 71.2,162.0 72.1,162.0 72.9,161.1 73.8,160.9 74.6,160.7 75.5,160.7 76.3,160.4 77.2,160.1 78.0,159.8 78.9,159.7 79.7,160.0 80.5,159.0 81.4,158.6 82.2,157.2 83.1,157.1 83.9,156.5 84.8,155.9 85.6,155.4 86.5,154.7 87.3,154.0 88.2,153.4 89.0,152.7 89.9,151.9 90.7,151.2 91.6,150.9 92.4,150.3 93.3,149.2 94.1,148.7 95.0,147.9 95.8,147.2 96.7,146.4 97.5,146.4 98.4,146.3 99.2,145.5 100.1,145.2 100.9,144.9 101.8,144.5 102.6,144.0 103.5,144.0 104.3,143.3 105.2,143.0 106.0,142.2 106.9,141.7 107.7,141.3 108.6,141.1 109.4,140.4 110.2,140.1 111.1,139.8 111.9,139.3 112.8,138.9 113.6,138.4 114.5,137.6 115.3,137.1 116.2,136.5 117.0,135.4 117.9,134.4 118.7,133.7 119.6,133.3 120.4,132.5 121.3,132.3 122.1,132.3 123.0,131.2 123.8,130.5 124.7,130.2 125.5,129.5 126.4,129.1 127.2,128.1 128.1,127.1 128.9,126.2 129.8,125.8 130.6,124.2 131.5,124.0 132.3,123.3 133.2,123.4 134.0,122.8 134.9,122.5 135.7,122.1 136.6,121.6 137.4,121.4 138.3,121.6 139.1,120.6 139.9,120.6 140.8,120.9 141.6,121.3 142.5,121.7 143.3,121.8 144.2,121.8 145.0,121.9 145.9,122.4 146.7,123.3 147.6,124.1 148.4,124.5 149.3,124.5 150.1,124.7 151.0,125.6 151.8,125.1 152.7,125.9 153.5,126.6 154.4,126.8 155.2,127.3 156.1,127.0 156.9,126.9 157.8,126.6 158.6,126.9 159.5,127.7 160.3,127.6 161.2,127.2 162.0,127.1 162.9,127.3 163.7,128.0 164.6,128.6 165.4,128.9 166.3,128.5 167.1,129.0 168.0,129.0 168.8,129.2 169.6,129.5 170.5,129.0 171.3,129.2 172.2,128.6 173.0,128.7 173.9,128.2 174.7,127.4 175.6,126.9 176.4,126.5 177.3,126.4 178.1,126.1 179.0,126.3 179.8,126.1 180.7,126.0 181.5,126.4 182.4,126.0 183.2,125.8 184.1,125.7 184.9,125.7 185.8,125.6 186.6,126.1 187.5,126.6 188.3,126.6 189.2,126.6 190.0,126.8 190.9,127.7 191.7,128.4 192.6,129.0 193.4,129.2 194.3,129.2 195.1,129.5 196.0,129.4 196.8,129.9 197.7,130.4 198.5,130.0 199.3,130.3 200.2,130.4 201.0,130.8 201.9,130.3 202.7,130.4 203.6,129.9 204.4,130.0 205.3,130.4 206.1,131.2 207.0,131.9 207.8,131.9 208.7,132.3 209.5,132.5 210.4,133.1 211.2,133.4 212.1,134.2 212.9,135.3 213.8,136.5 214.6,137.3 215.5,138.4 216.3,138.3 217.2,139.5 218.0,140.5 218.9,141.4 219.7,142.3 220.6,144.0 221.4,145.2 222.3,146.6 223.1,147.4 224.0,148.8 224.8,149.8 225.7,151.5 226.5,151.6 227.4,151.4 228.2,152.3 229.0,152.5 229.9,153.4 230.7,154.6 231.6,155.7 232.4,156.2 233.3,157.0 234.1,157.6 235.0,158.5 235.8,158.8 236.7,158.9 237.5,159.3 238.4,159.0 239.2,159.2 240.1,158.6 240.9,159.2 241.8,158.4 242.6,157.4 243.5,157.2 244.3,155.9 245.2,156.7 246.0,156.8 246.9,157.0 247.7,156.9 248.6,156.7 249.4,156.8 250.3,156.7 251.1,155.8 252.0,156.4 252.8,156.6 253.7,156.6 254.5,156.2 255.4,155.4 256.2,154.9 257.1,154.7 257.9,154.3 258.7,153.9 259.6,153.6 260.4,153.8 261.3,153.4 262.1,153.3 263.0,153.0 263.8,153.2 264.7,153.2 265.5,152.8 266.4,152.4 267.2,152.5 268.1,152.4 268.9,153.0 269.8,152.8 270.6,152.3 271.5,152.6 272.3,152.4 273.2,151.8 274.0,152.0 274.9,152.4 275.7,151.9 276.6,151.4 277.4,150.8 278.3,149.8 279.1,149.3 280.0,148.9 280.8,147.8 281.7,147.1 282.5,146.6 283.4,145.5 284.2,144.6 285.1,144.3 285.9,143.3 286.8,142.4 287.6,141.7 288.4,141.2 289.3,140.4 290.1,139.9 291.0,139.2 291.8,139.0 292.7,137.6 293.5,136.6 294.4,136.3 295.2,135.5 296.1,135.0 296.9,134.7 297.8,134.4 298.6,134.0 299.5,133.1 300.3,131.8 301.2,131.0 302.0,130.5 302.9,130.1 303.7,130.0 304.6,129.5 305.4,128.6 306.3,127.7 307.1,127.2 308.0,126.6 308.8,125.5 309.7,124.9 310.5,124.7 311.4,124.6 312.2,123.7 313.1,122.8 313.9,122.5 314.8,122.1 315.6,121.6 316.5,120.9 317.3,120.2 318.1,119.9 319.0,119.5 319.8,119.0 320.7,118.0 321.5,117.0 322.4,116.5 323.2,115.9 324.1,115.2 324.9,114.8 325.8,114.5 326.6,113.6 327.5,113.5 328.3,112.8 329.2,112.3 330.0,111.8 330.9,111.2 331.7,110.8 332.6,109.9 333.4,109.4 334.3,108.8 335.1,108.2 336.0,107.9 336.8,107.3 337.7,106.7 338.5,106.2 339.4,106.0 340.2,106.3 341.1,105.6 341.9,104.9 342.8,104.5 343.6,104.1 344.5,104.5 345.3,103.7 346.2,103.7 347.0,103.2 347.8,103.7 348.7,104.6 349.5,104.4 350.4,104.7 351.2,104.7 352.1,104.9 352.9,104.9 353.8,105.1 354.6,104.8 355.5,104.8 356.3,104.7 357.2,104.1 358.0,103.8 358.9,103.7 359.7,103.6 360.6,103.2 361.4,103.7 362.3,103.2 363.1,103.2 364.0,102.6 364.8,102.8 365.7,102.4 366.5,102.3 367.4,101.8 368.2,101.5 369.1,101.3 369.9,101.5 370.8,101.3 371.6,101.3 372.5,101.1 373.3,101.3 374.2,100.9 375.0,101.2 375.9,101.6 376.7,102.6 377.5,102.3 378.4,102.2 379.2,102.5 380.1,103.0 380.9,103.0 381.8,103.2 382.6,103.8 383.5,104.7 384.3,105.7 385.2,106.5 386.0,107.1 386.9,108.0 387.7,108.5 388.6,108.8 389.4,110.3 390.3,110.8 391.1,111.8 392.0,112.3 392.8,113.5 393.7,113.6 394.5,115.0 395.4,116.6 396.2,118.5 397.1,118.7 397.9,118.7 398.8,119.0 399.6,118.6 400.5,118.5 401.3,118.8 402.2,118.9 403.0,119.6 403.9,120.5 404.7,120.7 405.6,121.4 406.4,121.4 407.2,121.1 408.1,120.9 408.9,120.6 409.8,121.2 410.6,121.1 411.5,121.5 412.3,121.9 413.2,123.4 414.0,125.1 414.9,125.1 415.7,125.2 416.6,125.7 417.4,127.1 418.3,128.2 419.1,129.8 420.0,131.9 420.8,131.6 421.7,132.4 422.5,133.3 423.4,134.1 424.2,135.2 425.1,135.3 425.9,136.8 426.8,138.1 427.6,139.0 428.5,140.1 429.3,141.8 430.2,142.9 431.0,143.5 431.9,145.6 432.7,146.2 433.6,147.6 434.4,148.6 435.3,149.6 436.1,150.4 436.9,150.9 437.8,152.6 438.6,154.0 439.5,155.1 440.3,154.7 441.2,155.2 442.0,155.8 442.9,156.1 443.7,156.5 444.6,157.1 445.4,157.6 446.3,157.9 447.1,158.8 448.0,159.5 448.8,159.1 449.7,159.9 450.5,161.1 451.4,161.7 452.2,162.2 453.1,162.4 453.9,162.8 454.8,163.3 455.6,163.7 456.5,163.6 457.3,164.6 458.2,164.8 459.0,164.3 459.9,164.2 460.7,164.8 461.6,164.8 462.4,164.7 463.3,165.0 464.1,166.1 465.0,165.9 465.8,166.5 466.6,167.1 467.5,166.9 468.3,167.6 469.2,167.8 470.0,168.0 470.9,168.4 471.7,168.7 472.6,168.5 473.4,168.6 474.3,168.1 475.1,167.9 476.0,168.1 476.8,167.8 477.7,168.2 478.5,168.7 479.4,168.3 480.2,167.7 481.1,168.1 481.9,167.8 482.8,167.5 483.6,166.7 484.5,166.7 485.3,166.5 486.2,166.0 487.0,165.2 487.9,165.4 488.7,165.2 489.6,165.2 490.4,164.6 491.3,164.5 492.1,164.0 493.0,163.9 493.8,163.2 494.7,163.1 495.5,162.8 496.3,162.5 497.2,162.1 498.0,161.4 498.9,160.9 499.7,160.5 500.6,159.5 501.4,158.6 502.3,157.4 503.1,157.7 504.0,156.4 504.8,155.2 505.7,154.8 506.5,154.5 507.4,154.7 508.2,153.8 509.1,152.9 509.9,152.4 510.8,151.4 511.6,150.7 512.5,150.2 513.3,149.3 514.2,148.4 515.0,147.2 515.9,146.8 516.7,145.9 517.6,145.2 518.4,143.8 519.3,142.8 520.1,142.6 521.0,141.8 521.8,140.7 522.7,139.7 523.5,138.6 524.4,137.5 525.2,136.6 526.0,136.1 526.9,135.2 527.7,134.2 528.6,133.5 529.4,132.7 530.3,131.3 531.1,130.4 532.0,129.2 532.8,128.2 533.7,127.7 534.5,127.2 535.4,126.6 536.2,125.3 537.1,124.0 537.9,122.8 538.8,122.0 539.6,121.2 540.5,119.8 541.3,119.1 542.2,117.7 543.0,116.9 543.9,116.3 544.7,114.9 545.6,113.9 546.4,112.8 547.3,111.4 548.1,110.7 549.0,110.2 549.8,109.6 550.7,108.8 551.5,107.7 552.4,107.1 553.2,106.0 554.1,104.9 554.9,103.7 555.7,102.9 556.6,102.5 557.4,101.3 558.3,100.5 559.1,99.6 560.0,98.5 560.8,97.6 561.7,96.6 562.5,95.4 563.4,94.7 564.2,93.8 565.1,93.2 565.9,92.0 566.8,90.5 567.6,89.3 568.5,87.6 569.3,86.7 570.2,86.1 571.0,85.5 571.9,84.6 572.7,84.2 573.6,83.4 574.4,83.2 575.3,82.1 576.1,81.3 577.0,80.4 577.8,79.4 578.7,78.3 579.5,77.3 580.4,76.1 581.2,75.1 582.1,74.1 582.9,73.6 583.8,72.5 584.6,71.8 585.4,71.1 586.3,69.6 587.1,68.5 588.0,67.4 588.8,66.5 589.7,65.9 590.5,64.9 591.4,63.8 592.2,62.7 593.1,61.7 593.9,60.8 594.8,60.0 595.6,59.4 596.5,58.2 597.3,57.6 598.2,56.0 599.0,55.0 599.9,54.1 600.7,53.1 601.6,52.2 602.4,51.3 603.3,50.8 604.1,49.0 605.0,47.9 605.8,47.4 606.7,46.6 607.5,46.2 608.4,44.7 609.2,43.9 610.1,43.0 610.9,41.9 611.8,40.5 612.6,39.3 613.5,38.2 614.3,37.2 615.1,36.4 616.0,35.0 616.8,34.0 617.7,32.7 618.5,31.9"></path>
    <path class="data-series" stroke="#0060e5" d="M50.8,253.1 51.7,252.6 52.5,252.0 53.4,251.1 54.2,250.6 55.1,251.6 55.9,251.3 56.8,251.5 57.6,251.4 58.5,252.0 59.3,252.3 60.2,251.7 61.0,251.8 61.9,252.0 62.7,251.9 63.6,251.8 64.4,251.9 65.3,251.9 66.1,252.3 67.0,253.0 67.8,253.2 68.7,253.2 69.5,253.7 70.4,253.9 71.2,254.2 72.1,254.3 72.9,254.9 73.8,254.8 74.6,254.9 75.5,254.7 76.3,254.8 77.2,255.2 78.0,255.7 78.9,255.4 79.7,255.3 80.5,255.4 81.4,255.4 82.2,255.5 83.1,255.7 83.9,255.8 84.8,256.0 85.6,256.0 86.5,256.2 87.3,256.2 88.2,256.2 89.0,256.4 89.9,256.3 90.7,256.4 91.6,256.4 92.4,256.6 93.3,256.6 94.1,256.4 95.0,256.3 95.8,256.5 96.7,256.7 97.5,256.1 98.4,256.1 99.2,256.2 100.1,256.3 100.9,255.8 101.8,255.5 102.6,255.5 103.5,255.6 104.3,255.4 105.2,255.2 106.0,255.6 106.9,255.9 107.7,255.9 108.6,255.9 109.4,256.2 110.2,256.2 111.1,256.3 111.9,256.4 112.8,256.3 113.6,256.6 114.5,256.8 115.3,256.7 116.2,256.6 117.0,256.7 117.9,256.7 118.7,256.6 119.6,256.6 120.4,256.8 121.3,256.7 122.1,256.4 123.0,256.4 123.8,256.3 124.7,256.3 125.5,256.2 126.4,256.3 127.2,256.5 128.1,256.4 128.9,256.2 129.8,256.7 130.6,256.8 131.5,256.7 132.3,256.5 133.2,256.3 134.0,256.3 134.9,255.9 135.7,255.9 136.6,255.9 137.4,255.6 138.3,255.0 139.1,255.1 139.9,254.9 140.8,254.4 141.6,254.1 142.5,254.4 143.3,253.9 144.2,253.5 145.0,253.3 145.9,253.2 146.7,253.2 147.6,252.4 148.4,251.6 149.3,251.4 150.1,251.7 151.0,252.0 151.8,252.0 152.7,252.2 153.5,251.8 154.4,251.9 155.2,251.8 156.1,251.9 156.9,252.3 157.8,253.0 158.6,252.8 159.5,252.8 160.3,253.1 161.2,253.0 162.0,252.5 162.9,252.3 163.7,252.7 164.6,252.0 165.4,252.0 166.3,252.0 167.1,252.3 168.0,252.5 168.8,252.5 169.6,253.0 170.5,253.0 171.3,253.1 172.2,253.1 173.0,253.1 173.9,253.5 174.7,254.2 175.6,254.2 176.4,253.9 177.3,254.4 178.1,254.4 179.0,253.9 179.8,253.9 180.7,253.9 181.5,253.7 182.4,253.7 183.2,254.2 184.1,254.4 184.9,254.6 185.8,254.0 186.6,253.8 187.5,253.7 188.3,253.5 189.2,253.7 190.0,253.3 190.9,253.0 191.7,252.5 192.6,252.4 193.4,252.5 194.3,252.3 195.1,252.3 196.0,252.5 196.8,252.2 197.7,252.3 198.5,252.5 199.3,252.4 200.2,252.2 201.0,252.4 201.9,252.5 202.7,253.0 203.6,253.2 204.4,253.6 205.3,253.4 206.1,253.4 207.0,252.8 207.8,252.5 208.7,252.5 209.5,252.0 210.4,251.6 211.2,251.5 212.1,251.2 212.9,250.4 213.8,250.3 214.6,249.6 215.5,249.6 216.3,249.4 217.2,249.7 218.0,249.7 218.9,249.7 219.7,249.7 220.6,249.4 221.4,248.9 222.3,248.3 223.1,248.1 224.0,248.2 224.8,247.9 225.7,247.7 226.5,249.1 227.4,249.2 228.2,249.0 229.0,248.9 229.9,248.6 230.7,248.2 231.6,248.7 232.4,249.9 233.3,249.7 234.1,249.7 235.0,250.1 235.8,250.2 236.7,250.4 237.5,250.5 238.4,251.0 239.2,251.3 240.1,252.2 240.9,252.1 241.8,252.8 242.6,253.2 243.5,253.5 244.3,253.9 245.2,253.7 246.0,254.3 246.9,254.2 247.7,254.4 248.6,254.2 249.4,253.9 250.3,254.2 251.1,254.4 252.0,254.3 252.8,254.5 253.7,254.7 254.5,254.9 255.4,254.4 256.2,254.4 257.1,254.6 257.9,254.9 258.7,254.8 259.6,254.4 260.4,254.7 261.3,254.9 262.1,254.8 263.0,254.5 263.8,254.1 264.7,254.2 265.5,254.2 266.4,254.4 267.2,254.2 268.1,254.1 268.9,253.8 269.8,253.5 270.6,253.0 271.5,252.8 272.3,253.0 273.2,253.5 274.0,253.5 274.9,253.6 275.7,253.9 276.6,254.4 277.4,254.4 278.3,254.6 279.1,255.0 280.0,255.5 280.8,255.8 281.7,255.6 282.5,255.9 283.4,256.1 284.2,256.3 285.1,256.3 285.9,256.5 286.8,256.5 287.6,256.6 288.4,256.8 289.3,257.1 290.1,257.2 291.0,257.3 291.8,257.2 292.7,257.1 293.5,257.2 294.4,257.2 295.2,257.3 296.1,257.3 296.9,257.2 297.8,257.1 298.6,256.9 299.5,256.8 300.3,256.8 301.2,256.7 302.0,256.3 302.9,256.0 303.7,255.9 304.6,255.9 305.4,255.7 306.3,255.9 307.1,256.1 308.0,256.3 308.8,256.6 309.7,256.8 310.5,256.8 311.4,256.8 312.2,256.5 313.1,256.4 313.9,256.3 314.8,256.2 315.6,255.9 316.5,255.9 317.3,255.9 318.1,256.2 319.0,256.2 319.8,256.2 320.7,256.1 321.5,256.3 322.4,256.3 323.2,256.6 324.1,256.5 324.9,256.6 325.8,256.7 326.6,256.9 327.5,256.3 328.3,256.3 329.2,256.3 330.0,256.3 330.9,256.3 331.7,256.3 332.6,256.6 333.4,256.6 334.3,256.3 335.1,256.2 336.0,256.1 336.8,256.2 337.7,256.2 338.5,256.3 339.4,256.3 340.2,256.0 341.1,255.9 341.9,255.4 342.8,255.4 343.6,255.1 344.5,254.9 345.3,254.6 346.2,254.2 347.0,254.0 347.8,253.5 348.7,253.0 349.5,253.8 350.4,253.6 351.2,253.5 352.1,253.2 352.9,253.4 353.8,253.3 354.6,253.5 355.5,253.2 356.3,253.5 357.2,253.5 358.0,253.9 358.9,253.6 359.7,253.9 360.6,254.4 361.4,254.0 362.3,254.3 363.1,254.3 364.0,254.4 364.8,254.4 365.7,254.4 366.5,254.0 367.4,254.4 368.2,254.4 369.1,254.2 369.9,253.7 370.8,253.8 371.6,254.0 372.5,253.9 373.3,253.6 374.2,253.8 375.0,253.8 375.9,253.6 376.7,252.9 377.5,252.6 378.4,252.6 379.2,252.5 380.1,252.5 380.9,252.3 381.8,252.5 382.6,252.2 383.5,251.4 384.3,250.8 385.2,250.6 386.0,250.6 386.9,249.9 387.7,250.4 388.6,250.7 389.4,249.9 390.3,249.7 391.1,248.8 392.0,249.2 392.8,249.2 393.7,249.4 394.5,249.2 395.4,248.7 396.2,247.9 397.1,248.2 397.9,248.4 398.8,249.3 399.6,249.7 400.5,250.8 401.3,251.1 402.2,251.6 403.0,252.7 403.9,252.6 404.7,252.9 405.6,252.5 406.4,252.8 407.2,252.8 408.1,252.9 408.9,252.9 409.8,253.0 410.6,253.0 411.5,252.9 412.3,252.8 413.2,251.4 414.0,250.6 414.9,250.6 415.7,250.7 416.6,250.2 417.4,250.1 418.3,249.6 419.1,249.6 420.0,248.7 420.8,249.0 421.7,249.2 422.5,249.5 423.4,249.1 424.2,248.9 425.1,248.6 425.9,248.4 426.8,248.2 427.6,248.2 428.5,248.7 429.3,248.0 430.2,247.3 431.0,247.1 431.9,246.8 432.7,247.0 433.6,246.7 434.4,246.8 435.3,246.9 436.1,247.3 436.9,247.3 437.8,247.7 438.6,248.0 439.5,248.5 440.3,249.2 441.2,249.2 442.0,249.4 442.9,249.9 443.7,250.5 444.6,250.7 445.4,250.3 446.3,250.6 447.1,250.5 448.0,249.8 448.8,250.1 449.7,250.5 450.5,250.6 451.4,250.5 452.2,249.9 453.1,250.5 453.9,250.9 454.8,250.6 455.6,251.4 456.5,252.0 457.3,251.9 458.2,252.3 459.0,252.3 459.9,252.5 460.7,252.5 461.6,253.0 462.4,253.1 463.3,252.9 464.1,252.5 465.0,252.5 465.8,252.1 466.6,251.9 467.5,252.1 468.3,252.3 469.2,252.1 470.0,252.0 470.9,251.6 471.7,251.7 472.6,252.0 473.4,252.0 474.3,252.8 475.1,253.4 476.0,253.2 476.8,253.9 477.7,253.6 478.5,253.4 479.4,253.4 480.2,253.7 481.1,253.9 481.9,253.9 482.8,254.3 483.6,254.9 484.5,254.7 485.3,255.1 486.2,255.3 487.0,255.3 487.9,254.9 488.7,254.8 489.6,254.9 490.4,254.5 491.3,254.7 492.1,255.1 493.0,255.0 493.8,255.4 494.7,255.9 495.5,255.9 496.3,256.0 497.2,255.7 498.0,255.9 498.9,256.0 499.7,256.2 500.6,256.6 501.4,256.4 502.3,256.9 503.1,256.3 504.0,256.4 504.8,256.3 505.7,256.2 506.5,256.3 507.4,256.2 508.2,256.1 509.1,256.1 509.9,256.2 510.8,256.5 511.6,256.7 512.5,256.8 513.3,256.8 514.2,257.1 515.0,257.3 515.9,257.1 516.7,256.9 517.6,256.8 518.4,257.0 519.3,257.0 520.1,257.2 521.0,257.1 521.8,257.1 522.7,257.2 523.5,257.3 524.4,257.6 525.2,257.8 526.0,257.8 526.9,257.8 527.7,257.8 528.6,257.9 529.4,257.9 530.3,257.9 531.1,257.9 532.0,257.9 532.8,257.9 533.7,257.9 534.5,257.9 535.4,257.9 536.2,257.9 537.1,257.9 537.9,257.9 538.8,257.9 539.6,258.0 540.5,258.0 541.3,258.0 542.2,258.0 543.0,258.0 543.9,258.0 544.7,258.0 545.6,258.0 546.4,258.0 547.3,258.0 548.1,258.0 549.0,258.0 549.8,258.0 550.7,258.0 551.5,258.0 552.4,258.0 553.2,258.0 554.1,258.0 554.9,258.0 555.7,258.0 556.6,258.0 557.4,258.0 558.3,258.0 559.1,258.0 560.0,258.0 560.8,258.0 561.7,258.0 562.5,258.0 563.4,258.0 564.2,258.0 565.1,258.0 565.9,258.0 566.8,258.0 567.6,258.0 568.5,258.0 569.3,258.0 570.2,258.0 571.0,258.0 571.9,258.0 572.7,258.0 573.6,258.0 574.4,258.0 575.3,258.0 576.1,258.0 577.0,258.0 577.8,258.0 578.7,258.0 579.5,258.0 580.4,258.0 581.2,258.0 582.1,258.0 582.9,258.0 583.8,258.0 584.6,258.0 585.4,258.0 586.3,258.0 587.1,258.0 588.0,258.0 588.8,258.0 589.7,258.0 590.5,258.0 591.4,258.0 592.2,258.0 593.1,258.0 593.9,258.0 594.8,258.0 595.6,258.0 596.5,258.0 597.3,258.0 598.2,258.0 599.0,258.0 599.9,258.0 600.7,258.0 601.6,258.0 602.4,258.0 603.3,258.0 604.1,258.0 605.0,258.0 605.8,258.0 606.7,258.0 607.5,258.0 608.4,258.0 609.2,258.0 610.1,258.0 610.9,258.0 611.8,258.0 612.6,258.0 613.5,258.0 614.3,258.0 615.1,258.0 616.0,258.0 616.8,258.0 617.7,258.0 618.5,258.0"></path>
    <text text-anchor="end" fill="green" x="640" y="105">Food</text>
    <text text-anchor="end" fill="#0060e5" x="640" y="208">Creatures</text>
</svg>