<svg width="660" height="300" xmlns="http://www.w3.org/2000/svg">

<style>
  .background {
    fill: none;
  }
  .axis {
    stroke: #111;
    stroke-width: 1;
  }
  .axis-label {
    font-size: 14px;
    font-family: Arial;
    text-anchor: middle;
  }
  .axis-units {
    font-size: 10px;
    font-family: Arial;
  }
  .y-axis-text {
    text-anchor: end;
  }
  .x-axis-text {
    text-anchor: middle;
  }
  .gridlines {
    stroke: black;
    stroke-width: 0.3;
    fill: none;
    opacity: 0.5;
  }
  .data-series {
    stroke-width: 1.8;
    fill: none;
    opacity: 1;
  }
  </style>

    <text class="axis-label" x="347.0" y="290">Time (ticks)</text>
    <text class="axis-label" x="0" y="134.0" transform="translate(15.0) rotate(-90, 0, 134.0)">Population size</text>
    <line class="axis" x1="50" y1="258" x2="645" y2="258"></line>
    <line class="axis" x1="50" y1="258" x2="50" y2="10"></line>
    <g class="axis-units">
        <g class="x-axis-text">
            <text x="50.0" y="270">0</text>
            <text x="109.4" y="270">10K</text>
            <text x="168.8" y="270">20K</text>
            <text x="228.2" y="270">30K</text>
            <text x="287.6" y="270">40K</text>
            <text x="347.0" y="270">50K</text>
            <text x="406.4" y="270">60K</text>
            <text x="465.8" y="270">70K</text>
            <text x="525.2" y="270">80K</text>
            <text x="584.6" y="270">90K</text>
            <text x="644.0" y="270">100K</text>
        </g>
        <g class="y-axis-text">
            <text x="47" y="261.0">0</text>
            <text x="47" y="178.33333333333331">500</text>
            <text x="47" y="95.66666666666666">1000</text>
            <text x="47" y="13.0">1500</text>
        </g>
    </g>
    <g class="gridlines">
        <line x1="109.5" y1="258" x2="109.5" y2="10"></line>
        <line x1="168.5" y1="258" x2="168.5" y2="10"></line>
        <line x1="228.5" y1="258" x2="228.5" y2="10"></line>
        <line x1="287.5" y1="258" x2="287.5" y2="10"></line>
        <line x1="347.5" y1="258" x2="347.5" y2="10"></line>
        <line x1="406.5" y1="258" x2="406.5" y2="10"></line>
        <line x1="465.5" y1="258" x2="465.5" y2="10"></line>
        <line x1="525.5" y1="258" x2="525.5" y2="10"></line>
        <line x1="584.5" y1="258" x2="584.5" y2="10"></line>
        <line x1="644.5" y1="258" x2="644.5" y2="10"></line>
        <line x1="50" y1="175.5" x2="644" y2="175.5"></line>
        <line x1="50" y1="92.5" x2="644" y2="92.5"></line>
        <line x1="50" y1="10.5" x2="644" y2="10.5"></line>
    </g>
    <path class="data-series" stroke="green" d="M50.6,75.0 51.2,89.0 51.8,102.4 52.4,121.3 53.0,142.6 53.6,162.3 54.2,179.0 54.8,196.2 55.3,209.6 55.9,221.8 56.5,228.9 57.1,236.5 57.7,240.0 58.3,243.8 58.9,247.4 59.5,247.1 60.1,247.6 60.7,247.7 61.3,248.9 61.9,248.9 62.5,249.2 63.1,249.1 63.7,247.6 64.3,246.4 64.8,244.9 65.4,243.3 66.0,241.6 66.6,240.0 67.2,238.2 67.8,237.0 68.4,235.7 69.0,233.7 69.6,232.0 70.2,230.9 70.8,229.2 71.4,227.7 72.0,226.8 72.6,224.9 73.2,223.8 73.8,222.1 74.4,221.3 74.9,219.8 75.5,217.5 76.1,215.8 76.7,213.9 77.3,211.7 77.9,210.4 78.5,208.2 79.1,207.1 79.7,205.1 80.3,203.4 80.9,201.8 81.5,200.3 82.1,198.8 82.7,197.7 83.3,195.8 83.9,194.7 84.5,194.0 85.0,193.0 85.6,190.7 86.2,189.1 86.8,186.9 87.4,185.3 88.0,183.3 88.6,182.3 89.2,180.6 89.8,178.8 90.4,177.2 91.0,175.7 91.6,175.3 92.2,174.3 92.8,173.3 93.4,171.9 94.0,169.1 94.5,167.6 95.1,166.1 95.7,165.6 96.3,165.6 96.9,164.4 97.5,163.6 98.1,161.8 98.7,160.3 99.3,158.0 99.9,156.0 100.5,155.3 101.1,153.5 101.7,152.4 102.3,150.7 102.9,149.9 103.5,150.0 104.1,149.9 104.6,148.4 105.2,148.5 105.8,149.0 106.4,148.4 107.0,147.4 107.6,148.7 108.2,149.9 108.8,151.2 109.4,153.0 110.0,156.7 110.6,158.3 111.2,161.1 111.8,162.1 112.4,166.6 113.0,171.4 113.6,175.0 114.2,179.8 114.7,184.9 115.3,187.1 115.9,191.9 116.5,197.0 117.1,201.3 117.7,207.6 118.3,210.4 118.9,215.3 119.5,218.2 120.1,221.3 120.7,223.6 121.3,225.1 121.9,225.4 122.5,227.7 123.1,229.2 123.7,230.9 124.2,231.9 124.8,232.2 125.4,232.7 126.0,233.4 126.6,232.4 127.2,230.9 127.8,231.5 128.4,231.9 129.0,231.7 129.6,231.2 130.2,231.4 130.8,230.7 131.4,230.4 132.0,229.2 132.6,228.1 133.2,226.9 133.8,225.6 134.3,224.6 134.9,224.3 135.5,222.3 136.1,220.5 136.7,219.1 137.3,217.7 137.9,216.2 138.5,215.0 139.1,212.9 139.7,212.2 140.3,211.5 140.9,210.7 141.5,209.7 142.1,208.9 142.7,207.4 143.3,206.3 143.9,205.3 144.4,203.4 145.0,202.3 145.6,202.6 146.2,200.6 146.8,199.6 147.4,199.3 148.0,198.0 148.6,197.5 149.2,195.5 149.8,194.5 150.4,193.4 151.0,191.7 151.6,190.2 152.2,188.7 152.8,188.2 153.4,186.9 153.9,185.1 154.5,184.3 155.1,182.8 155.7,181.3 156.3,180.3 156.9,178.5 157.5,176.5 158.1,177.2 158.7,176.2 159.3,175.5 159.9,174.2 160.5,174.0 161.1,172.4 161.7,172.2 162.3,171.5 162.9,171.2 163.5,170.7 164.0,171.2 164.6,171.9 165.2,172.5 165.8,173.5 166.4,176.0 167.0,177.6 167.6,178.1 168.2,179.5 168.8,181.1 169.4,184.4 170.0,187.7 170.6,188.6 171.2,189.9 171.8,192.5 172.4,196.0 173.0,199.8 173.6,202.9 174.1,206.1 174.7,208.2 175.3,211.4 175.9,213.0 176.5,216.5 177.1,219.1 177.7,221.0 178.3,221.5 178.9,222.9 179.5,224.4 180.1,225.4 180.7,226.1 181.3,226.1 181.9,225.6 182.5,227.2 183.1,227.9 183.7,228.2 184.2,228.6 184.8,228.6 185.4,229.7 186.0,228.2 186.6,226.8 187.2,226.6 187.8,226.3 188.4,225.4 189.0,224.6 189.6,222.9 190.2,221.1 190.8,220.1 191.4,219.0 192.0,217.7 192.6,216.3 193.2,214.4 193.7,212.9 194.3,212.9 194.9,211.5 195.5,210.5 196.1,210.1 196.7,210.7 197.3,210.1 197.9,209.2 198.5,208.4 199.1,208.1 199.7,207.1 200.3,207.1 200.9,207.1 201.5,206.9 202.1,204.6 202.7,203.8 203.3,202.9 203.8,202.6 204.4,202.6 205.0,202.6 205.6,203.1 206.2,202.0 206.8,202.1 207.4,200.8 208.0,200.8 208.6,200.3 209.2,198.3 209.8,197.8 210.4,198.0 211.0,198.0 211.6,198.1 212.2,196.7 212.8,197.5 213.3,198.1 213.9,198.6 214.5,199.0 215.1,199.3 215.7,200.5 216.3,201.8 216.9,202.3 217.5,201.1 218.1,200.6 218.7,202.8 219.3,203.4 219.9,203.6 220.5,204.9 221.1,205.4 221.7,206.3 222.3,206.7 222.9,207.7 223.4,207.6 224.0,206.6 224.6,207.1 225.2,208.2 225.8,208.7 226.4,210.5 227.0,210.7 227.6,210.7 228.2,211.0 228.8,212.4 229.4,213.2 230.0,214.0 230.6,213.7 231.2,213.2 231.8,212.7 232.4,213.0 233.0,214.4 233.5,215.5 234.1,215.5 234.7,215.8 235.3,214.2 235.9,214.7 236.5,213.2 237.1,213.7 237.7,215.2 238.3,215.5 238.9,214.2 239.5,212.2 240.1,212.7 240.7,213.2 241.3,213.4 241.9,214.4 242.5,213.0 243.1,212.2 243.6,211.7 244.2,210.4 244.8,209.6 245.4,208.2 246.0,208.1 246.6,207.7 247.2,207.6 247.8,206.9 248.4,206.1 249.0,204.8 249.6,203.3 250.2,203.4 250.8,202.9 251.4,202.4 252.0,202.3 252.6,200.8 253.1,201.1 253.7,201.6 254.3,202.3 254.9,201.0 255.5,200.5 256.1,200.3 256.7,200.0 257.3,200.0 257.9,198.0 258.5,197.5 259.1,198.0 259.7,198.3 260.3,197.0 260.9,196.3 261.5,196.0 262.1,197.3 262.7,197.2 263.2,198.8 263.8,199.3 264.4,199.6 265.0,200.0 265.6,200.3 266.2,200.3 266.8,201.8 267.4,201.8 268.0,201.6 268.6,202.3 269.2,201.3 269.8,202.3 270.4,202.6 271.0,204.1 271.6,203.6 272.2,204.4 272.8,206.4 273.3,207.9 273.9,208.2 274.5,210.4 275.1,212.0 275.7,213.0 276.3,213.7 276.9,215.8 277.5,217.0 278.1,217.2 278.7,219.1 279.3,221.3 279.9,222.3 280.5,222.6 281.1,222.9 281.7,222.9 282.3,223.3 282.8,223.3 283.4,223.8 284.0,223.6 284.6,221.3 285.2,220.8 285.8,222.3 286.4,223.8 287.0,222.5 287.6,222.0 288.2,222.0 288.8,221.3 289.4,220.1 290.0,217.7 290.6,217.5 291.2,216.5 291.8,216.7 292.4,216.8 292.9,215.7 293.5,214.2 294.1,213.7 294.7,213.2 295.3,211.9 295.9,212.4 296.5,211.0 297.1,211.0 297.7,209.9 298.3,208.9 298.9,207.4 299.5,205.9 300.1,205.3 300.7,204.4 301.3,204.6 301.9,203.4 302.4,202.4 303.0,202.6 303.6,201.5 304.2,200.6 304.8,199.3 305.4,199.6 306.0,200.8 306.6,199.6 307.2,199.5 307.8,200.6 308.4,201.1 309.0,200.8 309.6,201.6 310.2,202.0 310.8,200.0 311.4,199.6 312.0,198.3 312.5,198.3 313.1,198.6 313.7,198.8 314.3,199.5 314.9,200.1 315.5,200.1 316.1,201.5 316.7,202.6 317.3,204.3 317.9,204.4 318.5,204.1 319.1,205.6 319.7,205.9 320.3,207.4 320.9,207.6 321.5,207.4 322.1,207.7 322.6,208.1 323.2,209.2 323.8,209.2 324.4,209.7 325.0,209.7 325.6,210.2 326.2,210.1 326.8,209.2 327.4,208.1 328.0,208.6 328.6,208.4 329.2,208.4 329.8,209.1 330.4,208.4 331.0,207.4 331.6,207.9 332.1,208.4 332.7,208.4 333.3,207.6 333.9,207.2 334.5,207.4 335.1,206.7 335.7,207.7 336.3,208.2 336.9,207.2 337.5,205.9 338.1,205.1 338.7,205.8 339.3,205.3 339.9,205.4 340.5,205.4 341.1,205.4 341.7,205.6 342.2,206.3 342.8,206.3 343.4,205.9 344.0,206.3 344.6,205.1 345.2,206.3 345.8,205.8 346.4,205.4 347.0,205.1 347.6,204.9 348.2,204.6 348.8,204.6 349.4,204.4 350.0,204.4 350.6,204.6 351.2,204.9 351.8,206.4 352.3,206.9 352.9,206.6 353.5,205.9 354.1,206.1 354.7,206.6 355.3,206.3 355.9,205.9 356.5,206.7 357.1,207.7 357.7,209.2 358.3,209.4 358.9,209.2 359.5,210.2 360.1,210.5 360.7,210.9 361.3,210.7 361.9,212.7 362.4,213.2 363.0,213.2 363.6,212.7 364.2,211.7 364.8,212.9 365.4,214.0 366.0,214.0 366.6,213.5 367.2,215.3 367.8,214.8 368.4,214.8 369.0,214.0 369.6,213.2 370.2,211.9 370.8,211.5 371.4,210.9 371.9,211.2 372.5,211.4 373.1,211.4 373.7,211.0 374.3,210.2 374.9,210.4 375.5,209.7 376.1,209.9 376.7,209.6 377.3,210.4 377.9,210.2 378.5,209.1 379.1,208.4 379.7,208.7 380.3,207.9 380.9,207.6 381.5,207.1 382.0,207.4 382.6,207.2 383.2,207.1 383.8,207.2 384.4,207.9 385.0,208.6 385.6,208.7 386.2,209.1 386.8,208.2 387.4,208.6 388.0,208.9 388.6,208.6 389.2,208.1 389.8,209.4 390.4,208.6 391.0,208.7 391.6,208.6 392.1,208.9 392.7,209.1 393.3,208.6 393.9,209.2 394.5,210.1 395.1,210.7 395.7,211.2 396.3,210.4 396.9,210.4 397.5,210.2 398.1,209.7 398.7,208.7 399.3,209.1 399.9,208.4 400.5,209.1 401.1,210.1 401.6,211.4 402.2,212.9 402.8,212.9 403.4,213.2 404.0,212.4 404.6,211.5 405.2,212.9 405.8,213.2 406.4,212.7 407.0,211.2 407.6,210.9 408.2,210.5 408.8,210.5 409.4,210.4 410.0,211.5 410.6,212.5 411.2,212.7 411.7,213.9 412.3,213.4 412.9,213.2 413.5,212.9 414.1,213.4 414.7,212.7 415.3,210.5 415.9,209.7 416.5,210.1 417.1,211.0 417.7,211.5 418.3,210.9 418.9,208.7 419.5,207.9 420.1,206.6 420.7,205.4 421.2,204.1 421.8,204.3 422.4,202.4 423.0,203.1 423.6,203.9 424.2,205.3 424.8,205.1 425.4,205.4 426.0,205.3 426.6,204.8 427.2,204.9 427.8,205.8 428.4,206.7 429.0,206.9 429.6,207.7 430.2,208.6 430.8,208.7 431.3,209.2 431.9,208.9 432.5,209.2 433.1,209.6 433.7,210.4 434.3,209.2 434.9,207.4 435.5,207.1 436.1,207.4 436.7,208.7 437.3,210.2 437.9,211.0 438.5,211.9 439.1,212.4 439.7,212.0 440.3,212.7 440.9,213.4 441.4,213.9 442.0,214.0 442.6,215.3 443.2,214.4 443.8,214.4 444.4,213.7 445.0,213.5 445.6,213.4 446.2,213.9 446.8,213.4 447.4,213.2 448.0,213.2 448.6,211.0 449.2,211.7 449.8,213.7 450.4,214.4 450.9,213.5 451.5,213.2 452.1,212.0 452.7,212.0 453.3,212.9 453.9,213.4 454.5,213.4 455.1,211.9 455.7,211.0 456.3,210.1 456.9,211.4 457.5,211.2 458.1,210.5 458.7,210.4 459.3,210.5 459.9,211.2 460.5,210.2 461.0,210.1 461.6,209.1 462.2,208.6 462.8,209.6 463.4,209.7 464.0,209.2 464.6,208.9 465.2,207.6 465.8,207.1 466.4,208.6 467.0,209.7 467.6,208.7 468.2,208.9 468.8,208.1 469.4,208.7 470.0,208.4 470.6,208.7 471.1,209.4 471.7,210.4 472.3,211.4 472.9,211.2 473.5,209.9 474.1,209.2 474.7,208.4 475.3,209.1 475.9,208.1 476.5,209.1 477.1,209.6 477.7,210.1 478.3,209.4 478.9,209.1 479.5,208.2 480.1,207.7 480.6,208.6 481.2,208.2 481.8,209.1 482.4,208.4 483.0,207.6 483.6,207.6 484.2,207.2 484.8,207.4 485.4,207.1 486.0,207.2 486.6,206.7 487.2,207.7 487.8,206.9 488.4,207.6 489.0,207.2 489.6,208.2 490.2,208.6 490.7,208.6 491.3,208.1 491.9,208.6 492.5,209.1 493.1,209.4 493.7,208.2 494.3,209.1 494.9,209.6 495.5,209.4 496.1,207.7 496.7,206.1 497.3,206.6 497.9,207.1 498.5,208.2 499.1,208.6 499.7,207.9 500.3,208.7 500.8,208.7 501.4,208.9 502.0,208.6 502.6,209.1 503.2,210.7 503.8,211.4 504.4,213.2 505.0,214.4 505.6,213.7 506.2,213.5 506.8,214.2 507.4,214.5 508.0,213.7 508.6,214.0 509.2,214.2 509.8,213.2 510.4,215.2 510.9,214.0 511.5,214.5 512.1,214.8 512.7,212.4 513.3,211.5 513.9,211.7 514.5,211.9 515.1,211.4 515.7,210.9 516.3,210.4 516.9,210.9 517.5,209.1 518.1,208.4 518.7,207.7 519.3,207.2 519.9,207.9 520.4,207.6 521.0,206.6 521.6,205.8 522.2,206.7 522.8,207.7 523.4,208.6 524.0,209.2 524.6,209.9 525.2,209.6 525.8,209.2 526.4,208.2 527.0,208.1 527.6,209.2 528.2,209.4 528.8,210.1 529.4,209.1 530.0,209.9 530.5,209.7 531.1,209.2 531.7,208.9 532.3,208.4 532.9,208.4 533.5,207.6 534.1,207.7 534.7,207.7 535.3,208.6 535.9,208.1 536.5,209.2 537.1,209.7 537.7,209.4 538.3,209.4 538.9,210.5 539.5,210.9 540.0,211.7 540.6,212.5 541.2,213.2 541.8,212.0 542.4,213.4 543.0,212.9 543.6,213.4 544.2,213.4 544.8,214.0 545.4,214.0 546.0,213.7 546.6,213.0 547.2,212.4 547.8,213.7 548.4,213.5 549.0,212.9 549.6,212.9 550.1,212.9 550.7,212.5 551.3,212.2 551.9,211.7 552.5,212.5 553.1,211.9 553.7,211.9 554.3,210.4 554.9,209.9 555.5,210.2 556.1,210.7 556.7,209.7 557.3,209.7 557.9,209.2 558.5,208.2 559.1,208.6 559.7,209.1 560.2,209.1 560.8,207.9 561.4,208.2 562.0,206.7 562.6,206.4 563.2,206.1 563.8,205.1 564.4,203.8 565.0,204.4 565.6,204.4 566.2,204.8 566.8,204.4 567.4,204.1 568.0,203.6 568.6,203.4 569.2,204.3 569.8,203.6 570.3,203.9 570.9,203.4 571.5,204.1 572.1,204.3 572.7,203.8 573.3,203.1 573.9,202.8 574.5,202.0 575.1,202.8 575.7,203.3 576.3,203.4 576.9,204.3 577.5,205.3 578.1,206.1 578.7,205.4 579.3,205.4 579.8,206.1 580.4,205.6 581.0,205.4 581.6,205.4 582.2,205.9 582.8,205.4 583.4,207.2 584.0,206.4 584.6,205.4 585.2,205.8 585.8,205.9 586.4,206.7 587.0,207.4 587.6,207.9 588.2,207.4 588.8,207.9 589.4,209.4 589.9,210.4 590.5,211.0 591.1,212.2 591.7,211.9 592.3,212.0 592.9,213.4 593.5,215.2 594.1,213.5 594.7,214.2 595.3,212.9 595.9,211.4 596.5,213.4 597.1,214.8 597.7,215.5 598.3,215.8 598.9,216.2 599.5,216.7 600.0,217.0 600.6,217.7 601.2,216.8 601.8,216.8 602.4,216.5 603.0,217.2 603.6,218.0 604.2,217.3 604.8,217.8 605.4,216.7 606.0,216.2 606.6,215.3 607.2,215.5 607.8,216.0 608.4,215.5 609.0,215.2 609.5,214.2 610.1,214.5 610.7,214.2 611.3,213.9 611.9,214.2 612.5,214.2 613.1,212.5 613.7,211.7 614.3,212.5 614.9,211.0 615.5,209.1 616.1,207.7 616.7,206.9 617.3,207.2 617.9,206.1 618.5,205.3 619.1,204.1 619.6,203.9 620.2,202.8 620.8,202.3 621.4,202.0 622.0,200.8 622.6,199.8 623.2,198.3 623.8,198.0 624.4,198.5 625.0,198.1 625.6,198.8 626.2,198.5 626.8,198.6 627.4,197.7 628.0,198.5 628.6,199.1 629.1,197.8 629.7,196.8 630.3,198.1 630.9,199.6 631.5,201.1 632.1,203.1 632.7,205.6 633.3,206.7 633.9,208.9 634.5,209.4 635.1,211.7 635.7,210.9 636.3,211.7 636.9,211.5 637.5,212.5 638.1,213.4 638.7,214.8 639.2,215.8 639.8,216.3 640.4,216.5 641.0,216.3 641.6,216.2 642.2,216.7 642.8,217.8 643.4,218.5 644.0,217.8"></path>
    <path class="data-series" stroke="#0060e5" d="M50.6,240.0 51.2,235.8 51.8,229.4 52.4,222.0 53.0,212.5 53.6,205.9 54.2,199.5 54.8,193.4 55.3,189.9 55.9,186.7 56.5,185.6 57.1,184.8 57.7,186.9 58.3,189.4 58.9,191.5 59.5,195.5 60.1,201.6 60.7,208.4 61.3,214.4 61.9,219.8 62.5,225.9 63.1,231.4 63.7,238.3 64.3,242.5 64.8,245.3 65.4,247.9 66.0,249.7 66.6,250.9 67.2,253.2 67.8,254.0 68.4,255.0 69.0,255.4 69.6,256.0 70.2,256.3 70.8,256.3 71.4,256.3 72.0,256.2 72.6,256.2 73.2,256.2 73.8,256.2 74.4,256.7 74.9,256.7 75.5,256.7 76.1,257.0 76.7,257.2 77.3,257.5 77.9,257.5 78.5,257.5 79.1,257.3 79.7,257.5 80.3,257.5 80.9,257.5 81.5,257.5 82.1,257.5 82.7,257.7 83.3,257.7 83.9,257.7 84.5,257.7 85.0,257.5 85.6,257.5 86.2,257.3 86.8,257.3 87.4,257.2 88.0,257.0 88.6,257.0 89.2,257.0 89.8,257.0 90.4,257.3 91.0,257.3 91.6,257.2 92.2,257.2 92.8,257.2 93.4,257.0 94.0,257.0 94.5,257.0 95.1,257.0 95.7,256.8 96.3,256.3 96.9,256.3 97.5,256.2 98.1,256.3 98.7,256.3 99.3,256.3 99.9,256.3 100.5,256.0 101.1,255.5 101.7,255.5 102.3,255.4 102.9,254.7 103.5,254.2 104.1,254.0 104.6,254.0 105.2,253.0 105.8,252.4 106.4,252.4 107.0,251.9 107.6,251.4 108.2,250.4 108.8,250.2 109.4,249.1 110.0,247.3 110.6,246.6 111.2,245.1 111.8,244.1 112.4,242.5 113.0,240.1 113.6,238.7 114.2,236.7 114.7,235.2 115.3,234.4 115.9,232.9 116.5,231.7 117.1,230.9 117.7,230.1 118.3,229.7 118.9,229.6 119.5,228.7 120.1,228.9 120.7,229.2 121.3,229.9 121.9,230.7 122.5,231.7 123.1,232.0 123.7,234.4 124.2,235.3 124.8,236.7 125.4,237.7 126.0,239.3 126.6,241.6 127.2,243.1 127.8,244.8 128.4,245.3 129.0,246.1 129.6,246.9 130.2,247.9 130.8,249.4 131.4,250.1 132.0,250.6 132.6,251.1 133.2,251.2 133.8,252.4 134.3,252.7 134.9,252.9 135.5,252.7 136.1,252.9 136.7,253.5 137.3,253.9 137.9,254.2 138.5,254.5 139.1,254.7 139.7,255.2 140.3,255.0 140.9,255.0 141.5,255.4 142.1,255.5 142.7,255.9 143.3,255.9 143.9,255.7 144.4,255.7 145.0,255.7 145.6,255.5 146.2,255.5 146.8,255.5 147.4,255.5 148.0,255.4 148.6,255.7 149.2,255.4 149.8,255.4 150.4,255.4 151.0,255.2 151.6,255.5 152.2,255.4 152.8,254.9 153.4,254.7 153.9,254.7 154.5,254.7 155.1,254.7 155.7,254.7 156.3,254.4 156.9,254.4 157.5,254.4 158.1,254.0 158.7,254.0 159.3,253.9 159.9,253.7 160.5,253.5 161.1,253.2 161.7,252.9 162.3,252.5 162.9,252.4 163.5,252.0 164.0,251.4 164.6,251.2 165.2,250.6 165.8,249.9 166.4,248.7 167.0,247.7 167.6,246.8 168.2,245.8 168.8,244.8 169.4,244.4 170.0,243.5 170.6,242.5 171.2,242.3 171.8,240.8 172.4,240.6 173.0,240.0 173.6,239.2 174.1,238.0 174.7,238.0 175.3,237.3 175.9,236.8 176.5,235.8 177.1,235.0 177.7,235.3 178.3,235.5 178.9,236.0 179.5,237.8 180.1,238.2 180.7,239.6 181.3,240.8 181.9,242.5 182.5,242.6 183.1,243.8 183.7,244.9 184.2,245.1 184.8,246.4 185.4,247.3 186.0,247.7 186.6,248.4 187.2,248.4 187.8,248.4 188.4,248.9 189.0,250.2 189.6,250.6 190.2,250.6 190.8,250.4 191.4,251.1 192.0,251.4 192.6,251.7 193.2,251.7 193.7,252.0 194.3,252.2 194.9,252.0 195.5,252.2 196.1,252.5 196.7,251.9 197.3,251.9 197.9,251.9 198.5,251.9 199.1,252.2 199.7,252.4 200.3,251.9 200.9,251.9 201.5,251.9 202.1,252.2 202.7,252.2 203.3,252.9 203.8,253.0 204.4,252.7 205.0,252.7 205.6,252.5 206.2,252.5 206.8,252.7 207.4,252.5 208.0,252.5 208.6,252.2 209.2,252.5 209.8,252.2 210.4,252.2 211.0,252.2 211.6,251.9 212.2,251.4 212.8,250.9 213.3,250.1 213.9,250.1 214.5,249.4 215.1,248.9 215.7,248.4 216.3,248.1 216.9,247.9 217.5,248.4 218.1,247.9 218.7,246.4 219.3,246.1 219.9,245.9 220.5,245.8 221.1,246.1 221.7,246.4 222.3,246.3 222.9,246.6 223.4,246.9 224.0,246.3 224.6,246.8 225.2,246.3 225.8,246.4 226.4,246.3 227.0,245.8 227.6,245.8 228.2,245.9 228.8,246.1 229.4,245.8 230.0,246.1 230.6,246.1 231.2,246.1 231.8,245.9 232.4,246.4 233.0,247.1 233.5,246.9 234.1,247.3 234.7,247.3 235.3,247.7 235.9,248.1 236.5,248.4 237.1,248.7 237.7,248.9 238.3,249.6 238.9,249.6 239.5,249.9 240.1,249.9 240.7,249.7 241.3,249.4 241.9,249.9 242.5,250.1 243.1,250.1 243.6,250.1 244.2,251.4 244.8,251.1 245.4,251.9 246.0,252.0 246.6,252.0 247.2,251.9 247.8,251.4 248.4,251.7 249.0,251.7 249.6,252.0 250.2,252.2 250.8,252.0 251.4,252.2 252.0,252.0 252.6,252.0 253.1,251.4 253.7,251.4 254.3,251.2 254.9,250.7 255.5,250.9 256.1,250.4 256.7,250.6 257.3,250.6 257.9,250.4 258.5,250.1 259.1,250.4 259.7,250.4 260.3,250.4 260.9,250.1 261.5,249.9 262.1,249.9 262.7,249.9 263.2,248.4 263.8,248.1 264.4,247.7 265.0,248.2 265.6,247.7 266.2,247.6 266.8,247.6 267.4,247.1 268.0,246.1 268.6,245.6 269.2,245.6 269.8,245.4 270.4,245.1 271.0,244.6 271.6,244.4 272.2,244.6 272.8,243.8 273.3,244.1 273.9,243.8 274.5,242.8 275.1,242.3 275.7,242.6 276.3,242.8 276.9,242.6 277.5,242.5 278.1,243.0 278.7,243.0 279.3,243.1 279.9,243.6 280.5,243.3 281.1,243.6 281.7,243.8 282.3,244.8 282.8,244.9 283.4,245.6 284.0,246.4 284.6,247.1 285.2,248.6 285.8,248.4 286.4,248.6 287.0,249.1 287.6,249.2 288.2,249.2 288.8,249.2 289.4,249.4 290.0,249.9 290.6,250.1 291.2,250.2 291.8,250.4 292.4,251.1 292.9,251.1 293.5,251.4 294.1,252.4 294.7,252.5 295.3,252.4 295.9,252.4 296.5,252.4 297.1,251.9 297.7,251.7 298.3,252.0 298.9,252.0 299.5,251.9 300.1,251.9 300.7,252.0 301.3,252.0 301.9,252.2 302.4,252.2 303.0,252.4 303.6,252.4 304.2,252.4 304.8,252.2 305.4,251.7 306.0,251.7 306.6,251.7 307.2,251.2 307.8,251.4 308.4,251.4 309.0,250.6 309.6,250.2 310.2,250.2 310.8,249.7 311.4,249.9 312.0,249.7 312.5,249.6 313.1,249.2 313.7,249.2 314.3,248.7 314.9,248.6 315.5,248.2 316.1,247.7 316.7,247.7 317.3,247.4 317.9,246.9 318.5,247.1 319.1,246.1 319.7,245.9 320.3,245.6 320.9,245.9 321.5,245.6 322.1,246.1 322.6,246.3 323.2,245.6 323.8,245.9 324.4,246.4 325.0,246.6 325.6,247.4 326.2,247.7 326.8,248.1 327.4,248.9 328.0,248.4 328.6,248.2 329.2,248.4 329.8,248.6 330.4,248.7 331.0,249.1 331.6,248.7 332.1,248.9 332.7,248.9 333.3,249.2 333.9,249.4 334.5,248.9 335.1,248.7 335.7,248.9 336.3,249.1 336.9,250.1 337.5,250.4 338.1,250.4 338.7,250.4 339.3,250.1 339.9,249.7 340.5,249.7 341.1,249.7 341.7,249.4 342.2,249.2 342.8,249.7 343.4,249.9 344.0,249.7 344.6,249.6 345.2,249.2 345.8,248.6 346.4,248.1 347.0,247.9 347.6,248.6 348.2,248.2 348.8,247.7 349.4,248.2 350.0,247.7 350.6,247.3 351.2,247.6 351.8,247.3 352.3,247.4 352.9,247.4 353.5,247.7 354.1,247.7 354.7,247.4 355.3,247.7 355.9,247.6 356.5,247.4 357.1,247.1 357.7,247.3 358.3,246.8 358.9,246.4 359.5,246.3 360.1,246.6 360.7,246.3 361.3,246.4 361.9,246.6 362.4,246.4 363.0,246.6 363.6,246.8 364.2,247.1 364.8,247.1 365.4,247.6 366.0,247.6 366.6,247.9 367.2,247.1 367.8,247.1 368.4,246.9 369.0,246.9 369.6,247.1 370.2,247.4 370.8,247.1 371.4,248.1 371.9,248.4 372.5,248.6 373.1,249.7 373.7,249.7 374.3,249.6 374.9,250.2 375.5,250.6 376.1,250.9 376.7,250.7 377.3,250.6 377.9,250.6 378.5,250.1 379.1,250.4 379.7,250.4 380.3,250.4 380.9,250.2 381.5,251.1 382.0,251.1 382.6,251.2 383.2,250.9 383.8,250.6 384.4,250.4 385.0,250.1 385.6,249.7 386.2,249.9 386.8,249.6 387.4,249.6 388.0,249.7 388.6,249.2 389.2,248.9 389.8,248.9 390.4,248.7 391.0,248.9 391.6,248.7 392.1,248.4 392.7,248.4 393.3,249.2 393.9,249.1 394.5,248.9 395.1,248.1 395.7,248.1 396.3,247.7 396.9,247.7 397.5,247.7 398.1,248.1 398.7,248.4 399.3,248.9 399.9,248.7 400.5,248.9 401.1,248.9 401.6,248.6 402.2,248.6 402.8,248.1 403.4,247.9 404.0,247.9 404.6,247.7 405.2,247.9 405.8,248.2 406.4,248.4 407.0,249.1 407.6,248.6 408.2,249.1 408.8,249.2 409.4,249.6 410.0,249.2 410.6,249.2 411.2,248.7 411.7,249.1 412.3,248.7 412.9,248.7 413.5,249.2 414.1,249.1 414.7,249.2 415.3,249.6 415.9,249.9 416.5,249.2 417.1,249.9 417.7,250.2 418.3,249.9 418.9,249.7 419.5,250.6 420.1,250.6 420.7,250.4 421.2,250.7 421.8,250.4 422.4,250.6 423.0,250.7 423.6,250.6 424.2,249.9 424.8,249.2 425.4,248.7 426.0,248.6 426.6,248.4 427.2,248.2 427.8,248.1 428.4,247.7 429.0,247.7 429.6,247.9 430.2,247.7 430.8,247.3 431.3,247.4 431.9,247.4 432.5,247.3 433.1,247.6 433.7,247.4 434.3,247.7 434.9,248.2 435.5,248.2 436.1,248.7 436.7,248.9 437.3,248.2 437.9,247.7 438.5,247.4 439.1,247.3 439.7,246.9 440.3,246.8 440.9,246.9 441.4,247.3 442.0,247.3 442.6,247.4 443.2,247.4 443.8,247.3 444.4,247.1 445.0,247.9 445.6,248.2 446.2,248.2 446.8,248.9 447.4,248.7 448.0,248.6 448.6,248.2 449.2,248.7 449.8,248.6 450.4,248.6 450.9,248.7 451.5,249.1 452.1,248.7 452.7,248.9 453.3,249.4 453.9,249.2 454.5,249.6 455.1,249.7 455.7,249.9 456.3,250.1 456.9,250.2 457.5,250.1 458.1,249.9 458.7,249.7 459.3,250.2 459.9,249.9 460.5,249.7 461.0,249.9 461.6,250.1 462.2,249.9 462.8,249.9 463.4,249.7 464.0,249.4 464.6,249.2 465.2,249.2 465.8,248.9 466.4,248.7 467.0,248.4 467.6,248.6 468.2,248.1 468.8,248.2 469.4,248.4 470.0,248.2 470.6,248.6 471.1,248.4 471.7,247.7 472.3,247.1 472.9,247.3 473.5,247.9 474.1,247.9 474.7,248.1 475.3,247.9 475.9,248.2 476.5,248.2 477.1,249.1 477.7,249.1 478.3,249.2 478.9,249.1 479.5,249.9 480.1,250.6 480.6,250.4 481.2,250.4 481.8,250.6 482.4,250.7 483.0,250.2 483.6,249.9 484.2,250.1 484.8,249.9 485.4,250.2 486.0,249.9 486.6,249.6 487.2,249.4 487.8,249.7 488.4,249.7 489.0,249.6 489.6,249.4 490.2,249.6 490.7,249.2 491.3,248.9 491.9,249.2 492.5,249.4 493.1,248.9 493.7,248.9 494.3,248.4 494.9,248.2 495.5,248.6 496.1,248.4 496.7,248.6 497.3,248.1 497.9,248.1 498.5,247.6 499.1,247.4 499.7,247.6 500.3,247.6 500.8,247.3 501.4,247.3 502.0,247.3 502.6,246.6 503.2,246.4 503.8,246.6 504.4,246.1 505.0,246.4 505.6,246.6 506.2,246.4 506.8,246.9 507.4,246.9 508.0,246.9 508.6,246.4 509.2,246.6 509.8,246.9 510.4,246.1 510.9,246.6 511.5,246.9 512.1,247.7 512.7,247.7 513.3,248.2 513.9,248.6 514.5,249.1 515.1,249.6 515.7,249.9 516.3,249.9 516.9,249.9 517.5,249.9 518.1,250.2 518.7,250.7 519.3,250.9 519.9,250.4 520.4,250.2 521.0,250.2 521.6,250.1 522.2,249.6 522.8,248.9 523.4,248.6 524.0,248.6 524.6,248.6 525.2,248.9 525.8,248.9 526.4,248.7 527.0,248.7 527.6,248.4 528.2,248.6 528.8,248.4 529.4,248.4 530.0,248.2 530.5,249.1 531.1,249.1 531.7,248.9 532.3,249.4 532.9,248.9 533.5,248.9 534.1,248.9 534.7,249.2 535.3,249.2 535.9,249.2 536.5,249.6 537.1,249.6 537.7,249.6 538.3,249.2 538.9,249.1 539.5,249.2 540.0,249.2 540.6,249.2 541.2,248.6 541.8,248.7 542.4,248.7 543.0,248.2 543.6,248.1 544.2,247.9 544.8,247.4 545.4,247.4 546.0,246.9 546.6,247.1 547.2,247.1 547.8,247.1 548.4,247.9 549.0,247.9 549.6,248.2 550.1,248.2 550.7,248.6 551.3,248.9 551.9,248.7 552.5,249.2 553.1,249.7 553.7,250.1 554.3,249.7 554.9,249.4 555.5,249.9 556.1,249.4 556.7,250.1 557.3,249.9 557.9,249.4 558.5,249.4 559.1,249.4 559.7,249.6 560.2,249.4 560.8,250.1 561.4,249.9 562.0,249.7 562.6,250.1 563.2,250.4 563.8,250.2 564.4,250.4 565.0,250.1 565.6,249.6 566.2,249.6 566.8,249.2 567.4,249.6 568.0,249.6 568.6,249.4 569.2,249.2 569.8,249.2 570.3,248.6 570.9,248.4 571.5,248.2 572.1,247.9 572.7,247.7 573.3,248.1 573.9,248.4 574.5,248.9 575.1,248.7 575.7,248.6 576.3,248.7 576.9,248.6 577.5,248.4 578.1,247.9 578.7,247.9 579.3,247.9 579.8,247.9 580.4,247.7 581.0,247.9 581.6,247.7 582.2,248.1 582.8,248.2 583.4,248.2 584.0,248.7 584.6,248.9 585.2,248.7 585.8,248.1 586.4,247.7 587.0,247.6 587.6,247.6 588.2,247.9 588.8,247.7 589.4,247.4 589.9,246.8 590.5,246.8 591.1,247.1 591.7,247.6 592.3,247.3 592.9,246.4 593.5,246.1 594.1,246.3 594.7,246.6 595.3,246.1 595.9,245.9 596.5,245.6 597.1,245.6 597.7,245.6 598.3,246.1 598.9,246.6 599.5,246.1 600.0,245.9 600.6,246.3 601.2,246.3 601.8,246.3 602.4,246.8 603.0,247.6 603.6,247.6 604.2,247.6 604.8,247.7 605.4,248.1 606.0,248.9 606.6,249.1 607.2,249.1 607.8,249.1 608.4,249.7 609.0,249.9 609.5,249.9 610.1,249.7 610.7,249.6 611.3,249.6 611.9,249.6 612.5,249.7 613.1,249.6 613.7,249.7 614.3,249.7 614.9,250.1 615.5,250.7 616.1,250.7 616.7,251.4 617.3,251.2 617.9,251.4 618.5,251.9 619.1,252.0 619.6,252.4 620.2,252.4 620.8,252.2 621.4,252.2 622.0,252.4 622.6,252.2 623.2,252.0 623.8,251.7 624.4,252.0 625.0,251.6 625.6,250.9 626.2,250.7 626.8,250.6 627.4,250.1 628.0,249.4 628.6,249.4 629.1,249.2 629.7,249.1 630.3,249.1 630.9,247.7 631.5,247.7 632.1,247.1 632.7,246.4 633.3,245.8 633.9,245.1 634.5,245.3 635.1,244.6 635.7,244.6 636.3,244.8 636.9,245.1 637.5,245.3 638.1,245.1 638.7,245.8 639.2,245.1 639.8,245.1 640.4,245.8 641.0,245.8 641.6,245.9 642.2,245.9 642.8,246.8 643.4,247.1 644.0,247.1"></path>
    <text text-anchor="end" fill="green" x="640" y="105">Food</text>
    <text text-anchor="end" fill="#0060e5" x="640" y="208">Creatures</text>
</svg>