<svg width="660" xmlns="http://www.w3.org/2000/svg" height="300">

<style>
  .data-series {
    opacity: 1;
    stroke-width: 1.8;
    fill: none;
  }
  .axis {
    stroke: #111;
    stroke-width: 1;
  }
  .y-axis-text {
    text-anchor: end;
  }
  .background {
    fill: none;
  }
  .axis-units {
    font-size: 10px;
    font-family: Arial;
  }
  .gridlines {
    opacity: 0.5;
    stroke: black;
    stroke-width: 0.3;
    fill: none;
  }
  .x-axis-text {
    text-anchor: middle;
  }
  .axis-label {
    font-size: 14px;
    font-family: Arial;
    text-anchor: middle;
  }
  </style>

    <text y="290" x="344.5" class="axis-label">Time (ticks)</text>
    <text y="134.0" x="0" class="axis-label" transform="translate(15.0) rotate(-90, 0, 134.0)">Population size</text>
    <line y1="258" x2="645" x1="45" y2="258" class="axis"></line>
    <line y1="258" x2="45" x1="45" y2="10" class="axis"></line>
    <g class="axis-units">
        <g class="x-axis-text">
            <text y="270" x="45.0">0</text>
            <text y="270" x="104.9">10K</text>
            <text y="270" x="164.8">20K</text>
            <text y="270" x="224.7">30K</text>
            <text y="270" x="284.6">40K</text>
            <text y="270" x="344.5">50K</text>
            <text y="270" x="404.4">60K</text>
            <text y="270" x="464.3">70K</text>
            <text y="270" x="524.2">80K</text>
            <text y="270" x="584.1">90K</text>
            <text y="270" x="644.0">100K</text>
        </g>
        <g class="y-axis-text">
            <text y="261.0" x="42">0</text>
            <text y="225.571428571" x="42">100</text>
            <text y="190.142857143" x="42">200</text>
            <text y="154.714285714" x="42">300</text>
            <text y="119.285714286" x="42">400</text>
            <text y="83.8571428571" x="42">500</text>
            <text y="48.4285714286" x="42">600</text>
            <text y="13.0" x="42">700</text>
        </g>
    </g>
    <g class="gridlines">
        <line y1="258" x2="104.5" x1="104.5" y2="10"></line>
        <line y1="258" x2="164.5" x1="164.5" y2="10"></line>
        <line y1="258" x2="224.5" x1="224.5" y2="10"></line>
        <line y1="258" x2="284.5" x1="284.5" y2="10"></line>
        <line y1="258" x2="344.5" x1="344.5" y2="10"></line>
        <line y1="258" x2="404.5" x1="404.5" y2="10"></line>
        <line y1="258" x2="464.5" x1="464.5" y2="10"></line>
        <line y1="258" x2="524.5" x1="524.5" y2="10"></line>
        <line y1="258" x2="584.5" x1="584.5" y2="10"></line>
        <line y1="258" x2="644.5" x1="644.5" y2="10"></line>
        <line y1="222.5" x2="644" x1="45" y2="222.5"></line>
        <line y1="187.5" x2="644" x1="45" y2="187.5"></line>
        <line y1="151.5" x2="644" x1="45" y2="151.5"></line>
        <line y1="116.5" x2="644" x1="45" y2="116.5"></line>
        <line y1="80.5" x2="644" x1="45" y2="80.5"></line>
        <line y1="45.5" x2="644" x1="45" y2="45.5"></line>
        <line y1="10.5" x2="644" x1="45" y2="10.5"></line>
    </g>
    <path stroke="green" class="data-series" d="M45.6,38.7 46.2,35.2 46.8,31.3 47.4,32.0 48.0,33.7 48.6,30.9 49.2,30.5 49.8,29.8 50.4,22.8 51.0,17.4 51.6,17.8 52.2,19.2 52.8,20.3 53.4,21.7 54.0,19.9 54.6,24.5 55.2,24.9 55.8,27.4 56.4,26.7 57.0,27.7 57.6,27.4 58.2,27.0 58.8,24.5 59.4,27.7 60.0,26.3 60.6,26.7 61.2,35.9 61.8,38.7 62.4,41.9 63.0,44.7 63.6,47.9 64.2,53.9 64.8,59.2 65.4,64.6 66.0,63.1 66.6,64.9 67.2,67.4 67.8,69.9 68.4,71.3 69.0,69.9 69.6,69.9 70.2,71.3 70.8,76.6 71.4,81.9 72.0,83.3 72.6,83.0 73.2,83.7 73.8,87.6 74.4,90.1 75.0,90.8 75.5,91.8 76.1,94.3 76.7,95.4 77.3,95.4 77.9,92.9 78.5,85.5 79.1,83.3 79.7,78.4 80.3,78.4 80.9,77.7 81.5,72.4 82.1,70.2 82.7,64.2 83.3,58.9 83.9,56.8 84.5,56.4 85.1,53.6 85.7,47.9 86.3,49.0 86.9,40.1 87.5,34.4 88.1,30.9 88.7,21.0 89.3,15.3 89.9,12.5 90.5,13.9 91.1,10.0 91.7,10.4 92.3,5.0 92.9,2.2 93.5,1.5 94.1,1.1 94.7,1.9 95.3,-1.7 95.9,-2.0 96.5,-0.3 97.1,-3.1 97.7,-6.3 98.3,-4.5 98.9,-4.9 99.5,-3.8 100.1,-2.4 100.7,0.1 101.3,-0.3 101.9,4.7 102.5,9.3 103.1,12.1 103.7,15.3 104.3,19.6 104.9,23.1 105.5,24.9 106.1,25.6 106.7,29.5 107.3,35.5 107.9,43.7 108.5,48.6 109.1,50.7 109.7,52.9 110.3,58.2 110.9,62.8 111.5,69.2 112.1,69.9 112.7,70.2 113.3,70.6 113.9,73.4 114.5,78.7 115.1,77.0 115.7,77.7 116.3,76.6 116.9,72.4 117.5,70.2 118.1,68.8 118.7,66.7 119.3,60.0 119.9,61.0 120.5,59.6 121.1,57.5 121.7,55.3 122.3,53.2 122.9,50.7 123.5,49.7 124.1,51.1 124.7,50.7 125.3,50.7 125.9,47.2 126.5,48.3 127.1,47.6 127.7,46.8 128.3,46.5 128.9,47.6 129.5,50.0 130.1,56.4 130.7,54.3 131.3,53.6 131.9,52.9 132.5,51.1 133.1,49.0 133.7,46.5 134.3,46.1 134.8,49.7 135.4,46.1 136.0,41.9 136.6,38.3 137.2,37.6 137.8,37.3 138.4,35.2 139.0,32.7 139.6,31.3 140.2,30.2 140.8,23.8 141.4,24.2 142.0,21.3 142.6,17.8 143.2,22.8 143.8,25.9 144.4,28.1 145.0,27.4 145.6,25.2 146.2,26.3 146.8,23.5 147.4,19.2 148.0,20.6 148.6,23.1 149.2,27.7 149.8,31.6 150.4,30.2 151.0,36.2 151.6,36.6 152.2,36.6 152.8,38.3 153.4,37.6 154.0,36.2 154.6,33.0 155.2,41.2 155.8,45.4 156.4,51.8 157.0,57.5 157.6,60.0 158.2,60.3 158.8,63.9 159.4,63.5 160.0,67.4 160.6,68.1 161.2,64.6 161.8,66.7 162.4,66.0 163.0,62.1 163.6,61.0 164.2,57.1 164.8,54.3 165.4,51.8 166.0,49.0 166.6,42.6 167.2,40.5 167.8,32.0 168.4,30.5 169.0,24.9 169.6,21.0 170.2,16.7 170.8,11.8 171.4,8.9 172.0,1.5 172.6,7.9 173.2,3.6 173.8,-2.4 174.4,0.1 175.0,0.1 175.6,-1.3 176.2,-1.3 176.8,0.8 177.4,4.3 178.0,7.2 178.6,11.8 179.2,21.0 179.8,20.3 180.4,22.0 181.0,32.0 181.6,39.8 182.2,49.3 182.8,56.4 183.4,59.6 184.0,61.4 184.6,67.4 185.2,72.0 185.8,72.0 186.4,75.5 187.0,75.5 187.6,80.5 188.2,79.4 188.8,78.7 189.4,75.5 190.0,74.1 190.6,72.4 191.2,68.1 191.8,67.0 192.4,66.3 193.0,66.7 193.6,64.6 194.2,63.5 194.8,60.7 195.3,60.0 195.9,61.4 196.5,58.9 197.1,58.5 197.7,59.2 198.3,54.6 198.9,49.7 199.5,47.2 200.1,47.9 200.7,48.3 201.3,44.7 201.9,42.6 202.5,41.2 203.1,40.8 203.7,35.2 204.3,33.4 204.9,33.7 205.5,35.9 206.1,34.8 206.7,32.0 207.3,33.0 207.9,35.5 208.5,38.3 209.1,40.1 209.7,38.3 210.3,43.7 210.9,46.5 211.5,51.1 212.1,52.5 212.7,51.1 213.3,45.8 213.9,47.2 214.5,47.9 215.1,45.4 215.7,42.9 216.3,41.9 216.9,41.9 217.5,37.3 218.1,34.8 218.7,38.3 219.3,39.4 219.9,39.4 220.5,43.7 221.1,46.1 221.7,44.4 222.3,42.9 222.9,44.0 223.5,42.9 224.1,45.4 224.7,48.6 225.3,48.6 225.9,47.9 226.5,46.8 227.1,46.1 227.7,44.0 228.3,40.8 228.9,39.1 229.5,38.3 230.1,37.3 230.7,34.4 231.3,35.2 231.9,36.9 232.5,36.6 233.1,36.9 233.7,37.3 234.3,40.1 234.9,36.2 235.5,30.5 236.1,30.9 236.7,31.6 237.3,33.7 237.9,36.2 238.5,35.9 239.1,34.8 239.7,37.3 240.3,41.9 240.9,43.3 241.5,45.4 242.1,42.6 242.7,39.4 243.3,39.4 243.9,42.2 244.5,36.2 245.1,35.5 245.7,35.5 246.3,42.2 246.9,43.3 247.5,41.2 248.1,46.1 248.7,48.3 249.3,48.6 249.9,47.6 250.5,42.2 251.1,44.0 251.7,48.6 252.3,48.6 252.9,56.1 253.5,57.8 254.1,57.5 254.6,63.5 255.2,60.3 255.8,60.7 256.4,62.4 257.0,61.7 257.6,65.6 258.2,63.1 258.8,64.2 259.4,65.3 260.0,61.4 260.6,61.4 261.2,64.9 261.8,63.5 262.4,61.0 263.0,56.1 263.6,55.7 264.2,52.2 264.8,54.3 265.4,50.7 266.0,43.3 266.6,42.6 267.2,41.5 267.8,36.9 268.4,34.1 269.0,28.8 269.6,26.3 270.2,27.7 270.8,22.4 271.4,23.1 272.0,22.8 272.6,16.4 273.2,19.6 273.8,19.6 274.4,19.2 275.0,19.2 275.6,25.2 276.2,26.3 276.8,26.3 277.4,29.8 278.0,29.1 278.6,33.0 279.2,35.9 279.8,40.1 280.4,35.9 281.0,36.9 281.6,39.4 282.2,40.8 282.8,41.9 283.4,45.1 284.0,42.9 284.6,47.6 285.2,46.8 285.8,44.7 286.4,40.8 287.0,39.8 287.6,40.5 288.2,41.2 288.8,43.3 289.4,45.1 290.0,47.6 290.6,48.3 291.2,51.8 291.8,55.0 292.4,57.1 293.0,58.2 293.6,58.2 294.2,61.4 294.8,61.0 295.4,67.4 296.0,74.5 296.6,74.1 297.2,78.4 297.8,79.1 298.4,75.5 299.0,75.2 299.6,75.9 300.2,73.1 300.8,68.8 301.4,66.3 302.0,63.5 302.6,63.9 303.2,58.5 303.8,59.6 304.4,61.7 305.0,59.6 305.6,53.6 306.2,51.5 306.8,46.8 307.4,45.4 308.0,42.6 308.6,44.7 309.2,42.6 309.8,43.7 310.4,35.9 311.0,31.6 311.6,32.0 312.2,32.7 312.8,30.9 313.4,27.4 314.0,28.8 314.6,28.8 315.1,26.3 315.7,29.5 316.3,29.5 316.9,31.3 317.5,32.7 318.1,30.2 318.7,34.4 319.3,38.3 319.9,39.8 320.5,36.6 321.1,38.7 321.7,41.2 322.3,40.8 322.9,44.4 323.5,45.4 324.1,43.7 324.7,41.2 325.3,47.9 325.9,48.6 326.5,49.3 327.1,55.0 327.7,58.5 328.3,57.5 328.9,59.6 329.5,63.1 330.1,62.1 330.7,66.0 331.3,68.5 331.9,68.8 332.5,69.9 333.1,70.9 333.7,68.8 334.3,70.2 334.9,67.0 335.5,65.6 336.1,64.6 336.7,62.8 337.3,62.8 337.9,62.4 338.5,61.7 339.1,61.0 339.7,61.0 340.3,58.9 340.9,57.5 341.5,57.1 342.1,52.2 342.7,52.2 343.3,51.8 343.9,49.7 344.5,47.2 345.1,45.8 345.7,47.9 346.3,49.3 346.9,49.0 347.5,44.4 348.1,48.3 348.7,45.1 349.3,40.1 349.9,40.5 350.5,39.4 351.1,40.8 351.7,38.7 352.3,33.4 352.9,36.9 353.5,36.6 354.1,35.5 354.7,34.4 355.3,34.1 355.9,36.9 356.5,36.2 357.1,34.8 357.7,33.0 358.3,32.7 358.9,34.4 359.5,38.0 360.1,36.9 360.7,34.1 361.3,33.4 361.9,33.4 362.5,33.4 363.1,29.1 363.7,25.9 364.3,27.7 364.9,27.0 365.5,25.2 366.1,25.6 366.7,25.6 367.3,25.9 367.9,27.4 368.5,26.3 369.1,23.5 369.7,22.8 370.3,23.5 370.9,24.5 371.5,23.1 372.1,27.7 372.7,29.1 373.3,28.1 373.9,31.6 374.4,32.3 375.0,33.7 375.6,36.9 376.2,33.4 376.8,33.0 377.4,30.9 378.0,28.1 378.6,32.0 379.2,28.4 379.8,32.7 380.4,38.3 381.0,41.5 381.6,47.2 382.2,50.4 382.8,49.0 383.4,46.8 384.0,44.7 384.6,47.6 385.2,53.2 385.8,53.2 386.4,50.4 387.0,51.5 387.6,51.8 388.2,54.6 388.8,62.1 389.4,62.4 390.0,64.2 390.6,62.1 391.2,63.5 391.8,62.4 392.4,63.5 393.0,64.6 393.6,65.3 394.2,66.0 394.8,65.3 395.4,61.4 396.0,58.5 396.6,61.7 397.2,54.6 397.8,54.6 398.4,51.5 399.0,42.6 399.6,36.6 400.2,32.7 400.8,30.2 401.4,30.2 402.0,28.8 402.6,19.2 403.2,18.5 403.8,15.0 404.4,14.6 405.0,8.6 405.6,1.9 406.2,-2.8 406.8,-5.2 407.4,-6.3 408.0,-10.9 408.6,-17.3 409.2,-22.9 409.8,-21.9 410.4,-20.1 411.0,-25.8 411.6,-26.1 412.2,-27.6 412.8,-27.9 413.4,-28.3 414.0,-31.5 414.6,-34.3 415.2,-35.7 415.8,-32.5 416.4,-32.5 417.0,-26.8 417.6,-18.0 418.2,-12.3 418.8,-3.1 419.4,6.1 420.0,12.1 420.6,19.9 421.2,28.4 421.8,34.1 422.4,36.9 423.0,46.8 423.6,55.7 424.2,62.4 424.8,70.9 425.4,70.2 426.0,77.7 426.6,80.5 427.2,79.4 427.8,84.0 428.4,88.3 429.0,90.8 429.6,91.1 430.2,87.9 430.8,89.0 431.4,86.2 432.0,84.4 432.6,83.3 433.2,75.9 433.8,72.4 434.3,68.5 434.9,64.9 435.5,61.4 436.1,58.9 436.7,49.7 437.3,41.9 437.9,38.3 438.5,34.4 439.1,27.7 439.7,25.6 440.3,19.6 440.9,15.0 441.5,11.4 442.1,5.4 442.7,-1.7 443.3,-5.9 443.9,-10.2 444.5,-12.0 445.1,-13.4 445.7,-15.2 446.3,-14.4 446.9,-19.1 447.5,-18.7 448.1,-16.9 448.7,-19.4 449.3,-26.1 449.9,-22.6 450.5,-24.0 451.1,-21.5 451.7,-23.3 452.3,-24.0 452.9,-27.9 453.5,-29.0 454.1,-27.2 454.7,-28.6 455.3,-29.0 455.9,-26.8 456.5,-24.0 457.1,-20.5 457.7,-17.3 458.3,-11.6 458.9,-0.3 459.5,2.2 460.1,12.1 460.7,20.3 461.3,22.0 461.9,34.1 462.5,38.3 463.1,46.5 463.7,57.1 464.3,68.5 464.9,75.5 465.5,75.9 466.1,78.7 466.7,83.3 467.3,86.9 467.9,86.9 468.5,86.9 469.1,87.6 469.7,90.8 470.3,94.7 470.9,94.3 471.5,89.7 472.1,92.2 472.7,96.1 473.3,93.6 473.9,91.8 474.5,88.3 475.1,85.1 475.7,82.6 476.3,79.4 476.9,76.3 477.5,70.6 478.1,63.5 478.7,60.7 479.3,57.1 479.9,52.9 480.5,49.7 481.1,44.7 481.7,41.9 482.3,35.5 482.9,32.0 483.5,29.5 484.1,26.7 484.7,20.3 485.3,17.4 485.9,12.1 486.5,11.8 487.1,7.2 487.7,6.1 488.3,3.3 488.9,2.2 489.5,4.3 490.1,1.5 490.7,-5.9 491.3,-4.5 491.9,-3.1 492.5,-2.8 493.1,-7.7 493.7,-3.5 494.2,4.3 494.8,8.6 495.4,15.0 496.0,20.6 496.6,27.0 497.2,28.1 497.8,29.5 498.4,35.5 499.0,41.2 499.6,48.3 500.2,51.5 500.8,51.5 501.4,51.1 502.0,54.6 502.6,54.6 503.2,57.5 503.8,61.0 504.4,62.4 505.0,59.2 505.6,63.9 506.2,66.0 506.8,62.4 507.4,62.1 508.0,58.9 508.6,58.5 509.2,56.8 509.8,56.8 510.4,52.5 511.0,47.6 511.6,46.8 512.2,46.8 512.8,41.5 513.4,44.0 514.0,44.4 514.6,45.1 515.2,47.6 515.8,49.0 516.4,49.0 517.0,47.2 517.6,52.2 518.2,57.5 518.8,58.9 519.4,61.0 520.0,62.8 520.6,62.1 521.2,63.5 521.8,64.9 522.4,63.9 523.0,61.4 523.6,61.4 524.2,61.7 524.8,60.7 525.4,58.2 526.0,53.2 526.6,49.7 527.2,48.3 527.8,44.7 528.4,45.1 529.0,44.7 529.6,40.1 530.2,41.9 530.8,39.4 531.4,35.9 532.0,34.4 532.6,35.2 533.2,29.8 533.8,29.1 534.4,26.3 535.0,21.7 535.6,23.8 536.2,18.9 536.8,17.1 537.4,19.2 538.0,20.3 538.6,21.3 539.2,19.9 539.8,23.1 540.4,24.2 541.0,24.5 541.6,25.9 542.2,32.0 542.8,38.7 543.4,42.9 544.0,39.8 544.6,45.8 545.2,48.6 545.8,55.3 546.4,51.1 547.0,50.7 547.6,51.1 548.2,46.1 548.8,46.8 549.4,49.7 550.0,53.2 550.6,56.8 551.2,56.4 551.8,59.2 552.4,56.1 553.0,59.2 553.6,60.7 554.1,62.8 554.7,65.3 555.3,63.9 555.9,62.1 556.5,62.1 557.1,55.3 557.7,51.1 558.3,54.3 558.9,53.9 559.5,53.2 560.1,49.0 560.7,47.2 561.3,38.0 561.9,41.5 562.5,38.0 563.1,32.0 563.7,30.9 564.3,30.9 564.9,30.5 565.5,23.8 566.1,23.8 566.7,23.8 567.3,25.6 567.9,23.5 568.5,21.7 569.1,24.5 569.7,21.0 570.3,17.4 570.9,11.8 571.5,7.9 572.1,5.7 572.7,2.9 573.3,1.9 573.9,7.5 574.5,15.7 575.1,23.1 575.7,22.8 576.3,23.8 576.9,29.8 577.5,33.7 578.1,36.9 578.7,39.4 579.3,39.4 579.9,47.6 580.5,53.6 581.1,51.8 581.7,57.5 582.3,57.1 582.9,56.1 583.5,63.5 584.1,64.9 584.7,69.9 585.3,70.2 585.9,74.5 586.5,75.9 587.1,76.3 587.7,76.3 588.3,74.5 588.9,71.6 589.5,75.2 590.1,71.6 590.7,72.7 591.3,65.3 591.9,66.0 592.5,64.2 593.1,62.8 593.7,58.9 594.3,55.7 594.9,52.2 595.5,47.6 596.1,44.4 596.7,44.7 597.3,42.9 597.9,40.8 598.5,35.9 599.1,34.4 599.7,30.9 600.3,24.5 600.9,20.6 601.5,13.9 602.1,7.5 602.7,-0.3 603.3,-3.1 603.9,-8.8 604.5,-12.3 605.1,-14.4 605.7,-16.6 606.3,-13.0 606.9,-15.5 607.5,-17.3 608.1,-15.9 608.7,-13.0 609.3,-8.1 609.9,0.8 610.5,-0.6 611.1,2.6 611.7,7.2 612.3,11.1 612.9,15.0 613.5,12.8 614.0,17.1 614.6,25.9 615.2,28.8 615.8,36.2 616.4,35.9 617.0,42.6 617.6,44.7 618.2,48.6 618.8,50.7 619.4,55.7 620.0,63.5 620.6,65.3 621.2,67.4 621.8,72.0 622.4,74.8 623.0,81.6 623.6,86.2 624.2,88.7 624.8,89.0 625.4,87.6 626.0,83.3 626.6,88.3 627.2,86.5 627.8,89.4 628.4,87.6 629.0,87.9 629.6,90.8 630.2,92.5 630.8,93.6 631.4,88.7 632.0,85.1 632.6,82.3 633.2,83.3 633.8,79.1 634.4,75.9 635.0,74.5 635.6,71.3 636.2,66.0 636.8,60.7 637.4,55.0 638.0,53.6 638.6,52.5 639.2,48.3 639.8,43.3 640.4,33.7 641.0,29.5 641.6,23.1 642.2,22.4 642.8,19.6 643.4,16.4 644.0,13.5"></path>
    <path stroke="#0060e5" class="data-series" d="M45.6,240.3 46.2,239.2 46.8,238.5 47.4,238.2 48.0,236.0 48.6,237.5 49.2,235.7 49.8,237.5 50.4,237.1 51.0,236.4 51.6,238.9 52.2,238.2 52.8,237.8 53.4,237.1 54.0,237.5 54.6,237.5 55.2,237.5 55.8,235.3 56.4,234.3 57.0,233.6 57.6,231.4 58.2,231.4 58.8,231.4 59.4,230.0 60.0,231.8 60.6,230.7 61.2,229.3 61.8,228.9 62.4,229.7 63.0,228.9 63.6,228.6 64.2,228.9 64.8,228.2 65.4,226.5 66.0,227.9 66.6,227.2 67.2,228.9 67.8,229.7 68.4,230.0 69.0,231.1 69.6,231.8 70.2,232.5 70.8,231.8 71.4,231.4 72.0,232.1 72.6,231.8 73.2,232.8 73.8,233.9 74.4,232.8 75.0,231.8 75.5,231.4 76.1,232.1 76.7,233.9 77.3,235.0 77.9,236.4 78.5,237.1 79.1,238.2 79.7,238.9 80.3,239.9 80.9,240.6 81.5,241.0 82.1,242.4 82.7,242.8 83.3,242.8 83.9,243.1 84.5,243.1 85.1,242.4 85.7,243.1 86.3,244.2 86.9,246.0 87.5,246.3 88.1,246.0 88.7,247.0 89.3,247.4 89.9,247.4 90.5,245.6 91.1,244.9 91.7,245.6 92.3,245.6 92.9,244.5 93.5,243.5 94.1,242.4 94.7,241.3 95.3,241.0 95.9,240.6 96.5,240.3 97.1,239.6 97.7,241.7 98.3,239.9 98.9,239.2 99.5,237.5 100.1,237.5 100.7,237.5 101.3,234.6 101.9,233.9 102.5,231.4 103.1,230.7 103.7,230.0 104.3,230.7 104.9,229.7 105.5,229.7 106.1,229.7 106.7,228.2 107.3,226.8 107.9,225.4 108.5,226.1 109.1,225.4 109.7,225.1 110.3,224.3 110.9,225.1 111.5,225.1 112.1,225.1 112.7,227.2 113.3,228.6 113.9,229.7 114.5,232.1 115.1,232.5 115.7,233.9 116.3,235.3 116.9,236.7 117.5,237.8 118.1,238.5 118.7,238.2 119.3,240.3 119.9,239.6 120.5,238.2 121.1,238.2 121.7,238.2 122.3,238.2 122.9,238.5 123.5,237.8 124.1,238.2 124.7,237.8 125.3,237.5 125.9,236.7 126.5,236.7 127.1,237.5 127.7,235.7 128.3,235.3 128.9,235.7 129.5,235.3 130.1,234.6 130.7,234.6 131.3,234.3 131.9,233.2 132.5,233.9 133.1,235.7 133.7,236.7 134.3,237.5 134.8,237.8 135.4,239.6 136.0,240.6 136.6,241.3 137.2,241.3 137.8,241.3 138.4,240.3 139.0,241.0 139.6,240.6 140.2,239.6 140.8,238.9 141.4,237.8 142.0,238.2 142.6,238.5 143.2,236.4 143.8,235.7 144.4,236.7 145.0,236.4 145.6,235.3 146.2,236.0 146.8,235.3 147.4,235.3 148.0,234.6 148.6,235.0 149.2,234.3 149.8,235.0 150.4,233.9 151.0,232.8 151.6,233.6 152.2,233.9 152.8,234.6 153.4,233.2 154.0,234.3 154.6,233.2 155.2,231.4 155.8,231.1 156.4,229.7 157.0,228.9 157.6,227.9 158.2,227.5 158.8,227.9 159.4,227.9 160.0,229.3 160.6,230.4 161.2,231.4 161.8,232.1 162.4,232.8 163.0,233.2 163.6,235.7 164.2,237.8 164.8,238.9 165.4,238.9 166.0,240.3 166.6,241.3 167.2,242.4 167.8,244.9 168.4,246.0 169.0,246.3 169.6,246.3 170.2,246.3 170.8,246.0 171.4,248.1 172.0,247.7 172.6,245.6 173.2,244.2 173.8,243.8 174.4,241.7 175.0,240.3 175.6,238.9 176.2,238.2 176.8,235.3 177.4,234.3 178.0,233.2 178.6,232.8 179.2,230.4 179.8,228.2 180.4,227.9 181.0,224.0 181.6,223.6 182.2,221.9 182.8,220.8 183.4,221.5 184.0,221.2 184.6,221.2 185.2,222.6 185.8,224.7 186.4,224.7 187.0,224.7 187.6,225.1 188.2,226.5 188.8,227.9 189.4,230.0 190.0,231.8 190.6,232.8 191.2,235.3 191.8,237.8 192.4,238.5 193.0,238.5 193.6,238.9 194.2,237.8 194.8,237.8 195.3,238.5 195.9,238.5 196.5,238.5 197.1,238.5 197.7,239.2 198.3,238.5 198.9,238.9 199.5,238.2 200.1,239.6 200.7,240.6 201.3,241.0 201.9,241.7 202.5,241.3 203.1,240.6 203.7,241.7 204.3,241.3 204.9,240.3 205.5,239.2 206.1,239.9 206.7,239.2 207.3,237.8 207.9,237.1 208.5,236.7 209.1,237.1 209.7,235.7 210.3,235.3 210.9,234.3 211.5,233.2 212.1,232.8 212.7,233.6 213.3,234.6 213.9,235.0 214.5,236.7 215.1,236.7 215.7,238.2 216.3,238.5 216.9,238.5 217.5,238.5 218.1,238.5 218.7,237.8 219.3,237.5 219.9,236.4 220.5,236.4 221.1,236.0 221.7,237.1 222.3,237.5 222.9,237.1 223.5,238.2 224.1,236.4 224.7,235.7 225.3,236.7 225.9,238.2 226.5,238.5 227.1,237.8 227.7,239.6 228.3,238.2 228.9,239.2 229.5,238.5 230.1,237.5 230.7,238.5 231.3,237.8 231.9,237.8 232.5,237.1 233.1,238.2 233.7,237.8 234.3,236.7 234.9,237.5 235.5,237.1 236.1,237.5 236.7,237.8 237.3,236.7 237.9,236.4 238.5,236.0 239.1,235.0 239.7,233.9 240.3,233.2 240.9,232.5 241.5,232.5 242.1,232.8 242.7,233.2 243.3,235.3 243.9,235.3 244.5,235.3 245.1,234.6 245.7,233.6 246.3,233.2 246.9,234.3 247.5,235.0 248.1,233.6 248.7,233.2 249.3,232.8 249.9,233.6 250.5,232.1 251.1,233.6 251.7,233.2 252.3,232.5 252.9,232.1 253.5,231.1 254.1,230.7 254.6,229.3 255.2,230.4 255.8,230.0 256.4,230.0 257.0,229.7 257.6,230.7 258.2,231.1 258.8,232.1 259.4,233.2 260.0,233.9 260.6,233.6 261.2,232.8 261.8,233.6 262.4,235.0 263.0,236.7 263.6,236.7 264.2,238.2 264.8,239.2 265.4,239.6 266.0,239.6 266.6,239.2 267.2,241.3 267.8,241.7 268.4,242.1 269.0,242.4 269.6,241.7 270.2,242.4 270.8,242.1 271.4,241.7 272.0,241.0 272.6,242.1 273.2,241.0 273.8,241.0 274.4,240.3 275.0,241.0 275.6,238.9 276.2,237.8 276.8,237.1 277.4,236.7 278.0,236.4 278.6,235.3 279.2,234.6 279.8,233.6 280.4,232.5 281.0,232.5 281.6,232.5 282.2,231.4 282.8,230.7 283.4,231.8 284.0,231.8 284.6,232.1 285.2,231.1 285.8,232.5 286.4,234.3 287.0,234.3 287.6,233.9 288.2,234.3 288.8,234.6 289.4,235.3 290.0,235.3 290.6,235.0 291.2,234.3 291.8,233.9 292.4,233.2 293.0,233.2 293.6,234.3 294.2,233.6 294.8,233.9 295.4,233.2 296.0,233.9 296.6,233.6 297.2,234.3 297.8,233.2 298.4,232.8 299.0,234.6 299.6,235.0 300.2,236.4 300.8,237.1 301.4,239.6 302.0,239.9 302.6,239.9 303.2,240.6 303.8,242.1 304.4,242.4 305.0,242.1 305.6,242.4 306.2,243.1 306.8,243.5 307.4,243.5 308.0,243.5 308.6,242.8 309.2,242.4 309.8,242.4 310.4,242.8 311.0,243.1 311.6,241.7 312.2,241.0 312.8,239.6 313.4,238.9 314.0,238.5 314.6,236.0 315.1,236.4 315.7,237.8 316.3,237.8 316.9,236.7 317.5,235.7 318.1,236.4 318.7,234.6 319.3,233.6 319.9,232.8 320.5,232.1 321.1,231.8 321.7,231.4 322.3,230.7 322.9,231.1 323.5,231.8 324.1,232.5 324.7,231.8 325.3,231.1 325.9,230.7 326.5,231.8 327.1,231.8 327.7,232.8 328.3,233.2 328.9,233.6 329.5,233.2 330.1,233.6 330.7,232.8 331.3,231.8 331.9,233.2 332.5,235.0 333.1,234.6 333.7,235.0 334.3,237.5 334.9,238.5 335.5,239.6 336.1,238.9 336.7,240.3 337.3,240.6 337.9,239.9 338.5,239.9 339.1,239.9 339.7,239.6 340.3,241.3 340.9,241.0 341.5,241.3 342.1,240.6 342.7,238.9 343.3,238.9 343.9,239.2 344.5,239.6 345.1,239.2 345.7,240.3 346.3,239.2 346.9,239.2 347.5,239.2 348.1,238.9 348.7,239.9 349.3,239.9 349.9,239.6 350.5,239.6 351.1,238.2 351.7,239.2 352.3,238.5 352.9,239.6 353.5,238.9 354.1,239.9 354.7,238.5 355.3,237.8 355.9,236.4 356.5,236.7 357.1,236.7 357.7,236.4 358.3,236.0 358.9,235.7 359.5,235.3 360.1,235.0 360.7,234.6 361.3,234.3 361.9,235.3 362.5,236.7 363.1,237.5 363.7,237.1 364.3,237.1 364.9,236.4 365.5,236.0 366.1,236.0 366.7,236.7 367.3,236.7 367.9,236.4 368.5,236.7 369.1,236.7 369.7,236.4 370.3,237.8 370.9,237.1 371.5,236.7 372.1,237.5 372.7,237.8 373.3,237.1 373.9,236.4 374.4,235.7 375.0,235.0 375.6,233.9 376.2,234.6 376.8,233.9 377.4,235.0 378.0,233.2 378.6,234.3 379.2,234.3 379.8,232.8 380.4,232.8 381.0,233.2 381.6,232.5 382.2,232.8 382.8,233.2 383.4,232.5 384.0,233.6 384.6,232.8 385.2,232.1 385.8,232.1 386.4,231.8 387.0,232.1 387.6,233.2 388.2,232.5 388.8,233.2 389.4,230.4 390.0,232.1 390.6,232.1 391.2,233.2 391.8,232.8 392.4,232.8 393.0,233.2 393.6,233.9 394.2,234.6 394.8,235.0 395.4,236.7 396.0,238.9 396.6,239.6 397.2,239.9 397.8,238.5 398.4,239.2 399.0,240.3 399.6,240.6 400.2,242.1 400.8,242.1 401.4,243.1 402.0,244.5 402.6,245.2 403.2,245.2 403.8,245.2 404.4,245.6 405.0,245.2 405.6,245.2 406.2,245.6 406.8,244.2 407.4,243.8 408.0,242.8 408.6,243.1 409.2,242.4 409.8,242.8 410.4,241.7 411.0,242.8 411.6,242.8 412.2,242.1 412.8,241.7 413.4,242.8 414.0,242.1 414.6,242.1 415.2,241.3 415.8,238.9 416.4,238.5 417.0,235.7 417.6,231.8 418.2,229.3 418.8,228.2 419.4,223.3 420.0,221.9 420.6,220.1 421.2,219.0 421.8,218.3 422.4,218.3 423.0,219.0 423.6,218.3 424.2,220.4 424.8,218.7 425.4,220.1 426.0,221.2 426.6,220.8 427.2,220.8 427.8,219.7 428.4,220.8 429.0,221.5 429.6,222.2 430.2,226.5 430.8,229.3 431.4,231.1 432.0,233.6 432.6,236.0 433.2,238.5 433.8,239.2 434.3,241.0 434.9,242.8 435.5,245.2 436.1,245.6 436.7,245.6 437.3,245.2 437.9,245.2 438.5,245.2 439.1,245.6 439.7,246.0 440.3,246.7 440.9,247.0 441.5,248.1 442.1,247.4 442.7,246.3 443.3,245.6 443.9,245.6 444.5,246.0 445.1,244.9 445.7,244.2 446.3,243.5 446.9,243.5 447.5,244.2 448.1,243.1 448.7,241.7 449.3,241.7 449.9,241.3 450.5,240.3 451.1,239.6 451.7,239.2 452.3,238.9 452.9,239.6 453.5,237.8 454.1,236.4 454.7,236.0 455.3,235.3 455.9,233.9 456.5,232.8 457.1,232.1 457.7,231.4 458.3,229.7 458.9,228.9 459.5,226.5 460.1,226.8 460.7,224.0 461.3,222.6 461.9,221.5 462.5,220.8 463.1,219.7 463.7,219.0 464.3,218.0 464.9,217.3 465.5,218.7 466.1,218.0 466.7,218.3 467.3,219.4 467.9,220.8 468.5,223.3 469.1,224.0 469.7,227.2 470.3,231.1 470.9,231.8 471.5,234.3 472.1,235.3 472.7,235.0 473.3,236.4 473.9,236.4 474.5,238.2 475.1,238.5 475.7,240.3 476.3,241.3 476.9,242.1 477.5,242.4 478.1,242.4 478.7,243.1 479.3,244.5 479.9,243.8 480.5,244.2 481.1,243.5 481.7,243.8 482.3,244.5 482.9,244.9 483.5,244.9 484.1,244.9 484.7,246.0 485.3,246.3 485.9,246.3 486.5,245.2 487.1,244.9 487.7,244.5 488.3,243.1 488.9,243.1 489.5,242.1 490.1,242.1 490.7,242.4 491.3,241.0 491.9,239.6 492.5,238.5 493.1,237.8 493.7,236.4 494.2,233.2 494.8,232.8 495.4,232.8 496.0,230.0 496.6,228.6 497.2,227.5 497.8,226.8 498.4,224.7 499.0,224.3 499.6,224.0 500.2,222.9 500.8,222.6 501.4,223.3 502.0,224.3 502.6,225.1 503.2,226.5 503.8,227.2 504.4,227.2 505.0,227.2 505.6,228.2 506.2,229.3 506.8,230.0 507.4,231.8 508.0,233.9 508.6,236.4 509.2,235.7 509.8,236.0 510.4,235.7 511.0,236.7 511.6,237.1 512.2,237.8 512.8,237.8 513.4,237.5 514.0,237.1 514.6,236.7 515.2,235.3 515.8,234.6 516.4,233.9 517.0,232.1 517.6,230.7 518.2,230.0 518.8,231.1 519.4,232.5 520.0,232.1 520.6,233.6 521.2,234.6 521.8,235.3 522.4,235.7 523.0,237.8 523.6,237.5 524.2,238.5 524.8,238.5 525.4,237.8 526.0,238.9 526.6,241.0 527.2,239.2 527.8,238.9 528.4,238.2 529.0,239.2 529.6,240.6 530.2,240.3 530.8,241.3 531.4,240.6 532.0,241.3 532.6,241.7 533.2,242.1 533.8,241.3 534.4,240.3 535.0,238.5 535.6,238.2 536.2,238.2 536.8,237.5 537.4,236.0 538.0,233.9 538.6,233.2 539.2,232.1 539.8,231.8 540.4,231.1 541.0,231.1 541.6,230.7 542.2,230.7 542.8,228.2 543.4,227.9 544.0,229.7 544.6,229.7 545.2,230.7 545.8,229.3 546.4,230.0 547.0,230.4 547.6,233.2 548.2,233.9 548.8,233.6 549.4,233.2 550.0,233.2 550.6,234.6 551.2,235.0 551.8,235.7 552.4,234.6 553.0,234.3 553.6,235.7 554.1,235.0 554.7,235.3 555.3,235.0 555.9,235.3 556.5,237.1 557.1,237.5 557.7,238.9 558.3,238.2 558.9,238.9 559.5,237.5 560.1,238.2 560.7,238.2 561.3,238.2 561.9,238.9 562.5,239.9 563.1,240.3 563.7,240.3 564.3,240.3 564.9,240.6 565.5,241.0 566.1,241.3 566.7,242.1 567.3,241.0 567.9,240.6 568.5,241.7 569.1,240.3 569.7,239.9 570.3,240.3 570.9,240.3 571.5,241.7 572.1,242.1 572.7,241.3 573.3,241.0 573.9,238.2 574.5,237.8 575.1,235.3 575.7,235.7 576.3,234.6 576.9,232.8 577.5,231.1 578.1,230.7 578.7,231.1 579.3,230.7 579.9,230.7 580.5,230.7 581.1,230.4 581.7,229.7 582.3,227.9 582.9,229.3 583.5,227.9 584.1,228.9 584.7,227.2 585.3,227.2 585.9,227.2 586.5,227.9 587.1,228.9 587.7,228.2 588.3,231.1 588.9,232.1 589.5,232.5 590.1,235.7 590.7,235.7 591.3,236.7 591.9,237.1 592.5,238.9 593.1,239.9 593.7,240.3 594.3,240.6 594.9,242.4 595.5,242.4 596.1,241.7 596.7,242.8 597.3,242.8 597.9,241.7 598.5,242.1 599.1,241.7 599.7,242.1 600.3,242.8 600.9,243.5 601.5,241.7 602.1,242.1 602.7,243.5 603.3,243.5 603.9,244.2 604.5,244.5 605.1,242.8 605.7,242.4 606.3,240.3 606.9,238.5 607.5,238.5 608.1,238.5 608.7,237.5 609.3,235.0 609.9,232.5 610.5,232.1 611.1,231.1 611.7,229.7 612.3,228.6 612.9,228.9 613.5,228.2 614.0,227.2 614.6,226.5 615.2,226.1 615.8,226.1 616.4,226.5 617.0,225.4 617.6,225.8 618.2,224.7 618.8,225.4 619.4,224.3 620.0,223.3 620.6,222.2 621.2,224.0 621.8,224.3 622.4,224.7 623.0,226.5 623.6,224.7 624.2,224.7 624.8,226.8 625.4,229.3 626.0,229.7 626.6,230.7 627.2,231.1 627.8,230.7 628.4,232.1 629.0,230.4 629.6,232.5 630.2,232.1 630.8,233.2 631.4,236.0 632.0,237.1 632.6,238.9 633.2,238.9 633.8,240.6 634.4,241.3 635.0,241.7 635.6,242.1 636.2,243.5 636.8,245.6 637.4,245.2 638.0,246.0 638.6,246.0 639.2,246.0 639.8,246.7 640.4,248.1 641.0,248.1 641.6,248.1 642.2,248.4 642.8,248.1 643.4,247.7 644.0,246.7"></path>
    <text y="105" x="640" text-anchor="end" fill="green">Food</text>
    <text y="208" x="640" text-anchor="end" fill="#0060e5">Creatures</text>
</svg>