<svg width="660" height="300" xmlns="http://www.w3.org/2000/svg">

<style>
  .background {
    fill: none;
  }
  .axis {
    stroke: #111;
    stroke-width: 1;
  }
  .axis-label {
    font-size: 14px;
    font-family: Arial;
    text-anchor: middle;
  }
  .axis-units {
    font-size: 10px;
    font-family: Arial;
  }
  .y-axis-text {
    text-anchor: end;
  }
  .x-axis-text {
    text-anchor: middle;
  }
  .gridlines {
    stroke: black;
    stroke-width: 0.3;
    fill: none;
    opacity: 0.5;
  }
  .data-series {
    stroke-width: 1.8;
    fill: none;
    opacity: 1;
  }
  </style>

    <text class="axis-label" x="347.0" y="290">Time (ticks)</text>
    <text class="axis-label" x="0" y="134.0" transform="translate(15.0) rotate(-90, 0, 134.0)">Population size</text>
    <line class="axis" x1="50" y1="258" x2="645" y2="258"></line>
    <line class="axis" x1="50" y1="258" x2="50" y2="10"></line>
    <g class="axis-units">
        <g class="x-axis-text">
            <text x="50.0" y="270">0</text>
            <text x="109.4" y="270">10K</text>
            <text x="168.8" y="270">20K</text>
            <text x="228.2" y="270">30K</text>
            <text x="287.6" y="270">40K</text>
            <text x="347.0" y="270">50K</text>
            <text x="406.4" y="270">60K</text>
            <text x="465.8" y="270">70K</text>
            <text x="525.2" y="270">80K</text>
            <text x="584.6" y="270">90K</text>
            <text x="644.0" y="270">100K</text>
        </g>
        <g class="y-axis-text">
            <text x="47" y="261.0">0</text>
            <text x="47" y="211.4">500</text>
            <text x="47" y="161.8">1000</text>
            <text x="47" y="112.20000000000002">1500</text>
            <text x="47" y="62.599999999999994">2000</text>
            <text x="47" y="13.0">2500</text>
        </g>
    </g>
    <g class="gridlines">
        <line x1="109.5" y1="258" x2="109.5" y2="10"></line>
        <line x1="168.5" y1="258" x2="168.5" y2="10"></line>
        <line x1="228.5" y1="258" x2="228.5" y2="10"></line>
        <line x1="287.5" y1="258" x2="287.5" y2="10"></line>
        <line x1="347.5" y1="258" x2="347.5" y2="10"></line>
        <line x1="406.5" y1="258" x2="406.5" y2="10"></line>
        <line x1="465.5" y1="258" x2="465.5" y2="10"></line>
        <line x1="525.5" y1="258" x2="525.5" y2="10"></line>
        <line x1="584.5" y1="258" x2="584.5" y2="10"></line>
        <line x1="644.5" y1="258" x2="644.5" y2="10"></line>
        <line x1="50" y1="208.5" x2="644" y2="208.5"></line>
        <line x1="50" y1="158.5" x2="644" y2="158.5"></line>
        <line x1="50" y1="109.5" x2="644" y2="109.5"></line>
        <line x1="50" y1="59.5" x2="644" y2="59.5"></line>
        <line x1="50" y1="10.5" x2="644" y2="10.5"></line>
    </g>
    <path class="data-series" stroke="green" d="M50.6,139.1 51.2,138.7 51.8,138.6 52.4,137.6 53.0,138.8 53.6,139.0 54.2,138.2 54.8,138.3 55.3,137.2 55.9,136.8 56.5,136.7 57.1,136.6 57.7,136.3 58.3,136.3 58.9,135.6 59.5,134.9 60.1,134.6 60.7,131.9 61.3,131.2 61.9,130.9 62.5,128.8 63.1,127.7 63.7,126.2 64.3,126.0 64.8,125.2 65.4,124.7 66.0,124.1 66.6,121.7 67.2,120.9 67.8,119.8 68.4,118.6 69.0,118.3 69.6,117.9 70.2,116.1 70.8,115.1 71.4,113.5 72.0,112.1 72.6,110.5 73.2,109.9 73.8,108.8 74.4,106.7 74.9,105.2 75.5,104.1 76.1,101.8 76.7,100.4 77.3,98.5 77.9,96.8 78.5,96.2 79.1,94.4 79.7,93.0 80.3,92.9 80.9,91.8 81.5,91.2 82.1,89.4 82.7,89.3 83.3,88.8 83.9,89.4 84.5,88.4 85.0,87.7 85.6,86.4 86.2,85.8 86.8,84.1 87.4,83.4 88.0,82.6 88.6,81.5 89.2,81.1 89.8,81.3 90.4,81.4 91.0,80.5 91.6,79.7 92.2,79.2 92.8,79.7 93.4,80.1 94.0,79.0 94.5,78.5 95.1,78.9 95.7,79.6 96.3,79.2 96.9,79.7 97.5,80.7 98.1,81.2 98.7,83.2 99.3,84.1 99.9,84.2 100.5,85.6 101.1,86.0 101.7,86.8 102.3,89.0 102.9,88.6 103.5,90.7 104.1,91.4 104.6,92.5 105.2,92.7 105.8,93.4 106.4,94.4 107.0,95.5 107.6,96.7 108.2,98.0 108.8,98.3 109.4,100.4 110.0,102.8 110.6,103.9 111.2,105.9 111.8,107.0 112.4,107.1 113.0,109.3 113.6,109.6 114.2,110.3 114.7,111.7 115.3,112.8 115.9,114.3 116.5,114.5 117.1,115.6 117.7,115.4 118.3,115.8 118.9,117.7 119.5,119.8 120.1,120.2 120.7,121.3 121.3,123.0 121.9,123.9 122.5,125.2 123.1,125.7 123.7,126.6 124.2,127.3 124.8,127.6 125.4,128.1 126.0,128.3 126.6,128.4 127.2,129.1 127.8,130.5 128.4,131.2 129.0,131.8 129.6,132.5 130.2,131.7 130.8,130.6 131.4,129.8 132.0,128.8 132.6,129.2 133.2,130.0 133.8,129.3 134.3,127.8 134.9,128.0 135.5,129.0 136.1,128.0 136.7,128.9 137.3,129.7 137.9,129.5 138.5,130.6 139.1,130.2 139.7,130.0 140.3,130.8 140.9,130.4 141.5,130.9 142.1,130.8 142.7,131.4 143.3,131.3 143.9,131.4 144.4,130.8 145.0,129.3 145.6,130.1 146.2,129.8 146.8,128.2 147.4,127.5 148.0,125.6 148.6,124.2 149.2,123.1 149.8,121.5 150.4,120.9 151.0,119.6 151.6,119.2 152.2,118.5 152.8,117.8 153.4,117.8 153.9,115.9 154.5,114.5 155.1,112.4 155.7,111.5 156.3,109.0 156.9,107.6 157.5,105.8 158.1,103.2 158.7,102.0 159.3,100.6 159.9,99.5 160.5,96.5 161.1,94.6 161.7,93.2 162.3,92.5 162.9,90.7 163.5,89.6 164.0,88.0 164.6,86.8 165.2,85.1 165.8,85.0 166.4,85.9 167.0,86.1 167.6,85.3 168.2,85.8 168.8,85.3 169.4,84.4 170.0,83.7 170.6,83.4 171.2,84.5 171.8,83.8 172.4,85.0 173.0,85.1 173.6,86.0 174.1,87.1 174.7,85.7 175.3,85.8 175.9,85.9 176.5,87.8 177.1,90.4 177.7,90.7 178.3,92.4 178.9,92.9 179.5,93.6 180.1,94.5 180.7,96.6 181.3,96.8 181.9,98.3 182.5,98.9 183.1,98.6 183.7,99.1 184.2,98.9 184.8,99.9 185.4,98.9 186.0,99.5 186.6,99.4 187.2,100.6 187.8,101.4 188.4,101.5 189.0,101.4 189.6,101.8 190.2,100.6 190.8,100.8 191.4,100.8 192.0,102.6 192.6,103.0 193.2,103.8 193.7,103.3 194.3,104.8 194.9,105.9 195.5,105.3 196.1,106.1 196.7,106.8 197.3,107.5 197.9,107.7 198.5,108.0 199.1,107.7 199.7,107.7 200.3,109.2 200.9,110.9 201.5,111.2 202.1,110.5 202.7,110.9 203.3,110.8 203.8,112.6 204.4,114.0 205.0,115.2 205.6,115.3 206.2,116.0 206.8,116.4 207.4,116.9 208.0,118.5 208.6,118.4 209.2,119.1 209.8,118.7 210.4,118.6 211.0,118.4 211.6,118.0 212.2,118.2 212.8,118.2 213.3,118.4 213.9,119.8 214.5,121.4 215.1,121.8 215.7,123.7 216.3,124.0 216.9,125.0 217.5,125.9 218.1,127.9 218.7,127.3 219.3,128.8 219.9,129.2 220.5,129.8 221.1,131.2 221.7,132.4 222.3,132.8 222.9,134.5 223.4,135.0 224.0,134.8 224.6,134.1 225.2,132.6 225.8,132.5 226.4,132.0 227.0,131.0 227.6,129.2 228.2,127.1 228.8,127.4 229.4,127.4 230.0,126.8 230.6,126.3 231.2,125.5 231.8,123.9 232.4,122.5 233.0,121.0 233.5,120.7 234.1,120.2 234.7,118.8 235.3,118.0 235.9,117.5 236.5,116.6 237.1,114.9 237.7,112.8 238.3,111.6 238.9,110.8 239.5,108.7 240.1,107.9 240.7,107.1 241.3,105.7 241.9,105.6 242.5,104.2 243.1,102.2 243.6,101.9 244.2,101.1 244.8,98.7 245.4,96.7 246.0,96.2 246.6,96.6 247.2,97.3 247.8,95.7 248.4,94.4 249.0,93.7 249.6,92.5 250.2,92.3 250.8,92.4 251.4,92.6 252.0,91.3 252.6,90.3 253.1,90.3 253.7,88.3 254.3,87.5 254.9,87.7 255.5,87.5 256.1,87.2 256.7,87.7 257.3,89.0 257.9,89.0 258.5,88.7 259.1,89.9 259.7,90.2 260.3,90.7 260.9,92.1 261.5,93.5 262.1,94.0 262.7,94.8 263.2,94.5 263.8,94.4 264.4,93.9 265.0,95.2 265.6,95.0 266.2,96.9 266.8,97.4 267.4,98.7 268.0,100.8 268.6,102.6 269.2,104.6 269.8,105.7 270.4,106.5 271.0,108.5 271.6,109.2 272.2,111.7 272.8,112.1 273.3,113.6 273.9,113.1 274.5,114.2 275.1,116.0 275.7,117.3 276.3,116.8 276.9,115.7 277.5,115.7 278.1,115.2 278.7,115.8 279.3,116.3 279.9,117.9 280.5,118.1 281.1,119.9 281.7,120.8 282.3,124.4 282.8,125.6 283.4,126.0 284.0,126.5 284.6,129.5 285.2,130.8 285.8,132.4 286.4,134.4 287.0,136.1 287.6,136.7 288.2,137.5 288.8,138.1 289.4,139.2 290.0,140.9 290.6,141.8 291.2,142.5 291.8,141.9 292.4,141.6 292.9,142.4 293.5,143.1 294.1,142.1 294.7,141.4 295.3,140.8 295.9,140.3 296.5,140.0 297.1,140.1 297.7,139.7 298.3,140.0 298.9,139.8 299.5,138.5 300.1,137.7 300.7,138.2 301.3,137.9 301.9,136.8 302.4,135.6 303.0,135.6 303.6,135.2 304.2,135.1 304.8,134.2 305.4,133.2 306.0,132.2 306.6,131.0 307.2,130.0 307.8,129.2 308.4,126.7 309.0,126.4 309.6,126.4 310.2,125.1 310.8,123.1 311.4,122.2 312.0,120.6 312.5,119.5 313.1,117.5 313.7,116.4 314.3,115.1 314.9,115.0 315.5,113.0 316.1,110.5 316.7,108.3 317.3,106.7 317.9,104.2 318.5,103.1 319.1,100.8 319.7,98.4 320.3,96.0 320.9,93.3 321.5,91.1 322.1,89.1 322.6,87.8 323.2,85.5 323.8,84.4 324.4,82.8 325.0,81.6 325.6,80.2 326.2,78.5 326.8,77.4 327.4,76.2 328.0,75.6 328.6,75.1 329.2,75.0 329.8,73.6 330.4,71.2 331.0,70.1 331.6,69.0 332.1,69.1 332.7,67.8 333.3,67.9 333.9,67.3 334.5,68.1 335.1,66.9 335.7,67.3 336.3,66.1 336.9,64.8 337.5,64.0 338.1,63.8 338.7,63.2 339.3,62.1 339.9,60.9 340.5,61.0 341.1,61.0 341.7,61.1 342.2,60.0 342.8,58.8 343.4,57.5 344.0,57.2 344.6,56.1 345.2,56.0 345.8,54.4 346.4,55.6 347.0,54.6 347.6,54.1 348.2,53.9 348.8,54.5 349.4,54.2 350.0,56.7 350.6,56.5 351.2,58.0 351.8,60.5 352.3,61.6 352.9,60.6 353.5,61.5 354.1,62.3 354.7,64.2 355.3,64.8 355.9,67.4 356.5,68.6 357.1,68.9 357.7,69.1 358.3,70.8 358.9,72.2 359.5,74.1 360.1,76.7 360.7,77.7 361.3,80.0 361.9,82.2 362.4,83.3 363.0,86.1 363.6,88.8 364.2,91.6 364.8,94.3 365.4,98.3 366.0,101.1 366.6,103.5 367.2,105.8 367.8,109.0 368.4,112.1 369.0,114.4 369.6,115.9 370.2,117.7 370.8,120.1 371.4,123.0 371.9,123.8 372.5,126.5 373.1,129.6 373.7,132.8 374.3,133.8 374.9,135.1 375.5,137.3 376.1,138.0 376.7,142.7 377.3,143.9 377.9,145.7 378.5,148.5 379.1,152.0 379.7,154.2 380.3,156.8 380.9,158.0 381.5,158.5 382.0,158.9 382.6,160.6 383.2,161.7 383.8,162.6 384.4,162.4 385.0,161.6 385.6,160.6 386.2,159.2 386.8,158.9 387.4,158.8 388.0,159.5 388.6,158.8 389.2,156.7 389.8,155.1 390.4,153.7 391.0,152.4 391.6,149.7 392.1,148.3 392.7,146.7 393.3,146.2 393.9,144.1 394.5,142.4 395.1,140.0 395.7,138.7 396.3,137.2 396.9,135.5 397.5,134.3 398.1,132.5 398.7,129.9 399.3,127.6 399.9,126.8 400.5,124.6 401.1,123.7 401.6,121.6 402.2,119.5 402.8,116.9 403.4,116.2 404.0,114.6 404.6,113.2 405.2,112.0 405.8,110.5 406.4,110.1 407.0,109.2 407.6,106.5 408.2,105.6 408.8,104.3 409.4,103.4 410.0,101.7 410.6,100.2 411.2,98.0 411.7,95.1 412.3,92.6 412.9,91.3 413.5,90.6 414.1,89.0 414.7,89.5 415.3,87.6 415.9,87.9 416.5,86.3 417.1,86.3 417.7,85.5 418.3,85.9 418.9,84.5 419.5,83.8 420.1,84.2 420.7,85.0 421.2,84.7 421.8,84.7 422.4,84.5 423.0,84.6 423.6,83.7 424.2,82.7 424.8,81.9 425.4,81.0 426.0,80.1 426.6,79.5 427.2,78.8 427.8,78.8 428.4,77.8 429.0,77.2 429.6,75.7 430.2,73.8 430.8,72.4 431.3,70.8 431.9,70.7 432.5,71.6 433.1,72.0 433.7,71.6 434.3,70.3 434.9,70.8 435.5,71.4 436.1,72.0 436.7,70.6 437.3,71.4 437.9,73.1 438.5,74.3 439.1,75.4 439.7,77.0 440.3,79.3 440.9,80.6 441.4,83.1 442.0,83.5 442.6,85.6 443.2,87.3 443.8,88.7 444.4,89.7 445.0,89.6 445.6,90.6 446.2,91.5 446.8,93.1 447.4,94.6 448.0,96.3 448.6,99.6 449.2,101.2 449.8,104.4 450.4,105.4 450.9,107.6 451.5,109.7 452.1,111.8 452.7,115.3 453.3,119.2 453.9,122.5 454.5,126.2 455.1,128.4 455.7,129.4 456.3,131.3 456.9,135.9 457.5,139.3 458.1,143.6 458.7,146.3 459.3,151.6 459.9,155.9 460.5,157.4 461.0,159.8 461.6,161.8 462.2,162.7 462.8,162.0 463.4,163.4 464.0,163.7 464.6,163.7 465.2,163.9 465.8,163.0 466.4,160.4 467.0,157.6 467.6,155.3 468.2,153.0 468.8,151.2 469.4,150.5 470.0,149.0 470.6,147.6 471.1,146.7 471.7,145.3 472.3,144.4 472.9,142.7 473.5,141.3 474.1,139.1 474.7,137.4 475.3,136.2 475.9,134.6 476.5,132.8 477.1,132.1 477.7,130.7 478.3,128.6 478.9,126.8 479.5,123.9 480.1,121.5 480.6,119.5 481.2,117.7 481.8,117.1 482.4,115.4 483.0,113.3 483.6,112.2 484.2,111.5 484.8,110.7 485.4,108.8 486.0,107.7 486.6,107.9 487.2,106.2 487.8,103.6 488.4,102.2 489.0,101.4 489.6,99.3 490.2,98.2 490.7,97.0 491.3,95.7 491.9,94.0 492.5,92.4 493.1,91.6 493.7,89.3 494.3,86.6 494.9,85.3 495.5,85.1 496.1,84.5 496.7,83.1 497.3,82.5 497.9,80.7 498.5,80.0 499.1,79.3 499.7,79.7 500.3,79.8 500.8,78.5 501.4,78.0 502.0,78.1 502.6,77.8 503.2,77.8 503.8,77.5 504.4,77.0 505.0,77.1 505.6,78.1 506.2,78.4 506.8,78.1 507.4,77.3 508.0,78.9 508.6,78.4 509.2,78.3 509.8,80.1 510.4,80.7 510.9,81.8 511.5,82.8 512.1,82.6 512.7,83.6 513.3,85.1 513.9,86.7 514.5,87.9 515.1,88.4 515.7,90.7 516.3,91.0 516.9,91.4 517.5,91.9 518.1,92.9 518.7,96.3 519.3,98.7 519.9,101.3 520.4,103.0 521.0,106.1 521.6,109.0 522.2,110.7 522.8,112.3 523.4,114.3 524.0,114.8 524.6,118.2 525.2,120.9 525.8,123.5 526.4,125.1 527.0,127.8 527.6,129.0 528.2,130.9 528.8,133.7 529.4,135.6 530.0,136.8 530.5,137.9 531.1,139.2 531.7,142.7 532.3,145.9 532.9,147.5 533.5,148.5 534.1,149.8 534.7,150.8 535.3,152.2 535.9,153.6 536.5,154.1 537.1,155.1 537.7,154.4 538.3,154.1 538.9,153.9 539.5,152.1 540.0,150.8 540.6,150.1 541.2,148.6 541.8,146.4 542.4,144.1 543.0,142.7 543.6,140.2 544.2,138.1 544.8,137.1 545.4,136.2 546.0,133.9 546.6,132.3 547.2,130.6 547.8,128.3 548.4,127.7 549.0,126.6 549.6,123.5 550.1,122.7 550.7,119.5 551.3,117.8 551.9,117.2 552.5,115.5 553.1,113.2 553.7,110.8 554.3,108.5 554.9,106.5 555.5,105.6 556.1,103.5 556.7,101.7 557.3,100.2 557.9,98.5 558.5,97.6 559.1,96.1 559.7,93.9 560.2,91.9 560.8,90.3 561.4,88.2 562.0,86.3 562.6,83.8 563.2,81.1 563.8,79.3 564.4,77.5 565.0,77.1 565.6,75.9 566.2,74.1 566.8,71.9 567.4,71.2 568.0,70.0 568.6,69.2 569.2,67.6 569.8,66.5 570.3,64.6 570.9,63.8 571.5,62.8 572.1,61.7 572.7,60.9 573.3,59.4 573.9,58.6 574.5,58.1 575.1,56.5 575.7,56.3 576.3,55.8 576.9,55.9 577.5,55.7 578.1,54.9 578.7,55.2 579.3,54.9 579.8,54.5 580.4,54.5 581.0,55.3 581.6,55.8 582.2,56.7 582.8,56.9 583.4,56.9 584.0,56.0 584.6,56.5 585.2,55.6 585.8,55.1 586.4,53.8 587.0,53.4 587.6,53.1 588.2,52.3 588.8,51.8 589.4,52.2 589.9,51.9 590.5,52.9 591.1,53.7 591.7,54.8 592.3,54.6 592.9,53.1 593.5,52.1 594.1,52.4 594.7,53.4 595.3,52.7 595.9,52.8 596.5,54.0 597.1,55.5 597.7,56.7 598.3,58.9 598.9,59.7 599.5,60.3 600.0,63.0 600.6,66.1 601.2,66.8 601.8,68.4 602.4,70.8 603.0,73.4 603.6,74.1 604.2,75.9 604.8,77.3 605.4,77.6 606.0,79.6 606.6,81.1 607.2,84.3 607.8,85.8 608.4,86.4 609.0,86.5 609.5,86.3 610.1,87.7 610.7,90.4 611.3,92.5 611.9,93.1 612.5,92.9 613.1,95.7 613.7,96.3 614.3,98.3 614.9,99.5 615.5,100.2 616.1,103.0 616.7,105.3 617.3,109.2 617.9,112.3 618.5,114.5 619.1,114.6 619.6,115.1 620.2,115.4 620.8,116.8 621.4,116.1 622.0,115.4 622.6,116.0 623.2,116.8 623.8,118.5 624.4,119.0 625.0,119.5 625.6,121.1 626.2,121.9 626.8,124.4 627.4,125.6 628.0,127.3 628.6,126.3 629.1,126.7 629.7,126.8 630.3,127.8 630.9,127.8 631.5,126.2 632.1,126.7 632.7,127.1 633.3,127.0 633.9,127.4 634.5,127.7 635.1,126.9 635.7,126.1 636.3,125.2 636.9,125.2 637.5,125.1 638.1,123.5 638.7,122.9 639.2,121.8 639.8,121.1 640.4,120.4 641.0,119.7 641.6,119.2 642.2,118.4 642.8,117.7 643.4,116.6 644.0,117.7"></path>
    <path class="data-series" stroke="#0060e5" d="M50.6,247.0 51.2,246.3 51.8,245.0 52.4,244.4 53.0,243.2 53.6,245.6 54.2,245.1 54.8,243.5 55.3,244.2 55.9,244.2 56.5,245.8 57.1,246.4 57.7,246.1 58.3,247.3 58.9,247.6 59.5,247.9 60.1,247.6 60.7,248.8 61.3,249.4 61.9,249.9 62.5,249.7 63.1,250.7 63.7,251.3 64.3,250.9 64.8,250.7 65.4,250.3 66.0,250.1 66.6,250.7 67.2,251.0 67.8,251.4 68.4,251.2 69.0,251.1 69.6,250.7 70.2,250.3 70.8,250.1 71.4,250.1 72.0,250.4 72.6,250.8 73.2,250.5 73.8,251.3 74.4,251.3 74.9,252.0 75.5,251.8 76.1,252.2 76.7,252.8 77.3,252.6 77.9,253.0 78.5,252.4 79.1,252.4 79.7,252.7 80.3,252.3 80.9,252.0 81.5,251.3 82.1,251.8 82.7,251.6 83.3,251.4 83.9,250.8 84.5,251.4 85.0,251.2 85.6,251.3 86.2,250.6 86.8,251.0 87.4,250.1 88.0,250.0 88.6,249.5 89.2,249.7 89.8,248.9 90.4,249.2 91.0,249.4 91.6,248.9 92.2,249.4 92.8,248.5 93.4,247.8 94.0,247.7 94.5,248.1 95.1,247.0 95.7,246.8 96.3,247.4 96.9,245.7 97.5,244.9 98.1,244.2 98.7,244.1 99.3,244.0 99.9,243.1 100.5,242.6 101.1,243.3 101.7,242.1 102.3,240.0 102.9,239.3 103.5,239.4 104.1,240.1 104.6,239.1 105.2,240.7 105.8,240.9 106.4,241.1 107.0,241.8 107.6,241.0 108.2,240.8 108.8,240.6 109.4,239.6 110.0,238.5 110.6,238.1 111.2,239.2 111.8,238.6 112.4,238.9 113.0,238.7 113.6,239.1 114.2,239.6 114.7,239.6 115.3,239.7 115.9,240.3 116.5,239.9 117.1,240.2 117.7,241.1 118.3,241.3 118.9,241.2 119.5,241.0 120.1,241.1 120.7,241.2 121.3,240.5 121.9,240.6 122.5,240.6 123.1,240.3 123.7,240.7 124.2,240.8 124.8,241.7 125.4,240.7 126.0,241.1 126.6,241.8 127.2,241.3 127.8,241.5 128.4,242.3 129.0,242.9 129.6,243.1 130.2,242.2 130.8,242.9 131.4,244.8 132.0,244.1 132.6,244.5 133.2,243.6 133.8,245.1 134.3,245.5 134.9,244.5 135.5,244.1 136.1,244.9 136.7,245.2 137.3,245.2 137.9,245.1 138.5,245.0 139.1,245.2 139.7,245.3 140.3,245.0 140.9,245.6 141.5,245.2 142.1,245.0 142.7,244.2 143.3,244.7 143.9,245.1 144.4,245.8 145.0,246.5 145.6,247.0 146.2,247.0 146.8,247.3 147.4,247.1 148.0,247.5 148.6,247.5 149.2,248.3 149.8,249.4 150.4,250.4 151.0,249.5 151.6,249.2 152.2,249.2 152.8,249.3 153.4,249.6 153.9,249.8 154.5,250.2 155.1,250.9 155.7,251.9 156.3,252.5 156.9,252.7 157.5,253.3 158.1,253.6 158.7,253.4 159.3,253.2 159.9,253.1 160.5,253.2 161.1,252.8 161.7,252.5 162.3,252.2 162.9,252.3 163.5,251.8 164.0,251.5 164.6,251.1 165.2,250.6 165.8,249.6 166.4,248.7 167.0,247.9 167.6,248.2 168.2,247.4 168.8,247.0 169.4,247.3 170.0,247.5 170.6,246.7 171.2,246.0 171.8,246.3 172.4,245.4 173.0,244.8 173.6,244.4 174.1,243.5 174.7,243.7 175.3,243.6 175.9,243.7 176.5,243.4 177.1,242.4 177.7,242.4 178.3,240.8 178.9,240.1 179.5,239.9 180.1,240.6 180.7,239.8 181.3,240.9 181.9,240.7 182.5,240.8 183.1,241.3 183.7,241.2 184.2,241.7 184.8,242.6 185.4,243.8 186.0,244.0 186.6,244.3 187.2,243.6 187.8,244.1 188.4,244.1 189.0,244.2 189.6,243.8 190.2,243.9 190.8,244.3 191.4,243.7 192.0,243.4 192.6,243.3 193.2,243.6 193.7,244.0 194.3,244.3 194.9,243.9 195.5,243.5 196.1,243.6 196.7,243.9 197.3,243.7 197.9,243.8 198.5,243.9 199.1,244.4 199.7,244.4 200.3,243.0 200.9,242.9 201.5,242.3 202.1,242.2 202.7,242.6 203.3,243.2 203.8,243.0 204.4,242.1 205.0,241.9 205.6,242.2 206.2,241.6 206.8,242.5 207.4,242.5 208.0,243.0 208.6,243.5 209.2,243.9 209.8,243.6 210.4,244.5 211.0,244.1 211.6,243.7 212.2,244.1 212.8,245.0 213.3,243.6 213.9,243.4 214.5,243.4 215.1,243.3 215.7,241.7 216.3,241.4 216.9,242.8 217.5,241.8 218.1,240.9 218.7,241.8 219.3,241.8 219.9,242.1 220.5,242.5 221.1,243.1 221.7,242.3 222.3,242.6 222.9,243.4 223.4,244.4 224.0,244.6 224.6,245.3 225.2,246.4 225.8,247.0 226.4,247.0 227.0,247.2 227.6,247.9 228.2,249.0 228.8,249.1 229.4,248.2 230.0,248.4 230.6,248.9 231.2,249.6 231.8,249.8 232.4,249.9 233.0,251.3 233.5,251.3 234.1,250.7 234.7,250.3 235.3,250.5 235.9,250.5 236.5,250.3 237.1,250.3 237.7,250.6 238.3,251.2 238.9,251.2 239.5,251.8 240.1,251.7 240.7,252.2 241.3,251.8 241.9,252.1 242.5,252.2 243.1,252.3 243.6,252.2 244.2,251.5 244.8,251.7 245.4,252.4 246.0,252.3 246.6,251.6 247.2,250.4 247.8,250.4 248.4,249.3 249.0,249.0 249.6,248.7 250.2,248.1 250.8,247.8 251.4,247.2 252.0,246.5 252.6,246.8 253.1,246.8 253.7,247.5 254.3,248.1 254.9,247.6 255.5,248.2 256.1,248.2 256.7,247.2 257.3,246.1 257.9,245.1 258.5,244.5 259.1,243.8 259.7,243.9 260.3,243.3 260.9,243.3 261.5,242.4 262.1,242.7 262.7,243.1 263.2,242.8 263.8,242.0 264.4,242.6 265.0,241.8 265.6,242.2 266.2,241.7 266.8,240.9 267.4,240.3 268.0,239.9 268.6,239.5 269.2,239.3 269.8,239.5 270.4,238.3 271.0,238.6 271.6,238.8 272.2,239.0 272.8,239.6 273.3,241.1 273.9,241.7 274.5,241.1 275.1,241.2 275.7,241.7 276.3,242.4 276.9,243.4 277.5,243.6 278.1,244.5 278.7,244.4 279.3,243.1 279.9,243.0 280.5,241.7 281.1,241.3 281.7,240.7 282.3,239.4 282.8,238.9 283.4,238.5 284.0,239.2 284.6,237.9 285.2,237.9 285.8,238.6 286.4,237.5 287.0,236.2 287.6,236.7 288.2,238.0 288.8,238.4 289.4,238.9 290.0,239.1 290.6,240.4 291.2,240.6 291.8,241.3 292.4,243.0 292.9,243.7 293.5,244.8 294.1,246.9 294.7,247.3 295.3,248.4 295.9,248.9 296.5,249.1 297.1,249.5 297.7,249.3 298.3,249.6 298.9,249.1 299.5,249.1 300.1,248.8 300.7,248.7 301.3,248.6 301.9,248.1 302.4,248.4 303.0,248.9 303.6,249.3 304.2,249.4 304.8,249.8 305.4,249.6 306.0,249.4 306.6,249.4 307.2,249.8 307.8,249.4 308.4,249.9 309.0,250.3 309.6,250.2 310.2,251.1 310.8,251.9 311.4,252.1 312.0,252.5 312.5,252.7 313.1,252.6 313.7,253.2 314.3,253.8 314.9,253.7 315.5,254.1 316.1,254.2 316.7,254.3 317.3,254.2 317.9,254.2 318.5,254.6 319.1,255.0 319.7,255.2 320.3,255.2 320.9,255.2 321.5,255.8 322.1,255.8 322.6,255.6 323.2,255.4 323.8,255.4 324.4,255.2 325.0,255.2 325.6,254.7 326.2,254.1 326.8,253.4 327.4,253.2 328.0,252.8 328.6,251.9 329.2,252.0 329.8,251.9 330.4,252.1 331.0,251.6 331.6,251.8 332.1,251.5 332.7,251.4 333.3,250.7 333.9,250.4 334.5,249.6 335.1,249.4 335.7,248.3 336.3,247.7 336.9,247.6 337.5,246.8 338.1,247.4 338.7,248.3 339.3,249.3 339.9,249.5 340.5,250.3 341.1,249.8 341.7,249.2 342.2,248.9 342.8,248.7 343.4,248.7 344.0,248.7 344.6,249.2 345.2,248.7 345.8,249.1 346.4,248.4 347.0,248.5 347.6,247.9 348.2,247.9 348.8,246.9 349.4,246.9 350.0,245.5 350.6,244.9 351.2,244.2 351.8,243.1 352.3,242.9 352.9,241.9 353.5,242.1 354.1,242.0 354.7,240.9 355.3,240.0 355.9,239.8 356.5,239.6 357.1,238.7 357.7,239.2 358.3,238.6 358.9,238.2 359.5,238.8 360.1,239.3 360.7,239.3 361.3,238.2 361.9,238.0 362.4,237.7 363.0,236.8 363.6,235.6 364.2,235.4 364.8,234.3 365.4,232.3 366.0,232.6 366.6,232.9 367.2,232.5 367.8,231.9 368.4,232.7 369.0,232.6 369.6,231.1 370.2,230.9 370.8,230.8 371.4,231.5 371.9,233.0 372.5,232.4 373.1,232.0 373.7,232.4 374.3,233.5 374.9,233.8 375.5,234.6 376.1,235.7 376.7,234.8 377.3,235.4 377.9,234.0 378.5,233.4 379.1,233.1 379.7,233.2 380.3,233.0 380.9,233.4 381.5,234.8 382.0,237.2 382.6,238.0 383.2,239.0 383.8,240.8 384.4,241.4 385.0,242.3 385.6,244.3 386.2,245.6 386.8,247.2 387.4,247.6 388.0,247.2 388.6,247.6 389.2,248.5 389.8,248.8 390.4,249.0 391.0,250.0 391.6,251.4 392.1,251.4 392.7,252.1 393.3,253.1 393.9,253.6 394.5,253.3 395.1,253.9 395.7,254.0 396.3,253.9 396.9,253.8 397.5,253.6 398.1,253.6 398.7,254.2 399.3,254.6 399.9,254.2 400.5,253.9 401.1,253.5 401.6,253.3 402.2,253.5 402.8,253.4 403.4,253.8 404.0,253.7 404.6,254.5 405.2,254.4 405.8,254.3 406.4,253.7 407.0,253.0 407.6,253.3 408.2,252.4 408.8,252.6 409.4,253.0 410.0,252.8 410.6,253.2 411.2,253.5 411.7,253.3 412.3,253.7 412.9,253.6 413.5,253.3 414.1,252.9 414.7,251.9 415.3,251.5 415.9,250.7 416.5,250.4 417.1,249.6 417.7,249.8 418.3,249.0 418.9,248.6 419.5,247.9 420.1,248.0 420.7,247.8 421.2,247.8 421.8,247.1 422.4,246.5 423.0,247.2 423.6,247.4 424.2,247.3 424.8,248.0 425.4,248.0 426.0,248.0 426.6,248.7 427.2,248.6 427.8,247.9 428.4,248.7 429.0,248.4 429.6,249.0 430.2,248.7 430.8,248.7 431.3,249.8 431.9,249.6 432.5,248.2 433.1,247.4 433.7,247.0 434.3,246.8 434.9,246.0 435.5,245.5 436.1,245.9 436.7,246.4 437.3,245.9 437.9,244.9 438.5,244.4 439.1,244.7 439.7,242.9 440.3,241.4 440.9,241.2 441.4,239.9 442.0,239.0 442.6,237.8 443.2,237.4 443.8,237.6 444.4,238.2 445.0,238.8 445.6,239.0 446.2,239.9 446.8,239.5 447.4,239.2 448.0,238.6 448.6,236.7 449.2,236.3 449.8,234.9 450.4,235.6 450.9,235.0 451.5,234.6 452.1,234.4 452.7,233.9 453.3,231.0 453.9,230.6 454.5,230.5 455.1,231.2 455.7,230.6 456.3,232.0 456.9,230.9 457.5,229.6 458.1,229.0 458.7,228.6 459.3,227.2 459.9,227.5 460.5,228.9 461.0,229.6 461.6,229.9 462.2,231.6 462.8,234.3 463.4,236.5 464.0,238.2 464.6,240.1 465.2,243.3 465.8,245.1 466.4,246.0 467.0,247.1 467.6,247.8 468.2,249.5 468.8,250.2 469.4,251.2 470.0,251.9 470.6,252.8 471.1,252.9 471.7,252.5 472.3,252.3 472.9,252.5 473.5,252.7 474.1,252.9 474.7,252.7 475.3,253.0 475.9,253.3 476.5,253.4 477.1,253.0 477.7,252.9 478.3,252.9 478.9,253.1 479.5,253.4 480.1,253.6 480.6,253.8 481.2,254.1 481.8,254.1 482.4,253.6 483.0,253.9 483.6,253.5 484.2,253.3 484.8,253.1 485.4,252.9 486.0,253.2 486.6,252.6 487.2,253.1 487.8,253.6 488.4,253.7 489.0,253.2 489.6,254.1 490.2,254.2 490.7,253.7 491.3,253.9 491.9,253.6 492.5,253.4 493.1,252.8 493.7,252.8 494.3,252.9 494.9,252.7 495.5,252.5 496.1,252.3 496.7,252.0 497.3,251.9 497.9,251.8 498.5,251.7 499.1,251.6 499.7,251.2 500.3,250.8 500.8,250.3 501.4,249.9 502.0,249.2 502.6,248.6 503.2,248.3 503.8,248.2 504.4,247.6 505.0,248.0 505.6,248.0 506.2,248.0 506.8,248.0 507.4,248.0 508.0,247.0 508.6,245.6 509.2,245.1 509.8,243.8 510.4,243.0 510.9,242.6 511.5,241.7 512.1,242.5 512.7,241.9 513.3,241.8 513.9,241.5 514.5,241.0 515.1,240.9 515.7,241.0 516.3,241.5 516.9,241.9 517.5,242.6 518.1,242.4 518.7,239.9 519.3,238.4 519.9,238.0 520.4,237.7 521.0,235.8 521.6,236.2 522.2,237.5 522.8,236.7 523.4,235.7 524.0,235.8 524.6,234.4 525.2,234.8 525.8,234.5 526.4,234.9 527.0,234.7 527.6,234.5 528.2,234.5 528.8,234.4 529.4,234.3 530.0,234.5 530.5,235.6 531.1,237.6 531.7,236.4 532.3,234.7 532.9,235.6 533.5,236.3 534.1,236.9 534.7,237.2 535.3,238.4 535.9,239.3 536.5,239.4 537.1,239.2 537.7,240.8 538.3,242.9 538.9,244.1 539.5,245.1 540.0,245.8 540.6,247.1 541.2,249.0 541.8,249.9 542.4,251.3 543.0,252.1 543.6,253.1 544.2,253.8 544.8,253.8 545.4,254.0 546.0,254.0 546.6,253.2 547.2,252.7 547.8,252.6 548.4,253.0 549.0,253.5 549.6,254.6 550.1,254.3 550.7,254.5 551.3,254.7 551.9,254.7 552.5,254.8 553.1,254.7 553.7,254.9 554.3,255.0 554.9,255.5 555.5,255.1 556.1,255.2 556.7,254.5 557.3,254.1 557.9,253.7 558.5,253.5 559.1,253.6 559.7,253.8 560.2,253.8 560.8,253.9 561.4,254.4 562.0,254.3 562.6,254.3 563.2,254.6 563.8,254.8 564.4,254.6 565.0,254.8 565.6,254.7 566.2,254.3 566.8,254.2 567.4,253.3 568.0,252.5 568.6,251.9 569.2,252.0 569.8,251.3 570.3,251.3 570.9,251.2 571.5,251.0 572.1,250.9 572.7,250.6 573.3,250.8 573.9,250.8 574.5,251.0 575.1,250.1 575.7,249.6 576.3,249.2 576.9,248.4 577.5,247.9 578.1,248.3 578.7,248.2 579.3,248.4 579.8,248.0 580.4,247.5 581.0,247.4 581.6,247.0 582.2,247.1 582.8,246.9 583.4,245.8 584.0,246.3 584.6,246.2 585.2,246.2 585.8,246.1 586.4,246.7 587.0,247.8 587.6,247.5 588.2,248.0 588.8,248.1 589.4,247.3 589.9,247.3 590.5,248.0 591.1,247.0 591.7,245.9 592.3,245.8 592.9,247.2 593.5,247.0 594.1,246.0 594.7,245.3 595.3,246.2 595.9,246.6 596.5,245.7 597.1,244.5 597.7,244.7 598.3,243.1 598.9,241.9 599.5,242.0 600.0,241.4 600.6,239.9 601.2,239.1 601.8,238.8 602.4,237.6 603.0,236.6 603.6,237.0 604.2,235.9 604.8,235.4 605.4,235.3 606.0,236.3 606.6,237.2 607.2,236.4 607.8,237.1 608.4,238.6 609.0,239.4 609.5,238.7 610.1,239.4 610.7,239.6 611.3,239.5 611.9,240.2 612.5,241.1 613.1,239.4 613.7,238.8 614.3,238.8 614.9,239.1 615.5,238.6 616.1,238.1 616.7,238.1 617.3,235.7 617.9,233.6 618.5,233.1 619.1,234.3 619.6,234.7 620.2,236.2 620.8,238.4 621.4,239.4 622.0,240.9 622.6,241.5 623.2,241.7 623.8,241.8 624.4,242.2 625.0,241.8 625.6,241.0 626.2,240.3 626.8,239.4 627.4,239.8 628.0,240.2 628.6,241.3 629.1,240.9 629.7,242.5 630.3,242.0 630.9,242.4 631.5,243.3 632.1,243.9 632.7,245.6 633.3,245.8 633.9,245.4 634.5,245.6 635.1,246.1 635.7,247.2 636.3,247.0 636.9,247.4 637.5,246.4 638.1,247.2 638.7,247.5 639.2,247.4 639.8,247.6 640.4,248.7 641.0,249.6 641.6,249.8 642.2,249.7 642.8,249.8 643.4,249.7 644.0,249.3"></path>
    <text text-anchor="end" fill="green" x="640" y="105">Food</text>
    <text text-anchor="end" fill="#0060e5" x="640" y="208">Creatures</text>
</svg>