<svg width="660" height="300" xmlns="http://www.w3.org/2000/svg">

<style>
  .background {
    fill: none;
  }
  .axis {
    stroke: #111;
    stroke-width: 1;
  }
  .axis-label {
    font-size: 14px;
    font-family: Arial;
    text-anchor: middle;
  }
  .axis-units {
    font-size: 10px;
    font-family: Arial;
  }
  .y-axis-text {
    text-anchor: end;
  }
  .x-axis-text {
    text-anchor: middle;
  }
  .gridlines {
    stroke: black;
    stroke-width: 0.3;
    fill: none;
    opacity: 0.5;
  }
  .data-series {
    stroke-width: 1.8;
    fill: none;
    opacity: 1;
  }
  </style>

    <text class="axis-label" x="347.0" y="290">Time (ticks)</text>
    <text class="axis-label" x="0" y="134.0" transform="translate(15.0) rotate(-90, 0, 134.0)">Population size</text>
    <line class="axis" x1="50" y1="258" x2="645" y2="258"></line>
    <line class="axis" x1="50" y1="258" x2="50" y2="10"></line>
    <g class="axis-units">
        <g class="x-axis-text">
            <text x="50.0" y="270">0</text>
            <text x="109.4" y="270">10K</text>
            <text x="168.8" y="270">20K</text>
            <text x="228.2" y="270">30K</text>
            <text x="287.6" y="270">40K</text>
            <text x="347.0" y="270">50K</text>
            <text x="406.4" y="270">60K</text>
            <text x="465.8" y="270">70K</text>
            <text x="525.2" y="270">80K</text>
            <text x="584.6" y="270">90K</text>
            <text x="644.0" y="270">100K</text>
        </g>
        <g class="y-axis-text">
            <text x="47" y="261.0">0</text>
            <text x="47" y="178.33333333333331">500</text>
            <text x="47" y="95.66666666666666">1000</text>
            <text x="47" y="13.0">1500</text>
        </g>
    </g>
    <g class="gridlines">
        <line x1="109.5" y1="258" x2="109.5" y2="10"></line>
        <line x1="168.5" y1="258" x2="168.5" y2="10"></line>
        <line x1="228.5" y1="258" x2="228.5" y2="10"></line>
        <line x1="287.5" y1="258" x2="287.5" y2="10"></line>
        <line x1="347.5" y1="258" x2="347.5" y2="10"></line>
        <line x1="406.5" y1="258" x2="406.5" y2="10"></line>
        <line x1="465.5" y1="258" x2="465.5" y2="10"></line>
        <line x1="525.5" y1="258" x2="525.5" y2="10"></line>
        <line x1="584.5" y1="258" x2="584.5" y2="10"></line>
        <line x1="644.5" y1="258" x2="644.5" y2="10"></line>
        <line x1="50" y1="175.5" x2="644" y2="175.5"></line>
        <line x1="50" y1="92.5" x2="644" y2="92.5"></line>
        <line x1="50" y1="10.5" x2="644" y2="10.5"></line>
    </g>
    <path class="data-series" stroke="green" d="M50.0,59.6 50.6,57.9 51.2,53.6 51.8,47.2 52.4,45.7 53.0,44.2 53.6,38.8 54.2,35.6 54.8,32.7 55.3,33.3 55.9,30.2 56.5,28.7 57.1,28.5 57.7,28.4 58.3,27.4 58.9,22.6 59.5,21.9 60.1,23.2 60.7,22.6 61.3,24.4 61.9,28.4 62.5,25.9 63.1,27.4 63.7,29.5 64.3,33.8 64.8,36.8 65.4,42.9 66.0,43.7 66.6,48.5 67.2,52.8 67.8,56.0 68.4,58.8 69.0,59.9 69.6,62.6 70.2,63.1 70.8,62.2 71.4,66.0 72.0,69.9 72.6,76.3 73.2,80.6 73.8,84.9 74.4,89.4 74.9,90.4 75.5,89.5 76.1,89.9 76.7,86.7 77.3,90.5 77.9,87.0 78.5,84.7 79.1,85.6 79.7,85.9 80.3,85.7 80.9,84.6 81.5,83.4 82.1,81.8 82.7,77.5 83.3,77.3 83.9,74.1 84.5,71.5 85.0,69.4 85.6,68.0 86.2,68.2 86.8,63.7 87.4,60.9 88.0,61.1 88.6,60.1 89.2,56.5 89.8,56.0 90.4,52.8 91.0,52.2 91.6,49.2 92.2,46.9 92.8,45.9 93.4,41.4 94.0,34.5 94.5,32.5 95.1,29.0 95.7,27.9 96.3,24.4 96.9,24.1 97.5,22.4 98.1,18.9 98.7,17.4 99.3,19.4 99.9,19.9 100.5,20.9 101.1,18.9 101.7,21.7 102.3,22.7 102.9,24.9 103.5,27.0 104.1,29.2 104.6,32.5 105.2,33.0 105.8,33.5 106.4,39.6 107.0,41.1 107.6,46.7 108.2,46.7 108.8,48.0 109.4,46.7 110.0,47.9 110.6,52.8 111.2,54.8 111.8,60.3 112.4,61.3 113.0,65.7 113.6,70.0 114.2,69.0 114.7,70.5 115.3,71.8 115.9,71.5 116.5,68.5 117.1,69.9 117.7,68.2 118.3,66.9 118.9,69.9 119.5,63.7 120.1,59.1 120.7,58.9 121.3,57.0 121.9,59.8 122.5,60.1 123.1,55.8 123.7,57.0 124.2,57.3 124.8,53.2 125.4,51.0 126.0,52.7 126.6,52.8 127.2,52.0 127.8,51.2 128.4,49.2 129.0,49.8 129.6,53.3 130.2,54.0 130.8,53.5 131.4,55.0 132.0,51.3 132.6,48.7 133.2,43.2 133.8,41.4 134.3,41.4 134.9,42.9 135.5,40.8 136.1,37.1 136.7,35.5 137.3,32.0 137.9,32.2 138.5,37.8 139.1,39.3 139.7,36.1 140.3,33.1 140.9,25.7 141.5,28.4 142.1,29.5 142.7,32.8 143.3,35.8 143.9,39.4 144.4,39.6 145.0,38.6 145.6,42.9 146.2,42.9 146.8,49.5 147.4,53.0 148.0,53.8 148.6,53.2 149.2,55.8 149.8,58.3 150.4,57.5 151.0,57.9 151.6,60.3 152.2,68.5 152.8,70.0 153.4,73.3 153.9,77.8 154.5,82.6 155.1,82.7 155.7,82.4 156.3,78.3 156.9,80.8 157.5,78.4 158.1,78.4 158.7,82.4 159.3,81.9 159.9,78.6 160.5,74.8 161.1,74.6 161.7,73.0 162.3,69.9 162.9,69.5 163.5,68.9 164.0,65.2 164.6,60.1 165.2,59.3 165.8,57.1 166.4,56.0 167.0,52.7 167.6,49.8 168.2,46.9 168.8,43.9 169.4,44.7 170.0,44.6 170.6,42.7 171.2,44.7 171.8,43.7 172.4,48.0 173.0,49.8 173.6,51.7 174.1,54.0 174.7,52.5 175.3,52.8 175.9,51.7 176.5,52.8 177.1,51.5 177.7,53.5 178.3,55.3 178.9,56.3 179.5,60.6 180.1,57.9 180.7,60.1 181.3,60.1 181.9,60.4 182.5,60.1 183.1,58.9 183.7,61.1 184.2,62.2 184.8,59.1 185.4,58.6 186.0,57.6 186.6,57.1 187.2,55.0 187.8,53.0 188.4,50.0 189.0,49.2 189.6,47.2 190.2,49.3 190.8,51.2 191.4,51.2 192.0,48.9 192.6,49.8 193.2,51.0 193.7,52.8 194.3,55.0 194.9,57.1 195.5,57.8 196.1,61.6 196.7,61.3 197.3,64.2 197.9,66.2 198.5,68.9 199.1,69.5 199.7,68.2 200.3,66.7 200.9,66.5 201.5,69.2 202.1,67.7 202.7,68.4 203.3,67.0 203.8,67.2 204.4,64.2 205.0,59.9 205.6,58.4 206.2,56.3 206.8,53.6 207.4,53.8 208.0,48.5 208.6,50.8 209.2,46.9 209.8,50.7 210.4,50.7 211.0,52.8 211.6,52.8 212.2,48.0 212.8,51.5 213.3,55.0 213.9,55.6 214.5,51.7 215.1,49.2 215.7,46.7 216.3,41.4 216.9,45.5 217.5,45.9 218.1,42.2 218.7,40.9 219.3,40.9 219.9,40.6 220.5,44.7 221.1,46.0 221.7,48.2 222.3,51.3 222.9,51.3 223.4,53.5 224.0,49.7 224.6,48.0 225.2,51.2 225.8,53.5 226.4,51.7 227.0,51.2 227.6,50.5 228.2,49.7 228.8,49.5 229.4,52.8 230.0,50.0 230.6,52.8 231.2,52.3 231.8,53.2 232.4,52.8 233.0,55.5 233.5,54.5 234.1,52.2 234.7,54.1 235.3,54.6 235.9,53.0 236.5,53.2 237.1,48.4 237.7,48.4 238.3,50.0 238.9,47.5 239.5,50.0 240.1,49.2 240.7,47.0 241.3,47.4 241.9,44.9 242.5,43.6 243.1,39.9 243.6,39.6 244.2,40.8 244.8,43.4 245.4,43.2 246.0,43.9 246.6,43.1 247.2,44.6 247.8,43.2 248.4,43.9 249.0,45.5 249.6,45.1 250.2,47.4 250.8,51.2 251.4,48.4 252.0,46.7 252.6,43.2 253.1,46.4 253.7,49.0 254.3,50.2 254.9,49.8 255.5,51.7 256.1,52.5 256.7,56.1 257.3,56.5 257.9,59.4 258.5,60.1 259.1,59.4 259.7,59.6 260.3,58.9 260.9,62.1 261.5,63.4 262.1,63.1 262.7,65.7 263.2,66.4 263.8,65.2 264.4,64.9 265.0,65.6 265.6,66.5 266.2,63.4 266.8,65.6 267.4,64.6 268.0,58.4 268.6,56.1 269.2,59.1 269.8,61.7 270.4,61.4 271.0,59.3 271.6,61.3 272.2,56.6 272.8,57.5 273.3,58.9 273.9,58.4 274.5,56.8 275.1,56.3 275.7,54.5 276.3,54.5 276.9,51.3 277.5,48.2 278.1,47.9 278.7,48.5 279.3,50.2 279.9,49.5 280.5,51.7 281.1,53.0 281.7,53.0 282.3,53.5 282.8,48.0 283.4,50.3 284.0,50.3 284.6,51.3 285.2,51.3 285.8,52.2 286.4,54.3 287.0,59.3 287.6,61.6 288.2,65.6 288.8,65.9 289.4,65.7 290.0,66.7 290.6,61.9 291.2,62.7 291.8,60.8 292.4,59.4 292.9,57.9 293.5,60.9 294.1,57.8 294.7,53.0 295.3,52.8 295.9,51.8 296.5,49.7 297.1,50.7 297.7,49.0 298.3,46.7 298.9,47.4 299.5,44.1 300.1,39.1 300.7,39.6 301.3,36.8 301.9,37.4 302.4,35.6 303.0,37.4 303.6,39.3 304.2,34.6 304.8,34.3 305.4,40.3 306.0,37.3 306.6,36.5 307.2,35.8 307.8,35.1 308.4,34.5 309.0,37.1 309.6,37.8 310.2,41.4 310.8,43.9 311.4,46.2 312.0,53.0 312.5,55.8 313.1,56.1 313.7,56.0 314.3,56.5 314.9,58.6 315.5,61.4 316.1,61.7 316.7,65.1 317.3,64.4 317.9,64.7 318.5,67.7 319.1,68.0 319.7,70.0 320.3,72.5 320.9,74.3 321.5,72.3 322.1,77.6 322.6,77.0 323.2,74.8 323.8,70.7 324.4,67.2 325.0,64.4 325.6,61.3 326.2,59.9 326.8,55.1 327.4,55.3 328.0,53.5 328.6,53.8 329.2,56.5 329.8,51.2 330.4,49.3 331.0,52.3 331.6,51.0 332.1,50.0 332.7,51.0 333.3,49.5 333.9,48.5 334.5,52.8 335.1,52.3 335.7,50.2 336.3,49.2 336.9,45.9 337.5,48.4 338.1,50.2 338.7,50.0 339.3,50.0 339.9,50.3 340.5,51.7 341.1,51.7 341.7,53.8 342.2,57.5 342.8,61.3 343.4,59.9 344.0,62.4 344.6,68.4 345.2,64.2 345.8,67.0 346.4,67.5 347.0,68.2 347.6,70.2 348.2,70.2 348.8,70.8 349.4,66.0 350.0,65.9 350.6,65.7 351.2,64.7 351.8,62.4 352.3,64.9 352.9,67.5 353.5,64.7 354.1,63.1 354.7,62.1 355.3,58.4 355.9,57.3 356.5,52.8 357.1,53.3 357.7,51.3 358.3,51.5 358.9,48.0 359.5,47.7 360.1,47.9 360.7,45.2 361.3,44.9 361.9,43.6 362.4,40.8 363.0,39.3 363.6,38.9 364.2,39.9 364.8,40.8 365.4,38.9 366.0,39.4 366.6,38.3 367.2,42.7 367.8,43.9 368.4,47.5 369.0,49.3 369.6,50.3 370.2,50.2 370.8,49.7 371.4,50.8 371.9,52.8 372.5,54.1 373.1,59.6 373.7,60.6 374.3,62.9 374.9,61.4 375.5,57.1 376.1,55.0 376.7,54.6 377.3,55.1 377.9,56.5 378.5,52.7 379.1,51.7 379.7,53.8 380.3,51.8 380.9,52.0 381.5,55.6 382.0,55.1 382.6,57.1 383.2,60.6 383.8,63.6 384.4,65.4 385.0,70.7 385.6,71.5 386.2,70.3 386.8,71.5 387.4,71.3 388.0,72.2 388.6,74.8 389.2,73.0 389.8,73.7 390.4,72.5 391.0,71.3 391.6,71.3 392.1,72.0 392.7,67.5 393.3,62.6 393.9,62.2 394.5,60.8 395.1,62.7 395.7,57.9 396.3,57.8 396.9,59.6 397.5,55.5 398.1,51.5 398.7,51.7 399.3,52.7 399.9,52.3 400.5,48.2 401.1,47.4 401.6,45.5 402.2,46.4 402.8,47.9 403.4,48.5 404.0,49.2 404.6,52.2 405.2,48.2 405.8,48.2 406.4,47.9 407.0,47.4 407.6,49.2 408.2,50.8 408.8,53.2 409.4,51.0 410.0,51.2 410.6,52.2 411.2,50.3 411.7,49.0 412.3,52.5 412.9,51.3 413.5,54.0 414.1,54.3 414.7,55.0 415.3,56.8 415.9,61.1 416.5,62.6 417.1,62.6 417.7,64.4 418.3,68.0 418.9,70.7 419.5,71.8 420.1,72.7 420.7,69.7 421.2,73.2 421.8,77.6 422.4,73.3 423.0,70.8 423.6,66.5 424.2,66.9 424.8,66.0 425.4,61.9 426.0,60.9 426.6,60.6 427.2,59.6 427.8,57.5 428.4,60.3 429.0,55.1 429.6,56.1 430.2,54.6 430.8,56.0 431.3,58.3 431.9,58.3 432.5,58.1 433.1,58.1 433.7,57.8 434.3,55.0 434.9,49.5 435.5,51.2 436.1,51.2 436.7,53.8 437.3,54.0 437.9,52.5 438.5,48.0 439.1,47.9 439.7,48.0 440.3,46.9 440.9,47.2 441.4,46.7 442.0,47.9 442.6,42.9 443.2,44.1 443.8,40.4 444.4,41.4 445.0,44.9 445.6,42.9 446.2,45.1 446.8,44.4 447.4,40.4 448.0,40.4 448.6,38.8 449.2,38.6 449.8,37.4 450.4,42.6 450.9,43.4 451.5,48.9 452.1,48.2 452.7,46.2 453.3,48.4 453.9,48.5 454.5,49.5 455.1,53.3 455.7,57.6 456.3,57.6 456.9,56.0 457.5,57.6 458.1,59.8 458.7,63.2 459.3,66.5 459.9,68.5 460.5,69.2 461.0,68.5 461.6,72.5 462.2,72.8 462.8,74.6 463.4,74.6 464.0,73.0 464.6,72.7 465.2,71.0 465.8,71.2 466.4,68.4 467.0,66.7 467.6,65.4 468.2,59.1 468.8,56.6 469.4,54.1 470.0,52.7 470.6,49.8 471.1,49.8 471.7,45.5 472.3,45.4 472.9,41.9 473.5,37.4 474.1,39.9 474.7,38.6 475.3,36.1 475.9,39.3 476.5,39.8 477.1,40.1 477.7,39.9 478.3,39.6 478.9,36.5 479.5,32.0 480.1,32.5 480.6,36.3 481.2,43.2 481.8,45.9 482.4,50.2 483.0,48.4 483.6,50.5 484.2,54.5 484.8,60.3 485.4,67.0 486.0,69.9 486.6,74.0 487.2,75.3 487.8,80.4 488.4,81.9 489.0,85.1 489.6,85.1 490.2,81.9 490.7,79.4 491.3,81.4 491.9,79.4 492.5,77.3 493.1,73.7 493.7,72.5 494.3,71.7 494.9,67.4 495.5,64.4 496.1,63.6 496.7,66.0 497.3,60.4 497.9,57.0 498.5,57.6 499.1,54.8 499.7,53.3 500.3,49.7 500.8,47.2 501.4,42.4 502.0,39.9 502.6,36.5 503.2,34.3 503.8,27.5 504.4,25.4 505.0,26.0 505.6,26.9 506.2,27.4 506.8,26.9 507.4,29.2 508.0,29.0 508.6,30.0 509.2,33.6 509.8,39.3 510.4,40.4 510.9,40.6 511.5,46.0 512.1,45.4 512.7,49.5 513.3,49.7 513.9,51.0 514.5,52.3 515.1,54.6 515.7,53.0 516.3,56.3 516.9,58.9 517.5,57.8 518.1,61.9 518.7,64.4 519.3,64.4 519.9,64.9 520.4,64.2 521.0,68.7 521.6,71.0 522.2,70.0 522.8,68.9 523.4,67.4 524.0,69.7 524.6,67.9 525.2,66.4 525.8,65.4 526.4,64.1 527.0,61.7 527.6,63.1 528.2,63.4 528.8,61.6 529.4,58.1 530.0,57.3 530.5,55.3 531.1,54.5 531.7,53.2 532.3,51.8 532.9,47.0 533.5,46.2 534.1,46.9 534.7,49.3 535.3,47.5 535.9,53.5 536.5,52.0 537.1,46.9 537.7,46.2 538.3,43.6 538.9,39.1 539.5,39.3 540.0,40.4 540.6,37.8 541.2,34.3 541.8,33.0 542.4,35.5 543.0,37.1 543.6,35.3 544.2,35.5 544.8,33.8 545.4,32.5 546.0,34.3 546.6,38.1 547.2,37.8 547.8,37.4 548.4,37.6 549.0,34.5 549.6,33.8 550.1,35.5 550.7,38.6 551.3,36.3 551.9,39.4 552.5,38.3 553.1,41.9 553.7,49.2 554.3,52.7 554.9,54.3 555.5,54.6 556.1,55.6 556.7,59.6 557.3,65.2 557.9,69.2 558.5,68.5 559.1,71.2 559.7,76.1 560.2,80.8 560.8,82.7 561.4,88.7 562.0,90.5 562.6,92.0 563.2,92.7 563.8,92.2 564.4,93.3 565.0,92.2 565.6,92.7 566.2,88.4 566.8,91.7 567.4,86.2 568.0,86.1 568.6,83.2 569.2,80.9 569.8,77.3 570.3,75.6 570.9,72.2 571.5,69.7 572.1,66.0 572.7,65.7 573.3,58.1 573.9,53.2 574.5,50.5 575.1,47.4 575.7,44.9 576.3,39.3 576.9,41.7 577.5,38.6 578.1,36.5 578.7,34.3 579.3,31.7 579.8,27.2 580.4,29.3 581.0,28.7 581.6,26.4 582.2,25.4 582.8,25.0 583.4,26.7 584.0,27.2 584.6,31.3 585.2,34.5 585.8,34.5 586.4,35.6 587.0,33.3 587.6,38.8 588.2,40.1 588.8,45.7 589.4,47.7 589.9,52.5 590.5,57.9 591.1,63.6 591.7,64.2 592.3,68.2 592.9,70.3 593.5,70.2 594.1,68.4 594.7,70.7 595.3,72.5 595.9,72.0 596.5,71.3 597.1,68.2 597.7,68.4 598.3,66.9 598.9,64.7 599.5,63.4 600.0,64.9 600.6,64.1 601.2,62.6 601.8,62.9 602.4,62.2 603.0,64.4 603.6,64.4 604.2,65.7 604.8,62.7 605.4,62.9 606.0,65.9 606.6,64.4 607.2,62.4 607.8,62.7 608.4,67.2 609.0,64.9 609.5,63.1 610.1,62.9 610.7,60.1 611.3,56.6 611.9,53.5 612.5,54.3 613.1,56.5 613.7,56.0 614.3,58.1 614.9,58.9 615.5,61.1 616.1,60.3 616.7,62.2 617.3,60.4 617.9,57.8 618.5,56.5 619.1,58.8 619.6,60.1 620.2,62.4 620.8,63.2 621.4,57.5 622.0,56.6 622.6,55.6 623.2,53.6 623.8,52.3 624.4,54.3 625.0,57.1 625.6,56.1 626.2,53.6 626.8,55.1 627.4,57.5 628.0,55.1 628.6,53.8 629.1,54.6 629.7,55.3 630.3,58.8 630.9,57.5 631.5,59.3 632.1,63.4 632.7,66.2 633.3,65.4 633.9,67.7 634.5,67.2 635.1,65.1 635.7,63.9 636.3,62.6 636.9,64.4 637.5,62.6 638.1,62.1 638.7,58.3 639.2,52.5 639.8,52.8 640.4,51.3 641.0,52.2 641.6,48.5 642.2,49.8 642.8,47.5 643.4,47.5"></path>
    <path class="data-series" stroke="#0060e5" d="M50.0,224.9 50.6,223.6 51.2,222.0 51.8,219.0 52.4,215.3 53.0,211.9 53.6,221.6 54.2,219.8 54.8,218.0 55.3,217.3 55.9,217.7 56.5,220.1 57.1,216.0 57.7,212.9 58.3,210.2 58.9,210.9 59.5,209.9 60.1,205.4 60.7,203.8 61.3,206.4 61.9,203.6 62.5,200.0 63.1,196.7 63.7,195.8 64.3,193.9 64.8,194.0 65.4,192.0 66.0,190.7 66.6,191.9 67.2,190.2 67.8,189.1 68.4,188.2 69.0,189.4 69.6,188.1 70.2,188.1 70.8,188.4 71.4,187.2 72.0,187.6 72.6,188.2 73.2,187.7 73.8,186.6 74.4,184.9 74.9,186.9 75.5,189.9 76.1,193.7 76.7,197.2 77.3,200.1 77.9,202.6 78.5,205.8 79.1,208.7 79.7,209.2 80.3,209.4 80.9,209.2 81.5,211.0 82.1,211.7 82.7,210.9 83.3,212.9 83.9,214.2 84.5,215.0 85.0,212.7 85.6,212.2 86.2,214.0 86.8,213.7 87.4,213.5 88.0,213.7 88.6,216.2 89.2,214.2 89.8,215.0 90.4,215.8 91.0,215.8 91.6,214.7 92.2,214.0 92.8,215.0 93.4,215.3 94.0,214.2 94.5,215.2 95.1,216.0 95.7,215.8 96.3,216.8 96.9,215.2 97.5,214.0 98.1,215.2 98.7,215.3 99.3,211.9 99.9,210.1 100.5,206.4 101.1,205.6 101.7,203.3 102.3,200.6 102.9,200.0 103.5,200.1 104.1,198.3 104.6,196.0 105.2,198.6 105.8,197.0 106.4,193.7 107.0,192.7 107.6,193.4 108.2,194.5 108.8,194.7 109.4,193.5 110.0,193.5 110.6,192.7 111.2,192.0 111.8,189.2 112.4,188.1 113.0,189.9 113.6,186.9 114.2,187.7 114.7,188.1 115.3,189.2 115.9,192.9 116.5,195.7 117.1,199.5 117.7,202.0 118.3,201.0 118.9,202.8 119.5,203.6 120.1,204.4 120.7,202.6 121.3,202.4 121.9,205.4 122.5,206.1 123.1,205.1 123.7,205.3 124.2,205.1 124.8,206.4 125.4,206.4 126.0,205.6 126.6,206.3 127.2,207.1 127.8,206.9 128.4,207.9 129.0,205.8 129.6,204.3 130.2,204.8 130.8,205.4 131.4,205.1 132.0,206.9 132.6,209.1 133.2,211.7 133.8,211.0 134.3,211.2 134.9,211.0 135.5,212.9 136.1,212.2 136.7,209.9 137.3,209.4 137.9,206.7 138.5,207.2 139.1,206.1 139.7,205.6 140.3,205.8 140.9,205.9 141.5,206.9 142.1,205.8 142.7,203.9 143.3,201.6 143.9,200.5 144.4,200.3 145.0,199.3 145.6,199.8 146.2,199.0 146.8,199.0 147.4,195.2 148.0,192.4 148.6,193.5 149.2,190.4 149.8,188.7 150.4,187.7 151.0,189.9 151.6,188.9 152.2,186.9 152.8,187.4 153.4,187.9 153.9,187.7 154.5,188.6 155.1,189.1 155.7,191.4 156.3,192.9 156.9,195.2 157.5,196.8 158.1,200.1 158.7,204.1 159.3,205.1 159.9,207.4 160.5,209.1 161.1,210.4 161.7,210.5 162.3,212.9 162.9,214.5 163.5,214.5 164.0,214.2 164.6,216.0 165.2,217.8 165.8,217.2 166.4,216.7 167.0,215.7 167.6,216.2 168.2,216.0 168.8,213.7 169.4,211.4 170.0,209.1 170.6,207.9 171.2,204.4 171.8,202.9 172.4,201.1 173.0,199.3 173.6,198.5 174.1,197.0 174.7,198.3 175.3,198.3 175.9,199.5 176.5,199.1 177.1,198.0 177.7,199.6 178.3,199.6 178.9,199.0 179.5,197.3 180.1,197.8 180.7,198.6 181.3,201.3 181.9,201.8 182.5,203.3 183.1,204.3 183.7,200.6 184.2,201.0 184.8,203.8 185.4,205.6 186.0,206.4 186.6,206.6 187.2,207.1 187.8,206.1 188.4,206.3 189.0,206.1 189.6,205.4 190.2,204.9 190.8,203.4 191.4,202.1 192.0,201.6 192.6,199.8 193.2,199.3 193.7,198.0 194.3,195.7 194.9,193.2 195.5,193.7 196.1,194.7 196.7,193.4 197.3,194.5 197.9,194.7 198.5,195.3 199.1,195.7 199.7,195.7 200.3,197.7 200.9,198.6 201.5,197.8 202.1,198.5 202.7,198.0 203.3,199.6 203.8,202.1 204.4,203.3 205.0,204.3 205.6,205.3 206.2,206.9 206.8,208.1 207.4,206.7 208.0,207.1 208.6,205.3 209.2,205.6 209.8,205.9 210.4,205.4 211.0,204.8 211.6,203.6 212.2,204.1 212.8,203.9 213.3,202.9 213.9,204.8 214.5,205.1 215.1,208.1 215.7,208.6 216.3,208.4 216.9,207.1 217.5,207.1 218.1,206.3 218.7,205.6 219.3,205.1 219.9,206.6 220.5,203.1 221.1,200.8 221.7,200.1 222.3,200.1 222.9,199.1 223.4,198.8 224.0,201.1 224.6,199.1 225.2,196.5 225.8,195.3 226.4,197.8 227.0,199.0 227.6,200.6 228.2,200.3 228.8,200.3 229.4,201.6 230.0,200.5 230.6,199.5 231.2,201.3 231.8,201.3 232.4,201.3 233.0,199.3 233.5,200.5 234.1,200.3 234.7,200.3 235.3,198.8 235.9,199.8 236.5,201.8 237.1,202.4 237.7,203.9 238.3,202.8 238.9,202.0 239.5,202.8 240.1,203.3 240.7,205.1 241.3,203.8 241.9,205.8 242.5,206.1 243.1,206.9 243.6,206.9 244.2,205.1 244.8,206.3 245.4,208.6 246.0,206.4 246.6,205.9 247.2,203.1 247.8,205.4 248.4,208.2 249.0,205.8 249.6,204.4 250.2,204.8 250.8,204.1 251.4,202.8 252.0,204.4 252.6,204.4 253.1,204.4 253.7,201.8 254.3,200.5 254.9,199.6 255.5,199.5 256.1,199.8 256.7,199.0 257.3,199.0 257.9,196.2 258.5,195.0 259.1,194.7 259.7,194.3 260.3,196.7 260.9,197.7 261.5,197.0 262.1,197.8 262.7,197.5 263.2,197.8 263.8,197.5 264.4,197.0 265.0,197.7 265.6,197.0 266.2,199.6 266.8,200.5 267.4,201.5 268.0,203.3 268.6,204.6 269.2,204.8 269.8,202.8 270.4,202.6 271.0,202.0 271.6,202.1 272.2,204.1 272.8,204.8 273.3,204.9 273.9,206.3 274.5,205.8 275.1,205.8 275.7,205.1 276.3,205.8 276.9,206.7 277.5,207.1 278.1,206.9 278.7,208.1 279.3,207.9 279.9,207.9 280.5,206.7 281.1,207.6 281.7,208.2 282.3,207.9 282.8,207.7 283.4,206.9 284.0,205.1 284.6,204.9 285.2,204.9 285.8,204.1 286.4,201.6 287.0,202.0 287.6,199.3 288.2,199.5 288.8,198.8 289.4,199.1 290.0,197.7 290.6,199.0 291.2,199.1 291.8,199.8 292.4,199.0 292.9,202.0 293.5,203.6 294.1,206.1 294.7,207.2 295.3,207.9 295.9,210.2 296.5,211.2 297.1,210.1 297.7,209.9 298.3,210.2 298.9,208.4 299.5,210.2 300.1,209.6 300.7,210.4 301.3,210.9 301.9,210.2 302.4,209.6 303.0,209.4 303.6,208.6 304.2,206.7 304.8,205.1 305.4,202.4 306.0,203.4 306.6,201.8 307.2,200.1 307.8,198.5 308.4,197.3 309.0,197.3 309.6,197.5 310.2,195.0 310.8,195.2 311.4,194.7 312.0,193.7 312.5,192.2 313.1,193.5 313.7,195.7 314.3,194.0 314.9,193.2 315.5,194.2 316.1,196.3 316.7,196.3 317.3,196.5 317.9,196.8 318.5,196.5 319.1,197.8 319.7,196.5 320.3,197.7 320.9,197.5 321.5,199.8 322.1,200.8 322.6,200.3 323.2,202.1 323.8,204.9 324.4,207.2 325.0,209.1 325.6,209.9 326.2,211.4 326.8,210.5 327.4,209.4 328.0,208.4 328.6,210.2 329.2,210.5 329.8,211.9 330.4,210.9 331.0,208.9 331.6,207.4 332.1,206.6 332.7,207.6 333.3,203.6 333.9,201.5 334.5,201.1 335.1,202.1 335.7,203.1 336.3,201.1 336.9,203.8 337.5,203.9 338.1,204.3 338.7,204.6 339.3,202.4 339.9,201.5 340.5,200.5 341.1,198.1 341.7,197.7 342.2,196.7 342.8,195.5 343.4,195.7 344.0,195.2 344.6,196.7 345.2,196.8 345.8,198.6 346.4,195.8 347.0,195.7 347.6,197.5 348.2,197.8 348.8,198.6 349.4,196.7 350.0,197.0 350.6,200.0 351.2,201.0 351.8,201.0 352.3,200.6 352.9,201.5 353.5,200.8 354.1,202.8 354.7,201.3 355.3,202.8 355.9,204.6 356.5,208.4 357.1,209.9 357.7,212.4 358.3,212.4 358.9,215.2 359.5,216.5 360.1,214.4 360.7,213.4 361.3,212.0 361.9,211.2 362.4,210.5 363.0,209.6 363.6,209.4 364.2,207.6 364.8,208.9 365.4,206.6 366.0,204.9 366.6,205.1 367.2,204.3 367.8,202.9 368.4,200.3 369.0,200.6 369.6,201.6 370.2,201.3 370.8,200.6 371.4,199.6 371.9,199.1 372.5,199.6 373.1,200.5 373.7,199.3 374.3,198.6 374.9,200.5 375.5,201.3 376.1,201.5 376.7,201.8 377.3,200.5 377.9,201.6 378.5,202.4 379.1,203.6 379.7,203.9 380.3,203.4 380.9,203.1 381.5,202.1 382.0,199.0 382.6,197.3 383.2,197.2 383.8,196.7 384.4,195.7 385.0,194.8 385.6,194.3 386.2,196.0 386.8,197.0 387.4,199.3 388.0,199.0 388.6,199.8 389.2,201.0 389.8,200.8 390.4,201.1 391.0,201.0 391.6,203.3 392.1,202.6 392.7,205.6 393.3,206.1 393.9,205.9 394.5,206.7 395.1,206.7 395.7,207.9 396.3,207.4 396.9,208.1 397.5,208.7 398.1,210.2 398.7,209.9 399.3,210.2 399.9,209.7 400.5,209.9 401.1,208.1 401.6,208.2 402.2,208.1 402.8,208.6 403.4,206.4 404.0,205.3 404.6,204.4 405.2,202.4 405.8,200.3 406.4,202.3 407.0,203.1 407.6,203.9 408.2,203.4 408.8,204.9 409.4,203.1 410.0,200.1 410.6,198.8 411.2,200.1 411.7,202.0 412.3,202.1 412.9,201.8 413.5,200.3 414.1,201.8 414.7,201.5 415.3,199.0 415.9,199.3 416.5,200.1 417.1,198.1 417.7,196.0 418.3,195.0 418.9,197.5 419.5,198.0 420.1,198.3 420.7,197.0 421.2,198.1 421.8,200.1 422.4,201.1 423.0,203.9 423.6,205.8 424.2,205.6 424.8,208.9 425.4,210.7 426.0,209.9 426.6,208.4 427.2,206.9 427.8,207.2 428.4,205.8 429.0,204.8 429.6,204.9 430.2,205.1 430.8,205.6 431.3,202.9 431.9,202.6 432.5,205.4 433.1,206.7 433.7,206.1 434.3,207.7 434.9,206.6 435.5,204.6 436.1,204.8 436.7,205.3 437.3,205.8 437.9,204.8 438.5,206.1 439.1,208.4 439.7,208.4 440.3,206.3 440.9,205.8 441.4,207.9 442.0,206.3 442.6,205.1 443.2,204.8 443.8,208.1 444.4,208.2 445.0,204.6 445.6,204.4 446.2,203.3 446.8,202.1 447.4,201.1 448.0,201.0 448.6,203.3 449.2,203.8 449.8,204.4 450.4,203.6 450.9,204.8 451.5,202.8 452.1,201.5 452.7,202.8 453.3,200.1 453.9,200.1 454.5,199.5 455.1,200.6 455.7,196.8 456.3,196.0 456.9,196.5 457.5,196.3 458.1,197.0 458.7,196.2 459.3,195.2 459.9,196.0 460.5,193.0 461.0,193.4 461.6,193.5 462.2,194.7 462.8,197.7 463.4,197.7 464.0,198.0 464.6,202.4 465.2,206.4 465.8,206.4 466.4,207.9 467.0,208.1 467.6,209.9 468.2,210.1 468.8,210.4 469.4,210.1 470.0,210.5 470.6,209.6 471.1,209.6 471.7,209.2 472.3,209.7 472.9,210.7 473.5,210.2 474.1,210.9 474.7,209.4 475.3,208.4 475.9,205.4 476.5,204.9 477.1,202.8 477.7,202.6 478.3,200.0 478.9,202.6 479.5,202.0 480.1,200.5 480.6,200.3 481.2,199.3 481.8,199.3 482.4,196.0 483.0,197.0 483.6,195.2 484.2,191.4 484.8,188.9 485.4,189.7 486.0,188.9 486.6,187.4 487.2,189.1 487.8,188.7 488.4,189.7 489.0,190.0 489.6,193.0 490.2,195.3 490.7,198.5 491.3,202.6 491.9,204.8 492.5,207.9 493.1,209.7 493.7,211.7 494.3,211.7 494.9,214.2 495.5,215.3 496.1,214.8 496.7,214.2 497.3,216.0 497.9,217.5 498.5,216.5 499.1,216.3 499.7,217.7 500.3,218.5 500.8,215.7 501.4,216.2 502.0,213.5 502.6,212.0 503.2,211.5 503.8,212.7 504.4,211.7 505.0,208.2 505.6,207.9 506.2,203.9 506.8,201.1 507.4,199.5 508.0,199.3 508.6,199.5 509.2,200.0 509.8,197.5 510.4,197.0 510.9,197.7 511.5,196.7 512.1,196.8 512.7,195.3 513.3,195.0 513.9,196.8 514.5,196.0 515.1,193.2 515.7,194.2 516.3,196.0 516.9,195.0 517.5,195.2 518.1,194.8 518.7,196.0 519.3,196.3 519.9,197.3 520.4,199.6 521.0,200.0 521.6,202.1 522.2,206.6 522.8,205.8 523.4,206.6 524.0,206.9 524.6,206.6 525.2,206.6 525.8,206.4 526.4,206.1 527.0,208.2 527.6,208.7 528.2,210.2 528.8,210.7 529.4,210.5 530.0,211.2 530.5,211.5 531.1,212.5 531.7,213.5 532.3,212.4 532.9,211.0 533.5,210.2 534.1,208.7 534.7,206.9 535.3,205.9 535.9,206.3 536.5,206.6 537.1,206.3 537.7,207.1 538.3,208.9 538.9,211.4 539.5,209.1 540.0,208.2 540.6,207.7 541.2,207.6 541.8,206.9 542.4,205.9 543.0,207.6 543.6,206.9 544.2,206.3 544.8,205.9 545.4,206.1 546.0,207.2 546.6,206.3 547.2,204.4 547.8,200.1 548.4,199.8 549.0,201.6 549.6,202.3 550.1,201.3 550.7,199.3 551.3,200.8 551.9,201.0 552.5,197.3 553.1,197.7 553.7,194.0 554.3,193.7 554.9,192.2 555.5,192.2 556.1,192.4 556.7,191.2 557.3,193.2 557.9,192.5 558.5,191.5 559.1,192.5 559.7,189.1 560.2,190.9 560.8,190.5 561.4,190.7 562.0,189.2 562.6,188.1 563.2,190.9 563.8,192.5 564.4,195.8 565.0,197.8 565.6,200.8 566.2,204.3 566.8,203.1 567.4,203.9 568.0,206.7 568.6,208.1 569.2,208.2 569.8,210.5 570.3,211.9 570.9,212.7 571.5,213.4 572.1,215.2 572.7,216.5 573.3,217.2 573.9,219.0 574.5,218.7 575.1,219.5 575.7,218.8 576.3,217.3 576.9,216.7 577.5,215.7 578.1,215.0 578.7,214.5 579.3,211.5 579.8,213.0 580.4,209.9 581.0,209.9 581.6,207.6 582.2,206.3 582.8,203.3 583.4,203.3 584.0,201.1 584.6,200.1 585.2,199.5 585.8,199.6 586.4,200.1 587.0,197.2 587.6,193.0 588.2,190.9 588.8,189.7 589.4,188.1 589.9,185.4 590.5,184.1 591.1,183.8 591.7,186.2 592.3,184.8 592.9,186.7 593.5,187.2 594.1,189.7 594.7,192.4 595.3,194.0 595.9,197.2 596.5,199.0 597.1,200.8 597.7,202.3 598.3,202.1 598.9,204.4 599.5,205.4 600.0,205.8 600.6,206.4 601.2,206.6 601.8,206.3 602.4,206.4 603.0,204.3 603.6,202.8 604.2,201.6 604.8,201.1 605.4,199.5 606.0,197.8 606.6,198.8 607.2,198.5 607.8,197.2 608.4,197.3 609.0,200.8 609.5,201.6 610.1,201.6 610.7,203.3 611.3,205.8 611.9,204.3 612.5,203.6 613.1,203.9 613.7,203.4 614.3,202.8 614.9,201.8 615.5,200.1 616.1,200.0 616.7,201.3 617.3,200.6 617.9,202.3 618.5,202.0 619.1,202.8 619.6,202.0 620.2,200.1 620.8,201.5 621.4,202.8 622.0,203.3 622.6,203.1 623.2,203.6 623.8,206.7 624.4,205.9 625.0,204.8 625.6,204.9 626.2,206.6 626.8,206.3 627.4,205.6 628.0,206.6 628.6,206.6 629.1,205.3 629.7,206.1 630.3,202.1 630.9,201.8 631.5,201.0 632.1,200.3 632.7,198.1 633.3,198.8 633.9,198.8 634.5,200.0 635.1,199.1 635.7,198.6 636.3,201.1 636.9,201.0 637.5,201.8 638.1,203.4 638.7,205.4 639.2,206.6 639.8,206.4 640.4,208.4 641.0,208.1 641.6,211.0 642.2,211.0 642.8,212.0 643.4,213.2"></path>
    <text text-anchor="end" fill="green" x="640" y="85">Food</text>
    <text text-anchor="end" fill="#0060e5" x="640" y="230">Creatures</text>
</svg>