<svg width="660" height="300" xmlns="http://www.w3.org/2000/svg">

<style>
  .background {
    fill: none;
  }
  .axis {
    stroke: #111;
    stroke-width: 1;
  }
  .axis-label {
    font-size: 14px;
    font-family: Arial;
    text-anchor: middle;
  }
  .axis-units {
    font-size: 10px;
    font-family: Arial;
  }
  .y-axis-text {
    text-anchor: end;
  }
  .x-axis-text {
    text-anchor: middle;
  }
  .gridlines {
    stroke: black;
    stroke-width: 0.3;
    fill: none;
    opacity: 0.5;
  }
  .data-series {
    stroke-width: 1.8;
    fill: none;
    opacity: 1;
  }
  </style>

    <text class="axis-label" x="344.5" y="290">Time (ticks)</text>
    <text class="axis-label" x="0" y="134.0" transform="translate(15.0) rotate(-90, 0, 134.0)">Population size</text>
    <line class="axis" x1="45" y1="258" x2="645" y2="258"></line>
    <line class="axis" x1="45" y1="258" x2="45" y2="10"></line>
    <g class="axis-units">
        <g class="x-axis-text">
            <text x="45.0" y="270">0</text>
            <text x="104.9" y="270">10K</text>
            <text x="164.8" y="270">20K</text>
            <text x="224.7" y="270">30K</text>
            <text x="284.6" y="270">40K</text>
            <text x="344.5" y="270">50K</text>
            <text x="404.4" y="270">60K</text>
            <text x="464.29999999999995" y="270">70K</text>
            <text x="524.2" y="270">80K</text>
            <text x="584.1" y="270">90K</text>
            <text x="644.0" y="270">100K</text>
        </g>
        <g class="y-axis-text">
            <text x="42" y="261.0">0</text>
            <text x="42" y="211.4">100</text>
            <text x="42" y="161.8">200</text>
            <text x="42" y="112.19999999999999">300</text>
            <text x="42" y="62.599999999999994">400</text>
            <text x="42" y="13.0">500</text>
        </g>
    </g>
    <g class="gridlines">
        <line x1="104.5" y1="258" x2="104.5" y2="10"></line>
        <line x1="164.5" y1="258" x2="164.5" y2="10"></line>
        <line x1="224.5" y1="258" x2="224.5" y2="10"></line>
        <line x1="284.5" y1="258" x2="284.5" y2="10"></line>
        <line x1="344.5" y1="258" x2="344.5" y2="10"></line>
        <line x1="404.5" y1="258" x2="404.5" y2="10"></line>
        <line x1="464.5" y1="258" x2="464.5" y2="10"></line>
        <line x1="524.5" y1="258" x2="524.5" y2="10"></line>
        <line x1="584.5" y1="258" x2="584.5" y2="10"></line>
        <line x1="644.5" y1="258" x2="644.5" y2="10"></line>
        <line x1="45" y1="208.5" x2="644" y2="208.5"></line>
        <line x1="45" y1="158.5" x2="644" y2="158.5"></line>
        <line x1="45" y1="109.5" x2="644" y2="109.5"></line>
        <line x1="45" y1="59.5" x2="644" y2="59.5"></line>
        <line x1="45" y1="10.5" x2="644" y2="10.5"></line>
    </g>
    <path class="data-series" stroke="green" d="M45.6,112.2 46.2,114.2 46.8,116.6 47.4,114.7 48.0,115.6 48.6,116.1 49.2,113.7 49.8,112.7 50.4,115.2 51.0,113.2 51.6,113.7 52.2,111.7 52.8,112.7 53.4,108.7 54.0,107.7 54.6,108.7 55.2,111.7 55.8,108.2 56.4,111.7 57.0,108.2 57.6,109.2 58.2,110.7 58.8,109.2 59.4,112.2 60.0,112.7 60.6,110.7 61.2,109.7 61.8,106.7 62.4,104.2 63.0,102.3 63.6,97.8 64.2,95.8 64.8,88.4 65.4,85.4 66.0,85.9 66.6,80.9 67.2,77.5 67.8,75.5 68.4,76.0 69.0,74.5 69.6,73.5 70.2,70.5 70.8,71.0 71.4,70.5 72.0,72.0 72.6,68.0 73.2,74.0 73.8,74.5 74.4,73.0 75.0,73.0 75.5,71.5 76.1,70.5 76.7,67.5 77.3,65.1 77.9,64.6 78.5,64.6 79.1,64.6 79.7,63.1 80.3,61.6 80.9,62.1 81.5,63.1 82.1,61.1 82.7,61.6 83.3,66.5 83.9,65.1 84.5,65.6 85.1,65.6 85.7,65.6 86.3,67.5 86.9,71.5 87.5,68.0 88.1,70.0 88.7,69.5 89.3,71.0 89.9,78.0 90.5,80.9 91.1,83.4 91.7,85.4 92.3,87.4 92.9,91.3 93.5,97.3 94.1,102.8 94.7,112.7 95.3,116.6 95.9,117.6 96.5,124.1 97.1,125.6 97.7,131.5 98.3,130.5 98.9,130.0 99.5,131.0 100.1,130.5 100.7,133.0 101.3,130.0 101.9,131.0 102.5,132.5 103.1,134.5 103.7,137.5 104.3,135.0 104.9,134.0 105.5,133.5 106.1,132.0 106.7,131.0 107.3,130.0 107.9,129.0 108.5,128.0 109.1,126.6 109.7,127.1 110.3,122.1 110.9,121.1 111.5,117.1 112.1,116.6 112.7,119.1 113.3,119.1 113.9,114.2 114.5,108.2 115.1,107.7 115.7,111.2 116.3,110.2 116.9,106.2 117.5,105.7 118.1,107.2 118.7,109.7 119.3,106.7 119.9,108.2 120.5,108.7 121.1,107.2 121.7,103.7 122.3,102.8 122.9,104.2 123.5,105.7 124.1,103.7 124.7,105.2 125.3,105.2 125.9,106.2 126.5,103.2 127.1,102.3 127.7,104.2 128.3,103.2 128.9,95.3 129.5,92.3 130.1,94.3 130.7,94.8 131.3,95.3 131.9,95.8 132.5,95.3 133.1,94.8 133.7,98.3 134.3,102.8 134.8,106.2 135.4,106.7 136.0,103.2 136.6,101.8 137.2,104.2 137.8,104.2 138.4,105.2 139.0,104.2 139.6,104.2 140.2,106.7 140.8,109.2 141.4,112.2 142.0,112.2 142.6,112.2 143.2,110.7 143.8,108.2 144.4,109.2 145.0,115.2 145.6,113.7 146.2,116.1 146.8,116.1 147.4,115.2 148.0,115.2 148.6,114.7 149.2,115.6 149.8,115.6 150.4,115.6 151.0,115.2 151.6,110.7 152.2,109.7 152.8,113.2 153.4,114.2 154.0,113.7 154.6,112.2 155.2,112.7 155.8,112.7 156.4,111.7 157.0,111.2 157.6,111.7 158.2,116.6 158.8,115.2 159.4,113.7 160.0,109.2 160.6,110.7 161.2,109.2 161.8,109.7 162.4,111.2 163.0,111.7 163.6,111.2 164.2,109.2 164.8,112.2 165.4,110.2 166.0,107.2 166.6,107.7 167.2,105.2 167.8,102.8 168.4,98.3 169.0,97.3 169.6,98.3 170.2,96.8 170.8,95.3 171.4,95.3 172.0,96.3 172.6,97.8 173.2,98.3 173.8,100.3 174.4,100.8 175.0,102.8 175.6,102.8 176.2,102.3 176.8,99.3 177.4,101.3 178.0,100.8 178.6,94.3 179.2,95.3 179.8,96.8 180.4,97.3 181.0,96.8 181.6,100.8 182.2,102.3 182.8,103.2 183.4,104.2 184.0,103.2 184.6,100.8 185.2,104.7 185.8,106.7 186.4,111.2 187.0,112.7 187.6,115.6 188.2,119.1 188.8,120.6 189.4,113.7 190.0,110.2 190.6,110.2 191.2,111.7 191.8,112.7 192.4,110.7 193.0,107.2 193.6,107.2 194.2,111.2 194.8,108.7 195.3,103.7 195.9,103.2 196.5,103.7 197.1,104.2 197.7,102.8 198.3,101.3 198.9,97.8 199.5,97.3 200.1,97.8 200.7,98.8 201.3,95.3 201.9,95.8 202.5,98.3 203.1,93.3 203.7,92.8 204.3,91.8 204.9,95.8 205.5,101.8 206.1,101.3 206.7,101.8 207.3,100.3 207.9,100.8 208.5,105.7 209.1,104.7 209.7,109.7 210.3,111.2 210.9,111.2 211.5,110.7 212.1,111.2 212.7,108.7 213.3,117.1 213.9,117.6 214.5,124.6 215.1,127.6 215.7,131.0 216.3,132.5 216.9,131.5 217.5,134.0 218.1,128.0 218.7,133.0 219.3,134.5 219.9,137.0 220.5,141.9 221.1,140.0 221.7,147.4 222.3,149.9 222.9,151.4 223.5,150.4 224.1,150.9 224.7,155.8 225.3,151.9 225.9,153.8 226.5,149.4 227.1,150.4 227.7,148.9 228.3,146.4 228.9,151.9 229.5,152.4 230.1,151.4 230.7,148.4 231.3,146.4 231.9,141.9 232.5,137.0 233.1,137.5 233.7,133.5 234.3,132.0 234.9,129.5 235.5,128.0 236.1,123.1 236.7,117.1 237.3,115.6 237.9,108.2 238.5,108.2 239.1,104.7 239.7,102.3 240.3,98.3 240.9,96.8 241.5,93.3 242.1,90.4 242.7,89.9 243.3,84.4 243.9,79.9 244.5,72.5 245.1,69.5 245.7,65.6 246.3,64.1 246.9,60.6 247.5,58.6 248.1,56.1 248.7,52.2 249.3,49.2 249.9,47.2 250.5,46.2 251.1,47.2 251.7,46.2 252.3,43.2 252.9,43.2 253.5,42.2 254.1,39.8 254.6,31.3 255.2,30.3 255.8,33.8 256.4,37.3 257.0,38.3 257.6,37.8 258.2,38.8 258.8,38.8 259.4,39.8 260.0,48.2 260.6,54.1 261.2,61.1 261.8,60.6 262.4,65.1 263.0,68.0 263.6,78.9 264.2,84.4 264.8,88.9 265.4,90.8 266.0,95.3 266.6,97.8 267.2,98.8 267.8,103.7 268.4,106.7 269.0,104.2 269.6,105.2 270.2,110.7 270.8,117.1 271.4,117.1 272.0,117.6 272.6,120.1 273.2,123.1 273.8,126.1 274.4,132.5 275.0,134.5 275.6,138.0 276.2,141.9 276.8,143.4 277.4,140.9 278.0,138.5 278.6,138.5 279.2,138.0 279.8,136.0 280.4,133.0 281.0,133.0 281.6,130.0 282.2,130.0 282.8,131.0 283.4,128.5 284.0,129.0 284.6,129.0 285.2,134.0 285.8,129.5 286.4,133.0 287.0,130.0 287.6,126.1 288.2,127.1 288.8,126.6 289.4,122.1 290.0,119.6 290.6,119.6 291.2,117.6 291.8,117.1 292.4,114.7 293.0,112.2 293.6,114.2 294.2,112.2 294.8,110.7 295.4,107.2 296.0,102.8 296.6,101.8 297.2,99.8 297.8,97.8 298.4,95.3 299.0,90.4 299.6,89.4 300.2,88.4 300.8,85.9 301.4,85.4 302.0,86.9 302.6,87.9 303.2,89.4 303.8,91.3 304.4,87.9 305.0,84.4 305.6,83.4 306.2,81.4 306.8,82.4 307.4,84.4 308.0,80.9 308.6,79.4 309.2,84.4 309.8,83.4 310.4,81.9 311.0,84.9 311.6,83.9 312.2,86.4 312.8,85.4 313.4,86.9 314.0,84.4 314.6,85.9 315.1,85.4 315.7,84.4 316.3,87.4 316.9,87.4 317.5,87.9 318.1,92.8 318.7,91.3 319.3,94.3 319.9,99.3 320.5,100.8 321.1,97.3 321.7,97.3 322.3,100.8 322.9,107.2 323.5,105.2 324.1,107.2 324.7,107.7 325.3,105.2 325.9,106.2 326.5,109.2 327.1,113.7 327.7,118.6 328.3,122.1 328.9,123.1 329.5,123.6 330.1,123.1 330.7,125.6 331.3,128.5 331.9,125.1 332.5,127.1 333.1,123.6 333.7,124.1 334.3,131.0 334.9,133.5 335.5,130.0 336.1,132.0 336.7,131.0 337.3,129.5 337.9,128.5 338.5,127.1 339.1,124.6 339.7,125.1 340.3,125.1 340.9,125.1 341.5,127.1 342.1,127.6 342.7,126.1 343.3,127.1 343.9,123.6 344.5,121.1 345.1,118.1 345.7,117.6 346.3,115.6 346.9,113.2 347.5,111.2 348.1,106.2 348.7,106.2 349.3,107.7 349.9,108.2 350.5,106.7 351.1,103.2 351.7,101.3 352.3,98.3 352.9,99.8 353.5,102.3 354.1,99.8 354.7,100.3 355.3,99.3 355.9,101.3 356.5,100.3 357.1,100.8 357.7,97.3 358.3,94.8 358.9,93.3 359.5,92.3 360.1,90.8 360.7,91.3 361.3,92.3 361.9,91.8 362.5,95.3 363.1,96.3 363.7,100.8 364.3,99.3 364.9,100.3 365.5,97.3 366.1,100.8 366.7,100.3 367.3,100.3 367.9,103.2 368.5,105.2 369.1,106.2 369.7,107.2 370.3,106.7 370.9,114.7 371.5,116.1 372.1,120.1 372.7,125.6 373.3,123.6 373.9,127.1 374.4,129.5 375.0,134.0 375.6,140.9 376.2,141.4 376.8,144.4 377.4,145.9 378.0,150.4 378.6,147.9 379.2,146.9 379.8,144.4 380.4,140.4 381.0,139.0 381.6,137.5 382.2,137.5 382.8,135.5 383.4,135.5 384.0,133.0 384.6,133.5 385.2,134.0 385.8,134.5 386.4,133.0 387.0,134.0 387.6,131.5 388.2,133.5 388.8,134.5 389.4,136.5 390.0,135.5 390.6,133.5 391.2,131.0 391.8,130.0 392.4,128.5 393.0,130.0 393.6,129.5 394.2,126.6 394.8,129.0 395.4,127.6 396.0,128.0 396.6,123.1 397.2,123.1 397.8,115.2 398.4,118.1 399.0,115.6 399.6,114.2 400.2,112.2 400.8,109.7 401.4,106.2 402.0,107.2 402.6,100.8 403.2,101.3 403.8,97.8 404.4,96.3 405.0,97.3 405.6,92.8 406.2,85.9 406.8,85.9 407.4,83.4 408.0,81.9 408.6,80.9 409.2,76.5 409.8,71.0 410.4,72.5 411.0,74.5 411.6,73.5 412.2,73.5 412.8,73.0 413.4,71.0 414.0,73.5 414.6,71.0 415.2,70.0 415.8,70.0 416.4,65.1 417.0,65.1 417.6,63.6 418.2,62.6 418.8,62.1 419.4,67.0 420.0,66.5 420.6,67.0 421.2,63.1 421.8,66.5 422.4,67.0 423.0,72.0 423.6,72.0 424.2,74.5 424.8,78.9 425.4,79.9 426.0,82.4 426.6,81.9 427.2,87.9 427.8,91.8 428.4,96.8 429.0,99.8 429.6,101.3 430.2,105.7 430.8,107.7 431.4,113.7 432.0,116.1 432.6,121.1 433.2,120.6 433.8,117.1 434.3,119.1 434.9,121.6 435.5,124.1 436.1,127.6 436.7,123.6 437.3,123.6 437.9,123.1 438.5,125.6 439.1,124.1 439.7,123.6 440.3,124.1 440.9,125.6 441.5,124.6 442.1,119.1 442.7,116.6 443.3,112.7 443.9,109.2 444.5,108.2 445.1,106.7 445.7,107.2 446.3,105.2 446.9,105.2 447.5,103.7 448.1,104.2 448.7,104.2 449.3,104.2 449.9,97.8 450.5,99.8 451.1,97.8 451.7,101.3 452.3,102.8 452.9,102.8 453.5,105.2 454.1,105.2 454.7,104.7 455.3,107.7 455.9,107.7 456.5,106.2 457.1,105.7 457.7,105.2 458.3,105.7 458.9,105.7 459.5,106.2 460.1,100.8 460.7,97.3 461.3,100.3 461.9,100.3 462.5,101.3 463.1,102.8 463.7,103.7 464.3,104.7 464.9,104.2 465.5,103.2 466.1,102.8 466.7,105.2 467.3,104.7 467.9,106.7 468.5,106.2 469.1,109.2 469.7,112.7 470.3,116.6 470.9,119.6 471.5,122.6 472.1,120.1 472.7,117.6 473.3,118.6 473.9,118.6 474.5,115.2 475.1,117.6 475.7,117.6 476.3,121.1 476.9,118.6 477.5,118.6 478.1,117.6 478.7,119.6 479.3,121.6 479.9,122.6 480.5,120.6 481.1,117.1 481.7,117.6 482.3,118.6 482.9,112.2 483.5,110.7 484.1,110.2 484.7,110.7 485.3,107.2 485.9,106.7 486.5,105.2 487.1,106.2 487.7,103.7 488.3,104.2 488.9,99.3 489.5,97.8 490.1,95.8 490.7,91.3 491.3,95.3 491.9,92.3 492.5,92.3 493.1,93.8 493.7,89.4 494.2,88.9 494.8,88.9 495.4,89.4 496.0,90.4 496.6,85.4 497.2,84.9 497.8,81.9 498.4,82.4 499.0,78.0 499.6,79.4 500.2,79.9 500.8,81.9 501.4,82.4 502.0,82.9 502.6,87.9 503.2,88.4 503.8,89.9 504.4,93.3 505.0,94.3 505.6,95.8 506.2,98.8 506.8,101.8 507.4,101.3 508.0,98.8 508.6,100.8 509.2,105.2 509.8,105.2 510.4,104.2 511.0,105.7 511.6,106.2 512.2,106.7 512.8,107.7 513.4,112.2 514.0,114.7 514.6,116.6 515.2,118.6 515.8,118.6 516.4,124.1 517.0,126.1 517.6,129.5 518.2,128.0 518.8,131.0 519.4,133.5 520.0,134.5 520.6,136.5 521.2,136.5 521.8,137.0 522.4,135.0 523.0,136.0 523.6,133.5 524.2,132.0 524.8,126.6 525.4,126.6 526.0,127.1 526.6,123.1 527.2,123.1 527.8,120.6 528.4,122.1 529.0,117.6 529.6,114.7 530.2,112.2 530.8,114.7 531.4,111.2 532.0,112.7 532.6,110.7 533.2,112.7 533.8,112.2 534.4,111.7 535.0,111.2 535.6,112.7 536.2,110.2 536.8,115.6 537.4,116.1 538.0,113.7 538.6,112.7 539.2,109.2 539.8,105.2 540.4,107.2 541.0,105.7 541.6,102.3 542.2,97.8 542.8,99.3 543.4,99.3 544.0,98.8 544.6,92.3 545.2,89.9 545.8,86.9 546.4,82.9 547.0,80.9 547.6,77.0 548.2,77.0 548.8,78.9 549.4,78.9 550.0,74.5 550.6,71.0 551.2,72.0 551.8,74.0 552.4,69.5 553.0,71.0 553.6,68.0 554.1,70.5 554.7,67.5 555.3,71.5 555.9,71.5 556.5,68.5 557.1,66.5 557.7,67.5 558.3,65.1 558.9,63.1 559.5,63.1 560.1,64.1 560.7,65.6 561.3,61.6 561.9,63.6 562.5,63.6 563.1,65.1 563.7,61.6 564.3,64.6 564.9,70.5 565.5,76.5 566.1,76.0 566.7,72.5 567.3,75.0 567.9,75.0 568.5,77.0 569.1,80.4 569.7,83.9 570.3,85.4 570.9,86.9 571.5,89.9 572.1,91.8 572.7,93.8 573.3,95.8 573.9,98.8 574.5,102.8 575.1,106.2 575.7,108.7 576.3,113.2 576.9,115.2 577.5,114.2 578.1,113.2 578.7,111.7 579.3,112.2 579.9,113.2 580.5,116.1 581.1,118.1 581.7,121.1 582.3,119.1 582.9,117.6 583.5,118.1 584.1,117.1 584.7,120.6 585.3,123.1 585.9,120.1 586.5,121.6 587.1,123.1 587.7,120.1 588.3,118.1 588.9,118.6 589.5,120.6 590.1,114.7 590.7,115.2 591.3,113.7 591.9,112.7 592.5,112.2 593.1,107.7 593.7,102.8 594.3,100.3 594.9,104.7 595.5,105.7 596.1,104.2 596.7,101.3 597.3,104.2 597.9,102.8 598.5,103.2 599.1,102.8 599.7,102.8 600.3,102.8 600.9,106.2 601.5,107.2 602.1,107.2 602.7,105.2 603.3,105.7 603.9,102.3 604.5,100.8 605.1,102.3 605.7,104.2 606.3,105.2 606.9,103.7 607.5,103.7 608.1,108.2 608.7,104.7 609.3,107.2 609.9,109.2 610.5,108.2 611.1,111.7 611.7,114.7 612.3,110.2 612.9,108.7 613.5,110.2 614.0,109.2 614.6,110.7 615.2,111.2 615.8,112.2 616.4,118.1 617.0,123.6 617.6,119.6 618.2,119.6 618.8,120.6 619.4,122.6 620.0,119.1 620.6,120.6 621.2,121.1 621.8,122.1 622.4,120.1 623.0,123.1 623.6,123.1 624.2,122.6 624.8,122.1 625.4,122.1 626.0,120.1 626.6,120.6 627.2,122.1 627.8,120.1 628.4,123.1 629.0,126.1 629.6,122.6 630.2,122.6 630.8,126.1 631.4,127.1 632.0,125.1 632.6,120.6 633.2,119.6 633.8,121.1 634.4,117.1 635.0,117.6 635.6,117.6 636.2,116.1 636.8,116.1 637.4,113.2 638.0,111.2 638.6,108.2 639.2,104.7 639.8,102.3 640.4,102.8 641.0,101.8 641.6,103.2 642.2,103.7 642.8,104.7 643.4,102.8 644.0,104.2"></path>
    <path class="data-series" stroke="#0060e5" d="M45.6,233.2 46.2,233.2 46.8,230.7 47.4,230.2 48.0,229.2 48.6,237.2 49.2,236.7 49.8,236.2 50.4,234.7 51.0,234.7 51.6,239.2 52.2,239.6 52.8,238.2 53.4,237.7 54.0,236.2 54.6,236.2 55.2,237.2 55.8,236.2 56.4,234.7 57.0,234.2 57.6,232.7 58.2,233.2 58.8,234.2 59.4,234.7 60.0,234.2 60.6,234.2 61.2,235.2 61.8,237.2 62.4,237.2 63.0,238.7 63.6,238.2 64.2,238.2 64.8,239.6 65.4,239.2 66.0,239.6 66.6,241.6 67.2,242.1 67.8,242.6 68.4,242.6 69.0,243.1 69.6,243.6 70.2,244.6 70.8,245.1 71.4,244.6 72.0,243.1 72.6,241.1 73.2,241.1 73.8,238.7 74.4,236.7 75.0,236.2 75.5,235.2 76.1,235.2 76.7,234.2 77.3,233.7 77.9,233.7 78.5,235.7 79.1,236.7 79.7,237.7 80.3,236.7 80.9,235.7 81.5,235.7 82.1,234.7 82.7,233.2 83.3,232.2 83.9,231.7 84.5,230.7 85.1,230.2 85.7,231.2 86.3,231.2 86.9,229.2 87.5,228.7 88.1,228.2 88.7,228.7 89.3,226.8 89.9,226.8 90.5,227.2 91.1,226.8 91.7,227.2 92.3,224.8 92.9,222.8 93.5,223.3 94.1,219.8 94.7,216.3 95.3,213.9 95.9,214.8 96.5,213.9 97.1,213.9 97.7,213.4 98.3,212.4 98.9,214.8 99.5,216.3 100.1,218.3 100.7,218.3 101.3,219.8 101.9,220.3 102.5,223.3 103.1,222.8 103.7,221.8 104.3,222.8 104.9,224.8 105.5,225.8 106.1,225.3 106.7,225.8 107.3,229.2 107.9,230.2 108.5,230.7 109.1,231.7 109.7,231.2 110.3,231.7 110.9,232.2 111.5,233.2 112.1,233.7 112.7,236.2 113.3,238.7 113.9,238.2 114.5,238.7 115.1,237.7 115.7,236.2 116.3,236.7 116.9,236.7 117.5,237.7 118.1,236.2 118.7,234.2 119.3,233.7 119.9,233.2 120.5,233.2 121.1,231.2 121.7,231.7 122.3,231.7 122.9,230.2 123.5,230.2 124.1,229.7 124.7,228.7 125.3,228.7 125.9,229.2 126.5,230.7 127.1,229.7 127.7,230.2 128.3,230.7 128.9,233.2 129.5,233.7 130.1,232.7 130.7,232.7 131.3,231.2 131.9,229.7 132.5,228.2 133.1,226.8 133.7,226.8 134.3,226.3 134.8,225.3 135.4,224.8 136.0,226.8 136.6,227.2 137.2,227.7 137.8,229.7 138.4,228.2 139.0,232.2 139.6,230.2 140.2,228.7 140.8,226.8 141.4,225.3 142.0,224.8 142.6,223.8 143.2,223.8 143.8,225.3 144.4,225.3 145.0,225.3 145.6,225.3 146.2,226.3 146.8,226.8 147.4,227.7 148.0,225.8 148.6,226.8 149.2,226.8 149.8,227.7 150.4,228.2 151.0,229.7 151.6,228.7 152.2,229.2 152.8,230.2 153.4,232.2 154.0,231.2 154.6,231.2 155.2,230.7 155.8,230.7 156.4,231.7 157.0,232.2 157.6,232.2 158.2,232.7 158.8,232.7 159.4,234.7 160.0,235.7 160.6,234.2 161.2,232.7 161.8,234.2 162.4,233.7 163.0,233.2 163.6,232.7 164.2,232.2 164.8,231.7 165.4,232.2 166.0,232.7 166.6,232.7 167.2,233.2 167.8,234.2 168.4,235.2 169.0,234.7 169.6,234.7 170.2,234.2 170.8,233.2 171.4,233.2 172.0,232.7 172.6,232.7 173.2,233.2 173.8,233.2 174.4,232.7 175.0,232.7 175.6,232.7 176.2,232.7 176.8,232.2 177.4,230.7 178.0,230.2 178.6,231.2 179.2,232.7 179.8,231.7 180.4,231.7 181.0,231.2 181.6,228.2 182.2,227.7 182.8,226.3 183.4,227.2 184.0,225.3 184.6,226.3 185.2,224.3 185.8,224.3 186.4,223.8 187.0,222.3 187.6,222.3 188.2,221.8 188.8,221.3 189.4,221.3 190.0,220.8 190.6,222.8 191.2,224.8 191.8,228.2 192.4,229.2 193.0,228.7 193.6,230.7 194.2,230.2 194.8,230.2 195.3,231.2 195.9,230.7 196.5,232.7 197.1,233.7 197.7,234.2 198.3,233.7 198.9,235.2 199.5,234.7 200.1,233.7 200.7,234.2 201.3,234.7 201.9,234.2 202.5,233.7 203.1,233.7 203.7,233.7 204.3,232.7 204.9,231.2 205.5,227.2 206.1,227.2 206.7,228.7 207.3,228.2 207.9,227.7 208.5,226.3 209.1,226.8 209.7,226.8 210.3,225.8 210.9,227.7 211.5,226.8 212.1,224.8 212.7,226.8 213.3,224.8 213.9,225.8 214.5,225.8 215.1,223.8 215.7,222.3 216.3,220.3 216.9,219.8 217.5,217.8 218.1,218.3 218.7,218.3 219.3,217.8 219.9,217.8 220.5,218.8 221.1,218.8 221.7,219.3 222.3,218.8 222.9,217.8 223.5,219.3 224.1,219.3 224.7,221.3 225.3,226.3 225.9,226.3 226.5,226.3 227.1,225.8 227.7,227.2 228.3,231.2 228.9,231.2 229.5,233.2 230.1,234.2 230.7,234.2 231.3,235.2 231.9,235.7 232.5,236.7 233.1,237.7 233.7,237.7 234.3,241.1 234.9,243.1 235.5,244.6 236.1,245.1 236.7,246.1 237.3,246.6 237.9,247.1 238.5,246.6 239.1,246.1 239.7,247.1 240.3,247.1 240.9,248.1 241.5,248.1 242.1,249.1 242.7,247.6 243.3,248.1 243.9,248.6 244.5,248.6 245.1,248.6 245.7,248.6 246.3,247.6 246.9,248.1 247.5,248.1 248.1,248.1 248.7,246.6 249.3,245.6 249.9,246.1 250.5,245.6 251.1,243.6 251.7,242.1 252.3,242.6 252.9,242.1 253.5,241.6 254.1,241.1 254.6,240.6 255.2,239.6 255.8,237.7 256.4,237.2 257.0,235.2 257.6,234.2 258.2,234.7 258.8,233.2 259.4,229.7 260.0,228.2 260.6,225.3 261.2,222.3 261.8,221.3 262.4,219.8 263.0,217.8 263.6,213.4 264.2,213.9 264.8,213.4 265.4,212.9 266.0,211.9 266.6,211.4 267.2,211.4 267.8,209.9 268.4,208.4 269.0,209.4 269.6,209.4 270.2,208.4 270.8,209.4 271.4,208.9 272.0,207.4 272.6,211.4 273.2,211.9 273.8,214.8 274.4,216.3 275.0,217.3 275.6,221.8 276.2,223.3 276.8,224.3 277.4,223.3 278.0,223.8 278.6,223.8 279.2,224.3 279.8,225.3 280.4,225.3 281.0,226.3 281.6,227.7 282.2,227.7 282.8,230.2 283.4,231.2 284.0,233.2 284.6,233.7 285.2,232.7 285.8,234.2 286.4,234.7 287.0,234.7 287.6,234.2 288.2,235.2 288.8,235.7 289.4,236.7 290.0,236.7 290.6,237.2 291.2,237.7 291.8,239.2 292.4,240.1 293.0,240.1 293.6,239.6 294.2,241.1 294.8,242.6 295.4,242.1 296.0,243.1 296.6,243.1 297.2,243.1 297.8,244.1 298.4,244.6 299.0,244.1 299.6,244.1 300.2,243.1 300.8,243.6 301.4,244.6 302.0,243.1 302.6,241.6 303.2,240.6 303.8,239.2 304.4,238.2 305.0,239.2 305.6,237.7 306.2,237.2 306.8,235.2 307.4,235.2 308.0,235.2 308.6,235.2 309.2,233.2 309.8,232.7 310.4,233.7 311.0,231.2 311.6,231.7 312.2,231.2 312.8,230.2 313.4,228.7 314.0,227.7 314.6,227.7 315.1,227.7 315.7,228.7 316.3,226.3 316.9,226.3 317.5,226.3 318.1,224.8 318.7,227.2 319.3,227.2 319.9,226.3 320.5,223.8 321.1,224.3 321.7,221.8 322.3,220.8 322.9,220.8 323.5,221.8 324.1,221.3 324.7,220.8 325.3,220.3 325.9,222.3 326.5,222.3 327.1,221.3 327.7,221.3 328.3,221.8 328.9,219.3 329.5,218.8 330.1,218.8 330.7,219.8 331.3,220.3 331.9,218.8 332.5,220.3 333.1,222.8 333.7,223.8 334.3,222.3 334.9,220.8 335.5,224.3 336.1,224.8 336.7,224.8 337.3,223.8 337.9,223.8 338.5,225.3 339.1,226.8 339.7,228.2 340.3,230.7 340.9,231.2 341.5,233.2 342.1,233.2 342.7,234.7 343.3,234.7 343.9,235.2 344.5,235.7 345.1,236.2 345.7,236.2 346.3,236.2 346.9,237.2 347.5,236.7 348.1,237.2 348.7,237.2 349.3,236.7 349.9,237.7 350.5,238.2 351.1,238.7 351.7,237.2 352.3,236.7 352.9,237.2 353.5,237.7 354.1,237.2 354.7,236.7 355.3,235.7 355.9,234.7 356.5,234.2 357.1,235.2 357.7,234.2 358.3,234.7 358.9,234.7 359.5,236.2 360.1,235.2 360.7,234.7 361.3,234.7 361.9,232.2 362.5,232.7 363.1,233.2 363.7,231.7 364.3,230.7 364.9,230.2 365.5,228.7 366.1,227.7 366.7,224.8 367.3,225.8 367.9,224.3 368.5,224.3 369.1,223.8 369.7,223.3 370.3,222.3 370.9,219.3 371.5,219.8 372.1,219.3 372.7,219.8 373.3,217.8 373.9,218.3 374.4,216.3 375.0,215.3 375.6,214.4 376.2,215.8 376.8,215.3 377.4,216.8 378.0,219.3 378.6,221.3 379.2,220.8 379.8,222.8 380.4,223.3 381.0,222.8 381.6,222.8 382.2,224.8 382.8,227.7 383.4,228.7 384.0,231.7 384.6,233.2 385.2,232.2 385.8,232.7 386.4,231.7 387.0,229.7 387.6,230.7 388.2,232.7 388.8,232.2 389.4,232.2 390.0,232.2 390.6,232.2 391.2,233.2 391.8,233.7 392.4,233.7 393.0,234.2 393.6,234.2 394.2,235.2 394.8,236.2 395.4,235.2 396.0,236.2 396.6,238.2 397.2,237.7 397.8,238.7 398.4,238.7 399.0,239.2 399.6,239.2 400.2,239.2 400.8,239.6 401.4,240.1 402.0,241.1 402.6,241.1 403.2,240.6 403.8,239.2 404.4,239.2 405.0,238.7 405.6,238.7 406.2,238.7 406.8,238.7 407.4,239.2 408.0,238.2 408.6,238.2 409.2,239.2 409.8,239.6 410.4,239.2 411.0,239.2 411.6,238.7 412.2,238.2 412.8,237.2 413.4,238.7 414.0,237.2 414.6,237.7 415.2,237.7 415.8,238.7 416.4,238.7 417.0,237.2 417.6,236.2 418.2,236.2 418.8,234.7 419.4,233.2 420.0,232.2 420.6,231.2 421.2,231.2 421.8,229.7 422.4,230.2 423.0,229.7 423.6,229.7 424.2,226.8 424.8,225.8 425.4,224.8 426.0,223.3 426.6,223.3 427.2,220.8 427.8,218.8 428.4,215.3 429.0,214.8 429.6,212.4 430.2,212.4 430.8,211.4 431.4,211.9 432.0,211.9 432.6,213.4 433.2,214.4 433.8,214.8 434.3,215.3 434.9,216.8 435.5,215.3 436.1,217.3 436.7,217.8 437.3,219.8 437.9,220.8 438.5,222.8 439.1,225.8 439.7,225.3 440.3,225.8 440.9,226.8 441.5,227.2 442.1,228.2 442.7,230.7 443.3,232.2 443.9,232.7 444.5,234.7 445.1,234.2 445.7,235.2 446.3,235.2 446.9,235.2 447.5,233.7 448.1,234.2 448.7,237.2 449.3,235.7 449.9,236.7 450.5,236.7 451.1,235.2 451.7,233.7 452.3,233.7 452.9,232.7 453.5,232.7 454.1,233.2 454.7,232.7 455.3,232.7 455.9,232.7 456.5,231.7 457.1,231.2 457.7,231.2 458.3,232.2 458.9,231.2 459.5,231.7 460.1,231.7 460.7,231.2 461.3,230.2 461.9,230.2 462.5,229.7 463.1,228.7 463.7,227.7 464.3,227.2 464.9,227.2 465.5,226.3 466.1,226.8 466.7,226.3 467.3,225.3 467.9,224.8 468.5,225.8 469.1,226.8 469.7,228.2 470.3,226.8 470.9,225.8 471.5,225.8 472.1,226.8 472.7,227.7 473.3,227.2 473.9,226.8 474.5,226.3 475.1,225.3 475.7,223.8 476.3,223.3 476.9,222.8 477.5,222.8 478.1,224.8 478.7,224.3 479.3,226.8 479.9,229.2 480.5,229.7 481.1,230.2 481.7,229.2 482.3,228.7 482.9,228.7 483.5,230.7 484.1,232.7 484.7,232.2 485.3,234.2 485.9,233.7 486.5,233.2 487.1,235.2 487.7,235.7 488.3,237.2 488.9,236.7 489.5,236.2 490.1,237.2 490.7,237.7 491.3,237.2 491.9,236.2 492.5,234.7 493.1,234.7 493.7,234.7 494.2,234.7 494.8,234.2 495.4,234.7 496.0,236.2 496.6,236.7 497.2,238.2 497.8,237.2 498.4,237.7 499.0,237.2 499.6,235.2 500.2,232.7 500.8,232.7 501.4,232.7 502.0,231.7 502.6,229.7 503.2,229.7 503.8,229.2 504.4,228.7 505.0,227.7 505.6,226.8 506.2,227.2 506.8,226.8 507.4,226.8 508.0,226.3 508.6,227.2 509.2,227.7 509.8,227.7 510.4,225.8 511.0,225.3 511.6,225.3 512.2,224.8 512.8,225.3 513.4,226.3 514.0,227.2 514.6,223.8 515.2,223.3 515.8,222.8 516.4,223.3 517.0,222.3 517.6,221.3 518.2,221.8 518.8,221.8 519.4,223.8 520.0,224.3 520.6,223.8 521.2,224.3 521.8,225.3 522.4,225.3 523.0,223.3 523.6,224.3 524.2,224.3 524.8,224.8 525.4,225.8 526.0,228.2 526.6,228.7 527.2,230.2 527.8,230.7 528.4,233.7 529.0,233.7 529.6,235.2 530.2,236.7 530.8,235.7 531.4,237.2 532.0,236.7 532.6,236.7 533.2,237.2 533.8,236.2 534.4,235.2 535.0,235.2 535.6,235.7 536.2,235.7 536.8,233.7 537.4,231.7 538.0,231.2 538.6,230.2 539.2,232.2 539.8,233.2 540.4,233.7 541.0,233.7 541.6,233.7 542.2,234.2 542.8,235.7 543.4,236.7 544.0,238.2 544.6,237.7 545.2,237.7 545.8,239.2 546.4,239.6 547.0,239.6 547.6,239.6 548.2,240.6 548.8,239.2 549.4,238.7 550.0,237.7 550.6,236.7 551.2,237.7 551.8,237.2 552.4,237.2 553.0,236.7 553.6,236.2 554.1,236.2 554.7,236.2 555.3,237.7 555.9,236.7 556.5,238.2 557.1,237.7 557.7,237.2 558.3,238.2 558.9,237.7 559.5,237.2 560.1,236.7 560.7,236.7 561.3,235.7 561.9,235.2 562.5,233.7 563.1,232.2 563.7,230.2 564.3,229.7 564.9,228.2 565.5,226.8 566.1,226.8 566.7,225.8 567.3,226.3 567.9,226.8 568.5,225.3 569.1,223.8 569.7,221.8 570.3,220.3 570.9,220.8 571.5,222.3 572.1,221.8 572.7,222.8 573.3,220.3 573.9,221.8 574.5,220.8 575.1,221.3 575.7,220.3 576.3,217.3 576.9,216.8 577.5,217.8 578.1,218.3 578.7,219.3 579.3,219.3 579.9,220.3 580.5,219.8 581.1,223.3 581.7,224.8 582.3,225.8 582.9,226.8 583.5,227.7 584.1,228.7 584.7,228.7 585.3,227.2 585.9,228.2 586.5,227.2 587.1,226.8 587.7,226.3 588.3,225.3 588.9,226.8 589.5,228.2 590.1,231.2 590.7,232.2 591.3,231.2 591.9,231.7 592.5,230.7 593.1,230.2 593.7,230.7 594.3,232.2 594.9,232.2 595.5,232.2 596.1,231.7 596.7,230.7 597.3,230.2 597.9,230.2 598.5,228.7 599.1,228.2 599.7,228.7 600.3,229.7 600.9,229.7 601.5,230.2 602.1,230.7 602.7,230.7 603.3,231.2 603.9,230.2 604.5,228.7 605.1,229.7 605.7,228.7 606.3,229.2 606.9,229.2 607.5,228.7 608.1,229.2 608.7,229.7 609.3,230.2 609.9,229.7 610.5,228.2 611.1,227.7 611.7,225.8 612.3,228.7 612.9,228.2 613.5,227.7 614.0,226.8 614.6,227.2 615.2,225.8 615.8,225.3 616.4,224.8 617.0,224.8 617.6,223.8 618.2,224.8 618.8,223.8 619.4,224.3 620.0,226.3 620.6,226.3 621.2,227.2 621.8,228.2 622.4,228.2 623.0,228.2 623.6,227.2 624.2,227.2 624.8,227.7 625.4,229.7 626.0,229.7 626.6,230.7 627.2,230.2 627.8,231.7 628.4,231.7 629.0,230.2 629.6,230.2 630.2,230.7 630.8,230.7 631.4,230.7 632.0,231.7 632.6,231.2 633.2,232.2 633.8,231.7 634.4,233.2 635.0,234.7 635.6,236.2 636.2,236.7 636.8,235.7 637.4,237.2 638.0,235.2 638.6,234.7 639.2,234.2 639.8,235.2 640.4,235.2 641.0,234.2 641.6,234.2 642.2,234.2 642.8,233.7 643.4,234.2 644.0,234.2"></path>
    <text text-anchor="end" fill="green" x="640" y="105">Food</text>
    <text text-anchor="end" fill="#0060e5" x="640" y="208">Creatures</text>
</svg>