<svg width="660" xmlns="http://www.w3.org/2000/svg" height="300">

<style>
  .data-series {
    opacity: 1;
    stroke-width: 1.8;
    fill: none;
  }
  .axis {
    stroke: #111;
    stroke-width: 1;
  }
  .y-axis-text {
    text-anchor: end;
  }
  .background {
    fill: none;
  }
  .axis-units {
    font-size: 10px;
    font-family: Arial;
  }
  .gridlines {
    opacity: 0.5;
    stroke: black;
    stroke-width: 0.3;
    fill: none;
  }
  .x-axis-text {
    text-anchor: middle;
  }
  .axis-label {
    font-size: 14px;
    font-family: Arial;
    text-anchor: middle;
  }
  </style>

    <text y="290" x="344.5" class="axis-label">Time (ticks)</text>
    <text y="134.0" x="0" class="axis-label" transform="translate(15.0) rotate(-90, 0, 134.0)">Population size</text>
    <line y1="258" x2="645" x1="45" y2="258" class="axis"></line>
    <line y1="258" x2="45" x1="45" y2="10" class="axis"></line>
    <g class="axis-units">
        <g class="x-axis-text">
            <text y="270" x="45.0">0</text>
            <text y="270" x="104.9">10K</text>
            <text y="270" x="164.8">20K</text>
            <text y="270" x="224.7">30K</text>
            <text y="270" x="284.6">40K</text>
            <text y="270" x="344.5">50K</text>
            <text y="270" x="404.4">60K</text>
            <text y="270" x="464.3">70K</text>
            <text y="270" x="524.2">80K</text>
            <text y="270" x="584.1">90K</text>
            <text y="270" x="644.0">100K</text>
        </g>
        <g class="y-axis-text">
            <text y="261.0" x="42">0</text>
            <text y="225.571428571" x="42">100</text>
            <text y="190.142857143" x="42">200</text>
            <text y="154.714285714" x="42">300</text>
            <text y="119.285714286" x="42">400</text>
            <text y="83.8571428571" x="42">500</text>
            <text y="48.4285714286" x="42">600</text>
            <text y="13.0" x="42">700</text>
        </g>
    </g>
    <g class="gridlines">
        <line y1="258" x2="104.5" x1="104.5" y2="10"></line>
        <line y1="258" x2="164.5" x1="164.5" y2="10"></line>
        <line y1="258" x2="224.5" x1="224.5" y2="10"></line>
        <line y1="258" x2="284.5" x1="284.5" y2="10"></line>
        <line y1="258" x2="344.5" x1="344.5" y2="10"></line>
        <line y1="258" x2="404.5" x1="404.5" y2="10"></line>
        <line y1="258" x2="464.5" x1="464.5" y2="10"></line>
        <line y1="258" x2="524.5" x1="524.5" y2="10"></line>
        <line y1="258" x2="584.5" x1="584.5" y2="10"></line>
        <line y1="258" x2="644.5" x1="644.5" y2="10"></line>
        <line y1="222.5" x2="644" x1="45" y2="222.5"></line>
        <line y1="187.5" x2="644" x1="45" y2="187.5"></line>
        <line y1="151.5" x2="644" x1="45" y2="151.5"></line>
        <line y1="116.5" x2="644" x1="45" y2="116.5"></line>
        <line y1="80.5" x2="644" x1="45" y2="80.5"></line>
        <line y1="45.5" x2="644" x1="45" y2="45.5"></line>
        <line y1="10.5" x2="644" x1="45" y2="10.5"></line>
    </g>
    <path stroke="green" class="data-series" d="M45.6,150.3 46.2,151.4 46.8,153.5 47.4,149.2 48.0,153.1 48.6,152.1 49.2,155.6 49.8,152.4 50.4,154.5 51.0,154.5 51.6,155.6 52.2,156.3 52.8,157.7 53.4,157.7 54.0,159.2 54.6,156.7 55.2,156.7 55.8,157.7 56.4,159.2 57.0,160.9 57.6,162.3 58.2,163.4 58.8,163.8 59.4,164.1 60.0,160.2 60.6,160.2 61.2,158.4 61.8,156.3 62.4,153.1 63.0,152.1 63.6,148.9 64.2,147.8 64.8,146.8 65.4,145.0 66.0,144.3 66.6,142.9 67.2,140.0 67.8,139.7 68.4,135.8 69.0,135.8 69.6,132.9 70.2,132.2 70.8,133.3 71.4,133.6 72.0,135.4 72.6,134.7 73.2,134.0 73.8,134.0 74.4,132.6 75.0,131.2 75.5,133.3 76.1,132.6 76.7,133.3 77.3,131.5 77.9,130.5 78.5,133.6 79.1,134.0 79.7,136.5 80.3,140.4 80.9,142.5 81.5,145.0 82.1,147.1 82.7,146.0 83.3,150.3 83.9,150.3 84.5,154.5 85.1,154.5 85.7,158.8 86.3,158.8 86.9,160.9 87.5,161.6 88.1,163.8 88.7,166.2 89.3,165.2 89.9,164.5 90.5,164.8 91.1,164.5 91.7,165.9 92.3,162.0 92.9,162.3 93.5,161.6 94.1,162.0 94.7,161.3 95.3,163.8 95.9,165.2 96.5,165.9 97.1,163.8 97.7,163.4 98.3,160.9 98.9,160.9 99.5,157.0 100.1,156.3 100.7,155.6 101.3,155.3 101.9,153.1 102.5,155.6 103.1,153.8 103.7,157.0 104.3,157.7 104.9,153.8 105.5,156.0 106.1,157.7 106.7,161.3 107.3,160.9 107.9,158.4 108.5,159.5 109.1,159.9 109.7,160.9 110.3,158.8 110.9,157.0 111.5,157.4 112.1,155.6 112.7,153.8 113.3,153.8 113.9,152.1 114.5,152.8 115.1,152.4 115.7,153.1 116.3,152.4 116.9,152.8 117.5,152.8 118.1,154.5 118.7,151.7 119.3,148.5 119.9,148.9 120.5,149.2 121.1,148.9 121.7,149.6 122.3,150.7 122.9,150.7 123.5,149.2 124.1,148.2 124.7,149.2 125.3,150.7 125.9,152.4 126.5,153.1 127.1,151.7 127.7,150.3 128.3,147.8 128.9,147.8 129.5,149.6 130.1,150.3 130.7,151.0 131.3,148.5 131.9,148.9 132.5,146.8 133.1,147.1 133.7,149.2 134.3,149.2 134.8,147.8 135.4,148.5 136.0,148.5 136.6,148.9 137.2,147.1 137.8,146.0 138.4,146.4 139.0,143.2 139.6,140.4 140.2,137.9 140.8,138.3 141.4,137.2 142.0,136.1 142.6,135.1 143.2,132.2 143.8,132.6 144.4,132.6 145.0,136.5 145.6,138.6 146.2,138.6 146.8,136.8 147.4,135.8 148.0,134.7 148.6,136.1 149.2,135.1 149.8,134.0 150.4,134.4 151.0,132.2 151.6,134.4 152.2,134.0 152.8,135.1 153.4,135.8 154.0,135.1 154.6,136.1 155.2,138.3 155.8,138.6 156.4,140.7 157.0,144.3 157.6,146.8 158.2,146.4 158.8,148.2 159.4,152.1 160.0,155.6 160.6,158.1 161.2,158.8 161.8,159.9 162.4,161.3 163.0,163.4 163.6,164.1 164.2,165.5 164.8,170.1 165.4,173.3 166.0,174.0 166.6,173.7 167.2,173.7 167.8,176.9 168.4,176.5 169.0,176.5 169.6,175.5 170.2,177.2 170.8,179.3 171.4,177.2 172.0,177.2 172.6,176.5 173.2,175.5 173.8,174.7 174.4,172.3 175.0,173.0 175.6,174.7 176.2,176.5 176.8,174.4 177.4,175.1 178.0,175.8 178.6,174.7 179.2,174.0 179.8,169.8 180.4,170.1 181.0,169.1 181.6,165.9 182.2,168.0 182.8,168.4 183.4,167.3 184.0,165.2 184.6,164.1 185.2,159.9 185.8,161.6 186.4,157.0 187.0,152.4 187.6,152.1 188.2,150.7 188.8,150.3 189.4,146.4 190.0,147.5 190.6,149.2 191.2,145.0 191.8,147.1 192.4,147.5 193.0,146.4 193.6,145.7 194.2,144.3 194.8,145.3 195.3,143.2 195.9,143.2 196.5,144.6 197.1,146.4 197.7,148.9 198.3,149.2 198.9,152.1 199.5,156.0 200.1,155.3 200.7,152.4 201.3,155.6 201.9,154.9 202.5,158.8 203.1,158.1 203.7,158.1 204.3,158.8 204.9,160.2 205.5,160.9 206.1,162.3 206.7,160.9 207.3,163.8 207.9,164.8 208.5,167.7 209.1,166.9 209.7,165.2 210.3,166.2 210.9,166.9 211.5,165.5 212.1,166.6 212.7,163.1 213.3,164.8 213.9,164.8 214.5,165.5 215.1,163.8 215.7,165.2 216.3,165.2 216.9,165.5 217.5,164.5 218.1,159.5 218.7,158.1 219.3,158.4 219.9,157.0 220.5,158.8 221.1,155.3 221.7,155.6 222.3,154.2 222.9,154.2 223.5,152.4 224.1,152.1 224.7,149.9 225.3,148.2 225.9,148.2 226.5,149.6 227.1,148.9 227.7,148.9 228.3,145.7 228.9,146.0 229.5,144.6 230.1,146.0 230.7,142.5 231.3,141.8 231.9,139.0 232.5,140.4 233.1,140.0 233.7,140.4 234.3,139.7 234.9,141.4 235.5,143.2 236.1,143.2 236.7,148.2 237.3,151.7 237.9,152.8 238.5,149.6 239.1,149.9 239.7,148.2 240.3,151.0 240.9,151.0 241.5,150.3 242.1,149.9 242.7,147.1 243.3,145.7 243.9,145.7 244.5,145.0 245.1,143.2 245.7,142.9 246.3,141.8 246.9,142.1 247.5,139.7 248.1,138.3 248.7,137.2 249.3,136.5 249.9,140.0 250.5,139.0 251.1,139.0 251.7,137.2 252.3,134.0 252.9,131.9 253.5,131.9 254.1,130.5 254.6,130.1 255.2,130.1 255.8,130.5 256.4,130.8 257.0,134.0 257.6,132.6 258.2,135.1 258.8,133.6 259.4,133.6 260.0,132.6 260.6,133.6 261.2,137.9 261.8,139.7 262.4,141.1 263.0,145.0 263.6,142.9 264.2,143.2 264.8,142.9 265.4,143.9 266.0,146.0 266.6,148.5 267.2,154.2 267.8,156.7 268.4,158.4 269.0,161.3 269.6,161.6 270.2,160.9 270.8,160.6 271.4,159.9 272.0,157.7 272.6,157.0 273.2,158.1 273.8,156.7 274.4,157.4 275.0,162.3 275.6,163.4 276.2,165.5 276.8,166.9 277.4,172.3 278.0,174.0 278.6,173.3 279.2,173.7 279.8,171.9 280.4,172.6 281.0,173.7 281.6,173.7 282.2,172.3 282.8,170.1 283.4,170.8 284.0,169.8 284.6,169.8 285.2,167.3 285.8,165.9 286.4,162.3 287.0,163.1 287.6,162.0 288.2,160.6 288.8,159.5 289.4,157.0 290.0,156.0 290.6,154.9 291.2,154.5 291.8,149.9 292.4,149.2 293.0,146.0 293.6,143.6 294.2,140.7 294.8,137.2 295.4,137.9 296.0,133.3 296.6,133.6 297.2,129.4 297.8,124.8 298.4,124.1 299.0,123.0 299.6,121.2 300.2,120.2 300.8,119.1 301.4,117.3 302.0,115.9 302.6,115.6 303.2,117.3 303.8,116.6 304.4,117.3 305.0,114.2 305.6,113.5 306.2,112.4 306.8,113.8 307.4,117.0 308.0,116.6 308.6,117.0 309.2,117.7 309.8,123.0 310.4,123.0 311.0,128.3 311.6,132.9 312.2,137.9 312.8,139.7 313.4,143.9 314.0,151.4 314.6,155.6 315.1,153.8 315.7,156.0 316.3,164.1 316.9,165.2 317.5,170.5 318.1,170.8 318.7,174.0 319.3,178.3 319.9,181.8 320.5,185.4 321.1,185.0 321.7,184.0 322.3,182.5 322.9,181.8 323.5,183.2 324.1,181.5 324.7,179.3 325.3,178.3 325.9,176.9 326.5,174.7 327.1,171.9 327.7,167.7 328.3,166.2 328.9,165.9 329.5,164.1 330.1,162.3 330.7,158.8 331.3,155.3 331.9,155.6 332.5,154.9 333.1,153.5 333.7,152.4 334.3,149.2 334.9,144.6 335.5,142.9 336.1,139.0 336.7,136.1 337.3,133.6 337.9,131.2 338.5,129.4 339.1,126.6 339.7,125.5 340.3,122.0 340.9,120.9 341.5,116.6 342.1,114.9 342.7,112.4 343.3,109.9 343.9,107.4 344.5,107.4 345.1,106.7 345.7,104.2 346.3,100.0 346.9,99.3 347.5,97.9 348.1,97.2 348.7,94.0 349.3,95.4 349.9,92.9 350.5,90.4 351.1,90.4 351.7,88.3 352.3,87.2 352.9,85.5 353.5,88.3 354.1,90.1 354.7,91.8 355.3,91.8 355.9,90.4 356.5,91.5 357.1,92.5 357.7,91.5 358.3,92.9 358.9,97.5 359.5,98.9 360.1,102.5 360.7,108.1 361.3,117.3 361.9,124.1 362.5,128.3 363.1,134.0 363.7,138.6 364.3,143.6 364.9,148.2 365.5,154.5 366.1,162.7 366.7,168.7 367.3,171.2 367.9,175.1 368.5,179.0 369.1,183.2 369.7,182.2 370.3,183.2 370.9,183.6 371.5,182.2 372.1,180.4 372.7,179.7 373.3,179.7 373.9,177.2 374.4,176.2 375.0,176.5 375.6,173.7 376.2,173.0 376.8,171.9 377.4,170.1 378.0,168.4 378.6,166.6 379.2,163.4 379.8,163.4 380.4,164.1 381.0,162.7 381.6,161.3 382.2,158.8 382.8,158.4 383.4,160.6 384.0,160.9 384.6,159.9 385.2,158.8 385.8,157.7 386.4,158.1 387.0,157.0 387.6,158.1 388.2,158.8 388.8,158.4 389.4,157.0 390.0,153.5 390.6,153.5 391.2,150.7 391.8,154.2 392.4,153.8 393.0,151.4 393.6,151.4 394.2,149.6 394.8,151.7 395.4,151.0 396.0,151.7 396.6,154.2 397.2,154.2 397.8,154.5 398.4,153.8 399.0,154.2 399.6,154.5 400.2,154.2 400.8,152.4 401.4,153.1 402.0,151.0 402.6,150.3 403.2,149.2 403.8,146.8 404.4,143.2 405.0,142.5 405.6,140.7 406.2,137.9 406.8,137.2 407.4,137.5 408.0,137.5 408.6,139.3 409.2,138.3 409.8,137.9 410.4,137.5 411.0,137.2 411.6,137.2 412.2,134.7 412.8,133.3 413.4,130.1 414.0,127.3 414.6,127.3 415.2,123.4 415.8,123.7 416.4,124.8 417.0,123.7 417.6,121.2 418.2,124.8 418.8,125.1 419.4,126.2 420.0,129.4 420.6,133.6 421.2,132.6 421.8,130.8 422.4,129.7 423.0,131.5 423.6,131.9 424.2,133.3 424.8,134.0 425.4,134.7 426.0,136.8 426.6,139.7 427.2,139.3 427.8,140.7 428.4,144.3 429.0,145.7 429.6,144.6 430.2,145.0 430.8,146.8 431.4,149.2 432.0,153.8 432.6,151.7 433.2,153.1 433.8,157.4 434.3,160.9 434.9,160.9 435.5,160.6 436.1,160.6 436.7,161.3 437.3,166.9 437.9,168.0 438.5,169.1 439.1,170.8 439.7,173.0 440.3,173.0 440.9,173.7 441.5,175.5 442.1,176.2 442.7,177.9 443.3,178.3 443.9,180.8 444.5,179.0 445.1,177.9 445.7,179.3 446.3,178.6 446.9,180.4 447.5,180.4 448.1,180.4 448.7,177.6 449.3,176.9 449.9,174.4 450.5,169.8 451.1,169.4 451.7,168.7 452.3,168.4 452.9,166.9 453.5,163.1 454.1,163.4 454.7,160.9 455.3,160.2 455.9,156.3 456.5,152.4 457.1,149.6 457.7,149.6 458.3,148.2 458.9,146.4 459.5,146.0 460.1,145.0 460.7,145.3 461.3,145.0 461.9,141.8 462.5,141.1 463.1,141.1 463.7,139.3 464.3,139.3 464.9,135.8 465.5,134.0 466.1,132.9 466.7,133.6 467.3,133.3 467.9,130.1 468.5,129.7 469.1,129.4 469.7,128.7 470.3,125.9 470.9,125.5 471.5,124.1 472.1,126.6 472.7,128.0 473.3,128.3 473.9,126.9 474.5,127.3 475.1,129.7 475.7,129.4 476.3,131.2 476.9,136.5 477.5,138.3 478.1,143.2 478.7,145.0 479.3,147.5 479.9,148.9 480.5,149.2 481.1,152.1 481.7,153.5 482.3,154.5 482.9,157.4 483.5,159.5 484.1,159.2 484.7,159.2 485.3,160.2 485.9,162.0 486.5,163.1 487.1,164.5 487.7,165.9 488.3,164.1 488.9,162.7 489.5,161.3 490.1,162.7 490.7,163.4 491.3,160.9 491.9,159.9 492.5,157.4 493.1,155.3 493.7,154.9 494.2,155.3 494.8,154.2 495.4,154.5 496.0,155.3 496.6,152.8 497.2,151.7 497.8,150.3 498.4,150.3 499.0,149.6 499.6,152.4 500.2,151.4 500.8,153.1 501.4,153.1 502.0,154.2 502.6,152.1 503.2,151.0 503.8,149.9 504.4,151.4 505.0,155.3 505.6,153.5 506.2,151.4 506.8,151.7 507.4,150.3 508.0,149.2 508.6,149.2 509.2,148.5 509.8,147.1 510.4,147.8 511.0,148.2 511.6,146.8 512.2,149.2 512.8,150.3 513.4,151.4 514.0,150.7 514.6,152.1 515.2,151.4 515.8,153.1 516.4,153.8 517.0,152.4 517.6,152.8 518.2,155.6 518.8,152.1 519.4,153.5 520.0,154.2 520.6,149.9 521.2,149.2 521.8,149.9 522.4,147.8 523.0,147.1 523.6,142.5 524.2,138.3 524.8,136.1 525.4,134.7 526.0,133.6 526.6,130.1 527.2,130.8 527.8,129.0 528.4,126.6 529.0,125.5 529.6,126.9 530.2,129.0 530.8,129.4 531.4,124.1 532.0,125.9 532.6,125.5 533.2,125.1 533.8,127.3 534.4,128.3 535.0,131.2 535.6,136.1 536.2,137.5 536.8,137.2 537.4,140.7 538.0,141.4 538.6,143.9 539.2,147.5 539.8,149.9 540.4,148.2 541.0,147.8 541.6,149.6 542.2,153.1 542.8,153.5 543.4,153.5 544.0,154.5 544.6,156.0 545.2,156.3 545.8,154.9 546.4,154.9 547.0,156.0 547.6,157.0 548.2,159.2 548.8,159.9 549.4,159.9 550.0,158.4 550.6,158.1 551.2,156.7 551.8,153.8 552.4,151.0 553.0,147.8 553.6,146.4 554.1,141.4 554.7,139.7 555.3,139.7 555.9,136.8 556.5,134.0 557.1,129.7 557.7,129.4 558.3,128.0 558.9,126.9 559.5,123.0 560.1,120.5 560.7,117.7 561.3,117.7 561.9,115.9 562.5,117.3 563.1,115.2 563.7,113.5 564.3,112.4 564.9,112.0 565.5,110.6 566.1,108.1 566.7,107.1 567.3,108.1 567.9,109.6 568.5,109.6 569.1,113.5 569.7,115.6 570.3,115.9 570.9,117.3 571.5,119.5 572.1,123.4 572.7,124.4 573.3,129.0 573.9,128.3 574.5,131.9 575.1,135.8 575.7,139.3 576.3,140.0 576.9,142.5 577.5,147.1 578.1,152.4 578.7,157.4 579.3,159.9 579.9,162.0 580.5,162.7 581.1,164.8 581.7,168.4 582.3,165.9 582.9,165.9 583.5,167.7 584.1,169.1 584.7,170.5 585.3,168.7 585.9,168.0 586.5,168.4 587.1,168.7 587.7,168.0 588.3,169.4 588.9,170.8 589.5,170.8 590.1,171.2 590.7,169.8 591.3,169.8 591.9,170.5 592.5,172.3 593.1,171.6 593.7,168.4 594.3,167.3 594.9,166.6 595.5,165.2 596.1,160.9 596.7,162.7 597.3,158.8 597.9,158.1 598.5,156.7 599.1,154.9 599.7,153.8 600.3,154.9 600.9,153.1 601.5,152.4 602.1,149.2 602.7,144.6 603.3,143.2 603.9,140.4 604.5,139.0 605.1,139.0 605.7,139.7 606.3,138.6 606.9,138.3 607.5,135.8 608.1,136.8 608.7,135.1 609.3,140.7 609.9,142.1 610.5,144.6 611.1,145.3 611.7,150.3 612.3,151.4 612.9,154.9 613.5,152.1 614.0,153.8 614.6,151.4 615.2,152.1 615.8,152.4 616.4,150.7 617.0,153.1 617.6,155.6 618.2,155.6 618.8,157.4 619.4,155.6 620.0,158.4 620.6,160.2 621.2,159.9 621.8,159.9 622.4,157.7 623.0,156.0 623.6,153.8 624.2,152.1 624.8,150.3 625.4,146.8 626.0,145.7 626.6,144.6 627.2,145.3 627.8,145.3 628.4,146.0 629.0,145.7 629.6,145.0 630.2,143.2 630.8,140.0 631.4,141.4 632.0,138.6 632.6,135.8 633.2,135.1 633.8,135.4 634.4,137.5 635.0,135.1 635.6,134.7 636.2,133.3 636.8,133.3 637.4,134.7 638.0,135.4 638.6,135.8 639.2,135.8 639.8,131.5 640.4,129.7 641.0,127.3 641.6,126.2 642.2,127.3 642.8,128.7 643.4,128.0 644.0,132.2"></path>
    <path stroke="#0060e5" class="data-series" d="M45.6,239.9 46.2,237.8 46.8,235.0 47.4,231.8 48.0,229.7 48.6,233.6 49.2,231.4 49.8,232.5 50.4,233.2 51.0,233.2 51.6,235.0 52.2,233.6 52.8,233.2 53.4,234.3 54.0,233.9 54.6,233.2 55.2,234.6 55.8,235.7 56.4,235.7 57.0,233.9 57.6,233.9 58.2,235.0 58.8,235.3 59.4,237.5 60.0,239.6 60.6,239.2 61.2,242.8 61.8,242.1 62.4,244.2 63.0,244.2 63.6,245.2 64.2,243.8 64.8,243.1 65.4,243.8 66.0,243.5 66.6,244.9 67.2,245.2 67.8,245.6 68.4,245.6 69.0,244.2 69.6,243.8 70.2,244.9 70.8,244.2 71.4,243.5 72.0,243.1 72.6,242.8 73.2,241.0 73.8,239.6 74.4,240.6 75.0,240.6 75.5,237.8 76.1,238.2 76.7,238.2 77.3,237.8 77.9,236.0 78.5,236.0 79.1,235.7 79.7,234.3 80.3,231.8 80.9,231.8 81.5,229.7 82.1,227.9 82.7,227.5 83.3,225.1 83.9,225.8 84.5,225.8 85.1,227.5 85.7,227.9 86.3,228.2 86.9,229.7 87.5,230.0 88.1,228.9 88.7,231.1 89.3,233.9 89.9,233.2 90.5,233.6 91.1,235.3 91.7,237.1 92.3,237.1 92.9,237.1 93.5,236.7 94.1,237.8 94.7,237.5 95.3,236.0 95.9,236.0 96.5,237.1 97.1,237.5 97.7,239.9 98.3,242.1 98.9,242.1 99.5,243.5 100.1,243.1 100.7,242.8 101.3,241.7 101.9,242.1 102.5,238.9 103.1,238.9 103.7,236.4 104.3,234.6 104.9,234.6 105.5,233.6 106.1,234.6 106.7,233.9 107.3,235.7 107.9,238.9 108.5,238.5 109.1,237.8 109.7,240.3 110.3,241.0 110.9,241.0 111.5,240.6 112.1,239.9 112.7,241.0 113.3,240.6 113.9,241.0 114.5,240.6 115.1,240.6 115.7,242.1 116.3,242.8 116.9,242.1 117.5,241.0 118.1,241.3 118.7,240.3 119.3,239.9 119.9,237.5 120.5,238.5 121.1,237.5 121.7,236.4 122.3,235.3 122.9,233.9 123.5,235.0 124.1,236.0 124.7,237.5 125.3,238.9 125.9,238.5 126.5,238.2 127.1,237.8 127.7,238.2 128.3,238.5 128.9,238.2 129.5,240.3 130.1,241.3 130.7,240.6 131.3,239.9 131.9,240.3 132.5,241.0 133.1,238.9 133.7,238.9 134.3,241.3 134.8,241.0 135.4,241.7 136.0,242.1 136.6,241.3 137.2,241.3 137.8,242.1 138.4,241.3 139.0,241.3 139.6,242.1 140.2,243.8 140.8,244.2 141.4,244.5 142.0,242.8 142.6,241.0 143.2,241.7 143.8,241.3 144.4,241.3 145.0,239.6 145.6,238.5 146.2,238.9 146.8,238.9 147.4,238.9 148.0,239.2 148.6,239.9 149.2,242.1 149.8,240.6 150.4,239.2 151.0,238.9 151.6,240.6 152.2,239.9 152.8,239.9 153.4,241.0 154.0,238.9 154.6,237.8 155.2,237.1 155.8,236.0 156.4,236.0 157.0,233.9 157.6,232.5 158.2,232.8 158.8,233.2 159.4,232.8 160.0,232.1 160.6,232.5 161.2,233.9 161.8,232.5 162.4,231.8 163.0,232.1 163.6,232.8 164.2,229.3 164.8,226.1 165.4,229.3 166.0,231.4 166.6,232.5 167.2,233.9 167.8,232.5 168.4,235.0 169.0,236.4 169.6,235.7 170.2,238.5 170.8,238.5 171.4,241.0 172.0,241.3 172.6,240.3 173.2,241.3 173.8,241.0 174.4,241.0 175.0,241.3 175.6,239.6 176.2,238.2 176.8,238.9 177.4,239.6 178.0,240.3 178.6,240.6 179.2,243.1 179.8,246.0 180.4,245.6 181.0,244.5 181.6,246.7 182.2,245.6 182.8,244.2 183.4,243.8 184.0,244.5 184.6,244.2 185.2,244.2 185.8,243.5 186.4,245.2 187.0,245.6 187.6,244.5 188.2,244.5 188.8,244.5 189.4,244.9 190.0,244.5 190.6,243.8 191.2,243.8 191.8,242.8 192.4,241.0 193.0,238.9 193.6,239.2 194.2,239.6 194.8,237.8 195.3,238.2 195.9,237.5 196.5,235.3 197.1,235.0 197.7,233.9 198.3,233.9 198.9,232.8 199.5,231.1 200.1,232.5 200.7,231.4 201.3,228.2 201.9,228.2 202.5,230.7 203.1,231.1 203.7,230.4 204.3,230.0 204.9,231.4 205.5,230.7 206.1,230.4 206.7,231.1 207.3,231.4 207.9,231.8 208.5,231.4 209.1,231.1 209.7,230.7 210.3,232.1 210.9,233.9 211.5,235.3 212.1,235.7 212.7,237.1 213.3,237.8 213.9,235.3 214.5,238.2 215.1,238.9 215.7,239.2 216.3,238.5 216.9,238.9 217.5,238.5 218.1,240.3 218.7,240.6 219.3,241.3 219.9,241.0 220.5,242.8 221.1,243.8 221.7,243.5 222.3,243.8 222.9,242.8 223.5,240.6 224.1,241.3 224.7,241.0 225.3,241.0 225.9,239.6 226.5,240.3 227.1,241.0 227.7,240.6 228.3,240.6 228.9,241.0 229.5,241.0 230.1,244.5 230.7,245.6 231.3,244.9 231.9,243.8 232.5,242.8 233.1,242.1 233.7,242.1 234.3,241.7 234.9,241.0 235.5,240.6 236.1,241.3 236.7,238.2 237.3,237.5 237.9,237.5 238.5,238.2 239.1,238.2 239.7,237.8 240.3,239.2 240.9,239.9 241.5,241.0 242.1,240.3 242.7,240.3 243.3,239.9 243.9,240.3 244.5,239.2 245.1,242.1 245.7,242.4 246.3,243.5 246.9,241.7 247.5,242.1 248.1,244.2 248.7,243.5 249.3,242.1 249.9,241.0 250.5,242.4 251.1,242.4 251.7,243.5 252.3,243.1 252.9,243.8 253.5,244.5 254.1,246.0 254.6,245.6 255.2,245.2 255.8,242.4 256.4,243.1 257.0,241.3 257.6,240.3 258.2,238.2 258.8,237.5 259.4,237.5 260.0,237.5 260.6,235.7 261.2,234.6 261.8,233.2 262.4,232.8 263.0,231.4 263.6,230.7 264.2,231.1 264.8,232.1 265.4,233.9 266.0,233.6 266.6,233.6 267.2,231.1 267.8,230.4 268.4,230.0 269.0,227.9 269.6,226.8 270.2,226.5 270.8,230.0 271.4,230.7 272.0,232.1 272.6,233.6 273.2,233.9 273.8,235.3 274.4,234.6 275.0,234.6 275.6,235.0 276.2,233.9 276.8,233.6 277.4,230.7 278.0,229.7 278.6,230.7 279.2,233.2 279.8,234.6 280.4,236.0 281.0,237.8 281.6,238.5 282.2,239.2 282.8,239.6 283.4,240.3 284.0,242.8 284.6,241.3 285.2,240.6 285.8,242.1 286.4,243.5 287.0,244.2 287.6,244.2 288.2,245.6 288.8,246.7 289.4,246.7 290.0,246.3 290.6,247.7 291.2,247.0 291.8,247.0 292.4,247.0 293.0,247.7 293.6,247.7 294.2,247.7 294.8,249.5 295.4,247.7 296.0,247.0 296.6,247.0 297.2,248.1 297.8,248.1 298.4,248.4 299.0,248.8 299.6,249.1 300.2,247.0 300.8,246.0 301.4,245.2 302.0,245.6 302.6,245.2 303.2,243.5 303.8,242.8 304.4,243.1 305.0,242.8 305.6,241.3 306.2,238.9 306.8,238.2 307.4,237.1 308.0,236.0 308.6,234.6 309.2,235.3 309.8,233.6 310.4,232.5 311.0,230.4 311.6,228.9 312.2,227.5 312.8,225.4 313.4,223.3 314.0,223.6 314.6,222.9 315.1,222.6 315.7,222.9 316.3,219.7 316.9,219.0 317.5,216.9 318.1,217.6 318.7,216.5 319.3,217.6 319.9,220.4 320.5,222.2 321.1,224.7 321.7,228.2 322.3,230.4 322.9,232.1 323.5,233.6 324.1,235.7 324.7,237.8 325.3,240.6 325.9,243.1 326.5,243.5 327.1,245.2 327.7,247.0 328.3,246.3 328.9,247.4 329.5,248.4 330.1,248.4 330.7,248.1 331.3,249.1 331.9,249.5 332.5,249.5 333.1,248.8 333.7,248.1 334.3,250.2 334.9,250.6 335.5,251.6 336.1,252.3 336.7,252.3 337.3,253.0 337.9,252.0 338.5,252.0 339.1,252.7 339.7,253.4 340.3,253.7 340.9,252.0 341.5,252.3 342.1,252.7 342.7,252.3 343.3,252.0 343.9,253.0 344.5,252.7 345.1,251.3 345.7,250.6 346.3,250.2 346.9,250.2 347.5,249.9 348.1,248.4 348.7,248.1 349.3,247.0 349.9,247.7 350.5,246.7 351.1,248.1 351.7,247.7 352.3,247.4 352.9,247.0 353.5,245.6 354.1,243.8 354.7,240.3 355.3,239.9 355.9,239.9 356.5,239.9 357.1,238.2 357.7,239.6 358.3,239.2 358.9,237.5 359.5,235.0 360.1,230.4 360.7,228.2 361.3,223.6 361.9,219.4 362.5,216.5 363.1,213.7 363.7,214.1 364.3,211.6 364.9,213.0 365.5,209.8 366.1,211.9 366.7,209.8 367.3,208.4 367.9,208.8 368.5,211.6 369.1,216.5 369.7,218.0 370.3,219.0 370.9,225.1 371.5,226.8 372.1,232.1 372.7,233.6 373.3,235.7 373.9,238.9 374.4,241.0 375.0,242.4 375.6,242.4 376.2,245.2 376.8,244.9 377.4,245.2 378.0,244.9 378.6,244.5 379.2,244.5 379.8,245.6 380.4,245.6 381.0,246.7 381.6,245.6 382.2,245.6 382.8,244.5 383.4,244.5 384.0,243.5 384.6,243.8 385.2,244.2 385.8,243.8 386.4,243.1 387.0,241.7 387.6,242.4 388.2,241.0 388.8,239.2 389.4,239.2 390.0,240.6 390.6,241.0 391.2,242.4 391.8,240.6 392.4,240.6 393.0,241.7 393.6,241.7 394.2,242.1 394.8,241.3 395.4,242.4 396.0,241.7 396.6,238.9 397.2,238.2 397.8,239.2 398.4,239.9 399.0,240.3 399.6,239.6 400.2,242.8 400.8,243.5 401.4,242.1 402.0,242.1 402.6,240.6 403.2,242.8 403.8,244.2 404.4,243.1 405.0,244.2 405.6,244.5 406.2,244.9 406.8,243.8 407.4,243.1 408.0,243.1 408.6,241.0 409.2,240.3 409.8,240.6 410.4,240.3 411.0,241.0 411.6,240.6 412.2,241.3 412.8,242.8 413.4,243.1 414.0,243.1 414.6,244.2 415.2,245.6 415.8,244.9 416.4,241.7 417.0,241.7 417.6,241.0 418.2,239.6 418.8,238.9 419.4,238.2 420.0,238.5 420.6,237.8 421.2,237.5 421.8,237.8 422.4,239.6 423.0,239.6 423.6,239.6 424.2,239.2 424.8,239.9 425.4,237.8 426.0,237.1 426.6,234.6 427.2,232.8 427.8,233.2 428.4,230.7 429.0,231.8 429.6,231.4 430.2,233.2 430.8,233.9 431.4,232.8 432.0,230.0 432.6,230.7 433.2,230.0 433.8,228.6 434.3,225.8 434.9,225.8 435.5,226.1 436.1,224.3 436.7,225.8 437.3,225.4 437.9,226.5 438.5,228.6 439.1,232.5 439.7,230.7 440.3,229.3 440.9,229.7 441.5,231.4 442.1,233.9 442.7,231.8 443.3,235.3 443.9,237.5 444.5,236.4 445.1,237.1 445.7,238.5 446.3,239.6 446.9,237.8 447.5,238.2 448.1,238.2 448.7,239.9 449.3,238.5 449.9,240.3 450.5,242.4 451.1,243.8 451.7,244.5 452.3,243.8 452.9,244.5 453.5,245.6 454.1,246.7 454.7,246.3 455.3,246.7 455.9,248.1 456.5,248.1 457.1,248.4 457.7,247.7 458.3,247.4 458.9,247.4 459.5,246.0 460.1,244.2 460.7,245.2 461.3,245.2 461.9,246.0 462.5,244.9 463.1,245.6 463.7,246.0 464.3,244.9 464.9,244.9 465.5,244.9 466.1,244.5 466.7,243.1 467.3,241.3 467.9,241.3 468.5,242.4 469.1,241.0 469.7,239.9 470.3,241.0 470.9,239.9 471.5,239.2 472.1,238.2 472.7,236.7 473.3,237.5 473.9,236.4 474.5,235.7 475.1,234.3 475.7,235.0 476.3,233.9 476.9,230.0 477.5,228.9 478.1,226.5 478.7,227.5 479.3,225.1 479.9,227.2 480.5,227.2 481.1,228.9 481.7,227.5 482.3,227.5 482.9,227.5 483.5,228.9 484.1,231.1 484.7,231.1 485.3,232.1 485.9,231.1 486.5,233.6 487.1,235.3 487.7,235.3 488.3,237.1 488.9,237.8 489.5,238.9 490.1,239.6 490.7,239.2 491.3,239.9 491.9,241.0 492.5,241.3 493.1,241.0 493.7,241.0 494.2,241.3 494.8,239.2 495.4,237.8 496.0,238.5 496.6,236.7 497.2,236.7 497.8,238.9 498.4,239.6 499.0,239.9 499.6,239.9 500.2,240.3 500.8,241.0 501.4,240.6 502.0,241.7 502.6,241.7 503.2,243.1 503.8,243.8 504.4,243.8 505.0,239.2 505.6,238.9 506.2,239.6 506.8,238.2 507.4,237.1 508.0,237.8 508.6,239.9 509.2,239.6 509.8,239.2 510.4,238.5 511.0,238.5 511.6,238.5 512.2,238.9 512.8,238.2 513.4,237.8 514.0,237.5 514.6,236.4 515.2,238.5 515.8,237.8 516.4,237.5 517.0,238.5 517.6,239.6 518.2,240.3 518.8,239.9 519.4,239.6 520.0,239.9 520.6,241.0 521.2,241.0 521.8,241.7 522.4,242.1 523.0,243.5 523.6,244.5 524.2,246.0 524.8,246.3 525.4,248.1 526.0,248.1 526.6,248.4 527.2,248.4 527.8,248.1 528.4,247.0 529.0,246.3 529.6,245.2 530.2,240.6 530.8,238.9 531.4,238.9 532.0,237.5 532.6,236.0 533.2,237.1 533.8,235.3 534.4,235.3 535.0,234.3 535.6,232.8 536.2,231.4 536.8,230.0 537.4,229.3 538.0,229.3 538.6,228.2 539.2,229.3 539.8,228.9 540.4,232.5 541.0,233.6 541.6,233.2 542.2,232.8 542.8,235.3 543.4,235.3 544.0,235.7 544.6,236.7 545.2,238.5 545.8,238.9 546.4,238.2 547.0,237.1 547.6,239.2 548.2,237.8 548.8,236.7 549.4,235.7 550.0,237.1 550.6,238.2 551.2,239.9 551.8,242.4 552.4,246.0 553.0,247.4 553.6,247.7 554.1,248.8 554.7,248.4 555.3,249.5 555.9,250.2 556.5,249.9 557.1,250.2 557.7,249.5 558.3,249.5 558.9,249.9 559.5,250.2 560.1,250.9 560.7,250.6 561.3,250.2 561.9,250.2 562.5,249.5 563.1,248.4 563.7,247.0 564.3,247.0 564.9,246.7 565.5,245.6 566.1,245.6 566.7,245.2 567.3,244.5 567.9,241.0 568.5,239.9 569.1,237.5 569.7,234.3 570.3,232.1 570.9,230.0 571.5,228.2 572.1,225.4 572.7,228.2 573.3,225.8 573.9,225.4 574.5,225.4 575.1,223.3 575.7,220.8 576.3,222.2 576.9,222.6 577.5,224.0 578.1,222.6 578.7,224.3 579.3,226.5 579.9,226.1 580.5,224.0 581.1,225.1 581.7,227.5 582.3,228.2 582.9,227.2 583.5,229.7 584.1,232.1 584.7,232.8 585.3,235.0 585.9,233.6 586.5,233.2 587.1,232.8 587.7,230.4 588.3,231.1 588.9,230.4 589.5,232.1 590.1,232.8 590.7,234.6 591.3,236.0 591.9,236.7 592.5,238.2 593.1,238.9 593.7,239.6 594.3,240.3 594.9,242.1 595.5,243.5 596.1,244.5 596.7,242.4 597.3,243.5 597.9,243.8 598.5,243.5 599.1,244.2 599.7,245.2 600.3,246.3 600.9,246.3 601.5,244.9 602.1,245.2 602.7,245.6 603.3,245.2 603.9,244.5 604.5,244.5 605.1,244.9 605.7,244.2 606.3,243.1 606.9,241.0 607.5,242.4 608.1,239.6 608.7,238.9 609.3,236.4 609.9,235.3 610.5,232.5 611.1,231.8 611.7,229.7 612.3,228.2 612.9,228.6 613.5,228.9 614.0,227.9 614.6,229.7 615.2,232.1 615.8,232.5 616.4,233.6 617.0,235.3 617.6,235.3 618.2,236.7 618.8,235.7 619.4,235.0 620.0,233.9 620.6,234.3 621.2,233.9 621.8,235.3 622.4,237.1 623.0,238.9 623.6,240.6 624.2,242.1 624.8,242.4 625.4,244.2 626.0,243.8 626.6,245.6 627.2,244.9 627.8,243.8 628.4,243.5 629.0,243.1 629.6,243.1 630.2,244.2 630.8,243.8 631.4,244.2 632.0,244.9 632.6,247.0 633.2,246.7 633.8,246.0 634.4,244.5 635.0,244.5 635.6,243.8 636.2,244.2 636.8,243.5 637.4,242.1 638.0,241.0 638.6,240.6 639.2,240.6 639.8,240.3 640.4,239.9 641.0,241.7 641.6,242.8 642.2,242.1 642.8,239.9 643.4,239.2 644.0,236.0"></path>
    <text y="105" x="640" text-anchor="end" fill="green">Food</text>
    <text y="208" x="640" text-anchor="end" fill="#0060e5">Creatures</text>
</svg>