<svg width="660" height="300" xmlns="http://www.w3.org/2000/svg">

<style>
  .background {
    fill: none;
  }
  .axis {
    stroke: #111;
    stroke-width: 1;
  }
  .axis-label {
    font-size: 14px;
    font-family: Arial;
    text-anchor: middle;
  }
  .axis-units {
    font-size: 10px;
    font-family: Arial;
  }
  .y-axis-text {
    text-anchor: end;
  }
  .x-axis-text {
    text-anchor: middle;
  }
  .gridlines {
    stroke: black;
    stroke-width: 0.3;
    fill: none;
    opacity: 0.5;
  }
  .data-series {
    stroke-width: 1.8;
    fill: none;
    opacity: 1;
  }
  </style>

    <text class="axis-label" x="344.5" y="290">Time (ticks)</text>
    <text class="axis-label" x="0" y="134.0" transform="translate(15.0) rotate(-90, 0, 134.0)">Population size</text>
    <line class="axis" x1="45" y1="258" x2="645" y2="258"></line>
    <line class="axis" x1="45" y1="258" x2="45" y2="10"></line>
    <g class="axis-units">
        <g class="x-axis-text">
            <text x="45.0" y="270">0</text>
            <text x="104.9" y="270">10K</text>
            <text x="164.8" y="270">20K</text>
            <text x="224.7" y="270">30K</text>
            <text x="284.6" y="270">40K</text>
            <text x="344.5" y="270">50K</text>
            <text x="404.4" y="270">60K</text>
            <text x="464.29999999999995" y="270">70K</text>
            <text x="524.2" y="270">80K</text>
            <text x="584.1" y="270">90K</text>
            <text x="644.0" y="270">100K</text>
        </g>
        <g class="y-axis-text">
            <text x="42" y="261.0">0</text>
            <text x="42" y="211.4">100</text>
            <text x="42" y="161.8">200</text>
            <text x="42" y="112.19999999999999">300</text>
            <text x="42" y="62.599999999999994">400</text>
            <text x="42" y="13.0">500</text>
        </g>
    </g>
    <g class="gridlines">
        <line x1="104.5" y1="258" x2="104.5" y2="10"></line>
        <line x1="164.5" y1="258" x2="164.5" y2="10"></line>
        <line x1="224.5" y1="258" x2="224.5" y2="10"></line>
        <line x1="284.5" y1="258" x2="284.5" y2="10"></line>
        <line x1="344.5" y1="258" x2="344.5" y2="10"></line>
        <line x1="404.5" y1="258" x2="404.5" y2="10"></line>
        <line x1="464.5" y1="258" x2="464.5" y2="10"></line>
        <line x1="524.5" y1="258" x2="524.5" y2="10"></line>
        <line x1="584.5" y1="258" x2="584.5" y2="10"></line>
        <line x1="644.5" y1="258" x2="644.5" y2="10"></line>
        <line x1="45" y1="208.5" x2="644" y2="208.5"></line>
        <line x1="45" y1="158.5" x2="644" y2="158.5"></line>
        <line x1="45" y1="109.5" x2="644" y2="109.5"></line>
        <line x1="45" y1="59.5" x2="644" y2="59.5"></line>
        <line x1="45" y1="10.5" x2="644" y2="10.5"></line>
    </g>
    <path class="data-series" stroke="green" d="M45.6,104.7 46.2,103.7 46.8,103.2 47.4,101.3 48.0,97.8 48.6,91.3 49.2,89.9 49.8,86.4 50.4,84.9 51.0,82.9 51.6,79.9 52.2,73.0 52.8,70.0 53.4,67.0 54.0,65.1 54.6,61.6 55.2,56.1 55.8,54.6 56.4,53.2 57.0,51.2 57.6,46.7 58.2,46.2 58.8,39.8 59.4,37.8 60.0,30.8 60.6,30.3 61.2,30.3 61.8,26.4 62.4,25.4 63.0,22.4 63.6,26.9 64.2,29.8 64.8,30.8 65.4,34.3 66.0,34.3 66.6,37.8 67.2,44.2 67.8,47.7 68.4,51.2 69.0,51.2 69.6,55.1 70.2,58.6 70.8,57.6 71.4,65.6 72.0,68.0 72.6,74.0 73.2,81.4 73.8,83.9 74.4,90.4 75.0,96.8 75.5,98.8 76.1,103.7 76.7,112.2 77.3,115.6 77.9,118.1 78.5,120.1 79.1,119.6 79.7,126.1 80.3,131.5 80.9,131.5 81.5,133.0 82.1,138.5 82.7,142.4 83.3,141.4 83.9,143.9 84.5,145.9 85.1,149.9 85.7,150.9 86.3,149.9 86.9,151.4 87.5,151.4 88.1,147.9 88.7,150.9 89.3,150.4 89.9,149.4 90.5,150.4 91.1,148.4 91.7,146.9 92.3,148.4 92.9,148.9 93.5,150.9 94.1,145.4 94.7,140.0 95.3,136.5 95.9,134.5 96.5,134.0 97.1,134.0 97.7,132.0 98.3,132.0 98.9,129.5 99.5,127.6 100.1,124.6 100.7,123.1 101.3,121.6 101.9,121.1 102.5,115.6 103.1,116.1 103.7,113.2 104.3,114.2 104.9,111.7 105.5,112.2 106.1,109.2 106.7,104.2 107.3,99.8 107.9,100.3 108.5,97.8 109.1,96.3 109.7,96.8 110.3,95.3 110.9,92.3 111.5,92.3 112.1,93.3 112.7,94.3 113.3,93.8 113.9,95.3 114.5,91.3 115.1,89.9 115.7,88.4 116.3,86.9 116.9,85.4 117.5,81.4 118.1,79.4 118.7,76.0 119.3,78.4 119.9,76.5 120.5,78.4 121.1,76.0 121.7,76.0 122.3,74.0 122.9,73.5 123.5,80.9 124.1,77.0 124.7,77.5 125.3,77.5 125.9,75.0 126.5,72.5 127.1,72.5 127.7,72.0 128.3,73.0 128.9,73.0 129.5,75.0 130.1,74.0 130.7,76.0 131.3,78.4 131.9,80.4 132.5,77.0 133.1,78.4 133.7,80.4 134.3,77.5 134.8,75.5 135.4,78.0 136.0,79.4 136.6,82.9 137.2,87.4 137.8,93.3 138.4,92.3 139.0,95.3 139.6,97.8 140.2,99.3 140.8,100.3 141.4,101.3 142.0,105.7 142.6,108.7 143.2,109.2 143.8,105.7 144.4,104.7 145.0,105.2 145.6,108.7 146.2,109.7 146.8,109.2 147.4,110.2 148.0,112.2 148.6,112.2 149.2,114.7 149.8,116.1 150.4,115.2 151.0,118.1 151.6,116.1 152.2,118.6 152.8,119.1 153.4,124.1 154.0,126.6 154.6,129.0 155.2,128.5 155.8,125.6 156.4,127.6 157.0,127.6 157.6,129.5 158.2,132.5 158.8,135.5 159.4,131.5 160.0,132.0 160.6,132.0 161.2,134.0 161.8,135.0 162.4,135.5 163.0,134.5 163.6,136.0 164.2,134.0 164.8,128.5 165.4,126.6 166.0,128.5 166.6,123.1 167.2,121.6 167.8,121.1 168.4,120.6 169.0,122.6 169.6,118.6 170.2,117.6 170.8,115.2 171.4,119.1 172.0,115.6 172.6,114.7 173.2,112.7 173.8,113.2 174.4,118.6 175.0,117.1 175.6,117.1 176.2,115.6 176.8,113.7 177.4,114.2 178.0,113.7 178.6,110.7 179.2,111.2 179.8,111.2 180.4,110.2 181.0,107.7 181.6,109.2 182.2,105.2 182.8,100.8 183.4,100.3 184.0,102.3 184.6,101.8 185.2,98.8 185.8,99.8 186.4,100.8 187.0,100.8 187.6,98.3 188.2,100.8 188.8,100.3 189.4,99.3 190.0,103.2 190.6,100.3 191.2,100.3 191.8,97.3 192.4,99.3 193.0,98.8 193.6,93.3 194.2,93.8 194.8,89.9 195.3,91.3 195.9,91.3 196.5,91.3 197.1,96.3 197.7,92.3 198.3,95.8 198.9,93.8 199.5,92.3 200.1,89.4 200.7,87.4 201.3,92.3 201.9,89.4 202.5,88.9 203.1,88.4 203.7,90.4 204.3,90.8 204.9,87.9 205.5,81.4 206.1,82.4 206.7,80.9 207.3,85.9 207.9,84.4 208.5,84.9 209.1,83.4 209.7,80.9 210.3,83.9 210.9,83.9 211.5,80.9 212.1,83.4 212.7,86.4 213.3,90.8 213.9,92.8 214.5,96.3 215.1,99.3 215.7,104.2 216.3,105.2 216.9,107.2 217.5,105.2 218.1,107.7 218.7,112.7 219.3,112.2 219.9,112.7 220.5,111.7 221.1,111.7 221.7,115.2 222.3,117.1 222.9,114.2 223.5,115.6 224.1,119.1 224.7,116.6 225.3,122.1 225.9,127.1 226.5,129.5 227.1,127.1 227.7,126.6 228.3,122.6 228.9,118.6 229.5,116.1 230.1,117.6 230.7,114.2 231.3,115.2 231.9,113.2 232.5,119.1 233.1,120.1 233.7,117.6 234.3,120.1 234.9,122.6 235.5,121.6 236.1,121.1 236.7,115.6 237.3,112.2 237.9,110.7 238.5,111.2 239.1,110.2 239.7,113.2 240.3,114.7 240.9,113.7 241.5,113.2 242.1,113.7 242.7,113.2 243.3,113.7 243.9,116.1 244.5,114.2 245.1,112.2 245.7,111.7 246.3,109.7 246.9,113.2 247.5,109.7 248.1,106.7 248.7,106.7 249.3,110.2 249.9,106.2 250.5,110.2 251.1,108.7 251.7,107.2 252.3,103.2 252.9,102.8 253.5,104.2 254.1,101.8 254.6,99.8 255.2,97.8 255.8,96.3 256.4,97.8 257.0,93.8 257.6,96.8 258.2,91.8 258.8,92.8 259.4,91.8 260.0,91.8 260.6,91.8 261.2,95.8 261.8,94.3 262.4,91.8 263.0,91.8 263.6,90.4 264.2,89.4 264.8,85.9 265.4,85.4 266.0,90.4 266.6,87.4 267.2,87.4 267.8,87.4 268.4,90.4 269.0,93.3 269.6,94.8 270.2,97.3 270.8,92.8 271.4,93.3 272.0,90.8 272.6,91.3 273.2,94.3 273.8,92.3 274.4,93.8 275.0,91.8 275.6,91.3 276.2,91.3 276.8,94.8 277.4,99.8 278.0,100.3 278.6,98.3 279.2,96.8 279.8,100.8 280.4,98.8 281.0,99.8 281.6,99.8 282.2,99.8 282.8,97.8 283.4,99.8 284.0,97.8 284.6,97.3 285.2,95.8 285.8,94.3 286.4,95.8 287.0,95.8 287.6,94.3 288.2,96.8 288.8,97.8 289.4,97.3 290.0,98.3 290.6,94.3 291.2,97.3 291.8,93.3 292.4,93.3 293.0,94.3 293.6,93.3 294.2,95.8 294.8,98.3 295.4,102.3 296.0,107.2 296.6,108.7 297.2,105.7 297.8,105.2 298.4,104.2 299.0,100.8 299.6,99.8 300.2,99.8 300.8,99.3 301.4,98.3 302.0,98.3 302.6,96.8 303.2,97.8 303.8,101.3 304.4,102.3 305.0,107.2 305.6,110.2 306.2,110.7 306.8,113.2 307.4,111.7 308.0,113.2 308.6,113.2 309.2,114.2 309.8,113.7 310.4,114.2 311.0,110.7 311.6,107.7 312.2,104.2 312.8,102.8 313.4,102.3 314.0,102.3 314.6,100.8 315.1,99.8 315.7,100.8 316.3,101.8 316.9,101.8 317.5,100.8 318.1,101.3 318.7,104.7 319.3,98.8 319.9,99.3 320.5,99.3 321.1,102.3 321.7,102.3 322.3,103.7 322.9,106.2 323.5,105.7 324.1,106.2 324.7,110.2 325.3,111.2 325.9,111.2 326.5,109.2 327.1,113.7 327.7,113.7 328.3,116.1 328.9,116.6 329.5,118.1 330.1,121.1 330.7,121.6 331.3,120.1 331.9,125.6 332.5,124.6 333.1,123.6 333.7,123.6 334.3,127.1 334.9,124.1 335.5,124.1 336.1,123.1 336.7,123.1 337.3,122.1 337.9,117.1 338.5,115.2 339.1,119.6 339.7,125.1 340.3,127.1 340.9,128.5 341.5,126.1 342.1,127.6 342.7,125.6 343.3,128.5 343.9,130.0 344.5,128.0 345.1,124.6 345.7,122.1 346.3,125.6 346.9,123.6 347.5,125.1 348.1,121.6 348.7,119.6 349.3,114.2 349.9,115.6 350.5,118.1 351.1,117.1 351.7,117.6 352.3,114.2 352.9,111.7 353.5,104.2 354.1,103.7 354.7,104.2 355.3,104.7 355.9,103.7 356.5,103.7 357.1,101.8 357.7,100.8 358.3,102.3 358.9,101.3 359.5,99.3 360.1,99.8 360.7,100.8 361.3,100.3 361.9,98.3 362.5,102.8 363.1,101.8 363.7,100.3 364.3,99.8 364.9,98.8 365.5,97.8 366.1,98.8 366.7,97.8 367.3,97.3 367.9,99.3 368.5,100.8 369.1,101.8 369.7,97.8 370.3,90.4 370.9,91.3 371.5,88.4 372.1,88.4 372.7,91.3 373.3,93.3 373.9,89.4 374.4,87.4 375.0,83.4 375.6,83.9 376.2,83.4 376.8,85.4 377.4,85.4 378.0,86.9 378.6,88.9 379.2,94.3 379.8,93.8 380.4,93.3 381.0,97.8 381.6,98.8 382.2,92.3 382.8,89.4 383.4,85.4 384.0,85.4 384.6,87.9 385.2,89.4 385.8,86.9 386.4,88.4 387.0,87.4 387.6,91.8 388.2,92.8 388.8,96.8 389.4,100.3 390.0,100.8 390.6,103.2 391.2,106.2 391.8,106.2 392.4,107.7 393.0,106.7 393.6,108.2 394.2,105.2 394.8,108.2 395.4,108.7 396.0,111.2 396.6,107.7 397.2,108.7 397.8,108.2 398.4,109.7 399.0,109.7 399.6,112.7 400.2,113.2 400.8,113.7 401.4,117.1 402.0,117.1 402.6,121.6 403.2,124.6 403.8,124.1 404.4,125.6 405.0,129.0 405.6,132.0 406.2,133.0 406.8,128.5 407.4,124.1 408.0,121.1 408.6,122.6 409.2,123.1 409.8,126.1 410.4,125.6 411.0,125.1 411.6,124.1 412.2,123.6 412.8,122.6 413.4,118.6 414.0,117.6 414.6,114.2 415.2,113.2 415.8,107.2 416.4,106.2 417.0,107.7 417.6,105.7 418.2,104.2 418.8,104.7 419.4,102.8 420.0,101.3 420.6,101.8 421.2,100.8 421.8,103.7 422.4,100.3 423.0,95.3 423.6,98.3 424.2,97.8 424.8,99.8 425.4,97.3 426.0,93.3 426.6,90.4 427.2,88.4 427.8,89.9 428.4,92.3 429.0,93.8 429.6,93.8 430.2,93.3 430.8,88.9 431.4,88.4 432.0,87.4 432.6,86.9 433.2,83.9 433.8,83.9 434.3,82.9 434.9,80.4 435.5,79.4 436.1,85.4 436.7,84.4 437.3,89.4 437.9,89.4 438.5,89.4 439.1,94.8 439.7,95.3 440.3,96.8 440.9,95.3 441.5,98.3 442.1,96.3 442.7,94.8 443.3,95.8 443.9,99.3 444.5,101.3 445.1,103.7 445.7,104.7 446.3,111.7 446.9,114.7 447.5,121.1 448.1,123.6 448.7,124.6 449.3,127.1 449.9,131.5 450.5,133.0 451.1,133.0 451.7,138.5 452.3,140.4 452.9,141.9 453.5,143.4 454.1,142.4 454.7,142.4 455.3,138.0 455.9,138.0 456.5,141.4 457.1,143.9 457.7,140.9 458.3,139.0 458.9,137.5 459.5,134.0 460.1,133.5 460.7,128.5 461.3,128.5 461.9,124.1 462.5,124.1 463.1,122.1 463.7,119.1 464.3,116.6 464.9,111.2 465.5,108.2 466.1,109.2 466.7,110.7 467.3,109.2 467.9,106.7 468.5,103.2 469.1,104.2 469.7,103.7 470.3,106.2 470.9,103.7 471.5,104.2 472.1,106.7 472.7,103.7 473.3,102.3 473.9,96.8 474.5,94.3 475.1,91.3 475.7,89.9 476.3,90.4 476.9,89.9 477.5,91.3 478.1,90.4 478.7,92.8 479.3,90.8 479.9,84.4 480.5,80.4 481.1,79.9 481.7,79.4 482.3,78.0 482.9,74.5 483.5,74.0 484.1,77.5 484.7,76.5 485.3,75.5 485.9,75.0 486.5,74.0 487.1,72.5 487.7,74.5 488.3,75.5 488.9,76.5 489.5,79.4 490.1,81.9 490.7,84.9 491.3,84.4 491.9,85.4 492.5,83.4 493.1,77.5 493.7,78.0 494.2,82.4 494.8,82.9 495.4,80.9 496.0,83.4 496.6,80.4 497.2,79.4 497.8,81.4 498.4,81.9 499.0,84.4 499.6,84.9 500.2,84.9 500.8,83.9 501.4,83.4 502.0,87.4 502.6,92.3 503.2,94.3 503.8,100.3 504.4,98.8 505.0,102.8 505.6,105.7 506.2,107.2 506.8,107.2 507.4,110.7 508.0,118.6 508.6,120.6 509.2,120.6 509.8,122.6 510.4,124.6 511.0,119.6 511.6,122.6 512.2,126.1 512.8,128.5 513.4,125.1 514.0,124.6 514.6,122.1 515.2,122.6 515.8,123.1 516.4,124.1 517.0,122.1 517.6,123.6 518.2,121.1 518.8,118.1 519.4,121.6 520.0,123.1 520.6,124.6 521.2,123.6 521.8,123.1 522.4,120.1 523.0,121.1 523.6,121.1 524.2,118.6 524.8,117.1 525.4,119.1 526.0,113.7 526.6,117.1 527.2,118.1 527.8,118.6 528.4,120.1 529.0,122.1 529.6,123.1 530.2,119.1 530.8,117.1 531.4,119.1 532.0,117.6 532.6,116.6 533.2,119.6 533.8,122.1 534.4,120.1 535.0,120.1 535.6,120.1 536.2,120.6 536.8,117.6 537.4,118.1 538.0,116.1 538.6,116.1 539.2,117.1 539.8,112.2 540.4,113.2 541.0,112.2 541.6,111.2 542.2,110.2 542.8,108.7 543.4,106.2 544.0,108.7 544.6,105.7 545.2,106.2 545.8,106.7 546.4,106.7 547.0,103.2 547.6,103.7 548.2,99.3 548.8,99.3 549.4,94.8 550.0,92.8 550.6,90.8 551.2,90.4 551.8,85.9 552.4,82.9 553.0,83.9 553.6,84.4 554.1,81.9 554.7,81.9 555.3,78.9 555.9,77.0 556.5,74.5 557.1,75.5 557.7,76.0 558.3,75.0 558.9,75.0 559.5,72.5 560.1,73.5 560.7,68.5 561.3,71.0 561.9,69.0 562.5,67.5 563.1,67.5 563.7,62.6 564.3,63.1 564.9,66.0 565.5,66.5 566.1,71.0 566.7,68.5 567.3,65.6 567.9,63.6 568.5,67.0 569.1,68.5 569.7,75.0 570.3,78.9 570.9,84.9 571.5,88.4 572.1,91.3 572.7,91.3 573.3,95.8 573.9,94.8 574.5,94.3 575.1,96.3 575.7,98.3 576.3,99.8 576.9,101.3 577.5,104.7 578.1,113.2 578.7,113.2 579.3,117.1 579.9,119.6 580.5,121.6 581.1,127.1 581.7,122.6 582.3,124.1 582.9,127.6 583.5,132.0 584.1,134.5 584.7,138.0 585.3,141.4 585.9,144.4 586.5,139.0 587.1,139.5 587.7,140.4 588.3,144.4 588.9,143.9 589.5,143.9 590.1,145.4 590.7,143.4 591.3,144.4 591.9,146.4 592.5,143.4 593.1,139.5 593.7,139.5 594.3,137.0 594.9,132.5 595.5,133.0 596.1,131.0 596.7,132.5 597.3,131.5 597.9,126.6 598.5,126.1 599.1,125.1 599.7,120.1 600.3,119.1 600.9,116.1 601.5,115.2 602.1,112.7 602.7,113.7 603.3,113.2 603.9,113.2 604.5,109.7 605.1,103.7 605.7,104.2 606.3,103.7 606.9,100.8 607.5,103.2 608.1,103.7 608.7,102.3 609.3,101.8 609.9,104.7 610.5,104.2 611.1,99.8 611.7,99.3 612.3,101.8 612.9,98.8 613.5,98.3 614.0,97.3 614.6,95.8 615.2,97.8 615.8,96.3 616.4,95.3 617.0,91.8 617.6,87.4 618.2,89.9 618.8,86.9 619.4,86.4 620.0,83.9 620.6,82.4 621.2,82.4 621.8,80.9 622.4,78.0 623.0,78.9 623.6,78.4 624.2,81.4 624.8,82.9 625.4,84.9 626.0,82.9 626.6,83.4 627.2,81.4 627.8,82.9 628.4,84.9 629.0,88.9 629.6,88.9 630.2,89.4 630.8,93.8 631.4,95.3 632.0,100.3 632.6,103.7 633.2,107.7 633.8,109.7 634.4,110.7 635.0,118.1 635.6,120.1 636.2,121.6 636.8,123.1 637.4,126.6 638.0,126.6 638.6,128.0 639.2,130.5 639.8,134.0 640.4,137.5 641.0,135.0 641.6,133.5 642.2,132.5 642.8,136.0 643.4,131.5 644.0,130.5"></path>
    <path class="data-series" stroke="#0060e5" d="M45.6,233.2 46.2,233.2 46.8,233.2 47.4,233.2 48.0,233.2 48.6,244.6 49.2,244.6 49.8,244.6 50.4,244.1 51.0,243.1 51.6,246.6 52.2,246.6 52.8,246.6 53.4,246.1 54.0,246.1 54.6,248.1 55.2,248.1 55.8,248.1 56.4,247.1 57.0,246.6 57.6,246.6 58.2,246.6 58.8,246.1 59.4,245.1 60.0,245.1 60.6,245.1 61.2,243.6 61.8,242.1 62.4,241.1 63.0,239.2 63.6,237.7 64.2,235.7 64.8,235.2 65.4,234.2 66.0,232.7 66.6,231.2 67.2,228.7 67.8,225.3 68.4,223.8 69.0,223.3 69.6,221.8 70.2,220.3 70.8,220.3 71.4,220.3 72.0,218.8 72.6,217.8 73.2,214.8 73.8,213.9 74.4,214.8 75.0,213.9 75.5,213.4 76.1,211.9 76.7,209.4 77.3,207.9 77.9,207.4 78.5,208.4 79.1,210.9 79.7,212.4 80.3,210.9 80.9,211.9 81.5,212.4 82.1,212.9 82.7,212.9 83.3,213.9 83.9,216.3 84.5,216.3 85.1,216.8 85.7,217.8 86.3,220.3 86.9,222.8 87.5,224.8 88.1,226.8 88.7,228.2 89.3,227.7 89.9,227.2 90.5,227.2 91.1,227.7 91.7,228.2 92.3,230.2 92.9,231.2 93.5,232.2 94.1,232.2 94.7,231.7 95.3,232.7 95.9,233.2 96.5,234.2 97.1,236.7 97.7,236.2 98.3,236.2 98.9,236.2 99.5,236.7 100.1,238.7 100.7,239.2 101.3,239.2 101.9,239.6 102.5,240.1 103.1,240.6 103.7,242.1 104.3,242.1 104.9,241.1 105.5,240.6 106.1,240.6 106.7,240.1 107.3,240.1 107.9,241.1 108.5,241.6 109.1,240.1 109.7,240.6 110.3,242.1 110.9,241.6 111.5,240.1 112.1,240.1 112.7,240.6 113.3,240.1 113.9,239.6 114.5,238.7 115.1,238.2 115.7,236.7 116.3,237.2 116.9,236.7 117.5,236.2 118.1,237.2 118.7,237.2 119.3,237.2 119.9,236.2 120.5,235.7 121.1,235.7 121.7,235.7 122.3,236.2 122.9,236.2 123.5,235.2 124.1,236.7 124.7,236.7 125.3,235.2 125.9,235.7 126.5,234.7 127.1,234.7 127.7,233.7 128.3,233.2 128.9,232.2 129.5,230.7 130.1,231.2 130.7,230.7 131.3,229.7 131.9,231.2 132.5,231.7 133.1,230.2 133.7,230.7 134.3,230.7 134.8,230.7 135.4,229.7 136.0,228.2 136.6,228.2 137.2,228.2 137.8,226.3 138.4,224.8 139.0,224.3 139.6,224.3 140.2,224.3 140.8,222.8 141.4,222.3 142.0,221.8 142.6,221.3 143.2,221.8 143.8,221.8 144.4,223.3 145.0,223.3 145.6,222.8 146.2,222.3 146.8,222.8 147.4,222.8 148.0,222.8 148.6,222.3 149.2,223.8 149.8,223.8 150.4,223.3 151.0,221.8 151.6,222.8 152.2,223.3 152.8,223.8 153.4,223.3 154.0,222.8 154.6,222.3 155.2,222.3 155.8,223.3 156.4,223.8 157.0,224.3 157.6,225.8 158.2,224.8 158.8,225.8 159.4,226.8 160.0,227.2 160.6,228.2 161.2,228.7 161.8,228.7 162.4,228.7 163.0,228.7 163.6,231.2 164.2,232.2 164.8,233.7 165.4,233.7 166.0,233.7 166.6,234.2 167.2,234.2 167.8,235.7 168.4,235.7 169.0,236.2 169.6,236.7 170.2,236.7 170.8,237.2 171.4,234.2 172.0,234.7 172.6,234.7 173.2,235.2 173.8,234.7 174.4,234.7 175.0,234.7 175.6,234.7 176.2,234.7 176.8,235.2 177.4,234.7 178.0,236.2 178.6,236.2 179.2,235.7 179.8,235.2 180.4,234.7 181.0,234.7 181.6,234.7 182.2,234.7 182.8,235.2 183.4,234.7 184.0,235.2 184.6,235.2 185.2,235.2 185.8,234.2 186.4,235.2 187.0,234.7 187.6,235.7 188.2,235.2 188.8,234.7 189.4,236.2 190.0,235.2 190.6,233.7 191.2,233.7 191.8,234.7 192.4,234.7 193.0,234.2 193.6,234.2 194.2,234.2 194.8,233.7 195.3,233.7 195.9,234.2 196.5,234.2 197.1,233.7 197.7,234.7 198.3,235.2 198.9,235.7 199.5,235.7 200.1,236.2 200.7,236.7 201.3,236.2 201.9,236.2 202.5,235.7 203.1,235.2 203.7,233.2 204.3,234.2 204.9,233.7 205.5,233.7 206.1,233.2 206.7,232.7 207.3,232.2 207.9,231.7 208.5,229.7 209.1,229.7 209.7,230.2 210.3,228.7 210.9,229.2 211.5,228.7 212.1,228.7 212.7,229.2 213.3,228.2 213.9,227.7 214.5,227.2 215.1,226.8 215.7,227.2 216.3,226.3 216.9,225.8 217.5,225.8 218.1,226.3 218.7,225.3 219.3,226.8 219.9,226.8 220.5,227.7 221.1,228.2 221.7,228.2 222.3,228.2 222.9,228.7 223.5,229.2 224.1,229.7 224.7,229.2 225.3,228.2 225.9,229.2 226.5,227.2 227.1,226.8 227.7,227.2 228.3,228.2 228.9,228.7 229.5,227.2 230.1,229.2 230.7,229.7 231.3,229.2 231.9,229.2 232.5,228.7 233.1,228.7 233.7,228.7 234.3,227.7 234.9,227.2 235.5,229.2 236.1,229.2 236.7,228.7 237.3,229.2 237.9,228.7 238.5,229.2 239.1,230.2 239.7,229.7 240.3,231.2 240.9,230.7 241.5,230.7 242.1,232.7 242.7,233.2 243.3,232.7 243.9,232.7 244.5,232.2 245.1,232.2 245.7,231.7 246.3,230.2 246.9,230.2 247.5,230.2 248.1,230.2 248.7,230.2 249.3,230.7 249.9,231.7 250.5,232.2 251.1,232.2 251.7,231.2 252.3,232.2 252.9,233.2 253.5,234.2 254.1,234.2 254.6,233.7 255.2,233.7 255.8,234.7 256.4,234.7 257.0,235.7 257.6,235.7 258.2,235.7 258.8,235.7 259.4,235.7 260.0,235.7 260.6,235.2 261.2,235.2 261.8,236.2 262.4,236.2 263.0,236.2 263.6,235.7 264.2,237.2 264.8,236.7 265.4,237.2 266.0,236.2 266.6,236.2 267.2,237.2 267.8,237.2 268.4,237.2 269.0,236.7 269.6,235.2 270.2,234.2 270.8,234.7 271.4,233.2 272.0,233.2 272.6,233.2 273.2,233.2 273.8,233.2 274.4,233.2 275.0,232.7 275.6,234.2 276.2,232.7 276.8,232.2 277.4,231.2 278.0,230.7 278.6,230.2 279.2,230.2 279.8,231.2 280.4,231.2 281.0,231.2 281.6,231.7 282.2,233.2 282.8,233.7 283.4,233.2 284.0,232.7 284.6,232.7 285.2,234.7 285.8,234.2 286.4,232.7 287.0,232.7 287.6,233.7 288.2,233.7 288.8,232.7 289.4,232.2 290.0,231.2 290.6,232.2 291.2,231.7 291.8,231.7 292.4,232.2 293.0,232.7 293.6,233.2 294.2,233.2 294.8,231.7 295.4,232.7 296.0,232.7 296.6,231.7 297.2,231.2 297.8,230.2 298.4,229.7 299.0,230.2 299.6,230.2 300.2,229.7 300.8,231.2 301.4,232.2 302.0,231.7 302.6,231.2 303.2,230.2 303.8,229.7 304.4,231.7 305.0,230.7 305.6,230.2 306.2,231.2 306.8,230.2 307.4,230.2 308.0,229.7 308.6,229.7 309.2,229.7 309.8,229.7 310.4,232.2 311.0,231.7 311.6,232.7 312.2,233.7 312.8,233.7 313.4,234.2 314.0,234.7 314.6,235.7 315.1,236.7 315.7,237.2 316.3,237.2 316.9,236.7 317.5,236.7 318.1,236.7 318.7,235.7 319.3,236.2 319.9,235.7 320.5,234.7 321.1,233.7 321.7,233.7 322.3,233.2 322.9,232.7 323.5,232.2 324.1,232.2 324.7,231.2 325.3,230.7 325.9,230.7 326.5,231.2 327.1,228.7 327.7,228.7 328.3,226.8 328.9,226.8 329.5,226.3 330.1,225.3 330.7,225.3 331.3,225.8 331.9,225.8 332.5,225.3 333.1,226.3 333.7,226.3 334.3,227.7 334.9,229.7 335.5,228.7 336.1,228.7 336.7,228.7 337.3,228.2 337.9,228.7 338.5,230.2 339.1,227.7 339.7,227.2 340.3,226.3 340.9,226.3 341.5,226.3 342.1,226.8 342.7,227.2 343.3,227.7 343.9,228.2 344.5,228.2 345.1,228.7 345.7,229.7 346.3,230.2 346.9,231.2 347.5,231.2 348.1,231.2 348.7,232.7 349.3,233.2 349.9,234.7 350.5,235.7 351.1,236.7 351.7,236.2 352.3,236.7 352.9,237.2 353.5,236.7 354.1,236.2 354.7,236.7 355.3,236.7 355.9,237.2 356.5,237.7 357.1,238.7 357.7,238.2 358.3,237.7 358.9,236.7 359.5,235.7 360.1,235.7 360.7,235.7 361.3,236.7 361.9,235.7 362.5,233.2 363.1,233.2 363.7,233.7 364.3,234.2 364.9,233.2 365.5,233.2 366.1,233.2 366.7,234.2 367.3,233.7 367.9,233.2 368.5,233.7 369.1,234.7 369.7,235.7 370.3,235.2 370.9,234.7 371.5,235.2 372.1,235.7 372.7,234.7 373.3,234.2 373.9,234.7 374.4,236.2 375.0,236.7 375.6,236.7 376.2,234.2 376.8,234.2 377.4,234.2 378.0,234.2 378.6,233.2 379.2,231.7 379.8,231.2 380.4,232.2 381.0,231.7 381.6,231.2 382.2,231.2 382.8,231.7 383.4,231.7 384.0,232.2 384.6,231.2 385.2,232.2 385.8,231.2 386.4,231.2 387.0,230.2 387.6,229.2 388.2,227.7 388.8,228.7 389.4,227.7 390.0,226.3 390.6,225.3 391.2,226.8 391.8,226.8 392.4,228.2 393.0,227.7 393.6,228.7 394.2,228.2 394.8,227.2 395.4,227.2 396.0,227.2 396.6,228.2 397.2,227.7 397.8,228.7 398.4,227.7 399.0,228.2 399.6,228.2 400.2,229.2 400.8,228.2 401.4,228.2 402.0,228.2 402.6,228.7 403.2,229.2 403.8,229.7 404.4,230.2 405.0,229.7 405.6,228.7 406.2,228.7 406.8,228.7 407.4,228.7 408.0,228.7 408.6,228.7 409.2,228.7 409.8,227.7 410.4,229.2 411.0,229.2 411.6,229.7 412.2,229.2 412.8,229.7 413.4,229.7 414.0,231.7 414.6,231.7 415.2,233.2 415.8,234.2 416.4,234.2 417.0,233.7 417.6,236.2 418.2,237.2 418.8,236.2 419.4,237.2 420.0,237.2 420.6,237.2 421.2,236.7 421.8,236.7 422.4,237.2 423.0,238.2 423.6,238.2 424.2,238.2 424.8,238.2 425.4,236.7 426.0,237.2 426.6,237.7 427.2,237.2 427.8,235.2 428.4,235.2 429.0,234.7 429.6,235.2 430.2,234.7 430.8,233.7 431.4,233.2 432.0,232.7 432.6,233.2 433.2,234.7 433.8,234.2 434.3,234.2 434.9,233.2 435.5,231.7 436.1,232.2 436.7,231.2 437.3,230.7 437.9,230.2 438.5,229.2 439.1,229.2 439.7,229.2 440.3,230.7 440.9,230.7 441.5,228.2 442.1,227.7 442.7,227.2 443.3,224.8 443.9,222.8 444.5,221.8 445.1,221.8 445.7,219.8 446.3,219.3 446.9,218.3 447.5,217.8 448.1,219.8 448.7,219.8 449.3,218.3 449.9,216.8 450.5,217.8 451.1,217.8 451.7,217.8 452.3,217.8 452.9,219.3 453.5,219.3 454.1,220.8 454.7,220.8 455.3,223.3 455.9,223.3 456.5,223.8 457.1,225.3 457.7,225.3 458.3,226.3 458.9,226.8 459.5,227.7 460.1,227.7 460.7,229.2 461.3,232.2 461.9,233.2 462.5,234.2 463.1,236.2 463.7,236.2 464.3,237.2 464.9,238.2 465.5,238.7 466.1,238.7 466.7,238.2 467.3,238.2 467.9,238.7 468.5,240.1 469.1,239.2 469.7,240.6 470.3,239.2 470.9,239.2 471.5,239.2 472.1,239.2 472.7,239.2 473.3,238.7 473.9,239.2 474.5,239.2 475.1,239.2 475.7,238.2 476.3,237.7 476.9,237.2 477.5,237.7 478.1,237.2 478.7,237.7 479.3,237.2 479.9,238.2 480.5,238.7 481.1,238.7 481.7,238.7 482.3,240.1 482.9,240.1 483.5,239.6 484.1,237.7 484.7,237.7 485.3,238.7 485.9,238.2 486.5,236.2 487.1,235.2 487.7,234.7 488.3,233.2 488.9,233.7 489.5,232.7 490.1,232.7 490.7,231.7 491.3,232.2 491.9,232.2 492.5,231.2 493.1,232.2 493.7,231.7 494.2,231.2 494.8,232.2 495.4,231.2 496.0,230.7 496.6,230.2 497.2,229.7 497.8,229.2 498.4,228.2 499.0,228.7 499.6,229.2 500.2,229.2 500.8,229.2 501.4,229.7 502.0,230.2 502.6,228.7 503.2,228.2 503.8,227.2 504.4,228.2 505.0,228.2 505.6,225.8 506.2,225.3 506.8,224.8 507.4,223.3 508.0,221.3 508.6,223.3 509.2,223.3 509.8,222.3 510.4,222.8 511.0,222.8 511.6,223.3 512.2,223.8 512.8,224.3 513.4,224.3 514.0,223.8 514.6,223.8 515.2,223.8 515.8,226.3 516.4,225.8 517.0,226.8 517.6,226.3 518.2,227.2 518.8,228.2 519.4,228.7 520.0,228.2 520.6,229.2 521.2,229.2 521.8,229.2 522.4,229.2 523.0,229.7 523.6,229.7 524.2,229.7 524.8,229.7 525.4,228.7 526.0,229.2 526.6,229.7 527.2,229.7 527.8,229.7 528.4,230.2 529.0,229.2 529.6,229.7 530.2,228.7 530.8,229.2 531.4,229.7 532.0,230.2 532.6,229.2 533.2,229.2 533.8,229.2 534.4,229.2 535.0,229.2 535.6,230.7 536.2,230.2 536.8,230.7 537.4,230.2 538.0,231.2 538.6,232.7 539.2,232.7 539.8,234.2 540.4,234.2 541.0,233.7 541.6,235.2 542.2,234.7 542.8,235.7 543.4,235.2 544.0,233.7 544.6,235.2 545.2,234.2 545.8,234.7 546.4,235.2 547.0,236.7 547.6,236.7 548.2,237.7 548.8,238.2 549.4,238.7 550.0,238.2 550.6,237.2 551.2,237.2 551.8,237.7 552.4,238.2 553.0,237.7 553.6,236.7 554.1,237.7 554.7,239.2 555.3,238.2 555.9,239.2 556.5,238.7 557.1,238.2 557.7,238.2 558.3,237.7 558.9,237.7 559.5,237.7 560.1,237.2 560.7,236.7 561.3,236.2 561.9,235.2 562.5,235.2 563.1,235.2 563.7,234.7 564.3,234.7 564.9,234.2 565.5,233.2 566.1,232.7 566.7,232.2 567.3,232.2 567.9,230.2 568.5,229.2 569.1,227.7 569.7,225.8 570.3,224.3 570.9,222.3 571.5,222.8 572.1,222.3 572.7,221.8 573.3,220.3 573.9,220.8 574.5,220.3 575.1,219.3 575.7,217.3 576.3,215.3 576.9,214.8 577.5,214.4 578.1,213.4 578.7,212.9 579.3,214.8 579.9,215.3 580.5,216.3 581.1,215.8 581.7,216.8 582.3,216.8 582.9,217.3 583.5,217.8 584.1,216.3 584.7,217.3 585.3,217.3 585.9,217.3 586.5,218.8 587.1,217.8 587.7,219.3 588.3,219.8 588.9,221.3 589.5,221.8 590.1,222.3 590.7,223.3 591.3,224.8 591.9,226.3 592.5,226.3 593.1,226.8 593.7,229.2 594.3,230.2 594.9,230.2 595.5,229.7 596.1,229.7 596.7,232.7 597.3,233.2 597.9,233.2 598.5,233.2 599.1,233.7 599.7,235.7 600.3,235.7 600.9,235.2 601.5,236.7 602.1,237.7 602.7,237.7 603.3,237.2 603.9,237.2 604.5,239.2 605.1,239.2 605.7,238.2 606.3,240.1 606.9,240.6 607.5,240.6 608.1,240.6 608.7,239.6 609.3,239.2 609.9,239.2 610.5,238.7 611.1,238.7 611.7,236.7 612.3,236.2 612.9,235.7 613.5,235.7 614.0,235.7 614.6,236.7 615.2,235.2 615.8,235.7 616.4,235.7 617.0,234.7 617.6,235.7 618.2,236.2 618.8,235.2 619.4,235.2 620.0,235.2 620.6,234.7 621.2,233.2 621.8,232.7 622.4,233.2 623.0,232.7 623.6,232.7 624.2,231.2 624.8,231.2 625.4,230.2 626.0,230.2 626.6,230.7 627.2,230.7 627.8,229.7 628.4,227.7 629.0,226.8 629.6,223.8 630.2,221.8 630.8,221.3 631.4,221.8 632.0,219.8 632.6,219.3 633.2,218.8 633.8,218.3 634.4,218.8 635.0,217.8 635.6,217.3 636.2,217.3 636.8,217.8 637.4,216.8 638.0,218.3 638.6,218.3 639.2,219.8 639.8,218.8 640.4,216.8 641.0,217.8 641.6,219.3 642.2,219.3 642.8,218.8 643.4,219.8 644.0,220.3"></path>
    <text text-anchor="end" fill="green" x="640" y="105">Food</text>
    <text text-anchor="end" fill="#0060e5" x="640" y="208">Creatures</text>
</svg>