<svg width="760" height="360" xmlns="http://www.w3.org/2000/svg">

<style>
  .background {
    fill: none;
  }
  .axis {
    stroke: #111;
    stroke-width: 1;
  }
  .axis-label {
    text-anchor: middle;
  }
  .axis-units {
    font-size: 10px;
    font-family: Arial;
  }
  .y-axis-text {
    text-anchor: end;
  }
  .x-axis-text {
    text-anchor: middle;
  }
  .gridlines {
    stroke: black;
    stroke-width: 0.3;
    fill: none;
    opacity: 0.5;
  }
  .series-red {
    color: #ae5d40;
  }
  .series-green {
    color: #4f7754;
  }
  .series-blue {
    color: #433a60;
  }
  .data-series {
    fill: none;
    opacity: 0.9;
    stroke: currentColor;
    stroke-width: 1.8;
  }
  </style>

    <text class="axis-label" x="397.5" y="345">Time (1000 ticks)</text>
    <text class="axis-label" x="0" y="162.5" transform="translate(20.0) rotate(-90, 0, 162.5)">Population size</text>
    <line class="axis" x1="55" y1="310" x2="741" y2="310"></line>
    <line class="axis" x1="55" y1="310" x2="55" y2="15"></line>
    <g class="axis-units">
        <g class="x-axis-text">
            <text x="55.0" y="322">0</text>
            <text x="123.5" y="322">10</text>
            <text x="192.0" y="322">20</text>
            <text x="260.5" y="322">30</text>
            <text x="329.0" y="322">40</text>
            <text x="397.5" y="322">50</text>
            <text x="466.0" y="322">60</text>
            <text x="534.5" y="322">70</text>
            <text x="603.0" y="322">80</text>
            <text x="671.5" y="322">90</text>
            <text x="740.0" y="322">100</text>
        </g>
        <g class="y-axis-text">
            <text x="52" y="313.0">0</text>
            <text x="52" y="270.85714285714283">100</text>
            <text x="52" y="228.71428571428572">200</text>
            <text x="52" y="186.57142857142856">300</text>
            <text x="52" y="144.42857142857142">400</text>
            <text x="52" y="102.28571428571428">500</text>
            <text x="52" y="60.14285714285714">600</text>
            <text x="52" y="18.0">700</text>
        </g>
    </g>
    <g class="gridlines">
        <line x1="123.5" y1="310" x2="123.5" y2="15"></line>
        <line x1="192.5" y1="310" x2="192.5" y2="15"></line>
        <line x1="260.5" y1="310" x2="260.5" y2="15"></line>
        <line x1="329.5" y1="310" x2="329.5" y2="15"></line>
        <line x1="397.5" y1="310" x2="397.5" y2="15"></line>
        <line x1="466.5" y1="310" x2="466.5" y2="15"></line>
        <line x1="534.5" y1="310" x2="534.5" y2="15"></line>
        <line x1="603.5" y1="310" x2="603.5" y2="15"></line>
        <line x1="671.5" y1="310" x2="671.5" y2="15"></line>
        <line x1="740.5" y1="310" x2="740.5" y2="15"></line>
        <line x1="55" y1="267.5" x2="740" y2="267.5"></line>
        <line x1="55" y1="225.5" x2="740" y2="225.5"></line>
        <line x1="55" y1="183.5" x2="740" y2="183.5"></line>
        <line x1="55" y1="141.5" x2="740" y2="141.5"></line>
        <line x1="55" y1="99.5" x2="740" y2="99.5"></line>
        <line x1="55" y1="57.5" x2="740" y2="57.5"></line>
        <line x1="55" y1="15.5" x2="740" y2="15.5"></line>
    </g>
    <path class="data-series series-green" d="M55.7,224.0 56.4,221.9 57.1,219.4 57.7,215.2 58.4,211.4 59.1,210.5 59.8,208.0 60.5,205.5 61.2,201.3 61.9,195.8 62.5,192.8 63.2,189.5 63.9,186.5 64.6,182.7 65.3,176.0 66.0,171.3 66.6,167.6 67.3,162.1 68.0,158.3 68.7,152.8 69.4,147.3 70.1,145.6 70.8,137.6 71.4,134.7 72.1,130.1 72.8,125.4 73.5,122.9 74.2,118.2 74.9,111.1 75.5,107.3 76.2,105.2 76.9,101.4 77.6,98.9 78.3,95.1 79.0,86.2 79.7,80.3 80.3,73.6 81.0,70.2 81.7,66.4 82.4,63.0 83.1,58.8 83.8,56.7 84.5,54.6 85.1,52.1 85.8,47.9 86.5,44.9 87.2,44.1 87.9,41.6 88.6,39.4 89.2,36.1 89.9,37.3 90.6,34.8 91.3,34.0 92.0,29.3 92.7,28.5 93.4,23.4 94.0,20.5 94.7,20.9 95.4,23.9 96.1,27.2 96.8,30.6 97.5,34.4 98.2,41.6 98.8,54.2 99.5,69.4 100.2,79.5 100.9,101.8 101.6,114.0 102.3,130.9 103.0,149.9 103.6,172.6 104.3,190.3 105.0,198.3 105.7,213.5 106.4,220.7 107.1,227.0 107.7,229.9 108.4,235.0 109.1,241.3 109.8,243.4 110.5,243.4 111.2,242.2 111.9,246.4 112.5,243.4 113.2,240.0 113.9,240.9 114.6,234.6 115.3,237.5 116.0,235.4 116.7,232.0 117.3,233.3 118.0,228.2 118.7,226.6 119.4,225.7 120.1,225.7 120.8,223.2 121.4,219.8 122.1,214.8 122.8,211.4 123.5,208.0 124.2,201.3 124.9,200.0 125.6,198.3 126.2,196.2 126.9,194.5 127.6,192.8 128.3,187.8 129.0,183.6 129.7,181.0 130.4,177.7 131.0,174.3 131.7,173.0 132.4,170.1 133.1,166.7 133.8,165.4 134.5,162.5 135.1,157.4 135.8,156.2 136.5,152.0 137.2,149.0 137.9,144.0 138.6,143.5 139.3,141.8 139.9,141.0 140.6,139.7 141.3,135.9 142.0,133.0 142.7,128.4 143.4,127.5 144.1,124.2 144.7,122.5 145.4,119.5 146.1,119.1 146.8,118.7 147.5,116.1 148.2,114.0 148.8,111.5 149.5,111.5 150.2,109.8 150.9,113.6 151.6,114.9 152.3,118.7 153.0,117.8 153.6,116.6 154.3,120.4 155.0,119.9 155.7,121.2 156.4,125.0 157.1,129.6 157.8,133.0 158.4,138.5 159.1,144.0 159.8,152.8 160.5,154.1 161.2,157.9 161.9,163.8 162.5,169.2 163.2,175.6 163.9,184.8 164.6,191.2 165.3,197.1 166.0,205.9 166.7,213.1 167.3,217.7 168.0,220.7 168.7,225.3 169.4,226.6 170.1,227.8 170.8,228.2 171.4,227.8 172.1,229.1 172.8,231.2 173.5,229.1 174.2,227.8 174.9,228.7 175.6,222.3 176.2,220.2 176.9,218.6 177.6,219.4 178.3,216.4 179.0,218.1 179.7,213.1 180.4,209.3 181.0,208.0 181.7,209.3 182.4,205.1 183.1,202.1 183.8,197.5 184.5,195.4 185.2,192.8 185.8,192.0 186.5,191.2 187.2,186.5 187.9,182.3 188.6,178.9 189.3,178.5 189.9,176.0 190.6,172.6 191.3,170.5 192.0,170.9 192.7,167.1 193.4,169.2 194.1,170.9 194.7,171.3 195.4,172.2 196.1,171.8 196.8,176.8 197.5,176.4 198.2,179.8 198.8,184.0 199.5,182.3 200.2,187.4 200.9,188.6 201.6,189.1 202.3,191.6 203.0,190.3 203.6,189.9 204.3,191.2 205.0,188.2 205.7,188.6 206.4,192.0 207.1,192.0 207.8,189.5 208.4,186.9 209.1,190.3 209.8,192.4 210.5,190.3 211.2,188.2 211.9,188.6 212.6,189.1 213.2,192.8 213.9,191.6 214.6,194.1 215.3,193.3 216.0,194.5 216.7,194.5 217.3,194.9 218.0,196.2 218.7,194.5 219.4,194.1 220.1,191.6 220.8,195.4 221.5,192.0 222.1,191.6 222.8,188.2 223.5,188.2 224.2,186.5 224.9,184.4 225.6,183.2 226.2,182.7 226.9,176.0 227.6,179.4 228.3,178.1 229.0,177.2 229.7,175.1 230.4,170.5 231.0,168.4 231.7,167.1 232.4,168.4 233.1,170.5 233.8,167.6 234.5,166.3 235.2,165.0 235.8,164.2 236.5,164.2 237.2,163.8 237.9,163.8 238.6,162.9 239.3,162.1 240.0,160.8 240.6,160.8 241.3,162.9 242.0,164.2 242.7,166.3 243.4,165.4 244.1,166.3 244.7,168.8 245.4,169.2 246.1,171.8 246.8,172.2 247.5,172.6 248.2,176.8 248.9,182.7 249.5,183.6 250.2,186.1 250.9,186.9 251.6,188.2 252.3,190.7 253.0,195.4 253.7,202.5 254.3,205.5 255.0,206.8 255.7,210.1 256.4,212.2 257.1,212.2 257.8,212.2 258.4,216.0 259.1,219.4 259.8,219.8 260.5,219.0 261.2,221.5 261.9,222.3 262.6,219.0 263.2,219.0 263.9,218.6 264.6,216.4 265.3,213.1 266.0,211.0 266.7,204.2 267.4,200.4 268.0,197.9 268.7,197.1 269.4,194.5 270.1,189.9 270.8,185.3 271.5,183.2 272.1,179.8 272.8,178.1 273.5,174.7 274.2,173.0 274.9,169.2 275.6,170.1 276.3,165.4 276.9,161.2 277.6,158.3 278.3,155.3 279.0,153.2 279.7,149.0 280.4,146.5 281.1,142.7 281.7,139.7 282.4,136.4 283.1,135.9 283.8,133.4 284.5,133.4 285.2,127.5 285.8,124.6 286.5,120.8 287.2,121.2 287.9,117.0 288.6,111.1 289.3,110.2 290.0,111.1 290.6,111.9 291.3,109.4 292.0,111.1 292.7,114.0 293.4,118.2 294.1,122.9 294.8,126.3 295.4,129.2 296.1,132.6 296.8,137.2 297.5,145.6 298.2,148.6 298.9,155.3 299.5,164.6 300.2,170.9 300.9,176.8 301.6,185.7 302.3,197.9 303.0,200.4 303.7,208.4 304.3,216.0 305.0,219.0 305.7,218.6 306.4,223.2 307.1,229.5 307.8,232.9 308.5,234.6 309.1,230.8 309.8,229.9 310.5,230.8 311.2,231.6 311.9,231.6 312.6,229.9 313.2,227.4 313.9,227.4 314.6,224.9 315.3,224.0 316.0,221.5 316.7,218.1 317.4,215.2 318.0,211.4 318.7,210.1 319.4,208.4 320.1,205.5 320.8,205.1 321.5,203.4 322.2,197.9 322.8,194.5 323.5,190.7 324.2,185.7 324.9,183.2 325.6,181.5 326.3,178.9 326.9,176.0 327.6,174.3 328.3,172.6 329.0,168.0 329.7,162.9 330.4,159.1 331.1,160.0 331.7,158.3 332.4,156.2 333.1,152.0 333.8,147.8 334.5,143.5 335.2,142.3 335.9,135.5 336.5,133.4 337.2,131.3 337.9,129.6 338.6,128.4 339.3,126.7 340.0,122.5 340.6,119.1 341.3,116.6 342.0,113.6 342.7,112.8 343.4,117.8 344.1,120.8 344.8,122.0 345.4,125.0 346.1,126.7 346.8,132.2 347.5,132.6 348.2,135.1 348.9,140.2 349.6,146.9 350.2,157.0 350.9,158.3 351.6,160.4 352.3,166.3 353.0,173.0 353.7,175.6 354.3,180.6 355.0,186.5 355.7,187.4 356.4,192.0 357.1,202.5 357.8,201.3 358.5,203.4 359.1,203.0 359.8,205.1 360.5,206.3 361.2,206.8 361.9,210.1 362.6,211.0 363.2,212.7 363.9,211.8 364.6,214.3 365.3,213.9 366.0,211.0 366.7,207.6 367.4,206.3 368.0,205.9 368.7,204.2 369.4,203.8 370.1,203.0 370.8,203.8 371.5,202.5 372.2,202.1 372.8,202.1 373.5,199.2 374.2,197.9 374.9,197.1 375.6,198.3 376.3,197.5 376.9,199.2 377.6,196.6 378.3,195.4 379.0,196.2 379.7,196.2 380.4,193.3 381.1,192.8 381.7,191.2 382.4,189.1 383.1,190.3 383.8,188.6 384.5,185.7 385.2,185.7 385.9,186.1 386.5,183.2 387.2,181.0 387.9,178.5 388.6,177.7 389.3,175.1 390.0,174.3 390.7,173.9 391.3,174.3 392.0,173.9 392.7,172.6 393.4,172.2 394.1,170.9 394.8,168.0 395.4,166.3 396.1,163.8 396.8,163.8 397.5,161.7 398.2,160.4 398.9,160.4 399.6,162.9 400.2,158.7 400.9,157.9 401.6,157.9 402.3,160.4 403.0,160.8 403.7,158.3 404.4,154.1 405.0,149.9 405.7,149.0 406.4,149.4 407.1,153.2 407.8,154.9 408.5,155.8 409.1,158.3 409.8,161.2 410.5,166.7 411.2,170.5 411.9,174.7 412.6,178.1 413.3,176.8 413.9,177.7 414.6,177.7 415.3,178.5 416.0,178.9 416.7,178.1 417.4,180.6 418.1,183.2 418.7,186.5 419.4,186.5 420.1,189.5 420.8,185.7 421.5,186.1 422.2,189.1 422.8,189.5 423.5,189.5 424.2,188.2 424.9,189.1 425.6,187.8 426.3,186.5 427.0,184.8 427.6,184.8 428.3,186.5 429.0,190.7 429.7,188.6 430.4,189.5 431.1,190.7 431.8,188.6 432.4,192.8 433.1,191.6 433.8,193.3 434.5,193.7 435.2,192.0 435.9,191.6 436.5,189.1 437.2,187.8 437.9,186.1 438.6,186.5 439.3,180.2 440.0,178.9 440.7,176.0 441.3,176.0 442.0,175.6 442.7,172.6 443.4,171.3 444.1,168.0 444.8,167.1 445.4,168.4 446.1,165.4 446.8,163.3 447.5,162.5 448.2,160.8 448.9,162.1 449.6,161.7 450.2,159.6 450.9,157.4 451.6,156.2 452.3,158.3 453.0,158.7 453.7,156.2 454.4,154.1 455.0,152.4 455.7,148.2 456.4,147.3 457.1,146.1 457.8,144.4 458.5,145.6 459.2,144.4 459.8,146.5 460.5,148.2 461.2,148.6 461.9,144.0 462.6,144.4 463.3,144.4 463.9,148.6 464.6,149.4 465.3,150.7 466.0,154.9 466.7,155.3 467.4,157.4 468.1,160.0 468.7,162.1 469.4,160.8 470.1,169.2 470.8,173.9 471.5,176.0 472.2,178.1 472.9,182.3 473.5,189.1 474.2,192.8 474.9,198.3 475.6,197.9 476.3,201.3 477.0,203.8 477.6,202.1 478.3,201.7 479.0,200.8 479.7,200.4 480.4,200.4 481.1,205.9 481.8,207.2 482.4,210.5 483.1,215.6 483.8,213.9 484.5,216.9 485.2,216.4 485.9,216.9 486.6,215.2 487.2,212.7 487.9,208.9 488.6,208.0 489.3,205.9 490.0,200.4 490.7,202.1 491.3,199.6 492.0,197.9 492.7,196.2 493.4,190.7 494.1,189.5 494.8,186.5 495.5,185.3 496.1,183.2 496.8,182.3 497.5,179.8 498.2,178.5 498.9,178.5 499.6,174.7 500.2,173.5 500.9,168.0 501.6,166.3 502.3,165.9 503.0,164.6 503.7,162.5 504.4,160.0 505.0,158.7 505.7,156.2 506.4,154.1 507.1,149.9 507.8,149.0 508.5,147.8 509.2,146.9 509.8,146.1 510.5,147.3 511.2,146.9 511.9,148.6 512.6,147.3 513.3,149.4 514.0,149.9 514.6,151.5 515.3,154.1 516.0,152.4 516.7,154.5 517.4,155.3 518.1,160.0 518.7,158.3 519.4,154.5 520.1,155.8 520.8,160.0 521.5,158.3 522.2,163.3 522.9,161.7 523.5,170.5 524.2,167.1 524.9,167.6 525.6,173.5 526.3,174.3 527.0,180.2 527.7,181.5 528.3,187.8 529.0,188.2 529.7,190.3 530.4,192.0 531.1,189.9 531.8,191.2 532.4,195.4 533.1,192.8 533.8,195.4 534.5,195.4 535.2,194.5 535.9,192.4 536.6,189.9 537.2,189.1 537.9,187.8 538.6,189.1 539.3,188.2 540.0,186.1 540.7,186.1 541.4,185.3 542.0,189.9 542.7,190.3 543.4,190.7 544.1,192.8 544.8,194.9 545.5,198.3 546.1,199.6 546.8,194.9 547.5,194.5 548.2,193.3 548.9,197.5 549.6,199.6 550.3,198.3 550.9,197.5 551.6,194.9 552.3,192.8 553.0,191.2 553.7,192.8 554.4,190.7 555.0,187.8 555.7,187.8 556.4,185.7 557.1,186.1 557.8,184.4 558.5,179.4 559.2,178.5 559.8,176.4 560.5,175.1 561.2,173.5 561.9,173.0 562.6,172.6 563.3,173.0 564.0,170.1 564.6,169.2 565.3,168.0 566.0,166.3 566.7,164.2 567.4,164.2 568.1,162.5 568.8,162.5 569.4,158.7 570.1,159.6 570.8,159.6 571.5,161.2 572.2,162.9 572.9,163.3 573.5,165.9 574.2,166.7 574.9,165.4 575.6,165.4 576.3,169.2 577.0,170.1 577.7,174.7 578.3,174.7 579.0,177.7 579.7,177.2 580.4,182.3 581.1,185.3 581.8,190.3 582.5,195.8 583.1,193.7 583.8,197.1 584.5,199.6 585.2,198.7 585.9,203.0 586.6,203.4 587.2,203.0 587.9,204.2 588.6,207.2 589.3,207.2 590.0,202.5 590.7,200.8 591.4,197.5 592.0,194.5 592.7,188.2 593.4,185.7 594.1,184.0 594.8,184.4 595.5,184.4 596.1,184.8 596.8,186.5 597.5,183.6 598.2,184.0 598.9,176.8 599.6,174.7 600.3,172.2 600.9,173.5 601.6,172.2 602.3,171.8 603.0,174.7 603.7,174.7 604.4,175.6 605.1,173.9 605.7,170.5 606.4,167.6 607.1,163.8 607.8,161.2 608.5,160.8 609.2,156.2 609.9,153.2 610.5,153.7 611.2,153.2 611.9,150.3 612.6,149.4 613.3,145.2 614.0,141.8 614.6,142.3 615.3,141.8 616.0,143.5 616.7,144.4 617.4,144.4 618.1,149.9 618.8,150.3 619.4,153.2 620.1,155.3 620.8,157.4 621.5,163.3 622.2,168.8 622.9,173.9 623.6,177.2 624.2,181.0 624.9,180.6 625.6,181.9 626.3,185.7 627.0,191.6 627.7,193.7 628.3,197.9 629.0,200.8 629.7,205.5 630.4,211.4 631.1,212.2 631.8,213.5 632.5,213.1 633.1,212.2 633.8,212.7 634.5,213.1 635.2,210.1 635.9,209.3 636.6,209.7 637.2,211.4 637.9,212.2 638.6,211.8 639.3,208.9 640.0,207.6 640.7,205.1 641.4,203.0 642.0,198.7 642.7,199.2 643.4,199.6 644.1,199.6 644.8,196.2 645.5,192.0 646.2,188.6 646.8,182.7 647.5,179.8 648.2,176.0 648.9,173.9 649.6,170.1 650.3,167.1 651.0,164.6 651.6,161.7 652.3,157.9 653.0,154.9 653.7,150.3 654.4,145.2 655.1,142.7 655.7,141.0 656.4,139.3 657.1,134.7 657.8,133.4 658.5,130.5 659.2,130.1 659.9,130.1 660.5,127.5 661.2,124.2 661.9,122.5 662.6,122.0 663.3,120.8 664.0,115.7 664.6,112.3 665.3,111.5 666.0,110.7 666.7,111.5 667.4,112.3 668.1,112.8 668.8,114.0 669.4,109.8 670.1,111.5 670.8,115.3 671.5,114.5 672.2,116.6 672.9,122.5 673.6,127.1 674.2,128.8 674.9,136.4 675.6,140.2 676.3,143.1 677.0,149.0 677.7,154.1 678.4,157.9 679.0,160.8 679.7,169.7 680.4,172.6 681.1,178.9 681.8,178.9 682.5,184.4 683.1,189.5 683.8,191.2 684.5,197.1 685.2,198.3 685.9,202.5 686.6,203.4 687.3,204.6 687.9,207.2 688.6,209.3 689.3,207.6 690.0,208.0 690.7,205.9 691.4,205.9 692.1,205.9 692.7,206.3 693.4,205.1 694.1,204.6 694.8,203.4 695.5,204.6 696.2,206.8 696.8,205.9 697.5,205.1 698.2,204.2 698.9,203.4 699.6,201.3 700.3,202.1 701.0,200.8 701.6,196.2 702.3,194.5 703.0,194.5 703.7,197.1 704.4,194.5 705.1,195.8 705.8,197.1 706.4,194.5 707.1,194.1 707.8,193.7 708.5,190.7 709.2,190.7 709.9,190.3 710.5,192.0 711.2,189.9 711.9,186.9 712.6,183.6 713.3,181.0 714.0,179.4 714.7,179.8 715.3,178.5 716.0,176.0 716.7,172.2 717.4,170.5 718.1,165.9 718.8,164.6 719.5,164.2 720.1,162.5 720.8,162.1 721.5,162.5 722.2,161.2 722.9,159.1 723.6,157.9 724.2,154.9 724.9,154.5 725.6,155.8 726.3,155.3 727.0,156.2 727.7,153.2 728.4,157.4 729.0,154.5 729.7,152.4 730.4,150.7 731.1,152.4 731.8,156.6 732.5,154.9 733.1,158.3 733.8,163.3 734.5,163.3 735.2,167.1 735.9,170.9 736.6,176.8 737.3,178.5 737.9,181.0 738.6,184.0 739.3,187.8 740.0,187.8"></path>
    <path class="data-series series-blue" d="M55.7,305.8 56.4,305.8 57.1,305.8 57.7,305.4 58.4,305.4 59.1,307.1 59.8,307.1 60.5,307.1 61.2,306.6 61.9,306.6 62.5,307.5 63.2,307.5 63.9,307.1 64.6,306.6 65.3,306.2 66.0,307.1 66.6,307.1 67.3,307.1 68.0,308.3 68.7,308.7 69.4,308.3 70.1,307.9 70.8,307.9 71.4,307.9 72.1,307.9 72.8,307.5 73.5,307.5 74.2,307.5 74.9,307.5 75.5,306.6 76.2,306.2 76.9,306.2 77.6,307.1 78.3,307.1 79.0,307.1 79.7,307.9 80.3,307.9 81.0,307.9 81.7,307.5 82.4,308.3 83.1,307.9 83.8,307.5 84.5,306.6 85.1,305.8 85.8,305.4 86.5,304.1 87.2,302.0 87.9,302.4 88.6,302.0 89.2,302.0 89.9,300.7 90.6,300.7 91.3,300.3 92.0,299.5 92.7,299.0 93.4,299.0 94.0,295.7 94.7,294.8 95.4,292.3 96.1,287.2 96.8,284.7 97.5,280.1 98.2,273.8 98.8,264.9 99.5,258.2 100.2,253.9 100.9,241.3 101.6,234.1 102.3,225.3 103.0,218.6 103.6,213.1 104.3,204.6 105.0,208.0 105.7,208.4 106.4,211.8 107.1,216.9 107.7,226.6 108.4,233.7 109.1,238.4 109.8,247.2 110.5,256.9 111.2,264.5 111.9,267.0 112.5,273.3 113.2,278.8 113.9,282.6 114.6,286.8 115.3,288.9 116.0,288.5 116.7,290.2 117.3,291.0 118.0,294.4 118.7,295.2 119.4,296.1 120.1,298.6 120.8,299.5 121.4,299.0 122.1,299.0 122.8,299.5 123.5,300.7 124.2,300.3 124.9,303.7 125.6,305.4 126.2,304.9 126.9,305.8 127.6,306.2 128.3,306.2 129.0,306.2 129.7,305.8 130.4,304.9 131.0,305.4 131.7,304.9 132.4,303.7 133.1,303.7 133.8,303.7 134.5,304.1 135.1,303.3 135.8,302.8 136.5,301.6 137.2,300.7 137.9,300.3 138.6,300.7 139.3,300.7 139.9,299.9 140.6,299.0 141.3,299.0 142.0,297.4 142.7,296.9 143.4,297.4 144.1,299.0 144.7,296.9 145.4,295.7 146.1,296.1 146.8,296.9 147.5,295.2 148.2,293.1 148.8,293.1 149.5,290.6 150.2,288.9 150.9,287.7 151.6,287.2 152.3,282.6 153.0,280.1 153.6,278.4 154.3,275.9 155.0,275.0 155.7,272.5 156.4,273.3 157.1,274.2 157.8,273.8 158.4,270.4 159.1,270.0 159.8,267.9 160.5,266.2 161.2,263.6 161.9,262.8 162.5,262.8 163.2,259.9 163.9,256.5 164.6,253.9 165.3,254.8 166.0,256.1 166.7,253.9 167.3,254.8 168.0,257.7 168.7,259.9 169.4,264.1 170.1,266.6 170.8,270.8 171.4,274.6 172.1,275.0 172.8,280.1 173.5,283.4 174.2,284.7 174.9,286.8 175.6,290.6 176.2,291.9 176.9,293.6 177.6,292.3 178.3,294.4 179.0,294.4 179.7,294.4 180.4,295.7 181.0,296.1 181.7,296.9 182.4,297.4 183.1,298.2 183.8,298.6 184.5,299.0 185.2,299.5 185.8,298.6 186.5,298.6 187.2,298.6 187.9,298.6 188.6,298.6 189.3,299.0 189.9,298.6 190.6,298.6 191.3,298.6 192.0,298.2 192.7,296.1 193.4,293.1 194.1,292.3 194.7,289.4 195.4,288.5 196.1,287.7 196.8,283.9 197.5,284.7 198.2,282.2 198.8,280.9 199.5,280.9 200.2,278.8 200.9,279.7 201.6,280.5 202.3,281.8 203.0,281.8 203.6,281.8 204.3,281.8 205.0,280.5 205.7,280.9 206.4,279.7 207.1,279.2 207.8,280.1 208.4,280.1 209.1,280.9 209.8,282.6 210.5,284.3 211.2,283.9 211.9,285.1 212.6,285.1 213.2,285.1 213.9,284.3 214.6,283.0 215.3,284.7 216.0,284.7 216.7,284.3 217.3,285.1 218.0,284.3 218.7,286.8 219.4,287.7 220.1,288.1 220.8,288.5 221.5,288.5 222.1,291.5 222.8,291.5 223.5,292.3 224.2,291.5 224.9,292.7 225.6,292.3 226.2,292.7 226.9,293.6 227.6,294.4 228.3,294.8 229.0,293.1 229.7,293.1 230.4,293.1 231.0,293.6 231.7,293.6 232.4,294.4 233.1,294.0 233.8,294.0 234.5,294.8 235.2,294.0 235.8,294.0 236.5,293.6 237.2,294.0 237.9,293.1 238.6,293.6 239.3,293.1 240.0,291.0 240.6,291.0 241.3,288.9 242.0,286.8 242.7,285.1 243.4,286.0 244.1,286.4 244.7,286.0 245.4,285.1 246.1,283.9 246.8,282.2 247.5,281.8 248.2,278.8 248.9,278.4 249.5,278.8 250.2,277.6 250.9,278.4 251.6,278.4 252.3,279.2 253.0,277.6 253.7,277.1 254.3,274.6 255.0,273.8 255.7,273.8 256.4,272.9 257.1,274.2 257.8,274.2 258.4,275.0 259.1,276.7 259.8,278.8 260.5,279.7 261.2,281.3 261.9,283.0 262.6,287.2 263.2,289.4 263.9,289.8 264.6,292.7 265.3,294.8 266.0,296.1 266.7,297.4 267.4,297.4 268.0,300.3 268.7,301.1 269.4,301.1 270.1,301.1 270.8,302.4 271.5,302.4 272.1,302.4 272.8,300.7 273.5,299.0 274.2,299.9 274.9,300.3 275.6,300.7 276.3,301.1 276.9,301.6 277.6,303.3 278.3,302.4 279.0,302.0 279.7,301.1 280.4,303.3 281.1,302.0 281.7,301.1 282.4,302.0 283.1,302.0 283.8,302.0 284.5,302.4 285.2,304.5 285.8,303.3 286.5,302.8 287.2,300.3 287.9,298.6 288.6,298.2 289.3,297.4 290.0,295.2 290.6,294.0 291.3,293.1 292.0,290.2 292.7,286.4 293.4,283.4 294.1,279.7 294.8,278.4 295.4,276.7 296.1,273.8 296.8,271.2 297.5,267.4 298.2,266.2 298.9,265.8 299.5,264.1 300.2,261.5 300.9,259.0 301.6,255.6 302.3,251.0 303.0,248.1 303.7,247.2 304.3,248.1 305.0,249.3 305.7,256.1 306.4,260.7 307.1,263.2 307.8,267.0 308.5,269.5 309.1,273.8 309.8,277.1 310.5,278.4 311.2,282.6 311.9,283.9 312.6,285.6 313.2,287.7 313.9,287.7 314.6,290.6 315.3,292.3 316.0,296.5 316.7,296.9 317.4,296.5 318.0,296.9 318.7,297.4 319.4,298.2 320.1,299.0 320.8,299.0 321.5,301.1 322.2,303.3 322.8,303.3 323.5,303.7 324.2,302.4 324.9,302.4 325.6,302.0 326.3,300.7 326.9,302.0 327.6,301.6 328.3,301.6 329.0,300.3 329.7,301.6 330.4,301.6 331.1,297.8 331.7,297.4 332.4,299.0 333.1,298.6 333.8,296.9 334.5,297.4 335.2,298.6 335.9,299.5 336.5,299.9 337.2,298.6 337.9,297.4 338.6,298.6 339.3,297.8 340.0,297.4 340.6,299.5 341.3,299.0 342.0,299.5 342.7,298.2 343.4,295.7 344.1,292.7 344.8,289.8 345.4,287.2 346.1,283.9 346.8,279.7 347.5,277.6 348.2,274.6 348.9,273.8 349.6,272.9 350.2,270.4 350.9,268.3 351.6,266.6 352.3,264.5 353.0,262.4 353.7,262.0 354.3,264.5 355.0,262.0 355.7,263.2 356.4,262.8 357.1,265.3 357.8,266.6 358.5,270.4 359.1,272.1 359.8,272.5 360.5,275.9 361.2,276.3 361.9,278.0 362.6,280.1 363.2,281.8 363.9,282.6 364.6,283.0 365.3,285.1 366.0,287.7 366.7,286.4 367.4,285.6 368.0,286.8 368.7,288.9 369.4,288.5 370.1,288.9 370.8,289.4 371.5,289.8 372.2,289.8 372.8,291.0 373.5,291.0 374.2,291.5 374.9,293.1 375.6,293.6 376.3,291.9 376.9,289.8 377.6,289.4 378.3,287.7 379.0,286.4 379.7,285.6 380.4,288.1 381.1,288.1 381.7,290.2 382.4,291.5 383.1,291.9 383.8,292.7 384.5,294.4 385.2,296.1 385.9,295.7 386.5,294.8 387.2,295.7 387.9,297.4 388.6,298.2 389.3,296.5 390.0,296.1 390.7,294.8 391.3,295.2 392.0,294.4 392.7,294.4 393.4,293.1 394.1,293.1 394.8,293.1 395.4,294.4 396.1,294.8 396.8,295.2 397.5,297.8 398.2,296.5 398.9,294.4 399.6,292.3 400.2,291.0 400.9,289.4 401.6,288.9 402.3,291.0 403.0,289.8 403.7,289.4 404.4,289.8 405.0,288.5 405.7,288.1 406.4,285.6 407.1,285.6 407.8,287.7 408.5,286.4 409.1,285.1 409.8,284.7 410.5,280.1 411.2,279.2 411.9,278.0 412.6,278.4 413.3,278.4 413.9,278.4 414.6,277.6 415.3,277.6 416.0,278.4 416.7,281.3 417.4,281.8 418.1,282.6 418.7,279.2 419.4,282.2 420.1,280.1 420.8,279.2 421.5,278.4 422.2,282.2 422.8,285.1 423.5,285.1 424.2,285.1 424.9,285.1 425.6,288.1 426.3,287.2 427.0,288.1 427.6,286.8 428.3,286.4 429.0,283.9 429.7,283.4 430.4,283.0 431.1,283.9 431.8,285.1 432.4,283.0 433.1,283.0 433.8,281.8 434.5,282.2 435.2,283.9 435.9,286.0 436.5,288.5 437.2,288.5 437.9,288.5 438.6,290.2 439.3,291.9 440.0,294.4 440.7,296.5 441.3,294.4 442.0,296.1 442.7,296.9 443.4,296.5 444.1,294.8 444.8,297.4 445.4,296.1 446.1,295.7 446.8,295.2 447.5,296.5 448.2,296.1 448.9,294.4 449.6,293.1 450.2,290.2 450.9,289.8 451.6,291.5 452.3,289.4 453.0,289.4 453.7,289.8 454.4,291.9 455.0,292.3 455.7,292.3 456.4,291.9 457.1,293.6 457.8,294.4 458.5,292.7 459.2,292.7 459.8,291.5 460.5,290.2 461.2,290.6 461.9,289.4 462.6,290.2 463.3,288.1 463.9,288.1 464.6,287.2 465.3,283.9 466.0,281.3 466.7,280.9 467.4,281.3 468.1,278.8 468.7,275.4 469.4,277.1 470.1,274.6 470.8,272.5 471.5,270.8 472.2,267.0 472.9,268.3 473.5,265.8 474.2,264.9 474.9,264.1 475.6,265.3 476.3,267.0 477.0,267.4 477.6,267.0 478.3,271.2 479.0,274.6 479.7,274.2 480.4,278.0 481.1,277.6 481.8,273.3 482.4,270.4 483.1,270.0 483.8,272.5 484.5,274.6 485.2,278.0 485.9,279.7 486.6,283.0 487.2,282.6 487.9,286.4 488.6,288.1 489.3,287.2 490.0,288.5 490.7,289.8 491.3,290.2 492.0,291.9 492.7,291.9 493.4,294.4 494.1,296.5 494.8,297.4 495.5,297.8 496.1,297.4 496.8,298.6 497.5,298.6 498.2,299.0 498.9,298.6 499.6,299.0 500.2,299.0 500.9,299.5 501.6,300.3 502.3,300.3 503.0,299.5 503.7,298.2 504.4,298.6 505.0,298.2 505.7,298.2 506.4,297.4 507.1,297.4 507.8,296.5 508.5,297.4 509.2,295.7 509.8,294.4 510.5,291.5 511.2,291.9 511.9,291.0 512.6,288.9 513.3,288.1 514.0,288.9 514.6,289.4 515.3,285.6 516.0,285.6 516.7,285.6 517.4,286.8 518.1,282.2 518.7,282.2 519.4,282.2 520.1,279.7 520.8,279.7 521.5,283.0 522.2,283.9 522.9,280.9 523.5,279.7 524.2,278.8 524.9,278.0 525.6,276.7 526.3,275.4 527.0,275.9 527.7,274.6 528.3,272.9 529.0,271.6 529.7,270.4 530.4,270.0 531.1,273.8 531.8,275.9 532.4,275.0 533.1,276.3 533.8,280.1 534.5,280.9 535.2,280.9 535.9,283.9 536.6,283.9 537.2,286.4 537.9,287.2 538.6,286.4 539.3,288.5 540.0,290.2 540.7,288.9 541.4,288.1 542.0,286.4 542.7,286.8 543.4,286.0 544.1,283.0 544.8,282.6 545.5,283.4 546.1,282.2 546.8,282.2 547.5,281.8 548.2,283.9 548.9,283.9 549.6,286.0 550.3,286.4 550.9,288.9 551.6,289.4 552.3,291.0 553.0,290.6 553.7,289.8 554.4,293.1 555.0,293.1 555.7,291.0 556.4,292.3 557.1,293.6 557.8,292.7 558.5,295.2 559.2,296.5 559.8,296.9 560.5,297.4 561.2,296.1 561.9,296.5 562.6,295.7 563.3,294.4 564.0,293.6 564.6,292.7 565.3,294.0 566.0,294.8 566.7,295.2 567.4,296.1 568.1,295.2 568.8,294.4 569.4,294.4 570.1,291.5 570.8,287.7 571.5,285.1 572.2,282.2 572.9,279.7 573.5,277.6 574.2,277.6 574.9,278.4 575.6,277.6 576.3,278.0 577.0,280.1 577.7,278.4 578.3,276.7 579.0,275.0 579.7,276.3 580.4,276.7 581.1,275.9 581.8,275.4 582.5,272.5 583.1,272.9 583.8,273.8 584.5,272.9 585.2,274.2 585.9,278.0 586.6,278.8 587.2,280.9 587.9,282.6 588.6,280.5 589.3,280.5 590.0,279.7 590.7,281.8 591.4,282.6 592.0,286.4 592.7,289.4 593.4,292.3 594.1,291.9 594.8,292.3 595.5,292.7 596.1,293.6 596.8,292.7 597.5,294.0 598.2,293.1 598.9,294.4 599.6,294.4 600.3,294.8 600.9,294.4 601.6,293.1 602.3,291.0 603.0,288.5 603.7,289.4 604.4,289.4 605.1,290.2 605.7,291.9 606.4,292.7 607.1,296.5 607.8,297.8 608.5,297.4 609.2,298.6 609.9,299.0 610.5,299.5 611.2,296.9 611.9,297.8 612.6,297.8 613.3,295.7 614.0,295.2 614.6,292.3 615.3,293.6 616.0,291.5 616.7,289.4 617.4,288.1 618.1,284.7 618.8,282.2 619.4,280.1 620.1,279.2 620.8,275.9 621.5,272.9 622.2,270.8 622.9,268.3 623.6,270.0 624.2,267.9 624.9,270.0 625.6,272.5 626.3,272.9 627.0,269.5 627.7,267.9 628.3,270.0 629.0,270.4 629.7,269.1 630.4,267.4 631.1,270.4 631.8,272.9 632.5,274.2 633.1,277.6 633.8,282.2 634.5,283.0 635.2,282.6 635.9,283.0 636.6,284.3 637.2,285.1 637.9,286.8 638.6,286.4 639.3,289.4 640.0,288.5 640.7,288.9 641.4,291.0 642.0,291.9 642.7,293.6 643.4,292.3 644.1,296.1 644.8,295.2 645.5,295.2 646.2,298.6 646.8,300.7 647.5,302.4 648.2,303.3 648.9,304.5 649.6,304.1 650.3,303.3 651.0,303.7 651.6,304.5 652.3,304.1 653.0,304.9 653.7,305.4 654.4,305.4 655.1,304.9 655.7,304.1 656.4,304.1 657.1,304.1 657.8,302.8 658.5,302.0 659.2,299.5 659.9,299.0 660.5,298.6 661.2,298.2 661.9,298.2 662.6,298.2 663.3,298.6 664.0,298.2 664.6,299.0 665.3,297.8 666.0,296.9 666.7,295.2 667.4,294.8 668.1,292.7 668.8,291.9 669.4,291.0 670.1,290.2 670.8,288.9 671.5,287.7 672.2,285.1 672.9,283.0 673.6,278.0 674.2,277.6 674.9,273.8 675.6,270.0 676.3,267.4 677.0,270.4 677.7,269.5 678.4,267.4 679.0,269.1 679.7,263.2 680.4,262.4 681.1,263.2 681.8,262.4 682.5,262.0 683.1,261.1 683.8,267.4 684.5,267.9 685.2,271.2 685.9,269.5 686.6,270.4 687.3,271.2 687.9,271.6 688.6,275.0 689.3,277.6 690.0,281.8 690.7,283.4 691.4,285.6 692.1,286.0 692.7,286.8 693.4,290.6 694.1,290.2 694.8,289.4 695.5,287.7 696.2,285.6 696.8,285.6 697.5,287.7 698.2,288.1 698.9,286.8 699.6,289.4 700.3,291.0 701.0,291.0 701.6,289.4 702.3,288.9 703.0,288.9 703.7,288.1 704.4,288.5 705.1,289.4 705.8,288.9 706.4,288.9 707.1,291.0 707.8,289.8 708.5,290.6 709.2,290.6 709.9,290.2 710.5,290.6 711.2,292.3 711.9,291.9 712.6,292.7 713.3,293.1 714.0,292.7 714.7,293.6 715.3,294.0 716.0,293.6 716.7,293.1 717.4,291.9 718.1,293.6 718.8,295.2 719.5,294.8 720.1,295.2 720.8,296.1 721.5,295.2 722.2,294.4 722.9,294.0 723.6,292.7 724.2,294.8 724.9,294.4 725.6,293.6 726.3,294.0 727.0,292.3 727.7,292.7 728.4,288.5 729.0,286.4 729.7,286.8 730.4,283.4 731.1,281.3 731.8,279.2 732.5,278.8 733.1,277.6 733.8,275.4 734.5,276.3 735.2,274.6 735.9,273.3 736.6,268.7 737.3,267.9 737.9,269.1 738.6,271.6 739.3,270.8 740.0,272.5"></path>
    <text text-anchor="end" fill="currentColor" class="series-green" x="736" y="140">Food</text>
    <text text-anchor="end" fill="currentColor" class="series-blue" x="740" y="255">Creatures</text>
</svg>