<svg width="660" xmlns="http://www.w3.org/2000/svg" height="300">

<style>
  .data-series {
    opacity: 1;
    stroke-width: 1.8;
    fill: none;
  }
  .axis {
    stroke: #111;
    stroke-width: 1;
  }
  .y-axis-text {
    text-anchor: end;
  }
  .background {
    fill: none;
  }
  .axis-units {
    font-size: 10px;
    font-family: Arial;
  }
  .gridlines {
    opacity: 0.5;
    stroke: black;
    stroke-width: 0.3;
    fill: none;
  }
  .x-axis-text {
    text-anchor: middle;
  }
  .axis-label {
    font-size: 14px;
    font-family: Arial;
    text-anchor: middle;
  }
  </style>

    <text y="290" x="344.5" class="axis-label">Time (ticks)</text>
    <text y="134.0" x="0" class="axis-label" transform="translate(15.0) rotate(-90, 0, 134.0)">Population size</text>
    <line y1="258" x2="645" x1="45" y2="258" class="axis"></line>
    <line y1="258" x2="45" x1="45" y2="10" class="axis"></line>
    <g class="axis-units">
        <g class="x-axis-text">
            <text y="270" x="45.0">0</text>
            <text y="270" x="104.9">10K</text>
            <text y="270" x="164.8">20K</text>
            <text y="270" x="224.7">30K</text>
            <text y="270" x="284.6">40K</text>
            <text y="270" x="344.5">50K</text>
            <text y="270" x="404.4">60K</text>
            <text y="270" x="464.3">70K</text>
            <text y="270" x="524.2">80K</text>
            <text y="270" x="584.1">90K</text>
            <text y="270" x="644.0">100K</text>
        </g>
        <g class="y-axis-text">
            <text y="261.0" x="42">0</text>
            <text y="225.571428571" x="42">100</text>
            <text y="190.142857143" x="42">200</text>
            <text y="154.714285714" x="42">300</text>
            <text y="119.285714286" x="42">400</text>
            <text y="83.8571428571" x="42">500</text>
            <text y="48.4285714286" x="42">600</text>
            <text y="13.0" x="42">700</text>
        </g>
    </g>
    <g class="gridlines">
        <line y1="258" x2="104.5" x1="104.5" y2="10"></line>
        <line y1="258" x2="164.5" x1="164.5" y2="10"></line>
        <line y1="258" x2="224.5" x1="224.5" y2="10"></line>
        <line y1="258" x2="284.5" x1="284.5" y2="10"></line>
        <line y1="258" x2="344.5" x1="344.5" y2="10"></line>
        <line y1="258" x2="404.5" x1="404.5" y2="10"></line>
        <line y1="258" x2="464.5" x1="464.5" y2="10"></line>
        <line y1="258" x2="524.5" x1="524.5" y2="10"></line>
        <line y1="258" x2="584.5" x1="584.5" y2="10"></line>
        <line y1="258" x2="644.5" x1="644.5" y2="10"></line>
        <line y1="222.5" x2="644" x1="45" y2="222.5"></line>
        <line y1="187.5" x2="644" x1="45" y2="187.5"></line>
        <line y1="151.5" x2="644" x1="45" y2="151.5"></line>
        <line y1="116.5" x2="644" x1="45" y2="116.5"></line>
        <line y1="80.5" x2="644" x1="45" y2="80.5"></line>
        <line y1="45.5" x2="644" x1="45" y2="45.5"></line>
        <line y1="10.5" x2="644" x1="45" y2="10.5"></line>
    </g>
    <path stroke="green" class="data-series" d="M45.6,-307.1 46.2,-328.3 46.8,-350.0 47.4,-367.7 48.0,-369.4 48.6,-372.3 49.2,-379.7 49.8,-395.3 50.4,-401.0 51.0,-401.0 51.6,-407.3 52.2,-426.8 52.8,-425.1 53.4,-420.1 54.0,-421.2 54.6,-411.2 55.2,-407.0 55.8,-402.0 56.4,-383.3 57.0,-350.0 57.6,-338.6 58.2,-320.5 58.8,-297.5 59.4,-268.8 60.0,-253.6 60.6,-241.2 61.2,-229.5 61.8,-211.1 62.4,-198.3 63.0,-178.1 63.6,-170.3 64.2,-155.8 64.8,-152.6 65.4,-153.3 66.0,-166.1 66.6,-164.7 67.2,-154.7 67.8,-157.6 68.4,-164.3 69.0,-162.9 69.6,-164.3 70.2,-165.4 70.8,-175.6 71.4,-187.0 72.0,-191.6 72.6,-208.9 73.2,-211.4 73.8,-216.0 74.4,-221.3 75.0,-223.1 75.5,-235.9 76.1,-243.7 76.7,-256.1 77.3,-262.8 77.9,-264.6 78.5,-269.5 79.1,-284.8 79.7,-297.2 80.3,-305.3 80.9,-308.1 81.5,-308.1 82.1,-320.2 82.7,-325.5 83.3,-335.8 83.9,-335.1 84.5,-340.0 85.1,-346.1 85.7,-354.9 86.3,-343.6 86.9,-333.7 87.5,-324.4 88.1,-309.2 88.7,-291.9 89.3,-273.1 89.9,-266.0 90.5,-270.6 91.1,-258.9 91.7,-244.4 92.3,-232.7 92.9,-226.0 93.5,-213.2 94.1,-204.0 94.7,-200.4 95.3,-198.0 95.9,-193.7 96.5,-193.0 97.1,-185.9 97.7,-183.8 98.3,-183.8 98.9,-185.2 99.5,-182.4 100.1,-177.4 100.7,-184.5 101.3,-179.5 101.9,-191.2 102.5,-207.2 103.1,-203.3 103.7,-214.3 104.3,-220.6 104.9,-223.8 105.5,-229.1 106.1,-247.9 106.7,-264.6 107.3,-276.6 107.9,-286.2 108.5,-295.0 109.1,-300.7 109.7,-307.1 110.3,-308.5 110.9,-316.7 111.5,-326.9 112.1,-324.8 112.7,-328.7 113.3,-323.0 113.9,-327.6 114.5,-326.6 115.1,-324.4 115.7,-329.8 116.3,-320.5 116.9,-325.5 117.5,-318.8 118.1,-318.8 118.7,-312.0 119.3,-309.9 119.9,-302.8 120.5,-303.5 121.1,-304.6 121.7,-304.6 122.3,-295.0 122.9,-293.6 123.5,-280.5 124.1,-274.8 124.7,-257.5 125.3,-244.7 125.9,-241.2 126.5,-222.4 127.1,-217.1 127.7,-213.9 128.3,-200.1 128.9,-190.5 129.5,-194.1 130.1,-194.4 130.7,-184.1 131.3,-184.9 131.9,-190.5 132.5,-195.8 133.1,-207.9 133.7,-206.1 134.3,-208.2 134.8,-210.4 135.4,-217.1 136.0,-216.0 136.6,-215.7 137.2,-223.5 137.8,-224.9 138.4,-238.7 139.0,-249.3 139.6,-247.2 140.2,-263.5 140.8,-270.2 141.4,-284.8 142.0,-291.5 142.6,-288.3 143.2,-292.9 143.8,-299.6 144.4,-310.3 145.0,-315.2 145.6,-334.4 146.2,-335.1 146.8,-334.0 147.4,-336.1 148.0,-340.0 148.6,-336.8 149.2,-331.5 149.8,-335.8 150.4,-319.8 151.0,-323.0 151.6,-318.4 152.2,-314.5 152.8,-308.5 153.4,-299.3 154.0,-298.9 154.6,-305.3 155.2,-302.8 155.8,-294.7 156.4,-297.5 157.0,-294.7 157.6,-275.2 158.2,-266.0 158.8,-252.9 159.4,-246.1 160.0,-228.4 160.6,-224.5 161.2,-210.7 161.8,-206.8 162.4,-203.6 163.0,-194.4 163.6,-186.3 164.2,-183.1 164.8,-171.7 165.4,-168.2 166.0,-154.0 166.6,-156.9 167.2,-153.0 167.8,-155.5 168.4,-151.9 169.0,-149.1 169.6,-149.8 170.2,-149.8 170.8,-148.7 171.4,-152.6 172.0,-157.2 172.6,-162.9 173.2,-162.9 173.8,-167.1 174.4,-173.5 175.0,-182.4 175.6,-194.1 176.2,-205.8 176.8,-218.9 177.4,-234.5 178.0,-244.7 178.6,-265.3 179.2,-277.0 179.8,-291.5 180.4,-299.3 181.0,-308.1 181.6,-316.3 182.2,-330.5 182.8,-337.9 183.4,-340.4 184.0,-356.0 184.6,-367.7 185.2,-379.7 185.8,-396.4 186.4,-388.9 187.0,-389.3 187.6,-384.7 188.2,-385.0 188.8,-381.8 189.4,-370.9 190.0,-361.3 190.6,-357.4 191.2,-350.3 191.8,-349.6 192.4,-347.8 193.0,-339.7 193.6,-330.1 194.2,-325.5 194.8,-309.6 195.3,-299.3 195.9,-279.1 196.5,-270.9 197.1,-260.3 197.7,-269.9 198.3,-257.8 198.9,-261.4 199.5,-260.0 200.1,-241.5 200.7,-232.3 201.3,-228.1 201.9,-212.5 202.5,-200.8 203.1,-197.3 203.7,-195.5 204.3,-198.3 204.9,-199.7 205.5,-196.5 206.1,-194.4 206.7,-198.0 207.3,-193.7 207.9,-195.1 208.5,-193.4 209.1,-189.5 209.7,-202.9 210.3,-195.5 210.9,-208.2 211.5,-210.4 212.1,-218.2 212.7,-228.8 213.3,-241.9 213.9,-252.2 214.5,-257.5 215.1,-257.5 215.7,-269.2 216.3,-278.4 216.9,-289.7 217.5,-290.4 218.1,-299.3 218.7,-306.4 219.3,-313.1 219.9,-319.1 220.5,-335.1 221.1,-325.9 221.7,-328.7 222.3,-329.4 222.9,-326.6 223.5,-328.7 224.1,-326.6 224.7,-323.0 225.3,-297.2 225.9,-289.7 226.5,-294.7 227.1,-286.2 227.7,-284.8 228.3,-266.0 228.9,-252.5 229.5,-246.9 230.1,-230.6 230.7,-223.5 231.3,-219.9 231.9,-218.5 232.5,-204.0 233.1,-202.9 233.7,-200.8 234.3,-199.7 234.9,-197.3 235.5,-191.6 236.1,-198.0 236.7,-195.1 237.3,-185.6 237.9,-185.6 238.5,-181.0 239.1,-189.1 239.7,-190.5 240.3,-196.9 240.9,-198.3 241.5,-200.4 242.1,-208.9 242.7,-219.2 243.3,-214.3 243.9,-219.9 244.5,-230.2 245.1,-243.7 245.7,-254.7 246.3,-263.5 246.9,-278.4 247.5,-283.7 248.1,-283.0 248.7,-289.0 249.3,-296.8 249.9,-311.3 250.5,-309.2 251.1,-308.5 251.7,-319.8 252.3,-322.3 252.9,-326.9 253.5,-327.3 254.1,-324.1 254.6,-329.8 255.2,-321.3 255.8,-318.8 256.4,-317.0 257.0,-311.3 257.6,-314.9 258.2,-302.8 258.8,-294.7 259.4,-305.7 260.0,-321.6 260.6,-314.5 261.2,-307.8 261.8,-295.4 262.4,-287.6 263.0,-280.2 263.6,-273.4 264.2,-261.7 264.8,-254.3 265.4,-241.5 266.0,-245.4 266.6,-238.4 267.2,-243.3 267.8,-238.4 268.4,-233.4 269.0,-228.1 269.6,-229.1 270.2,-224.9 270.8,-230.6 271.4,-206.8 272.0,-212.1 272.6,-220.6 273.2,-218.2 273.8,-207.2 274.4,-213.2 275.0,-234.5 275.6,-235.5 276.2,-241.2 276.8,-247.9 277.4,-254.7 278.0,-260.7 278.6,-266.3 279.2,-270.2 279.8,-269.9 280.4,-272.7 281.0,-273.1 281.6,-274.1 282.2,-286.9 282.8,-289.4 283.4,-284.8 284.0,-296.8 284.6,-291.9 285.2,-293.3 285.8,-297.2 286.4,-311.7 287.0,-314.2 287.6,-314.2 288.2,-301.1 288.8,-306.0 289.4,-295.0 290.0,-300.0 290.6,-287.2 291.2,-283.7 291.8,-274.1 292.4,-263.5 293.0,-269.2 293.6,-261.7 294.2,-256.1 294.8,-250.8 295.4,-241.9 296.0,-246.9 296.6,-241.9 297.2,-231.6 297.8,-230.9 298.4,-216.7 299.0,-208.6 299.6,-206.8 300.2,-199.4 300.8,-204.0 301.4,-213.9 302.0,-215.3 302.6,-215.3 303.2,-206.5 303.8,-204.3 304.4,-202.2 305.0,-200.1 305.6,-201.9 306.2,-203.3 306.8,-204.0 307.4,-212.5 308.0,-227.4 308.6,-232.3 309.2,-245.8 309.8,-249.3 310.4,-250.8 311.0,-256.1 311.6,-273.1 312.2,-271.3 312.8,-277.7 313.4,-281.9 314.0,-297.9 314.6,-305.0 315.1,-323.4 315.7,-340.4 316.3,-343.2 316.9,-345.7 317.5,-350.7 318.1,-354.9 318.7,-359.2 319.3,-365.5 319.9,-365.9 320.5,-361.6 321.1,-358.8 321.7,-345.7 322.3,-337.9 322.9,-328.0 323.5,-326.9 324.1,-318.4 324.7,-314.2 325.3,-308.5 325.9,-295.7 326.5,-282.6 327.1,-284.1 327.7,-263.5 328.3,-256.8 328.9,-251.8 329.5,-243.7 330.1,-228.1 330.7,-216.0 331.3,-207.5 331.9,-204.3 332.5,-193.7 333.1,-200.8 333.7,-193.4 334.3,-194.4 334.9,-181.0 335.5,-176.0 336.1,-170.3 336.7,-181.0 337.3,-183.8 337.9,-184.5 338.5,-192.3 339.1,-201.2 339.7,-207.9 340.3,-210.7 340.9,-217.8 341.5,-218.2 342.1,-222.1 342.7,-231.6 343.3,-241.2 343.9,-250.8 344.5,-262.1 345.1,-274.8 345.7,-284.1 346.3,-298.2 346.9,-292.9 347.5,-298.2 348.1,-317.7 348.7,-322.7 349.3,-335.1 349.9,-337.2 350.5,-341.8 351.1,-348.5 351.7,-350.0 352.3,-358.1 352.9,-352.8 353.5,-360.6 354.1,-351.0 354.7,-348.5 355.3,-351.4 355.9,-343.6 356.5,-335.4 357.1,-343.2 357.7,-346.1 358.3,-345.3 358.9,-338.3 359.5,-334.7 360.1,-328.3 360.7,-318.1 361.3,-316.3 361.9,-300.4 362.5,-290.1 363.1,-275.2 363.7,-254.3 364.3,-240.1 364.9,-235.2 365.5,-228.8 366.1,-202.6 366.7,-191.9 367.3,-190.5 367.9,-180.6 368.5,-171.7 369.1,-162.2 369.7,-161.1 370.3,-160.4 370.9,-154.0 371.5,-159.0 372.1,-160.8 372.7,-156.2 373.3,-155.8 373.9,-168.2 374.4,-184.5 375.0,-187.3 375.6,-198.3 376.2,-203.3 376.8,-214.6 377.4,-219.9 378.0,-232.0 378.6,-242.3 379.2,-249.7 379.8,-262.8 380.4,-271.3 381.0,-292.6 381.6,-299.3 382.2,-307.1 382.8,-309.2 383.4,-322.3 384.0,-328.3 384.6,-329.1 385.2,-330.5 385.8,-346.4 386.4,-352.1 387.0,-348.5 387.6,-357.4 388.2,-354.2 388.8,-360.6 389.4,-355.3 390.0,-350.3 390.6,-343.9 391.2,-339.3 391.8,-335.8 392.4,-338.3 393.0,-328.3 393.6,-318.4 394.2,-319.5 394.8,-313.8 395.4,-317.4 396.0,-311.3 396.6,-308.5 397.2,-310.6 397.8,-300.0 398.4,-286.9 399.0,-283.0 399.6,-278.0 400.2,-263.2 400.8,-257.8 401.4,-246.5 402.0,-245.1 402.6,-245.8 403.2,-245.4 403.8,-241.9 404.4,-238.0 405.0,-228.1 405.6,-227.0 406.2,-230.2 406.8,-217.1 407.4,-208.9 408.0,-205.1 408.6,-195.8 409.2,-199.7 409.8,-195.8 410.4,-196.5 411.0,-194.1 411.6,-188.4 412.2,-183.4 412.8,-182.7 413.4,-199.0 414.0,-213.2 414.6,-222.1 415.2,-222.4 415.8,-218.5 416.4,-227.4 417.0,-234.5 417.6,-241.5 418.2,-251.8 418.8,-253.2 419.4,-251.5 420.0,-257.1 420.6,-259.3 421.2,-253.9 421.8,-253.9 422.4,-261.7 423.0,-270.6 423.6,-277.3 424.2,-278.4 424.8,-280.5 425.4,-274.1 426.0,-278.4 426.6,-288.0 427.2,-289.0 427.8,-299.6 428.4,-306.0 429.0,-308.1 429.6,-314.9 430.2,-310.6 430.8,-314.9 431.4,-313.5 432.0,-324.1 432.6,-323.4 433.2,-319.8 433.8,-323.0 434.3,-318.1 434.9,-312.0 435.5,-313.8 436.1,-312.0 436.7,-308.1 437.3,-289.7 437.9,-284.8 438.5,-270.9 439.1,-274.5 439.7,-260.3 440.3,-254.7 440.9,-244.4 441.5,-238.4 442.1,-238.4 442.7,-226.3 443.3,-223.5 443.9,-214.3 444.5,-216.7 445.1,-220.6 445.7,-214.3 446.3,-214.6 446.9,-208.9 447.5,-213.2 448.1,-209.3 448.7,-216.0 449.3,-221.7 449.9,-221.3 450.5,-231.6 451.1,-233.4 451.7,-239.8 452.3,-244.7 452.9,-246.9 453.5,-251.8 454.1,-256.4 454.7,-263.9 455.3,-279.1 455.9,-280.2 456.5,-277.0 457.1,-288.0 457.7,-288.0 458.3,-294.7 458.9,-290.4 459.5,-299.6 460.1,-300.7 460.7,-306.7 461.3,-311.7 461.9,-317.4 462.5,-317.4 463.1,-323.7 463.7,-312.0 464.3,-304.6 464.9,-307.4 465.5,-312.4 466.1,-314.2 466.7,-317.7 467.3,-317.0 467.9,-315.2 468.5,-314.9 469.1,-308.5 469.7,-309.2 470.3,-299.6 470.9,-292.2 471.5,-288.3 472.1,-270.2 472.7,-258.9 473.3,-256.4 473.9,-245.8 474.5,-245.4 475.1,-257.1 475.7,-251.5 476.3,-261.0 476.9,-266.0 477.5,-249.0 478.1,-245.4 478.7,-243.7 479.3,-241.2 479.9,-230.6 480.5,-220.3 481.1,-228.8 481.7,-232.7 482.3,-230.6 482.9,-229.5 483.5,-224.9 484.1,-230.6 484.7,-231.3 485.3,-233.4 485.9,-230.9 486.5,-234.1 487.1,-232.3 487.7,-242.3 488.3,-249.0 488.9,-256.1 489.5,-270.6 490.1,-279.5 490.7,-280.9 491.3,-296.5 491.9,-297.9 492.5,-297.2 493.1,-302.8 493.7,-302.1 494.2,-300.0 494.8,-307.4 495.4,-305.0 496.0,-293.6 496.6,-287.6 497.2,-290.4 497.8,-290.1 498.4,-273.4 499.0,-270.6 499.6,-261.7 500.2,-266.0 500.8,-250.8 501.4,-260.0 502.0,-246.9 502.6,-227.4 503.2,-212.1 503.8,-210.0 504.4,-203.3 505.0,-211.8 505.6,-212.1 506.2,-219.9 506.8,-215.7 507.4,-215.3 508.0,-216.7 508.6,-213.9 509.2,-212.8 509.8,-219.6 510.4,-224.9 511.0,-227.7 511.6,-227.4 512.2,-226.7 512.8,-229.1 513.4,-226.7 514.0,-231.6 514.6,-245.4 515.2,-250.8 515.8,-266.3 516.4,-279.1 517.0,-289.7 517.6,-299.6 518.2,-308.1 518.8,-307.8 519.4,-313.5 520.0,-315.9 520.6,-314.9 521.2,-312.4 521.8,-327.3 522.4,-314.2 523.0,-305.0 523.6,-299.3 524.2,-308.1 524.8,-315.2 525.4,-306.0 526.0,-300.7 526.6,-297.2 527.2,-298.9 527.8,-294.7 528.4,-300.4 529.0,-298.2 529.6,-296.8 530.2,-301.1 530.8,-297.9 531.4,-299.6 532.0,-294.0 532.6,-302.1 533.2,-296.8 533.8,-303.2 534.4,-297.5 535.0,-290.8 535.6,-277.0 536.2,-274.8 536.8,-268.1 537.4,-262.8 538.0,-257.5 538.6,-252.9 539.2,-246.5 539.8,-242.3 540.4,-236.6 541.0,-230.6 541.6,-225.2 542.2,-221.0 542.8,-226.3 543.4,-216.7 544.0,-210.7 544.6,-224.2 545.2,-214.6 545.8,-215.0 546.4,-214.6 547.0,-214.6 547.6,-225.2 548.2,-224.9 548.8,-227.0 549.4,-227.7 550.0,-237.3 550.6,-241.5 551.2,-238.0 551.8,-233.7 552.4,-238.7 553.0,-246.5 553.6,-249.7 554.1,-257.5 554.7,-267.1 555.3,-268.1 555.9,-275.2 556.5,-292.2 557.1,-292.2 557.7,-302.8 558.3,-321.6 558.9,-330.5 559.5,-331.9 560.1,-326.9 560.7,-336.1 561.3,-331.5 561.9,-324.8 562.5,-335.1 563.1,-330.8 563.7,-321.6 564.3,-321.3 564.9,-322.0 565.5,-325.5 566.1,-332.6 566.7,-332.2 567.3,-317.0 567.9,-323.0 568.5,-323.7 569.1,-319.1 569.7,-314.9 570.3,-312.0 570.9,-294.7 571.5,-279.1 572.1,-277.3 572.7,-269.2 573.3,-267.4 573.9,-257.8 574.5,-248.3 575.1,-233.0 575.7,-217.8 576.3,-213.9 576.9,-212.1 577.5,-200.8 578.1,-191.6 578.7,-186.3 579.3,-189.5 579.9,-185.2 580.5,-183.1 581.1,-182.4 581.7,-185.9 582.3,-186.6 582.9,-179.5 583.5,-172.8 584.1,-169.6 584.7,-173.2 585.3,-165.4 585.9,-166.1 586.5,-171.4 587.1,-177.1 587.7,-193.7 588.3,-200.4 588.9,-209.3 589.5,-217.1 590.1,-237.3 590.7,-239.1 591.3,-244.7 591.9,-256.1 592.5,-261.0 593.1,-273.8 593.7,-277.7 594.3,-293.6 594.9,-300.0 595.5,-309.6 596.1,-317.0 596.7,-323.7 597.3,-337.6 597.9,-345.0 598.5,-346.1 599.1,-358.8 599.7,-368.0 600.3,-368.4 600.9,-367.3 601.5,-367.3 602.1,-368.0 602.7,-364.5 603.3,-357.0 603.9,-343.6 604.5,-339.7 605.1,-334.0 605.7,-337.2 606.3,-325.5 606.9,-318.1 607.5,-305.7 608.1,-290.4 608.7,-275.2 609.3,-262.1 609.9,-255.7 610.5,-259.3 611.1,-246.9 611.7,-246.1 612.3,-239.8 612.9,-231.6 613.5,-222.8 614.0,-218.2 614.6,-218.2 615.2,-219.2 615.8,-214.3 616.4,-216.0 617.0,-216.7 617.6,-224.2 618.2,-222.1 618.8,-215.3 619.4,-216.0 620.0,-214.3 620.6,-231.6 621.2,-234.1 621.8,-236.6 622.4,-226.3 623.0,-231.3 623.6,-234.1 624.2,-240.8 624.8,-251.8 625.4,-246.5 626.0,-257.8 626.6,-261.7 627.2,-271.7 627.8,-268.5 628.4,-268.5 629.0,-270.9 629.6,-268.1 630.2,-279.8 630.8,-290.8 631.4,-288.7 632.0,-296.8 632.6,-304.6 633.2,-310.3 633.8,-317.4 634.4,-323.7 635.0,-342.2 635.6,-352.1 636.2,-341.8 636.8,-340.0 637.4,-335.1 638.0,-330.8 638.6,-335.1 639.2,-328.0 639.8,-325.5 640.4,-319.1 641.0,-311.3 641.6,-304.3 642.2,-305.7 642.8,-304.3 643.4,-301.8 644.0,-291.1"></path>
    <path stroke="#0060e5" class="data-series" d="M45.6,240.3 46.2,240.3 46.8,239.9 47.4,239.9 48.0,238.2 48.6,237.8 49.2,237.1 49.8,236.4 50.4,234.6 51.0,234.3 51.6,232.5 52.2,231.4 52.8,230.0 53.4,228.9 54.0,227.2 54.6,225.8 55.2,224.3 55.8,221.2 56.4,218.7 57.0,216.5 57.6,213.4 58.2,211.6 58.8,210.5 59.4,209.1 60.0,205.2 60.6,205.2 61.2,202.0 61.8,203.1 62.4,203.1 63.0,203.4 63.6,204.9 64.2,205.9 64.8,206.6 65.4,207.3 66.0,209.8 66.6,210.9 67.2,212.7 67.8,215.8 68.4,217.3 69.0,219.4 69.6,221.5 70.2,222.2 70.8,223.3 71.4,225.1 72.0,226.5 72.6,228.6 73.2,230.4 73.8,230.0 74.4,230.0 75.0,231.4 75.5,231.1 76.1,230.4 76.7,230.7 77.3,230.4 77.9,230.0 78.5,230.7 79.1,230.4 79.7,231.1 80.3,230.4 80.9,230.7 81.5,229.7 82.1,229.7 82.7,229.7 83.3,229.3 83.9,228.9 84.5,227.9 85.1,226.8 85.7,226.1 86.3,224.3 86.9,222.6 87.5,220.4 88.1,219.4 88.7,217.3 89.3,214.8 89.9,213.0 90.5,212.3 91.1,212.7 91.7,211.6 92.3,210.9 92.9,210.2 93.5,211.2 94.1,211.2 94.7,210.9 95.3,212.3 95.9,215.1 96.5,216.5 97.1,218.3 97.7,219.0 98.3,220.8 98.9,222.2 99.5,221.9 100.1,222.2 100.7,223.6 101.3,223.6 101.9,225.4 102.5,226.8 103.1,227.2 103.7,228.9 104.3,230.7 104.9,231.1 105.5,231.4 106.1,232.8 106.7,233.2 107.3,233.6 107.9,234.3 108.5,234.3 109.1,233.6 109.7,232.8 110.3,232.5 110.9,233.2 111.5,231.4 112.1,230.4 112.7,229.3 113.3,229.3 113.9,226.8 114.5,226.1 115.1,225.8 115.7,225.1 116.3,225.1 116.9,224.3 117.5,222.6 118.1,221.5 118.7,220.8 119.3,220.4 119.9,219.7 120.5,219.4 121.1,218.7 121.7,215.5 122.3,215.5 122.9,214.1 123.5,213.7 124.1,212.7 124.7,210.9 125.3,210.2 125.9,209.8 126.5,209.1 127.1,209.5 127.7,209.8 128.3,211.2 128.9,212.3 129.5,213.0 130.1,213.7 130.7,214.8 131.3,218.7 131.9,219.4 132.5,221.2 133.1,221.9 133.7,221.9 134.3,223.6 134.8,225.4 135.4,225.4 136.0,225.8 136.6,226.5 137.2,227.2 137.8,226.5 138.4,227.2 139.0,227.9 139.6,227.9 140.2,228.6 140.8,229.3 141.4,229.3 142.0,229.7 142.6,230.0 143.2,229.7 143.8,229.7 144.4,229.3 145.0,230.0 145.6,229.3 146.2,228.9 146.8,228.2 147.4,228.2 148.0,226.8 148.6,227.9 149.2,226.8 149.8,226.8 150.4,226.8 151.0,225.4 151.6,224.7 152.2,223.6 152.8,221.9 153.4,219.7 154.0,219.7 154.6,219.0 155.2,218.0 155.8,218.0 156.4,218.3 157.0,216.9 157.6,215.5 158.2,215.1 158.8,214.1 159.4,212.3 160.0,209.8 160.6,211.2 161.2,211.6 161.8,210.5 162.4,212.3 163.0,211.9 163.6,211.9 164.2,211.9 164.8,213.0 165.4,215.5 166.0,215.5 166.6,216.9 167.2,218.0 167.8,218.7 168.4,220.8 169.0,221.9 169.6,224.0 170.2,226.1 170.8,226.1 171.4,227.2 172.0,228.6 172.6,229.3 173.2,231.1 173.8,230.7 174.4,230.4 175.0,231.4 175.6,231.8 176.2,232.5 176.8,233.2 177.4,234.6 178.0,234.6 178.6,234.3 179.2,235.0 179.8,235.0 180.4,235.0 181.0,235.0 181.6,234.6 182.2,234.3 182.8,234.6 183.4,234.3 184.0,234.3 184.6,233.9 185.2,234.3 185.8,234.3 186.4,233.2 187.0,231.8 187.6,228.6 188.2,227.9 188.8,226.5 189.4,225.4 190.0,224.7 190.6,221.9 191.2,220.4 191.8,219.7 192.4,219.4 193.0,219.4 193.6,219.0 194.2,218.3 194.8,217.6 195.3,216.9 195.9,216.2 196.5,216.5 197.1,215.5 197.7,214.8 198.3,213.7 198.9,214.1 199.5,214.1 200.1,213.7 200.7,213.7 201.3,213.7 201.9,212.7 202.5,212.7 203.1,213.0 203.7,214.1 204.3,214.4 204.9,214.1 205.5,215.8 206.1,216.2 206.7,217.3 207.3,218.3 207.9,219.4 208.5,220.1 209.1,221.2 209.7,223.3 210.3,225.1 210.9,225.1 211.5,226.5 212.1,228.2 212.7,228.6 213.3,228.6 213.9,229.3 214.5,230.4 215.1,230.4 215.7,231.1 216.3,231.1 216.9,231.8 217.5,231.4 218.1,231.8 218.7,231.8 219.3,230.0 219.9,230.0 220.5,230.0 221.1,228.6 221.7,228.6 222.3,227.2 222.9,226.1 223.5,225.4 224.1,225.4 224.7,222.6 225.3,219.4 225.9,219.7 226.5,219.4 227.1,218.7 227.7,219.0 228.3,218.3 228.9,217.3 229.5,215.1 230.1,215.1 230.7,216.2 231.3,216.2 231.9,215.8 232.5,215.5 233.1,215.5 233.7,215.8 234.3,216.5 234.9,217.6 235.5,218.3 236.1,219.7 236.7,220.1 237.3,219.7 237.9,219.7 238.5,220.4 239.1,221.9 239.7,222.2 240.3,222.2 240.9,224.0 241.5,223.6 242.1,223.6 242.7,225.1 243.3,226.8 243.9,226.8 244.5,226.8 245.1,227.5 245.7,228.6 246.3,228.6 246.9,229.3 247.5,230.7 248.1,230.7 248.7,230.7 249.3,230.7 249.9,230.0 250.5,230.0 251.1,230.0 251.7,230.0 252.3,228.6 252.9,228.6 253.5,227.9 254.1,227.5 254.6,227.2 255.2,227.5 255.8,226.1 256.4,226.1 257.0,225.4 257.6,225.1 258.2,224.0 258.8,222.6 259.4,221.9 260.0,222.6 260.6,221.5 261.2,221.2 261.8,221.9 262.4,220.4 263.0,219.0 263.6,219.0 264.2,217.3 264.8,216.2 265.4,215.5 266.0,216.2 266.6,215.8 267.2,215.5 267.8,215.5 268.4,214.8 269.0,215.8 269.6,218.0 270.2,217.3 270.8,218.0 271.4,218.3 272.0,217.6 272.6,218.0 273.2,218.3 273.8,218.7 274.4,220.4 275.0,223.6 275.6,224.3 276.2,225.8 276.8,226.8 277.4,228.6 278.0,228.6 278.6,227.9 279.2,228.9 279.8,228.9 280.4,229.3 281.0,229.3 281.6,228.6 282.2,229.3 282.8,228.2 283.4,226.8 284.0,226.5 284.6,226.1 285.2,225.4 285.8,225.1 286.4,225.1 287.0,223.3 287.6,224.3 288.2,224.0 288.8,222.6 289.4,221.5 290.0,220.4 290.6,219.0 291.2,218.0 291.8,216.9 292.4,216.9 293.0,215.8 293.6,215.1 294.2,214.4 294.8,215.1 295.4,216.2 296.0,216.2 296.6,217.3 297.2,218.0 297.8,216.9 298.4,216.9 299.0,217.3 299.6,217.6 300.2,217.3 300.8,218.0 301.4,217.6 302.0,218.7 302.6,220.4 303.2,219.7 303.8,220.1 304.4,220.4 305.0,220.1 305.6,220.8 306.2,222.6 306.8,223.3 307.4,224.3 308.0,223.6 308.6,223.6 309.2,225.8 309.8,226.5 310.4,228.6 311.0,228.2 311.6,228.2 312.2,228.6 312.8,229.7 313.4,229.7 314.0,229.7 314.6,230.7 315.1,231.4 315.7,231.4 316.3,231.1 316.9,231.1 317.5,230.7 318.1,230.4 318.7,230.0 319.3,228.9 319.9,228.2 320.5,226.1 321.1,224.7 321.7,224.0 322.3,223.3 322.9,221.5 323.5,220.4 324.1,219.4 324.7,217.6 325.3,215.8 325.9,215.8 326.5,214.8 327.1,213.7 327.7,213.4 328.3,212.7 328.9,212.3 329.5,213.0 330.1,213.4 330.7,213.7 331.3,213.4 331.9,213.7 332.5,215.5 333.1,216.2 333.7,216.2 334.3,217.3 334.9,218.0 335.5,218.0 336.1,218.0 336.7,219.7 337.3,220.8 337.9,220.1 338.5,221.2 339.1,222.9 339.7,224.7 340.3,226.5 340.9,226.5 341.5,226.8 342.1,228.2 342.7,229.7 343.3,230.0 343.9,229.7 344.5,231.1 345.1,231.4 345.7,231.4 346.3,232.1 346.9,232.5 347.5,232.8 348.1,232.8 348.7,231.8 349.3,231.8 349.9,230.7 350.5,230.7 351.1,230.7 351.7,230.7 352.3,230.4 352.9,228.6 353.5,227.5 354.1,226.8 354.7,225.8 355.3,225.1 355.9,222.6 356.5,221.9 357.1,222.6 357.7,222.2 358.3,221.2 358.9,218.7 359.5,219.4 360.1,219.0 360.7,218.3 361.3,217.3 361.9,216.9 362.5,215.5 363.1,213.7 363.7,212.7 364.3,212.7 364.9,213.0 365.5,212.3 366.1,212.3 366.7,212.7 367.3,213.0 367.9,212.3 368.5,213.7 369.1,212.3 369.7,213.0 370.3,215.8 370.9,217.3 371.5,218.3 372.1,218.3 372.7,221.2 373.3,222.2 373.9,224.3 374.4,224.3 375.0,224.7 375.6,226.8 376.2,227.5 376.8,229.7 377.4,229.3 378.0,230.7 378.6,231.4 379.2,231.4 379.8,231.4 380.4,231.4 381.0,232.1 381.6,231.4 382.2,231.4 382.8,232.5 383.4,232.8 384.0,232.5 384.6,232.5 385.2,231.4 385.8,231.1 386.4,230.4 387.0,230.0 387.6,228.6 388.2,228.6 388.8,227.5 389.4,226.5 390.0,225.1 390.6,222.9 391.2,221.9 391.8,221.9 392.4,222.6 393.0,221.9 393.6,222.2 394.2,221.2 394.8,220.8 395.4,220.4 396.0,219.7 396.6,219.7 397.2,220.8 397.8,220.1 398.4,218.7 399.0,217.6 399.6,219.4 400.2,219.0 400.8,219.7 401.4,218.7 402.0,217.6 402.6,218.0 403.2,219.0 403.8,217.6 404.4,218.0 405.0,217.6 405.6,217.6 406.2,218.3 406.8,217.3 407.4,216.9 408.0,215.8 408.6,215.1 409.2,215.1 409.8,215.8 410.4,216.5 411.0,216.5 411.6,217.6 412.2,219.4 412.8,221.9 413.4,222.9 414.0,222.6 414.6,222.2 415.2,222.9 415.8,225.1 416.4,226.1 417.0,225.8 417.6,225.8 418.2,225.8 418.8,226.5 419.4,227.9 420.0,228.2 420.6,227.2 421.2,226.8 421.8,226.8 422.4,226.5 423.0,225.1 423.6,224.3 424.2,224.7 424.8,225.1 425.4,223.6 426.0,223.3 426.6,224.3 427.2,224.3 427.8,224.3 428.4,224.7 429.0,224.7 429.6,224.0 430.2,224.0 430.8,223.3 431.4,223.3 432.0,223.3 432.6,222.9 433.2,223.3 433.8,224.3 434.3,224.0 434.9,223.6 435.5,223.6 436.1,223.3 436.7,221.9 437.3,220.8 437.9,219.7 438.5,219.0 439.1,217.6 439.7,217.6 440.3,216.9 440.9,215.8 441.5,214.4 442.1,213.7 442.7,214.1 443.3,214.4 443.9,214.8 444.5,214.4 445.1,215.8 445.7,216.2 446.3,216.9 446.9,218.0 447.5,218.7 448.1,220.4 448.7,222.6 449.3,222.9 449.9,223.6 450.5,224.3 451.1,223.6 451.7,224.7 452.3,226.1 452.9,228.2 453.5,228.6 454.1,229.3 454.7,229.3 455.3,229.3 455.9,228.2 456.5,227.5 457.1,227.5 457.7,227.5 458.3,228.2 458.9,228.2 459.5,228.9 460.1,227.5 460.7,227.5 461.3,227.5 461.9,227.9 462.5,227.9 463.1,227.9 463.7,226.1 464.3,226.5 464.9,225.8 465.5,225.4 466.1,224.7 466.7,225.4 467.3,223.6 467.9,223.3 468.5,222.9 469.1,222.2 469.7,221.5 470.3,219.0 470.9,218.7 471.5,218.7 472.1,216.2 472.7,215.1 473.3,215.1 473.9,215.1 474.5,215.5 475.1,216.9 475.7,217.6 476.3,216.2 476.9,218.7 477.5,219.0 478.1,218.0 478.7,218.0 479.3,218.3 479.9,216.9 480.5,216.5 481.1,219.0 481.7,219.7 482.3,220.1 482.9,219.7 483.5,219.7 484.1,220.8 484.7,221.5 485.3,221.9 485.9,222.6 486.5,223.3 487.1,223.6 487.7,224.0 488.3,224.7 488.9,226.8 489.5,226.1 490.1,226.1 490.7,227.5 491.3,227.5 491.9,226.8 492.5,226.8 493.1,226.8 493.7,226.1 494.2,225.8 494.8,227.2 495.4,226.5 496.0,225.4 496.6,223.3 497.2,222.9 497.8,222.2 498.4,221.5 499.0,220.8 499.6,219.7 500.2,219.0 500.8,218.0 501.4,216.9 502.0,216.5 502.6,215.5 503.2,215.1 503.8,215.8 504.4,216.2 505.0,216.5 505.6,216.9 506.2,218.0 506.8,216.5 507.4,216.2 508.0,217.3 508.6,217.3 509.2,219.0 509.8,220.4 510.4,220.8 511.0,221.5 511.6,221.5 512.2,222.9 512.8,223.6 513.4,225.8 514.0,227.2 514.6,227.2 515.2,227.5 515.8,228.2 516.4,229.3 517.0,229.7 517.6,229.3 518.2,228.9 518.8,229.7 519.4,230.0 520.0,228.9 520.6,227.2 521.2,227.9 521.8,226.1 522.4,226.8 523.0,225.1 523.6,224.0 524.2,224.3 524.8,223.3 525.4,222.6 526.0,223.3 526.6,222.9 527.2,222.6 527.8,222.9 528.4,222.2 529.0,221.2 529.6,221.9 530.2,223.3 530.8,223.6 531.4,222.6 532.0,222.2 532.6,222.2 533.2,221.9 533.8,220.8 534.4,221.5 535.0,221.5 535.6,220.1 536.2,219.7 536.8,218.3 537.4,218.0 538.0,217.6 538.6,215.8 539.2,215.1 539.8,215.1 540.4,215.5 541.0,216.2 541.6,216.2 542.2,216.5 542.8,216.5 543.4,217.6 544.0,217.3 544.6,218.0 545.2,218.3 545.8,218.0 546.4,217.6 547.0,220.8 547.6,220.8 548.2,221.9 548.8,224.3 549.4,225.1 550.0,224.3 550.6,222.9 551.2,223.3 551.8,222.9 552.4,222.9 553.0,223.6 553.6,224.7 554.1,225.4 554.7,225.1 555.3,225.8 555.9,225.4 556.5,226.1 557.1,226.1 557.7,226.8 558.3,228.2 558.9,229.7 559.5,231.1 560.1,229.7 560.7,228.9 561.3,227.2 561.9,226.8 562.5,226.5 563.1,226.5 563.7,225.1 564.3,223.3 564.9,222.9 565.5,223.3 566.1,222.9 566.7,222.2 567.3,220.8 567.9,221.2 568.5,220.8 569.1,221.2 569.7,219.7 570.3,219.4 570.9,218.0 571.5,215.5 572.1,213.7 572.7,211.6 573.3,211.9 573.9,211.6 574.5,210.2 575.1,209.8 575.7,208.8 576.3,209.8 576.9,209.8 577.5,210.2 578.1,210.5 578.7,209.8 579.3,211.9 579.9,211.9 580.5,213.0 581.1,215.8 581.7,217.3 582.3,218.3 582.9,219.4 583.5,220.1 584.1,222.9 584.7,224.0 585.3,224.7 585.9,225.1 586.5,227.9 587.1,229.3 587.7,231.1 588.3,231.8 588.9,231.8 589.5,233.6 590.1,233.2 590.7,233.9 591.3,233.9 591.9,234.3 592.5,234.3 593.1,233.2 593.7,232.8 594.3,233.6 594.9,232.5 595.5,232.5 596.1,232.8 596.7,233.2 597.3,233.9 597.9,233.9 598.5,232.5 599.1,231.8 599.7,231.4 600.3,228.9 600.9,228.2 601.5,227.2 602.1,225.1 602.7,222.9 603.3,220.8 603.9,219.7 604.5,219.0 605.1,218.3 605.7,218.0 606.3,218.0 606.9,216.9 607.5,215.1 608.1,214.8 608.7,214.4 609.3,213.0 609.9,213.7 610.5,213.7 611.1,212.7 611.7,213.0 612.3,215.1 612.9,214.8 613.5,215.1 614.0,216.2 614.6,217.3 615.2,217.6 615.8,218.0 616.4,220.8 617.0,220.8 617.6,221.9 618.2,221.9 618.8,222.6 619.4,224.0 620.0,224.3 620.6,225.4 621.2,225.4 621.8,224.7 622.4,224.7 623.0,225.8 623.6,225.8 624.2,226.1 624.8,226.5 625.4,227.2 626.0,228.6 626.6,228.9 627.2,230.0 627.8,230.4 628.4,229.3 629.0,230.0 629.6,228.9 630.2,229.3 630.8,230.0 631.4,230.4 632.0,230.0 632.6,228.9 633.2,228.9 633.8,229.7 634.4,229.7 635.0,229.3 635.6,228.2 636.2,227.5 636.8,225.8 637.4,225.4 638.0,225.4 638.6,224.3 639.2,223.6 639.8,221.9 640.4,220.8 641.0,219.7 641.6,219.0 642.2,219.7 642.8,218.7 643.4,218.3 644.0,218.7"></path>
    <text y="105" x="640" text-anchor="end" fill="green">Food</text>
    <text y="208" x="640" text-anchor="end" fill="#0060e5">Creatures</text>
</svg>