<svg width="660" height="300" xmlns="http://www.w3.org/2000/svg">

<style>
  .background {
    fill: none;
  }
  .axis {
    stroke: #111;
    stroke-width: 1;
  }
  .axis-label {
    font-size: 14px;
    font-family: Arial;
    text-anchor: middle;
  }
  .axis-units {
    font-size: 10px;
    font-family: Arial;
  }
  .y-axis-text {
    text-anchor: end;
  }
  .x-axis-text {
    text-anchor: middle;
  }
  .gridlines {
    stroke: black;
    stroke-width: 0.3;
    fill: none;
    opacity: 0.5;
  }
  .data-series {
    stroke-width: 1.8;
    fill: none;
    opacity: 1;
  }
  </style>

    <text class="axis-label" x="344.5" y="290">Time (ticks)</text>
    <text class="axis-label" x="0" y="134.0" transform="translate(15.0) rotate(-90, 0, 134.0)">Population size</text>
    <line class="axis" x1="45" y1="258" x2="645" y2="258"></line>
    <line class="axis" x1="45" y1="258" x2="45" y2="10"></line>
    <g class="axis-units">
        <g class="x-axis-text">
            <text x="45.0" y="270">0</text>
            <text x="104.9" y="270">10K</text>
            <text x="164.8" y="270">20K</text>
            <text x="224.7" y="270">30K</text>
            <text x="284.6" y="270">40K</text>
            <text x="344.5" y="270">50K</text>
            <text x="404.4" y="270">60K</text>
            <text x="464.29999999999995" y="270">70K</text>
            <text x="524.2" y="270">80K</text>
            <text x="584.1" y="270">90K</text>
            <text x="644.0" y="270">100K</text>
        </g>
        <g class="y-axis-text">
            <text x="42" y="261.0">0</text>
            <text x="42" y="211.4">100</text>
            <text x="42" y="161.8">200</text>
            <text x="42" y="112.19999999999999">300</text>
            <text x="42" y="62.599999999999994">400</text>
            <text x="42" y="13.0">500</text>
        </g>
    </g>
    <g class="gridlines">
        <line x1="104.5" y1="258" x2="104.5" y2="10"></line>
        <line x1="164.5" y1="258" x2="164.5" y2="10"></line>
        <line x1="224.5" y1="258" x2="224.5" y2="10"></line>
        <line x1="284.5" y1="258" x2="284.5" y2="10"></line>
        <line x1="344.5" y1="258" x2="344.5" y2="10"></line>
        <line x1="404.5" y1="258" x2="404.5" y2="10"></line>
        <line x1="464.5" y1="258" x2="464.5" y2="10"></line>
        <line x1="524.5" y1="258" x2="524.5" y2="10"></line>
        <line x1="584.5" y1="258" x2="584.5" y2="10"></line>
        <line x1="644.5" y1="258" x2="644.5" y2="10"></line>
        <line x1="45" y1="208.5" x2="644" y2="208.5"></line>
        <line x1="45" y1="158.5" x2="644" y2="158.5"></line>
        <line x1="45" y1="109.5" x2="644" y2="109.5"></line>
        <line x1="45" y1="59.5" x2="644" y2="59.5"></line>
        <line x1="45" y1="10.5" x2="644" y2="10.5"></line>
    </g>
    <path class="data-series" stroke="green" d="M45.6,107.2 46.2,108.7 46.8,111.7 47.4,105.7 48.0,111.2 48.6,109.7 49.2,114.7 49.8,110.2 50.4,113.2 51.0,113.2 51.6,114.7 52.2,115.6 52.8,117.6 53.4,117.6 54.0,119.6 54.6,116.1 55.2,116.1 55.8,117.6 56.4,119.6 57.0,122.1 57.6,124.1 58.2,125.6 58.8,126.1 59.4,126.6 60.0,121.1 60.6,121.1 61.2,118.6 61.8,115.6 62.4,111.2 63.0,109.7 63.6,105.2 64.2,103.7 64.8,102.3 65.4,99.8 66.0,98.8 66.6,96.8 67.2,92.8 67.8,92.3 68.4,86.9 69.0,86.9 69.6,82.9 70.2,81.9 70.8,83.4 71.4,83.9 72.0,86.4 72.6,85.4 73.2,84.4 73.8,84.4 74.4,82.4 75.0,80.4 75.5,83.4 76.1,82.4 76.7,83.4 77.3,80.9 77.9,79.4 78.5,83.9 79.1,84.4 79.7,87.9 80.3,93.3 80.9,96.3 81.5,99.8 82.1,102.8 82.7,101.3 83.3,107.2 83.9,107.2 84.5,113.2 85.1,113.2 85.7,119.1 86.3,119.1 86.9,122.1 87.5,123.1 88.1,126.1 88.7,129.5 89.3,128.0 89.9,127.1 90.5,127.6 91.1,127.1 91.7,129.0 92.3,123.6 92.9,124.1 93.5,123.1 94.1,123.6 94.7,122.6 95.3,126.1 95.9,128.0 96.5,129.0 97.1,126.1 97.7,125.6 98.3,122.1 98.9,122.1 99.5,116.6 100.1,115.6 100.7,114.7 101.3,114.2 101.9,111.2 102.5,114.7 103.1,112.2 103.7,116.6 104.3,117.6 104.9,112.2 105.5,115.2 106.1,117.6 106.7,122.6 107.3,122.1 107.9,118.6 108.5,120.1 109.1,120.6 109.7,122.1 110.3,119.1 110.9,116.6 111.5,117.1 112.1,114.7 112.7,112.2 113.3,112.2 113.9,109.7 114.5,110.7 115.1,110.2 115.7,111.2 116.3,110.2 116.9,110.7 117.5,110.7 118.1,113.2 118.7,109.2 119.3,104.7 119.9,105.2 120.5,105.7 121.1,105.2 121.7,106.2 122.3,107.7 122.9,107.7 123.5,105.7 124.1,104.2 124.7,105.7 125.3,107.7 125.9,110.2 126.5,111.2 127.1,109.2 127.7,107.2 128.3,103.7 128.9,103.7 129.5,106.2 130.1,107.2 130.7,108.2 131.3,104.7 131.9,105.2 132.5,102.3 133.1,102.8 133.7,105.7 134.3,105.7 134.8,103.7 135.4,104.7 136.0,104.7 136.6,105.2 137.2,102.8 137.8,101.3 138.4,101.8 139.0,97.3 139.6,93.3 140.2,89.9 140.8,90.4 141.4,88.9 142.0,87.4 142.6,85.9 143.2,81.9 143.8,82.4 144.4,82.4 145.0,87.9 145.6,90.8 146.2,90.8 146.8,88.4 147.4,86.9 148.0,85.4 148.6,87.4 149.2,85.9 149.8,84.4 150.4,84.9 151.0,81.9 151.6,84.9 152.2,84.4 152.8,85.9 153.4,86.9 154.0,85.9 154.6,87.4 155.2,90.4 155.8,90.8 156.4,93.8 157.0,98.8 157.6,102.3 158.2,101.8 158.8,104.2 159.4,109.7 160.0,114.7 160.6,118.1 161.2,119.1 161.8,120.6 162.4,122.6 163.0,125.6 163.6,126.6 164.2,128.5 164.8,135.0 165.4,139.5 166.0,140.4 166.6,140.0 167.2,140.0 167.8,144.4 168.4,143.9 169.0,143.9 169.6,142.4 170.2,144.9 170.8,147.9 171.4,144.9 172.0,144.9 172.6,143.9 173.2,142.4 173.8,141.4 174.4,138.0 175.0,139.0 175.6,141.4 176.2,143.9 176.8,140.9 177.4,141.9 178.0,142.9 178.6,141.4 179.2,140.4 179.8,134.5 180.4,135.0 181.0,133.5 181.6,129.0 182.2,132.0 182.8,132.5 183.4,131.0 184.0,128.0 184.6,126.6 185.2,120.6 185.8,123.1 186.4,116.6 187.0,110.2 187.6,109.7 188.2,107.7 188.8,107.2 189.4,101.8 190.0,103.2 190.6,105.7 191.2,99.8 191.8,102.8 192.4,103.2 193.0,101.8 193.6,100.8 194.2,98.8 194.8,100.3 195.3,97.3 195.9,97.3 196.5,99.3 197.1,101.8 197.7,105.2 198.3,105.7 198.9,109.7 199.5,115.2 200.1,114.2 200.7,110.2 201.3,114.7 201.9,113.7 202.5,119.1 203.1,118.1 203.7,118.1 204.3,119.1 204.9,121.1 205.5,122.1 206.1,124.1 206.7,122.1 207.3,126.1 207.9,127.6 208.5,131.5 209.1,130.5 209.7,128.0 210.3,129.5 210.9,130.5 211.5,128.5 212.1,130.0 212.7,125.1 213.3,127.6 213.9,127.6 214.5,128.5 215.1,126.1 215.7,128.0 216.3,128.0 216.9,128.5 217.5,127.1 218.1,120.1 218.7,118.1 219.3,118.6 219.9,116.6 220.5,119.1 221.1,114.2 221.7,114.7 222.3,112.7 222.9,112.7 223.5,110.2 224.1,109.7 224.7,106.7 225.3,104.2 225.9,104.2 226.5,106.2 227.1,105.2 227.7,105.2 228.3,100.8 228.9,101.3 229.5,99.3 230.1,101.3 230.7,96.3 231.3,95.3 231.9,91.3 232.5,93.3 233.1,92.8 233.7,93.3 234.3,92.3 234.9,94.8 235.5,97.3 236.1,97.3 236.7,104.2 237.3,109.2 237.9,110.7 238.5,106.2 239.1,106.7 239.7,104.2 240.3,108.2 240.9,108.2 241.5,107.2 242.1,106.7 242.7,102.8 243.3,100.8 243.9,100.8 244.5,99.8 245.1,97.3 245.7,96.8 246.3,95.3 246.9,95.8 247.5,92.3 248.1,90.4 248.7,88.9 249.3,87.9 249.9,92.8 250.5,91.3 251.1,91.3 251.7,88.9 252.3,84.4 252.9,81.4 253.5,81.4 254.1,79.4 254.6,78.9 255.2,78.9 255.8,79.4 256.4,79.9 257.0,84.4 257.6,82.4 258.2,85.9 258.8,83.9 259.4,83.9 260.0,82.4 260.6,83.9 261.2,89.9 261.8,92.3 262.4,94.3 263.0,99.8 263.6,96.8 264.2,97.3 264.8,96.8 265.4,98.3 266.0,101.3 266.6,104.7 267.2,112.7 267.8,116.1 268.4,118.6 269.0,122.6 269.6,123.1 270.2,122.1 270.8,121.6 271.4,120.6 272.0,117.6 272.6,116.6 273.2,118.1 273.8,116.1 274.4,117.1 275.0,124.1 275.6,125.6 276.2,128.5 276.8,130.5 277.4,138.0 278.0,140.4 278.6,139.5 279.2,140.0 279.8,137.5 280.4,138.5 281.0,140.0 281.6,140.0 282.2,138.0 282.8,135.0 283.4,136.0 284.0,134.5 284.6,134.5 285.2,131.0 285.8,129.0 286.4,124.1 287.0,125.1 287.6,123.6 288.2,121.6 288.8,120.1 289.4,116.6 290.0,115.2 290.6,113.7 291.2,113.2 291.8,106.7 292.4,105.7 293.0,101.3 293.6,97.8 294.2,93.8 294.8,88.9 295.4,89.9 296.0,83.4 296.6,83.9 297.2,78.0 297.8,71.5 298.4,70.5 299.0,69.0 299.6,66.5 300.2,65.1 300.8,63.6 301.4,61.1 302.0,59.1 302.6,58.6 303.2,61.1 303.8,60.1 304.4,61.1 305.0,56.6 305.6,55.6 306.2,54.1 306.8,56.1 307.4,60.6 308.0,60.1 308.6,60.6 309.2,61.6 309.8,69.0 310.4,69.0 311.0,76.5 311.6,82.9 312.2,89.9 312.8,92.3 313.4,98.3 314.0,108.7 314.6,114.7 315.1,112.2 315.7,115.2 316.3,126.6 316.9,128.0 317.5,135.5 318.1,136.0 318.7,140.4 319.3,146.4 319.9,151.4 320.5,156.3 321.1,155.8 321.7,154.3 322.3,152.4 322.9,151.4 323.5,153.3 324.1,150.9 324.7,147.9 325.3,146.4 325.9,144.4 326.5,141.4 327.1,137.5 327.7,131.5 328.3,129.5 328.9,129.0 329.5,126.6 330.1,124.1 330.7,119.1 331.3,114.2 331.9,114.7 332.5,113.7 333.1,111.7 333.7,110.2 334.3,105.7 334.9,99.3 335.5,96.8 336.1,91.3 336.7,87.4 337.3,83.9 337.9,80.4 338.5,78.0 339.1,74.0 339.7,72.5 340.3,67.5 340.9,66.0 341.5,60.1 342.1,57.6 342.7,54.1 343.3,50.7 343.9,47.2 344.5,47.2 345.1,46.2 345.7,42.7 346.3,36.8 346.9,35.8 347.5,33.8 348.1,32.8 348.7,28.4 349.3,30.3 349.9,26.9 350.5,23.4 351.1,23.4 351.7,20.4 352.3,18.9 352.9,16.4 353.5,20.4 354.1,22.9 354.7,25.4 355.3,25.4 355.9,23.4 356.5,24.9 357.1,26.4 357.7,24.9 358.3,26.9 358.9,33.3 359.5,35.3 360.1,40.3 360.7,48.2 361.3,61.1 361.9,70.5 362.5,76.5 363.1,84.4 363.7,90.8 364.3,97.8 364.9,104.2 365.5,113.2 366.1,124.6 366.7,133.0 367.3,136.5 367.9,141.9 368.5,147.4 369.1,153.3 369.7,151.9 370.3,153.3 370.9,153.8 371.5,151.9 372.1,149.4 372.7,148.4 373.3,148.4 373.9,144.9 374.4,143.4 375.0,143.9 375.6,140.0 376.2,139.0 376.8,137.5 377.4,135.0 378.0,132.5 378.6,130.0 379.2,125.6 379.8,125.6 380.4,126.6 381.0,124.6 381.6,122.6 382.2,119.1 382.8,118.6 383.4,121.6 384.0,122.1 384.6,120.6 385.2,119.1 385.8,117.6 386.4,118.1 387.0,116.6 387.6,118.1 388.2,119.1 388.8,118.6 389.4,116.6 390.0,111.7 390.6,111.7 391.2,107.7 391.8,112.7 392.4,112.2 393.0,108.7 393.6,108.7 394.2,106.2 394.8,109.2 395.4,108.2 396.0,109.2 396.6,112.7 397.2,112.7 397.8,113.2 398.4,112.2 399.0,112.7 399.6,113.2 400.2,112.7 400.8,110.2 401.4,111.2 402.0,108.2 402.6,107.2 403.2,105.7 403.8,102.3 404.4,97.3 405.0,96.3 405.6,93.8 406.2,89.9 406.8,88.9 407.4,89.4 408.0,89.4 408.6,91.8 409.2,90.4 409.8,89.9 410.4,89.4 411.0,88.9 411.6,88.9 412.2,85.4 412.8,83.4 413.4,78.9 414.0,75.0 414.6,75.0 415.2,69.5 415.8,70.0 416.4,71.5 417.0,70.0 417.6,66.5 418.2,71.5 418.8,72.0 419.4,73.5 420.0,78.0 420.6,83.9 421.2,82.4 421.8,79.9 422.4,78.4 423.0,80.9 423.6,81.4 424.2,83.4 424.8,84.4 425.4,85.4 426.0,88.4 426.6,92.3 427.2,91.8 427.8,93.8 428.4,98.8 429.0,100.8 429.6,99.3 430.2,99.8 430.8,102.3 431.4,105.7 432.0,112.2 432.6,109.2 433.2,111.2 433.8,117.1 434.3,122.1 434.9,122.1 435.5,121.6 436.1,121.6 436.7,122.6 437.3,130.5 437.9,132.0 438.5,133.5 439.1,136.0 439.7,139.0 440.3,139.0 440.9,140.0 441.5,142.4 442.1,143.4 442.7,145.9 443.3,146.4 443.9,149.9 444.5,147.4 445.1,145.9 445.7,147.9 446.3,146.9 446.9,149.4 447.5,149.4 448.1,149.4 448.7,145.4 449.3,144.4 449.9,140.9 450.5,134.5 451.1,134.0 451.7,133.0 452.3,132.5 452.9,130.5 453.5,125.1 454.1,125.6 454.7,122.1 455.3,121.1 455.9,115.6 456.5,110.2 457.1,106.2 457.7,106.2 458.3,104.2 458.9,101.8 459.5,101.3 460.1,99.8 460.7,100.3 461.3,99.8 461.9,95.3 462.5,94.3 463.1,94.3 463.7,91.8 464.3,91.8 464.9,86.9 465.5,84.4 466.1,82.9 466.7,83.9 467.3,83.4 467.9,78.9 468.5,78.4 469.1,78.0 469.7,77.0 470.3,73.0 470.9,72.5 471.5,70.5 472.1,74.0 472.7,76.0 473.3,76.5 473.9,74.5 474.5,75.0 475.1,78.4 475.7,78.0 476.3,80.4 476.9,87.9 477.5,90.4 478.1,97.3 478.7,99.8 479.3,103.2 479.9,105.2 480.5,105.7 481.1,109.7 481.7,111.7 482.3,113.2 482.9,117.1 483.5,120.1 484.1,119.6 484.7,119.6 485.3,121.1 485.9,123.6 486.5,125.1 487.1,127.1 487.7,129.0 488.3,126.6 488.9,124.6 489.5,122.6 490.1,124.6 490.7,125.6 491.3,122.1 491.9,120.6 492.5,117.1 493.1,114.2 493.7,113.7 494.2,114.2 494.8,112.7 495.4,113.2 496.0,114.2 496.6,110.7 497.2,109.2 497.8,107.2 498.4,107.2 499.0,106.2 499.6,110.2 500.2,108.7 500.8,111.2 501.4,111.2 502.0,112.7 502.6,109.7 503.2,108.2 503.8,106.7 504.4,108.7 505.0,114.2 505.6,111.7 506.2,108.7 506.8,109.2 507.4,107.2 508.0,105.7 508.6,105.7 509.2,104.7 509.8,102.8 510.4,103.7 511.0,104.2 511.6,102.3 512.2,105.7 512.8,107.2 513.4,108.7 514.0,107.7 514.6,109.7 515.2,108.7 515.8,111.2 516.4,112.2 517.0,110.2 517.6,110.7 518.2,114.7 518.8,109.7 519.4,111.7 520.0,112.7 520.6,106.7 521.2,105.7 521.8,106.7 522.4,103.7 523.0,102.8 523.6,96.3 524.2,90.4 524.8,87.4 525.4,85.4 526.0,83.9 526.6,78.9 527.2,79.9 527.8,77.5 528.4,74.0 529.0,72.5 529.6,74.5 530.2,77.5 530.8,78.0 531.4,70.5 532.0,73.0 532.6,72.5 533.2,72.0 533.8,75.0 534.4,76.5 535.0,80.4 535.6,87.4 536.2,89.4 536.8,88.9 537.4,93.8 538.0,94.8 538.6,98.3 539.2,103.2 539.8,106.7 540.4,104.2 541.0,103.7 541.6,106.2 542.2,111.2 542.8,111.7 543.4,111.7 544.0,113.2 544.6,115.2 545.2,115.6 545.8,113.7 546.4,113.7 547.0,115.2 547.6,116.6 548.2,119.6 548.8,120.6 549.4,120.6 550.0,118.6 550.6,118.1 551.2,116.1 551.8,112.2 552.4,108.2 553.0,103.7 553.6,101.8 554.1,94.8 554.7,92.3 555.3,92.3 555.9,88.4 556.5,84.4 557.1,78.4 557.7,78.0 558.3,76.0 558.9,74.5 559.5,69.0 560.1,65.6 560.7,61.6 561.3,61.6 561.9,59.1 562.5,61.1 563.1,58.1 563.7,55.6 564.3,54.1 564.9,53.6 565.5,51.7 566.1,48.2 566.7,46.7 567.3,48.2 567.9,50.2 568.5,50.2 569.1,55.6 569.7,58.6 570.3,59.1 570.9,61.1 571.5,64.1 572.1,69.5 572.7,71.0 573.3,77.5 573.9,76.5 574.5,81.4 575.1,86.9 575.7,91.8 576.3,92.8 576.9,96.3 577.5,102.8 578.1,110.2 578.7,117.1 579.3,120.6 579.9,123.6 580.5,124.6 581.1,127.6 581.7,132.5 582.3,129.0 582.9,129.0 583.5,131.5 584.1,133.5 584.7,135.5 585.3,133.0 585.9,132.0 586.5,132.5 587.1,133.0 587.7,132.0 588.3,134.0 588.9,136.0 589.5,136.0 590.1,136.5 590.7,134.5 591.3,134.5 591.9,135.5 592.5,138.0 593.1,137.0 593.7,132.5 594.3,131.0 594.9,130.0 595.5,128.0 596.1,122.1 596.7,124.6 597.3,119.1 597.9,118.1 598.5,116.1 599.1,113.7 599.7,112.2 600.3,113.7 600.9,111.2 601.5,110.2 602.1,105.7 602.7,99.3 603.3,97.3 603.9,93.3 604.5,91.3 605.1,91.3 605.7,92.3 606.3,90.8 606.9,90.4 607.5,86.9 608.1,88.4 608.7,85.9 609.3,93.8 609.9,95.8 610.5,99.3 611.1,100.3 611.7,107.2 612.3,108.7 612.9,113.7 613.5,109.7 614.0,112.2 614.6,108.7 615.2,109.7 615.8,110.2 616.4,107.7 617.0,111.2 617.6,114.7 618.2,114.7 618.8,117.1 619.4,114.7 620.0,118.6 620.6,121.1 621.2,120.6 621.8,120.6 622.4,117.6 623.0,115.2 623.6,112.2 624.2,109.7 624.8,107.2 625.4,102.3 626.0,100.8 626.6,99.3 627.2,100.3 627.8,100.3 628.4,101.3 629.0,100.8 629.6,99.8 630.2,97.3 630.8,92.8 631.4,94.8 632.0,90.8 632.6,86.9 633.2,85.9 633.8,86.4 634.4,89.4 635.0,85.9 635.6,85.4 636.2,83.4 636.8,83.4 637.4,85.4 638.0,86.4 638.6,86.9 639.2,86.9 639.8,80.9 640.4,78.4 641.0,75.0 641.6,73.5 642.2,75.0 642.8,77.0 643.4,76.0 644.0,81.9"></path>
    <path class="data-series" stroke="#0060e5" d="M45.6,232.7 46.2,229.7 46.8,225.8 47.4,221.3 48.0,218.3 48.6,223.8 49.2,220.8 49.8,222.3 50.4,223.3 51.0,223.3 51.6,225.8 52.2,223.8 52.8,223.3 53.4,224.8 54.0,224.3 54.6,223.3 55.2,225.3 55.8,226.8 56.4,226.8 57.0,224.3 57.6,224.3 58.2,225.8 58.8,226.3 59.4,229.2 60.0,232.2 60.6,231.7 61.2,236.7 61.8,235.7 62.4,238.7 63.0,238.7 63.6,240.1 64.2,238.2 64.8,237.2 65.4,238.2 66.0,237.7 66.6,239.6 67.2,240.1 67.8,240.6 68.4,240.6 69.0,238.7 69.6,238.2 70.2,239.6 70.8,238.7 71.4,237.7 72.0,237.2 72.6,236.7 73.2,234.2 73.8,232.2 74.4,233.7 75.0,233.7 75.5,229.7 76.1,230.2 76.7,230.2 77.3,229.7 77.9,227.2 78.5,227.2 79.1,226.8 79.7,224.8 80.3,221.3 80.9,221.3 81.5,218.3 82.1,215.8 82.7,215.3 83.3,211.9 83.9,212.9 84.5,212.9 85.1,215.3 85.7,215.8 86.3,216.3 86.9,218.3 87.5,218.8 88.1,217.3 88.7,220.3 89.3,224.3 89.9,223.3 90.5,223.8 91.1,226.3 91.7,228.7 92.3,228.7 92.9,228.7 93.5,228.2 94.1,229.7 94.7,229.2 95.3,227.2 95.9,227.2 96.5,228.7 97.1,229.2 97.7,232.7 98.3,235.7 98.9,235.7 99.5,237.7 100.1,237.2 100.7,236.7 101.3,235.2 101.9,235.7 102.5,231.2 103.1,231.2 103.7,227.7 104.3,225.3 104.9,225.3 105.5,223.8 106.1,225.3 106.7,224.3 107.3,226.8 107.9,231.2 108.5,230.7 109.1,229.7 109.7,233.2 110.3,234.2 110.9,234.2 111.5,233.7 112.1,232.7 112.7,234.2 113.3,233.7 113.9,234.2 114.5,233.7 115.1,233.7 115.7,235.7 116.3,236.7 116.9,235.7 117.5,234.2 118.1,234.7 118.7,233.2 119.3,232.7 119.9,229.2 120.5,230.7 121.1,229.2 121.7,227.7 122.3,226.3 122.9,224.3 123.5,225.8 124.1,227.2 124.7,229.2 125.3,231.2 125.9,230.7 126.5,230.2 127.1,229.7 127.7,230.2 128.3,230.7 128.9,230.2 129.5,233.2 130.1,234.7 130.7,233.7 131.3,232.7 131.9,233.2 132.5,234.2 133.1,231.2 133.7,231.2 134.3,234.7 134.8,234.2 135.4,235.2 136.0,235.7 136.6,234.7 137.2,234.7 137.8,235.7 138.4,234.7 139.0,234.7 139.6,235.7 140.2,238.2 140.8,238.7 141.4,239.2 142.0,236.7 142.6,234.2 143.2,235.2 143.8,234.7 144.4,234.7 145.0,232.2 145.6,230.7 146.2,231.2 146.8,231.2 147.4,231.2 148.0,231.7 148.6,232.7 149.2,235.7 149.8,233.7 150.4,231.7 151.0,231.2 151.6,233.7 152.2,232.7 152.8,232.7 153.4,234.2 154.0,231.2 154.6,229.7 155.2,228.7 155.8,227.2 156.4,227.2 157.0,224.3 157.6,222.3 158.2,222.8 158.8,223.3 159.4,222.8 160.0,221.8 160.6,222.3 161.2,224.3 161.8,222.3 162.4,221.3 163.0,221.8 163.6,222.8 164.2,217.8 164.8,213.4 165.4,217.8 166.0,220.8 166.6,222.3 167.2,224.3 167.8,222.3 168.4,225.8 169.0,227.7 169.6,226.8 170.2,230.7 170.8,230.7 171.4,234.2 172.0,234.7 172.6,233.2 173.2,234.7 173.8,234.2 174.4,234.2 175.0,234.7 175.6,232.2 176.2,230.2 176.8,231.2 177.4,232.2 178.0,233.2 178.6,233.7 179.2,237.2 179.8,241.1 180.4,240.6 181.0,239.2 181.6,242.1 182.2,240.6 182.8,238.7 183.4,238.2 184.0,239.2 184.6,238.7 185.2,238.7 185.8,237.7 186.4,240.1 187.0,240.6 187.6,239.2 188.2,239.2 188.8,239.2 189.4,239.6 190.0,239.2 190.6,238.2 191.2,238.2 191.8,236.7 192.4,234.2 193.0,231.2 193.6,231.7 194.2,232.2 194.8,229.7 195.3,230.2 195.9,229.2 196.5,226.3 197.1,225.8 197.7,224.3 198.3,224.3 198.9,222.8 199.5,220.3 200.1,222.3 200.7,220.8 201.3,216.3 201.9,216.3 202.5,219.8 203.1,220.3 203.7,219.3 204.3,218.8 204.9,220.8 205.5,219.8 206.1,219.3 206.7,220.3 207.3,220.8 207.9,221.3 208.5,220.8 209.1,220.3 209.7,219.8 210.3,221.8 210.9,224.3 211.5,226.3 212.1,226.8 212.7,228.7 213.3,229.7 213.9,226.3 214.5,230.2 215.1,231.2 215.7,231.7 216.3,230.7 216.9,231.2 217.5,230.7 218.1,233.2 218.7,233.7 219.3,234.7 219.9,234.2 220.5,236.7 221.1,238.2 221.7,237.7 222.3,238.2 222.9,236.7 223.5,233.7 224.1,234.7 224.7,234.2 225.3,234.2 225.9,232.2 226.5,233.2 227.1,234.2 227.7,233.7 228.3,233.7 228.9,234.2 229.5,234.2 230.1,239.2 230.7,240.6 231.3,239.6 231.9,238.2 232.5,236.7 233.1,235.7 233.7,235.7 234.3,235.2 234.9,234.2 235.5,233.7 236.1,234.7 236.7,230.2 237.3,229.2 237.9,229.2 238.5,230.2 239.1,230.2 239.7,229.7 240.3,231.7 240.9,232.7 241.5,234.2 242.1,233.2 242.7,233.2 243.3,232.7 243.9,233.2 244.5,231.7 245.1,235.7 245.7,236.2 246.3,237.7 246.9,235.2 247.5,235.7 248.1,238.7 248.7,237.7 249.3,235.7 249.9,234.2 250.5,236.2 251.1,236.2 251.7,237.7 252.3,237.2 252.9,238.2 253.5,239.2 254.1,241.1 254.6,240.6 255.2,240.1 255.8,236.2 256.4,237.2 257.0,234.7 257.6,233.2 258.2,230.2 258.8,229.2 259.4,229.2 260.0,229.2 260.6,226.8 261.2,225.3 261.8,223.3 262.4,222.8 263.0,220.8 263.6,219.8 264.2,220.3 264.8,221.8 265.4,224.3 266.0,223.8 266.6,223.8 267.2,220.3 267.8,219.3 268.4,218.8 269.0,215.8 269.6,214.4 270.2,213.9 270.8,218.8 271.4,219.8 272.0,221.8 272.6,223.8 273.2,224.3 273.8,226.3 274.4,225.3 275.0,225.3 275.6,225.8 276.2,224.3 276.8,223.8 277.4,219.8 278.0,218.3 278.6,219.8 279.2,223.3 279.8,225.3 280.4,227.2 281.0,229.7 281.6,230.7 282.2,231.7 282.8,232.2 283.4,233.2 284.0,236.7 284.6,234.7 285.2,233.7 285.8,235.7 286.4,237.7 287.0,238.7 287.6,238.7 288.2,240.6 288.8,242.1 289.4,242.1 290.0,241.6 290.6,243.6 291.2,242.6 291.8,242.6 292.4,242.6 293.0,243.6 293.6,243.6 294.2,243.6 294.8,246.1 295.4,243.6 296.0,242.6 296.6,242.6 297.2,244.1 297.8,244.1 298.4,244.6 299.0,245.1 299.6,245.6 300.2,242.6 300.8,241.1 301.4,240.1 302.0,240.6 302.6,240.1 303.2,237.7 303.8,236.7 304.4,237.2 305.0,236.7 305.6,234.7 306.2,231.2 306.8,230.2 307.4,228.7 308.0,227.2 308.6,225.3 309.2,226.3 309.8,223.8 310.4,222.3 311.0,219.3 311.6,217.3 312.2,215.3 312.8,212.4 313.4,209.4 314.0,209.9 314.6,208.9 315.1,208.4 315.7,208.9 316.3,204.4 316.9,203.4 317.5,200.5 318.1,201.5 318.7,200.0 319.3,201.5 319.9,205.4 320.5,207.9 321.1,211.4 321.7,216.3 322.3,219.3 322.9,221.8 323.5,223.8 324.1,226.8 324.7,229.7 325.3,233.7 325.9,237.2 326.5,237.7 327.1,240.1 327.7,242.6 328.3,241.6 328.9,243.1 329.5,244.6 330.1,244.6 330.7,244.1 331.3,245.6 331.9,246.1 332.5,246.1 333.1,245.1 333.7,244.1 334.3,247.1 334.9,247.6 335.5,249.1 336.1,250.1 336.7,250.1 337.3,251.1 337.9,249.6 338.5,249.6 339.1,250.6 339.7,251.6 340.3,252.0 340.9,249.6 341.5,250.1 342.1,250.6 342.7,250.1 343.3,249.6 343.9,251.1 344.5,250.6 345.1,248.6 345.7,247.6 346.3,247.1 346.9,247.1 347.5,246.6 348.1,244.6 348.7,244.1 349.3,242.6 349.9,243.6 350.5,242.1 351.1,244.1 351.7,243.6 352.3,243.1 352.9,242.6 353.5,240.6 354.1,238.2 354.7,233.2 355.3,232.7 355.9,232.7 356.5,232.7 357.1,230.2 357.7,232.2 358.3,231.7 358.9,229.2 359.5,225.8 360.1,219.3 360.7,216.3 361.3,209.9 361.9,203.9 362.5,200.0 363.1,196.0 363.7,196.5 364.3,193.0 364.9,195.0 365.5,190.5 366.1,193.5 366.7,190.5 367.3,188.6 367.9,189.1 368.5,193.0 369.1,200.0 369.7,202.0 370.3,203.4 370.9,211.9 371.5,214.4 372.1,221.8 372.7,223.8 373.3,226.8 373.9,231.2 374.4,234.2 375.0,236.2 375.6,236.2 376.2,240.1 376.8,239.6 377.4,240.1 378.0,239.6 378.6,239.2 379.2,239.2 379.8,240.6 380.4,240.6 381.0,242.1 381.6,240.6 382.2,240.6 382.8,239.2 383.4,239.2 384.0,237.7 384.6,238.2 385.2,238.7 385.8,238.2 386.4,237.2 387.0,235.2 387.6,236.2 388.2,234.2 388.8,231.7 389.4,231.7 390.0,233.7 390.6,234.2 391.2,236.2 391.8,233.7 392.4,233.7 393.0,235.2 393.6,235.2 394.2,235.7 394.8,234.7 395.4,236.2 396.0,235.2 396.6,231.2 397.2,230.2 397.8,231.7 398.4,232.7 399.0,233.2 399.6,232.2 400.2,236.7 400.8,237.7 401.4,235.7 402.0,235.7 402.6,233.7 403.2,236.7 403.8,238.7 404.4,237.2 405.0,238.7 405.6,239.2 406.2,239.6 406.8,238.2 407.4,237.2 408.0,237.2 408.6,234.2 409.2,233.2 409.8,233.7 410.4,233.2 411.0,234.2 411.6,233.7 412.2,234.7 412.8,236.7 413.4,237.2 414.0,237.2 414.6,238.7 415.2,240.6 415.8,239.6 416.4,235.2 417.0,235.2 417.6,234.2 418.2,232.2 418.8,231.2 419.4,230.2 420.0,230.7 420.6,229.7 421.2,229.2 421.8,229.7 422.4,232.2 423.0,232.2 423.6,232.2 424.2,231.7 424.8,232.7 425.4,229.7 426.0,228.7 426.6,225.3 427.2,222.8 427.8,223.3 428.4,219.8 429.0,221.3 429.6,220.8 430.2,223.3 430.8,224.3 431.4,222.8 432.0,218.8 432.6,219.8 433.2,218.8 433.8,216.8 434.3,212.9 434.9,212.9 435.5,213.4 436.1,210.9 436.7,212.9 437.3,212.4 437.9,213.9 438.5,216.8 439.1,222.3 439.7,219.8 440.3,217.8 440.9,218.3 441.5,220.8 442.1,224.3 442.7,221.3 443.3,226.3 443.9,229.2 444.5,227.7 445.1,228.7 445.7,230.7 446.3,232.2 446.9,229.7 447.5,230.2 448.1,230.2 448.7,232.7 449.3,230.7 449.9,233.2 450.5,236.2 451.1,238.2 451.7,239.2 452.3,238.2 452.9,239.2 453.5,240.6 454.1,242.1 454.7,241.6 455.3,242.1 455.9,244.1 456.5,244.1 457.1,244.6 457.7,243.6 458.3,243.1 458.9,243.1 459.5,241.1 460.1,238.7 460.7,240.1 461.3,240.1 461.9,241.1 462.5,239.6 463.1,240.6 463.7,241.1 464.3,239.6 464.9,239.6 465.5,239.6 466.1,239.2 466.7,237.2 467.3,234.7 467.9,234.7 468.5,236.2 469.1,234.2 469.7,232.7 470.3,234.2 470.9,232.7 471.5,231.7 472.1,230.2 472.7,228.2 473.3,229.2 473.9,227.7 474.5,226.8 475.1,224.8 475.7,225.8 476.3,224.3 476.9,218.8 477.5,217.3 478.1,213.9 478.7,215.3 479.3,211.9 479.9,214.8 480.5,214.8 481.1,217.3 481.7,215.3 482.3,215.3 482.9,215.3 483.5,217.3 484.1,220.3 484.7,220.3 485.3,221.8 485.9,220.3 486.5,223.8 487.1,226.3 487.7,226.3 488.3,228.7 488.9,229.7 489.5,231.2 490.1,232.2 490.7,231.7 491.3,232.7 491.9,234.2 492.5,234.7 493.1,234.2 493.7,234.2 494.2,234.7 494.8,231.7 495.4,229.7 496.0,230.7 496.6,228.2 497.2,228.2 497.8,231.2 498.4,232.2 499.0,232.7 499.6,232.7 500.2,233.2 500.8,234.2 501.4,233.7 502.0,235.2 502.6,235.2 503.2,237.2 503.8,238.2 504.4,238.2 505.0,231.7 505.6,231.2 506.2,232.2 506.8,230.2 507.4,228.7 508.0,229.7 508.6,232.7 509.2,232.2 509.8,231.7 510.4,230.7 511.0,230.7 511.6,230.7 512.2,231.2 512.8,230.2 513.4,229.7 514.0,229.2 514.6,227.7 515.2,230.7 515.8,229.7 516.4,229.2 517.0,230.7 517.6,232.2 518.2,233.2 518.8,232.7 519.4,232.2 520.0,232.7 520.6,234.2 521.2,234.2 521.8,235.2 522.4,235.7 523.0,237.7 523.6,239.2 524.2,241.1 524.8,241.6 525.4,244.1 526.0,244.1 526.6,244.6 527.2,244.6 527.8,244.1 528.4,242.6 529.0,241.6 529.6,240.1 530.2,233.7 530.8,231.2 531.4,231.2 532.0,229.2 532.6,227.2 533.2,228.7 533.8,226.3 534.4,226.3 535.0,224.8 535.6,222.8 536.2,220.8 536.8,218.8 537.4,217.8 538.0,217.8 538.6,216.3 539.2,217.8 539.8,217.3 540.4,222.3 541.0,223.8 541.6,223.3 542.2,222.8 542.8,226.3 543.4,226.3 544.0,226.8 544.6,228.2 545.2,230.7 545.8,231.2 546.4,230.2 547.0,228.7 547.6,231.7 548.2,229.7 548.8,228.2 549.4,226.8 550.0,228.7 550.6,230.2 551.2,232.7 551.8,236.2 552.4,241.1 553.0,243.1 553.6,243.6 554.1,245.1 554.7,244.6 555.3,246.1 555.9,247.1 556.5,246.6 557.1,247.1 557.7,246.1 558.3,246.1 558.9,246.6 559.5,247.1 560.1,248.1 560.7,247.6 561.3,247.1 561.9,247.1 562.5,246.1 563.1,244.6 563.7,242.6 564.3,242.6 564.9,242.1 565.5,240.6 566.1,240.6 566.7,240.1 567.3,239.2 567.9,234.2 568.5,232.7 569.1,229.2 569.7,224.8 570.3,221.8 570.9,218.8 571.5,216.3 572.1,212.4 572.7,216.3 573.3,212.9 573.9,212.4 574.5,212.4 575.1,209.4 575.7,205.9 576.3,207.9 576.9,208.4 577.5,210.4 578.1,208.4 578.7,210.9 579.3,213.9 579.9,213.4 580.5,210.4 581.1,211.9 581.7,215.3 582.3,216.3 582.9,214.8 583.5,218.3 584.1,221.8 584.7,222.8 585.3,225.8 585.9,223.8 586.5,223.3 587.1,222.8 587.7,219.3 588.3,220.3 588.9,219.3 589.5,221.8 590.1,222.8 590.7,225.3 591.3,227.2 591.9,228.2 592.5,230.2 593.1,231.2 593.7,232.2 594.3,233.2 594.9,235.7 595.5,237.7 596.1,239.2 596.7,236.2 597.3,237.7 597.9,238.2 598.5,237.7 599.1,238.7 599.7,240.1 600.3,241.6 600.9,241.6 601.5,239.6 602.1,240.1 602.7,240.6 603.3,240.1 603.9,239.2 604.5,239.2 605.1,239.6 605.7,238.7 606.3,237.2 606.9,234.2 607.5,236.2 608.1,232.2 608.7,231.2 609.3,227.7 609.9,226.3 610.5,222.3 611.1,221.3 611.7,218.3 612.3,216.3 612.9,216.8 613.5,217.3 614.0,215.8 614.6,218.3 615.2,221.8 615.8,222.3 616.4,223.8 617.0,226.3 617.6,226.3 618.2,228.2 618.8,226.8 619.4,225.8 620.0,224.3 620.6,224.8 621.2,224.3 621.8,226.3 622.4,228.7 623.0,231.2 623.6,233.7 624.2,235.7 624.8,236.2 625.4,238.7 626.0,238.2 626.6,240.6 627.2,239.6 627.8,238.2 628.4,237.7 629.0,237.2 629.6,237.2 630.2,238.7 630.8,238.2 631.4,238.7 632.0,239.6 632.6,242.6 633.2,242.1 633.8,241.1 634.4,239.2 635.0,239.2 635.6,238.2 636.2,238.7 636.8,237.7 637.4,235.7 638.0,234.2 638.6,233.7 639.2,233.7 639.8,233.2 640.4,232.7 641.0,235.2 641.6,236.7 642.2,235.7 642.8,232.7 643.4,231.7 644.0,227.2"></path>
    <text text-anchor="end" fill="green" x="640" y="105">Food</text>
    <text text-anchor="end" fill="#0060e5" x="640" y="208">Creatures</text>
</svg>