<svg width="660" xmlns="http://www.w3.org/2000/svg" height="300">

<style>
  .data-series {
    opacity: 1;
    stroke-width: 1.8;
    fill: none;
  }
  .axis {
    stroke: #111;
    stroke-width: 1;
  }
  .y-axis-text {
    text-anchor: end;
  }
  .background {
    fill: none;
  }
  .axis-units {
    font-size: 10px;
    font-family: Arial;
  }
  .gridlines {
    opacity: 0.5;
    stroke: black;
    stroke-width: 0.3;
    fill: none;
  }
  .x-axis-text {
    text-anchor: middle;
  }
  .axis-label {
    font-size: 14px;
    font-family: Arial;
    text-anchor: middle;
  }
  </style>

    <text y="290" x="344.5" class="axis-label">Time (ticks)</text>
    <text y="134.0" x="0" class="axis-label" transform="translate(15.0) rotate(-90, 0, 134.0)">Population size</text>
    <line y1="258" x2="645" x1="45" y2="258" class="axis"></line>
    <line y1="258" x2="45" x1="45" y2="10" class="axis"></line>
    <g class="axis-units">
        <g class="x-axis-text">
            <text y="270" x="45.0">0</text>
            <text y="270" x="104.9">10K</text>
            <text y="270" x="164.8">20K</text>
            <text y="270" x="224.7">30K</text>
            <text y="270" x="284.6">40K</text>
            <text y="270" x="344.5">50K</text>
            <text y="270" x="404.4">60K</text>
            <text y="270" x="464.3">70K</text>
            <text y="270" x="524.2">80K</text>
            <text y="270" x="584.1">90K</text>
            <text y="270" x="644.0">100K</text>
        </g>
        <g class="y-axis-text">
            <text y="261.0" x="42">0</text>
            <text y="225.571428571" x="42">100</text>
            <text y="190.142857143" x="42">200</text>
            <text y="154.714285714" x="42">300</text>
            <text y="119.285714286" x="42">400</text>
            <text y="83.8571428571" x="42">500</text>
            <text y="48.4285714286" x="42">600</text>
            <text y="13.0" x="42">700</text>
        </g>
    </g>
    <g class="gridlines">
        <line y1="258" x2="104.5" x1="104.5" y2="10"></line>
        <line y1="258" x2="164.5" x1="164.5" y2="10"></line>
        <line y1="258" x2="224.5" x1="224.5" y2="10"></line>
        <line y1="258" x2="284.5" x1="284.5" y2="10"></line>
        <line y1="258" x2="344.5" x1="344.5" y2="10"></line>
        <line y1="258" x2="404.5" x1="404.5" y2="10"></line>
        <line y1="258" x2="464.5" x1="464.5" y2="10"></line>
        <line y1="258" x2="524.5" x1="524.5" y2="10"></line>
        <line y1="258" x2="584.5" x1="584.5" y2="10"></line>
        <line y1="258" x2="644.5" x1="644.5" y2="10"></line>
        <line y1="222.5" x2="644" x1="45" y2="222.5"></line>
        <line y1="187.5" x2="644" x1="45" y2="187.5"></line>
        <line y1="151.5" x2="644" x1="45" y2="151.5"></line>
        <line y1="116.5" x2="644" x1="45" y2="116.5"></line>
        <line y1="80.5" x2="644" x1="45" y2="80.5"></line>
        <line y1="45.5" x2="644" x1="45" y2="45.5"></line>
        <line y1="10.5" x2="644" x1="45" y2="10.5"></line>
    </g>
    <path stroke="green" class="data-series" d="M45.6,185.7 46.2,184.0 46.8,181.8 47.4,178.3 48.0,175.1 48.6,174.4 49.2,172.3 49.8,170.1 50.4,166.6 51.0,162.0 51.6,159.5 52.2,156.7 52.8,154.2 53.4,151.0 54.0,145.3 54.6,141.4 55.2,138.3 55.8,133.6 56.4,130.5 57.0,125.9 57.6,121.2 58.2,119.8 58.8,113.1 59.4,110.6 60.0,106.7 60.6,102.8 61.2,100.7 61.8,96.8 62.4,90.8 63.0,87.6 63.6,85.8 64.2,82.6 64.8,80.5 65.4,77.3 66.0,69.9 66.6,64.9 67.2,59.2 67.8,56.4 68.4,53.2 69.0,50.4 69.6,46.8 70.2,45.1 70.8,43.3 71.4,41.2 72.0,37.6 72.6,35.2 73.2,34.4 73.8,32.3 74.4,30.5 75.0,27.7 75.5,28.8 76.1,26.7 76.7,25.9 77.3,22.0 77.9,21.3 78.5,17.1 79.1,14.6 79.7,15.0 80.3,17.4 80.9,20.3 81.5,23.1 82.1,26.3 82.7,32.3 83.3,42.9 83.9,55.7 84.5,64.2 85.1,83.0 85.7,93.3 86.3,107.4 86.9,123.4 87.5,142.5 88.1,157.4 88.7,164.1 89.3,176.9 89.9,182.9 90.5,188.2 91.1,190.7 91.7,194.9 92.3,200.3 92.9,202.0 93.5,202.0 94.1,201.0 94.7,204.5 95.3,202.0 95.9,199.2 96.5,199.9 97.1,194.6 97.7,197.1 98.3,195.3 98.9,192.5 99.5,193.5 100.1,189.3 100.7,187.9 101.3,187.1 101.9,187.1 102.5,185.0 103.1,182.2 103.7,177.9 104.3,175.1 104.9,172.3 105.5,166.6 106.1,165.5 106.7,164.1 107.3,162.3 107.9,160.9 108.5,159.5 109.1,155.3 109.7,151.7 110.3,149.6 110.9,146.8 111.5,143.9 112.1,142.9 112.7,140.4 113.3,137.5 113.9,136.5 114.5,134.0 115.1,129.7 115.7,128.7 116.3,125.1 116.9,122.7 117.5,118.4 118.1,118.1 118.7,116.6 119.3,115.9 119.9,114.9 120.5,111.7 121.1,109.2 121.7,105.3 122.3,104.6 122.9,101.8 123.5,100.3 124.1,97.9 124.7,97.5 125.3,97.2 125.9,95.0 126.5,93.3 127.1,91.1 127.7,91.1 128.3,89.7 128.9,92.9 129.5,94.0 130.1,97.2 130.7,96.4 131.3,95.4 131.9,98.6 132.5,98.2 133.1,99.3 133.7,102.5 134.3,106.4 134.8,109.2 135.4,113.8 136.0,118.4 136.6,125.9 137.2,126.9 137.8,130.1 138.4,135.1 139.0,139.7 139.6,145.0 140.2,152.8 140.8,158.1 141.4,163.1 142.0,170.5 142.6,176.5 143.2,180.4 143.8,182.9 144.4,186.8 145.0,187.9 145.6,188.9 146.2,189.3 146.8,188.9 147.4,190.0 148.0,191.7 148.6,190.0 149.2,188.9 149.8,189.6 150.4,184.3 151.0,182.5 151.6,181.1 152.2,181.8 152.8,179.3 153.4,180.8 154.0,176.5 154.6,173.3 155.2,172.3 155.8,173.3 156.4,169.8 157.0,167.3 157.6,163.4 158.2,161.6 158.8,159.5 159.4,158.8 160.0,158.1 160.6,154.2 161.2,150.7 161.8,147.8 162.4,147.5 163.0,145.3 163.6,142.5 164.2,140.7 164.8,141.1 165.4,137.9 166.0,139.7 166.6,141.1 167.2,141.4 167.8,142.1 168.4,141.8 169.0,146.0 169.6,145.7 170.2,148.5 170.8,152.1 171.4,150.7 172.0,154.9 172.6,156.0 173.2,156.3 173.8,158.4 174.4,157.4 175.0,157.0 175.6,158.1 176.2,155.6 176.8,156.0 177.4,158.8 178.0,158.8 178.6,156.7 179.2,154.5 179.8,157.4 180.4,159.2 181.0,157.4 181.6,155.6 182.2,156.0 182.8,156.3 183.4,159.5 184.0,158.4 184.6,160.6 185.2,159.9 185.8,160.9 186.4,160.9 187.0,161.3 187.6,162.3 188.2,160.9 188.8,160.6 189.4,158.4 190.0,161.6 190.6,158.8 191.2,158.4 191.8,155.6 192.4,155.6 193.0,154.2 193.6,152.4 194.2,151.4 194.8,151.0 195.3,145.3 195.9,148.2 196.5,147.1 197.1,146.4 197.7,144.6 198.3,140.7 198.9,139.0 199.5,137.9 200.1,139.0 200.7,140.7 201.3,138.3 201.9,137.2 202.5,136.1 203.1,135.4 203.7,135.4 204.3,135.1 204.9,135.1 205.5,134.4 206.1,133.6 206.7,132.6 207.3,132.6 207.9,134.4 208.5,135.4 209.1,137.2 209.7,136.5 210.3,137.2 210.9,139.3 211.5,139.7 212.1,141.8 212.7,142.1 213.3,142.5 213.9,146.0 214.5,151.0 215.1,151.7 215.7,153.8 216.3,154.5 216.9,155.6 217.5,157.7 218.1,161.6 218.7,167.7 219.3,170.1 219.9,171.2 220.5,174.0 221.1,175.8 221.7,175.8 222.3,175.8 222.9,179.0 223.5,181.8 224.1,182.2 224.7,181.5 225.3,183.6 225.9,184.3 226.5,181.5 227.1,181.5 227.7,181.1 228.3,179.3 228.9,176.5 229.5,174.7 230.1,169.1 230.7,165.9 231.3,163.8 231.9,163.1 232.5,160.9 233.1,157.0 233.7,153.1 234.3,151.4 234.9,148.5 235.5,147.1 236.1,144.3 236.7,142.9 237.3,139.7 237.9,140.4 238.5,136.5 239.1,132.9 239.7,130.5 240.3,128.0 240.9,126.2 241.5,122.7 242.1,120.5 242.7,117.3 243.3,114.9 243.9,112.0 244.5,111.7 245.1,109.6 245.7,109.6 246.3,104.6 246.9,102.1 247.5,98.9 248.1,99.3 248.7,95.7 249.3,90.8 249.9,90.1 250.5,90.8 251.1,91.5 251.7,89.4 252.3,90.8 252.9,93.3 253.5,96.8 254.1,100.7 254.6,103.5 255.2,106.0 255.8,108.8 256.4,112.7 257.0,119.8 257.6,122.3 258.2,128.0 258.8,135.8 259.4,141.1 260.0,146.0 260.6,153.5 261.2,163.8 261.8,165.9 262.4,172.6 263.0,179.0 263.6,181.5 264.2,181.1 264.8,185.0 265.4,190.3 266.0,193.2 266.6,194.6 267.2,191.4 267.8,190.7 268.4,191.4 269.0,192.1 269.6,192.1 270.2,190.7 270.8,188.6 271.4,188.6 272.0,186.4 272.6,185.7 273.2,183.6 273.8,180.8 274.4,178.3 275.0,175.1 275.6,174.0 276.2,172.6 276.8,170.1 277.4,169.8 278.0,168.4 278.6,163.8 279.2,160.9 279.8,157.7 280.4,153.5 281.0,151.4 281.6,149.9 282.2,147.8 282.8,145.3 283.4,143.9 284.0,142.5 284.6,138.6 285.2,134.4 285.8,131.2 286.4,131.9 287.0,130.5 287.6,128.7 288.2,125.1 288.8,121.6 289.4,118.1 290.0,117.0 290.6,111.3 291.2,109.6 291.8,107.8 292.4,106.4 293.0,105.3 293.6,103.9 294.2,100.3 294.8,97.5 295.4,95.4 296.0,92.9 296.6,92.2 297.2,96.4 297.8,98.9 298.4,100.0 299.0,102.5 299.6,103.9 300.2,108.5 300.8,108.8 301.4,111.0 302.0,115.2 302.6,120.9 303.2,129.4 303.8,130.5 304.4,132.2 305.0,137.2 305.6,142.9 306.2,145.0 306.8,149.2 307.4,154.2 308.0,154.9 308.6,158.8 309.2,167.7 309.8,166.6 310.4,168.4 311.0,168.0 311.6,169.8 312.2,170.8 312.8,171.2 313.4,174.0 314.0,174.7 314.6,176.2 315.1,175.5 315.7,177.6 316.3,177.2 316.9,174.7 317.5,171.9 318.1,170.8 318.7,170.5 319.3,169.1 319.9,168.7 320.5,168.0 321.1,168.7 321.7,167.7 322.3,167.3 322.9,167.3 323.5,164.8 324.1,163.8 324.7,163.1 325.3,164.1 325.9,163.4 326.5,164.8 327.1,162.7 327.7,161.6 328.3,162.3 328.9,162.3 329.5,159.9 330.1,159.5 330.7,158.1 331.3,156.3 331.9,157.4 332.5,156.0 333.1,153.5 333.7,153.5 334.3,153.8 334.9,151.4 335.5,149.6 336.1,147.5 336.7,146.8 337.3,144.6 337.9,143.9 338.5,143.6 339.1,143.9 339.7,143.6 340.3,142.5 340.9,142.1 341.5,141.1 342.1,138.6 342.7,137.2 343.3,135.1 343.9,135.1 344.5,133.3 345.1,132.2 345.7,132.2 346.3,134.4 346.9,130.8 347.5,130.1 348.1,130.1 348.7,132.2 349.3,132.6 349.9,130.5 350.5,126.9 351.1,123.4 351.7,122.7 352.3,123.0 352.9,126.2 353.5,127.6 354.1,128.3 354.7,130.5 355.3,132.9 355.9,137.5 356.5,140.7 357.1,144.3 357.7,147.1 358.3,146.0 358.9,146.8 359.5,146.8 360.1,147.5 360.7,147.8 361.3,147.1 361.9,149.2 362.5,151.4 363.1,154.2 363.7,154.2 364.3,156.7 364.9,153.5 365.5,153.8 366.1,156.3 366.7,156.7 367.3,156.7 367.9,155.6 368.5,156.3 369.1,155.3 369.7,154.2 370.3,152.8 370.9,152.8 371.5,154.2 372.1,157.7 372.7,156.0 373.3,156.7 373.9,157.7 374.4,156.0 375.0,159.5 375.6,158.4 376.2,159.9 376.8,160.2 377.4,158.8 378.0,158.4 378.6,156.3 379.2,155.3 379.8,153.8 380.4,154.2 381.0,148.9 381.6,147.8 382.2,145.3 382.8,145.3 383.4,145.0 384.0,142.5 384.6,141.4 385.2,138.6 385.8,137.9 386.4,139.0 387.0,136.5 387.6,134.7 388.2,134.0 388.8,132.6 389.4,133.6 390.0,133.3 390.6,131.5 391.2,129.7 391.8,128.7 392.4,130.5 393.0,130.8 393.6,128.7 394.2,126.9 394.8,125.5 395.4,122.0 396.0,121.2 396.6,120.2 397.2,118.8 397.8,119.8 398.4,118.8 399.0,120.5 399.6,122.0 400.2,122.3 400.8,118.4 401.4,118.8 402.0,118.8 402.6,122.3 403.2,123.0 403.8,124.1 404.4,127.6 405.0,128.0 405.6,129.7 406.2,131.9 406.8,133.6 407.4,132.6 408.0,139.7 408.6,143.6 409.2,145.3 409.8,147.1 410.4,150.7 411.0,156.3 411.6,159.5 412.2,164.1 412.8,163.8 413.4,166.6 414.0,168.7 414.6,167.3 415.2,166.9 415.8,166.2 416.4,165.9 417.0,165.9 417.6,170.5 418.2,171.6 418.8,174.4 419.4,178.6 420.0,177.2 420.6,179.7 421.2,179.3 421.8,179.7 422.4,178.3 423.0,176.2 423.6,173.0 424.2,172.3 424.8,170.5 425.4,165.9 426.0,167.3 426.6,165.2 427.2,163.8 427.8,162.3 428.4,157.7 429.0,156.7 429.6,154.2 430.2,153.1 430.8,151.4 431.4,150.7 432.0,148.5 432.6,147.5 433.2,147.5 433.8,144.3 434.3,143.2 434.9,138.6 435.5,137.2 436.1,136.8 436.7,135.8 437.3,134.0 437.9,131.9 438.5,130.8 439.1,128.7 439.7,126.9 440.3,123.4 440.9,122.7 441.5,121.6 442.1,120.9 442.7,120.2 443.3,121.2 443.9,120.9 444.5,122.3 445.1,121.2 445.7,123.0 446.3,123.4 446.9,124.8 447.5,126.9 448.1,125.5 448.7,127.3 449.3,128.0 449.9,131.9 450.5,130.5 451.1,127.3 451.7,128.3 452.3,131.9 452.9,130.5 453.5,134.7 454.1,133.3 454.7,140.7 455.3,137.9 455.9,138.3 456.5,143.2 457.1,143.9 457.7,148.9 458.3,149.9 458.9,155.3 459.5,155.6 460.1,157.4 460.7,158.8 461.3,157.0 461.9,158.1 462.5,161.6 463.1,159.5 463.7,161.6 464.3,161.6 464.9,160.9 465.5,159.2 466.1,157.0 466.7,156.3 467.3,155.3 467.9,156.3 468.5,155.6 469.1,153.8 469.7,153.8 470.3,153.1 470.9,157.0 471.5,157.4 472.1,157.7 472.7,159.5 473.3,161.3 473.9,164.1 474.5,165.2 475.1,161.3 475.7,160.9 476.3,159.9 476.9,163.4 477.5,165.2 478.1,164.1 478.7,163.4 479.3,161.3 479.9,159.5 480.5,158.1 481.1,159.5 481.7,157.7 482.3,155.3 482.9,155.3 483.5,153.5 484.1,153.8 484.7,152.4 485.3,148.2 485.9,147.5 486.5,145.7 487.1,144.6 487.7,143.2 488.3,142.9 488.9,142.5 489.5,142.9 490.1,140.4 490.7,139.7 491.3,138.6 491.9,137.2 492.5,135.4 493.1,135.4 493.7,134.0 494.2,134.0 494.8,130.8 495.4,131.5 496.0,131.5 496.6,132.9 497.2,134.4 497.8,134.7 498.4,136.8 499.0,137.5 499.6,136.5 500.2,136.5 500.8,139.7 501.4,140.4 502.0,144.3 502.6,144.3 503.2,146.8 503.8,146.4 504.4,150.7 505.0,153.1 505.6,157.4 506.2,162.0 506.8,160.2 507.4,163.1 508.0,165.2 508.6,164.5 509.2,168.0 509.8,168.4 510.4,168.0 511.0,169.1 511.6,171.6 512.2,171.6 512.8,167.7 513.4,166.2 514.0,163.4 514.6,160.9 515.2,155.6 515.8,153.5 516.4,152.1 517.0,152.4 517.6,152.4 518.2,152.8 518.8,154.2 519.4,151.7 520.0,152.1 520.6,146.0 521.2,144.3 521.8,142.1 522.4,143.2 523.0,142.1 523.6,141.8 524.2,144.3 524.8,144.3 525.4,145.0 526.0,143.6 526.6,140.7 527.2,138.3 527.8,135.1 528.4,132.9 529.0,132.6 529.6,128.7 530.2,126.2 530.8,126.6 531.4,126.2 532.0,123.7 532.6,123.0 533.2,119.5 533.8,116.6 534.4,117.0 535.0,116.6 535.6,118.1 536.2,118.8 536.8,118.8 537.4,123.4 538.0,123.7 538.6,126.2 539.2,128.0 539.8,129.7 540.4,134.7 541.0,139.3 541.6,143.6 542.2,146.4 542.8,149.6 543.4,149.2 544.0,150.3 544.6,153.5 545.2,158.4 545.8,160.2 546.4,163.8 547.0,166.2 547.6,170.1 548.2,175.1 548.8,175.8 549.4,176.9 550.0,176.5 550.6,175.8 551.2,176.2 551.8,176.5 552.4,174.0 553.0,173.3 553.6,173.7 554.1,175.1 554.7,175.8 555.3,175.5 555.9,173.0 556.5,171.9 557.1,169.8 557.7,168.0 558.3,164.5 558.9,164.8 559.5,165.2 560.1,165.2 560.7,162.3 561.3,158.8 561.9,156.0 562.5,151.0 563.1,148.5 563.7,145.3 564.3,143.6 564.9,140.4 565.5,137.9 566.1,135.8 566.7,133.3 567.3,130.1 567.9,127.6 568.5,123.7 569.1,119.5 569.7,117.3 570.3,115.9 570.9,114.5 571.5,110.6 572.1,109.6 572.7,107.1 573.3,106.7 573.9,106.7 574.5,104.6 575.1,101.8 575.7,100.3 576.3,100.0 576.9,98.9 577.5,94.7 578.1,91.8 578.7,91.1 579.3,90.4 579.9,91.1 580.5,91.8 581.1,92.2 581.7,93.3 582.3,89.7 582.9,91.1 583.5,94.3 584.1,93.6 584.7,95.4 585.3,100.3 585.9,104.2 586.5,105.7 587.1,112.0 587.7,115.2 588.3,117.7 588.9,122.7 589.5,126.9 590.1,130.1 590.7,132.6 591.3,140.0 591.9,142.5 592.5,147.8 593.1,147.8 593.7,152.4 594.3,156.7 594.9,158.1 595.5,163.1 596.1,164.1 596.7,167.7 597.3,168.4 597.9,169.4 598.5,171.6 599.1,173.3 599.7,171.9 600.3,172.3 600.9,170.5 601.5,170.5 602.1,170.5 602.7,170.8 603.3,169.8 603.9,169.4 604.5,168.4 605.1,169.4 605.7,171.2 606.3,170.5 606.9,169.8 607.5,169.1 608.1,168.4 608.7,166.6 609.3,167.3 609.9,166.2 610.5,162.3 611.1,160.9 611.7,160.9 612.3,163.1 612.9,160.9 613.5,162.0 614.0,163.1 614.6,160.9 615.2,160.6 615.8,160.2 616.4,157.7 617.0,157.7 617.6,157.4 618.2,158.8 618.8,157.0 619.4,154.5 620.0,151.7 620.6,149.6 621.2,148.2 621.8,148.5 622.4,147.5 623.0,145.3 623.6,142.1 624.2,140.7 624.8,136.8 625.4,135.8 626.0,135.4 626.6,134.0 627.2,133.6 627.8,134.0 628.4,132.9 629.0,131.2 629.6,130.1 630.2,127.6 630.8,127.3 631.4,128.3 632.0,128.0 632.6,128.7 633.2,126.2 633.8,129.7 634.4,127.3 635.0,125.5 635.6,124.1 636.2,125.5 636.8,129.0 637.4,127.6 638.0,130.5 638.6,134.7 639.2,134.7 639.8,137.9 640.4,141.1 641.0,146.0 641.6,147.5 642.2,149.6 642.8,152.1 643.4,155.3 644.0,155.3"></path>
    <path stroke="#0060e5" class="data-series" d="M45.6,254.5 46.2,254.5 46.8,254.5 47.4,254.1 48.0,254.1 48.6,255.5 49.2,255.5 49.8,255.5 50.4,255.2 51.0,255.2 51.6,255.9 52.2,255.9 52.8,255.5 53.4,255.2 54.0,254.8 54.6,255.5 55.2,255.5 55.8,255.5 56.4,256.6 57.0,256.9 57.6,256.6 58.2,256.2 58.8,256.2 59.4,256.2 60.0,256.2 60.6,255.9 61.2,255.9 61.8,255.9 62.4,255.9 63.0,255.2 63.6,254.8 64.2,254.8 64.8,255.5 65.4,255.5 66.0,255.5 66.6,256.2 67.2,256.2 67.8,256.2 68.4,255.9 69.0,256.6 69.6,256.2 70.2,255.9 70.8,255.2 71.4,254.5 72.0,254.1 72.6,253.0 73.2,251.3 73.8,251.6 74.4,251.3 75.0,251.3 75.5,250.2 76.1,250.2 76.7,249.9 77.3,249.1 77.9,248.8 78.5,248.8 79.1,246.0 79.7,245.2 80.3,243.1 80.9,238.9 81.5,236.7 82.1,232.8 82.7,227.5 83.3,220.1 83.9,214.4 84.5,210.9 85.1,200.3 85.7,194.2 86.3,186.8 86.9,181.1 87.5,176.5 88.1,169.4 88.7,172.3 89.3,172.6 89.9,175.5 90.5,179.7 91.1,187.9 91.7,193.9 92.3,197.8 92.9,205.2 93.5,213.4 94.1,219.7 94.7,221.9 95.3,227.2 95.9,231.8 96.5,235.0 97.1,238.5 97.7,240.3 98.3,239.9 98.9,241.3 99.5,242.1 100.1,244.9 100.7,245.6 101.3,246.3 101.9,248.4 102.5,249.1 103.1,248.8 103.7,248.8 104.3,249.1 104.9,250.2 105.5,249.9 106.1,252.7 106.7,254.1 107.3,253.7 107.9,254.5 108.5,254.8 109.1,254.8 109.7,254.8 110.3,254.5 110.9,253.7 111.5,254.1 112.1,253.7 112.7,252.7 113.3,252.7 113.9,252.7 114.5,253.0 115.1,252.3 115.7,252.0 116.3,250.9 116.9,250.2 117.5,249.9 118.1,250.2 118.7,250.2 119.3,249.5 119.9,248.8 120.5,248.8 121.1,247.4 121.7,247.0 122.3,247.4 122.9,248.8 123.5,247.0 124.1,246.0 124.7,246.3 125.3,247.0 125.9,245.6 126.5,243.8 127.1,243.8 127.7,241.7 128.3,240.3 128.9,239.2 129.5,238.9 130.1,235.0 130.7,232.8 131.3,231.4 131.9,229.3 132.5,228.6 133.1,226.5 133.7,227.2 134.3,227.9 134.8,227.5 135.4,224.7 136.0,224.3 136.6,222.6 137.2,221.2 137.8,219.0 138.4,218.3 139.0,218.3 139.6,215.8 140.2,213.0 140.8,210.9 141.4,211.6 142.0,212.7 142.6,210.9 143.2,211.6 143.8,214.1 144.4,215.8 145.0,219.4 145.6,221.5 146.2,225.1 146.8,228.2 147.4,228.6 148.0,232.8 148.6,235.7 149.2,236.7 149.8,238.5 150.4,241.7 151.0,242.8 151.6,244.2 152.2,243.1 152.8,244.9 153.4,244.9 154.0,244.9 154.6,246.0 155.2,246.3 155.8,247.0 156.4,247.4 157.0,248.1 157.6,248.4 158.2,248.8 158.8,249.1 159.4,248.4 160.0,248.4 160.6,248.4 161.2,248.4 161.8,248.4 162.4,248.8 163.0,248.4 163.6,248.4 164.2,248.4 164.8,248.1 165.4,246.3 166.0,243.8 166.6,243.1 167.2,240.6 167.8,239.9 168.4,239.2 169.0,236.0 169.6,236.7 170.2,234.6 170.8,233.6 171.4,233.6 172.0,231.8 172.6,232.5 173.2,233.2 173.8,234.3 174.4,234.3 175.0,234.3 175.6,234.3 176.2,233.2 176.8,233.6 177.4,232.5 178.0,232.1 178.6,232.8 179.2,232.8 179.8,233.6 180.4,235.0 181.0,236.4 181.6,236.0 182.2,237.1 182.8,237.1 183.4,237.1 184.0,236.4 184.6,235.3 185.2,236.7 185.8,236.7 186.4,236.4 187.0,237.1 187.6,236.4 188.2,238.5 188.8,239.2 189.4,239.6 190.0,239.9 190.6,239.9 191.2,242.4 191.8,242.4 192.4,243.1 193.0,242.4 193.6,243.5 194.2,243.1 194.8,243.5 195.3,244.2 195.9,244.9 196.5,245.2 197.1,243.8 197.7,243.8 198.3,243.8 198.9,244.2 199.5,244.2 200.1,244.9 200.7,244.5 201.3,244.5 201.9,245.2 202.5,244.5 203.1,244.5 203.7,244.2 204.3,244.5 204.9,243.8 205.5,244.2 206.1,243.8 206.7,242.1 207.3,242.1 207.9,240.3 208.5,238.5 209.1,237.1 209.7,237.8 210.3,238.2 210.9,237.8 211.5,237.1 212.1,236.0 212.7,234.6 213.3,234.3 213.9,231.8 214.5,231.4 215.1,231.8 215.7,230.7 216.3,231.4 216.9,231.4 217.5,232.1 218.1,230.7 218.7,230.4 219.3,228.2 219.9,227.5 220.5,227.5 221.1,226.8 221.7,227.9 222.3,227.9 222.9,228.6 223.5,230.0 224.1,231.8 224.7,232.5 225.3,233.9 225.9,235.3 226.5,238.9 227.1,240.6 227.7,241.0 228.3,243.5 228.9,245.2 229.5,246.3 230.1,247.4 230.7,247.4 231.3,249.9 231.9,250.6 232.5,250.6 233.1,250.6 233.7,251.6 234.3,251.6 234.9,251.6 235.5,250.2 236.1,248.8 236.7,249.5 237.3,249.9 237.9,250.2 238.5,250.6 239.1,250.9 239.7,252.3 240.3,251.6 240.9,251.3 241.5,250.6 242.1,252.3 242.7,251.3 243.3,250.6 243.9,251.3 244.5,251.3 245.1,251.3 245.7,251.6 246.3,253.4 246.9,252.3 247.5,252.0 248.1,249.9 248.7,248.4 249.3,248.1 249.9,247.4 250.5,245.6 251.1,244.5 251.7,243.8 252.3,241.3 252.9,238.2 253.5,235.7 254.1,232.5 254.6,231.4 255.2,230.0 255.8,227.5 256.4,225.4 257.0,222.2 257.6,221.2 258.2,220.8 258.8,219.4 259.4,217.3 260.0,215.1 260.6,212.3 261.2,208.4 261.8,205.9 262.4,205.2 263.0,205.9 263.6,207.0 264.2,212.7 264.8,216.5 265.4,218.7 266.0,221.9 266.6,224.0 267.2,227.5 267.8,230.4 268.4,231.4 269.0,235.0 269.6,236.0 270.2,237.5 270.8,239.2 271.4,239.2 272.0,241.7 272.6,243.1 273.2,246.7 273.8,247.0 274.4,246.7 275.0,247.0 275.6,247.4 276.2,248.1 276.8,248.8 277.4,248.8 278.0,250.6 278.6,252.3 279.2,252.3 279.8,252.7 280.4,251.6 281.0,251.6 281.6,251.3 282.2,250.2 282.8,251.3 283.4,250.9 284.0,250.9 284.6,249.9 285.2,250.9 285.8,250.9 286.4,247.7 287.0,247.4 287.6,248.8 288.2,248.4 288.8,247.0 289.4,247.4 290.0,248.4 290.6,249.1 291.2,249.5 291.8,248.4 292.4,247.4 293.0,248.4 293.6,247.7 294.2,247.4 294.8,249.1 295.4,248.8 296.0,249.1 296.6,248.1 297.2,246.0 297.8,243.5 298.4,241.0 299.0,238.9 299.6,236.0 300.2,232.5 300.8,230.7 301.4,228.2 302.0,227.5 302.6,226.8 303.2,224.7 303.8,222.9 304.4,221.5 305.0,219.7 305.6,218.0 306.2,217.6 306.8,219.7 307.4,217.6 308.0,218.7 308.6,218.3 309.2,220.4 309.8,221.5 310.4,224.7 311.0,226.1 311.6,226.5 312.2,229.3 312.8,229.7 313.4,231.1 314.0,232.8 314.6,234.3 315.1,235.0 315.7,235.3 316.3,237.1 316.9,239.2 317.5,238.2 318.1,237.5 318.7,238.5 319.3,240.3 319.9,239.9 320.5,240.3 321.1,240.6 321.7,241.0 322.3,241.0 322.9,242.1 323.5,242.1 324.1,242.4 324.7,243.8 325.3,244.2 325.9,242.8 326.5,241.0 327.1,240.6 327.7,239.2 328.3,238.2 328.9,237.5 329.5,239.6 330.1,239.6 330.7,241.3 331.3,242.4 331.9,242.8 332.5,243.5 333.1,244.9 333.7,246.3 334.3,246.0 334.9,245.2 335.5,246.0 336.1,247.4 336.7,248.1 337.3,246.7 337.9,246.3 338.5,245.2 339.1,245.6 339.7,244.9 340.3,244.9 340.9,243.8 341.5,243.8 342.1,243.8 342.7,244.9 343.3,245.2 343.9,245.6 344.5,247.7 345.1,246.7 345.7,244.9 346.3,243.1 346.9,242.1 347.5,240.6 348.1,240.3 348.7,242.1 349.3,241.0 349.9,240.6 350.5,241.0 351.1,239.9 351.7,239.6 352.3,237.5 352.9,237.5 353.5,239.2 354.1,238.2 354.7,237.1 355.3,236.7 355.9,232.8 356.5,232.1 357.1,231.1 357.7,231.4 358.3,231.4 358.9,231.4 359.5,230.7 360.1,230.7 360.7,231.4 361.3,233.9 361.9,234.3 362.5,235.0 363.1,232.1 363.7,234.6 364.3,232.8 364.9,232.1 365.5,231.4 366.1,234.6 366.7,237.1 367.3,237.1 367.9,237.1 368.5,237.1 369.1,239.6 369.7,238.9 370.3,239.6 370.9,238.5 371.5,238.2 372.1,236.0 372.7,235.7 373.3,235.3 373.9,236.0 374.4,237.1 375.0,235.3 375.6,235.3 376.2,234.3 376.8,234.6 377.4,236.0 378.0,237.8 378.6,239.9 379.2,239.9 379.8,239.9 380.4,241.3 381.0,242.8 381.6,244.9 382.2,246.7 382.8,244.9 383.4,246.3 384.0,247.0 384.6,246.7 385.2,245.2 385.8,247.4 386.4,246.3 387.0,246.0 387.6,245.6 388.2,246.7 388.8,246.3 389.4,244.9 390.0,243.8 390.6,241.3 391.2,241.0 391.8,242.4 392.4,240.6 393.0,240.6 393.6,241.0 394.2,242.8 394.8,243.1 395.4,243.1 396.0,242.8 396.6,244.2 397.2,244.9 397.8,243.5 398.4,243.5 399.0,242.4 399.6,241.3 400.2,241.7 400.8,240.6 401.4,241.3 402.0,239.6 402.6,239.6 403.2,238.9 403.8,236.0 404.4,233.9 405.0,233.6 405.6,233.9 406.2,231.8 406.8,228.9 407.4,230.4 408.0,228.2 408.6,226.5 409.2,225.1 409.8,221.9 410.4,222.9 411.0,220.8 411.6,220.1 412.2,219.4 412.8,220.4 413.4,221.9 414.0,222.2 414.6,221.9 415.2,225.4 415.8,228.2 416.4,227.9 417.0,231.1 417.6,230.7 418.2,227.2 418.8,224.7 419.4,224.3 420.0,226.5 420.6,228.2 421.2,231.1 421.8,232.5 422.4,235.3 423.0,235.0 423.6,238.2 424.2,239.6 424.8,238.9 425.4,239.9 426.0,241.0 426.6,241.3 427.2,242.8 427.8,242.8 428.4,244.9 429.0,246.7 429.6,247.4 430.2,247.7 430.8,247.4 431.4,248.4 432.0,248.4 432.6,248.8 433.2,248.4 433.8,248.8 434.3,248.8 434.9,249.1 435.5,249.9 436.1,249.9 436.7,249.1 437.3,248.1 437.9,248.4 438.5,248.1 439.1,248.1 439.7,247.4 440.3,247.4 440.9,246.7 441.5,247.4 442.1,246.0 442.7,244.9 443.3,242.4 443.9,242.8 444.5,242.1 445.1,240.3 445.7,239.6 446.3,240.3 446.9,240.6 447.5,237.5 448.1,237.5 448.7,237.5 449.3,238.5 449.9,234.6 450.5,234.6 451.1,234.6 451.7,232.5 452.3,232.5 452.9,235.3 453.5,236.0 454.1,233.6 454.7,232.5 455.3,231.8 455.9,231.1 456.5,230.0 457.1,228.9 457.7,229.3 458.3,228.2 458.9,226.8 459.5,225.8 460.1,224.7 460.7,224.3 461.3,227.5 461.9,229.3 462.5,228.6 463.1,229.7 463.7,232.8 464.3,233.6 464.9,233.6 465.5,236.0 466.1,236.0 466.7,238.2 467.3,238.9 467.9,238.2 468.5,239.9 469.1,241.3 469.7,240.3 470.3,239.6 470.9,238.2 471.5,238.5 472.1,237.8 472.7,235.3 473.3,235.0 473.9,235.7 474.5,234.6 475.1,234.6 475.7,234.3 476.3,236.0 476.9,236.0 477.5,237.8 478.1,238.2 478.7,240.3 479.3,240.6 479.9,242.1 480.5,241.7 481.1,241.0 481.7,243.8 482.3,243.8 482.9,242.1 483.5,243.1 484.1,244.2 484.7,243.5 485.3,245.6 485.9,246.7 486.5,247.0 487.1,247.4 487.7,246.3 488.3,246.7 488.9,246.0 489.5,244.9 490.1,244.2 490.7,243.5 491.3,244.5 491.9,245.2 492.5,245.6 493.1,246.3 493.7,245.6 494.2,244.9 494.8,244.9 495.4,242.4 496.0,239.2 496.6,237.1 497.2,234.6 497.8,232.5 498.4,230.7 499.0,230.7 499.6,231.4 500.2,230.7 500.8,231.1 501.4,232.8 502.0,231.4 502.6,230.0 503.2,228.6 503.8,229.7 504.4,230.0 505.0,229.3 505.6,228.9 506.2,226.5 506.8,226.8 507.4,227.5 508.0,226.8 508.6,227.9 509.2,231.1 509.8,231.8 510.4,233.6 511.0,235.0 511.6,233.2 512.2,233.2 512.8,232.5 513.4,234.3 514.0,235.0 514.6,238.2 515.2,240.6 515.8,243.1 516.4,242.8 517.0,243.1 517.6,243.5 518.2,244.2 518.8,243.5 519.4,244.5 520.0,243.8 520.6,244.9 521.2,244.9 521.8,245.2 522.4,244.9 523.0,243.8 523.6,242.1 524.2,239.9 524.8,240.6 525.4,240.6 526.0,241.3 526.6,242.8 527.2,243.5 527.8,246.7 528.4,247.7 529.0,247.4 529.6,248.4 530.2,248.8 530.8,249.1 531.4,247.0 532.0,247.7 532.6,247.7 533.2,246.0 533.8,245.6 534.4,243.1 535.0,244.2 535.6,242.4 536.2,240.6 536.8,239.6 537.4,236.7 538.0,234.6 538.6,232.8 539.2,232.1 539.8,229.3 540.4,226.8 541.0,225.1 541.6,222.9 542.2,224.3 542.8,222.6 543.4,224.3 544.0,226.5 544.6,226.8 545.2,224.0 545.8,222.6 546.4,224.3 547.0,224.7 547.6,223.6 548.2,222.2 548.8,224.7 549.4,226.8 550.0,227.9 550.6,230.7 551.2,234.6 551.8,235.3 552.4,235.0 553.0,235.3 553.6,236.4 554.1,237.1 554.7,238.5 555.3,238.2 555.9,240.6 556.5,239.9 557.1,240.3 557.7,242.1 558.3,242.8 558.9,244.2 559.5,243.1 560.1,246.3 560.7,245.6 561.3,245.6 561.9,248.4 562.5,250.2 563.1,251.6 563.7,252.3 564.3,253.4 564.9,253.0 565.5,252.3 566.1,252.7 566.7,253.4 567.3,253.0 567.9,253.7 568.5,254.1 569.1,254.1 569.7,253.7 570.3,253.0 570.9,253.0 571.5,253.0 572.1,252.0 572.7,251.3 573.3,249.1 573.9,248.8 574.5,248.4 575.1,248.1 575.7,248.1 576.3,248.1 576.9,248.4 577.5,248.1 578.1,248.8 578.7,247.7 579.3,247.0 579.9,245.6 580.5,245.2 581.1,243.5 581.7,242.8 582.3,242.1 582.9,241.3 583.5,240.3 584.1,239.2 584.7,237.1 585.3,235.3 585.9,231.1 586.5,230.7 587.1,227.5 587.7,224.3 588.3,222.2 588.9,224.7 589.5,224.0 590.1,222.2 590.7,223.6 591.3,218.7 591.9,218.0 592.5,218.7 593.1,218.0 593.7,217.6 594.3,216.9 594.9,222.2 595.5,222.6 596.1,225.4 596.7,224.0 597.3,224.7 597.9,225.4 598.5,225.8 599.1,228.6 599.7,230.7 600.3,234.3 600.9,235.7 601.5,237.5 602.1,237.8 602.7,238.5 603.3,241.7 603.9,241.3 604.5,240.6 605.1,239.2 605.7,237.5 606.3,237.5 606.9,239.2 607.5,239.6 608.1,238.5 608.7,240.6 609.3,242.1 609.9,242.1 610.5,240.6 611.1,240.3 611.7,240.3 612.3,239.6 612.9,239.9 613.5,240.6 614.0,240.3 614.6,240.3 615.2,242.1 615.8,241.0 616.4,241.7 617.0,241.7 617.6,241.3 618.2,241.7 618.8,243.1 619.4,242.8 620.0,243.5 620.6,243.8 621.2,243.5 621.8,244.2 622.4,244.5 623.0,244.2 623.6,243.8 624.2,242.8 624.8,244.2 625.4,245.6 626.0,245.2 626.6,245.6 627.2,246.3 627.8,245.6 628.4,244.9 629.0,244.5 629.6,243.5 630.2,245.2 630.8,244.9 631.4,244.2 632.0,244.5 632.6,243.1 633.2,243.5 633.8,239.9 634.4,238.2 635.0,238.5 635.6,235.7 636.2,233.9 636.8,232.1 637.4,231.8 638.0,230.7 638.6,228.9 639.2,229.7 639.8,228.2 640.4,227.2 641.0,223.3 641.6,222.6 642.2,223.6 642.8,225.8 643.4,225.1 644.0,226.5"></path>
    <text y="105" x="640" text-anchor="end" fill="green">Food</text>
    <text y="208" x="640" text-anchor="end" fill="#0060e5">Creatures</text>
</svg>