<svg width="660" height="300" xmlns="http://www.w3.org/2000/svg">

<style>
  .background {
    fill: none;
  }
  .axis {
    stroke: #111;
    stroke-width: 1;
  }
  .axis-label {
    text-anchor: middle;
  }
  .axis-units {
    font-size: 10px;
    font-family: Arial;
  }
  .y-axis-text {
    text-anchor: end;
  }
  .x-axis-text {
    text-anchor: middle;
  }
  .gridlines {
    stroke: black;
    stroke-width: 0.3;
    fill: none;
    opacity: 0.5;
  }
  .series-red {
    color: #ae5d40;
  }
  .series-green {
    color: #4f7754;
  }
  .series-blue {
    color: #433a60;
  }
  .data-series {
    fill: none;
    opacity: 0.9;
    stroke: currentColor;
    stroke-width: 1.8;
  }
  </style>

    <text class="axis-label" x="350.0" y="285">Time (1000 ticks)</text>
    <text class="axis-label" x="0" y="134.0" transform="translate(20.0) rotate(-90, 0, 134.0)">Population size</text>
    <line class="axis" x1="60" y1="253" x2="641" y2="253"></line>
    <line class="axis" x1="60" y1="253" x2="60" y2="15"></line>
    <g class="axis-units">
        <g class="x-axis-text">
            <text x="60.0" y="265">0</text>
            <text x="118.0" y="265">10</text>
            <text x="176.0" y="265">20</text>
            <text x="234.0" y="265">30</text>
            <text x="292.0" y="265">40</text>
            <text x="350.0" y="265">50</text>
            <text x="408.0" y="265">60</text>
            <text x="466.0" y="265">70</text>
            <text x="524.0" y="265">80</text>
            <text x="582.0" y="265">90</text>
            <text x="640.0" y="265">100</text>
        </g>
        <g class="y-axis-text">
            <text x="57" y="256.0">0</text>
            <text x="57" y="229.55555555555554">200</text>
            <text x="57" y="203.11111111111111">400</text>
            <text x="57" y="176.66666666666669">600</text>
            <text x="57" y="150.22222222222223">800</text>
            <text x="57" y="123.7777777777778">1000</text>
            <text x="57" y="97.33333333333334">1200</text>
            <text x="57" y="70.88888888888891">1400</text>
            <text x="57" y="44.44444444444446">1600</text>
            <text x="57" y="18.00000000000003">1800</text>
        </g>
    </g>
    <g class="gridlines">
        <line x1="118.5" y1="253" x2="118.5" y2="15"></line>
        <line x1="176.5" y1="253" x2="176.5" y2="15"></line>
        <line x1="234.5" y1="253" x2="234.5" y2="15"></line>
        <line x1="292.5" y1="253" x2="292.5" y2="15"></line>
        <line x1="350.5" y1="253" x2="350.5" y2="15"></line>
        <line x1="408.5" y1="253" x2="408.5" y2="15"></line>
        <line x1="466.5" y1="253" x2="466.5" y2="15"></line>
        <line x1="524.5" y1="253" x2="524.5" y2="15"></line>
        <line x1="582.5" y1="253" x2="582.5" y2="15"></line>
        <line x1="640.5" y1="253" x2="640.5" y2="15"></line>
        <line x1="60" y1="226.5" x2="640" y2="226.5"></line>
        <line x1="60" y1="200.5" x2="640" y2="200.5"></line>
        <line x1="60" y1="173.5" x2="640" y2="173.5"></line>
        <line x1="60" y1="147.5" x2="640" y2="147.5"></line>
        <line x1="60" y1="120.5" x2="640" y2="120.5"></line>
        <line x1="60" y1="94.5" x2="640" y2="94.5"></line>
        <line x1="60" y1="67.5" x2="640" y2="67.5"></line>
        <line x1="60" y1="41.5" x2="640" y2="41.5"></line>
        <line x1="60" y1="15.5" x2="640" y2="15.5"></line>
    </g>
    <path class="data-series series-green" d="M60.6,97.2 61.2,97.5 61.7,97.6 62.3,99.0 62.9,98.3 63.5,98.4 64.1,99.1 64.6,98.3 65.2,98.2 65.8,96.7 66.4,96.2 67.0,94.9 67.5,95.3 68.1,93.7 68.7,94.6 69.3,94.5 69.9,92.9 70.4,93.0 71.0,93.0 71.6,93.0 72.2,90.8 72.8,90.1 73.3,89.0 73.9,88.0 74.5,87.3 75.1,86.1 75.7,85.9 76.2,86.0 76.8,85.1 77.4,83.6 78.0,82.2 78.6,81.4 79.1,80.5 79.7,79.3 80.3,79.4 80.9,79.1 81.5,77.9 82.0,77.5 82.6,76.4 83.2,75.3 83.8,74.2 84.4,73.8 84.9,72.9 85.5,71.7 86.1,70.1 86.7,70.4 87.3,70.8 87.8,70.5 88.4,69.5 89.0,69.9 89.6,69.3 90.2,68.3 90.7,68.2 91.3,68.4 91.9,67.6 92.5,65.5 93.1,64.8 93.6,64.1 94.2,63.7 94.8,64.1 95.4,63.3 96.0,63.5 96.5,63.1 97.1,62.6 97.7,62.1 98.3,60.6 98.9,59.7 99.4,58.6 100.0,58.6 100.6,58.2 101.2,57.3 101.8,56.5 102.3,55.5 102.9,53.7 103.5,52.0 104.1,51.2 104.7,49.9 105.2,49.0 105.8,47.8 106.4,46.2 107.0,45.8 107.6,45.5 108.1,45.5 108.7,44.6 109.3,43.6 109.9,42.8 110.5,42.4 111.0,41.6 111.6,41.4 112.2,41.3 112.8,39.7 113.4,39.6 113.9,39.5 114.5,40.1 115.1,40.1 115.7,40.0 116.3,40.7 116.8,40.8 117.4,41.2 118.0,40.7 118.6,40.9 119.2,41.8 119.7,40.7 120.3,40.9 120.9,41.4 121.5,41.4 122.1,41.7 122.6,40.9 123.2,41.8 123.8,41.4 124.4,40.9 125.0,41.0 125.5,41.6 126.1,41.8 126.7,41.6 127.3,43.0 127.9,45.3 128.4,45.8 129.0,47.7 129.6,47.3 130.2,49.6 130.8,51.0 131.3,52.0 131.9,52.3 132.5,53.3 133.1,53.6 133.7,54.4 134.2,54.7 134.8,54.1 135.4,53.9 136.0,54.9 136.6,56.0 137.1,56.4 137.7,56.8 138.3,56.3 138.9,56.9 139.5,56.7 140.0,56.8 140.6,57.0 141.2,58.2 141.8,58.4 142.4,58.4 142.9,60.6 143.5,61.9 144.1,62.5 144.7,63.9 145.3,64.3 145.8,67.2 146.4,68.6 147.0,68.3 147.6,69.9 148.2,72.0 148.7,74.9 149.3,76.4 149.9,78.1 150.5,79.3 151.1,79.5 151.6,81.0 152.2,82.7 152.8,85.6 153.4,86.9 154.0,87.6 154.5,90.0 155.1,92.0 155.7,93.1 156.3,95.1 156.9,96.4 157.4,97.2 158.0,99.0 158.6,102.8 159.2,104.1 159.8,104.4 160.3,104.6 160.9,106.0 161.5,107.6 162.1,110.9 162.7,112.3 163.2,115.2 163.8,115.9 164.4,117.6 165.0,117.9 165.6,119.7 166.1,121.2 166.7,122.8 167.3,123.3 167.9,124.2 168.5,126.1 169.0,127.3 169.6,128.3 170.2,128.8 170.8,130.0 171.4,129.8 171.9,130.2 172.5,131.4 173.1,132.7 173.7,132.7 174.3,132.4 174.8,132.4 175.4,132.1 176.0,132.1 176.6,131.6 177.2,132.4 177.7,133.5 178.3,134.1 178.9,135.9 179.5,136.5 180.1,135.9 180.6,136.1 181.2,136.1 181.8,135.7 182.4,136.0 183.0,136.6 183.5,135.9 184.1,136.0 184.7,136.1 185.3,136.1 185.9,136.1 186.4,135.2 187.0,134.5 187.6,134.5 188.2,134.7 188.8,135.3 189.3,134.5 189.9,135.5 190.5,135.3 191.1,134.3 191.7,134.0 192.2,133.6 192.8,132.5 193.4,131.6 194.0,132.3 194.6,132.1 195.1,131.4 195.7,131.0 196.3,130.3 196.9,128.2 197.5,126.9 198.0,126.7 198.6,127.1 199.2,126.9 199.8,125.8 200.4,125.9 200.9,124.3 201.5,124.1 202.1,122.8 202.7,122.5 203.3,121.3 203.8,119.7 204.4,119.2 205.0,117.9 205.6,117.7 206.2,116.5 206.7,115.5 207.3,114.3 207.9,113.1 208.5,112.7 209.1,110.7 209.6,109.9 210.2,109.7 210.8,108.3 211.4,106.4 212.0,105.7 212.5,104.5 213.1,103.2 213.7,102.1 214.3,101.6 214.9,100.9 215.4,100.0 216.0,99.5 216.6,98.8 217.2,98.3 217.8,96.8 218.3,96.2 218.9,95.7 219.5,94.9 220.1,94.1 220.7,92.6 221.2,91.7 221.8,91.2 222.4,90.5 223.0,90.0 223.6,89.7 224.1,89.0 224.7,88.3 225.3,87.1 225.9,86.5 226.5,84.7 227.0,83.8 227.6,83.4 228.2,82.0 228.8,81.2 229.4,79.8 229.9,78.2 230.5,75.4 231.1,75.3 231.7,74.1 232.3,73.0 232.8,70.9 233.4,70.0 234.0,69.9 234.6,69.7 235.2,69.5 235.7,67.9 236.3,66.6 236.9,65.1 237.5,64.1 238.1,62.7 238.6,62.7 239.2,63.0 239.8,63.0 240.4,61.8 241.0,61.0 241.5,60.7 242.1,59.6 242.7,58.5 243.3,56.8 243.9,56.5 244.4,55.7 245.0,53.9 245.6,53.7 246.2,51.5 246.8,51.4 247.3,50.2 247.9,49.9 248.5,49.6 249.1,49.0 249.7,48.2 250.2,47.7 250.8,47.0 251.4,46.3 252.0,45.9 252.6,44.5 253.1,43.2 253.7,41.7 254.3,40.7 254.9,40.7 255.5,40.0 256.0,40.4 256.6,39.5 257.2,39.3 257.8,39.1 258.4,39.2 258.9,38.8 259.5,38.8 260.1,38.5 260.7,39.1 261.3,38.0 261.8,38.1 262.4,37.2 263.0,35.4 263.6,35.4 264.2,34.4 264.7,33.8 265.3,34.2 265.9,33.1 266.5,31.9 267.1,32.1 267.6,30.7 268.2,30.1 268.8,30.6 269.4,29.7 270.0,30.2 270.5,30.2 271.1,30.5 271.7,31.3 272.3,32.2 272.9,32.7 273.4,32.6 274.0,33.8 274.6,34.3 275.2,33.8 275.8,35.8 276.3,36.3 276.9,36.9 277.5,37.5 278.1,38.3 278.7,39.1 279.2,40.1 279.8,41.0 280.4,42.1 281.0,42.2 281.6,42.0 282.1,42.0 282.7,42.4 283.3,43.6 283.9,45.0 284.5,45.0 285.0,44.8 285.6,44.6 286.2,45.1 286.8,45.7 287.4,47.5 287.9,47.4 288.5,48.3 289.1,50.4 289.7,51.9 290.3,53.3 290.8,54.4 291.4,55.5 292.0,57.6 292.6,59.6 293.2,59.2 293.7,59.2 294.3,60.1 294.9,61.5 295.5,62.5 296.1,63.0 296.6,63.8 297.2,64.3 297.8,65.2 298.4,65.9 299.0,67.0 299.5,68.0 300.1,68.2 300.7,69.6 301.3,69.9 301.9,71.1 302.4,72.0 303.0,74.0 303.6,75.6 304.2,76.9 304.8,78.2 305.3,80.7 305.9,82.6 306.5,81.9 307.1,83.2 307.7,84.4 308.2,85.6 308.8,86.0 309.4,86.9 310.0,88.1 310.6,90.2 311.1,90.9 311.7,91.7 312.3,93.0 312.9,94.3 313.5,96.2 314.0,96.4 314.6,97.5 315.2,99.8 315.8,101.1 316.4,102.1 316.9,103.6 317.5,104.5 318.1,106.0 318.7,107.8 319.3,109.4 319.8,111.0 320.4,112.7 321.0,113.0 321.6,114.4 322.2,115.2 322.7,116.9 323.3,117.9 323.9,119.2 324.5,119.6 325.1,119.7 325.6,120.2 326.2,122.2 326.8,122.1 327.4,122.6 328.0,123.0 328.5,123.7 329.1,123.3 329.7,123.8 330.3,125.0 330.9,126.2 331.4,125.8 332.0,125.7 332.6,126.2 333.2,126.7 333.8,125.7 334.3,126.3 334.9,126.1 335.5,126.1 336.1,125.9 336.7,125.3 337.2,125.7 337.8,124.7 338.4,125.1 339.0,124.5 339.6,123.4 340.1,124.3 340.7,124.1 341.3,124.3 341.9,123.0 342.5,122.1 343.0,121.0 343.6,121.3 344.2,120.5 344.8,120.2 345.4,120.2 345.9,120.1 346.5,119.3 347.1,118.8 347.7,117.9 348.3,116.2 348.8,115.2 349.4,114.3 350.0,114.2 350.6,113.5 351.2,113.5 351.7,113.1 352.3,113.2 352.9,112.6 353.5,112.2 354.1,111.9 354.6,110.9 355.2,110.1 355.8,109.9 356.4,109.4 357.0,108.2 357.5,107.2 358.1,106.9 358.7,106.2 359.3,105.3 359.9,104.2 360.4,104.4 361.0,104.1 361.6,103.6 362.2,102.9 362.8,102.3 363.3,101.7 363.9,101.3 364.5,99.5 365.1,98.0 365.7,98.3 366.2,97.5 366.8,97.1 367.4,97.0 368.0,95.3 368.6,94.2 369.1,92.5 369.7,91.8 370.3,91.3 370.9,90.9 371.5,89.6 372.0,88.9 372.6,89.3 373.2,89.2 373.8,87.7 374.4,86.7 374.9,86.3 375.5,85.2 376.1,84.2 376.7,82.6 377.3,80.7 377.8,79.9 378.4,79.8 379.0,78.7 379.6,77.5 380.2,76.6 380.7,76.1 381.3,75.0 381.9,74.0 382.5,73.3 383.1,72.5 383.6,72.4 384.2,72.5 384.8,72.6 385.4,73.2 386.0,72.8 386.5,72.3 387.1,72.5 387.7,70.9 388.3,69.7 388.9,69.5 389.4,69.3 390.0,68.7 390.6,67.9 391.2,67.6 391.8,66.7 392.3,67.9 392.9,67.6 393.5,67.2 394.1,67.6 394.7,68.3 395.2,67.9 395.8,68.6 396.4,68.4 397.0,68.3 397.6,69.6 398.1,67.8 398.7,67.5 399.3,66.3 399.9,66.2 400.5,65.1 401.0,65.0 401.6,64.5 402.2,64.6 402.8,63.9 403.4,64.3 403.9,63.9 404.5,63.4 405.1,62.9 405.7,61.9 406.3,60.4 406.8,59.0 407.4,57.8 408.0,57.2 408.6,56.4 409.2,55.5 409.7,54.9 410.3,54.8 410.9,54.8 411.5,54.0 412.1,53.5 412.6,52.6 413.2,51.2 413.8,50.2 414.4,49.8 415.0,50.2 415.5,49.5 416.1,49.0 416.7,49.1 417.3,48.2 417.9,47.3 418.4,46.9 419.0,47.3 419.6,45.9 420.2,44.1 420.8,43.6 421.3,43.7 421.9,43.8 422.5,43.7 423.1,43.6 423.7,42.5 424.2,42.4 424.8,42.6 425.4,42.2 426.0,41.2 426.6,39.7 427.1,38.3 427.7,38.0 428.3,38.3 428.9,38.0 429.5,37.6 430.0,37.5 430.6,37.2 431.2,37.2 431.8,37.2 432.4,36.6 432.9,36.7 433.5,36.7 434.1,36.6 434.7,37.6 435.3,37.5 435.8,37.5 436.4,37.7 437.0,37.6 437.6,37.5 438.2,38.0 438.7,37.6 439.3,38.4 439.9,39.9 440.5,40.3 441.1,40.0 441.6,39.7 442.2,40.7 442.8,40.9 443.4,41.2 444.0,42.4 444.5,42.2 445.1,43.4 445.7,44.9 446.3,45.0 446.9,46.7 447.4,47.9 448.0,49.1 448.6,50.4 449.2,51.9 449.8,52.0 450.3,54.1 450.9,56.1 451.5,56.0 452.1,56.7 452.7,58.0 453.2,60.0 453.8,62.3 454.4,62.3 455.0,63.0 455.6,63.8 456.1,64.7 456.7,66.4 457.3,66.2 457.9,67.4 458.5,67.9 459.0,69.2 459.6,70.3 460.2,71.3 460.8,72.4 461.4,73.4 461.9,76.2 462.5,77.3 463.1,76.7 463.7,78.9 464.3,80.5 464.8,82.7 465.4,83.5 466.0,84.8 466.6,87.1 467.2,88.6 467.7,89.4 468.3,91.3 468.9,92.7 469.5,95.4 470.1,97.1 470.6,99.6 471.2,100.3 471.8,102.3 472.4,105.3 473.0,105.2 473.5,106.1 474.1,108.2 474.7,109.1 475.3,109.5 475.9,109.5 476.4,111.8 477.0,113.9 477.6,114.8 478.2,115.2 478.8,115.6 479.3,117.2 479.9,118.1 480.5,118.9 481.1,119.6 481.7,120.2 482.2,120.4 482.8,121.7 483.4,122.6 484.0,124.0 484.6,124.6 485.1,124.9 485.7,125.7 486.3,126.5 486.9,129.1 487.5,129.6 488.0,129.9 488.6,130.2 489.2,129.0 489.8,128.7 490.4,128.8 490.9,127.8 491.5,127.4 492.1,127.0 492.7,126.9 493.3,126.9 493.8,126.6 494.4,125.9 495.0,124.7 495.6,123.6 496.2,122.5 496.7,121.6 497.3,120.2 497.9,119.1 498.5,117.5 499.1,116.5 499.6,116.3 500.2,115.6 500.8,115.5 501.4,115.1 502.0,114.6 502.5,113.6 503.1,112.6 503.7,113.0 504.3,111.4 504.9,110.3 505.4,109.5 506.0,108.6 506.6,108.5 507.2,109.0 507.8,107.3 508.3,106.2 508.9,104.8 509.5,102.3 510.1,102.0 510.7,100.9 511.2,100.2 511.8,99.4 512.4,98.0 513.0,97.6 513.6,97.2 514.1,96.4 514.7,96.2 515.3,95.7 515.9,94.6 516.5,94.1 517.0,92.9 517.6,91.3 518.2,91.4 518.8,91.2 519.4,90.4 519.9,89.8 520.5,89.6 521.1,89.7 521.7,88.6 522.3,88.3 522.8,88.3 523.4,87.5 524.0,87.6 524.6,87.2 525.2,86.4 525.7,85.6 526.3,84.0 526.9,83.5 527.5,81.9 528.1,80.7 528.6,80.8 529.2,81.1 529.8,80.6 530.4,79.8 531.0,79.3 531.5,78.9 532.1,79.0 532.7,79.5 533.3,78.9 533.9,78.7 534.4,77.8 535.0,77.1 535.6,76.9 536.2,77.0 536.8,76.5 537.3,76.4 537.9,75.8 538.5,76.2 539.1,75.4 539.7,75.2 540.2,74.5 540.8,73.8 541.4,73.6 542.0,72.5 542.6,72.3 543.1,71.3 543.7,70.4 544.3,69.6 544.9,68.0 545.5,68.0 546.0,67.0 546.6,66.4 547.2,66.0 547.8,65.2 548.4,64.8 548.9,63.5 549.5,64.1 550.1,63.9 550.7,63.1 551.3,63.0 551.8,62.7 552.4,61.7 553.0,60.9 553.6,60.6 554.2,60.2 554.7,59.6 555.3,60.2 555.9,60.2 556.5,59.7 557.1,58.6 557.6,58.1 558.2,60.1 558.8,60.7 559.4,60.2 560.0,60.9 560.5,60.9 561.1,61.0 561.7,60.7 562.3,61.5 562.9,61.5 563.4,61.7 564.0,61.3 564.6,60.6 565.2,60.6 565.8,60.9 566.3,60.9 566.9,60.4 567.5,60.2 568.1,60.0 568.7,60.5 569.2,59.8 569.8,60.4 570.4,60.1 571.0,61.1 571.6,61.4 572.1,62.1 572.7,63.0 573.3,62.3 573.9,63.0 574.5,61.9 575.0,61.7 575.6,61.8 576.2,61.9 576.8,62.1 577.4,62.9 577.9,63.5 578.5,63.8 579.1,63.8 579.7,63.5 580.3,63.1 580.8,63.8 581.4,63.4 582.0,63.4 582.6,63.1 583.2,63.0 583.7,63.3 584.3,63.3 584.9,64.6 585.5,64.5 586.1,64.5 586.6,64.7 587.2,63.8 587.8,64.6 588.4,64.5 589.0,65.5 589.5,65.5 590.1,66.0 590.7,66.7 591.3,67.2 591.9,66.7 592.4,68.0 593.0,68.2 593.6,69.5 594.2,69.7 594.8,69.3 595.3,70.3 595.9,70.9 596.5,71.7 597.1,71.9 597.7,72.4 598.2,73.2 598.8,74.1 599.4,76.4 600.0,77.5 600.6,77.9 601.1,79.8 601.7,80.3 602.3,81.9 602.9,84.0 603.5,84.5 604.0,86.7 604.6,88.9 605.2,89.2 605.8,90.0 606.4,90.5 606.9,92.6 607.5,94.7 608.1,95.7 608.7,96.8 609.3,97.0 609.8,98.3 610.4,99.1 611.0,100.2 611.6,103.1 612.2,103.5 612.7,104.6 613.3,104.8 613.9,104.8 614.5,107.0 615.1,107.7 615.6,108.0 616.2,107.6 616.8,109.1 617.4,110.3 618.0,109.8 618.5,109.5 619.1,110.1 619.7,110.9 620.3,111.7 620.9,112.3 621.4,111.4 622.0,111.8 622.6,113.0 623.2,113.6 623.8,115.2 624.3,115.0 624.9,114.3 625.5,114.0 626.1,114.0 626.7,114.2 627.2,113.4 627.8,112.4 628.4,112.2 629.0,111.4 629.6,111.1 630.1,111.3 630.7,111.3 631.3,111.7 631.9,112.1 632.5,111.1 633.0,111.1 633.6,110.5 634.2,110.6 634.8,110.2 635.4,109.4 635.9,109.1 636.5,109.0 637.1,109.4 637.7,109.1 638.3,108.7 638.8,109.1 639.4,108.5 640.0,108.9"></path>
    <path class="data-series series-blue" d="M60.6,246.4 61.2,246.4 61.7,246.1 62.3,246.0 62.9,246.0 63.5,246.7 64.1,246.5 64.6,246.4 65.2,246.1 65.8,246.0 66.4,247.2 67.0,247.1 67.5,246.9 68.1,247.1 68.7,246.8 69.3,247.3 69.9,247.3 70.4,247.2 71.0,247.4 71.6,247.7 72.2,248.1 72.8,248.1 73.3,248.2 73.9,248.2 74.5,248.1 75.1,248.2 75.7,248.2 76.2,248.1 76.8,248.4 77.4,248.5 78.0,248.9 78.6,248.9 79.1,248.9 79.7,249.3 80.3,249.3 80.9,249.3 81.5,249.3 82.0,249.2 82.6,249.3 83.2,249.6 83.8,249.7 84.4,249.6 84.9,249.7 85.5,249.7 86.1,249.7 86.7,249.6 87.3,249.3 87.8,249.3 88.4,249.4 89.0,249.4 89.6,249.3 90.2,249.0 90.7,249.0 91.3,248.8 91.9,248.9 92.5,248.9 93.1,248.6 93.6,248.6 94.2,248.8 94.8,248.2 95.4,248.2 96.0,248.2 96.5,248.4 97.1,248.5 97.7,248.5 98.3,248.5 98.9,248.5 99.4,248.6 100.0,248.6 100.6,248.5 101.2,248.5 101.8,248.6 102.3,248.5 102.9,248.4 103.5,248.4 104.1,248.5 104.7,248.2 105.2,248.5 105.8,248.6 106.4,248.6 107.0,248.6 107.6,248.6 108.1,248.4 108.7,248.6 109.3,248.6 109.9,248.5 110.5,248.4 111.0,248.6 111.6,248.9 112.2,248.9 112.8,248.9 113.4,248.9 113.9,248.6 114.5,248.5 115.1,248.8 115.7,248.6 116.3,248.2 116.8,248.2 117.4,248.0 118.0,247.7 118.6,247.3 119.2,246.8 119.7,246.9 120.3,246.8 120.9,246.7 121.5,246.3 122.1,245.9 122.6,246.0 123.2,245.9 123.8,245.9 124.4,246.0 125.0,245.6 125.5,245.5 126.1,245.1 126.7,244.5 127.3,244.3 127.9,244.1 128.4,244.0 129.0,243.6 129.6,243.1 130.2,242.4 130.8,242.3 131.3,241.9 131.9,241.9 132.5,241.9 133.1,242.3 133.7,242.4 134.2,242.2 134.8,241.8 135.4,241.9 136.0,242.2 136.6,242.4 137.1,242.6 137.7,242.4 138.3,242.7 138.9,242.2 139.5,242.3 140.0,243.0 140.6,243.5 141.2,243.1 141.8,243.2 142.4,243.1 142.9,242.4 143.5,242.0 144.1,242.7 144.7,242.4 145.3,242.4 145.8,241.9 146.4,241.8 147.0,241.5 147.6,240.8 148.2,241.1 148.7,240.4 149.3,239.9 149.9,240.0 150.5,239.9 151.1,239.8 151.6,240.0 152.2,239.9 152.8,239.6 153.4,239.4 154.0,239.5 154.5,239.5 155.1,239.9 155.7,240.0 156.3,239.9 156.9,239.5 157.4,239.1 158.0,238.7 158.6,238.2 159.2,237.9 159.8,238.1 160.3,238.3 160.9,238.5 161.5,238.3 162.1,238.5 162.7,238.3 163.2,237.7 163.8,236.9 164.4,237.8 165.0,238.1 165.6,237.8 166.1,237.9 166.7,237.8 167.3,237.9 167.9,237.9 168.5,238.2 169.0,237.9 169.6,238.2 170.2,238.6 170.8,238.5 171.4,239.2 171.9,239.1 172.5,240.0 173.1,240.2 173.7,240.7 174.3,241.2 174.8,242.3 175.4,243.1 176.0,243.2 176.6,243.5 177.2,243.7 177.7,243.6 178.3,243.3 178.9,244.0 179.5,243.9 180.1,244.0 180.6,243.9 181.2,244.1 181.8,244.5 182.4,244.7 183.0,244.7 183.5,244.9 184.1,245.5 184.7,245.9 185.3,245.7 185.9,245.6 186.4,245.7 187.0,245.9 187.6,246.3 188.2,246.4 188.8,246.4 189.3,246.7 189.9,246.7 190.5,246.5 191.1,246.4 191.7,246.4 192.2,246.7 192.8,246.7 193.4,246.8 194.0,246.8 194.6,246.7 195.1,246.9 195.7,247.1 196.3,247.2 196.9,247.4 197.5,247.6 198.0,247.6 198.6,247.8 199.2,247.7 199.8,247.8 200.4,248.0 200.9,248.1 201.5,248.0 202.1,248.4 202.7,248.6 203.3,248.9 203.8,248.9 204.4,249.0 205.0,249.2 205.6,249.7 206.2,250.1 206.7,250.2 207.3,250.4 207.9,250.4 208.5,250.1 209.1,250.2 209.6,250.2 210.2,250.4 210.8,250.4 211.4,250.4 212.0,250.2 212.5,250.5 213.1,250.6 213.7,250.6 214.3,250.5 214.9,250.2 215.4,250.2 216.0,250.2 216.6,250.2 217.2,250.4 217.8,250.4 218.3,250.5 218.9,250.2 219.5,250.2 220.1,250.4 220.7,250.5 221.2,250.8 221.8,250.8 222.4,250.8 223.0,250.6 223.6,250.6 224.1,250.8 224.7,250.9 225.3,250.9 225.9,250.9 226.5,250.9 227.0,251.0 227.6,250.6 228.2,250.8 228.8,250.8 229.4,250.8 229.9,250.8 230.5,250.8 231.1,250.4 231.7,250.6 232.3,250.6 232.8,250.6 233.4,250.6 234.0,250.6 234.6,250.8 235.2,250.5 235.7,250.5 236.3,250.5 236.9,250.5 237.5,250.5 238.1,250.4 238.6,250.2 239.2,250.2 239.8,250.0 240.4,250.0 241.0,249.8 241.5,249.7 242.1,249.6 242.7,249.6 243.3,249.6 243.9,249.6 244.4,249.6 245.0,249.6 245.6,249.4 246.2,249.4 246.8,249.3 247.3,249.6 247.9,249.4 248.5,249.6 249.1,249.4 249.7,249.6 250.2,249.7 250.8,249.4 251.4,249.4 252.0,249.4 252.6,249.2 253.1,249.3 253.7,249.2 254.3,249.4 254.9,249.4 255.5,249.0 256.0,248.9 256.6,248.9 257.2,248.5 257.8,248.6 258.4,248.6 258.9,248.8 259.5,248.6 260.1,248.6 260.7,248.8 261.3,248.8 261.8,248.6 262.4,248.6 263.0,248.9 263.6,248.6 264.2,248.8 264.7,248.8 265.3,248.4 265.9,248.1 266.5,248.2 267.1,248.2 267.6,248.0 268.2,248.0 268.8,247.7 269.4,247.8 270.0,247.7 270.5,247.3 271.1,247.1 271.7,246.8 272.3,246.0 272.9,246.1 273.4,245.7 274.0,245.3 274.6,244.9 275.2,244.7 275.8,244.5 276.3,243.9 276.9,244.0 277.5,244.1 278.1,243.7 278.7,243.3 279.2,243.3 279.8,243.7 280.4,243.6 281.0,243.6 281.6,243.3 282.1,243.5 282.7,243.5 283.3,243.2 283.9,243.2 284.5,243.3 285.0,243.5 285.6,243.3 286.2,243.1 286.8,243.0 287.4,243.0 287.9,242.6 288.5,242.4 289.1,242.4 289.7,241.8 290.3,241.4 290.8,241.4 291.4,241.4 292.0,241.2 292.6,240.6 293.2,240.7 293.7,240.6 294.3,241.2 294.9,240.8 295.5,241.0 296.1,240.8 296.6,241.1 297.2,241.1 297.8,241.2 298.4,241.2 299.0,241.8 299.5,241.9 300.1,241.9 300.7,242.3 301.3,242.3 301.9,242.6 302.4,242.6 303.0,242.4 303.6,242.2 304.2,241.9 304.8,242.2 305.3,241.1 305.9,240.6 306.5,240.4 307.1,240.4 307.7,240.3 308.2,239.5 308.8,239.6 309.4,239.5 310.0,239.8 310.6,239.5 311.1,239.5 311.7,239.8 312.3,239.5 312.9,239.4 313.5,239.4 314.0,239.2 314.6,239.4 315.2,239.5 315.8,239.1 316.4,238.9 316.9,239.0 317.5,239.1 318.1,239.0 318.7,238.5 319.3,238.7 319.8,238.6 320.4,238.6 321.0,239.0 321.6,238.5 322.2,238.9 322.7,239.0 323.3,239.0 323.9,239.0 324.5,239.5 325.1,240.3 325.6,240.0 326.2,239.8 326.8,240.7 327.4,241.0 328.0,241.1 328.5,241.5 329.1,241.2 329.7,241.4 330.3,241.4 330.9,241.5 331.4,241.9 332.0,242.2 332.6,242.2 333.2,242.6 333.8,242.7 334.3,243.5 334.9,243.5 335.5,243.6 336.1,244.0 336.7,244.1 337.2,243.7 337.8,244.3 338.4,244.3 339.0,244.7 339.6,244.9 340.1,245.3 340.7,245.6 341.3,245.6 341.9,245.6 342.5,245.6 343.0,245.7 343.6,245.7 344.2,246.1 344.8,246.4 345.4,246.7 345.9,246.8 346.5,247.1 347.1,246.9 347.7,247.4 348.3,248.0 348.8,248.1 349.4,248.1 350.0,248.2 350.6,248.4 351.2,248.5 351.7,248.5 352.3,248.2 352.9,248.2 353.5,248.1 354.1,248.1 354.6,248.1 355.2,248.1 355.8,248.1 356.4,248.1 357.0,248.1 357.5,248.1 358.1,248.6 358.7,248.5 359.3,248.2 359.9,248.1 360.4,248.5 361.0,248.6 361.6,248.9 362.2,249.2 362.8,249.2 363.3,249.0 363.9,248.8 364.5,248.6 365.1,249.0 365.7,249.2 366.2,249.2 366.8,249.0 367.4,248.8 368.0,248.9 368.6,248.6 369.1,248.9 369.7,249.2 370.3,249.2 370.9,248.9 371.5,249.0 372.0,248.9 372.6,249.0 373.2,249.3 373.8,249.4 374.4,249.4 374.9,249.4 375.5,249.4 376.1,249.4 376.7,249.4 377.3,249.3 377.8,249.2 378.4,249.3 379.0,249.3 379.6,249.3 380.2,249.6 380.7,249.6 381.3,249.4 381.9,249.3 382.5,249.3 383.1,249.0 383.6,248.8 384.2,248.9 384.8,248.5 385.4,248.1 386.0,248.2 386.5,248.1 387.1,248.1 387.7,248.1 388.3,248.1 388.9,248.2 389.4,248.1 390.0,248.0 390.6,247.8 391.2,247.7 391.8,247.8 392.3,247.7 392.9,247.7 393.5,247.6 394.1,247.7 394.7,247.4 395.2,247.1 395.8,247.2 396.4,247.2 397.0,247.2 397.6,246.9 398.1,246.9 398.7,246.9 399.3,246.7 399.9,246.5 400.5,246.7 401.0,246.7 401.6,247.1 402.2,247.1 402.8,247.1 403.4,247.2 403.9,247.4 404.5,247.6 405.1,247.7 405.7,247.6 406.3,247.8 406.8,248.2 407.4,248.5 408.0,248.5 408.6,248.4 409.2,248.4 409.7,248.5 410.3,248.6 410.9,248.9 411.5,249.0 412.1,249.3 412.6,248.9 413.2,248.8 413.8,248.5 414.4,248.4 415.0,248.4 415.5,248.2 416.1,248.1 416.7,248.1 417.3,248.0 417.9,248.0 418.4,248.2 419.0,248.4 419.6,248.1 420.2,248.2 420.8,247.6 421.3,247.6 421.9,247.6 422.5,247.8 423.1,247.6 423.7,247.4 424.2,247.7 424.8,247.6 425.4,248.1 426.0,248.2 426.6,248.2 427.1,248.2 427.7,248.1 428.3,248.1 428.9,248.4 429.5,248.1 430.0,248.1 430.6,247.7 431.2,247.6 431.8,247.7 432.4,248.0 432.9,248.1 433.5,247.3 434.1,247.2 434.7,246.8 435.3,246.0 435.8,246.0 436.4,246.3 437.0,246.3 437.6,246.7 438.2,246.3 438.7,245.9 439.3,245.6 439.9,244.8 440.5,244.3 441.1,243.9 441.6,243.9 442.2,243.6 442.8,243.6 443.4,243.7 444.0,243.3 444.5,243.5 445.1,243.2 445.7,243.0 446.3,242.7 446.9,242.2 447.4,242.0 448.0,242.0 448.6,241.8 449.2,241.6 449.8,241.6 450.3,241.0 450.9,240.7 451.5,240.6 452.1,240.3 452.7,239.8 453.2,240.2 453.8,240.0 454.4,240.3 455.0,240.2 455.6,239.9 456.1,240.3 456.7,240.3 457.3,240.3 457.9,240.2 458.5,240.0 459.0,240.2 459.6,240.0 460.2,240.3 460.8,240.3 461.4,240.7 461.9,240.8 462.5,240.8 463.1,240.6 463.7,240.0 464.3,240.2 464.8,239.5 465.4,239.4 466.0,239.2 466.6,239.1 467.2,238.6 467.7,238.7 468.3,238.7 468.9,239.2 469.5,238.9 470.1,238.7 470.6,239.2 471.2,239.5 471.8,239.6 472.4,239.1 473.0,239.4 473.5,239.2 474.1,239.4 474.7,239.4 475.3,239.5 475.9,239.8 476.4,239.9 477.0,239.5 477.6,239.5 478.2,239.4 478.8,239.5 479.3,239.8 479.9,239.9 480.5,239.9 481.1,240.4 481.7,240.4 482.2,240.6 482.8,240.4 483.4,241.0 484.0,241.0 484.6,241.1 485.1,241.1 485.7,241.4 486.3,241.9 486.9,241.9 487.5,242.2 488.0,241.9 488.6,242.2 489.2,242.2 489.8,242.4 490.4,242.8 490.9,243.2 491.5,244.0 492.1,244.7 492.7,244.9 493.3,245.5 493.8,245.5 494.4,246.3 495.0,246.7 495.6,247.4 496.2,247.8 496.7,248.1 497.3,248.9 497.9,249.2 498.5,249.4 499.1,249.4 499.6,249.7 500.2,249.8 500.8,249.7 501.4,249.8 502.0,249.7 502.5,249.6 503.1,249.6 503.7,249.3 504.3,249.2 504.9,249.0 505.4,249.2 506.0,249.4 506.6,249.4 507.2,249.3 507.8,249.3 508.3,249.3 508.9,249.3 509.5,249.3 510.1,249.2 510.7,249.4 511.2,249.4 511.8,249.3 512.4,249.4 513.0,249.3 513.6,249.4 514.1,249.3 514.7,249.6 515.3,249.4 515.9,249.2 516.5,249.2 517.0,249.2 517.6,249.2 518.2,249.0 518.8,249.3 519.4,249.4 519.9,249.4 520.5,249.4 521.1,249.3 521.7,249.3 522.3,249.2 522.8,248.8 523.4,248.8 524.0,248.8 524.6,248.9 525.2,248.8 525.7,248.6 526.3,248.8 526.9,248.9 527.5,248.9 528.1,249.2 528.6,248.9 529.2,248.6 529.8,248.6 530.4,248.4 531.0,248.5 531.5,248.2 532.1,248.4 532.7,248.4 533.3,248.4 533.9,248.4 534.4,248.2 535.0,248.4 535.6,248.6 536.2,248.8 536.8,248.6 537.3,248.5 537.9,248.5 538.5,248.2 539.1,248.2 539.7,248.5 540.2,248.5 540.8,248.4 541.4,248.5 542.0,248.4 542.6,248.4 543.1,248.4 543.7,248.6 544.3,249.0 544.9,249.3 545.5,249.6 546.0,249.7 546.6,249.8 547.2,249.2 547.8,248.6 548.4,248.6 548.9,248.2 549.5,248.1 550.1,247.8 550.7,247.8 551.3,248.0 551.8,247.8 552.4,247.8 553.0,247.6 553.6,247.4 554.2,247.7 554.7,247.6 555.3,247.4 555.9,247.4 556.5,247.4 557.1,247.6 557.6,247.7 558.2,246.9 558.8,246.7 559.4,246.8 560.0,246.8 560.5,246.7 561.1,246.4 561.7,246.4 562.3,246.0 562.9,245.7 563.4,245.7 564.0,245.9 564.6,246.1 565.2,245.9 565.8,245.9 566.3,245.6 566.9,245.3 567.5,245.2 568.1,245.1 568.7,244.7 569.2,244.7 569.8,244.7 570.4,245.2 571.0,245.1 571.6,244.8 572.1,244.9 572.7,244.4 573.3,244.5 573.9,244.3 574.5,244.1 575.0,244.4 575.6,244.3 576.2,243.9 576.8,243.9 577.4,243.6 577.9,243.9 578.5,243.7 579.1,243.7 579.7,243.7 580.3,243.7 580.8,243.7 581.4,244.1 582.0,244.5 582.6,244.5 583.2,244.7 583.7,244.8 584.3,244.7 584.9,244.5 585.5,244.1 586.1,244.0 586.6,244.1 587.2,244.1 587.8,244.4 588.4,244.5 589.0,244.4 589.5,244.4 590.1,244.3 590.7,244.7 591.3,244.4 591.9,244.9 592.4,244.5 593.0,244.3 593.6,244.1 594.2,244.1 594.8,243.9 595.3,243.6 595.9,243.6 596.5,243.5 597.1,243.3 597.7,243.3 598.2,243.2 598.8,243.2 599.4,242.7 600.0,241.9 600.6,241.9 601.1,241.5 601.7,241.2 602.3,241.1 602.9,240.4 603.5,240.6 604.0,240.6 604.6,239.8 605.2,239.6 605.8,239.4 606.4,239.2 606.9,239.1 607.5,238.9 608.1,239.0 608.7,239.2 609.3,239.5 609.8,239.1 610.4,239.1 611.0,239.8 611.6,239.9 612.2,238.9 612.7,239.4 613.3,239.5 613.9,240.4 614.5,240.6 615.1,240.7 615.6,240.6 616.2,241.9 616.8,241.6 617.4,241.6 618.0,241.8 618.5,242.0 619.1,242.2 619.7,241.9 620.3,242.0 620.9,242.4 621.4,242.6 622.0,243.0 622.6,243.2 623.2,243.3 623.8,243.3 624.3,243.7 624.9,243.6 625.5,244.0 626.1,244.1 626.7,244.4 627.2,244.7 627.8,245.1 628.4,245.6 629.0,245.3 629.6,245.6 630.1,246.0 630.7,246.1 631.3,246.4 631.9,246.7 632.5,246.8 633.0,247.3 633.6,247.3 634.2,247.2 634.8,247.4 635.4,247.1 635.9,247.3 636.5,247.2 637.1,247.3 637.7,247.4 638.3,247.6 638.8,247.6 639.4,247.7 640.0,247.7"></path>
    <text text-anchor="end" fill="currentColor" class="series-green" x="640" y="105">Food</text>
    <text text-anchor="end" fill="currentColor" class="series-blue" x="640" y="208">Creatures</text>
</svg>