<svg width="660" height="300" xmlns="http://www.w3.org/2000/svg">

<style>
  .background {
    fill: none;
  }
  .axis {
    stroke: #111;
    stroke-width: 1;
  }
  .axis-label {
    font-size: 14px;
    font-family: Arial;
    text-anchor: middle;
  }
  .axis-units {
    font-size: 10px;
    font-family: Arial;
  }
  .y-axis-text {
    text-anchor: end;
  }
  .x-axis-text {
    text-anchor: middle;
  }
  .gridlines {
    stroke: black;
    stroke-width: 0.3;
    fill: none;
    opacity: 0.5;
  }
  .data-series {
    stroke-width: 1.8;
    fill: none;
    opacity: 1;
  }
  </style>

    <text class="axis-label" x="347.0" y="290">Time (ticks)</text>
    <text class="axis-label" x="0" y="134.0" transform="translate(15.0) rotate(-90, 0, 134.0)">Population size</text>
    <line class="axis" x1="50" y1="258" x2="645" y2="258"></line>
    <line class="axis" x1="50" y1="258" x2="50" y2="10"></line>
    <g class="axis-units">
        <g class="x-axis-text">
            <text x="50.0" y="270">0</text>
            <text x="109.4" y="270">10K</text>
            <text x="168.8" y="270">20K</text>
            <text x="228.2" y="270">30K</text>
            <text x="287.6" y="270">40K</text>
            <text x="347.0" y="270">50K</text>
            <text x="406.4" y="270">60K</text>
            <text x="465.8" y="270">70K</text>
            <text x="525.2" y="270">80K</text>
            <text x="584.6" y="270">90K</text>
            <text x="644.0" y="270">100K</text>
        </g>
        <g class="y-axis-text">
            <text x="47" y="261.0">0</text>
            <text x="47" y="199.0">500</text>
            <text x="47" y="137.0">1000</text>
            <text x="47" y="75.0">1500</text>
            <text x="47" y="13.0">2000</text>
        </g>
    </g>
    <g class="gridlines">
        <line x1="109.5" y1="258" x2="109.5" y2="10"></line>
        <line x1="168.5" y1="258" x2="168.5" y2="10"></line>
        <line x1="228.5" y1="258" x2="228.5" y2="10"></line>
        <line x1="287.5" y1="258" x2="287.5" y2="10"></line>
        <line x1="347.5" y1="258" x2="347.5" y2="10"></line>
        <line x1="406.5" y1="258" x2="406.5" y2="10"></line>
        <line x1="465.5" y1="258" x2="465.5" y2="10"></line>
        <line x1="525.5" y1="258" x2="525.5" y2="10"></line>
        <line x1="584.5" y1="258" x2="584.5" y2="10"></line>
        <line x1="644.5" y1="258" x2="644.5" y2="10"></line>
        <line x1="50" y1="196.5" x2="644" y2="196.5"></line>
        <line x1="50" y1="134.5" x2="644" y2="134.5"></line>
        <line x1="50" y1="72.5" x2="644" y2="72.5"></line>
        <line x1="50" y1="10.5" x2="644" y2="10.5"></line>
    </g>
    <path class="data-series" stroke="green" d="M50.6,111.9 51.2,112.2 51.8,112.3 52.4,113.5 53.0,112.9 53.6,113.0 54.2,113.7 54.8,112.9 55.3,112.8 55.9,111.4 56.5,110.9 57.1,109.7 57.7,110.1 58.3,108.6 58.9,109.4 59.5,109.3 60.1,107.8 60.7,108.0 61.3,108.0 61.9,108.0 62.5,105.9 63.1,105.2 63.7,104.2 64.3,103.2 64.8,102.6 65.4,101.5 66.0,101.3 66.6,101.4 67.2,100.5 67.8,99.2 68.4,97.8 69.0,97.0 69.6,96.2 70.2,95.1 70.8,95.2 71.4,94.9 72.0,93.8 72.6,93.5 73.2,92.3 73.8,91.3 74.4,90.4 74.9,90.0 75.5,89.1 76.1,88.0 76.7,86.5 77.3,86.8 77.9,87.1 78.5,86.9 79.1,85.9 79.7,86.3 80.3,85.8 80.9,84.8 81.5,84.6 82.1,84.9 82.7,84.2 83.3,82.2 83.9,81.5 84.5,80.8 85.0,80.4 85.6,80.8 86.2,80.1 86.8,80.3 87.4,79.9 88.0,79.4 88.6,78.9 89.2,77.6 89.8,76.7 90.4,75.7 91.0,75.7 91.6,75.3 92.2,74.5 92.8,73.7 93.4,72.7 94.0,71.1 94.5,69.5 95.1,68.8 95.7,67.5 96.3,66.7 96.9,65.6 97.5,64.1 98.1,63.7 98.7,63.4 99.3,63.4 99.9,62.6 100.5,61.6 101.1,60.8 101.7,60.5 102.3,59.7 102.9,59.6 103.5,59.5 104.1,58.0 104.6,57.9 105.2,57.7 105.8,58.4 106.4,58.4 107.0,58.2 107.6,58.9 108.2,59.0 108.8,59.4 109.4,58.9 110.0,59.1 110.6,60.0 111.2,58.9 111.8,59.1 112.4,59.6 113.0,59.6 113.6,59.8 114.2,59.1 114.7,60.0 115.3,59.6 115.9,59.1 116.5,59.2 117.1,59.7 117.7,60.0 118.3,59.7 118.9,61.1 119.5,63.2 120.1,63.7 120.7,65.4 121.3,65.1 121.9,67.3 122.5,68.5 123.1,69.5 123.7,69.8 124.2,70.8 124.8,71.0 125.4,71.8 126.0,72.0 126.6,71.5 127.2,71.3 127.8,72.2 128.4,73.2 129.0,73.6 129.6,74.0 130.2,73.5 130.8,74.1 131.4,73.9 132.0,74.0 132.6,74.2 133.2,75.3 133.8,75.5 134.3,75.5 134.9,77.6 135.5,78.8 136.1,79.3 136.7,80.7 137.3,81.1 137.9,83.8 138.5,85.0 139.1,84.8 139.7,86.3 140.3,88.2 140.9,91.0 141.5,92.3 142.1,93.9 142.7,95.1 143.3,95.3 143.9,96.7 144.4,98.3 145.0,101.0 145.6,102.3 146.2,102.9 146.8,105.1 147.4,107.0 148.0,108.1 148.6,109.9 149.2,111.2 149.8,111.9 150.4,113.5 151.0,117.1 151.6,118.4 152.2,118.6 152.8,118.9 153.4,120.1 153.9,121.6 154.5,124.7 155.1,126.1 155.7,128.8 156.3,129.4 156.9,131.0 157.5,131.3 158.1,133.0 158.7,134.4 159.3,135.9 159.9,136.4 160.5,137.2 161.1,139.0 161.7,140.1 162.3,141.1 162.9,141.6 163.5,142.7 164.0,142.4 164.6,142.8 165.2,143.9 165.8,145.2 166.4,145.2 167.0,144.9 167.6,144.9 168.2,144.7 168.8,144.7 169.4,144.2 170.0,144.9 170.6,145.9 171.2,146.5 171.8,148.1 172.4,148.8 173.0,148.1 173.6,148.4 174.1,148.4 174.7,148.0 175.3,148.3 175.9,148.9 176.5,148.1 177.1,148.3 177.7,148.4 178.3,148.4 178.9,148.4 179.5,147.5 180.1,146.9 180.7,146.9 181.3,147.0 181.9,147.6 182.5,146.9 183.1,147.8 183.7,147.6 184.2,146.6 184.8,146.4 185.4,146.0 186.0,145.0 186.6,144.2 187.2,144.8 187.8,144.7 188.4,143.9 189.0,143.5 189.6,142.9 190.2,140.9 190.8,139.7 191.4,139.6 192.0,140.0 192.6,139.7 193.2,138.7 193.7,138.8 194.3,137.3 194.9,137.1 195.5,135.9 196.1,135.6 196.7,134.5 197.3,133.0 197.9,132.5 198.5,131.3 199.1,131.1 199.7,130.0 200.3,129.0 200.9,127.9 201.5,126.8 202.1,126.4 202.7,124.6 203.3,123.8 203.8,123.6 204.4,122.3 205.0,120.5 205.6,119.9 206.2,118.7 206.8,117.5 207.4,116.5 208.0,116.0 208.6,115.4 209.2,114.5 209.8,114.0 210.4,113.4 211.0,112.9 211.6,111.6 212.2,110.9 212.8,110.4 213.3,109.7 213.9,109.0 214.5,107.6 215.1,106.7 215.7,106.2 216.3,105.6 216.9,105.1 217.5,104.9 218.1,104.2 218.7,103.5 219.3,102.4 219.9,101.9 220.5,100.1 221.1,99.3 221.7,98.9 222.3,97.7 222.9,96.9 223.4,95.6 224.0,94.1 224.6,91.5 225.2,91.3 225.8,90.2 226.4,89.2 227.0,87.3 227.6,86.4 228.2,86.3 228.8,86.1 229.4,85.9 230.0,84.4 230.6,83.2 231.2,81.8 231.8,80.8 232.4,79.6 233.0,79.6 233.5,79.8 234.1,79.8 234.7,78.7 235.3,78.0 235.9,77.7 236.5,76.6 237.1,75.6 237.7,74.0 238.3,73.7 238.9,73.0 239.5,71.3 240.1,71.1 240.7,69.0 241.3,68.9 241.9,67.8 242.5,67.5 243.1,67.3 243.6,66.7 244.2,65.9 244.8,65.4 245.4,64.8 246.0,64.2 246.6,63.8 247.2,62.5 247.8,61.2 248.4,59.8 249.0,58.9 249.6,58.9 250.2,58.2 250.8,58.6 251.4,57.7 252.0,57.6 252.6,57.4 253.1,57.5 253.7,57.1 254.3,57.1 254.9,56.9 255.5,57.4 256.1,56.4 256.7,56.5 257.3,55.6 257.9,53.9 258.5,53.9 259.1,53.0 259.7,52.4 260.3,52.8 260.9,51.8 261.5,50.7 262.1,50.8 262.7,49.6 263.2,48.9 263.8,49.4 264.4,48.6 265.0,49.1 265.6,49.1 266.2,49.3 266.8,50.1 267.4,50.9 268.0,51.4 268.6,51.3 269.2,52.4 269.8,52.9 270.4,52.4 271.0,54.3 271.6,54.8 272.2,55.4 272.8,55.9 273.3,56.6 273.9,57.4 274.5,58.4 275.1,59.2 275.7,60.2 276.3,60.3 276.9,60.1 277.5,60.1 278.1,60.5 278.7,61.6 279.3,62.9 279.9,62.9 280.5,62.7 281.1,62.6 281.7,63.1 282.3,63.6 282.8,65.3 283.4,65.2 284.0,66.0 284.6,68.0 285.2,69.4 285.8,70.8 286.4,71.8 287.0,72.7 287.6,74.7 288.2,76.6 288.8,76.2 289.4,76.2 290.0,77.1 290.6,78.4 291.2,79.3 291.8,79.8 292.4,80.6 292.9,81.1 293.5,81.9 294.1,82.5 294.7,83.5 295.3,84.5 295.9,84.6 296.5,86.0 297.1,86.3 297.7,87.4 298.3,88.2 298.9,90.1 299.5,91.6 300.1,92.8 300.7,94.1 301.3,96.4 301.9,98.2 302.4,97.5 303.0,98.8 303.6,99.9 304.2,101.0 304.8,101.4 305.4,102.3 306.0,103.4 306.6,105.4 307.2,106.0 307.8,106.7 308.4,108.0 309.0,109.2 309.6,110.9 310.2,111.2 310.8,112.2 311.4,114.3 312.0,115.5 312.5,116.5 313.1,117.9 313.7,118.7 314.3,120.1 314.9,121.8 315.5,123.3 316.1,124.8 316.7,126.4 317.3,126.7 317.9,128.0 318.5,128.8 319.1,130.4 319.7,131.3 320.3,132.5 320.9,132.9 321.5,133.0 322.1,133.5 322.6,135.4 323.2,135.2 323.8,135.7 324.4,136.1 325.0,136.7 325.6,136.4 326.2,136.9 326.8,138.0 327.4,139.1 328.0,138.7 328.6,138.6 329.2,139.1 329.8,139.6 330.4,138.6 331.0,139.2 331.6,139.0 332.1,139.0 332.7,138.8 333.3,138.2 333.9,138.6 334.5,137.7 335.1,138.1 335.7,137.5 336.3,136.5 336.9,137.3 337.5,137.1 338.1,137.3 338.7,136.1 339.3,135.2 339.9,134.2 340.5,134.5 341.1,133.8 341.7,133.5 342.2,133.5 342.8,133.4 343.4,132.6 344.0,132.1 344.6,131.3 345.2,129.7 345.8,128.8 346.4,127.9 347.0,127.8 347.6,127.2 348.2,127.2 348.8,126.8 349.4,126.9 350.0,126.3 350.6,125.9 351.2,125.7 351.8,124.7 352.3,124.0 352.9,123.8 353.5,123.3 354.1,122.2 354.7,121.2 355.3,121.0 355.9,120.4 356.5,119.5 357.1,118.5 357.7,118.6 358.3,118.4 358.9,117.9 359.5,117.3 360.1,116.6 360.7,116.1 361.3,115.8 361.9,114.0 362.4,112.7 363.0,112.9 363.6,112.2 364.2,111.8 364.8,111.7 365.4,110.1 366.0,109.1 366.6,107.5 367.2,106.8 367.8,106.3 368.4,106.0 369.0,104.7 369.6,104.1 370.2,104.5 370.8,104.4 371.4,103.0 371.9,102.0 372.5,101.6 373.1,100.6 373.7,99.7 374.3,98.2 374.9,96.4 375.5,95.7 376.1,95.6 376.7,94.6 377.3,93.5 377.9,92.6 378.5,92.1 379.1,91.1 379.7,90.1 380.3,89.5 380.9,88.7 381.5,88.6 382.0,88.7 382.6,88.9 383.2,89.4 383.8,89.0 384.4,88.5 385.0,88.7 385.6,87.3 386.2,86.1 386.8,85.9 387.4,85.8 388.0,85.1 388.6,84.4 389.2,84.2 389.8,83.3 390.4,84.4 391.0,84.2 391.6,83.8 392.1,84.2 392.7,84.8 393.3,84.4 393.9,85.0 394.5,84.9 395.1,84.8 395.7,86.0 396.3,84.3 396.9,84.0 397.5,82.9 398.1,82.8 398.7,81.8 399.3,81.7 399.9,81.2 400.5,81.3 401.1,80.7 401.6,81.1 402.2,80.7 402.8,80.2 403.4,79.7 404.0,78.8 404.6,77.3 405.2,76.1 405.8,75.0 406.4,74.4 407.0,73.6 407.6,72.7 408.2,72.2 408.8,72.1 409.4,72.1 410.0,71.4 410.6,70.9 411.2,70.0 411.7,68.8 412.3,67.8 412.9,67.4 413.5,67.8 414.1,67.2 414.7,66.7 415.3,66.8 415.9,65.9 416.5,65.1 417.1,64.7 417.7,65.1 418.3,63.8 418.9,62.1 419.5,61.6 420.1,61.7 420.7,61.8 421.2,61.7 421.8,61.6 422.4,60.6 423.0,60.5 423.6,60.7 424.2,60.3 424.8,59.4 425.4,58.0 426.0,56.6 426.6,56.4 427.2,56.6 427.8,56.4 428.4,56.0 429.0,55.9 429.6,55.6 430.2,55.6 430.8,55.6 431.3,55.0 431.9,55.1 432.5,55.1 433.1,55.0 433.7,56.0 434.3,55.9 434.9,55.9 435.5,56.1 436.1,56.0 436.7,55.9 437.3,56.4 437.9,56.0 438.5,56.7 439.1,58.1 439.7,58.5 440.3,58.2 440.9,58.0 441.4,58.9 442.0,59.1 442.6,59.4 443.2,60.5 443.8,60.3 444.4,61.5 445.0,62.8 445.6,62.9 446.2,64.6 446.8,65.7 447.4,66.8 448.0,68.0 448.6,69.4 449.2,69.5 449.8,71.5 450.4,73.4 450.9,73.2 451.5,73.9 452.1,75.1 452.7,77.0 453.3,79.2 453.9,79.2 454.5,79.8 455.1,80.6 455.7,81.4 456.3,83.0 456.9,82.8 457.5,83.9 458.1,84.4 458.7,85.6 459.3,86.6 459.9,87.6 460.5,88.6 461.0,89.6 461.6,92.2 462.2,93.2 462.8,92.7 463.4,94.7 464.0,96.2 464.6,98.3 465.2,99.0 465.8,100.3 466.4,102.4 467.0,103.9 467.6,104.6 468.2,106.3 468.8,107.7 469.4,110.2 470.0,111.8 470.6,114.2 471.1,114.8 471.7,116.6 472.3,119.5 472.9,119.4 473.5,120.2 474.1,122.2 474.7,123.1 475.3,123.5 475.9,123.5 476.5,125.6 477.1,127.6 477.7,128.4 478.3,128.8 478.9,129.2 479.5,130.7 480.1,131.5 480.6,132.3 481.2,132.9 481.8,133.5 482.4,133.6 483.0,134.9 483.6,135.7 484.2,137.0 484.8,137.6 485.4,137.8 486.0,138.6 486.6,139.3 487.2,141.8 487.8,142.3 488.4,142.6 489.0,142.8 489.6,141.7 490.2,141.4 490.7,141.6 491.3,140.6 491.9,140.2 492.5,139.8 493.1,139.7 493.7,139.7 494.3,139.5 494.9,138.8 495.5,137.7 496.1,136.6 496.7,135.6 497.3,134.7 497.9,133.5 498.5,132.4 499.1,130.9 499.7,130.0 500.3,129.8 500.8,129.2 501.4,129.0 502.0,128.7 502.6,128.2 503.2,127.3 503.8,126.3 504.4,126.7 505.0,125.2 505.6,124.2 506.2,123.5 506.8,122.6 507.4,122.5 508.0,123.0 508.6,121.4 509.2,120.4 509.8,119.0 510.4,116.6 510.9,116.4 511.5,115.4 512.1,114.7 512.7,113.9 513.3,112.7 513.9,112.3 514.5,111.9 515.1,111.2 515.7,110.9 516.3,110.4 516.9,109.4 517.5,109.0 518.1,107.8 518.7,106.3 519.3,106.5 519.9,106.2 520.4,105.5 521.0,105.0 521.6,104.7 522.2,104.9 522.8,103.9 523.4,103.5 524.0,103.5 524.6,102.8 525.2,102.9 525.8,102.5 526.4,101.8 527.0,101.0 527.6,99.5 528.2,99.0 528.8,97.5 529.4,96.4 530.0,96.6 530.5,96.8 531.1,96.3 531.7,95.6 532.3,95.1 532.9,94.7 533.5,94.8 534.1,95.3 534.7,94.7 535.3,94.6 535.9,93.7 536.5,93.1 537.1,92.8 537.7,93.0 538.3,92.5 538.9,92.3 539.5,91.8 540.0,92.2 540.6,91.5 541.2,91.2 541.8,90.6 542.4,90.0 543.0,89.7 543.6,88.7 544.2,88.5 544.8,87.6 545.4,86.8 546.0,86.0 546.6,84.5 547.2,84.5 547.8,83.5 548.4,83.0 549.0,82.7 549.6,81.9 550.1,81.5 550.7,80.3 551.3,80.8 551.9,80.7 552.5,79.9 553.1,79.8 553.7,79.6 554.3,78.6 554.9,77.8 555.5,77.6 556.1,77.2 556.7,76.6 557.3,77.2 557.9,77.2 558.5,76.7 559.1,75.7 559.7,75.2 560.2,77.1 560.8,77.7 561.4,77.2 562.0,77.8 562.6,77.8 563.2,78.0 563.8,77.7 564.4,78.4 565.0,78.4 565.6,78.6 566.2,78.2 566.8,77.6 567.4,77.6 568.0,77.8 568.6,77.8 569.2,77.3 569.8,77.2 570.3,77.0 570.9,77.5 571.5,76.8 572.1,77.3 572.7,77.1 573.3,78.1 573.9,78.3 574.5,78.9 575.1,79.8 575.7,79.2 576.3,79.8 576.9,78.8 577.5,78.6 578.1,78.7 578.7,78.8 579.3,78.9 579.8,79.7 580.4,80.3 581.0,80.6 581.6,80.6 582.2,80.3 582.8,79.9 583.4,80.6 584.0,80.2 584.6,80.2 585.2,79.9 585.8,79.8 586.4,80.1 587.0,80.1 587.6,81.3 588.2,81.2 588.8,81.2 589.4,81.4 589.9,80.6 590.5,81.3 591.1,81.2 591.7,82.2 592.3,82.2 592.9,82.7 593.5,83.3 594.1,83.8 594.7,83.3 595.3,84.5 595.9,84.6 596.5,85.9 597.1,86.1 597.7,85.8 598.3,86.6 598.9,87.3 599.5,88.0 600.0,88.1 600.6,88.6 601.2,89.4 601.8,90.2 602.4,92.3 603.0,93.5 603.6,93.8 604.2,95.6 604.8,96.1 605.4,97.5 606.0,99.5 606.6,100.0 607.2,102.0 607.8,104.1 608.4,104.4 609.0,105.1 609.5,105.6 610.1,107.6 610.7,109.6 611.3,110.4 611.9,111.6 612.5,111.7 613.1,112.9 613.7,113.7 614.3,114.7 614.9,117.4 615.5,117.8 616.1,118.9 616.7,119.0 617.3,119.0 617.9,121.1 618.5,121.7 619.1,122.0 619.6,121.6 620.2,123.1 620.8,124.2 621.4,123.7 622.0,123.5 622.6,124.0 623.2,124.7 623.8,125.4 624.4,126.1 625.0,125.2 625.6,125.6 626.2,126.7 626.8,127.3 627.4,128.8 628.0,128.5 628.6,127.9 629.1,127.7 629.7,127.7 630.3,127.8 630.9,127.1 631.5,126.2 632.1,125.9 632.7,125.2 633.3,124.9 633.9,125.1 634.5,125.1 635.1,125.4 635.7,125.8 636.3,124.9 636.9,124.9 637.5,124.3 638.1,124.5 638.7,124.1 639.2,123.3 639.8,123.1 640.4,123.0 641.0,123.3 641.6,123.1 642.2,122.7 642.8,123.1 643.4,122.5 644.0,122.8"></path>
    <path class="data-series" stroke="#0060e5" d="M50.6,251.8 51.2,251.8 51.8,251.6 52.4,251.4 53.0,251.4 53.6,252.0 54.2,251.9 54.8,251.8 55.3,251.6 55.9,251.4 56.5,252.5 57.1,252.4 57.7,252.3 58.3,252.4 58.9,252.2 59.5,252.7 60.1,252.7 60.7,252.5 61.3,252.8 61.9,253.0 62.5,253.4 63.1,253.4 63.7,253.5 64.3,253.5 64.8,253.4 65.4,253.5 66.0,253.5 66.6,253.4 67.2,253.7 67.8,253.8 68.4,254.2 69.0,254.2 69.6,254.2 70.2,254.5 70.8,254.5 71.4,254.5 72.0,254.5 72.6,254.4 73.2,254.5 73.8,254.8 74.4,254.9 74.9,254.8 75.5,254.9 76.1,254.9 76.7,254.9 77.3,254.8 77.9,254.5 78.5,254.5 79.1,254.7 79.7,254.7 80.3,254.5 80.9,254.3 81.5,254.3 82.1,254.0 82.7,254.2 83.3,254.2 83.9,253.9 84.5,253.9 85.0,254.0 85.6,253.5 86.2,253.5 86.8,253.5 87.4,253.7 88.0,253.8 88.6,253.8 89.2,253.8 89.8,253.8 90.4,253.9 91.0,253.9 91.6,253.8 92.2,253.8 92.8,253.9 93.4,253.8 94.0,253.7 94.5,253.7 95.1,253.8 95.7,253.5 96.3,253.8 96.9,253.9 97.5,253.9 98.1,253.9 98.7,253.9 99.3,253.7 99.9,253.9 100.5,253.9 101.1,253.8 101.7,253.7 102.3,253.9 102.9,254.2 103.5,254.2 104.1,254.2 104.6,254.2 105.2,253.9 105.8,253.8 106.4,254.0 107.0,253.9 107.6,253.5 108.2,253.5 108.8,253.3 109.4,253.0 110.0,252.7 110.6,252.2 111.2,252.3 111.8,252.2 112.4,252.0 113.0,251.7 113.6,251.3 114.2,251.4 114.7,251.3 115.3,251.3 115.9,251.4 116.5,251.1 117.1,250.9 117.7,250.6 118.3,250.1 118.9,249.8 119.5,249.7 120.1,249.6 120.7,249.2 121.3,248.7 121.9,248.1 122.5,248.0 123.1,247.6 123.7,247.6 124.2,247.6 124.8,248.0 125.4,248.1 126.0,247.8 126.6,247.5 127.2,247.6 127.8,247.8 128.4,248.1 129.0,248.2 129.6,248.1 130.2,248.3 130.8,247.8 131.4,248.0 132.0,248.6 132.6,249.1 133.2,248.7 133.8,248.8 134.3,248.7 134.9,248.1 135.5,247.7 136.1,248.3 136.7,248.1 137.3,248.1 137.9,247.6 138.5,247.5 139.1,247.2 139.7,246.6 140.3,246.8 140.9,246.2 141.5,245.7 142.1,245.8 142.7,245.7 143.3,245.6 143.9,245.8 144.4,245.7 145.0,245.5 145.6,245.2 146.2,245.4 146.8,245.4 147.4,245.7 148.0,245.8 148.6,245.7 149.2,245.4 149.8,245.0 150.4,244.6 151.0,244.1 151.6,243.9 152.2,244.0 152.8,244.2 153.4,244.4 153.9,244.2 154.5,244.4 155.1,244.2 155.7,243.6 156.3,242.9 156.9,243.7 157.5,244.0 158.1,243.7 158.7,243.9 159.3,243.7 159.9,243.9 160.5,243.9 161.1,244.1 161.7,243.9 162.3,244.1 162.9,244.5 163.5,244.4 164.0,245.1 164.6,245.0 165.2,245.8 165.8,246.0 166.4,246.5 167.0,247.0 167.6,248.0 168.2,248.7 168.8,248.8 169.4,249.1 170.0,249.3 170.6,249.2 171.2,248.9 171.8,249.6 172.4,249.4 173.0,249.6 173.6,249.4 174.1,249.7 174.7,250.1 175.3,250.2 175.9,250.2 176.5,250.4 177.1,250.9 177.7,251.3 178.3,251.2 178.9,251.1 179.5,251.2 180.1,251.3 180.7,251.7 181.3,251.8 181.9,251.8 182.5,252.0 183.1,252.0 183.7,251.9 184.2,251.8 184.8,251.8 185.4,252.0 186.0,252.0 186.6,252.2 187.2,252.2 187.8,252.0 188.4,252.3 189.0,252.4 189.6,252.5 190.2,252.8 190.8,252.9 191.4,252.9 192.0,253.2 192.6,253.0 193.2,253.2 193.7,253.3 194.3,253.4 194.9,253.3 195.5,253.7 196.1,253.9 196.7,254.2 197.3,254.2 197.9,254.3 198.5,254.4 199.1,254.9 199.7,255.3 200.3,255.4 200.9,255.5 201.5,255.5 202.1,255.3 202.7,255.4 203.3,255.4 203.8,255.5 204.4,255.5 205.0,255.5 205.6,255.4 206.2,255.6 206.8,255.8 207.4,255.8 208.0,255.6 208.6,255.4 209.2,255.4 209.8,255.4 210.4,255.4 211.0,255.5 211.6,255.5 212.2,255.6 212.8,255.4 213.3,255.4 213.9,255.5 214.5,255.6 215.1,255.9 215.7,255.9 216.3,255.9 216.9,255.8 217.5,255.8 218.1,255.9 218.7,256.0 219.3,256.0 219.9,256.0 220.5,256.0 221.1,256.1 221.7,255.8 222.3,255.9 222.9,255.9 223.4,255.9 224.0,255.9 224.6,255.9 225.2,255.5 225.8,255.8 226.4,255.8 227.0,255.8 227.6,255.8 228.2,255.8 228.8,255.9 229.4,255.6 230.0,255.6 230.6,255.6 231.2,255.6 231.8,255.6 232.4,255.5 233.0,255.4 233.5,255.4 234.1,255.1 234.7,255.1 235.3,255.0 235.9,254.9 236.5,254.8 237.1,254.8 237.7,254.8 238.3,254.8 238.9,254.8 239.5,254.8 240.1,254.7 240.7,254.7 241.3,254.5 241.9,254.8 242.5,254.7 243.1,254.8 243.6,254.7 244.2,254.8 244.8,254.9 245.4,254.7 246.0,254.7 246.6,254.7 247.2,254.4 247.8,254.5 248.4,254.4 249.0,254.7 249.6,254.7 250.2,254.3 250.8,254.2 251.4,254.2 252.0,253.8 252.6,253.9 253.1,253.9 253.7,254.0 254.3,253.9 254.9,253.9 255.5,254.0 256.1,254.0 256.7,253.9 257.3,253.9 257.9,254.2 258.5,253.9 259.1,254.0 259.7,254.0 260.3,253.7 260.9,253.4 261.5,253.5 262.1,253.5 262.7,253.3 263.2,253.3 263.8,253.0 264.4,253.2 265.0,253.0 265.6,252.7 266.2,252.4 266.8,252.2 267.4,251.4 268.0,251.6 268.6,251.2 269.2,250.8 269.8,250.4 270.4,250.2 271.0,250.1 271.6,249.4 272.2,249.6 272.8,249.7 273.3,249.3 273.9,248.9 274.5,248.9 275.1,249.3 275.7,249.2 276.3,249.2 276.9,248.9 277.5,249.1 278.1,249.1 278.7,248.8 279.3,248.8 279.9,248.9 280.5,249.1 281.1,248.9 281.7,248.7 282.3,248.6 282.8,248.6 283.4,248.2 284.0,248.1 284.6,248.1 285.2,247.5 285.8,247.1 286.4,247.1 287.0,247.1 287.6,247.0 288.2,246.3 288.8,246.5 289.4,246.3 290.0,247.0 290.6,246.6 291.2,246.7 291.8,246.6 292.4,246.8 292.9,246.8 293.5,247.0 294.1,247.0 294.7,247.5 295.3,247.6 295.9,247.6 296.5,248.0 297.1,248.0 297.7,248.2 298.3,248.2 298.9,248.1 299.5,247.8 300.1,247.6 300.7,247.8 301.3,246.8 301.9,246.3 302.4,246.2 303.0,246.2 303.6,246.1 304.2,245.4 304.8,245.5 305.4,245.4 306.0,245.6 306.6,245.4 307.2,245.4 307.8,245.6 308.4,245.4 309.0,245.2 309.6,245.2 310.2,245.1 310.8,245.2 311.4,245.4 312.0,245.0 312.5,244.7 313.1,244.9 313.7,245.0 314.3,244.9 314.9,244.4 315.5,244.6 316.1,244.5 316.7,244.5 317.3,244.9 317.9,244.4 318.5,244.7 319.1,244.9 319.7,244.9 320.3,244.9 320.9,245.4 321.5,246.1 322.1,245.8 322.6,245.6 323.2,246.5 323.8,246.7 324.4,246.8 325.0,247.2 325.6,247.0 326.2,247.1 326.8,247.1 327.4,247.2 328.0,247.6 328.6,247.8 329.2,247.8 329.8,248.2 330.4,248.3 331.0,249.1 331.6,249.1 332.1,249.2 332.7,249.6 333.3,249.7 333.9,249.3 334.5,249.8 335.1,249.8 335.7,250.2 336.3,250.4 336.9,250.8 337.5,251.1 338.1,251.1 338.7,251.1 339.3,251.1 339.9,251.2 340.5,251.2 341.1,251.6 341.7,251.8 342.2,252.0 342.8,252.2 343.4,252.4 344.0,252.3 344.6,252.8 345.2,253.3 345.8,253.4 346.4,253.4 347.0,253.5 347.6,253.7 348.2,253.8 348.8,253.8 349.4,253.5 350.0,253.5 350.6,253.4 351.2,253.4 351.8,253.4 352.3,253.4 352.9,253.4 353.5,253.4 354.1,253.4 354.7,253.4 355.3,253.9 355.9,253.8 356.5,253.5 357.1,253.4 357.7,253.8 358.3,253.9 358.9,254.2 359.5,254.4 360.1,254.4 360.7,254.3 361.3,254.0 361.9,253.9 362.4,254.3 363.0,254.4 363.6,254.4 364.2,254.3 364.8,254.0 365.4,254.2 366.0,253.9 366.6,254.2 367.2,254.4 367.8,254.4 368.4,254.2 369.0,254.3 369.6,254.2 370.2,254.3 370.8,254.5 371.4,254.7 371.9,254.7 372.5,254.7 373.1,254.7 373.7,254.7 374.3,254.7 374.9,254.5 375.5,254.4 376.1,254.5 376.7,254.5 377.3,254.5 377.9,254.8 378.5,254.8 379.1,254.7 379.7,254.5 380.3,254.5 380.9,254.3 381.5,254.0 382.0,254.2 382.6,253.8 383.2,253.4 383.8,253.5 384.4,253.4 385.0,253.4 385.6,253.4 386.2,253.4 386.8,253.5 387.4,253.4 388.0,253.3 388.6,253.2 389.2,253.0 389.8,253.2 390.4,253.0 391.0,253.0 391.6,252.9 392.1,253.0 392.7,252.8 393.3,252.4 393.9,252.5 394.5,252.5 395.1,252.5 395.7,252.3 396.3,252.3 396.9,252.3 397.5,252.0 398.1,251.9 398.7,252.0 399.3,252.0 399.9,252.4 400.5,252.4 401.1,252.4 401.6,252.5 402.2,252.8 402.8,252.9 403.4,253.0 404.0,252.9 404.6,253.2 405.2,253.5 405.8,253.8 406.4,253.8 407.0,253.7 407.6,253.7 408.2,253.8 408.8,253.9 409.4,254.2 410.0,254.3 410.6,254.5 411.2,254.2 411.7,254.0 412.3,253.8 412.9,253.7 413.5,253.7 414.1,253.5 414.7,253.4 415.3,253.4 415.9,253.3 416.5,253.3 417.1,253.5 417.7,253.7 418.3,253.4 418.9,253.5 419.5,252.9 420.1,252.9 420.7,252.9 421.2,253.2 421.8,252.9 422.4,252.8 423.0,253.0 423.6,252.9 424.2,253.4 424.8,253.5 425.4,253.5 426.0,253.5 426.6,253.4 427.2,253.4 427.8,253.7 428.4,253.4 429.0,253.4 429.6,253.0 430.2,252.9 430.8,253.0 431.3,253.3 431.9,253.4 432.5,252.7 433.1,252.5 433.7,252.2 434.3,251.4 434.9,251.4 435.5,251.7 436.1,251.7 436.7,252.0 437.3,251.7 437.9,251.3 438.5,251.1 439.1,250.3 439.7,249.8 440.3,249.4 440.9,249.4 441.4,249.2 442.0,249.2 442.6,249.3 443.2,248.9 443.8,249.1 444.4,248.8 445.0,248.6 445.6,248.3 446.2,247.8 446.8,247.7 447.4,247.7 448.0,247.5 448.6,247.3 449.2,247.3 449.8,246.7 450.4,246.5 450.9,246.3 451.5,246.1 452.1,245.6 452.7,246.0 453.3,245.8 453.9,246.1 454.5,246.0 455.1,245.7 455.7,246.1 456.3,246.1 456.9,246.1 457.5,246.0 458.1,245.8 458.7,246.0 459.3,245.8 459.9,246.1 460.5,246.1 461.0,246.5 461.6,246.6 462.2,246.6 462.8,246.3 463.4,245.8 464.0,246.0 464.6,245.4 465.2,245.2 465.8,245.1 466.4,245.0 467.0,244.5 467.6,244.6 468.2,244.6 468.8,245.1 469.4,244.7 470.0,244.6 470.6,245.1 471.1,245.4 471.7,245.5 472.3,245.0 472.9,245.2 473.5,245.1 474.1,245.2 474.7,245.2 475.3,245.4 475.9,245.6 476.5,245.7 477.1,245.4 477.7,245.4 478.3,245.2 478.9,245.4 479.5,245.6 480.1,245.7 480.6,245.7 481.2,246.2 481.8,246.2 482.4,246.3 483.0,246.2 483.6,246.7 484.2,246.7 484.8,246.8 485.4,246.8 486.0,247.1 486.6,247.6 487.2,247.6 487.8,247.8 488.4,247.6 489.0,247.8 489.6,247.8 490.2,248.1 490.7,248.5 491.3,248.8 491.9,249.6 492.5,250.2 493.1,250.4 493.7,250.9 494.3,250.9 494.9,251.7 495.5,252.0 496.1,252.8 496.7,253.2 497.3,253.4 497.9,254.2 498.5,254.4 499.1,254.7 499.7,254.7 500.3,254.9 500.8,255.0 501.4,254.9 502.0,255.0 502.6,254.9 503.2,254.8 503.8,254.8 504.4,254.5 505.0,254.4 505.6,254.3 506.2,254.4 506.8,254.7 507.4,254.7 508.0,254.5 508.6,254.5 509.2,254.5 509.8,254.5 510.4,254.5 510.9,254.4 511.5,254.7 512.1,254.7 512.7,254.5 513.3,254.7 513.9,254.5 514.5,254.7 515.1,254.5 515.7,254.8 516.3,254.7 516.9,254.4 517.5,254.4 518.1,254.4 518.7,254.4 519.3,254.3 519.9,254.5 520.4,254.7 521.0,254.7 521.6,254.7 522.2,254.5 522.8,254.5 523.4,254.4 524.0,254.0 524.6,254.0 525.2,254.0 525.8,254.2 526.4,254.0 527.0,253.9 527.6,254.0 528.2,254.2 528.8,254.2 529.4,254.4 530.0,254.2 530.5,253.9 531.1,253.9 531.7,253.7 532.3,253.8 532.9,253.5 533.5,253.7 534.1,253.7 534.7,253.7 535.3,253.7 535.9,253.5 536.5,253.7 537.1,253.9 537.7,254.0 538.3,253.9 538.9,253.8 539.5,253.8 540.0,253.5 540.6,253.5 541.2,253.8 541.8,253.8 542.4,253.7 543.0,253.8 543.6,253.7 544.2,253.7 544.8,253.7 545.4,253.9 546.0,254.3 546.6,254.5 547.2,254.8 547.8,254.9 548.4,255.0 549.0,254.4 549.6,253.9 550.1,253.9 550.7,253.5 551.3,253.4 551.9,253.2 552.5,253.2 553.1,253.3 553.7,253.2 554.3,253.2 554.9,252.9 555.5,252.8 556.1,253.0 556.7,252.9 557.3,252.8 557.9,252.8 558.5,252.8 559.1,252.9 559.7,253.0 560.2,252.3 560.8,252.0 561.4,252.2 562.0,252.2 562.6,252.0 563.2,251.8 563.8,251.8 564.4,251.4 565.0,251.2 565.6,251.2 566.2,251.3 566.8,251.6 567.4,251.3 568.0,251.3 568.6,251.1 569.2,250.8 569.8,250.7 570.3,250.6 570.9,250.2 571.5,250.2 572.1,250.2 572.7,250.7 573.3,250.6 573.9,250.3 574.5,250.4 575.1,249.9 575.7,250.1 576.3,249.8 576.9,249.7 577.5,249.9 578.1,249.8 578.7,249.4 579.3,249.4 579.8,249.2 580.4,249.4 581.0,249.3 581.6,249.3 582.2,249.3 582.8,249.3 583.4,249.3 584.0,249.7 584.6,250.1 585.2,250.1 585.8,250.2 586.4,250.3 587.0,250.2 587.6,250.1 588.2,249.7 588.8,249.6 589.4,249.7 589.9,249.7 590.5,249.9 591.1,250.1 591.7,249.9 592.3,249.9 592.9,249.8 593.5,250.2 594.1,249.9 594.7,250.4 595.3,250.1 595.9,249.8 596.5,249.7 597.1,249.7 597.7,249.4 598.3,249.2 598.9,249.2 599.5,249.1 600.0,248.9 600.6,248.9 601.2,248.8 601.8,248.8 602.4,248.3 603.0,247.6 603.6,247.6 604.2,247.2 604.8,247.0 605.4,246.8 606.0,246.2 606.6,246.3 607.2,246.3 607.8,245.6 608.4,245.5 609.0,245.2 609.5,245.1 610.1,245.0 610.7,244.7 611.3,244.9 611.9,245.1 612.5,245.4 613.1,245.0 613.7,245.0 614.3,245.6 614.9,245.7 615.5,244.7 616.1,245.2 616.7,245.4 617.3,246.2 617.9,246.3 618.5,246.5 619.1,246.3 619.6,247.6 620.2,247.3 620.8,247.3 621.4,247.5 622.0,247.7 622.6,247.8 623.2,247.6 623.8,247.7 624.4,248.1 625.0,248.2 625.6,248.6 626.2,248.8 626.8,248.9 627.4,248.9 628.0,249.3 628.6,249.2 629.1,249.6 629.7,249.7 630.3,249.9 630.9,250.2 631.5,250.6 632.1,251.1 632.7,250.8 633.3,251.1 633.9,251.4 634.5,251.6 635.1,251.8 635.7,252.0 636.3,252.2 636.9,252.7 637.5,252.7 638.1,252.5 638.7,252.8 639.2,252.4 639.8,252.7 640.4,252.5 641.0,252.7 641.6,252.8 642.2,252.9 642.8,252.9 643.4,253.0 644.0,253.0"></path>
    <text text-anchor="end" fill="green" x="640" y="105">Food</text>
    <text text-anchor="end" fill="#0060e5" x="640" y="208">Creatures</text>
</svg>