<svg width="720" height="360" xmlns="http://www.w3.org/2000/svg">

<style>
  .background {
    fill: none;
  }
  .axis {
    stroke: #111;
    stroke-width: 1;
  }
  .axis-label {
    text-anchor: middle;
  }
  .axis-units {
    font-size: 10px;
    font-family: Arial;
  }
  .y-axis-text {
    text-anchor: end;
  }
  .x-axis-text {
    text-anchor: middle;
  }
  .gridlines {
    stroke: black;
    stroke-width: 0.3;
    fill: none;
    opacity: 0.5;
  }
  .series-red {
    color: #ae5d40;
  }
  .series-green {
    color: #4f7754;
  }
  .series-blue {
    color: #433a60;
  }
  .data-series {
    fill: none;
    opacity: 0.9;
    stroke: currentColor;
    stroke-width: 2;
  }
  </style>

    <text class="axis-label" x="377.5" y="345">Time (1000 ticks)</text>
    <text class="axis-label" x="0" y="162.5" transform="translate(20.0) rotate(-90, 0, 162.5)">Population size</text>
    <line class="axis" x1="55" y1="310" x2="701" y2="310"></line>
    <line class="axis" x1="55" y1="310" x2="55" y2="15"></line>
    <g class="axis-units">
        <g class="x-axis-text">
            <text x="55.0" y="322">0</text>
            <text x="119.5" y="322">10</text>
            <text x="184.0" y="322">20</text>
            <text x="248.5" y="322">30</text>
            <text x="313.0" y="322">40</text>
            <text x="377.5" y="322">50</text>
            <text x="442.0" y="322">60</text>
            <text x="506.5" y="322">70</text>
            <text x="571.0" y="322">80</text>
            <text x="635.5" y="322">90</text>
            <text x="700.0" y="322">100</text>
        </g>
        <g class="y-axis-text">
            <text x="52" y="313.0">0</text>
            <text x="52" y="283.5">50</text>
            <text x="52" y="254.0">100</text>
            <text x="52" y="224.5">150</text>
            <text x="52" y="195.0">200</text>
            <text x="52" y="165.5">250</text>
            <text x="52" y="136.0">300</text>
            <text x="52" y="106.5">350</text>
            <text x="52" y="77.0">400</text>
            <text x="52" y="47.5">450</text>
            <text x="52" y="18.0">500</text>
        </g>
    </g>
    <g class="gridlines">
        <line x1="119.5" y1="310" x2="119.5" y2="15"></line>
        <line x1="184.5" y1="310" x2="184.5" y2="15"></line>
        <line x1="248.5" y1="310" x2="248.5" y2="15"></line>
        <line x1="313.5" y1="310" x2="313.5" y2="15"></line>
        <line x1="377.5" y1="310" x2="377.5" y2="15"></line>
        <line x1="442.5" y1="310" x2="442.5" y2="15"></line>
        <line x1="506.5" y1="310" x2="506.5" y2="15"></line>
        <line x1="571.5" y1="310" x2="571.5" y2="15"></line>
        <line x1="635.5" y1="310" x2="635.5" y2="15"></line>
        <line x1="700.5" y1="310" x2="700.5" y2="15"></line>
        <line x1="55" y1="280.5" x2="700" y2="280.5"></line>
        <line x1="55" y1="251.5" x2="700" y2="251.5"></line>
        <line x1="55" y1="221.5" x2="700" y2="221.5"></line>
        <line x1="55" y1="192.5" x2="700" y2="192.5"></line>
        <line x1="55" y1="162.5" x2="700" y2="162.5"></line>
        <line x1="55" y1="133.5" x2="700" y2="133.5"></line>
        <line x1="55" y1="103.5" x2="700" y2="103.5"></line>
        <line x1="55" y1="74.5" x2="700" y2="74.5"></line>
        <line x1="55" y1="44.5" x2="700" y2="44.5"></line>
        <line x1="55" y1="15.5" x2="700" y2="15.5"></line>
    </g>
    <path class="data-series series-green" d="M55.0,125.9 55.6,123.0 56.3,125.9 56.9,128.3 57.6,132.4 58.2,130.6 58.9,125.9 59.5,127.1 60.2,122.4 60.8,123.0 61.5,124.2 62.1,127.1 62.7,127.1 63.4,127.1 64.0,133.6 64.7,133.0 65.3,135.4 66.0,138.3 66.6,140.1 67.3,140.1 67.9,138.9 68.5,143.0 69.2,140.7 69.8,144.8 70.5,147.8 71.1,151.3 71.8,153.7 72.4,153.7 73.1,158.4 73.7,161.3 74.3,166.0 75.0,167.2 75.6,165.5 76.3,164.3 76.9,164.9 77.6,166.0 78.2,167.2 78.9,164.9 79.5,164.3 80.2,154.2 80.8,150.7 81.4,148.3 82.1,145.4 82.7,142.4 83.4,134.2 84.0,127.7 84.7,125.9 85.3,124.2 86.0,121.2 86.6,117.7 87.2,114.7 87.9,115.9 88.5,114.7 89.2,108.8 89.8,109.4 90.5,105.9 91.1,103.5 91.8,101.7 92.4,102.9 93.1,107.0 93.7,104.1 94.3,101.1 95.0,105.9 95.6,107.6 96.3,104.7 96.9,106.5 97.6,105.9 98.2,110.6 98.9,115.9 99.5,114.7 100.2,114.7 100.8,114.1 101.4,112.9 102.1,112.9 102.7,111.8 103.4,111.2 104.0,113.5 104.7,111.2 105.3,110.6 106.0,112.4 106.6,112.9 107.2,110.6 107.9,115.3 108.5,113.5 109.2,111.2 109.8,107.6 110.5,108.2 111.1,108.2 111.8,110.6 112.4,107.6 113.0,104.1 113.7,105.3 114.3,104.1 115.0,105.3 115.6,104.1 116.3,104.7 116.9,108.2 117.6,105.3 118.2,108.2 118.9,107.6 119.5,110.6 120.1,112.9 120.8,116.5 121.4,117.1 122.1,119.4 122.7,120.6 123.4,129.5 124.0,134.2 124.7,137.7 125.3,140.7 126.0,144.2 126.6,147.2 127.2,141.3 127.9,142.4 128.5,144.2 129.2,143.6 129.8,144.2 130.5,145.4 131.1,139.5 131.8,140.1 132.4,140.1 133.0,136.5 133.7,141.3 134.3,138.3 135.0,140.7 135.6,141.9 136.3,146.6 136.9,144.8 137.6,144.2 138.2,140.1 138.8,141.9 139.5,140.1 140.1,145.4 140.8,148.9 141.4,147.8 142.1,151.3 142.7,153.1 143.4,147.8 144.0,147.2 144.7,145.4 145.3,142.4 145.9,140.7 146.6,141.3 147.2,142.4 147.9,137.7 148.5,140.7 149.2,145.4 149.8,143.6 150.5,137.7 151.1,133.6 151.8,131.8 152.4,134.2 153.0,129.5 153.7,130.1 154.3,124.7 155.0,119.4 155.6,121.2 156.3,120.0 156.9,117.1 157.6,120.6 158.2,118.8 158.8,115.9 159.5,118.8 160.1,120.0 160.8,121.2 161.4,124.2 162.1,127.1 162.7,123.0 163.4,124.7 164.0,127.1 164.7,131.8 165.3,135.4 165.9,137.1 166.6,141.3 167.2,146.0 167.9,148.3 168.5,149.5 169.2,149.5 169.8,150.1 170.5,148.3 171.1,146.0 171.7,144.2 172.4,145.4 173.0,147.8 173.7,144.8 174.3,143.0 175.0,141.3 175.6,141.3 176.3,142.4 176.9,139.5 177.6,146.0 178.2,151.3 178.8,153.1 179.5,154.2 180.1,151.9 180.8,153.7 181.4,154.2 182.1,151.9 182.7,150.7 183.4,141.9 184.0,141.3 184.6,140.7 185.3,138.3 185.9,138.9 186.6,138.3 187.2,136.5 187.9,134.8 188.5,128.9 189.2,127.1 189.8,128.3 190.4,121.2 191.1,116.5 191.7,115.3 192.4,112.9 193.0,106.5 193.7,104.1 194.3,99.4 195.0,95.8 195.6,94.1 196.3,93.5 196.9,91.7 197.5,86.4 198.2,84.0 198.8,78.1 199.5,76.4 200.1,75.8 200.8,76.4 201.4,77.0 202.1,83.4 202.7,81.1 203.3,83.4 204.0,83.4 204.6,82.9 205.3,84.0 205.9,84.0 206.6,85.8 207.2,87.6 207.9,94.1 208.5,97.0 209.2,97.0 209.8,103.5 210.4,105.3 211.1,110.6 211.7,115.3 212.4,116.5 213.0,117.1 213.7,121.2 214.3,123.0 215.0,120.0 215.6,120.6 216.2,120.6 216.9,125.9 217.5,125.3 218.2,120.6 218.8,121.2 219.5,123.0 220.1,121.8 220.8,121.2 221.4,115.9 222.1,108.8 222.7,108.2 223.3,111.8 224.0,115.3 224.6,113.5 225.3,115.3 225.9,112.9 226.6,104.1 227.2,103.5 227.9,105.9 228.5,107.0 229.2,110.6 229.8,111.8 230.4,111.8 231.1,115.3 231.7,114.7 232.4,110.6 233.0,117.7 233.7,118.8 234.3,117.1 235.0,118.2 235.6,111.8 236.2,115.3 236.9,115.3 237.5,117.1 238.2,117.1 238.8,117.1 239.5,115.3 240.1,114.7 240.8,113.5 241.4,116.5 242.1,116.5 242.7,118.2 243.3,117.1 244.0,121.8 244.6,120.6 245.3,119.4 245.9,115.9 246.6,113.5 247.2,112.9 247.9,110.0 248.5,112.9 249.1,115.3 249.8,116.5 250.4,117.7 251.1,121.2 251.7,124.2 252.4,121.2 253.0,121.2 253.7,118.2 254.3,114.7 254.9,112.4 255.6,110.0 256.2,108.8 256.9,108.8 257.5,104.7 258.2,103.5 258.8,104.7 259.5,104.7 260.1,101.1 260.8,100.0 261.4,98.8 262.0,98.8 262.7,100.6 263.3,100.0 264.0,96.4 264.6,95.8 265.3,92.9 265.9,92.9 266.6,98.8 267.2,103.5 267.9,103.5 268.5,103.5 269.1,104.7 269.8,104.7 270.4,109.4 271.1,114.1 271.7,118.2 272.4,118.2 273.0,127.1 273.7,133.0 274.3,140.7 274.9,146.0 275.6,150.7 276.2,151.9 276.9,155.4 277.5,160.7 278.2,163.7 278.8,163.7 279.5,166.6 280.1,173.1 280.8,171.3 281.4,170.2 282.0,168.4 282.7,164.9 283.3,164.3 284.0,156.6 284.6,154.8 285.3,156.0 285.9,153.1 286.6,148.9 287.2,146.0 287.8,142.4 288.5,139.5 289.1,136.5 289.8,135.4 290.4,132.4 291.1,124.7 291.7,123.0 292.4,121.8 293.0,121.2 293.6,121.8 294.3,118.2 294.9,112.4 295.6,113.5 296.2,108.8 296.9,109.4 297.5,106.5 298.2,107.6 298.8,108.8 299.5,109.4 300.1,105.9 300.7,106.5 301.4,104.7 302.0,107.6 302.7,114.1 303.3,110.0 304.0,111.8 304.6,109.4 305.3,111.2 305.9,111.2 306.6,108.8 307.2,105.3 307.8,108.2 308.5,112.9 309.1,109.4 309.8,111.2 310.4,112.9 311.1,111.8 311.7,114.7 312.4,116.5 313.0,114.7 313.6,117.7 314.3,115.9 314.9,117.1 315.6,117.7 316.2,117.7 316.9,121.8 317.5,124.7 318.2,128.3 318.8,134.2 319.4,137.7 320.1,139.5 320.7,146.0 321.4,147.8 322.0,151.9 322.7,150.7 323.3,151.3 324.0,150.7 324.6,152.5 325.3,156.6 325.9,153.7 326.5,154.2 327.2,159.0 327.8,161.3 328.5,158.4 329.1,156.6 329.8,154.8 330.4,156.6 331.1,155.4 331.7,154.2 332.4,152.5 333.0,145.4 333.6,144.2 334.3,143.6 334.9,136.0 335.6,131.2 336.2,125.9 336.9,123.0 337.5,124.2 338.2,118.2 338.8,114.7 339.4,115.9 340.1,117.1 340.7,117.1 341.4,122.4 342.0,120.0 342.7,112.4 343.3,114.1 344.0,112.9 344.6,118.2 345.2,118.2 345.9,119.4 346.5,123.0 347.2,126.5 347.8,124.2 348.5,119.4 349.1,121.8 349.8,123.0 350.4,122.4 351.1,120.0 351.7,121.2 352.3,120.0 353.0,124.7 353.6,130.6 354.3,134.2 354.9,136.5 355.6,139.5 356.2,136.0 356.9,137.7 357.5,133.6 358.1,134.8 358.8,135.4 359.4,136.0 360.1,136.5 360.7,135.4 361.4,136.5 362.0,138.3 362.7,131.8 363.3,133.6 364.0,128.9 364.6,127.7 365.2,126.5 365.9,125.9 366.5,118.8 367.2,116.5 367.8,114.1 368.5,113.5 369.1,110.6 369.8,110.0 370.4,104.7 371.1,100.6 371.7,95.8 372.3,95.2 373.0,90.5 373.6,87.6 374.3,79.9 374.9,80.5 375.6,78.7 376.2,77.0 376.9,79.9 377.5,82.9 378.1,79.3 378.8,79.9 379.4,85.8 380.1,81.1 380.7,87.0 381.4,87.0 382.0,88.2 382.7,92.9 383.3,98.8 383.9,106.5 384.6,110.6 385.2,115.3 385.9,127.1 386.5,132.4 387.2,133.6 387.8,136.5 388.5,142.4 389.1,148.9 389.8,149.5 390.4,157.2 391.0,163.1 391.7,164.3 392.3,163.1 393.0,171.3 393.6,174.9 394.3,172.5 394.9,167.8 395.6,166.6 396.2,159.0 396.9,159.6 397.5,159.6 398.1,154.2 398.8,150.1 399.4,146.0 400.1,145.4 400.7,143.0 401.4,139.5 402.0,137.1 402.7,136.5 403.3,134.8 403.9,133.6 404.6,133.0 405.2,133.6 405.9,134.8 406.5,134.2 407.2,137.1 407.8,132.4 408.5,130.1 409.1,130.6 409.8,131.8 410.4,127.7 411.0,129.5 411.7,127.7 412.3,133.6 413.0,134.2 413.6,132.4 414.3,131.2 414.9,135.4 415.6,136.0 416.2,133.6 416.8,132.4 417.5,133.0 418.1,128.3 418.8,127.7 419.4,125.9 420.1,125.3 420.7,122.4 421.4,116.5 422.0,115.9 422.6,117.7 423.3,123.0 423.9,123.6 424.6,124.7 425.2,125.9 425.9,121.8 426.5,125.3 427.2,123.6 427.8,123.6 428.5,123.6 429.1,124.2 429.7,125.3 430.4,124.2 431.0,121.8 431.7,116.5 432.3,117.1 433.0,111.2 433.6,112.9 434.3,115.9 434.9,117.1 435.6,117.1 436.2,114.1 436.8,116.5 437.5,115.3 438.1,111.2 438.8,111.2 439.4,106.5 440.1,102.9 440.7,105.9 441.4,105.9 442.0,107.6 442.6,105.9 443.3,101.7 443.9,103.5 444.6,100.6 445.2,99.4 445.9,96.4 446.5,95.8 447.2,94.1 447.8,87.0 448.4,88.8 449.1,88.8 449.7,92.3 450.4,93.5 451.0,94.7 451.7,98.2 452.3,97.6 453.0,100.6 453.6,100.0 454.3,100.0 454.9,101.7 455.5,101.1 456.2,105.3 456.8,104.7 457.5,107.0 458.1,113.5 458.8,116.5 459.4,112.9 460.1,107.0 460.7,110.6 461.4,113.5 462.0,117.1 462.6,117.1 463.3,123.0 463.9,124.7 464.6,131.2 465.2,134.2 465.9,137.7 466.5,138.3 467.2,140.1 467.8,137.1 468.4,141.3 469.1,138.9 469.7,137.7 470.4,136.5 471.0,137.7 471.7,135.4 472.3,134.8 473.0,140.7 473.6,139.5 474.2,138.3 474.9,138.3 475.5,135.4 476.2,132.4 476.8,127.7 477.5,125.9 478.1,123.6 478.8,123.0 479.4,115.9 480.1,112.4 480.7,111.8 481.3,105.3 482.0,100.6 482.6,96.4 483.3,92.3 483.9,88.8 484.6,87.0 485.2,85.8 485.9,81.7 486.5,77.5 487.1,75.2 487.8,76.4 488.4,78.1 489.1,78.1 489.7,78.7 490.4,78.1 491.0,77.0 491.7,73.4 492.3,73.4 493.0,74.0 493.6,78.7 494.2,83.4 494.9,87.0 495.5,94.7 496.2,98.2 496.8,104.1 497.5,110.6 498.1,116.5 498.8,123.6 499.4,130.1 500.1,123.0 500.7,123.6 501.3,124.2 502.0,128.3 502.6,134.2 503.3,137.7 503.9,141.9 504.6,147.2 505.2,154.2 505.9,158.4 506.5,161.3 507.1,168.4 507.8,167.8 508.4,173.7 509.1,174.3 509.7,176.1 510.4,177.2 511.0,177.8 511.7,180.8 512.3,180.8 513.0,182.6 513.6,179.0 514.2,174.9 514.9,170.8 515.5,170.2 516.2,169.6 516.8,168.4 517.5,171.9 518.1,164.9 518.8,160.7 519.4,159.6 520.0,151.9 520.7,144.8 521.3,140.1 522.0,137.1 522.6,132.4 523.3,130.6 523.9,125.3 524.6,124.7 525.2,118.8 525.9,115.3 526.5,112.4 527.1,110.0 527.8,105.3 528.4,100.6 529.1,98.8 529.7,95.2 530.4,93.5 531.0,93.5 531.7,94.1 532.3,90.5 532.9,88.2 533.6,81.7 534.2,79.9 534.9,77.0 535.5,68.7 536.2,60.4 536.8,55.7 537.5,51.0 538.1,46.3 538.8,40.4 539.4,35.7 540.0,31.5 540.7,30.9 541.3,28.6 542.0,22.1 542.6,19.7 543.3,18.5 543.9,24.4 544.6,26.2 545.2,25.0 545.8,30.3 546.5,34.5 547.1,39.2 547.8,42.7 548.4,48.0 549.1,60.4 549.7,70.5 550.4,83.4 551.0,93.5 551.6,103.5 552.3,111.8 552.9,120.6 553.6,128.9 554.2,135.4 554.9,144.2 555.5,152.5 556.2,158.4 556.8,167.2 557.5,175.5 558.1,185.5 558.7,191.4 559.4,190.8 560.0,194.9 560.7,197.9 561.3,202.0 562.0,202.6 562.6,203.8 563.3,203.2 563.9,203.2 564.5,197.9 565.2,193.8 565.8,186.1 566.5,184.9 567.1,179.6 567.8,181.4 568.4,174.9 569.1,171.9 569.7,174.3 570.4,169.0 571.0,166.6 571.6,164.3 572.3,157.8 572.9,153.7 573.6,153.1 574.2,148.9 574.9,147.2 575.5,141.3 576.2,136.0 576.8,128.9 577.5,125.9 578.1,121.2 578.7,118.2 579.4,108.8 580.0,105.3 580.7,98.8 581.3,92.9 582.0,87.6 582.6,79.9 583.3,77.0 583.9,67.5 584.5,65.7 585.2,58.1 585.8,52.8 586.5,52.2 587.1,45.7 587.8,39.8 588.4,36.2 589.1,33.3 589.7,30.3 590.4,23.9 591.0,26.2 591.6,24.4 592.3,26.2 592.9,26.8 593.6,30.9 594.2,33.3 594.9,33.3 595.5,38.0 596.2,49.2 596.8,56.9 597.4,65.2 598.1,76.4 598.7,84.6 599.4,93.5 600.0,107.6 600.7,121.8 601.3,138.9 602.0,143.6 602.6,151.9 603.2,161.3 603.9,161.9 604.5,173.7 605.2,171.9 605.8,176.1 606.5,174.3 607.1,173.1 607.8,173.7 608.4,178.4 609.1,179.0 609.7,173.7 610.3,170.2 611.0,164.9 611.6,166.0 612.3,157.8 612.9,153.1 613.6,154.8 614.2,153.1 614.9,148.3 615.5,144.8 616.1,143.6 616.8,138.9 617.4,136.0 618.1,128.9 618.7,127.1 619.4,125.9 620.0,124.7 620.7,121.8 621.3,115.3 622.0,112.9 622.6,101.1 623.2,93.5 623.9,92.9 624.5,94.1 625.2,89.9 625.8,91.1 626.5,88.8 627.1,82.3 627.8,78.1 628.4,74.6 629.0,75.2 629.7,70.5 630.3,69.9 631.0,68.1 631.6,64.6 632.3,62.8 632.9,65.2 633.6,72.2 634.2,73.4 634.9,72.8 635.5,68.7 636.1,73.4 636.8,73.4 637.4,77.0 638.1,81.7 638.7,85.2 639.4,87.6 640.0,88.8 640.7,98.2 641.3,100.6 642.0,104.1 642.6,109.4 643.2,119.4 643.9,124.2 644.5,130.6 645.2,130.6 645.8,133.6 646.5,134.2 647.1,136.0 647.8,137.1 648.4,143.0 649.0,143.0 649.7,144.2 650.3,143.0 651.0,143.0 651.6,146.0 652.3,148.9 652.9,151.3 653.6,150.1 654.2,155.4 654.9,160.1 655.5,155.4 656.1,155.4 656.8,156.6 657.4,153.1 658.1,150.7 658.7,147.2 659.4,140.7 660.0,138.3 660.7,136.0 661.3,127.7 661.9,125.9 662.6,127.7 663.2,126.5 663.9,123.6 664.5,120.6 665.2,118.2 665.8,118.2 666.5,116.5 667.1,116.5 667.8,116.5 668.4,121.8 669.0,121.8 669.7,123.6 670.3,121.8 671.0,118.8 671.6,120.6 672.3,119.4 672.9,121.8 673.6,127.1 674.2,128.3 674.8,136.0 675.5,138.3 676.1,140.7 676.8,138.9 677.4,138.3 678.1,144.2 678.7,144.8 679.4,144.2 680.0,146.6 680.6,148.9 681.3,147.2 681.9,150.1 682.6,147.2 683.2,148.9 683.9,148.3 684.5,148.3 685.2,147.8 685.8,149.5 686.5,144.8 687.1,145.4 687.7,145.4 688.4,141.9 689.0,137.1 689.7,133.6 690.3,135.4 691.0,133.6 691.6,130.6 692.3,127.7 692.9,122.4 693.5,118.8 694.2,116.5 694.8,119.4 695.5,120.6 696.1,115.9 696.8,117.1 697.4,117.1 698.1,120.6 698.7,118.8 699.4,117.7"></path>
    <path class="data-series series-blue" d="M55.0,280.5 55.6,279.3 56.3,275.8 56.9,271.1 57.6,268.1 58.2,266.3 58.9,275.8 59.5,275.2 60.2,274.6 60.8,277.0 61.5,278.1 62.1,277.6 62.7,271.1 63.4,272.2 64.0,268.7 64.7,267.5 65.3,267.5 66.0,269.3 66.6,269.9 67.3,269.9 67.9,271.6 68.5,271.6 69.2,274.0 69.8,271.1 70.5,269.3 71.1,268.1 71.8,268.1 72.4,268.1 73.1,266.3 73.7,266.3 74.3,268.1 75.0,269.3 75.6,271.1 76.3,272.2 76.9,276.4 77.6,275.8 78.2,277.0 78.9,279.9 79.5,283.4 80.2,285.2 80.8,286.4 81.4,286.4 82.1,288.8 82.7,289.4 83.4,289.9 84.0,291.1 84.7,292.3 85.3,292.3 86.0,290.5 86.6,289.9 87.2,290.5 87.9,291.7 88.5,292.3 89.2,292.9 89.8,289.9 90.5,290.5 91.1,289.4 91.8,287.0 92.4,288.2 93.1,287.0 93.7,287.6 94.3,286.4 95.0,283.4 95.6,282.9 96.3,282.9 96.9,280.5 97.6,278.7 98.2,271.6 98.9,270.5 99.5,269.9 100.2,268.1 100.8,268.1 101.4,271.6 102.1,274.6 102.7,273.4 103.4,276.4 104.0,272.8 104.7,274.6 105.3,275.2 106.0,275.8 106.6,277.0 107.2,276.4 107.9,274.0 108.5,275.8 109.2,275.8 109.8,278.1 110.5,278.1 111.1,279.9 111.8,278.1 112.4,279.3 113.0,281.1 113.7,281.1 114.3,281.7 115.0,282.3 115.6,284.0 116.3,284.0 116.9,281.1 117.6,281.7 118.2,280.5 118.9,283.4 119.5,281.1 120.1,278.1 120.8,275.2 121.4,272.8 122.1,269.9 122.7,271.1 123.4,266.9 124.0,266.9 124.7,265.8 125.3,264.6 126.0,262.8 126.6,266.3 127.2,269.3 127.9,270.5 128.5,272.8 129.2,277.0 129.8,275.8 130.5,275.8 131.1,274.6 131.8,277.6 132.4,276.4 133.0,279.9 133.7,277.0 134.3,277.6 135.0,277.0 135.6,277.0 136.3,274.0 136.9,274.0 137.6,274.6 138.2,275.8 138.8,275.8 139.5,274.0 140.1,272.2 140.8,271.1 141.4,271.6 142.1,272.8 142.7,273.4 143.4,274.6 144.0,275.2 144.7,277.0 145.3,279.3 145.9,278.7 146.6,284.0 147.2,284.0 147.9,285.2 148.5,285.2 149.2,285.2 149.8,286.4 150.5,285.8 151.1,284.6 151.8,282.9 152.4,284.0 153.0,285.8 153.7,285.2 154.3,286.4 155.0,289.9 155.6,288.8 156.3,288.2 156.9,287.0 157.6,282.3 158.2,284.0 158.8,285.8 159.5,284.0 160.1,282.9 160.8,279.9 161.4,281.1 162.1,282.3 162.7,281.1 163.4,279.9 164.0,278.1 164.7,276.4 165.3,271.6 165.9,270.5 166.6,271.1 167.2,269.9 167.9,266.9 168.5,268.1 169.2,269.9 169.8,273.4 170.5,272.2 171.1,272.2 171.7,273.4 172.4,272.2 173.0,273.4 173.7,275.2 174.3,275.8 175.0,277.6 175.6,278.7 176.3,277.0 176.9,278.1 177.6,276.4 178.2,273.4 178.8,273.4 179.5,271.1 180.1,271.6 180.8,271.1 181.4,273.4 182.1,273.4 182.7,272.2 183.4,277.0 184.0,281.1 184.6,282.3 185.3,285.8 185.9,286.4 186.6,286.4 187.2,287.0 187.9,288.2 188.5,289.4 189.2,288.2 189.8,289.4 190.4,291.7 191.1,290.5 191.7,291.1 192.4,290.5 193.0,292.3 193.7,292.3 194.3,291.7 195.0,291.1 195.6,294.7 196.3,292.9 196.9,288.8 197.5,289.4 198.2,288.2 198.8,287.0 199.5,285.2 200.1,287.6 200.8,285.2 201.4,282.9 202.1,278.7 202.7,278.7 203.3,277.6 204.0,276.4 204.6,278.1 205.3,277.0 205.9,276.4 206.6,277.0 207.2,275.2 207.9,273.4 208.5,272.8 209.2,274.0 209.8,269.9 210.4,269.3 211.1,265.8 211.7,264.0 212.4,264.0 213.0,262.2 213.7,262.2 214.3,265.8 215.0,265.2 215.6,267.5 216.2,271.6 216.9,271.1 217.5,271.6 218.2,272.2 218.8,275.2 219.5,274.0 220.1,272.8 220.8,273.4 221.4,271.6 222.1,272.2 222.7,272.2 223.3,272.8 224.0,275.8 224.6,277.0 225.3,274.6 225.9,272.8 226.6,274.0 227.2,277.0 227.9,277.0 228.5,275.2 229.2,277.6 229.8,277.0 230.4,275.8 231.1,273.4 231.7,275.2 232.4,277.0 233.0,277.0 233.7,274.0 234.3,274.0 235.0,272.8 235.6,273.4 236.2,275.2 236.9,275.2 237.5,277.0 238.2,275.2 238.8,278.1 239.5,275.8 240.1,274.0 240.8,275.8 241.4,275.8 242.1,275.8 242.7,276.4 243.3,279.9 244.0,278.7 244.6,281.1 245.3,281.1 245.9,281.7 246.6,281.1 247.2,279.3 247.9,281.1 248.5,275.2 249.1,274.0 249.8,278.7 250.4,277.0 251.1,273.4 251.7,277.6 252.4,277.6 253.0,279.9 253.7,279.3 254.3,281.7 254.9,282.9 255.6,281.7 256.2,281.1 256.9,277.0 257.5,276.4 258.2,277.6 258.8,274.0 259.5,276.4 260.1,276.4 260.8,278.7 261.4,278.1 262.0,278.1 262.7,276.4 263.3,275.2 264.0,274.0 264.6,271.6 265.3,274.0 265.9,277.0 266.6,271.6 267.2,271.6 267.9,268.1 268.5,267.5 269.1,261.6 269.8,261.6 270.4,264.0 271.1,261.6 271.7,263.4 272.4,261.6 273.0,261.0 273.7,257.5 274.3,253.4 274.9,253.4 275.6,252.8 276.2,253.9 276.9,253.9 277.5,255.7 278.2,259.9 278.8,259.9 279.5,261.6 280.1,264.6 280.8,269.3 281.4,269.3 282.0,271.6 282.7,272.2 283.3,274.0 284.0,274.0 284.6,278.7 285.3,284.6 285.9,285.2 286.6,286.4 287.2,288.2 287.8,288.8 288.5,288.2 289.1,287.6 289.8,288.8 290.4,288.8 291.1,290.5 291.7,290.5 292.4,290.5 293.0,288.8 293.6,285.2 294.3,285.8 294.9,288.8 295.6,284.6 296.2,282.9 296.9,281.7 297.5,282.3 298.2,281.7 298.8,279.3 299.5,281.1 300.1,281.7 300.7,281.1 301.4,279.9 302.0,280.5 302.7,278.7 303.3,277.0 304.0,277.0 304.6,276.4 305.3,279.3 305.9,280.5 306.6,282.3 307.2,279.9 307.8,281.1 308.5,277.0 309.1,275.8 309.8,272.8 310.4,275.8 311.1,277.0 311.7,271.6 312.4,269.3 313.0,267.5 313.6,263.4 314.3,265.8 314.9,266.9 315.6,269.3 316.2,271.6 316.9,269.3 317.5,265.2 318.2,260.4 318.8,259.9 319.4,258.1 320.1,259.9 320.7,262.2 321.4,264.6 322.0,264.6 322.7,265.2 323.3,265.2 324.0,271.1 324.6,271.1 325.3,272.2 325.9,274.6 326.5,279.3 327.2,277.0 327.8,275.8 328.5,274.6 329.1,277.6 329.8,278.1 330.4,279.9 331.1,279.9 331.7,283.4 332.4,287.6 333.0,290.5 333.6,289.4 334.3,287.6 334.9,287.0 335.6,285.8 336.2,284.6 336.9,286.4 337.5,285.2 338.2,287.0 338.8,287.0 339.4,285.8 340.1,284.6 340.7,283.4 341.4,285.2 342.0,284.0 342.7,281.1 343.3,279.3 344.0,280.5 344.6,278.7 345.2,277.6 345.9,275.2 346.5,274.6 347.2,275.8 347.8,278.1 348.5,277.0 349.1,277.6 349.8,278.1 350.4,277.6 351.1,278.1 351.7,277.0 352.3,277.6 353.0,274.6 353.6,272.2 354.3,274.0 354.9,272.2 355.6,273.4 356.2,275.2 356.9,278.7 357.5,278.7 358.1,280.5 358.8,283.4 359.4,282.9 360.1,282.3 360.7,284.6 361.4,284.0 362.0,282.3 362.7,283.4 363.3,284.0 364.0,287.0 364.6,288.2 365.2,287.0 365.9,287.6 366.5,288.8 367.2,288.8 367.8,286.4 368.5,287.0 369.1,287.6 369.8,285.8 370.4,288.2 371.1,287.0 371.7,288.8 372.3,289.4 373.0,290.5 373.6,291.1 374.3,293.5 374.9,289.4 375.6,287.0 376.2,286.4 376.9,284.6 377.5,278.1 378.1,275.2 378.8,276.4 379.4,269.9 380.1,268.1 380.7,265.2 381.4,266.9 382.0,265.2 382.7,264.0 383.3,260.4 383.9,260.4 384.6,262.8 385.2,255.7 385.9,253.4 386.5,255.7 387.2,253.9 387.8,253.4 388.5,253.4 389.1,251.6 389.8,251.6 390.4,252.2 391.0,255.1 391.7,259.3 392.3,262.8 393.0,261.0 393.6,262.8 394.3,268.7 394.9,268.7 395.6,269.9 396.2,275.2 396.9,278.1 397.5,279.3 398.1,278.7 398.8,281.7 399.4,283.4 400.1,284.6 400.7,281.1 401.4,281.7 402.0,277.6 402.7,278.1 403.3,279.3 403.9,277.0 404.6,279.9 405.2,280.5 405.9,279.3 406.5,277.6 407.2,277.0 407.8,278.1 408.5,279.9 409.1,279.3 409.8,278.1 410.4,281.7 411.0,281.1 411.7,279.3 412.3,277.6 413.0,275.2 413.6,278.7 414.3,279.3 414.9,277.6 415.6,278.1 416.2,281.1 416.8,283.4 417.5,285.2 418.1,286.4 418.8,284.6 419.4,284.6 420.1,287.0 420.7,285.8 421.4,284.0 422.0,284.0 422.6,282.3 423.3,278.7 423.9,276.4 424.6,275.2 425.2,271.6 425.9,274.6 426.5,272.2 427.2,274.0 427.8,275.2 428.5,277.6 429.1,281.7 429.7,281.1 430.4,279.3 431.0,280.5 431.7,282.9 432.3,282.9 433.0,283.4 433.6,284.6 434.3,288.8 434.9,285.8 435.6,282.9 436.2,281.7 436.8,279.9 437.5,280.5 438.1,279.3 438.8,281.7 439.4,283.4 440.1,282.9 440.7,279.9 441.4,282.3 442.0,281.7 442.6,282.3 443.3,284.0 443.9,284.0 444.6,285.2 445.2,288.2 445.9,288.2 446.5,288.2 447.2,288.2 447.8,286.4 448.4,287.0 449.1,285.2 449.7,280.5 450.4,281.1 451.0,279.9 451.7,278.7 452.3,277.0 453.0,271.6 453.6,268.1 454.3,275.2 454.9,273.4 455.5,268.1 456.2,266.9 456.8,272.8 457.5,271.6 458.1,266.9 458.8,266.3 459.4,271.1 460.1,268.1 460.7,266.3 461.4,265.2 462.0,268.7 462.6,271.1 463.3,266.9 463.9,264.0 464.6,263.4 465.2,265.2 465.9,262.8 466.5,264.0 467.2,267.5 467.8,268.7 468.4,271.1 469.1,269.9 469.7,269.9 470.4,269.9 471.0,271.1 471.7,271.6 472.3,271.6 473.0,272.2 473.6,272.2 474.2,272.8 474.9,275.8 475.5,277.6 476.2,282.9 476.8,284.6 477.5,285.2 478.1,287.6 478.8,288.8 479.4,288.8 480.1,291.7 480.7,296.4 481.3,296.4 482.0,295.2 482.6,295.2 483.3,296.4 483.9,297.0 484.6,295.8 485.2,294.1 485.9,294.1 486.5,294.7 487.1,293.5 487.8,289.4 488.4,288.2 489.1,287.6 489.7,284.6 490.4,282.9 491.0,282.3 491.7,284.6 492.3,280.5 493.0,278.7 493.6,279.3 494.2,276.4 494.9,275.2 495.5,268.1 496.2,264.6 496.8,264.0 497.5,263.4 498.1,259.3 498.8,256.3 499.4,255.7 500.1,259.9 500.7,258.1 501.3,260.4 502.0,259.9 502.6,259.9 503.3,261.0 503.9,258.1 504.6,255.1 505.2,253.9 505.9,253.4 506.5,254.5 507.1,255.1 507.8,256.9 508.4,258.7 509.1,261.0 509.7,263.4 510.4,265.8 511.0,271.1 511.7,277.0 512.3,277.6 513.0,277.6 513.6,278.7 514.2,277.0 514.9,278.7 515.5,279.3 516.2,285.2 516.8,284.0 517.5,284.6 518.1,287.0 518.8,287.0 519.4,289.9 520.0,289.4 520.7,291.1 521.3,292.9 522.0,292.9 522.6,293.5 523.3,293.5 523.9,294.7 524.6,293.5 525.2,295.2 525.9,295.8 526.5,297.0 527.1,297.6 527.8,297.0 528.4,297.6 529.1,300.6 529.7,299.4 530.4,300.0 531.0,298.2 531.7,297.6 532.3,297.0 532.9,297.6 533.6,297.0 534.2,298.2 534.9,297.0 535.5,296.4 536.2,297.6 536.8,298.2 537.5,297.0 538.1,297.0 538.8,297.0 539.4,295.8 540.0,294.7 540.7,294.1 541.3,294.1 542.0,293.5 542.6,292.3 543.3,288.8 543.9,285.8 544.6,284.0 545.2,282.9 545.8,277.6 546.5,270.5 547.1,268.1 547.8,265.2 548.4,261.0 549.1,253.9 549.7,247.5 550.4,242.7 551.0,236.8 551.6,232.7 552.3,230.4 552.9,232.1 553.6,233.3 554.2,235.1 554.9,233.9 555.5,235.1 556.2,238.6 556.8,235.1 557.5,234.5 558.1,238.0 558.7,242.7 559.4,242.7 560.0,248.1 560.7,249.8 561.3,253.9 562.0,261.0 562.6,263.4 563.3,267.5 563.9,267.5 564.5,275.2 565.2,277.6 565.8,282.3 566.5,281.7 567.1,285.2 567.8,288.2 568.4,288.8 569.1,287.6 569.7,288.8 570.4,292.3 571.0,292.9 571.6,292.9 572.3,294.1 572.9,294.7 573.6,297.6 574.2,297.0 574.9,297.6 575.5,297.6 576.2,298.8 576.8,297.6 577.5,297.6 578.1,297.6 578.7,298.8 579.4,299.4 580.0,300.0 580.7,302.9 581.3,303.5 582.0,303.5 582.6,303.5 583.3,302.9 583.9,304.1 584.5,302.3 585.2,301.1 585.8,300.6 586.5,298.2 587.1,297.6 587.8,297.6 588.4,298.2 589.1,297.6 589.7,297.6 590.4,296.4 591.0,292.3 591.6,289.9 592.3,286.4 592.9,282.9 593.6,278.1 594.2,275.8 594.9,273.4 595.5,269.9 596.2,262.2 596.8,258.1 597.4,259.3 598.1,251.0 598.7,249.8 599.4,246.3 600.0,238.6 600.7,230.9 601.3,225.0 602.0,225.6 602.6,222.7 603.2,228.0 603.9,229.8 604.5,232.1 605.2,241.0 605.8,242.7 606.5,247.5 607.1,253.4 607.8,252.8 608.4,257.5 609.1,263.4 609.7,266.3 610.3,271.1 611.0,275.8 611.6,274.6 612.3,281.7 612.9,284.6 613.6,283.4 614.2,281.1 614.9,284.0 615.5,285.8 616.1,286.4 616.8,286.4 617.4,288.8 618.1,287.6 618.7,288.8 619.4,285.2 620.0,284.0 620.7,288.8 621.3,290.5 622.0,292.9 622.6,292.9 623.2,294.7 623.9,296.4 624.5,293.5 625.2,294.7 625.8,293.5 626.5,294.7 627.1,294.7 627.8,295.2 628.4,294.7 629.0,295.2 629.7,296.4 630.3,293.5 631.0,292.3 631.6,292.3 632.3,291.7 632.9,287.6 633.6,284.0 634.2,284.0 634.9,282.3 635.5,279.3 636.1,277.6 636.8,278.7 637.4,277.0 638.1,275.8 638.7,271.6 639.4,269.3 640.0,266.3 640.7,262.8 641.3,260.4 642.0,254.5 642.6,256.9 643.2,253.9 643.9,253.4 644.5,253.4 645.2,253.9 645.8,255.7 646.5,257.5 647.1,253.9 647.8,254.5 648.4,253.4 649.0,256.9 649.7,257.5 650.3,259.3 651.0,260.4 651.6,264.0 652.3,268.7 652.9,271.6 653.6,271.1 654.2,272.2 654.9,271.6 655.5,274.6 656.1,274.6 656.8,278.1 657.4,280.5 658.1,285.2 658.7,287.6 659.4,289.9 660.0,292.3 660.7,291.7 661.3,292.3 661.9,289.9 662.6,288.2 663.2,287.0 663.9,288.8 664.5,289.9 665.2,287.6 665.8,285.8 666.5,284.0 667.1,280.5 667.8,281.1 668.4,277.0 669.0,277.6 669.7,279.3 670.3,277.0 671.0,277.6 671.6,275.2 672.3,275.8 672.9,277.0 673.6,273.4 674.2,270.5 674.8,269.3 675.5,268.1 676.1,265.2 676.8,263.4 677.4,268.1 678.1,267.5 678.7,265.8 679.4,267.5 680.0,266.9 680.6,267.5 681.3,270.5 681.9,272.2 682.6,273.4 683.2,277.0 683.9,277.6 684.5,278.1 685.2,277.6 685.8,275.8 686.5,279.9 687.1,281.7 687.7,279.9 688.4,282.9 689.0,283.4 689.7,285.2 690.3,289.4 691.0,287.0 691.6,287.0 692.3,288.2 692.9,287.0 693.5,285.2 694.2,286.4 694.8,285.8 695.5,284.6 696.1,284.0 696.8,285.2 697.4,282.9 698.1,281.7 698.7,278.1 699.4,279.3"></path>
    <text text-anchor="end" fill="currentColor" font-weight="600" class="series-green" x="696" y="90">Food</text>
    <text text-anchor="end" fill="currentColor" font-weight="600" class="series-blue" x="696" y="248">Creatures</text>
</svg>