<svg width="720" height="360" xmlns="http://www.w3.org/2000/svg">

<style>
  .background {
    fill: none;
  }
  .axis {
    stroke: #111;
    stroke-width: 1;
  }
  .axis-label {
    text-anchor: middle;
  }
  .axis-units {
    font-size: 10px;
    font-family: Arial;
  }
  .y-axis-text {
    text-anchor: end;
  }
  .x-axis-text {
    text-anchor: middle;
  }
  .gridlines {
    stroke: black;
    stroke-width: 0.3;
    fill: none;
    opacity: 0.5;
  }
  .series-red {
    color: #ae5d40;
  }
  .series-green {
    color: #4f7754;
  }
  .series-blue {
    color: #433a60;
  }
  .data-series {
    fill: none;
    opacity: 0.9;
    stroke: currentColor;
    stroke-width: 2;
  }
  </style>

    <text class="axis-label" x="377.5" y="345">Time (1000 ticks)</text>
    <text class="axis-label" x="0" y="162.5" transform="translate(20.0) rotate(-90, 0, 162.5)">Population size</text>
    <line class="axis" x1="55" y1="310" x2="701" y2="310"></line>
    <line class="axis" x1="55" y1="310" x2="55" y2="15"></line>
    <g class="axis-units">
        <g class="x-axis-text">
            <text x="55.0" y="322">0</text>
            <text x="87.25" y="322">100</text>
            <text x="119.5" y="322">200</text>
            <text x="151.75" y="322">300</text>
            <text x="184.0" y="322">400</text>
            <text x="216.25" y="322">500</text>
            <text x="248.5" y="322">600</text>
            <text x="280.75" y="322">700</text>
            <text x="313.0" y="322">800</text>
            <text x="345.25" y="322">900</text>
            <text x="377.5" y="322">1000</text>
            <text x="409.75" y="322">1100</text>
            <text x="442.0" y="322">1200</text>
            <text x="474.25" y="322">1300</text>
            <text x="506.49999999999994" y="322">1400</text>
            <text x="538.75" y="322">1500</text>
            <text x="571.0" y="322">1600</text>
            <text x="603.25" y="322">1700</text>
            <text x="635.5" y="322">1800</text>
            <text x="667.75" y="322">1900</text>
            <text x="700.0" y="322">2000</text>
        </g>
        <g class="y-axis-text">
            <text x="52" y="313.0">0</text>
            <text x="52" y="280.22222222222223">20</text>
            <text x="52" y="247.44444444444446">40</text>
            <text x="52" y="214.66666666666669">60</text>
            <text x="52" y="181.88888888888889">80</text>
            <text x="52" y="149.11111111111111">100</text>
            <text x="52" y="116.33333333333334">120</text>
            <text x="52" y="83.55555555555557">140</text>
            <text x="52" y="50.77777777777777">160</text>
            <text x="52" y="18.0">180</text>
        </g>
    </g>
    <g class="gridlines">
        <line x1="87.5" y1="310" x2="87.5" y2="15"></line>
        <line x1="119.5" y1="310" x2="119.5" y2="15"></line>
        <line x1="151.5" y1="310" x2="151.5" y2="15"></line>
        <line x1="184.5" y1="310" x2="184.5" y2="15"></line>
        <line x1="216.5" y1="310" x2="216.5" y2="15"></line>
        <line x1="248.5" y1="310" x2="248.5" y2="15"></line>
        <line x1="280.5" y1="310" x2="280.5" y2="15"></line>
        <line x1="313.5" y1="310" x2="313.5" y2="15"></line>
        <line x1="345.5" y1="310" x2="345.5" y2="15"></line>
        <line x1="377.5" y1="310" x2="377.5" y2="15"></line>
        <line x1="409.5" y1="310" x2="409.5" y2="15"></line>
        <line x1="442.5" y1="310" x2="442.5" y2="15"></line>
        <line x1="474.5" y1="310" x2="474.5" y2="15"></line>
        <line x1="506.5" y1="310" x2="506.5" y2="15"></line>
        <line x1="538.5" y1="310" x2="538.5" y2="15"></line>
        <line x1="571.5" y1="310" x2="571.5" y2="15"></line>
        <line x1="603.5" y1="310" x2="603.5" y2="15"></line>
        <line x1="635.5" y1="310" x2="635.5" y2="15"></line>
        <line x1="667.5" y1="310" x2="667.5" y2="15"></line>
        <line x1="700.5" y1="310" x2="700.5" y2="15"></line>
        <line x1="55" y1="277.5" x2="700" y2="277.5"></line>
        <line x1="55" y1="244.5" x2="700" y2="244.5"></line>
        <line x1="55" y1="211.5" x2="700" y2="211.5"></line>
        <line x1="55" y1="178.5" x2="700" y2="178.5"></line>
        <line x1="55" y1="146.5" x2="700" y2="146.5"></line>
        <line x1="55" y1="113.5" x2="700" y2="113.5"></line>
        <line x1="55" y1="80.5" x2="700" y2="80.5"></line>
        <line x1="55" y1="47.5" x2="700" y2="47.5"></line>
        <line x1="55" y1="15.5" x2="700" y2="15.5"></line>
    </g>
    <path class="data-series series-green" d="M55.5,295.4 56.5,295.9 57.5,295.8 58.5,295.2 59.5,295.7 60.5,296.3 61.5,294.7 62.5,291.4 63.5,290.6 64.5,290.8 65.5,291.5 66.5,292.0 67.5,291.0 68.5,290.9 69.5,291.0 70.5,289.1 71.5,288.0 72.5,289.1 73.5,289.5 74.5,290.0 75.5,288.7 76.5,284.8 77.5,285.2 78.5,285.6 79.5,283.7 80.5,283.6 81.5,284.7 82.5,280.7 83.5,279.2 84.5,279.3 85.5,279.0 86.5,279.3 87.5,280.8 88.5,280.8 89.5,282.2 90.5,280.4 91.5,279.9 92.5,278.5 93.5,276.9 94.5,276.3 95.5,274.7 96.5,271.1 97.5,269.3 98.5,268.4 99.5,268.4 100.5,269.8 101.5,270.9 102.5,270.3 103.5,267.4 104.5,268.4 105.5,268.3 106.5,268.5 107.5,269.9 108.5,270.6 109.5,269.4 110.5,268.8 111.5,268.6 112.5,268.7 113.5,269.7 114.5,268.7 115.5,269.0 116.5,267.0 117.5,265.6 118.5,264.5 119.5,265.2 120.5,262.3 121.5,261.1 122.5,260.2 123.5,256.0 124.5,250.1 125.5,249.4 126.5,251.4 127.5,249.4 128.5,246.5 129.5,244.5 130.5,242.6 131.5,241.6 132.5,242.1 133.5,241.0 134.5,241.5 135.5,242.7 136.5,243.1 137.5,244.0 138.5,242.8 139.5,243.7 140.5,243.5 141.5,244.2 142.5,243.4 143.5,244.0 144.5,243.6 145.5,243.7 146.5,242.4 147.5,241.9 148.5,241.4 149.5,239.7 150.5,240.8 151.5,241.0 152.5,241.4 153.5,241.4 154.5,238.2 155.5,236.4 156.5,238.2 157.5,240.0 158.5,239.6 159.5,240.4 160.5,242.5 161.5,244.0 162.5,244.1 163.5,244.1 164.5,243.3 165.5,244.0 166.5,244.5 167.5,243.5 168.5,241.6 169.5,241.9 170.5,244.2 171.5,244.7 172.5,244.2 173.5,243.8 174.5,242.3 175.5,241.6 176.5,240.2 177.5,238.3 178.5,238.3 179.5,238.4 180.5,239.8 181.5,242.1 182.5,242.5 183.5,244.0 184.5,242.8 185.5,242.0 186.5,239.8 187.5,239.8 188.5,240.1 189.5,240.3 190.4,239.7 191.4,239.2 192.4,238.4 193.4,237.9 194.4,237.6 195.4,237.7 196.4,238.8 197.4,237.9 198.4,239.0 199.4,238.0 200.4,234.7 201.4,232.5 202.4,230.9 203.4,230.9 204.4,230.4 205.4,228.5 206.4,226.9 207.4,227.1 208.4,226.9 209.4,223.6 210.4,219.8 211.4,218.9 212.4,219.1 213.4,219.1 214.4,221.9 215.4,223.5 216.4,223.1 217.4,223.0 218.4,223.6 219.4,224.0 220.4,224.9 221.4,224.4 222.4,224.1 223.4,223.9 224.4,223.4 225.4,223.4 226.4,223.8 227.4,223.4 228.4,221.8 229.4,223.6 230.4,223.3 231.4,223.3 232.4,223.2 233.4,224.9 234.4,226.7 235.4,227.3 236.4,228.6 237.4,228.4 238.4,231.4 239.4,232.8 240.4,231.4 241.4,231.6 242.4,227.7 243.4,223.5 244.4,219.5 245.4,217.0 246.4,217.1 247.4,218.8 248.4,220.3 249.4,220.8 250.4,221.2 251.4,220.5 252.4,221.0 253.4,223.7 254.4,224.9 255.4,223.8 256.4,223.4 257.4,222.3 258.4,220.0 259.4,220.0 260.4,220.3 261.4,220.3 262.4,219.9 263.4,218.0 264.4,216.0 265.4,215.9 266.4,213.2 267.4,212.8 268.4,212.9 269.4,213.7 270.4,213.3 271.4,213.9 272.4,214.1 273.4,213.7 274.4,212.3 275.4,211.5 276.4,211.6 277.4,212.8 278.4,212.6 279.4,211.6 280.4,211.5 281.4,214.6 282.4,214.2 283.4,216.2 284.4,217.4 285.4,217.8 286.4,217.2 287.4,217.5 288.4,216.7 289.4,213.9 290.4,214.3 291.4,213.2 292.4,213.5 293.4,215.2 294.4,217.6 295.4,217.9 296.4,217.6 297.4,217.0 298.4,218.3 299.4,220.6 300.4,223.1 301.4,220.7 302.4,219.1 303.4,217.6 304.4,218.5 305.4,219.0 306.4,218.6 307.4,219.4 308.4,218.0 309.4,214.8 310.4,213.4 311.4,214.0 312.4,216.0 313.4,216.4 314.4,217.3 315.4,218.1 316.4,219.5 317.4,219.6 318.4,219.1 319.4,219.2 320.4,219.1 321.4,219.0 322.4,221.8 323.4,224.3 324.4,224.7 325.4,224.3 326.4,224.9 327.4,227.7 328.4,229.9 329.4,229.4 330.4,231.7 331.4,231.5 332.4,232.2 333.4,232.2 334.4,234.7 335.4,235.1 336.4,236.1 337.4,236.4 338.4,237.1 339.4,235.7 340.4,234.3 341.4,235.4 342.4,235.7 343.4,237.2 344.4,239.2 345.4,239.3 346.4,239.2 347.4,238.0 348.4,238.3 349.4,239.3 350.4,236.7 351.4,235.7 352.4,239.3 353.4,241.9 354.4,244.6 355.4,244.5 356.4,245.0 357.4,243.5 358.4,241.6 359.4,235.3 360.4,234.8 361.4,231.8 362.4,232.4 363.4,232.8 364.4,231.6 365.4,232.4 366.4,233.3 367.4,234.2 368.4,235.8 369.4,235.2 370.4,236.3 371.4,236.3 372.4,235.7 373.4,237.8 374.4,237.6 375.4,238.6 376.4,237.7 377.4,237.0 378.4,238.0 379.4,239.9 380.4,238.7 381.4,236.8 382.4,235.1 383.4,234.2 384.4,234.8 385.4,233.9 386.4,236.6 387.4,238.2 388.4,235.0 389.4,234.1 390.4,232.9 391.4,230.6 392.4,228.3 393.4,226.7 394.4,228.4 395.4,227.1 396.4,227.5 397.4,225.3 398.4,223.9 399.4,222.1 400.4,221.7 401.4,219.6 402.4,219.4 403.4,219.3 404.4,220.7 405.4,222.2 406.4,221.4 407.4,219.6 408.4,220.9 409.4,222.0 410.4,222.4 411.4,221.7 412.4,221.2 413.4,220.2 414.4,220.5 415.4,223.9 416.4,227.3 417.4,225.3 418.4,223.0 419.4,223.2 420.4,223.5 421.4,226.0 422.4,226.4 423.4,225.4 424.4,224.8 425.4,225.0 426.4,224.4 427.4,225.0 428.4,225.3 429.4,227.0 430.4,226.0 431.4,226.0 432.4,226.4 433.4,225.4 434.4,226.9 435.4,230.8 436.4,235.1 437.4,236.6 438.4,233.8 439.4,235.3 440.4,236.0 441.4,234.4 442.4,231.8 443.4,230.7 444.4,231.6 445.4,227.0 446.4,225.2 447.4,225.3 448.4,227.8 449.4,229.5 450.4,230.2 451.4,229.6 452.4,227.3 453.4,226.9 454.4,225.0 455.4,225.1 456.4,226.0 457.4,228.3 458.4,228.3 459.4,227.0 460.4,227.5 461.4,227.7 462.4,224.5 463.4,224.2 464.4,225.4 465.4,223.0 466.4,219.5 467.4,219.7 468.4,216.1 469.4,215.4 470.4,216.0 471.4,216.1 472.4,216.8 473.4,217.1 474.4,216.6 475.4,216.5 476.4,215.6 477.4,216.1 478.4,217.6 479.4,218.8 480.4,220.9 481.4,222.4 482.4,221.8 483.4,220.1 484.4,217.9 485.4,217.8 486.4,218.4 487.4,216.5 488.4,213.9 489.4,214.3 490.4,217.9 491.4,219.1 492.4,218.3 493.4,218.3 494.4,218.0 495.4,218.4 496.4,222.1 497.4,223.0 498.4,221.7 499.4,223.3 500.4,225.7 501.4,225.4 502.4,224.1 503.4,224.2 504.4,223.5 505.4,224.5 506.4,225.4 507.4,224.8 508.4,223.4 509.4,223.0 510.4,224.5 511.4,224.8 512.4,223.7 513.4,224.3 514.4,223.8 515.4,225.2 516.4,225.7 517.4,224.9 518.4,226.1 519.4,226.7 520.4,226.4 521.4,226.6 522.4,227.7 523.4,225.3 524.4,224.6 525.4,224.9 526.4,225.8 527.4,229.2 528.4,230.6 529.4,228.6 530.4,229.2 531.4,227.8 532.4,231.0 533.4,227.5 534.4,225.0 535.4,222.9 536.4,220.9 537.4,221.4 538.4,222.0 539.4,219.3 540.4,219.9 541.4,218.9 542.4,220.9 543.4,223.4 544.4,224.9 545.4,225.7 546.4,226.3 547.4,224.4 548.4,223.8 549.4,224.2 550.4,223.8 551.4,223.0 552.4,222.9 553.4,221.2 554.4,219.5 555.4,217.0 556.4,216.9 557.4,216.0 558.4,213.6 559.4,213.7 560.4,215.1 561.4,216.3 562.4,217.6 563.4,219.1 564.4,218.2 565.4,217.2 566.4,217.5 567.4,217.4 568.4,219.8 569.4,218.4 570.4,215.2 571.4,213.0 572.4,212.4 573.4,211.1 574.4,211.2 575.4,211.4 576.4,210.0 577.4,208.4 578.4,211.0 579.4,209.7 580.4,208.6 581.4,209.2 582.4,212.4 583.4,214.5 584.4,218.0 585.4,219.3 586.4,219.3 587.4,219.7 588.4,220.1 589.4,218.7 590.3,219.3 591.3,220.6 592.3,221.0 593.3,222.0 594.3,223.4 595.3,224.2 596.3,225.0 597.3,225.4 598.3,225.4 599.3,228.1 600.3,227.6 601.3,226.6 602.3,228.1 603.3,229.8 604.3,228.9 605.3,228.9 606.3,229.2 607.3,228.9 608.3,229.2 609.3,230.2 610.3,230.5 611.3,230.2 612.3,230.0 613.3,229.4 614.3,228.3 615.3,229.7 616.3,231.2 617.3,230.7 618.3,227.8 619.3,225.1 620.3,226.8 621.3,228.3 622.3,229.5 623.3,230.7 624.3,230.7 625.3,230.5 626.3,234.5 627.3,235.4 628.3,236.1 629.3,233.9 630.3,235.1 631.3,235.2 632.3,237.6 633.3,234.4 634.3,236.6 635.3,237.5 636.3,237.4 637.3,236.7 638.3,235.7 639.3,235.3 640.3,237.3 641.3,236.4 642.3,240.8 643.3,243.4 644.3,245.5 645.3,244.4 646.3,243.4 647.3,243.7 648.3,245.2 649.3,245.5 650.3,246.2 651.3,245.9 652.3,246.4 653.3,246.2 654.3,245.6 655.3,246.3 656.3,243.7 657.3,241.0 658.3,241.2 659.3,242.8 660.3,243.4 661.3,242.2 662.3,243.3 663.3,243.0 664.3,241.9 665.3,239.9 666.3,237.2 667.3,234.3 668.3,234.8 669.3,234.6 670.3,234.1 671.3,236.1 672.3,237.5 673.3,238.3 674.3,238.2 675.3,238.7 676.3,238.0 677.3,237.7 678.3,238.4 679.3,240.0 680.3,239.7 681.3,239.1 682.3,237.1 683.3,237.5 684.3,239.3 685.3,240.5 686.3,242.2 687.3,240.9 688.3,240.5 689.3,241.4 690.3,242.0 691.3,243.0 692.3,242.8 693.3,243.0 694.3,240.7 695.3,240.9 696.3,242.3 697.3,242.0 698.3,241.9 699.3,243.0"></path>
    <text text-anchor="end" fill="currentColor" font-weight="600" class="series-green" x="696" y="90">Food</text>
    <text text-anchor="end" fill="currentColor" font-weight="600" class="series-blue" x="696" y="248">Creatures</text>
</svg>