<svg width="720" height="360" xmlns="http://www.w3.org/2000/svg">

<style>
  .background {
    fill: none;
  }
  .axis {
    stroke: #111;
    stroke-width: 1;
  }
  .axis-label {
    text-anchor: middle;
  }
  .axis-units {
    font-size: 10px;
    font-family: Arial;
  }
  .y-axis-text {
    text-anchor: end;
  }
  .x-axis-text {
    text-anchor: middle;
  }
  .gridlines {
    stroke: black;
    stroke-width: 0.3;
    fill: none;
    opacity: 0.5;
  }
  .series-red {
    color: #ae5d40;
  }
  .series-green {
    color: #4f7754;
  }
  .series-blue {
    color: #433a60;
  }
  .data-series {
    fill: none;
    opacity: 0.9;
    stroke: currentColor;
    stroke-width: 2;
  }
  </style>

    <text class="axis-label" x="377.5" y="345">Time (1000 ticks)</text>
    <text class="axis-label" x="0" y="162.5" transform="translate(20.0) rotate(-90, 0, 162.5)">Population size</text>
    <line class="axis" x1="55" y1="310" x2="701" y2="310"></line>
    <line class="axis" x1="55" y1="310" x2="55" y2="15"></line>
    <g class="axis-units">
        <g class="x-axis-text">
            <text x="55.0" y="322">0</text>
            <text x="87.25" y="322">100</text>
            <text x="119.5" y="322">200</text>
            <text x="151.75" y="322">300</text>
            <text x="184.0" y="322">400</text>
            <text x="216.25" y="322">500</text>
            <text x="248.5" y="322">600</text>
            <text x="280.75" y="322">700</text>
            <text x="313.0" y="322">800</text>
            <text x="345.25" y="322">900</text>
            <text x="377.5" y="322">1000</text>
            <text x="409.75" y="322">1100</text>
            <text x="442.0" y="322">1200</text>
            <text x="474.25" y="322">1300</text>
            <text x="506.49999999999994" y="322">1400</text>
            <text x="538.75" y="322">1500</text>
            <text x="571.0" y="322">1600</text>
            <text x="603.25" y="322">1700</text>
            <text x="635.5" y="322">1800</text>
            <text x="667.75" y="322">1900</text>
            <text x="700.0" y="322">2000</text>
        </g>
        <g class="y-axis-text">
            <text x="52" y="313.0">0</text>
            <text x="52" y="280.22222222222223">20</text>
            <text x="52" y="247.44444444444446">40</text>
            <text x="52" y="214.66666666666669">60</text>
            <text x="52" y="181.88888888888889">80</text>
            <text x="52" y="149.11111111111111">100</text>
            <text x="52" y="116.33333333333334">120</text>
            <text x="52" y="83.55555555555557">140</text>
            <text x="52" y="50.77777777777777">160</text>
            <text x="52" y="18.0">180</text>
        </g>
    </g>
    <g class="gridlines">
        <line x1="87.5" y1="310" x2="87.5" y2="15"></line>
        <line x1="119.5" y1="310" x2="119.5" y2="15"></line>
        <line x1="151.5" y1="310" x2="151.5" y2="15"></line>
        <line x1="184.5" y1="310" x2="184.5" y2="15"></line>
        <line x1="216.5" y1="310" x2="216.5" y2="15"></line>
        <line x1="248.5" y1="310" x2="248.5" y2="15"></line>
        <line x1="280.5" y1="310" x2="280.5" y2="15"></line>
        <line x1="313.5" y1="310" x2="313.5" y2="15"></line>
        <line x1="345.5" y1="310" x2="345.5" y2="15"></line>
        <line x1="377.5" y1="310" x2="377.5" y2="15"></line>
        <line x1="409.5" y1="310" x2="409.5" y2="15"></line>
        <line x1="442.5" y1="310" x2="442.5" y2="15"></line>
        <line x1="474.5" y1="310" x2="474.5" y2="15"></line>
        <line x1="506.5" y1="310" x2="506.5" y2="15"></line>
        <line x1="538.5" y1="310" x2="538.5" y2="15"></line>
        <line x1="571.5" y1="310" x2="571.5" y2="15"></line>
        <line x1="603.5" y1="310" x2="603.5" y2="15"></line>
        <line x1="635.5" y1="310" x2="635.5" y2="15"></line>
        <line x1="667.5" y1="310" x2="667.5" y2="15"></line>
        <line x1="700.5" y1="310" x2="700.5" y2="15"></line>
        <line x1="55" y1="277.5" x2="700" y2="277.5"></line>
        <line x1="55" y1="244.5" x2="700" y2="244.5"></line>
        <line x1="55" y1="211.5" x2="700" y2="211.5"></line>
        <line x1="55" y1="178.5" x2="700" y2="178.5"></line>
        <line x1="55" y1="146.5" x2="700" y2="146.5"></line>
        <line x1="55" y1="113.5" x2="700" y2="113.5"></line>
        <line x1="55" y1="80.5" x2="700" y2="80.5"></line>
        <line x1="55" y1="47.5" x2="700" y2="47.5"></line>
        <line x1="55" y1="15.5" x2="700" y2="15.5"></line>
    </g>
    <path class="data-series series-green" d="M55.5,292.6 56.5,291.0 57.5,287.7 58.5,287.7 59.5,281.9 60.5,280.1 61.5,274.2 62.5,271.6 63.5,269.4 64.5,267.4 65.5,267.4 66.5,264.9 67.5,266.3 68.5,266.5 69.5,265.5 70.5,266.0 71.5,265.6 72.5,264.2 73.5,263.8 74.5,260.0 75.5,257.2 76.5,256.6 77.5,253.9 78.5,252.2 79.5,251.7 80.5,251.7 81.5,249.6 82.5,248.7 83.5,247.8 84.5,244.6 85.5,238.5 86.5,239.4 87.5,238.6 88.5,233.8 89.5,234.1 90.5,232.0 91.5,232.4 92.5,233.2 93.5,232.4 94.5,228.7 95.5,228.1 96.5,227.4 97.5,226.7 98.5,224.6 99.5,224.5 100.5,224.6 101.5,222.7 102.5,222.3 103.5,227.4 104.5,227.5 105.5,224.9 106.5,225.4 107.5,230.5 108.5,231.3 109.5,233.1 110.5,233.4 111.5,232.2 112.5,230.3 113.5,230.1 114.5,228.1 115.5,229.1 116.5,227.4 117.5,226.9 118.5,228.8 119.5,226.3 120.5,225.3 121.5,223.5 122.5,221.0 123.5,224.7 124.5,225.6 125.5,222.6 126.5,224.6 127.5,222.3 128.5,220.2 129.5,220.8 130.5,219.6 131.5,219.0 132.5,217.6 133.5,213.4 134.5,215.4 135.5,217.1 136.5,215.9 137.5,215.1 138.5,213.5 139.5,212.8 140.5,210.1 141.5,210.4 142.5,210.5 143.5,210.5 144.5,208.8 145.5,209.1 146.5,207.0 147.5,204.6 148.5,207.2 149.5,206.6 150.5,205.8 151.5,205.1 152.5,203.7 153.5,203.0 154.5,201.4 155.5,202.2 156.5,199.4 157.5,198.6 158.5,197.2 159.5,197.1 160.5,196.8 161.5,193.2 162.5,195.7 163.5,196.0 164.5,191.6 165.5,192.8 166.5,191.7 167.5,188.1 168.5,185.4 169.5,186.6 170.5,185.4 171.5,183.3 172.5,185.7 173.5,184.2 174.5,184.5 175.5,182.4 176.5,183.2 177.5,181.6 178.5,182.7 179.5,183.5 180.5,182.1 181.5,177.6 182.5,176.2 183.5,175.5 184.5,174.5 185.5,174.1 186.5,172.0 187.5,170.9 188.5,169.5 189.5,168.3 190.4,167.4 191.4,168.6 192.4,167.7 193.4,168.3 194.4,168.3 195.4,167.5 196.4,166.7 197.4,164.6 198.4,164.8 199.4,167.3 200.4,169.2 201.4,168.5 202.4,168.6 203.4,166.6 204.4,164.5 205.4,163.8 206.4,161.1 207.4,161.2 208.4,160.2 209.4,160.1 210.4,161.0 211.4,166.3 212.4,167.7 213.4,167.2 214.4,166.4 215.4,162.1 216.4,162.6 217.4,162.4 218.4,163.7 219.4,160.0 220.4,159.4 221.4,158.1 222.4,158.6 223.4,160.0 224.4,156.9 225.4,157.4 226.4,157.6 227.4,156.8 228.4,155.6 229.4,154.6 230.4,155.2 231.4,154.9 232.4,155.1 233.4,154.8 234.4,154.0 235.4,151.5 236.4,151.9 237.4,151.2 238.4,151.7 239.4,153.1 240.4,156.5 241.4,156.2 242.4,154.9 243.4,154.6 244.4,156.2 245.4,157.7 246.4,159.0 247.4,160.6 248.4,161.2 249.4,163.6 250.4,164.4 251.4,162.9 252.4,158.0 253.4,157.6 254.4,156.9 255.4,157.3 256.4,165.9 257.4,165.8 258.4,163.8 259.4,161.1 260.4,161.6 261.4,162.1 262.4,160.4 263.4,158.7 264.4,157.3 265.4,155.9 266.4,159.2 267.4,158.6 268.4,157.0 269.4,161.5 270.4,162.0 271.4,160.5 272.4,160.3 273.4,161.9 274.4,162.8 275.4,162.9 276.4,163.2 277.4,168.4 278.4,170.2 279.4,168.7 280.4,170.1 281.4,174.1 282.4,173.3 283.4,172.6 284.4,175.3 285.4,176.3 286.4,174.6 287.4,172.0 288.4,172.0 289.4,170.0 290.4,168.7 291.4,169.1 292.4,170.7 293.4,170.2 294.4,173.5 295.4,172.2 296.4,170.4 297.4,169.1 298.4,167.9 299.4,166.2 300.4,164.7 301.4,163.9 302.4,164.0 303.4,164.5 304.4,163.6 305.4,165.0 306.4,164.5 307.4,160.3 308.4,157.3 309.4,160.0 310.4,160.8 311.4,160.6 312.4,161.2 313.4,161.3 314.4,160.7 315.4,159.5 316.4,159.9 317.4,163.0 318.4,163.8 319.4,163.0 320.4,162.5 321.4,164.6 322.4,161.4 323.4,163.4 324.4,166.3 325.4,164.2 326.4,163.5 327.4,163.8 328.4,161.3 329.4,160.9 330.4,158.4 331.4,160.6 332.4,162.2 333.4,161.5 334.4,158.8 335.4,156.2 336.4,155.7 337.4,157.1 338.4,155.9 339.4,152.5 340.4,152.8 341.4,151.1 342.4,149.7 343.4,146.5 344.4,151.6 345.4,151.3 346.4,149.3 347.4,150.5 348.4,149.2 349.4,149.4 350.4,150.0 351.4,149.0 352.4,148.1 353.4,148.6 354.4,147.9 355.4,146.7 356.4,146.1 357.4,147.9 358.4,149.5 359.4,148.5 360.4,148.5 361.4,149.7 362.4,147.6 363.4,146.9 364.4,145.0 365.4,145.6 366.4,142.1 367.4,142.1 368.4,143.6 369.4,145.2 370.4,146.5 371.4,145.6 372.4,147.8 373.4,147.0 374.4,145.5 375.4,147.5 376.4,147.0 377.4,150.6 378.4,150.6 379.4,150.0 380.4,150.7 381.4,147.4 382.4,147.2 383.4,144.3 384.4,150.0 385.4,150.1 386.4,146.4 387.4,144.3 388.4,139.0 389.4,139.0 390.4,137.8 391.4,141.3 392.4,141.2 393.4,139.3 394.4,138.6 395.4,137.9 396.4,136.9 397.4,136.4 398.4,135.7 399.4,136.8 400.4,137.4 401.4,137.5 402.4,135.7 403.4,134.6 404.4,133.3 405.4,132.0 406.4,130.7 407.4,131.4 408.4,130.7 409.4,132.4 410.4,131.4 411.4,130.4 412.4,128.4 413.4,132.5 414.4,139.1 415.4,139.9 416.4,138.6 417.4,138.3 418.4,140.1 419.4,139.3 420.4,141.4 421.4,136.3 422.4,132.9 423.4,129.7 424.4,126.1 425.4,125.5 426.4,126.0 427.4,124.8 428.4,125.3 429.4,126.6 430.4,126.7 431.4,128.0 432.4,127.1 433.4,138.7 434.4,141.2 435.4,140.0 436.4,141.8 437.4,138.7 438.4,136.7 439.4,134.5 440.4,134.7 441.4,135.6 442.4,137.9 443.4,135.9 444.4,135.0 445.4,133.5 446.4,133.1 447.4,133.6 448.4,132.2 449.4,129.8 450.4,129.7 451.4,129.7 452.4,128.1 453.4,127.4 454.4,127.3 455.4,125.7 456.4,123.5 457.4,122.8 458.4,124.1 459.4,126.8 460.4,127.7 461.4,128.2 462.4,127.5 463.4,125.9 464.4,123.2 465.4,121.9 466.4,121.8 467.4,121.4 468.4,119.1 469.4,121.8 470.4,121.9 471.4,119.2 472.4,116.9 473.4,114.9 474.4,113.2 475.4,113.1 476.4,114.3 477.4,114.4 478.4,112.5 479.4,114.5 480.4,115.2 481.4,116.6 482.4,115.8 483.4,113.2 484.4,111.9 485.4,112.5 486.4,110.6 487.4,109.4 488.4,112.9 489.4,115.2 490.4,116.1 491.4,115.8 492.4,116.3 493.4,113.5 494.4,111.3 495.4,114.2 496.4,115.2 497.4,111.8 498.4,109.9 499.4,109.5 500.4,108.5 501.4,108.0 502.4,106.2 503.4,105.1 504.4,103.9 505.4,105.5 506.4,108.5 507.4,106.0 508.4,107.0 509.4,109.0 510.4,110.1 511.4,108.0 512.4,106.6 513.4,104.3 514.4,104.3 515.4,103.1 516.4,101.0 517.4,99.8 518.4,98.6 519.4,99.7 520.4,101.0 521.4,100.7 522.4,101.1 523.4,99.9 524.4,97.2 525.4,95.0 526.4,93.0 527.4,92.2 528.4,89.3 529.4,88.3 530.4,88.3 531.4,89.9 532.4,90.1 533.4,88.6 534.4,89.2 535.4,87.2 536.4,86.6 537.4,86.1 538.4,86.3 539.4,86.2 540.4,85.9 541.4,82.5 542.4,81.5 543.4,79.9 544.4,78.8 545.4,79.0 546.4,78.0 547.4,75.1 548.4,75.1 549.4,76.6 550.4,76.0 551.4,74.8 552.4,74.0 553.4,72.9 554.4,73.5 555.4,73.9 556.4,73.2 557.4,74.6 558.4,70.8 559.4,70.9 560.4,71.1 561.4,73.0 562.4,76.9 563.4,76.2 564.4,75.6 565.4,75.0 566.4,75.2 567.4,77.2 568.4,77.3 569.4,76.7 570.4,80.0 571.4,79.4 572.4,78.4 573.4,79.7 574.4,80.5 575.4,77.8 576.4,78.4 577.4,76.8 578.4,77.7 579.4,77.8 580.4,76.4 581.4,73.9 582.4,74.0 583.4,73.2 584.4,73.4 585.4,75.1 586.4,75.4 587.4,74.4 588.4,71.6 589.4,71.1 590.3,70.8 591.3,72.9 592.3,73.9 593.3,70.7 594.3,69.8 595.3,65.9 596.3,66.0 597.3,65.0 598.3,63.3 599.3,63.7 600.3,61.0 601.3,58.6 602.3,59.2 603.3,58.5 604.3,56.2 605.3,53.1 606.3,60.3 607.3,57.1 608.3,52.0 609.3,53.0 610.3,60.1 611.3,60.5 612.3,61.3 613.3,61.5 614.3,61.8 615.3,61.0 616.3,66.3 617.3,67.1 618.3,66.4 619.3,64.2 620.3,63.6 621.3,63.2 622.3,61.5 623.3,57.8 624.3,58.1 625.3,57.3 626.3,55.8 627.3,55.1 628.3,54.5 629.3,53.2 630.3,52.4 631.3,47.5 632.3,48.8 633.3,47.1 634.3,43.4 635.3,43.2 636.3,48.1 637.3,53.4 638.3,52.4 639.3,54.6 640.3,54.4 641.3,51.4 642.3,52.1 643.3,51.8 644.3,52.6 645.3,51.6 646.3,51.7 647.3,52.7 648.3,51.9 649.3,50.5 650.3,48.9 651.3,45.4 652.3,46.1 653.3,45.9 654.3,47.7 655.3,48.7 656.3,49.9 657.3,47.1 658.3,49.8 659.3,50.2 660.3,48.7 661.3,49.8 662.3,52.1 663.3,52.5 664.3,54.1 665.3,54.3 666.3,55.8 667.3,57.2 668.3,55.5 669.3,54.0 670.3,53.5 671.3,53.1 672.3,56.7 673.3,55.3 674.3,53.1 675.3,52.7 676.3,51.1 677.3,51.5 678.3,49.7 679.3,49.2 680.3,48.3 681.3,47.1 682.3,49.3 683.3,49.4 684.3,49.2 685.3,48.2 686.3,49.4 687.3,47.5 688.3,48.0 689.3,47.7 690.3,44.7 691.3,46.5 692.3,46.1 693.3,45.6 694.3,46.5 695.3,44.1 696.3,43.3 697.3,43.8 698.3,45.6 699.3,44.3 699.3,56.0 698.3,55.0 697.3,53.1 696.3,54.6 695.3,55.4 694.3,56.5 693.3,55.5 692.3,56.8 691.3,59.4 690.3,57.3 689.3,58.1 688.3,59.6 687.3,60.7 686.3,60.1 685.3,58.6 684.3,59.6 683.3,59.4 682.3,59.5 681.3,57.9 680.3,63.3 679.3,66.9 678.3,69.2 677.3,67.4 676.3,69.3 675.3,68.7 674.3,67.8 673.3,67.8 672.3,65.7 671.3,65.9 670.3,66.0 669.3,65.6 668.3,68.7 667.3,69.0 666.3,64.9 665.3,65.1 664.3,64.6 663.3,65.4 662.3,71.8 661.3,71.9 660.3,71.5 659.3,70.6 658.3,68.2 657.3,68.3 656.3,68.4 655.3,65.1 654.3,63.4 653.3,63.7 652.3,62.8 651.3,61.7 650.3,66.6 649.3,70.1 648.3,70.7 647.3,66.0 646.3,64.1 645.3,61.7 644.3,68.2 643.3,67.2 642.3,64.7 641.3,65.8 640.3,64.4 639.3,64.9 638.3,63.3 637.3,66.4 636.3,64.6 635.3,66.0 634.3,66.3 633.3,69.1 632.3,67.3 631.3,67.0 630.3,65.9 629.3,66.6 628.3,66.7 627.3,67.4 626.3,69.5 625.3,71.6 624.3,70.7 623.3,74.0 622.3,76.1 621.3,77.3 620.3,78.4 619.3,81.7 618.3,83.2 617.3,83.2 616.3,81.7 615.3,80.3 614.3,78.9 613.3,77.9 612.3,74.2 611.3,71.8 610.3,71.5 609.3,70.0 608.3,68.7 607.3,68.2 606.3,71.0 605.3,71.5 604.3,72.3 603.3,73.0 602.3,71.5 601.3,71.3 600.3,72.0 599.3,75.1 598.3,80.5 597.3,81.6 596.3,82.7 595.3,86.0 594.3,85.8 593.3,86.6 592.3,87.2 591.3,89.2 590.3,91.8 589.4,90.4 588.4,90.9 587.4,91.7 586.4,89.5 585.4,90.1 584.4,89.9 583.4,88.9 582.4,88.3 581.4,91.2 580.4,98.4 579.4,100.4 578.4,98.8 577.4,98.6 576.4,98.2 575.4,95.7 574.4,95.0 573.4,92.7 572.4,91.3 571.4,91.2 570.4,89.0 569.4,88.0 568.4,89.5 567.4,87.2 566.4,87.7 565.4,87.0 564.4,86.8 563.4,89.2 562.4,91.3 561.4,90.9 560.4,89.1 559.4,89.2 558.4,88.4 557.4,88.1 556.4,87.7 555.4,87.3 554.4,85.4 553.4,84.3 552.4,85.0 551.4,87.6 550.4,106.5 549.4,113.7 548.4,109.9 547.4,107.7 546.4,104.1 545.4,106.1 544.4,112.4 543.4,110.8 542.4,108.7 541.4,108.5 540.4,107.8 539.4,104.6 538.4,107.3 537.4,106.9 536.4,106.7 535.4,104.4 534.4,103.4 533.4,104.2 532.4,107.0 531.4,112.8 530.4,112.0 529.4,110.1 528.4,109.5 527.4,108.6 526.4,107.3 525.4,108.2 524.4,109.4 523.4,108.9 522.4,109.9 521.4,113.2 520.4,112.2 519.4,112.3 518.4,112.8 517.4,115.1 516.4,112.6 515.4,115.5 514.4,118.0 513.4,118.1 512.4,120.7 511.4,126.1 510.4,125.4 509.4,124.4 508.4,125.5 507.4,126.9 506.4,127.8 505.4,126.5 504.4,127.2 503.4,125.9 502.4,124.3 501.4,121.9 500.4,121.7 499.4,124.2 498.4,128.0 497.4,130.8 496.4,130.4 495.4,125.3 494.4,125.9 493.4,127.6 492.4,127.1 491.4,126.9 490.4,125.8 489.4,134.9 488.4,135.9 487.4,133.9 486.4,131.1 485.4,128.3 484.4,129.5 483.4,129.1 482.4,130.5 481.4,128.9 480.4,128.7 479.4,130.9 478.4,132.4 477.4,133.0 476.4,133.5 475.4,135.2 474.4,142.9 473.4,141.7 472.4,142.8 471.4,142.3 470.4,142.8 469.4,141.3 468.4,137.7 467.4,136.1 466.4,136.0 465.4,135.3 464.4,134.7 463.4,134.5 462.4,135.9 461.4,135.6 460.4,137.3 459.4,137.6 458.4,135.7 457.4,137.9 456.4,139.7 455.4,137.4 454.4,137.9 453.4,136.4 452.4,137.3 451.4,144.6 450.4,146.1 449.4,151.3 448.4,152.9 447.4,155.4 446.4,154.1 445.4,153.8 444.4,151.6 443.4,151.8 442.4,151.1 441.4,150.8 440.4,151.1 439.4,149.4 438.4,154.2 437.4,152.5 436.4,150.9 435.4,152.0 434.4,152.8 433.4,150.4 432.4,148.9 431.4,149.4 430.4,149.7 429.4,149.4 428.4,148.3 427.4,148.7 426.4,147.7 425.4,147.6 424.4,148.6 423.4,150.6 422.4,150.8 421.4,151.7 420.4,150.0 419.4,149.9 418.4,149.3 417.4,149.8 416.4,150.4 415.4,150.0 414.4,149.4 413.4,151.7 412.4,149.9 411.4,152.3 410.4,152.6 409.4,151.9 408.4,151.8 407.4,149.5 406.4,147.6 405.4,146.6 404.4,150.8 403.4,153.5 402.4,153.4 401.4,152.6 400.4,154.0 399.4,156.5 398.4,155.3 397.4,150.2 396.4,149.7 395.4,153.1 394.4,152.0 393.4,154.1 392.4,154.6 391.4,157.2 390.4,156.6 389.4,157.9 388.4,158.6 387.4,160.3 386.4,160.3 385.4,160.8 384.4,160.1 383.4,158.6 382.4,162.9 381.4,163.8 380.4,160.8 379.4,161.9 378.4,164.4 377.4,163.0 376.4,162.9 375.4,163.4 374.4,164.7 373.4,164.8 372.4,163.0 371.4,160.9 370.4,159.0 369.4,158.5 368.4,156.6 367.4,155.8 366.4,157.8 365.4,157.3 364.4,160.5 363.4,158.3 362.4,159.8 361.4,159.7 360.4,159.1 359.4,161.6 358.4,159.2 357.4,159.2 356.4,159.0 355.4,160.1 354.4,161.7 353.4,162.0 352.4,161.4 351.4,164.1 350.4,163.1 349.4,164.1 348.4,162.0 347.4,163.2 346.4,163.9 345.4,163.1 344.4,167.5 343.4,172.2 342.4,171.7 341.4,172.0 340.4,171.2 339.4,171.2 338.4,171.9 337.4,172.3 336.4,173.2 335.4,175.5 334.4,174.0 333.4,175.5 332.4,176.0 331.4,176.7 330.4,176.2 329.4,175.4 328.4,174.3 327.4,174.1 326.4,178.9 325.4,179.6 324.4,179.9 323.4,180.1 322.4,179.2 321.4,178.5 320.4,177.5 319.4,175.9 318.4,175.6 317.4,175.6 316.4,173.4 315.4,172.2 314.4,175.6 313.4,176.2 312.4,173.9 311.4,173.8 310.4,173.5 309.4,172.7 308.4,173.5 307.4,176.1 306.4,175.9 305.4,176.2 304.4,173.9 303.4,174.6 302.4,177.5 301.4,184.7 300.4,184.1 299.4,186.6 298.4,184.4 297.4,187.5 296.4,188.0 295.4,185.7 294.4,182.4 293.4,179.1 292.4,181.5 291.4,183.1 290.4,179.7 289.4,183.0 288.4,187.0 287.4,186.9 286.4,186.3 285.4,185.8 284.4,187.6 283.4,188.0 282.4,191.9 281.4,189.8 280.4,189.6 279.4,192.2 278.4,186.3 277.4,183.6 276.4,181.6 275.4,181.1 274.4,182.7 273.4,180.5 272.4,177.3 271.4,176.7 270.4,174.5 269.4,173.9 268.4,180.8 267.4,179.4 266.4,176.5 265.4,176.5 264.4,176.0 263.4,175.1 262.4,175.1 261.4,176.4 260.4,174.9 259.4,174.2 258.4,175.3 257.4,179.6 256.4,180.6 255.4,182.2 254.4,181.1 253.4,183.1 252.4,180.1 251.4,178.1 250.4,174.3 249.4,174.9 248.4,171.7 247.4,171.8 246.4,173.3 245.4,171.1 244.4,168.9 243.4,167.8 242.4,167.3 241.4,171.3 240.4,166.4 239.4,166.6 238.4,166.7 237.4,165.8 236.4,162.5 235.4,162.0 234.4,161.1 233.4,162.0 232.4,165.6 231.4,169.0 230.4,171.0 229.4,169.0 228.4,169.4 227.4,171.5 226.4,170.4 225.4,169.8 224.4,169.9 223.4,169.5 222.4,170.0 221.4,171.2 220.4,174.6 219.4,178.5 218.4,179.2 217.4,184.5 216.4,184.5 215.4,183.4 214.4,182.2 213.4,183.9 212.4,181.8 211.4,180.1 210.4,181.2 209.4,181.5 208.4,185.8 207.4,186.8 206.4,184.4 205.4,185.1 204.4,183.9 203.4,179.8 202.4,179.7 201.4,178.7 200.4,179.5 199.4,179.9 198.4,180.6 197.4,181.8 196.4,180.2 195.4,178.3 194.4,182.7 193.4,185.2 192.4,183.4 191.4,180.7 190.4,179.4 189.5,185.7 188.5,190.0 187.5,191.2 186.5,191.6 185.5,190.7 184.5,190.4 183.5,189.9 182.5,189.7 181.5,201.1 180.5,200.8 179.5,200.2 178.5,199.5 177.5,198.9 176.5,198.5 175.5,194.9 174.5,195.1 173.5,194.1 172.5,197.1 171.5,207.1 170.5,204.5 169.5,206.5 168.5,208.9 167.5,210.3 166.5,210.0 165.5,210.1 164.5,209.3 163.5,210.0 162.5,207.6 161.5,206.4 160.5,205.3 159.5,205.4 158.5,207.3 157.5,209.4 156.5,210.3 155.5,211.8 154.5,212.6 153.5,213.1 152.5,212.1 151.5,213.1 150.5,216.7 149.5,217.1 148.5,219.5 147.5,219.4 146.5,217.9 145.5,218.0 144.5,219.6 143.5,221.8 142.5,222.8 141.5,221.9 140.5,224.2 139.5,222.1 138.5,223.6 137.5,226.8 136.5,227.6 135.5,227.1 134.5,227.1 133.5,230.3 132.5,231.8 131.5,235.9 130.5,239.6 129.5,240.0 128.5,241.2 127.5,239.4 126.5,236.1 125.5,237.9 124.5,234.4 123.5,233.6 122.5,235.6 121.5,237.0 120.5,237.8 119.5,239.8 118.5,240.6 117.5,240.0 116.5,241.3 115.5,242.3 114.5,243.7 113.5,245.1 112.5,242.9 111.5,242.5 110.5,244.9 109.5,249.4 108.5,245.7 107.5,242.2 106.5,239.6 105.5,241.3 104.5,243.7 103.5,243.8 102.5,243.1 101.5,242.8 100.5,240.8 99.5,239.9 98.5,239.7 97.5,237.2 96.5,242.3 95.5,251.6 94.5,254.3 93.5,255.9 92.5,253.5 91.5,250.6 90.5,252.0 89.5,254.1 88.5,255.9 87.5,257.8 86.5,257.9 85.5,257.2 84.5,258.1 83.5,263.5 82.5,262.5 81.5,261.2 80.5,260.4 79.5,260.0 78.5,261.6 77.5,269.5 76.5,273.4 75.5,273.3 74.5,272.5 73.5,274.9 72.5,274.8 71.5,276.9 70.5,276.6 69.5,278.8 68.5,281.0 67.5,279.5 66.5,279.6 65.5,279.0 64.5,289.0 63.5,297.3 62.5,296.9 61.5,300.2 60.5,299.4 59.5,298.7 58.5,300.3 57.5,300.9 56.5,297.7 55.5,297.6 Z"></path>
</svg>