<svg width="720" height="360" xmlns="http://www.w3.org/2000/svg">

<style>
  .background {
    fill: none;
  }
  .axis {
    stroke: #111;
    stroke-width: 1;
  }
  .axis-label {
    text-anchor: middle;
  }
  .axis-units {
    font-size: 10px;
    font-family: Arial;
  }
  .y-axis-text {
    text-anchor: end;
  }
  .x-axis-text {
    text-anchor: middle;
  }
  .gridlines {
    stroke: black;
    stroke-width: 0.3;
    fill: none;
    opacity: 0.5;
  }
  .series-red {
    color: #ae5d40;
  }
  .series-green {
    color: #4f7754;
  }
  .series-blue {
    color: #433a60;
  }
  .data-series {
    fill: none;
    opacity: 0.9;
    stroke: currentColor;
    stroke-width: 2;
  }
  </style>

    <text class="axis-label" x="377.5" y="345">Time (1000 ticks)</text>
    <text class="axis-label" x="0" y="162.5" transform="translate(20.0) rotate(-90, 0, 162.5)">Population size</text>
    <line class="axis" x1="55" y1="310" x2="701" y2="310"></line>
    <line class="axis" x1="55" y1="310" x2="55" y2="15"></line>
    <g class="axis-units">
        <g class="x-axis-text">
            <text x="55.0" y="322">0</text>
            <text x="87.25" y="322">100</text>
            <text x="119.5" y="322">200</text>
            <text x="151.75" y="322">300</text>
            <text x="184.0" y="322">400</text>
            <text x="216.25" y="322">500</text>
            <text x="248.5" y="322">600</text>
            <text x="280.75" y="322">700</text>
            <text x="313.0" y="322">800</text>
            <text x="345.25" y="322">900</text>
            <text x="377.5" y="322">1000</text>
            <text x="409.75" y="322">1100</text>
            <text x="442.0" y="322">1200</text>
            <text x="474.25" y="322">1300</text>
            <text x="506.49999999999994" y="322">1400</text>
            <text x="538.75" y="322">1500</text>
            <text x="571.0" y="322">1600</text>
            <text x="603.25" y="322">1700</text>
            <text x="635.5" y="322">1800</text>
            <text x="667.75" y="322">1900</text>
            <text x="700.0" y="322">2000</text>
        </g>
        <g class="y-axis-text">
            <text x="52" y="313.0">0</text>
            <text x="52" y="280.22222222222223">20</text>
            <text x="52" y="247.44444444444446">40</text>
            <text x="52" y="214.66666666666669">60</text>
            <text x="52" y="181.88888888888889">80</text>
            <text x="52" y="149.11111111111111">100</text>
            <text x="52" y="116.33333333333334">120</text>
            <text x="52" y="83.55555555555557">140</text>
            <text x="52" y="50.77777777777777">160</text>
            <text x="52" y="18.0">180</text>
        </g>
    </g>
    <g class="gridlines">
        <line x1="87.5" y1="310" x2="87.5" y2="15"></line>
        <line x1="119.5" y1="310" x2="119.5" y2="15"></line>
        <line x1="151.5" y1="310" x2="151.5" y2="15"></line>
        <line x1="184.5" y1="310" x2="184.5" y2="15"></line>
        <line x1="216.5" y1="310" x2="216.5" y2="15"></line>
        <line x1="248.5" y1="310" x2="248.5" y2="15"></line>
        <line x1="280.5" y1="310" x2="280.5" y2="15"></line>
        <line x1="313.5" y1="310" x2="313.5" y2="15"></line>
        <line x1="345.5" y1="310" x2="345.5" y2="15"></line>
        <line x1="377.5" y1="310" x2="377.5" y2="15"></line>
        <line x1="409.5" y1="310" x2="409.5" y2="15"></line>
        <line x1="442.5" y1="310" x2="442.5" y2="15"></line>
        <line x1="474.5" y1="310" x2="474.5" y2="15"></line>
        <line x1="506.5" y1="310" x2="506.5" y2="15"></line>
        <line x1="538.5" y1="310" x2="538.5" y2="15"></line>
        <line x1="571.5" y1="310" x2="571.5" y2="15"></line>
        <line x1="603.5" y1="310" x2="603.5" y2="15"></line>
        <line x1="635.5" y1="310" x2="635.5" y2="15"></line>
        <line x1="667.5" y1="310" x2="667.5" y2="15"></line>
        <line x1="700.5" y1="310" x2="700.5" y2="15"></line>
        <line x1="55" y1="277.5" x2="700" y2="277.5"></line>
        <line x1="55" y1="244.5" x2="700" y2="244.5"></line>
        <line x1="55" y1="211.5" x2="700" y2="211.5"></line>
        <line x1="55" y1="178.5" x2="700" y2="178.5"></line>
        <line x1="55" y1="146.5" x2="700" y2="146.5"></line>
        <line x1="55" y1="113.5" x2="700" y2="113.5"></line>
        <line x1="55" y1="80.5" x2="700" y2="80.5"></line>
        <line x1="55" y1="47.5" x2="700" y2="47.5"></line>
        <line x1="55" y1="15.5" x2="700" y2="15.5"></line>
    </g>
    <path class="data-series series-green" d="M55.5,292.6 56.5,291.5 57.5,288.7 58.5,288.0 59.5,286.2 60.5,284.2 61.5,283.5 62.5,282.4 63.5,281.2 64.5,280.0 65.5,275.7 66.5,269.0 67.5,266.2 68.5,265.4 69.5,264.2 70.5,263.6 71.5,260.1 72.5,258.7 73.5,258.1 74.5,256.6 75.5,254.1 76.5,252.6 77.5,252.2 78.5,252.1 79.5,249.4 80.5,247.4 81.5,249.0 82.5,248.0 83.5,245.9 84.5,243.1 85.5,243.8 86.5,243.1 87.5,240.6 88.5,239.5 89.5,239.6 90.5,240.3 91.5,239.5 92.5,240.1 93.5,239.5 94.5,238.1 95.5,236.5 96.5,237.8 97.5,238.9 98.5,240.3 99.5,238.6 100.5,236.2 101.5,235.6 102.5,234.2 103.5,234.2 104.5,233.7 105.5,232.1 106.5,229.7 107.5,231.0 108.5,232.8 109.5,231.8 110.5,229.5 111.5,226.2 112.5,225.4 113.5,223.5 114.5,225.3 115.5,230.9 116.5,230.8 117.5,231.2 118.5,229.3 119.5,226.7 120.5,227.3 121.5,227.2 122.5,227.6 123.5,227.6 124.5,226.6 125.5,225.4 126.5,224.8 127.5,222.0 128.5,219.2 129.5,223.6 130.5,221.9 131.5,222.5 132.5,220.9 133.5,219.2 134.5,222.0 135.5,221.6 136.5,219.8 137.5,220.8 138.5,223.0 139.5,220.3 140.5,217.0 141.5,216.5 142.5,216.5 143.5,217.5 144.5,217.2 145.5,217.8 146.5,214.5 147.5,217.2 148.5,216.2 149.5,215.4 150.5,214.6 151.5,214.5 152.5,212.2 153.5,210.0 154.5,208.1 155.5,206.9 156.5,210.9 157.5,211.2 158.5,210.9 159.5,209.3 160.5,205.7 161.5,202.5 162.5,204.8 163.5,207.9 164.5,206.9 165.5,207.5 166.5,209.4 167.5,209.2 168.5,209.0 169.5,208.5 170.5,205.7 171.5,205.2 172.5,205.9 173.5,205.1 174.5,202.0 175.5,200.2 176.5,198.7 177.5,199.0 178.5,200.5 179.5,200.5 180.5,196.4 181.5,198.4 182.5,198.4 183.5,197.8 184.5,195.0 185.5,192.5 186.5,192.3 187.5,194.2 188.5,195.7 189.5,195.5 190.4,197.9 191.4,197.8 192.4,197.0 193.4,195.9 194.4,194.2 195.4,195.3 196.4,198.1 197.4,195.8 198.4,195.3 199.4,194.2 200.4,191.4 201.4,193.2 202.4,192.1 203.4,191.6 204.4,189.1 205.4,185.6 206.4,187.5 207.4,185.9 208.4,187.2 209.4,186.4 210.4,185.6 211.4,185.4 212.4,182.8 213.4,183.4 214.4,184.1 215.4,184.1 216.4,182.9 217.4,182.4 218.4,181.8 219.4,180.1 220.4,177.7 221.4,180.4 222.4,181.6 223.4,178.8 224.4,180.1 225.4,180.0 226.4,177.7 227.4,179.4 228.4,178.4 229.4,179.2 230.4,180.1 231.4,179.3 232.4,179.7 233.4,179.6 234.4,178.5 235.4,176.6 236.4,174.5 237.4,173.5 238.4,174.7 239.4,173.3 240.4,173.7 241.4,168.5 242.4,164.7 243.4,166.1 244.4,166.1 245.4,164.4 246.4,163.0 247.4,163.7 248.4,164.1 249.4,167.6 250.4,165.8 251.4,164.4 252.4,162.4 253.4,161.1 254.4,157.9 255.4,158.3 256.4,155.6 257.4,155.4 258.4,156.9 259.4,154.6 260.4,156.8 261.4,158.3 262.4,160.5 263.4,159.6 264.4,158.9 265.4,158.2 266.4,156.1 267.4,155.9 268.4,157.6 269.4,158.6 270.4,157.6 271.4,155.8 272.4,156.9 273.4,166.0 274.4,164.7 275.4,165.7 276.4,164.7 277.4,166.9 278.4,167.8 279.4,167.2 280.4,164.6 281.4,166.1 282.4,168.7 283.4,168.5 284.4,165.7 285.4,168.5 286.4,165.5 287.4,165.8 288.4,164.9 289.4,169.6 290.4,169.1 291.4,166.5 292.4,167.5 293.4,168.6 294.4,169.8 295.4,167.5 296.4,167.3 297.4,166.8 298.4,165.8 299.4,163.3 300.4,159.4 301.4,163.6 302.4,159.3 303.4,158.0 304.4,157.6 305.4,157.6 306.4,156.6 307.4,155.3 308.4,152.9 309.4,151.8 310.4,151.2 311.4,152.7 312.4,153.8 313.4,153.4 314.4,154.0 315.4,154.3 316.4,155.0 317.4,155.4 318.4,153.8 319.4,154.3 320.4,150.6 321.4,153.7 322.4,153.5 323.4,154.0 324.4,153.8 325.4,152.3 326.4,153.0 327.4,151.6 328.4,148.8 329.4,147.0 330.4,148.8 331.4,149.1 332.4,151.5 333.4,150.6 334.4,151.0 335.4,150.4 336.4,155.5 337.4,156.9 338.4,157.8 339.4,156.5 340.4,154.4 341.4,153.1 342.4,159.1 343.4,158.3 344.4,154.4 345.4,153.5 346.4,155.7 347.4,156.1 348.4,159.5 349.4,162.7 350.4,162.7 351.4,163.2 352.4,164.7 353.4,162.6 354.4,162.9 355.4,162.5 356.4,162.5 357.4,162.5 358.4,161.4 359.4,158.1 360.4,156.6 361.4,159.2 362.4,158.5 363.4,157.5 364.4,157.1 365.4,155.5 366.4,154.6 367.4,153.1 368.4,152.1 369.4,150.9 370.4,149.4 371.4,152.9 372.4,154.3 373.4,151.6 374.4,150.4 375.4,148.3 376.4,147.8 377.4,150.1 378.4,151.2 379.4,150.4 380.4,147.8 381.4,147.1 382.4,144.8 383.4,144.8 384.4,143.6 385.4,142.6 386.4,139.3 387.4,140.2 388.4,139.8 389.4,136.8 390.4,134.2 391.4,133.8 392.4,132.4 393.4,133.0 394.4,130.6 395.4,129.3 396.4,128.1 397.4,127.8 398.4,129.2 399.4,127.6 400.4,127.8 401.4,126.8 402.4,125.7 403.4,126.9 404.4,127.9 405.4,128.2 406.4,125.5 407.4,122.5 408.4,124.5 409.4,126.2 410.4,128.1 411.4,125.5 412.4,128.4 413.4,128.1 414.4,124.5 415.4,121.9 416.4,121.5 417.4,121.0 418.4,122.5 419.4,120.9 420.4,125.4 421.4,127.3 422.4,126.0 423.4,126.7 424.4,131.4 425.4,131.1 426.4,128.8 427.4,132.3 428.4,126.9 429.4,127.6 430.4,127.7 431.4,126.0 432.4,126.4 433.4,126.5 434.4,125.7 435.4,123.7 436.4,122.9 437.4,120.8 438.4,121.4 439.4,120.5 440.4,121.7 441.4,123.2 442.4,122.4 443.4,122.6 444.4,120.0 445.4,120.5 446.4,115.8 447.4,114.2 448.4,115.0 449.4,113.7 450.4,113.3 451.4,111.1 452.4,111.1 453.4,112.3 454.4,113.1 455.4,111.3 456.4,112.5 457.4,113.5 458.4,112.4 459.4,113.2 460.4,113.7 461.4,109.8 462.4,108.1 463.4,116.0 464.4,116.7 465.4,118.5 466.4,119.5 467.4,121.4 468.4,120.1 469.4,119.6 470.4,116.7 471.4,116.7 472.4,114.3 473.4,112.9 474.4,107.6 475.4,106.4 476.4,105.5 477.4,105.6 478.4,104.6 479.4,102.4 480.4,102.5 481.4,99.6 482.4,99.9 483.4,97.5 484.4,95.8 485.4,98.8 486.4,98.6 487.4,95.8 488.4,95.1 489.4,94.6 490.4,91.1 491.4,91.3 492.4,91.7 493.4,90.6 494.4,90.2 495.4,90.0 496.4,88.4 497.4,88.5 498.4,87.1 499.4,86.3 500.4,87.7 501.4,88.2 502.4,88.7 503.4,91.3 504.4,91.3 505.4,88.1 506.4,87.9 507.4,88.4 508.4,88.5 509.4,87.3 510.4,83.9 511.4,82.4 512.4,85.9 513.4,86.9 514.4,83.1 515.4,81.1 516.4,80.4 517.4,81.2 518.4,80.2 519.4,78.2 520.4,79.1 521.4,77.4 522.4,77.2 523.4,76.1 524.4,77.1 525.4,75.7 526.4,78.1 527.4,76.7 528.4,73.8 529.4,74.9 530.4,79.6 531.4,77.8 532.4,79.4 533.4,81.0 534.4,84.3 535.4,83.3 536.4,83.0 537.4,80.0 538.4,79.9 539.4,79.2 540.4,78.3 541.4,77.1 542.4,79.0 543.4,79.6 544.4,79.7 545.4,76.1 546.4,76.3 547.4,75.0 548.4,74.2 549.4,75.6 550.4,73.6 551.4,73.9 552.4,75.4 553.4,77.2 554.4,74.2 555.4,73.4 556.4,72.6 557.4,70.4 558.4,69.0 559.4,67.6 560.4,71.3 561.4,70.0 562.4,74.3 563.4,75.7 564.4,74.2 565.4,72.7 566.4,73.2 567.4,74.1 568.4,74.8 569.4,73.0 570.4,70.7 571.4,68.7 572.4,69.3 573.4,68.8 574.4,70.0 575.4,76.2 576.4,74.5 577.4,74.2 578.4,72.8 579.4,72.2 580.4,70.4 581.4,69.9 582.4,71.6 583.4,71.5 584.4,72.4 585.4,71.9 586.4,72.1 587.4,72.8 588.4,70.8 589.4,73.0 590.3,75.2 591.3,76.6 592.3,76.8 593.3,77.0 594.3,75.7 595.3,73.1 596.3,78.0 597.3,77.6 598.3,76.0 599.3,76.4 600.3,76.5 601.3,78.9 602.3,78.4 603.3,77.9 604.3,77.7 605.3,76.6 606.3,75.6 607.3,74.8 608.3,75.4 609.3,75.3 610.3,76.6 611.3,75.5 612.3,74.3 613.3,75.1 614.3,74.5 615.3,74.7 616.3,73.6 617.3,77.4 618.3,75.7 619.3,75.4 620.3,73.9 621.3,72.3 622.3,68.8 623.3,67.6 624.3,67.9 625.3,68.3 626.3,68.3 627.3,70.0 628.3,69.5 629.3,70.1 630.3,67.8 631.3,69.4 632.3,71.6 633.3,70.6 634.3,70.7 635.3,70.7 636.3,69.7 637.3,68.4 638.3,67.6 639.3,65.3 640.3,64.5 641.3,70.5 642.3,73.5 643.3,72.7 644.3,70.5 645.3,69.8 646.3,70.4 647.3,69.3 648.3,68.7 649.3,68.3 650.3,68.9 651.3,65.4 652.3,62.3 653.3,61.6 654.3,60.0 655.3,62.5 656.3,64.5 657.3,66.2 658.3,74.0 659.3,71.9 660.3,70.5 661.3,71.9 662.3,72.4 663.3,71.3 664.3,70.8 665.3,68.7 666.3,67.8 667.3,70.7 668.3,77.1 669.3,76.7 670.3,77.2 671.3,74.8 672.3,75.0 673.3,74.9 674.3,75.7 675.3,78.6 676.3,79.2 677.3,78.7 678.3,78.3 679.3,74.4 680.3,73.6 681.3,74.9 682.3,74.2 683.3,76.0 684.3,77.5 685.3,75.6 686.3,76.5 687.3,80.2 688.3,80.4 689.3,80.8 690.3,81.6 691.3,81.6 692.3,81.6 693.3,83.0 694.3,82.6 695.3,83.1 696.3,83.4 697.3,80.5 698.3,80.9 699.3,80.0 699.3,100.0 698.3,98.1 697.3,96.7 696.3,95.7 695.3,96.6 694.3,95.3 693.3,98.3 692.3,95.3 691.3,92.3 690.3,92.6 689.3,92.0 688.3,93.8 687.3,95.7 686.3,97.1 685.3,95.6 684.3,95.7 683.3,93.0 682.3,90.8 681.3,90.9 680.3,89.9 679.3,89.5 678.3,87.2 677.3,88.5 676.3,87.6 675.3,86.2 674.3,84.8 673.3,84.2 672.3,87.5 671.3,88.8 670.3,89.3 669.3,88.2 668.3,88.0 667.3,89.2 666.3,90.3 665.3,89.3 664.3,92.9 663.3,91.2 662.3,88.5 661.3,88.1 660.3,87.3 659.3,86.2 658.3,87.3 657.3,86.2 656.3,84.4 655.3,84.1 654.3,83.7 653.3,81.5 652.3,81.9 651.3,81.0 650.3,86.8 649.3,86.2 648.3,82.5 647.3,80.3 646.3,80.6 645.3,82.0 644.3,83.7 643.3,83.5 642.3,85.9 641.3,88.8 640.3,86.5 639.3,88.7 638.3,89.2 637.3,87.8 636.3,88.1 635.3,89.3 634.3,89.0 633.3,86.8 632.3,83.0 631.3,81.8 630.3,80.8 629.3,81.7 628.3,81.1 627.3,80.4 626.3,79.6 625.3,78.3 624.3,78.2 623.3,79.8 622.3,95.6 621.3,96.5 620.3,97.4 619.3,96.2 618.3,94.0 617.3,92.7 616.3,90.4 615.3,88.8 614.3,89.8 613.3,89.8 612.3,88.8 611.3,88.0 610.3,84.9 609.3,87.5 608.3,84.6 607.3,84.9 606.3,85.6 605.3,87.3 604.3,87.7 603.3,87.7 602.3,88.9 601.3,88.6 600.3,85.7 599.3,89.3 598.3,89.5 597.3,88.5 596.3,89.2 595.3,85.8 594.3,84.9 593.3,84.3 592.3,84.8 591.3,84.6 590.3,82.8 589.4,81.4 588.4,82.7 587.4,85.3 586.4,86.1 585.4,85.7 584.4,83.2 583.4,80.9 582.4,80.8 581.4,79.3 580.4,83.9 579.4,90.7 578.4,91.7 577.4,92.1 576.4,92.0 575.4,92.9 574.4,92.0 573.4,91.9 572.4,87.3 571.4,85.7 570.4,85.5 569.4,87.0 568.4,88.4 567.4,89.0 566.4,90.5 565.4,86.1 564.4,87.0 563.4,89.2 562.4,85.3 561.4,84.6 560.4,83.4 559.4,81.9 558.4,80.0 557.4,81.2 556.4,90.1 555.4,88.4 554.4,87.5 553.4,85.8 552.4,85.6 551.4,85.3 550.4,85.3 549.4,86.5 548.4,86.2 547.4,85.2 546.4,86.8 545.4,88.0 544.4,89.1 543.4,94.0 542.4,95.9 541.4,97.0 540.4,95.4 539.4,93.7 538.4,95.2 537.4,95.3 536.4,96.9 535.4,101.9 534.4,98.8 533.4,98.7 532.4,98.3 531.4,101.3 530.4,99.9 529.4,98.3 528.4,97.4 527.4,95.4 526.4,93.8 525.4,93.2 524.4,93.8 523.4,92.8 522.4,89.5 521.4,89.6 520.4,95.1 519.4,93.7 518.4,95.9 517.4,93.2 516.4,91.1 515.4,93.4 514.4,94.5 513.4,97.0 512.4,99.2 511.4,103.5 510.4,100.8 509.4,100.1 508.4,100.5 507.4,104.9 506.4,103.0 505.4,103.7 504.4,102.9 503.4,105.7 502.4,104.6 501.4,103.3 500.4,102.2 499.4,102.6 498.4,104.6 497.4,104.1 496.4,102.1 495.4,104.7 494.4,103.2 493.4,101.8 492.4,99.3 491.4,102.4 490.4,104.8 489.4,105.1 488.4,107.5 487.4,108.1 486.4,109.0 485.4,109.1 484.4,109.6 483.4,115.2 482.4,115.0 481.4,117.0 480.4,121.6 479.4,119.4 478.4,120.0 477.4,122.0 476.4,121.8 475.4,124.6 474.4,125.0 473.4,130.3 472.4,133.4 471.4,132.6 470.4,133.0 469.4,132.9 468.4,135.4 467.4,135.4 466.4,134.1 465.4,132.9 464.4,132.2 463.4,131.8 462.4,130.4 461.4,130.4 460.4,128.1 459.4,129.9 458.4,127.4 457.4,124.4 456.4,123.7 455.4,125.7 454.4,124.0 453.4,122.0 452.4,122.8 451.4,124.0 450.4,124.2 449.4,128.0 448.4,128.5 447.4,128.7 446.4,131.8 445.4,138.1 444.4,138.8 443.4,138.2 442.4,136.0 441.4,133.3 440.4,134.2 439.4,137.0 438.4,137.1 437.4,137.7 436.4,136.2 435.4,136.3 434.4,135.1 433.4,135.4 432.4,135.3 431.4,136.5 430.4,137.9 429.4,138.1 428.4,139.1 427.4,141.6 426.4,142.0 425.4,140.0 424.4,140.6 423.4,141.1 422.4,140.8 421.4,139.7 420.4,138.0 419.4,136.9 418.4,136.4 417.4,133.9 416.4,133.7 415.4,140.9 414.4,142.5 413.4,141.6 412.4,143.3 411.4,140.9 410.4,139.3 409.4,139.0 408.4,138.6 407.4,139.7 406.4,139.3 405.4,139.6 404.4,141.3 403.4,141.6 402.4,143.0 401.4,140.1 400.4,141.6 399.4,142.8 398.4,139.1 397.4,138.8 396.4,137.9 395.4,138.0 394.4,139.7 393.4,142.3 392.4,151.9 391.4,152.6 390.4,150.1 389.4,149.5 388.4,151.9 387.4,151.8 386.4,153.8 385.4,157.8 384.4,160.0 383.4,160.3 382.4,157.5 381.4,157.7 380.4,159.6 379.4,159.5 378.4,160.9 377.4,161.3 376.4,166.0 375.4,167.5 374.4,164.6 373.4,172.6 372.4,174.8 371.4,172.4 370.4,170.1 369.4,167.8 368.4,164.7 367.4,163.0 366.4,161.8 365.4,168.9 364.4,170.3 363.4,170.0 362.4,171.2 361.4,173.8 360.4,172.1 359.4,173.3 358.4,174.3 357.4,177.5 356.4,173.2 355.4,174.1 354.4,174.0 353.4,173.9 352.4,175.3 351.4,179.2 350.4,180.6 349.4,181.7 348.4,179.2 347.4,176.5 346.4,174.5 345.4,173.9 344.4,174.2 343.4,171.8 342.4,171.1 341.4,168.9 340.4,169.5 339.4,169.3 338.4,172.6 337.4,171.0 336.4,170.3 335.4,169.6 334.4,166.7 333.4,166.3 332.4,166.1 331.4,165.2 330.4,165.1 329.4,164.5 328.4,165.4 327.4,164.1 326.4,166.6 325.4,166.5 324.4,166.8 323.4,172.6 322.4,174.0 321.4,173.5 320.4,171.9 319.4,170.4 318.4,167.5 317.4,166.2 316.4,167.4 315.4,167.2 314.4,163.4 313.4,163.8 312.4,171.3 311.4,174.5 310.4,174.1 309.4,170.1 308.4,171.7 307.4,171.8 306.4,172.3 305.4,172.4 304.4,171.5 303.4,172.5 302.4,177.4 301.4,175.9 300.4,177.9 299.4,179.0 298.4,181.0 297.4,179.6 296.4,178.5 295.4,179.3 294.4,182.0 293.4,184.1 292.4,184.1 291.4,184.7 290.4,185.8 289.4,186.5 288.4,184.7 287.4,185.0 286.4,183.0 285.4,183.1 284.4,183.8 283.4,183.0 282.4,184.3 281.4,186.3 280.4,184.3 279.4,185.8 278.4,185.4 277.4,187.2 276.4,186.3 275.4,184.3 274.4,181.6 273.4,178.3 272.4,177.5 271.4,176.1 270.4,173.3 269.4,172.0 268.4,171.1 267.4,171.8 266.4,174.3 265.4,178.0 264.4,177.2 263.4,175.0 262.4,174.4 261.4,175.6 260.4,174.0 259.4,171.0 258.4,168.4 257.4,173.0 256.4,183.6 255.4,189.3 254.4,192.5 253.4,191.3 252.4,191.5 251.4,191.5 250.4,192.3 249.4,188.8 248.4,187.5 247.4,187.7 246.4,186.5 245.4,186.7 244.4,189.7 243.4,188.6 242.4,189.9 241.4,187.1 240.4,188.3 239.4,188.8 238.4,188.7 237.4,188.7 236.4,188.1 235.4,188.6 234.4,190.6 233.4,191.3 232.4,190.7 231.4,188.6 230.4,188.7 229.4,194.6 228.4,196.5 227.4,193.6 226.4,192.2 225.4,193.8 224.4,194.8 223.4,192.7 222.4,195.3 221.4,189.4 220.4,188.6 219.4,192.4 218.4,193.6 217.4,192.4 216.4,192.0 215.4,194.8 214.4,194.9 213.4,195.0 212.4,194.1 211.4,195.2 210.4,194.5 209.4,197.3 208.4,212.5 207.4,215.4 206.4,214.6 205.4,214.6 204.4,213.6 203.4,213.6 202.4,209.2 201.4,205.1 200.4,203.1 199.4,204.3 198.4,205.1 197.4,206.5 196.4,207.5 195.4,209.2 194.4,212.7 193.4,210.7 192.4,208.1 191.4,208.2 190.4,208.5 189.5,209.9 188.5,206.2 187.5,205.2 186.5,208.7 185.5,213.6 184.5,210.5 183.5,213.0 182.5,211.2 181.5,208.9 180.5,210.0 179.5,211.3 178.5,209.4 177.5,209.2 176.5,208.4 175.5,213.7 174.5,223.5 173.5,224.4 172.5,224.5 171.5,222.6 170.5,221.1 169.5,220.2 168.5,221.4 167.5,223.0 166.5,223.6 165.5,224.2 164.5,224.3 163.5,222.4 162.5,224.7 161.5,227.4 160.5,233.0 159.5,233.5 158.5,231.7 157.5,232.3 156.5,233.8 155.5,233.7 154.5,230.8 153.5,229.0 152.5,227.6 151.5,225.1 150.5,226.7 149.5,227.7 148.5,226.2 147.5,227.2 146.5,228.3 145.5,230.3 144.5,228.8 143.5,227.8 142.5,228.7 141.5,231.0 140.5,233.2 139.5,234.7 138.5,235.4 137.5,234.5 136.5,236.6 135.5,234.6 134.5,233.0 133.5,234.9 132.5,235.1 131.5,234.1 130.5,233.6 129.5,232.5 128.5,235.2 127.5,238.9 126.5,241.2 125.5,239.5 124.5,239.5 123.5,237.8 122.5,238.2 121.5,236.7 120.5,241.4 119.5,245.4 118.5,246.2 117.5,249.4 116.5,250.4 115.5,249.6 114.5,245.4 113.5,242.6 112.5,242.1 111.5,242.4 110.5,242.9 109.5,244.3 108.5,246.1 107.5,246.8 106.5,242.0 105.5,245.1 104.5,247.2 103.5,246.5 102.5,245.1 101.5,246.9 100.5,247.2 99.5,248.8 98.5,251.4 97.5,249.8 96.5,250.0 95.5,251.3 94.5,251.4 93.5,253.2 92.5,255.4 91.5,259.4 90.5,260.0 89.5,259.6 88.5,258.8 87.5,257.4 86.5,257.9 85.5,259.3 84.5,258.0 83.5,259.1 82.5,259.4 81.5,262.4 80.5,265.3 79.5,265.0 78.5,265.1 77.5,262.9 76.5,268.1 75.5,278.9 74.5,277.6 73.5,280.2 72.5,277.4 71.5,278.3 70.5,289.8 69.5,289.5 68.5,288.7 67.5,286.6 66.5,288.5 65.5,287.3 64.5,292.3 63.5,293.6 62.5,296.7 61.5,294.7 60.5,294.4 59.5,296.6 58.5,297.2 57.5,299.2 56.5,300.1 55.5,298.4 Z"></path>
</svg>