<svg width="720" height="360" xmlns="http://www.w3.org/2000/svg">

<style>
  .background {
    fill: none;
  }
  .axis {
    stroke: #111;
    stroke-width: 1;
  }
  .axis-label {
    text-anchor: middle;
  }
  .axis-units {
    font-size: 10px;
    font-family: Arial;
  }
  .y-axis-text {
    text-anchor: end;
  }
  .x-axis-text {
    text-anchor: middle;
  }
  .gridlines {
    stroke: black;
    stroke-width: 0.3;
    fill: none;
    opacity: 0.5;
  }
  .series-red {
    color: #ae5d40;
  }
  .series-green {
    color: #4f7754;
  }
  .series-blue {
    color: #433a60;
  }
  .data-series {
    fill: none;
    opacity: 0.9;
    stroke: currentColor;
    stroke-width: 2;
  }
  </style>

    <text class="axis-label" x="377.5" y="345">Time (1000 ticks)</text>
    <text class="axis-label" x="0" y="162.5" transform="translate(20.0) rotate(-90, 0, 162.5)">Population size</text>
    <line class="axis" x1="55" y1="310" x2="701" y2="310"></line>
    <line class="axis" x1="55" y1="310" x2="55" y2="15"></line>
    <g class="axis-units">
        <g class="x-axis-text">
            <text x="55.0" y="322">0</text>
            <text x="87.25" y="322">100</text>
            <text x="119.5" y="322">200</text>
            <text x="151.75" y="322">300</text>
            <text x="184.0" y="322">400</text>
            <text x="216.25" y="322">500</text>
            <text x="248.5" y="322">600</text>
            <text x="280.75" y="322">700</text>
            <text x="313.0" y="322">800</text>
            <text x="345.25" y="322">900</text>
            <text x="377.5" y="322">1000</text>
            <text x="409.75" y="322">1100</text>
            <text x="442.0" y="322">1200</text>
            <text x="474.25" y="322">1300</text>
            <text x="506.49999999999994" y="322">1400</text>
            <text x="538.75" y="322">1500</text>
            <text x="571.0" y="322">1600</text>
            <text x="603.25" y="322">1700</text>
            <text x="635.5" y="322">1800</text>
            <text x="667.75" y="322">1900</text>
            <text x="700.0" y="322">2000</text>
        </g>
        <g class="y-axis-text">
            <text x="52" y="313.0">0</text>
            <text x="52" y="280.22222222222223">20</text>
            <text x="52" y="247.44444444444446">40</text>
            <text x="52" y="214.66666666666669">60</text>
            <text x="52" y="181.88888888888889">80</text>
            <text x="52" y="149.11111111111111">100</text>
            <text x="52" y="116.33333333333334">120</text>
            <text x="52" y="83.55555555555557">140</text>
            <text x="52" y="50.77777777777777">160</text>
            <text x="52" y="18.0">180</text>
        </g>
    </g>
    <g class="gridlines">
        <line x1="87.5" y1="310" x2="87.5" y2="15"></line>
        <line x1="119.5" y1="310" x2="119.5" y2="15"></line>
        <line x1="151.5" y1="310" x2="151.5" y2="15"></line>
        <line x1="184.5" y1="310" x2="184.5" y2="15"></line>
        <line x1="216.5" y1="310" x2="216.5" y2="15"></line>
        <line x1="248.5" y1="310" x2="248.5" y2="15"></line>
        <line x1="280.5" y1="310" x2="280.5" y2="15"></line>
        <line x1="313.5" y1="310" x2="313.5" y2="15"></line>
        <line x1="345.5" y1="310" x2="345.5" y2="15"></line>
        <line x1="377.5" y1="310" x2="377.5" y2="15"></line>
        <line x1="409.5" y1="310" x2="409.5" y2="15"></line>
        <line x1="442.5" y1="310" x2="442.5" y2="15"></line>
        <line x1="474.5" y1="310" x2="474.5" y2="15"></line>
        <line x1="506.5" y1="310" x2="506.5" y2="15"></line>
        <line x1="538.5" y1="310" x2="538.5" y2="15"></line>
        <line x1="571.5" y1="310" x2="571.5" y2="15"></line>
        <line x1="603.5" y1="310" x2="603.5" y2="15"></line>
        <line x1="635.5" y1="310" x2="635.5" y2="15"></line>
        <line x1="667.5" y1="310" x2="667.5" y2="15"></line>
        <line x1="700.5" y1="310" x2="700.5" y2="15"></line>
        <line x1="55" y1="277.5" x2="700" y2="277.5"></line>
        <line x1="55" y1="244.5" x2="700" y2="244.5"></line>
        <line x1="55" y1="211.5" x2="700" y2="211.5"></line>
        <line x1="55" y1="178.5" x2="700" y2="178.5"></line>
        <line x1="55" y1="146.5" x2="700" y2="146.5"></line>
        <line x1="55" y1="113.5" x2="700" y2="113.5"></line>
        <line x1="55" y1="80.5" x2="700" y2="80.5"></line>
        <line x1="55" y1="47.5" x2="700" y2="47.5"></line>
        <line x1="55" y1="15.5" x2="700" y2="15.5"></line>
    </g>
    <path class="data-series series-green" d="M55.1,295.3 55.3,295.5 55.5,295.5 55.7,295.5 55.9,295.5 56.0,296.0 56.2,295.6 56.4,295.4 56.6,295.4 56.8,295.9 57.0,296.4 57.2,296.3 57.4,296.5 57.6,297.1 57.8,297.3 58.0,297.6 58.2,297.7 58.4,297.3 58.6,297.2 58.8,297.5 59.0,297.2 59.1,297.3 59.3,296.9 59.5,296.5 59.7,296.8 59.9,296.3 60.1,295.9 60.3,296.5 60.5,296.9 60.7,296.5 60.9,296.5 61.1,297.1 61.3,297.4 61.5,297.3 61.7,296.9 61.9,296.5 62.0,296.3 62.2,296.5 62.4,296.7 62.6,296.8 62.8,296.7 63.0,296.8 63.2,296.9 63.4,297.0 63.6,297.3 63.8,297.6 64.0,298.0 64.2,298.3 64.4,298.6 64.6,298.8 64.8,298.7 64.9,298.8 65.1,298.5 65.3,298.5 65.5,298.0 65.7,297.6 65.9,297.4 66.1,297.8 66.3,297.5 66.5,296.7 66.7,296.6 66.9,296.2 67.1,295.9 67.3,296.1 67.5,296.1 67.7,296.3 67.9,296.5 68.0,296.6 68.2,296.8 68.4,296.9 68.6,297.6 68.8,297.6 69.0,297.5 69.2,297.5 69.4,297.0 69.6,296.7 69.8,296.8 70.0,296.6 70.2,296.7 70.4,297.6 70.6,297.5 70.8,297.3 70.9,297.0 71.1,296.7 71.3,296.8 71.5,296.4 71.7,295.7 71.9,295.5 72.1,296.7 72.3,297.2 72.5,296.3 72.7,296.1 72.9,295.8 73.1,295.9 73.3,296.3 73.5,296.3 73.7,296.4 73.9,296.7 74.0,296.9 74.2,296.9 74.4,297.3 74.6,297.6 74.8,297.7 75.0,297.6 75.2,297.9 75.4,297.5 75.6,296.8 75.8,296.4 76.0,296.4 76.2,296.5 76.4,296.2 76.6,296.2 76.8,296.1 76.9,296.3 77.1,296.6 77.3,297.1 77.5,298.1 77.7,298.3 77.9,298.1 78.1,298.0 78.3,298.0 78.5,297.9 78.7,297.7 78.9,298.3 79.1,298.7 79.3,299.1 79.5,299.3 79.7,299.6 79.8,299.3 80.0,299.2 80.2,298.9 80.4,298.9 80.6,299.7 80.8,300.0 81.0,300.2 81.2,300.3 81.4,300.4 81.6,300.6 81.8,301.6 82.0,301.7 82.2,300.9 82.4,299.5 82.6,299.0 82.8,298.9 82.9,298.5 83.1,299.0 83.3,298.6 83.5,298.1 83.7,297.8 83.9,297.0 84.1,296.6 84.3,294.6 84.5,293.7 84.7,293.5 84.9,293.3 85.1,293.5 85.3,293.3 85.5,293.1 85.7,293.6 85.8,293.8 86.0,294.1 86.2,293.7 86.4,293.9 86.6,293.5 86.8,292.5 87.0,291.8 87.2,291.8 87.4,292.0 87.6,292.1 87.8,292.3 88.0,291.6 88.2,290.8 88.4,290.1 88.6,288.6 88.7,289.1 88.9,288.6 89.1,289.3 89.3,289.5 89.5,289.7 89.7,290.2 89.9,291.0 90.1,291.2 90.3,289.9 90.5,290.6 90.7,291.5 90.9,290.4 91.1,290.8 91.3,290.2 91.5,289.9 91.7,289.3 91.8,289.0 92.0,289.0 92.2,289.2 92.4,289.4 92.6,289.8 92.8,289.8 93.0,290.3 93.2,290.1 93.4,289.4 93.6,289.6 93.8,290.5 94.0,290.7 94.2,290.8 94.4,291.5 94.6,292.4 94.7,291.8 94.9,291.9 95.1,293.0 95.3,293.9 95.5,294.6 95.7,294.1 95.9,293.5 96.1,294.0 96.3,294.1 96.5,294.5 96.7,294.9 96.9,294.8 97.1,294.1 97.3,294.1 97.5,295.0 97.7,295.1 97.8,295.6 98.0,295.4 98.2,295.9 98.4,295.8 98.6,295.6 98.8,294.8 99.0,294.4 99.2,294.7 99.4,295.2 99.6,295.8 99.8,296.7 100.0,297.2 100.2,296.6 100.4,296.2 100.6,296.1 100.7,296.5 100.9,296.8 101.1,296.8 101.3,297.5 101.5,297.6 101.7,297.7 101.9,297.7 102.1,298.0 102.3,299.3 102.5,300.0 102.7,300.2 102.9,299.5 103.1,298.5 103.3,297.5 103.5,297.6 103.6,297.3 103.8,297.4 104.0,297.2 104.2,297.1 104.4,296.9 104.6,296.5 104.8,296.6 105.0,296.3 105.2,296.4 105.4,296.6 105.6,296.6 105.8,296.9 106.0,296.7 106.2,297.4 106.4,296.8 106.6,298.1 106.7,297.3 106.9,297.5 107.1,298.0 107.3,297.9 107.5,297.6 107.7,297.8 107.9,297.5 108.1,297.5 108.3,296.6 108.5,296.3 108.7,296.9 108.9,296.2 109.1,296.1 109.3,295.7 109.5,295.9 109.6,295.6 109.8,295.4 110.0,295.5 110.2,295.9 110.4,295.6 110.6,296.3 110.8,296.5 111.0,297.1 111.2,298.0 111.4,298.2 111.6,298.4 111.8,297.9 112.0,297.3 112.2,297.6 112.4,297.4 112.6,297.0 112.7,296.9 112.9,297.2 113.1,297.2 113.3,297.8 113.5,298.2 113.7,297.4 113.9,297.8 114.1,298.7 114.3,299.3 114.5,300.1 114.7,299.9 114.9,300.0 115.1,299.9 115.3,299.1 115.5,299.1 115.6,299.3 115.8,299.1 116.0,299.1 116.2,299.1 116.4,299.2 116.6,299.3 116.8,299.7 117.0,300.1 117.2,300.4 117.4,300.5 117.6,300.3 117.8,300.1 118.0,300.3 118.2,300.9 118.4,301.1 118.5,300.6 118.7,300.0 118.9,300.0 119.1,300.1 119.3,299.5 119.5,299.0 119.7,298.2 119.9,298.3 120.1,297.9 120.3,299.0 120.5,299.3 120.7,299.0 120.9,298.5 121.1,298.3 121.3,298.2 121.5,298.6 121.6,299.0 121.8,299.4 122.0,299.1 122.2,298.9 122.4,298.3 122.6,298.4 122.8,298.1 123.0,297.0 123.2,297.0 123.4,296.8 123.6,297.1 123.8,297.4 124.0,297.3 124.2,297.0 124.4,296.9 124.5,297.2 124.7,296.8 124.9,296.3 125.1,295.9 125.3,295.7 125.5,295.6 125.7,295.5 125.9,295.0 126.1,295.2 126.3,295.5 126.5,295.5 126.7,295.2 126.9,295.1 127.1,294.9 127.3,296.0 127.4,296.2 127.6,294.9 127.8,294.9 128.0,295.7 128.2,296.4 128.4,296.0 128.6,295.9 128.8,295.9 129.0,295.2 129.2,294.5 129.4,294.3 129.6,294.2 129.8,295.0 130.0,294.1 130.2,293.7 130.4,292.9 130.5,293.5 130.7,293.4 130.9,293.5 131.1,293.1 131.3,293.2 131.5,293.9 131.7,293.9 131.9,294.0 132.1,293.9 132.3,293.6 132.5,293.6 132.7,293.7 132.9,293.6 133.1,293.9 133.3,294.1 133.4,294.6 133.6,294.9 133.8,295.1 134.0,295.6 134.2,295.8 134.4,296.0 134.6,296.4 134.8,295.7 135.0,295.6 135.2,295.3 135.4,295.0 135.6,294.4 135.8,294.4 136.0,294.4 136.2,294.1 136.4,294.1 136.5,295.1 136.7,295.2 136.9,294.1 137.1,293.7 137.3,294.2 137.5,294.7 137.7,294.8 137.9,294.8 138.1,295.0 138.3,294.5 138.5,294.5 138.7,294.9 138.9,295.6 139.1,295.5 139.3,295.9 139.4,297.0 139.6,297.1 139.8,296.8 140.0,296.8 140.2,296.4 140.4,296.1 140.6,296.4 140.8,295.8 141.0,296.1 141.2,296.3 141.4,296.7 141.6,295.8 141.8,296.0 142.0,296.2 142.2,296.2 142.3,296.2 142.5,295.9 142.7,295.5 142.9,295.8 143.1,295.8 143.3,295.9 143.5,295.3 143.7,294.5 143.9,294.9 144.1,294.8 144.3,294.1 144.5,294.2 144.7,294.2 144.9,294.2 145.1,294.2 145.3,294.3 145.4,294.4 145.6,294.7 145.8,294.6 146.0,294.5 146.2,294.8 146.4,294.9 146.6,294.8 146.8,294.5 147.0,294.3 147.2,294.3 147.4,293.7 147.6,293.2 147.8,292.4 148.0,291.8 148.2,291.9 148.3,292.6 148.5,292.9 148.7,292.3 148.9,291.5 149.1,292.0 149.3,292.2 149.5,292.4 149.7,292.8 149.9,293.6 150.1,293.5 150.3,293.3 150.5,293.3 150.7,293.3 150.9,292.9 151.1,292.1 151.3,291.7 151.4,292.4 151.6,292.9 151.8,292.9 152.0,293.0 152.2,293.3 152.4,293.8 152.6,294.2 152.8,294.2 153.0,294.0 153.2,294.2 153.4,295.6 153.6,296.0 153.8,297.0 154.0,297.9 154.2,298.5 154.3,299.1 154.5,299.3 154.7,298.8 154.9,298.5 155.1,298.2 155.3,298.1 155.5,297.8 155.7,298.1 155.9,297.8 156.1,297.9 156.3,298.2 156.5,298.8 156.7,298.3 156.9,298.2 157.1,298.0 157.2,297.9 157.4,298.1 157.6,298.4 157.8,298.3 158.0,298.5 158.2,298.5 158.4,298.4 158.6,299.0 158.8,299.3 159.0,299.5 159.2,299.6 159.4,300.2 159.6,300.6 159.8,301.2 160.0,301.5 160.2,301.3 160.3,301.2 160.5,301.2 160.7,301.2 160.9,301.2 161.1,301.1 161.3,301.0 161.5,300.8 161.7,300.9 161.9,300.8 162.1,300.9 162.3,301.1 162.5,301.1 162.7,299.8 162.9,299.8 163.1,300.3 163.2,300.5 163.4,300.5 163.6,300.6 163.8,300.4 164.0,300.2 164.2,300.4 164.4,300.4 164.6,300.4 164.8,300.2 165.0,299.2 165.2,299.5 165.4,299.2 165.6,298.7 165.8,298.3 166.0,298.3 166.1,298.4 166.3,298.6 166.5,299.1 166.7,299.3 166.9,299.3 167.1,299.5 167.3,299.2 167.5,299.7 167.7,299.8 167.9,299.6 168.1,299.4 168.3,299.8 168.5,300.3 168.7,300.0 168.9,299.8 169.1,299.9 169.2,300.6 169.4,300.4 169.6,300.3 169.8,300.3 170.0,300.6 170.2,300.5 170.4,300.6 170.6,300.7 170.8,300.4 171.0,299.6 171.2,299.3 171.4,299.7 171.6,299.5 171.8,299.9 172.0,300.1 172.1,300.7 172.3,301.6 172.5,301.8 172.7,302.1 172.9,303.0 173.1,302.8 173.3,302.4 173.5,302.4 173.7,302.3 173.9,302.0 174.1,301.3 174.3,301.5 174.5,301.7 174.7,301.6 174.9,301.5 175.1,301.8 175.2,301.7 175.4,302.2 175.6,302.5 175.8,302.0 176.0,302.2 176.2,302.3 176.4,302.5 176.6,302.4 176.8,302.5 177.0,302.7 177.2,302.5 177.4,301.9 177.6,301.7 177.8,301.3 178.0,300.6 178.1,300.3 178.3,300.1 178.5,300.1 178.7,299.7 178.9,299.7 179.1,299.6 179.3,299.8 179.5,300.1 179.7,299.9 179.9,299.6 180.1,300.0 180.3,300.1 180.5,299.9 180.7,300.2 180.9,299.0 181.0,297.5 181.2,297.6 181.4,297.4 181.6,297.6 181.8,297.0 182.0,297.0 182.2,296.8 182.4,296.8 182.6,296.5 182.8,296.7 183.0,296.5 183.2,296.9 183.4,296.8 183.6,296.8 183.8,295.8 184.0,296.2 184.1,295.9 184.3,296.4 184.5,297.1 184.7,297.5 184.9,298.0 185.1,298.1 185.3,298.3 185.5,298.3 185.7,298.8 185.9,299.2 186.1,299.0 186.3,299.9 186.5,300.2 186.7,300.1 186.9,300.3 187.0,300.2 187.2,300.1 187.4,299.6 187.6,299.7 187.8,300.0 188.0,299.7 188.2,300.0 188.4,300.1 188.6,300.1 188.8,300.1 189.0,299.8 189.2,299.5 189.4,299.4 189.6,299.5 189.8,299.6 190.0,299.6 190.1,300.0 190.3,300.3 190.5,300.3 190.7,300.4 190.9,300.8 191.1,300.6 191.3,300.6 191.5,301.3 191.7,301.3 191.9,301.5 192.1,301.6 192.3,302.3 192.5,302.7 192.7,302.7 192.9,302.4 193.0,302.8 193.2,303.3 193.4,303.3 193.6,303.4 193.8,303.8 194.0,304.0 194.2,304.3 194.4,304.1 194.6,304.3 194.8,304.1 195.0,304.7 195.2,304.5 195.4,304.2 195.6,304.4 195.8,304.1 195.9,303.4 196.1,303.3 196.3,303.0 196.5,302.9 196.7,302.5 196.9,300.8 197.1,300.2"></path>
    <text text-anchor="end" fill="currentColor" font-weight="600" class="series-green" x="696" y="90">Food</text>
    <text text-anchor="end" fill="currentColor" font-weight="600" class="series-blue" x="696" y="248">Creatures</text>
</svg>