<svg width="720" height="360" xmlns="http://www.w3.org/2000/svg">

<style>
  .background {
    fill: none;
  }
  .axis {
    stroke: #111;
    stroke-width: 1;
  }
  .axis-label {
    text-anchor: middle;
  }
  .axis-units {
    font-size: 10px;
    font-family: Arial;
  }
  .y-axis-text {
    text-anchor: end;
  }
  .x-axis-text {
    text-anchor: middle;
  }
  .gridlines {
    stroke: black;
    stroke-width: 0.3;
    fill: none;
    opacity: 0.5;
  }
  .series-red {
    color: #ae5d40;
  }
  .series-green {
    color: #4f7754;
  }
  .series-blue {
    color: #433a60;
  }
  .data-series {
    fill: none;
    opacity: 0.9;
    stroke: currentColor;
    stroke-width: 2;
  }
  </style>

    <text class="axis-label" x="377.5" y="345">Time (1000 ticks)</text>
    <text class="axis-label" x="0" y="162.5" transform="translate(20.0) rotate(-90, 0, 162.5)">Population size</text>
    <line class="axis" x1="55" y1="310" x2="701" y2="310"></line>
    <line class="axis" x1="55" y1="310" x2="55" y2="15"></line>
    <g class="axis-units">
        <g class="x-axis-text">
            <text x="55.0" y="322">0</text>
            <text x="87.25" y="322">100</text>
            <text x="119.5" y="322">200</text>
            <text x="151.75" y="322">300</text>
            <text x="184.0" y="322">400</text>
            <text x="216.25" y="322">500</text>
            <text x="248.5" y="322">600</text>
            <text x="280.75" y="322">700</text>
            <text x="313.0" y="322">800</text>
            <text x="345.25" y="322">900</text>
            <text x="377.5" y="322">1000</text>
            <text x="409.75" y="322">1100</text>
            <text x="442.0" y="322">1200</text>
            <text x="474.25" y="322">1300</text>
            <text x="506.49999999999994" y="322">1400</text>
            <text x="538.75" y="322">1500</text>
            <text x="571.0" y="322">1600</text>
            <text x="603.25" y="322">1700</text>
            <text x="635.5" y="322">1800</text>
            <text x="667.75" y="322">1900</text>
            <text x="700.0" y="322">2000</text>
        </g>
        <g class="y-axis-text">
            <text x="52" y="313.0">0</text>
            <text x="52" y="280.22222222222223">20</text>
            <text x="52" y="247.44444444444446">40</text>
            <text x="52" y="214.66666666666669">60</text>
            <text x="52" y="181.88888888888889">80</text>
            <text x="52" y="149.11111111111111">100</text>
            <text x="52" y="116.33333333333334">120</text>
            <text x="52" y="83.55555555555557">140</text>
            <text x="52" y="50.77777777777777">160</text>
            <text x="52" y="18.0">180</text>
        </g>
    </g>
    <g class="gridlines">
        <line x1="87.5" y1="310" x2="87.5" y2="15"></line>
        <line x1="119.5" y1="310" x2="119.5" y2="15"></line>
        <line x1="151.5" y1="310" x2="151.5" y2="15"></line>
        <line x1="184.5" y1="310" x2="184.5" y2="15"></line>
        <line x1="216.5" y1="310" x2="216.5" y2="15"></line>
        <line x1="248.5" y1="310" x2="248.5" y2="15"></line>
        <line x1="280.5" y1="310" x2="280.5" y2="15"></line>
        <line x1="313.5" y1="310" x2="313.5" y2="15"></line>
        <line x1="345.5" y1="310" x2="345.5" y2="15"></line>
        <line x1="377.5" y1="310" x2="377.5" y2="15"></line>
        <line x1="409.5" y1="310" x2="409.5" y2="15"></line>
        <line x1="442.5" y1="310" x2="442.5" y2="15"></line>
        <line x1="474.5" y1="310" x2="474.5" y2="15"></line>
        <line x1="506.5" y1="310" x2="506.5" y2="15"></line>
        <line x1="538.5" y1="310" x2="538.5" y2="15"></line>
        <line x1="571.5" y1="310" x2="571.5" y2="15"></line>
        <line x1="603.5" y1="310" x2="603.5" y2="15"></line>
        <line x1="635.5" y1="310" x2="635.5" y2="15"></line>
        <line x1="667.5" y1="310" x2="667.5" y2="15"></line>
        <line x1="700.5" y1="310" x2="700.5" y2="15"></line>
        <line x1="55" y1="277.5" x2="700" y2="277.5"></line>
        <line x1="55" y1="244.5" x2="700" y2="244.5"></line>
        <line x1="55" y1="211.5" x2="700" y2="211.5"></line>
        <line x1="55" y1="178.5" x2="700" y2="178.5"></line>
        <line x1="55" y1="146.5" x2="700" y2="146.5"></line>
        <line x1="55" y1="113.5" x2="700" y2="113.5"></line>
        <line x1="55" y1="80.5" x2="700" y2="80.5"></line>
        <line x1="55" y1="47.5" x2="700" y2="47.5"></line>
        <line x1="55" y1="15.5" x2="700" y2="15.5"></line>
    </g>
    <path class="data-series series-green" d="M55.1,295.3 55.3,295.5 55.5,296.1 55.8,296.2 56.0,296.7 56.2,296.9 56.5,296.9 56.7,297.1 56.9,296.8 57.1,297.0 57.4,297.0 57.6,296.3 57.8,296.4 58.0,296.3 58.3,296.6 58.5,297.0 58.7,297.3 58.9,297.4 59.2,297.4 59.4,297.4 59.6,297.2 59.8,296.7 60.1,296.4 60.3,296.5 60.5,296.6 60.7,296.9 61.0,296.6 61.2,296.9 61.4,297.3 61.6,298.1 61.9,298.1 62.1,298.5 62.3,299.0 62.5,299.0 62.8,298.5 63.0,298.1 63.2,297.6 63.4,298.0 63.7,298.5 63.9,298.4 64.1,298.0 64.4,297.5 64.6,296.8 64.8,296.1 65.0,295.8 65.3,295.6 65.5,295.4 65.7,295.7 65.9,295.6 66.2,295.1 66.4,296.8 66.6,297.4 66.8,298.2 67.1,298.2 67.3,299.0 67.5,299.5 67.7,299.4 68.0,299.8 68.2,299.1 68.4,298.9 68.6,298.8 68.9,299.2 69.1,299.0 69.3,298.2 69.5,298.6 69.8,298.7 70.0,298.6 70.2,298.9 70.4,299.0 70.7,299.1 70.9,298.3 71.1,299.1 71.4,299.6 71.6,300.0 71.8,299.2 72.0,298.6 72.3,297.4 72.5,297.7 72.7,297.2 72.9,297.1 73.2,297.1 73.4,296.6 73.6,296.8 73.8,296.5 74.1,296.2 74.3,295.3 74.5,295.4 74.7,295.2 75.0,294.4 75.2,294.3 75.4,293.4 75.6,293.5 75.9,293.2 76.1,293.3 76.3,293.3 76.5,293.6 76.8,293.8 77.0,293.7 77.2,293.7 77.4,293.8 77.7,294.4 77.9,294.3 78.1,294.3 78.3,294.2 78.6,293.4 78.8,293.5 79.0,293.2 79.3,293.4 79.5,293.4 79.7,293.8 79.9,294.1 80.2,294.0 80.4,294.5 80.6,294.9 80.8,294.7 81.1,294.8 81.3,295.1 81.5,294.6 81.7,294.7 82.0,294.9 82.2,295.1 82.4,295.2 82.6,295.0 82.9,295.0 83.1,294.7 83.3,294.9 83.5,294.8 83.8,294.6 84.0,294.4 84.2,294.3 84.4,294.7 84.7,295.3 84.9,295.2 85.1,294.9 85.3,295.0 85.6,294.6 85.8,293.9 86.0,293.8 86.3,294.1 86.5,294.4 86.7,294.4 86.9,294.2 87.2,294.5 87.4,293.1 87.6,292.9 87.8,293.0 88.1,291.9 88.3,291.0 88.5,290.0 88.7,289.8 89.0,289.5 89.2,289.7 89.4,290.2 89.6,290.4 89.9,290.3 90.1,289.9 90.3,290.0 90.5,289.5 90.8,289.2 91.0,289.1 91.2,289.1 91.4,289.6 91.7,289.6 91.9,289.5 92.1,289.5 92.3,288.8 92.6,288.5 92.8,288.2 93.0,288.3 93.2,288.6 93.5,288.6 93.7,288.6 93.9,288.5 94.2,288.4 94.4,288.3 94.6,288.3 94.8,287.7 95.1,286.9 95.3,285.5 95.5,284.4 95.7,284.7 96.0,284.5 96.2,284.4 96.4,284.5 96.6,283.8 96.9,283.5 97.1,283.1 97.3,282.9 97.5,282.6 97.8,283.1 98.0,283.5 98.2,283.3 98.4,282.7 98.7,283.0 98.9,283.4 99.1,284.0 99.3,284.3 99.6,284.4 99.8,284.5 100.0,285.1 100.2,285.5 100.5,285.7 100.7,286.4 100.9,286.0 101.1,285.4 101.4,285.3 101.6,286.1 101.8,285.5 102.1,286.6 102.3,287.3 102.5,287.3 102.7,287.0 103.0,287.3 103.2,287.0 103.4,286.5 103.6,286.6 103.9,286.6 104.1,286.9 104.3,287.1 104.5,287.1 104.8,287.3 105.0,287.7 105.2,288.6 105.4,289.2 105.7,290.1 105.9,290.4 106.1,291.1 106.3,291.9 106.6,292.4 106.8,292.4 107.0,292.9 107.2,292.8 107.5,292.6 107.7,292.1 107.9,292.3 108.1,293.5 108.4,293.3 108.6,292.7 108.8,293.2 109.1,294.1 109.3,293.3 109.5,293.3 109.7,293.5 110.0,292.5 110.2,291.7 110.4,291.6 110.6,291.6 110.9,291.5 111.1,291.3 111.3,291.8 111.5,291.5 111.8,291.4 112.0,291.3 112.2,291.5 112.4,291.5 112.7,292.0 112.9,291.8 113.1,291.4 113.3,291.9 113.6,291.8 113.8,292.0 114.0,292.8 114.2,292.6 114.5,292.4 114.7,292.0 114.9,292.1 115.1,292.6 115.4,292.2 115.6,292.3 115.8,292.3 116.0,292.4 116.3,291.9 116.5,291.8 116.7,292.5 117.0,292.8 117.2,292.5 117.4,293.3 117.6,294.4 117.9,293.7 118.1,293.3 118.3,293.6 118.5,294.0 118.8,293.7 119.0,293.5 119.2,292.9 119.4,293.8 119.7,294.7 119.9,294.4 120.1,294.7 120.3,295.2 120.6,295.3 120.8,295.3 121.0,295.4 121.2,295.0 121.5,294.3 121.7,294.6 121.9,294.4 122.1,294.7 122.4,294.7 122.6,294.4 122.8,294.5 123.0,295.0 123.3,295.3 123.5,295.5 123.7,296.0 124.0,296.9 124.2,296.5 124.4,296.8 124.6,297.9 124.9,298.1 125.1,298.1 125.3,298.0 125.5,297.0 125.8,297.7 126.0,297.8 126.2,297.9 126.4,297.8 126.7,297.6 126.9,298.1 127.1,298.3 127.3,298.7 127.6,299.2 127.8,298.9 128.0,299.0 128.2,299.4 128.5,299.3 128.7,299.5 128.9,299.2 129.1,299.3 129.4,299.3 129.6,299.3 129.8,299.7 130.0,300.4 130.3,300.6 130.5,301.1 130.7,300.8 130.9,301.6 131.2,303.1 131.4,303.0 131.6,302.1 131.9,301.4 132.1,300.7 132.3,300.4 132.5,299.7 132.8,298.9 133.0,298.0 133.2,297.3 133.4,297.2 133.7,298.6 133.9,298.2 134.1,297.3 134.3,297.8 134.6,297.8 134.8,297.9 135.0,297.7 135.2,298.6 135.5,298.6 135.7,297.7 135.9,297.9 136.1,297.9 136.4,298.3 136.6,297.9 136.8,298.0 137.0,297.9 137.3,298.0 137.5,298.1 137.7,298.1 137.9,297.9 138.2,297.8 138.4,297.8 138.6,297.7 138.8,298.5 139.1,298.4 139.3,298.1 139.5,298.1 139.8,298.9 140.0,299.0 140.2,298.5 140.4,297.7 140.7,297.0 140.9,296.4 141.1,296.5 141.3,296.7 141.6,297.4 141.8,297.7 142.0,298.3 142.2,298.0 142.5,297.8 142.7,298.3 142.9,299.4 143.1,299.1 143.4,299.5 143.6,299.6 143.8,299.0 144.0,298.4 144.3,298.3 144.5,298.5 144.7,299.4 144.9,298.8 145.2,298.1 145.4,297.4 145.6,297.0 145.8,296.5 146.1,295.9 146.3,295.6 146.5,295.7 146.8,295.3 147.0,295.7 147.2,295.5 147.4,296.0 147.7,295.5 147.9,296.0 148.1,296.8 148.3,297.2 148.6,296.7 148.8,296.6 149.0,296.1 149.2,295.3 149.5,295.5 149.7,295.8 149.9,295.5 150.1,295.8 150.4,296.1 150.6,296.1 150.8,295.6 151.0,295.6 151.3,295.7 151.5,295.3 151.7,295.3 151.9,295.2 152.2,295.4 152.4,295.0 152.6,295.9 152.8,296.6 153.1,296.7 153.3,296.7 153.5,297.4 153.7,296.1 154.0,295.6 154.2,295.1 154.4,295.0 154.7,295.2 154.9,295.5 155.1,295.3 155.3,295.2 155.6,295.9 155.8,296.2 156.0,296.0 156.2,295.7 156.5,295.4 156.7,295.6 156.9,295.9 157.1,295.6 157.4,295.9 157.6,296.4 157.8,296.7 158.0,296.6 158.3,296.6 158.5,296.5 158.7,296.2 158.9,296.3 159.2,296.6 159.4,296.3 159.6,296.0 159.8,296.5 160.1,296.9 160.3,297.4 160.5,297.7 160.7,297.3 161.0,297.4 161.2,297.8 161.4,298.0 161.7,298.4 161.9,298.3 162.1,298.1 162.3,297.8 162.6,297.3 162.8,297.0 163.0,297.1 163.2,297.2 163.5,297.9 163.7,298.1 163.9,297.9 164.1,297.9 164.4,298.1 164.6,297.8 164.8,297.7 165.0,298.1 165.3,298.4 165.5,297.8 165.7,298.5 165.9,298.8 166.2,300.1 166.4,301.2 166.6,301.5 166.8,300.8 167.1,300.3 167.3,300.6 167.5,300.0 167.7,299.9 168.0,300.1 168.2,300.6 168.4,299.3 168.6,298.2 168.9,297.1 169.1,296.4 169.3,296.7 169.6,297.1 169.8,296.6 170.0,296.9 170.2,296.7 170.5,296.4 170.7,295.7 170.9,294.2 171.1,293.7 171.4,294.4 171.6,293.9 171.8,294.3 172.0,294.7 172.3,294.8 172.5,294.7 172.7,294.8 172.9,294.3 173.2,294.2 173.4,293.6 173.6,293.9 173.8,294.3 174.1,294.2 174.3,294.6 174.5,294.8 174.7,294.9 175.0,295.1 175.2,294.8 175.4,294.4 175.6,294.2 175.9,293.6 176.1,294.1 176.3,294.8 176.6,295.0 176.8,295.6 177.0,296.1 177.2,296.2 177.5,295.7 177.7,295.6 177.9,295.7 178.1,295.4 178.4,296.7 178.6,296.2 178.8,297.0 179.0,297.7 179.3,297.2 179.5,298.1 179.7,298.4 179.9,297.4 180.2,297.4 180.4,297.6 180.6,298.4 180.8,299.0 181.1,299.0 181.3,298.2 181.5,297.6 181.7,297.3 182.0,297.4 182.2,297.5 182.4,297.7 182.6,297.8 182.9,299.1 183.1,299.3 183.3,299.4 183.5,299.7 183.8,299.1 184.0,300.0 184.2,299.5 184.5,299.2 184.7,299.3 184.9,298.9 185.1,299.0 185.4,299.7 185.6,300.0 185.8,300.1 186.0,300.2 186.3,300.4 186.5,300.5 186.7,300.7 186.9,301.5 187.2,301.9 187.4,301.6 187.6,301.5 187.8,302.1 188.1,302.3 188.3,302.1 188.5,301.8 188.7,302.0 189.0,303.0 189.2,302.9 189.4,302.6 189.6,302.7 189.9,303.4 190.1,302.9 190.3,302.3 190.5,302.3 190.8,302.3 191.0,302.5 191.2,303.1 191.4,303.7 191.7,303.9 191.9,304.1 192.1,304.4 192.4,303.8 192.6,303.6 192.8,303.4 193.0,303.2 193.3,303.2 193.5,302.8 193.7,302.5 193.9,302.9 194.2,302.2 194.4,301.7 194.6,301.1 194.8,301.3 195.1,301.5 195.3,302.3 195.5,302.6 195.7,302.9 196.0,302.5 196.2,302.3 196.4,302.4 196.6,302.4 196.9,302.8 197.1,303.0 197.3,302.9 197.5,303.0 197.8,303.2 198.0,302.5 198.2,302.0 198.4,302.4 198.7,301.8 198.9,300.0 199.1,299.5 199.4,299.6 199.6,299.6 199.8,299.9 200.0,299.9 200.3,300.3 200.5,300.2 200.7,300.0 200.9,299.9 201.2,299.8 201.4,299.7 201.6,300.4 201.8,300.2 202.1,300.2 202.3,300.6 202.5,301.2 202.7,301.9 203.0,302.3 203.2,302.6 203.4,302.5 203.6,302.5 203.9,302.1 204.1,298.8 204.3,302.9 204.5,303.8"></path>
    <text text-anchor="end" fill="currentColor" font-weight="600" class="series-green" x="696" y="90">Food</text>
    <text text-anchor="end" fill="currentColor" font-weight="600" class="series-blue" x="696" y="248">Creatures</text>
</svg>