<svg width="720" height="360" xmlns="http://www.w3.org/2000/svg">

<style>
  .background {
    fill: none;
  }
  .axis {
    stroke: #111;
    stroke-width: 1;
  }
  .axis-label {
    text-anchor: middle;
  }
  .axis-units {
    font-size: 10px;
    font-family: Arial;
  }
  .y-axis-text {
    text-anchor: end;
  }
  .x-axis-text {
    text-anchor: middle;
  }
  .gridlines {
    stroke: black;
    stroke-width: 0.3;
    fill: none;
    opacity: 0.5;
  }
  .series-red {
    color: #ae5d40;
  }
  .series-green {
    color: #4f7754;
  }
  .series-blue {
    color: #433a60;
  }
  .data-series {
    fill: none;
    opacity: 0.9;
    stroke: currentColor;
    stroke-width: 2;
  }
  </style>

    <text class="axis-label" x="377.5" y="345">Time (1000 ticks)</text>
    <text class="axis-label" x="0" y="162.5" transform="translate(20.0) rotate(-90, 0, 162.5)">Population size</text>
    <line class="axis" x1="55" y1="310" x2="701" y2="310"></line>
    <line class="axis" x1="55" y1="310" x2="55" y2="15"></line>
    <g class="axis-units">
        <g class="x-axis-text">
            <text x="55.0" y="322">0</text>
            <text x="87.25" y="322">100</text>
            <text x="119.5" y="322">200</text>
            <text x="151.75" y="322">300</text>
            <text x="184.0" y="322">400</text>
            <text x="216.25" y="322">500</text>
            <text x="248.5" y="322">600</text>
            <text x="280.75" y="322">700</text>
            <text x="313.0" y="322">800</text>
            <text x="345.25" y="322">900</text>
            <text x="377.5" y="322">1000</text>
            <text x="409.75" y="322">1100</text>
            <text x="442.0" y="322">1200</text>
            <text x="474.25" y="322">1300</text>
            <text x="506.49999999999994" y="322">1400</text>
            <text x="538.75" y="322">1500</text>
            <text x="571.0" y="322">1600</text>
            <text x="603.25" y="322">1700</text>
            <text x="635.5" y="322">1800</text>
            <text x="667.75" y="322">1900</text>
            <text x="700.0" y="322">2000</text>
        </g>
        <g class="y-axis-text">
            <text x="52" y="313.0">0</text>
            <text x="52" y="280.22222222222223">20</text>
            <text x="52" y="247.44444444444446">40</text>
            <text x="52" y="214.66666666666669">60</text>
            <text x="52" y="181.88888888888889">80</text>
            <text x="52" y="149.11111111111111">100</text>
            <text x="52" y="116.33333333333334">120</text>
            <text x="52" y="83.55555555555557">140</text>
            <text x="52" y="50.77777777777777">160</text>
            <text x="52" y="18.0">180</text>
        </g>
    </g>
    <g class="gridlines">
        <line x1="87.5" y1="310" x2="87.5" y2="15"></line>
        <line x1="119.5" y1="310" x2="119.5" y2="15"></line>
        <line x1="151.5" y1="310" x2="151.5" y2="15"></line>
        <line x1="184.5" y1="310" x2="184.5" y2="15"></line>
        <line x1="216.5" y1="310" x2="216.5" y2="15"></line>
        <line x1="248.5" y1="310" x2="248.5" y2="15"></line>
        <line x1="280.5" y1="310" x2="280.5" y2="15"></line>
        <line x1="313.5" y1="310" x2="313.5" y2="15"></line>
        <line x1="345.5" y1="310" x2="345.5" y2="15"></line>
        <line x1="377.5" y1="310" x2="377.5" y2="15"></line>
        <line x1="409.5" y1="310" x2="409.5" y2="15"></line>
        <line x1="442.5" y1="310" x2="442.5" y2="15"></line>
        <line x1="474.5" y1="310" x2="474.5" y2="15"></line>
        <line x1="506.5" y1="310" x2="506.5" y2="15"></line>
        <line x1="538.5" y1="310" x2="538.5" y2="15"></line>
        <line x1="571.5" y1="310" x2="571.5" y2="15"></line>
        <line x1="603.5" y1="310" x2="603.5" y2="15"></line>
        <line x1="635.5" y1="310" x2="635.5" y2="15"></line>
        <line x1="667.5" y1="310" x2="667.5" y2="15"></line>
        <line x1="700.5" y1="310" x2="700.5" y2="15"></line>
        <line x1="55" y1="277.5" x2="700" y2="277.5"></line>
        <line x1="55" y1="244.5" x2="700" y2="244.5"></line>
        <line x1="55" y1="211.5" x2="700" y2="211.5"></line>
        <line x1="55" y1="178.5" x2="700" y2="178.5"></line>
        <line x1="55" y1="146.5" x2="700" y2="146.5"></line>
        <line x1="55" y1="113.5" x2="700" y2="113.5"></line>
        <line x1="55" y1="80.5" x2="700" y2="80.5"></line>
        <line x1="55" y1="47.5" x2="700" y2="47.5"></line>
        <line x1="55" y1="15.5" x2="700" y2="15.5"></line>
    </g>
    <path class="data-series series-green" d="M55.5,291.7 56.5,288.2 57.5,285.4 58.5,283.1 59.5,283.1 60.5,283.3 61.5,282.9 62.5,280.6 63.5,278.4 64.5,276.3 65.5,275.7 66.5,275.5 67.5,276.4 68.5,273.5 69.5,271.3 70.5,272.0 71.5,270.9 72.5,267.7 73.5,267.1 74.5,266.1 75.5,266.0 76.5,262.8 77.5,262.9 78.5,264.9 79.5,263.3 80.5,262.8 81.5,262.8 82.5,259.2 83.5,258.8 84.5,258.4 85.5,261.4 86.5,256.9 87.5,256.6 88.5,257.2 89.5,255.1 90.5,254.8 91.5,253.9 92.5,256.4 93.5,259.0 94.5,262.3 95.5,264.1 96.5,263.8 97.5,262.7 98.5,261.6 99.5,261.9 100.5,260.0 101.5,259.1 102.5,256.1 103.5,257.4 104.5,258.7 105.5,259.4 106.5,259.4 107.5,259.5 108.5,258.2 109.5,256.4 110.5,252.7 111.5,249.6 112.5,249.0 113.5,248.2 114.5,246.6 115.5,246.5 116.5,248.5 117.5,247.7 118.5,244.4 119.5,241.1 120.5,241.7 121.5,243.3 122.5,243.4 123.5,240.8 124.5,238.6 125.5,244.2 126.5,241.4 127.5,243.0 128.5,243.3 129.5,240.6 130.5,242.1 131.5,239.1 132.5,240.6 133.5,242.1 134.5,241.4 135.5,239.5 136.5,237.6 137.5,236.9 138.5,234.7 139.5,233.7 140.5,233.4 141.5,228.1 142.5,227.3 143.5,227.8 144.5,225.4 145.5,223.7 146.5,223.6 147.5,222.4 148.5,224.8 149.5,224.8 150.5,222.8 151.5,221.5 152.5,219.8 153.5,219.3 154.5,218.5 155.5,221.2 156.5,220.3 157.5,218.4 158.5,218.2 159.5,217.3 160.5,217.3 161.5,217.5 162.5,217.5 163.5,216.5 164.5,214.6 165.5,215.2 166.5,214.3 167.5,216.3 168.5,215.4 169.5,214.6 170.5,214.6 171.5,216.0 172.5,216.1 173.5,214.9 174.5,214.4 175.5,213.7 176.5,212.5 177.5,212.4 178.5,209.8 179.5,206.2 180.5,207.4 181.5,210.3 182.5,210.0 183.5,210.1 184.5,213.5 185.5,209.3 186.5,204.5 187.5,206.0 188.5,205.7 189.5,207.1 190.4,206.0 191.4,202.6 192.4,205.5 193.4,205.4 194.4,202.9 195.4,205.1 196.4,204.5 197.4,203.8 198.4,202.7 199.4,200.2 200.4,198.2 201.4,197.2 202.4,197.0 203.4,195.6 204.4,195.9 205.4,194.7 206.4,194.6 207.4,194.1 208.4,191.5 209.4,190.7 210.4,189.7 211.4,190.1 212.4,187.1 213.4,187.1 214.4,187.3 215.4,188.4 216.4,187.7 217.4,186.2 218.4,185.8 219.4,186.4 220.4,191.2 221.4,190.8 222.4,187.9 223.4,184.2 224.4,181.5 225.4,181.5 226.4,179.7 227.4,179.2 228.4,181.5 229.4,183.0 230.4,182.4 231.4,183.2 232.4,183.0 233.4,178.4 234.4,176.6 235.4,175.4 236.4,174.8 237.4,175.2 238.4,175.0 239.4,175.6 240.4,175.9 241.4,175.0 242.4,173.7 243.4,170.6 244.4,173.5 245.4,177.0 246.4,177.0 247.4,176.4 248.4,177.4 249.4,177.0 250.4,177.7 251.4,177.1 252.4,175.3 253.4,176.3 254.4,177.7 255.4,179.9 256.4,177.5 257.4,175.2 258.4,171.8 259.4,170.9 260.4,171.0 261.4,169.0 262.4,167.6 263.4,168.7 264.4,169.1 265.4,169.4 266.4,168.1 267.4,168.0 268.4,166.1 269.4,165.7 270.4,167.5 271.4,168.8 272.4,167.9 273.4,167.4 274.4,167.5 275.4,164.6 276.4,158.0 277.4,152.4 278.4,150.2 279.4,149.6 280.4,148.5 281.4,148.7 282.4,149.2 283.4,148.1 284.4,149.4 285.4,148.0 286.4,146.1 287.4,145.2 288.4,144.1 289.4,144.9 290.4,146.1 291.4,146.4 292.4,145.1 293.4,142.6 294.4,143.0 295.4,142.8 296.4,141.7 297.4,141.1 298.4,139.0 299.4,136.3 300.4,138.9 301.4,147.9 302.4,147.2 303.4,146.5 304.4,146.8 305.4,145.9 306.4,143.0 307.4,140.6 308.4,140.3 309.4,140.6 310.4,139.3 311.4,140.1 312.4,138.8 313.4,135.9 314.4,133.5 315.4,133.6 316.4,130.6 317.4,129.7 318.4,128.8 319.4,128.5 320.4,124.6 321.4,125.8 322.4,124.3 323.4,125.8 324.4,122.6 325.4,119.5 326.4,118.4 327.4,117.9 328.4,118.7 329.4,117.9 330.4,118.5 331.4,117.6 332.4,118.5 333.4,118.5 334.4,117.6 335.4,115.8 336.4,117.2 337.4,116.3 338.4,116.6 339.4,117.3 340.4,116.3 341.4,114.4 342.4,114.1 343.4,116.3 344.4,114.5 345.4,113.0 346.4,116.4 347.4,121.2 348.4,119.7 349.4,120.3 350.4,120.6 351.4,119.9 352.4,119.5 353.4,119.7 354.4,118.4 355.4,120.9 356.4,122.6 357.4,121.4 358.4,120.5 359.4,125.9 360.4,124.4 361.4,123.4 362.4,119.4 363.4,118.9 364.4,121.6 365.4,120.2 366.4,117.7 367.4,116.6 368.4,116.2 369.4,115.0 370.4,114.3 371.4,113.9 372.4,115.4 373.4,114.3 374.4,111.8 375.4,108.3 376.4,103.4 377.4,100.3 378.4,100.4 379.4,99.9 380.4,99.3 381.4,100.1 382.4,101.9 383.4,103.1 384.4,103.3 385.4,98.6 386.4,96.9 387.4,93.7 388.4,99.0 389.4,103.0 390.4,101.4 391.4,99.6 392.4,100.0 393.4,99.0 394.4,99.2 395.4,97.7 396.4,95.3 397.4,94.0 398.4,95.3 399.4,93.2 400.4,92.9 401.4,89.3 402.4,88.6 403.4,87.3 404.4,87.0 405.4,87.4 406.4,87.1 407.4,84.4 408.4,81.2 409.4,84.7 410.4,83.7 411.4,87.1 412.4,86.8 413.4,88.1 414.4,89.3 415.4,89.4 416.4,88.8 417.4,91.3 418.4,89.5 419.4,88.2 420.4,88.8 421.4,87.2 422.4,86.3 423.4,85.0 424.4,81.5 425.4,79.2 426.4,80.8 427.4,87.2 428.4,85.4 429.4,82.2 430.4,86.4 431.4,84.3 432.4,81.9 433.4,79.8 434.4,77.0 435.4,75.0 436.4,72.4 437.4,75.6 438.4,74.8 439.4,76.0 440.4,74.3 441.4,73.4 442.4,75.3 443.4,74.5 444.4,72.1 445.4,73.9 446.4,72.5 447.4,73.5 448.4,72.9 449.4,71.4 450.4,68.8 451.4,68.0 452.4,66.3 453.4,65.8 454.4,71.1 455.4,68.8 456.4,70.2 457.4,72.4 458.4,71.2 459.4,70.2 460.4,66.8 461.4,61.9 462.4,61.4 463.4,61.0 464.4,63.9 465.4,64.4 466.4,62.6 467.4,65.6 468.4,67.9 469.4,68.5 470.4,69.9 471.4,64.9 472.4,63.2 473.4,60.8 474.4,60.8 475.4,60.7 476.4,61.4 477.4,62.7 478.4,64.1 479.4,67.8 480.4,70.3 481.4,70.8 482.4,69.2 483.4,67.1 484.4,66.8 485.4,66.4 486.4,65.9 487.4,64.5 488.4,64.5 489.4,64.9 490.4,67.4 491.4,66.5 492.4,65.8 493.4,67.7 494.4,66.0 495.4,67.6 496.4,66.2 497.4,66.3 498.4,64.6 499.4,65.6 500.4,62.7 501.4,61.2 502.4,60.8 503.4,59.0 504.4,58.4 505.4,57.6 506.4,55.4 507.4,56.1 508.4,56.1 509.4,54.8 510.4,56.0 511.4,57.8 512.4,60.1 513.4,60.0 514.4,56.0 515.4,62.4 516.4,61.2 517.4,62.6 518.4,62.8 519.4,66.0 520.4,66.6 521.4,67.4 522.4,69.0 523.4,69.1 524.4,69.1 525.4,67.3 526.4,62.1 527.4,61.3 528.4,64.3 529.4,64.3 530.4,64.9 531.4,61.1 532.4,60.4 533.4,58.1 534.4,56.7 535.4,55.9 536.4,53.3 537.4,50.5 538.4,54.1 539.4,54.3 540.4,52.7 541.4,51.6 542.4,49.7 543.4,50.5 544.4,50.3 545.4,49.1 546.4,49.9 547.4,48.3 548.4,47.4 549.4,45.7 550.4,43.9 551.4,47.0 552.4,46.7 553.4,45.6 554.4,47.7 555.4,52.1 556.4,49.5 557.4,49.2 558.4,46.7 559.4,47.0 560.4,49.3 561.4,50.1 562.4,51.4 563.4,51.2 564.4,50.5 565.4,49.6 566.4,50.9 567.4,50.8 568.4,48.6 569.4,48.5 570.4,45.1 571.4,46.5 572.4,49.6 573.4,48.8 574.4,45.3 575.4,43.5 576.4,42.2 577.4,42.3 578.4,43.8 579.4,42.9 580.4,39.2 581.4,37.4 582.4,37.0 583.4,44.1 584.4,44.2 585.4,41.1 586.4,39.2 587.4,34.8 588.4,34.4 589.4,32.0 590.3,31.5 591.3,30.4 592.3,31.4 593.3,28.8 594.3,29.2 595.3,28.4 596.3,28.1 597.3,27.1 598.3,27.2 599.3,28.1 600.3,26.7 601.3,25.5 602.3,22.9 603.3,22.0 604.3,25.0 605.3,23.6 606.3,24.1 607.3,22.4 608.3,20.1 609.3,24.3 610.3,23.7 611.3,25.6 612.3,25.5 613.3,25.2 614.3,20.5 615.3,21.7 616.3,22.8 617.3,26.2 618.3,25.3 619.3,24.8 620.3,25.3 621.3,26.3 622.3,29.9 623.3,32.4 624.3,30.7 625.3,29.8 626.3,28.4 627.3,29.5 628.3,31.1 629.3,42.5 630.3,41.2 631.3,43.0 632.3,44.6 633.3,43.9 634.3,44.3 635.3,44.2 636.3,44.7 637.3,43.4 638.3,45.0 639.3,41.3 640.3,38.6 641.3,38.4 642.3,39.1 643.3,39.8 644.3,39.6 645.3,37.5 646.3,36.2 647.3,34.6 648.3,34.3 649.3,34.1 650.3,32.3 651.3,31.7 652.3,33.5 653.3,33.6 654.3,36.1 655.3,37.6 656.3,38.7 657.3,38.2 658.3,40.9 659.3,40.7 660.3,39.7 661.3,37.5 662.3,38.3 663.3,38.2 664.3,39.6 665.3,42.2 666.3,43.7 667.3,39.7 668.3,38.7 669.3,40.2 670.3,39.1 671.3,39.8 672.3,42.9 673.3,45.6 674.3,45.1 675.3,43.7 676.3,43.2 677.3,45.5 678.3,42.5 679.3,40.4 680.3,40.8 681.3,39.6 682.3,38.7 683.3,37.1 684.3,35.9 685.3,35.2 686.3,31.2 687.3,33.0 688.3,29.3 689.3,30.3 690.3,30.0 691.3,29.8 692.3,27.4 693.3,24.0 694.3,23.9 695.3,22.7 696.3,23.9 697.3,24.6 698.3,21.6 699.3,25.9 699.3,38.6 698.3,37.9 697.3,36.8 696.3,36.6 695.3,38.3 694.3,38.2 693.3,37.6 692.3,42.5 691.3,41.0 690.3,44.9 689.3,43.3 688.3,41.5 687.3,41.2 686.3,46.7 685.3,58.4 684.3,60.8 683.3,62.8 682.3,61.5 681.3,59.4 680.3,59.1 679.3,57.9 678.3,58.8 677.3,61.7 676.3,58.6 675.3,58.2 674.3,58.4 673.3,59.4 672.3,57.2 671.3,57.3 670.3,64.6 669.3,63.3 668.3,62.7 667.3,59.4 666.3,57.1 665.3,56.6 664.3,56.3 663.3,55.1 662.3,52.3 661.3,51.4 660.3,52.8 659.3,50.4 658.3,50.2 657.3,52.7 656.3,52.5 655.3,52.8 654.3,50.6 653.3,49.8 652.3,47.4 651.3,43.8 650.3,43.5 649.3,53.2 648.3,57.4 647.3,57.9 646.3,60.9 645.3,59.6 644.3,58.0 643.3,58.1 642.3,57.1 641.3,57.9 640.3,57.4 639.3,61.9 638.3,58.7 637.3,57.8 636.3,56.8 635.3,56.9 634.3,55.7 633.3,57.4 632.3,55.7 631.3,55.6 630.3,53.8 629.3,54.4 628.3,56.5 627.3,52.6 626.3,50.6 625.3,48.9 624.3,46.5 623.3,47.1 622.3,45.1 621.3,42.3 620.3,39.2 619.3,40.2 618.3,37.9 617.3,36.8 616.3,35.8 615.3,38.2 614.3,39.2 613.3,37.7 612.3,36.7 611.3,38.8 610.3,36.8 609.3,36.5 608.3,35.6 607.3,33.7 606.3,35.8 605.3,35.5 604.3,35.8 603.3,38.5 602.3,41.6 601.3,41.0 600.3,40.3 599.3,40.4 598.3,41.1 597.3,44.0 596.3,43.4 595.3,44.8 594.3,45.5 593.3,45.1 592.3,45.6 591.3,50.6 590.3,58.4 589.4,57.7 588.4,55.5 587.4,56.6 586.4,54.7 585.4,55.9 584.4,57.2 583.4,56.9 582.4,56.3 581.4,54.9 580.4,53.1 579.4,57.8 578.4,66.9 577.4,67.1 576.4,67.3 575.4,66.1 574.4,65.8 573.4,67.6 572.4,69.7 571.4,67.3 570.4,65.7 569.4,65.4 568.4,66.9 567.4,65.9 566.4,67.1 565.4,65.8 564.4,64.4 563.4,62.0 562.4,60.4 561.4,61.4 560.4,65.4 559.4,64.6 558.4,63.3 557.4,62.9 556.4,59.4 555.4,60.5 554.4,59.7 553.4,58.5 552.4,57.5 551.4,60.8 550.4,59.8 549.4,58.9 548.4,58.1 547.4,57.0 546.4,61.4 545.4,60.5 544.4,58.0 543.4,61.6 542.4,62.9 541.4,64.5 540.4,65.4 539.4,65.6 538.4,64.5 537.4,65.6 536.4,68.0 535.4,70.4 534.4,70.7 533.4,70.4 532.4,74.6 531.4,75.3 530.4,74.7 529.4,72.6 528.4,78.0 527.4,80.3 526.4,81.8 525.4,83.4 524.4,82.2 523.4,80.6 522.4,79.2 521.4,78.5 520.4,77.2 519.4,76.0 518.4,74.7 517.4,73.5 516.4,75.8 515.4,74.1 514.4,75.5 513.4,72.1 512.4,76.2 511.4,76.0 510.4,76.7 509.4,76.2 508.4,75.4 507.4,73.7 506.4,75.6 505.4,78.4 504.4,80.7 503.4,82.6 502.4,81.9 501.4,79.2 500.4,78.8 499.4,78.2 498.4,79.3 497.4,78.8 496.4,77.8 495.4,77.4 494.4,76.9 493.4,75.9 492.4,75.6 491.4,74.7 490.4,74.2 489.4,77.0 488.4,75.7 487.4,75.1 486.4,76.1 485.4,77.6 484.4,74.5 483.4,76.8 482.4,79.1 481.4,81.7 480.4,82.0 479.4,80.6 478.4,80.2 477.4,79.3 476.4,78.9 475.4,78.7 474.4,81.9 473.4,83.0 472.4,83.7 471.4,84.3 470.4,83.7 469.4,80.8 468.4,81.6 467.4,80.8 466.4,86.6 465.4,86.7 464.4,85.9 463.4,85.8 462.4,85.0 461.4,91.9 460.4,89.6 459.4,88.7 458.4,88.6 457.4,88.8 456.4,85.2 455.4,83.5 454.4,82.5 453.4,79.1 452.4,80.2 451.4,82.2 450.4,85.2 449.4,88.0 448.4,89.9 447.4,88.9 446.4,87.3 445.4,96.9 444.4,95.3 443.4,91.6 442.4,90.7 441.4,88.1 440.4,85.9 439.4,86.7 438.4,94.7 437.4,95.7 436.4,94.0 435.4,92.9 434.4,94.2 433.4,93.2 432.4,101.0 431.4,106.2 430.4,105.5 429.4,105.0 428.4,104.3 427.4,103.6 426.4,102.1 425.4,98.6 424.4,97.3 423.4,99.5 422.4,102.2 421.4,104.5 420.4,101.3 419.4,100.1 418.4,100.1 417.4,99.0 416.4,100.5 415.4,99.1 414.4,99.0 413.4,98.7 412.4,97.6 411.4,99.2 410.4,99.2 409.4,98.5 408.4,97.9 407.4,95.7 406.4,98.6 405.4,105.6 404.4,104.9 403.4,105.9 402.4,107.4 401.4,107.6 400.4,108.0 399.4,108.4 398.4,109.7 397.4,109.6 396.4,110.2 395.4,112.5 394.4,116.7 393.4,114.9 392.4,115.0 391.4,118.7 390.4,118.6 389.4,120.1 388.4,119.2 387.4,119.6 386.4,123.0 385.4,121.4 384.4,117.2 383.4,116.0 382.4,116.4 381.4,114.4 380.4,118.5 379.4,122.4 378.4,120.3 377.4,120.4 376.4,125.7 375.4,127.8 374.4,125.2 373.4,122.9 372.4,124.1 371.4,128.2 370.4,124.3 369.4,125.3 368.4,132.5 367.4,133.5 366.4,135.4 365.4,135.3 364.4,140.3 363.4,135.4 362.4,132.0 361.4,135.5 360.4,138.4 359.4,136.5 358.4,135.3 357.4,136.7 356.4,135.1 355.4,132.0 354.4,130.2 353.4,128.9 352.4,129.9 351.4,128.2 350.4,127.3 349.4,135.3 348.4,138.4 347.4,137.3 346.4,135.4 345.4,134.9 344.4,136.0 343.4,135.3 342.4,131.8 341.4,131.5 340.4,130.0 339.4,129.2 338.4,129.2 337.4,129.1 336.4,127.7 335.4,126.1 334.4,128.5 333.4,128.8 332.4,128.6 331.4,129.3 330.4,128.3 329.4,125.7 328.4,127.3 327.4,133.1 326.4,136.6 325.4,141.0 324.4,143.3 323.4,141.4 322.4,138.8 321.4,139.4 320.4,139.8 319.4,140.5 318.4,140.5 317.4,142.2 316.4,144.3 315.4,146.2 314.4,152.1 313.4,164.3 312.4,163.6 311.4,163.0 310.4,161.0 309.4,159.8 308.4,159.6 307.4,159.0 306.4,160.6 305.4,161.1 304.4,159.5 303.4,159.2 302.4,157.6 301.4,157.2 300.4,157.1 299.4,157.9 298.4,158.5 297.4,158.6 296.4,157.1 295.4,154.7 294.4,154.2 293.4,153.1 292.4,161.9 291.4,166.0 290.4,163.1 289.4,161.6 288.4,160.2 287.4,159.0 286.4,158.4 285.4,157.2 284.4,158.4 283.4,156.8 282.4,166.6 281.4,163.6 280.4,169.9 279.4,170.7 278.4,171.6 277.4,188.5 276.4,190.9 275.4,192.5 274.4,196.2 273.4,193.0 272.4,188.2 271.4,185.3 270.4,184.0 269.4,183.0 268.4,186.0 267.4,188.2 266.4,184.0 265.4,182.3 264.4,183.1 263.4,180.1 262.4,181.9 261.4,182.6 260.4,183.1 259.4,188.1 258.4,189.8 257.4,190.1 256.4,190.1 255.4,190.6 254.4,191.8 253.4,194.2 252.4,194.0 251.4,196.7 250.4,194.5 249.4,193.6 248.4,191.0 247.4,189.0 246.4,187.6 245.4,186.7 244.4,187.1 243.4,186.2 242.4,185.6 241.4,185.2 240.4,186.4 239.4,192.0 238.4,191.8 237.4,190.9 236.4,188.8 235.4,192.1 234.4,196.4 233.4,197.8 232.4,201.3 231.4,201.0 230.4,199.9 229.4,200.7 228.4,201.6 227.4,200.2 226.4,202.7 225.4,202.7 224.4,205.6 223.4,203.2 222.4,201.6 221.4,202.3 220.4,201.9 219.4,200.4 218.4,200.7 217.4,199.8 216.4,200.9 215.4,201.9 214.4,198.7 213.4,202.0 212.4,202.8 211.4,200.6 210.4,200.2 209.4,201.8 208.4,204.5 207.4,211.5 206.4,215.9 205.4,216.2 204.4,216.6 203.4,216.9 202.4,215.6 201.4,216.1 200.4,213.9 199.4,212.7 198.4,211.8 197.4,213.4 196.4,219.1 195.4,215.7 194.4,216.8 193.4,218.6 192.4,216.7 191.4,217.1 190.4,217.4 189.5,218.2 188.5,218.1 187.5,224.2 186.5,222.8 185.5,223.1 184.5,223.5 183.5,225.3 182.5,226.1 181.5,224.4 180.5,225.6 179.5,229.4 178.5,230.2 177.5,229.4 176.5,228.1 175.5,225.9 174.5,225.7 173.5,224.5 172.5,223.5 171.5,228.9 170.5,226.3 169.5,224.0 168.5,224.8 167.5,226.6 166.5,226.2 165.5,226.4 164.5,229.0 163.5,226.4 162.5,230.2 161.5,236.3 160.5,236.9 159.5,236.1 158.5,236.4 157.5,237.5 156.5,234.1 155.5,233.6 154.5,234.3 153.5,236.5 152.5,236.5 151.5,238.7 150.5,243.3 149.5,238.8 148.5,236.7 147.5,238.8 146.5,241.8 145.5,243.1 144.5,244.9 143.5,249.9 142.5,249.8 141.5,248.5 140.5,246.3 139.5,249.7 138.5,250.6 137.5,250.4 136.5,249.7 135.5,252.6 134.5,252.2 133.5,254.3 132.5,250.8 131.5,249.8 130.5,249.7 129.5,252.5 128.5,254.5 127.5,255.5 126.5,253.2 125.5,254.6 124.5,252.0 123.5,253.0 122.5,253.0 121.5,252.8 120.5,255.8 119.5,257.6 118.5,263.0 117.5,268.2 116.5,267.2 115.5,268.7 114.5,266.5 113.5,264.4 112.5,263.7 111.5,264.6 110.5,267.0 109.5,265.5 108.5,267.3 107.5,270.3 106.5,272.4 105.5,272.2 104.5,272.8 103.5,273.9 102.5,274.9 101.5,274.4 100.5,273.1 99.5,270.9 98.5,272.5 97.5,274.2 96.5,275.5 95.5,276.2 94.5,276.2 93.5,274.8 92.5,275.5 91.5,275.6 90.5,271.6 89.5,272.2 88.5,272.3 87.5,272.0 86.5,273.5 85.5,274.8 84.5,280.4 83.5,279.4 82.5,279.1 81.5,280.6 80.5,281.0 79.5,279.6 78.5,277.1 77.5,277.2 76.5,278.6 75.5,277.2 74.5,279.3 73.5,280.9 72.5,284.7 71.5,282.1 70.5,282.7 69.5,281.7 68.5,284.4 67.5,283.6 66.5,285.6 65.5,285.7 64.5,285.9 63.5,291.3 62.5,296.5 61.5,296.9 60.5,297.2 59.5,296.7 58.5,296.6 57.5,297.3 56.5,297.7 55.5,298.8 Z"></path>
</svg>