<svg width="720" height="360" xmlns="http://www.w3.org/2000/svg">

<style>
  .background {
    fill: none;
  }
  .axis {
    stroke: #111;
    stroke-width: 1;
  }
  .axis-label {
    text-anchor: middle;
  }
  .axis-units {
    font-size: 10px;
    font-family: Arial;
  }
  .y-axis-text {
    text-anchor: end;
  }
  .x-axis-text {
    text-anchor: middle;
  }
  .gridlines {
    stroke: black;
    stroke-width: 0.3;
    fill: none;
    opacity: 0.5;
  }
  .series-red {
    color: #ae5d40;
  }
  .series-green {
    color: #4f7754;
  }
  .series-blue {
    color: #433a60;
  }
  .data-area-series {
    fill: currentColor;
    opacity: 0.6;
}
  .data-series {
    fill: none;
    opacity: 0.9;
    stroke: currentColor;
    stroke-width: 2;
  }
  </style>

    <text class="axis-label" x="377.5" y="345">Time (1000 ticks)</text>
    <text class="axis-label" x="0" y="162.5" transform="translate(20.0) rotate(-90, 0, 162.5)">Creature size</text>
    <line class="axis" x1="55" y1="310" x2="701" y2="310"></line>
    <line class="axis" x1="55" y1="310" x2="55" y2="15"></line>
    <g class="axis-units">
        <g class="x-axis-text">
            <text x="55.0" y="322">0</text>
            <text x="119.5" y="322">100</text>
            <text x="184.0" y="322">200</text>
            <text x="248.5" y="322">300</text>
            <text x="313.0" y="322">400</text>
            <text x="377.5" y="322">500</text>
            <text x="442.0" y="322">600</text>
            <text x="506.49999999999994" y="322">700</text>
            <text x="571.0" y="322">800</text>
            <text x="635.5" y="322">900</text>
            <text x="700.0" y="322">1000</text>
        </g>
        <g class="y-axis-text">
            <text x="52" y="313.0">0</text>
            <text x="52" y="283.5">10</text>
            <text x="52" y="254.0">20</text>
            <text x="52" y="224.5">30</text>
            <text x="52" y="195.0">40</text>
            <text x="52" y="165.5">50</text>
            <text x="52" y="136.0">60</text>
            <text x="52" y="106.5">70</text>
            <text x="52" y="77.0">80</text>
            <text x="52" y="47.5">90</text>
            <text x="52" y="18.0">100</text>
        </g>
    </g>
    <g class="gridlines">
        <line x1="119.5" y1="310" x2="119.5" y2="15"></line>
        <line x1="184.5" y1="310" x2="184.5" y2="15"></line>
        <line x1="248.5" y1="310" x2="248.5" y2="15"></line>
        <line x1="313.5" y1="310" x2="313.5" y2="15"></line>
        <line x1="377.5" y1="310" x2="377.5" y2="15"></line>
        <line x1="442.5" y1="310" x2="442.5" y2="15"></line>
        <line x1="506.5" y1="310" x2="506.5" y2="15"></line>
        <line x1="571.5" y1="310" x2="571.5" y2="15"></line>
        <line x1="635.5" y1="310" x2="635.5" y2="15"></line>
        <line x1="700.5" y1="310" x2="700.5" y2="15"></line>
        <line x1="55" y1="280.5" x2="700" y2="280.5"></line>
        <line x1="55" y1="251.5" x2="700" y2="251.5"></line>
        <line x1="55" y1="221.5" x2="700" y2="221.5"></line>
        <line x1="55" y1="192.5" x2="700" y2="192.5"></line>
        <line x1="55" y1="162.5" x2="700" y2="162.5"></line>
        <line x1="55" y1="133.5" x2="700" y2="133.5"></line>
        <line x1="55" y1="103.5" x2="700" y2="103.5"></line>
        <line x1="55" y1="74.5" x2="700" y2="74.5"></line>
        <line x1="55" y1="44.5" x2="700" y2="44.5"></line>
        <line x1="55" y1="15.5" x2="700" y2="15.5"></line>
    </g>
    <path class="data-area-series series-green" d="M55.5,24.6 56.4,59.2 57.4,148.5 58.4,143.8 59.3,144.8 60.3,152.7 61.3,176.3 62.2,177.4 63.2,175.3 64.2,173.3 65.1,171.3 66.1,174.3 67.1,175.1 68.0,177.2 69.0,177.2 70.0,178.0 70.9,182.8 71.9,183.9 72.9,183.1 73.8,182.2 74.8,178.6 75.8,174.3 76.7,174.9 77.7,177.6 78.7,177.4 79.6,180.8 80.6,180.2 81.6,179.2 82.5,178.8 83.5,177.4 84.5,175.7 85.4,177.4 86.4,181.8 87.4,175.7 88.3,186.7 89.3,194.6 90.3,192.0 91.2,194.9 92.2,193.4 93.2,189.1 94.2,193.2 95.1,191.4 96.1,189.1 97.1,188.1 98.0,186.3 99.0,200.7 100.0,201.6 100.9,201.8 101.9,203.8 102.9,200.8 103.8,198.7 104.8,198.5 105.8,200.8 106.7,200.8 107.7,200.8 108.7,199.1 109.6,199.5 110.6,199.9 111.6,197.9 112.5,199.3 113.5,195.7 114.5,194.9 115.4,194.9 116.4,194.9 117.4,192.4 118.3,187.5 119.3,186.9 120.3,184.7 121.2,181.6 122.2,180.6 123.2,180.2 124.1,182.4 125.1,190.2 126.1,187.9 127.0,183.9 128.0,183.1 129.0,190.0 129.9,197.9 130.9,197.9 131.9,196.5 132.9,195.9 133.8,198.7 134.8,197.9 135.8,197.1 136.7,192.0 137.7,192.0 138.7,192.0 139.6,192.0 140.6,189.8 141.6,187.7 142.5,186.1 143.5,183.3 144.5,184.7 145.4,183.1 146.4,181.2 147.4,177.6 148.3,181.8 149.3,183.5 150.3,183.1 151.2,186.1 152.2,197.9 153.2,195.3 154.1,195.7 155.1,188.5 156.1,187.5 157.0,193.4 158.0,195.1 159.0,192.6 159.9,191.4 160.9,193.4 161.9,192.2 162.8,197.1 163.8,197.9 164.8,197.9 165.7,197.7 166.7,194.9 167.7,194.9 168.6,193.0 169.6,194.8 170.6,194.4 171.6,197.3 172.5,194.2 173.5,190.8 174.5,191.0 175.4,190.0 176.4,195.3 177.4,197.7 178.3,193.4 179.3,190.2 180.3,192.2 181.2,192.6 182.2,194.4 183.2,192.4 184.1,189.8 185.1,183.1 186.1,183.3 187.0,184.9 188.0,186.1 189.0,185.3 189.9,178.6 190.9,177.2 191.9,177.8 192.8,180.2 193.8,180.2 194.8,180.2 195.7,178.8 196.7,176.3 197.7,177.2 198.6,182.0 199.6,183.1 200.6,182.2 201.5,180.8 202.5,180.2 203.5,178.2 204.4,181.8 205.4,180.8 206.4,181.4 207.3,180.2 208.3,180.4 209.3,180.2 210.3,184.1 211.2,186.1 212.2,194.8 213.2,207.3 214.1,205.0 215.1,205.2 216.1,202.0 217.0,203.8 218.0,208.7 219.0,208.1 219.9,211.5 220.9,206.6 221.9,203.8 222.8,207.5 223.8,206.4 224.8,203.8 225.7,202.4 226.7,200.3 227.7,200.3 228.6,203.8 229.6,200.8 230.6,199.7 231.5,199.1 232.5,196.9 233.5,196.9 234.4,194.9 235.4,194.9 236.4,197.3 237.3,195.9 238.3,194.9 239.3,195.7 240.2,191.6 241.2,190.8 242.2,194.8 243.1,198.5 244.1,200.8 245.1,200.7 246.0,201.8 247.0,199.7 248.0,197.9 249.0,199.9 249.9,201.4 250.9,202.0 251.9,203.0 252.8,203.6 253.8,203.8 254.8,200.8 255.7,197.9 256.7,197.5 257.7,200.8 258.6,200.8 259.6,202.0 260.6,203.8 261.5,203.8 262.5,206.4 263.5,206.8 264.4,204.4 265.4,206.4 266.4,206.9 267.3,207.5 268.3,214.4 269.3,211.7 270.2,211.7 271.2,215.6 272.2,214.4 273.1,213.6 274.1,212.6 275.1,214.8 276.0,217.8 277.0,224.1 278.0,223.1 278.9,219.7 279.9,220.5 280.9,220.3 281.8,221.5 282.8,219.5 283.8,218.6 284.7,220.1 285.7,217.6 286.7,215.8 287.7,216.6 288.6,218.6 289.6,215.4 290.6,212.6 291.5,210.1 292.5,209.7 293.5,210.1 294.4,211.7 295.4,213.8 296.4,209.7 297.3,210.1 298.3,209.7 299.3,209.7 300.2,210.1 301.2,212.6 302.2,213.2 303.1,212.8 304.1,213.0 305.1,214.4 306.0,211.3 307.0,204.8 308.0,208.9 308.9,207.3 309.9,203.8 310.9,203.0 311.8,204.4 312.8,199.7 313.8,197.9 314.7,199.5 315.7,198.1 316.7,193.0 317.6,199.3 318.6,205.8 319.6,206.8 320.5,209.1 321.5,209.7 322.5,209.1 323.4,206.8 324.4,206.4 325.4,205.0 326.4,206.8 327.3,205.0 328.3,200.8 329.3,200.8 330.2,198.1 331.2,194.4 332.2,192.8 333.1,197.9 334.1,193.2 335.1,194.8 336.0,194.9 337.0,195.3 338.0,195.9 338.9,198.5 339.9,201.0 340.9,200.8 341.8,200.8 342.8,200.7 343.8,199.9 344.7,202.4 345.7,203.8 346.7,204.0 347.6,201.0 348.6,204.8 349.6,204.0 350.5,205.8 351.5,199.1 352.5,200.3 353.4,196.1 354.4,197.9 355.4,196.5 356.3,198.9 357.3,198.3 358.3,198.7 359.2,199.9 360.2,199.5 361.2,200.1 362.1,197.3 363.1,194.9 364.1,194.9 365.1,194.9 366.0,196.7 367.0,196.7 368.0,203.2 368.9,199.3 369.9,198.7 370.9,194.9 371.8,197.1 372.8,199.9 373.8,199.7 374.7,203.0 375.7,203.8 376.7,206.0 377.6,204.2 378.6,203.8 379.6,203.8 380.5,202.8 381.5,201.6 382.5,198.5 383.4,198.5 384.4,197.9 385.4,197.5 386.3,196.9 387.3,197.9 388.3,202.2 389.2,202.4 390.2,200.3 391.2,198.3 392.1,196.1 393.1,194.9 394.1,191.0 395.0,191.8 396.0,189.8 397.0,187.9 397.9,189.6 398.9,195.1 399.9,192.0 400.8,195.9 401.8,194.9 402.8,197.9 403.8,204.4 404.7,203.8 405.7,203.2 406.7,203.4 407.6,202.2 408.6,204.6 409.6,204.2 410.5,202.6 411.5,203.8 412.5,203.8 413.4,203.4 414.4,206.8 415.4,206.0 416.3,210.3 417.3,215.6 418.3,215.0 419.2,211.1 420.2,207.1 421.2,208.7 422.1,206.8 423.1,205.2 424.1,198.1 425.0,197.9 426.0,196.9 427.0,197.7 427.9,198.5 428.9,202.6 429.9,198.3 430.8,196.1 431.8,194.9 432.8,194.9 433.7,194.9 434.7,198.9 435.7,205.0 436.6,206.0 437.6,205.4 438.6,207.9 439.5,206.0 440.5,205.6 441.5,206.8 442.5,206.0 443.4,204.8 444.4,205.6 445.4,209.5 446.3,208.7 447.3,207.9 448.3,202.8 449.2,197.7 450.2,201.4 451.2,205.0 452.1,205.6 453.1,204.6 454.1,200.8 455.0,198.9 456.0,197.9 457.0,196.7 457.9,197.7 458.9,200.8 459.9,197.9 460.8,200.5 461.8,200.8 462.8,199.1 463.7,196.1 464.7,194.9 465.7,194.9 466.6,198.1 467.6,197.9 468.6,194.9 469.5,195.7 470.5,192.6 471.5,196.1 472.4,200.8 473.4,200.8 474.4,198.7 475.3,197.9 476.3,193.4 477.3,193.2 478.2,194.4 479.2,192.0 480.2,192.0 481.2,196.9 482.1,201.4 483.1,202.2 484.1,202.6 485.0,202.8 486.0,197.5 487.0,194.9 487.9,192.0 488.9,192.0 489.9,192.2 490.8,196.3 491.8,199.1 492.8,195.1 493.7,193.6 494.7,203.6 495.7,204.4 496.6,204.0 497.6,202.6 498.6,199.9 499.5,200.8 500.5,203.6 501.5,204.6 502.4,203.8 503.4,202.8 504.4,200.8 505.3,198.3 506.3,194.9 507.3,196.3 508.2,194.6 509.2,191.0 510.2,192.0 511.1,190.0 512.1,186.1 513.1,186.5 514.0,189.1 515.0,190.4 516.0,191.8 516.9,188.1 517.9,184.9 518.9,184.5 519.9,183.1 520.8,184.1 521.8,184.9 522.8,185.3 523.7,177.6 524.7,176.3 525.7,174.3 526.6,182.0 527.6,180.2 528.6,181.0 529.5,187.9 530.5,189.1 531.5,189.1 532.4,191.8 533.4,193.2 534.4,190.8 535.3,192.0 536.3,189.1 537.3,190.0 538.2,191.0 539.2,193.4 540.2,192.0 541.1,192.0 542.1,192.0 543.1,190.8 544.0,192.0 545.0,192.0 546.0,192.0 546.9,192.4 547.9,194.0 548.9,190.0 549.8,189.1 550.8,190.2 551.8,192.0 552.7,194.4 553.7,194.9 554.7,193.8 555.6,191.0 556.6,186.9 557.6,184.7 558.6,182.2 559.5,183.1 560.5,185.3 561.5,190.6 562.4,191.0 563.4,194.9 564.4,192.0 565.3,189.4 566.3,192.0 567.3,191.0 568.2,187.5 569.2,185.5 570.2,183.7 571.1,183.1 572.1,183.1 573.1,188.3 574.0,197.9 575.0,197.9 576.0,198.7 576.9,198.5 577.9,198.3 578.9,199.7 579.8,195.9 580.8,194.9 581.8,194.9 582.7,199.9 583.7,197.9 584.7,200.5 585.6,198.1 586.6,195.5 587.6,195.9 588.5,194.4 589.5,192.0 590.5,192.0 591.4,192.0 592.4,192.0 593.4,193.0 594.3,193.4 595.3,194.4 596.3,192.6 597.3,194.9 598.2,192.8 599.2,189.8 600.2,183.1 601.1,184.1 602.1,199.3 603.1,196.3 604.0,193.0 605.0,193.2 606.0,193.0 606.9,195.9 607.9,194.9 608.9,194.9 609.8,195.1 610.8,197.1 611.8,194.6 612.7,193.0 613.7,192.4 614.7,189.1 615.6,188.3 616.6,185.5 617.6,183.1 618.5,183.1 619.5,188.7 620.5,191.0 621.4,192.0 622.4,192.0 623.4,189.1 624.3,186.1 625.3,188.1 626.3,194.4 627.2,196.9 628.2,199.5 629.2,198.9 630.1,197.9 631.1,195.1 632.1,192.6 633.0,188.1 634.0,191.2 635.0,192.0 636.0,193.6 636.9,194.4 637.9,192.0 638.9,192.0 639.8,192.0 640.8,192.0 641.8,191.4 642.7,190.0 643.7,200.5 644.7,201.2 645.6,204.0 646.6,203.8 647.6,199.3 648.5,203.8 649.5,206.6 650.5,212.8 651.4,215.2 652.4,211.7 653.4,209.9 654.3,208.7 655.3,206.0 656.3,205.8 657.2,204.6 658.2,203.8 659.2,202.0 660.1,202.8 661.1,206.8 662.1,206.8 663.0,208.7 664.0,209.7 665.0,206.9 665.9,206.0 666.9,206.8 667.9,209.7 668.8,212.1 669.8,209.7 670.8,208.5 671.7,208.9 672.7,206.8 673.7,209.5 674.7,209.1 675.6,206.8 676.6,201.8 677.6,199.1 678.5,201.0 679.5,202.8 680.5,200.8 681.4,200.8 682.4,198.7 683.4,197.9 684.3,197.9 685.3,197.7 686.3,194.9 687.2,195.3 688.2,196.5 689.2,196.5 690.1,197.9 691.1,200.7 692.1,199.1 693.0,197.7 694.0,194.9 695.0,195.7 695.9,192.0 696.9,189.8 697.9,195.7 698.8,198.7 698.8,215.6 697.9,218.0 696.9,218.4 695.9,212.1 695.0,211.3 694.0,212.6 693.0,217.0 692.1,218.6 691.1,218.0 690.1,215.8 689.2,218.0 688.2,218.6 687.2,222.9 686.3,229.4 685.3,226.8 684.3,222.3 683.4,221.5 682.4,221.5 681.4,221.5 680.5,221.5 679.5,223.9 678.5,221.5 677.6,226.8 676.6,233.3 675.6,233.3 674.7,230.9 673.7,231.3 672.7,227.0 671.7,224.4 670.8,224.4 669.8,224.8 668.8,230.9 667.9,240.0 666.9,240.0 665.9,243.5 665.0,242.5 664.0,236.2 663.0,230.9 662.1,232.7 661.1,230.3 660.1,229.4 659.2,229.2 658.2,230.0 657.2,227.4 656.3,227.4 655.3,227.4 654.3,228.6 653.4,232.9 652.4,234.5 651.4,238.6 650.5,235.9 649.5,235.5 648.5,231.5 647.6,230.3 646.6,231.3 645.6,233.1 644.7,236.2 643.7,233.5 642.7,230.7 641.8,232.5 640.8,225.6 639.8,226.4 638.9,223.1 637.9,224.4 636.9,224.4 636.0,222.5 635.0,218.4 634.0,215.6 633.0,216.6 632.1,216.6 631.1,217.4 630.1,220.1 629.2,223.3 628.2,230.3 627.2,229.4 626.3,227.4 625.3,228.4 624.3,227.6 623.4,227.4 622.4,219.7 621.4,217.8 620.5,215.8 619.5,212.6 618.5,215.6 617.6,212.6 616.6,209.9 615.6,212.6 614.7,212.1 613.7,213.8 612.7,213.6 611.8,210.5 610.8,211.1 609.8,209.7 608.9,210.3 607.9,212.6 606.9,214.4 606.0,213.0 605.0,213.8 604.0,214.6 603.1,226.6 602.1,225.0 601.1,219.5 600.2,218.6 599.2,214.2 598.2,212.1 597.3,212.1 596.3,211.7 595.3,212.6 594.3,211.1 593.4,212.6 592.4,211.3 591.4,216.2 590.5,216.8 589.5,215.6 588.5,216.8 587.6,219.5 586.6,223.3 585.6,223.1 584.7,223.3 583.7,223.5 582.7,221.5 581.8,220.1 580.8,217.8 579.8,215.6 578.9,215.0 577.9,215.6 576.9,216.8 576.0,215.6 575.0,218.2 574.0,217.2 573.1,215.6 572.1,215.6 571.1,215.6 570.2,215.6 569.2,215.6 568.2,217.0 567.3,218.6 566.3,218.6 565.3,217.4 564.4,213.6 563.4,214.4 562.4,213.6 561.5,212.6 560.5,210.1 559.5,209.7 558.6,207.5 557.6,207.7 556.6,209.5 555.6,211.7 554.7,209.7 553.7,208.3 552.7,212.6 551.8,211.9 550.8,213.8 549.8,212.5 548.9,209.7 547.9,206.9 546.9,211.1 546.0,214.6 545.0,215.6 544.0,214.2 543.1,212.6 542.1,210.1 541.1,211.1 540.2,210.5 539.2,206.4 538.2,211.9 537.3,210.3 536.3,214.8 535.3,223.7 534.4,219.5 533.4,216.6 532.4,216.8 531.5,215.0 530.5,212.6 529.5,212.6 528.6,210.5 527.6,213.4 526.6,216.6 525.7,213.0 524.7,212.8 523.7,212.1 522.8,206.8 521.8,206.8 520.8,206.6 519.9,203.8 518.9,210.7 517.9,209.9 516.9,209.7 516.0,208.7 515.0,206.8 514.0,206.8 513.1,208.9 512.1,205.2 511.1,212.6 510.2,212.6 509.2,211.7 508.2,215.6 507.3,221.3 506.3,224.4 505.3,224.4 504.4,224.4 503.4,224.4 502.4,224.8 501.5,225.2 500.5,228.2 499.5,234.7 498.6,232.1 497.6,227.4 496.6,227.4 495.7,227.4 494.7,224.4 493.7,229.0 492.8,226.4 491.8,221.7 490.8,221.1 489.9,216.8 488.9,216.4 487.9,219.5 487.0,221.1 486.0,218.6 485.0,216.6 484.1,218.6 483.1,219.9 482.1,216.0 481.2,220.7 480.2,219.3 479.2,215.6 478.2,215.6 477.3,217.2 476.3,216.4 475.3,217.6 474.4,221.9 473.4,221.7 472.4,226.4 471.5,230.3 470.5,226.4 469.5,224.3 468.6,221.5 467.6,218.6 466.6,219.5 465.7,217.4 464.7,215.6 463.7,217.8 462.8,216.4 461.8,216.4 460.8,215.4 459.9,212.6 458.9,214.6 457.9,217.0 457.0,219.5 456.0,222.7 455.0,220.5 454.1,220.1 453.1,221.5 452.1,241.0 451.2,248.1 450.2,249.0 449.2,247.7 448.3,245.1 447.3,246.1 446.3,248.1 445.4,248.1 444.4,250.6 443.4,251.4 442.5,255.7 441.5,259.9 440.5,259.9 439.5,258.9 438.6,255.3 437.6,254.7 436.6,252.6 435.7,251.0 434.7,250.8 433.7,251.8 432.8,252.8 431.8,251.0 430.8,250.4 429.9,248.4 428.9,250.8 427.9,251.0 427.0,247.9 426.0,245.1 425.0,246.1 424.1,246.9 423.1,245.1 422.1,247.1 421.2,245.9 420.2,244.1 419.2,245.7 418.3,248.1 417.3,247.7 416.3,245.1 415.4,245.7 414.4,243.7 413.4,238.8 412.5,233.3 411.5,231.3 410.5,228.4 409.6,228.8 408.6,228.6 407.6,229.0 406.7,224.4 405.7,224.4 404.7,223.3 403.8,224.3 402.8,225.6 401.8,225.4 400.8,227.6 399.9,226.8 398.9,224.6 397.9,225.8 397.0,223.9 396.0,224.1 395.0,228.0 394.1,233.5 393.1,234.5 392.1,235.1 391.2,242.1 390.2,242.5 389.2,242.7 388.3,241.8 387.3,237.8 386.3,237.6 385.4,238.8 384.4,244.1 383.4,240.0 382.5,235.1 381.5,233.3 380.5,233.3 379.6,235.5 378.6,230.5 377.6,228.6 376.7,228.2 375.7,230.3 374.7,226.0 373.8,226.2 372.8,225.4 371.8,225.6 370.9,230.3 369.9,226.6 368.9,221.5 368.0,221.5 367.0,220.9 366.0,224.1 365.1,218.9 364.1,216.8 363.1,218.6 362.1,218.9 361.2,221.3 360.2,219.7 359.2,220.1 358.3,220.3 357.3,224.4 356.3,224.4 355.4,226.0 354.4,227.0 353.4,224.4 352.5,225.0 351.5,224.4 350.5,219.5 349.6,219.1 348.6,222.5 347.6,226.8 346.7,227.4 345.7,227.4 344.7,226.6 343.8,223.5 342.8,223.9 341.8,221.5 340.9,221.5 339.9,221.5 338.9,221.5 338.0,221.5 337.0,217.8 336.0,216.6 335.1,217.6 334.1,215.6 333.1,213.0 332.2,218.6 331.2,224.4 330.2,233.5 329.3,236.2 328.3,236.2 327.3,234.7 326.4,234.7 325.4,236.1 324.4,230.5 323.4,234.3 322.5,234.7 321.5,234.3 320.5,235.9 319.6,233.3 318.6,234.7 317.6,235.7 316.7,235.1 315.7,236.2 314.7,236.2 313.8,233.3 312.8,233.3 311.8,233.3 310.9,231.3 309.9,233.3 308.9,233.3 308.0,230.3 307.0,230.3 306.0,231.3 305.1,238.8 304.1,233.9 303.1,231.5 302.2,229.4 301.2,227.4 300.2,229.8 299.3,227.4 298.3,234.1 297.3,232.1 296.4,228.4 295.4,230.9 294.4,252.8 293.5,256.9 292.5,255.7 291.5,253.9 290.6,253.9 289.6,253.9 288.6,251.0 287.7,248.1 286.7,245.3 285.7,243.1 284.7,242.1 283.8,242.0 282.8,239.2 281.8,239.2 280.9,239.2 279.9,240.4 278.9,242.0 278.0,240.4 277.0,244.3 276.0,242.1 275.1,240.2 274.1,239.2 273.1,238.2 272.2,236.2 271.2,234.7 270.2,233.3 269.3,233.3 268.3,234.7 267.3,233.9 266.4,233.3 265.4,233.3 264.4,233.3 263.5,230.5 262.5,229.0 261.5,230.3 260.6,228.0 259.6,222.7 258.6,219.1 257.7,218.6 256.7,219.7 255.7,218.6 254.8,220.1 253.8,221.5 252.8,222.1 251.9,221.9 250.9,221.5 249.9,221.3 249.0,219.5 248.0,221.1 247.0,218.9 246.0,220.7 245.1,223.1 244.1,221.5 243.1,221.5 242.2,221.1 241.2,218.6 240.2,216.2 239.3,215.6 238.3,215.2 237.3,215.6 236.4,215.6 235.4,216.4 234.4,225.4 233.5,225.4 232.5,225.6 231.5,223.9 230.6,221.5 229.6,219.5 228.6,220.3 227.7,220.5 226.7,222.1 225.7,232.9 224.8,237.8 223.8,236.2 222.8,235.3 221.9,237.4 220.9,232.9 219.9,231.1 219.0,235.3 218.0,231.5 217.0,229.6 216.1,229.4 215.1,227.6 214.1,229.6 213.2,230.9 212.2,234.5 211.2,228.4 210.3,227.4 209.3,226.6 208.3,226.4 207.3,224.8 206.4,227.0 205.4,229.6 204.4,228.0 203.5,227.4 202.5,228.6 201.5,225.6 200.6,222.1 199.6,227.8 198.6,225.0 197.7,219.5 196.7,215.6 195.7,215.6 194.8,217.8 193.8,219.3 192.8,219.3 191.9,218.6 190.9,217.0 189.9,218.7 189.0,233.3 188.0,233.5 187.0,230.3 186.1,224.1 185.1,226.6 184.1,225.4 183.2,225.6 182.2,227.6 181.2,230.3 180.3,230.5 179.3,231.7 178.3,233.3 177.4,234.5 176.4,229.4 175.4,228.4 174.5,224.4 173.5,223.7 172.5,225.6 171.6,224.4 170.6,223.5 169.6,221.5 168.6,220.5 167.7,220.5 166.7,220.5 165.7,217.2 164.8,217.2 163.8,214.0 162.8,212.6 161.9,212.6 160.9,212.1 159.9,210.3 159.0,211.9 158.0,213.8 157.0,217.6 156.1,226.2 155.1,224.6 154.1,225.0 153.2,221.5 152.2,222.5 151.2,216.4 150.3,217.4 149.3,221.3 148.3,222.7 147.4,223.3 146.4,225.2 145.4,224.8 144.5,223.9 143.5,221.5 142.5,221.3 141.6,219.7 140.6,215.6 139.6,215.0 138.7,215.2 137.7,217.8 136.7,219.7 135.8,221.1 134.8,220.7 133.8,223.5 132.9,218.7 131.9,218.9 130.9,221.3 129.9,222.1 129.0,222.5 128.0,222.3 127.0,224.4 126.1,225.8 125.1,227.4 124.1,231.1 123.2,230.9 122.2,224.8 121.2,224.4 120.3,226.8 119.3,223.5 118.3,224.4 117.4,226.6 116.4,225.8 115.4,225.6 114.5,223.5 113.5,224.4 112.5,223.5 111.6,221.5 110.6,221.5 109.6,223.5 108.7,224.4 107.7,224.4 106.7,224.4 105.8,224.4 104.8,225.4 103.8,224.4 102.9,225.0 101.9,224.8 100.9,223.7 100.0,221.5 99.0,219.9 98.0,220.9 97.1,220.5 96.1,220.7 95.1,223.3 94.2,219.3 93.2,223.5 92.2,219.7 91.2,215.4 90.3,212.6 89.3,212.3 88.3,226.8 87.4,238.6 86.4,238.0 85.4,236.2 84.5,234.7 83.5,238.0 82.5,237.4 81.6,234.7 80.6,232.9 79.6,230.3 78.7,229.0 77.7,227.0 76.7,224.4 75.8,219.9 74.8,215.4 73.8,215.0 72.9,215.6 71.9,230.3 70.9,262.8 70.0,262.8 69.0,259.9 68.0,259.9 67.1,259.9 66.1,258.9 65.1,268.7 64.2,268.7 63.2,265.8 62.2,268.1 61.3,272.6 60.3,274.6 59.3,274.6 58.4,276.2 57.4,279.3 56.4,299.0 55.5,303.9 Z"></path>
    <path class="data-series series-green" d="M55.5,176.4 56.4,201.2 57.4,217.3 58.4,217.5 59.3,211.3 60.3,212.7 61.3,212.3 62.2,215.1 63.2,217.5 64.2,220.8 65.1,220.1 66.1,213.4 67.1,210.8 68.0,210.8 69.0,211.2 70.0,206.4 70.9,199.6 71.9,196.3 72.9,199.0 73.8,199.0 74.8,198.8 75.8,200.3 76.7,204.3 77.7,205.4 78.7,207.8 79.6,212.3 80.6,213.5 81.6,209.2 82.5,209.5 83.5,211.1 84.5,209.8 85.4,212.7 86.4,210.5 87.4,208.6 88.3,204.6 89.3,203.6 90.3,202.9 91.2,203.9 92.2,205.9 93.2,205.4 94.2,204.7 95.1,206.4 96.1,206.1 97.1,207.6 98.0,208.5 99.0,211.9 100.0,212.2 100.9,213.7 101.9,214.9 102.9,216.1 103.8,215.5 104.8,215.2 105.8,214.5 106.7,214.8 107.7,215.8 108.7,212.6 109.6,212.4 110.6,212.9 111.6,211.4 112.5,212.8 113.5,212.3 114.5,213.1 115.4,214.2 116.4,212.2 117.4,208.5 118.3,205.1 119.3,205.5 120.3,207.3 121.2,208.0 122.2,206.9 123.2,207.4 124.1,208.2 125.1,210.5 126.1,207.0 127.0,205.9 128.0,206.1 129.0,208.7 129.9,210.8 130.9,211.4 131.9,210.0 132.9,210.7 133.8,212.2 134.8,211.1 135.8,208.1 136.7,203.9 137.7,203.6 138.7,201.8 139.6,201.6 140.6,201.6 141.6,203.7 142.5,205.5 143.5,206.1 144.5,209.7 145.4,208.6 146.4,207.5 147.4,207.2 148.3,208.6 149.3,202.3 150.3,200.2 151.2,203.9 152.2,209.7 153.2,207.8 154.1,206.3 155.1,203.8 156.1,203.6 157.0,202.9 158.0,202.6 159.0,201.7 159.9,202.1 160.9,203.0 161.9,203.4 162.8,204.5 163.8,206.1 164.8,207.6 165.7,207.0 166.7,206.4 167.7,206.8 168.6,206.4 169.6,207.2 170.6,209.4 171.6,211.7 172.5,213.4 173.5,212.0 174.5,212.8 175.4,210.9 176.4,213.9 177.4,216.6 178.3,214.9 179.3,212.5 180.3,212.5 181.2,210.1 182.2,211.7 183.2,213.1 184.1,211.2 185.1,208.0 186.1,206.7 187.0,208.1 188.0,204.5 189.0,205.1 189.9,200.8 190.9,201.8 191.9,203.2 192.8,204.2 193.8,204.4 194.8,200.0 195.7,196.9 196.7,196.1 197.7,198.1 198.6,201.0 199.6,201.4 200.6,198.5 201.5,200.8 202.5,203.2 203.5,203.6 204.4,209.0 205.4,206.7 206.4,205.5 207.3,209.2 208.3,212.2 209.3,206.5 210.3,208.1 211.2,215.9 212.2,219.2 213.2,219.9 214.1,219.4 215.1,220.5 216.1,221.0 217.0,221.6 218.0,221.1 219.0,220.8 219.9,219.8 220.9,219.4 221.9,219.8 222.8,219.1 223.8,217.9 224.8,216.8 225.7,213.9 226.7,210.3 227.7,209.4 228.6,210.4 229.6,210.9 230.6,211.3 231.5,210.4 232.5,209.5 233.5,207.0 234.4,205.6 235.4,205.4 236.4,206.9 237.3,206.4 238.3,205.9 239.3,207.2 240.2,205.9 241.2,206.6 242.2,208.3 243.1,209.4 244.1,209.0 245.1,210.2 246.0,209.7 247.0,209.8 248.0,209.7 249.0,209.5 249.9,210.4 250.9,210.6 251.9,212.2 252.8,212.7 253.8,212.0 254.8,209.7 255.7,209.5 256.7,209.3 257.7,208.7 258.6,209.9 259.6,211.7 260.6,214.2 261.5,215.9 262.5,216.8 263.5,216.6 264.4,218.9 265.4,221.7 266.4,221.9 267.3,221.0 268.3,225.2 269.3,224.4 270.2,224.2 271.2,224.9 272.2,225.1 273.1,225.9 274.1,226.0 275.1,227.5 276.0,229.2 277.0,230.5 278.0,230.6 278.9,229.5 279.9,229.0 280.9,230.3 281.8,229.8 282.8,229.8 283.8,230.9 284.7,231.7 285.7,231.8 286.7,234.3 287.7,235.7 288.6,238.5 289.6,239.2 290.6,236.7 291.5,232.2 292.5,228.8 293.5,226.4 294.4,223.4 295.4,221.2 296.4,218.5 297.3,218.8 298.3,219.1 299.3,219.3 300.2,221.1 301.2,221.6 302.2,221.2 303.1,221.3 304.1,221.7 305.1,222.0 306.0,220.3 307.0,218.5 308.0,221.2 308.9,221.3 309.9,219.0 310.9,219.5 311.8,221.8 312.8,220.3 313.8,216.4 314.7,218.6 315.7,217.7 316.7,216.7 317.6,218.0 318.6,218.3 319.6,218.4 320.5,221.4 321.5,219.8 322.5,218.9 323.4,219.0 324.4,219.1 325.4,221.1 326.4,221.0 327.3,216.1 328.3,213.7 329.3,212.5 330.2,207.8 331.2,204.1 332.2,204.7 333.1,206.3 334.1,207.1 335.1,207.3 336.0,206.7 337.0,207.9 338.0,210.7 338.9,214.3 339.9,214.1 340.9,213.3 341.8,213.2 342.8,213.7 343.8,213.8 344.7,214.5 345.7,215.7 346.7,214.5 347.6,213.2 348.6,214.4 349.6,212.8 350.5,212.4 351.5,212.4 352.5,212.0 353.4,211.5 354.4,213.4 355.4,212.0 356.3,211.6 357.3,211.5 358.3,210.4 359.2,209.8 360.2,210.3 361.2,210.9 362.1,209.0 363.1,208.5 364.1,207.7 365.1,208.4 366.0,210.7 367.0,211.1 368.0,212.1 368.9,212.9 369.9,214.8 370.9,214.2 371.8,214.1 372.8,213.2 373.8,212.4 374.7,214.3 375.7,216.8 376.7,217.5 377.6,217.2 378.6,217.3 379.6,219.5 380.5,219.3 381.5,220.5 382.5,219.1 383.4,215.8 384.4,217.3 385.4,216.2 386.3,220.6 387.3,222.3 388.3,221.5 389.2,217.7 390.2,213.9 391.2,212.9 392.1,210.3 393.1,208.2 394.1,207.3 395.0,208.6 396.0,208.4 397.0,211.3 397.9,213.6 398.9,213.7 399.9,213.8 400.8,212.1 401.8,211.6 402.8,214.5 403.8,213.1 404.7,212.4 405.7,213.3 406.7,211.8 407.6,212.5 408.6,215.5 409.6,215.7 410.5,215.8 411.5,218.5 412.5,220.4 413.4,221.5 414.4,225.3 415.4,226.4 416.3,227.3 417.3,228.0 418.3,228.6 419.2,222.4 420.2,218.8 421.2,223.2 422.1,224.7 423.1,222.5 424.1,223.6 425.0,222.4 426.0,219.7 427.0,226.2 427.9,232.3 428.9,233.5 429.9,227.6 430.8,226.6 431.8,219.9 432.8,224.4 433.7,227.4 434.7,229.8 435.7,230.2 436.6,235.2 437.6,234.2 438.6,236.2 439.5,235.4 440.5,234.1 441.5,230.0 442.5,226.5 443.4,225.3 444.4,223.5 445.4,222.2 446.3,222.9 447.3,218.0 448.3,215.4 449.2,216.7 450.2,215.3 451.2,212.8 452.1,213.3 453.1,212.3 454.1,211.5 455.0,211.1 456.0,209.6 457.0,209.0 457.9,208.4 458.9,208.1 459.9,206.8 460.8,208.4 461.8,208.3 462.8,208.6 463.7,208.4 464.7,208.0 465.7,208.1 466.6,208.4 467.6,207.6 468.6,208.3 469.5,210.9 470.5,211.6 471.5,212.9 472.4,211.8 473.4,210.8 474.4,209.9 475.3,208.9 476.3,205.6 477.3,206.3 478.2,207.1 479.2,207.6 480.2,208.7 481.2,210.1 482.1,209.5 483.1,209.6 484.1,209.4 485.0,209.1 486.0,208.0 487.0,205.0 487.9,205.2 488.9,204.5 489.9,204.7 490.8,208.8 491.8,210.3 492.8,212.2 493.7,214.0 494.7,216.1 495.7,217.0 496.6,217.3 497.6,216.7 498.6,217.5 499.5,216.8 500.5,214.6 501.5,213.5 502.4,212.2 503.4,212.7 504.4,212.7 505.3,211.7 506.3,209.7 507.3,206.7 508.2,204.5 509.2,202.1 510.2,201.3 511.1,198.9 512.1,198.5 513.1,197.4 514.0,197.3 515.0,197.9 516.0,198.3 516.9,198.0 517.9,197.1 518.9,195.4 519.9,195.3 520.8,196.8 521.8,197.6 522.8,198.7 523.7,197.3 524.7,195.8 525.7,197.7 526.6,198.6 527.6,194.8 528.6,197.7 529.5,198.1 530.5,197.8 531.5,199.2 532.4,201.6 533.4,201.5 534.4,202.3 535.3,202.6 536.3,199.3 537.3,200.5 538.2,201.3 539.2,198.9 540.2,199.3 541.1,200.3 542.1,200.3 543.1,201.1 544.0,202.0 545.0,202.3 546.0,201.4 546.9,201.2 547.9,201.7 548.9,201.1 549.8,201.0 550.8,201.7 551.8,201.3 552.7,202.2 553.7,203.1 554.7,203.2 555.6,202.9 556.6,201.0 557.6,199.9 558.6,200.9 559.5,202.7 560.5,202.4 561.5,201.6 562.4,202.9 563.4,203.5 564.4,202.5 565.3,203.5 566.3,204.0 567.3,205.1 568.2,200.7 569.2,199.2 570.2,200.0 571.1,203.8 572.1,207.2 573.1,207.8 574.0,206.4 575.0,207.7 576.0,207.2 576.9,206.0 577.9,206.8 578.9,207.7 579.8,207.1 580.8,207.2 581.8,209.3 582.7,210.1 583.7,211.2 584.7,210.2 585.6,209.9 586.6,210.0 587.6,207.7 588.5,205.1 589.5,203.8 590.5,203.1 591.4,201.3 592.4,200.9 593.4,203.1 594.3,201.4 595.3,202.2 596.3,202.1 597.3,203.4 598.2,201.9 599.2,201.7 600.2,202.5 601.1,206.1 602.1,210.8 603.1,209.3 604.0,204.7 605.0,203.0 606.0,203.8 606.9,203.3 607.9,203.2 608.9,203.2 609.8,203.6 610.8,202.9 611.8,202.1 612.7,202.4 613.7,202.3 614.7,201.6 615.6,199.5 616.6,199.0 617.6,201.4 618.5,203.8 619.5,203.0 620.5,202.0 621.4,204.4 622.4,206.5 623.4,208.8 624.3,206.6 625.3,211.1 626.3,212.3 627.2,211.7 628.2,211.1 629.2,210.1 630.1,208.5 631.1,206.6 632.1,205.2 633.0,201.8 634.0,204.1 635.0,206.3 636.0,204.8 636.9,204.3 637.9,204.2 638.9,205.4 639.8,209.1 640.8,211.3 641.8,212.2 642.7,213.0 643.7,221.6 644.7,223.5 645.6,221.5 646.6,218.9 647.6,217.0 648.5,219.7 649.5,223.0 650.5,223.2 651.4,222.5 652.4,220.9 653.4,220.4 654.3,220.0 655.3,218.4 656.3,218.7 657.2,219.0 658.2,221.4 659.2,220.4 660.1,218.2 661.1,219.6 662.1,220.0 663.0,219.4 664.0,221.1 665.0,221.5 665.9,221.0 666.9,222.1 667.9,223.2 668.8,219.3 669.8,217.1 670.8,217.1 671.7,217.7 672.7,216.5 673.7,218.5 674.7,218.8 675.6,217.0 676.6,215.8 677.6,212.5 678.5,212.3 679.5,212.7 680.5,212.0 681.4,213.5 682.4,213.6 683.4,209.5 684.3,208.6 685.3,210.2 686.3,211.6 687.2,209.8 688.2,208.7 689.2,208.9 690.1,207.9 691.1,208.5 692.1,207.9 693.0,206.0 694.0,204.6 695.0,204.5 695.9,204.6 696.9,207.0 697.9,206.8 698.8,206.8"></path>
</svg>