<svg width="720" height="360" xmlns="http://www.w3.org/2000/svg">

<style>
  .background {
    fill: none;
  }
  .axis {
    stroke: #111;
    stroke-width: 1;
  }
  .axis-label {
    text-anchor: middle;
  }
  .axis-units {
    font-size: 10px;
    font-family: Arial;
  }
  .y-axis-text {
    text-anchor: end;
  }
  .x-axis-text {
    text-anchor: middle;
  }
  .gridlines {
    stroke: black;
    stroke-width: 0.3;
    fill: none;
    opacity: 0.5;
  }
  .series-red {
    color: #ae5d40;
  }
  .series-green {
    color: #4f7754;
  }
  .series-blue {
    color: #433a60;
  }
  .data-series {
    fill: none;
    opacity: 0.9;
    stroke: currentColor;
    stroke-width: 2;
  }
  </style>

    <text class="axis-label" x="377.5" y="345">Time (1000 ticks)</text>
    <text class="axis-label" x="0" y="162.5" transform="translate(20.0) rotate(-90, 0, 162.5)">Population size</text>
    <line class="axis" x1="55" y1="310" x2="701" y2="310"></line>
    <line class="axis" x1="55" y1="310" x2="55" y2="15"></line>
    <g class="axis-units">
        <g class="x-axis-text">
            <text x="55.0" y="322">0</text>
            <text x="87.25" y="322">100</text>
            <text x="119.5" y="322">200</text>
            <text x="151.75" y="322">300</text>
            <text x="184.0" y="322">400</text>
            <text x="216.25" y="322">500</text>
            <text x="248.5" y="322">600</text>
            <text x="280.75" y="322">700</text>
            <text x="313.0" y="322">800</text>
            <text x="345.25" y="322">900</text>
            <text x="377.5" y="322">1000</text>
            <text x="409.75" y="322">1100</text>
            <text x="442.0" y="322">1200</text>
            <text x="474.25" y="322">1300</text>
            <text x="506.49999999999994" y="322">1400</text>
            <text x="538.75" y="322">1500</text>
            <text x="571.0" y="322">1600</text>
            <text x="603.25" y="322">1700</text>
            <text x="635.5" y="322">1800</text>
            <text x="667.75" y="322">1900</text>
            <text x="700.0" y="322">2000</text>
        </g>
        <g class="y-axis-text">
            <text x="52" y="313.0">0</text>
            <text x="52" y="276.125">50</text>
            <text x="52" y="239.25">100</text>
            <text x="52" y="202.375">150</text>
            <text x="52" y="165.5">200</text>
            <text x="52" y="128.625">250</text>
            <text x="52" y="91.75">300</text>
            <text x="52" y="54.875">350</text>
            <text x="52" y="18.0">400</text>
        </g>
    </g>
    <g class="gridlines">
        <line x1="87.5" y1="310" x2="87.5" y2="15"></line>
        <line x1="119.5" y1="310" x2="119.5" y2="15"></line>
        <line x1="151.5" y1="310" x2="151.5" y2="15"></line>
        <line x1="184.5" y1="310" x2="184.5" y2="15"></line>
        <line x1="216.5" y1="310" x2="216.5" y2="15"></line>
        <line x1="248.5" y1="310" x2="248.5" y2="15"></line>
        <line x1="280.5" y1="310" x2="280.5" y2="15"></line>
        <line x1="313.5" y1="310" x2="313.5" y2="15"></line>
        <line x1="345.5" y1="310" x2="345.5" y2="15"></line>
        <line x1="377.5" y1="310" x2="377.5" y2="15"></line>
        <line x1="409.5" y1="310" x2="409.5" y2="15"></line>
        <line x1="442.5" y1="310" x2="442.5" y2="15"></line>
        <line x1="474.5" y1="310" x2="474.5" y2="15"></line>
        <line x1="506.5" y1="310" x2="506.5" y2="15"></line>
        <line x1="538.5" y1="310" x2="538.5" y2="15"></line>
        <line x1="571.5" y1="310" x2="571.5" y2="15"></line>
        <line x1="603.5" y1="310" x2="603.5" y2="15"></line>
        <line x1="635.5" y1="310" x2="635.5" y2="15"></line>
        <line x1="667.5" y1="310" x2="667.5" y2="15"></line>
        <line x1="700.5" y1="310" x2="700.5" y2="15"></line>
        <line x1="55" y1="273.5" x2="700" y2="273.5"></line>
        <line x1="55" y1="236.5" x2="700" y2="236.5"></line>
        <line x1="55" y1="199.5" x2="700" y2="199.5"></line>
        <line x1="55" y1="162.5" x2="700" y2="162.5"></line>
        <line x1="55" y1="125.5" x2="700" y2="125.5"></line>
        <line x1="55" y1="88.5" x2="700" y2="88.5"></line>
        <line x1="55" y1="51.5" x2="700" y2="51.5"></line>
        <line x1="55" y1="15.5" x2="700" y2="15.5"></line>
    </g>
    <path class="data-series series-green" d="M55.5,122.2 56.5,57.4 57.5,17.1 58.5,134.2 59.5,41.3 60.5,153.2 61.5,99.3 62.5,105.8 63.5,142.6 64.5,122.1 65.5,134.8 66.5,90.3 67.5,158.8 68.5,139.4 69.5,144.4 70.5,155.1 71.5,123.1 72.5,163.6 73.5,140.9 74.5,165.3 75.5,121.4 76.5,161.7 77.5,154.1 78.5,167.0 79.5,167.4 80.5,151.8 81.5,153.2 82.5,161.2 83.5,147.6 84.5,160.4 85.5,158.0 86.5,183.2 87.5,149.1 88.5,178.7 89.5,166.5 90.5,180.6 91.5,165.7 92.5,165.0 93.5,146.7 94.5,174.0 95.5,149.5 96.5,164.2 97.5,115.0 98.5,188.6 99.5,154.8 100.5,132.2 101.5,170.1 102.5,126.1 103.5,175.9 104.5,137.9 105.5,188.3 106.5,157.7 107.5,170.4 108.5,167.1 109.5,158.4 110.5,160.0 111.5,185.3 112.5,157.2 113.5,184.0 114.5,132.2 115.5,177.3 116.5,166.6 117.5,177.4 118.5,154.5 119.5,184.0 120.5,158.2 121.5,169.0 122.5,167.6 123.5,171.0 124.5,195.9 125.5,131.1 126.5,200.4 127.5,135.5 128.5,171.3 129.5,171.8 130.5,188.7 131.5,141.3 132.5,191.5 133.5,171.3 134.5,175.9 135.5,191.6 136.5,160.2 137.5,184.9 138.5,174.0 139.5,192.9 140.5,160.3 141.5,190.9 142.5,191.9 143.5,186.1 144.5,184.4 145.5,141.2 146.5,203.3 147.5,177.2 148.5,160.9 149.5,155.7 150.5,180.2 151.5,156.6 152.5,175.9 153.5,196.6 154.5,187.0 155.5,179.2 156.5,181.8 157.5,180.8 158.5,208.2 159.5,137.7 160.5,211.6 161.5,164.8 162.5,204.1 163.5,187.7 164.5,190.7 165.5,191.3 166.5,202.4 167.5,176.1 168.5,212.0 169.5,194.6 170.5,190.5 171.5,200.9 172.5,180.9 173.5,207.9 174.5,211.7 175.5,183.3 176.5,193.1 177.5,213.6 178.5,199.5 179.5,191.0 180.5,202.7 181.5,207.5 182.5,211.1 183.5,215.9 184.5,214.2 185.5,215.1 186.5,204.3 187.5,207.1 188.5,189.8 189.5,230.8 190.4,187.0 191.4,229.1 192.4,207.2 193.4,226.6 194.4,194.8 195.4,226.9 196.4,213.2 197.4,224.3 198.4,215.6 199.4,230.9 200.4,220.7 201.4,220.9 202.4,218.7 203.4,231.1 204.4,216.2 205.4,220.7 206.4,236.9 207.4,223.4 208.4,211.2 209.4,201.2 210.4,225.8 211.4,208.3 212.4,230.6 213.4,222.6 214.4,221.8 215.4,233.7 216.4,190.0 217.4,222.7 218.4,217.3 219.4,210.2 220.4,230.3 221.4,218.8 222.4,211.4 223.4,230.2 224.4,233.2 225.4,220.8 226.4,233.4 227.4,213.1 228.4,225.5 229.4,228.2 230.4,231.6 231.4,216.7 232.4,212.9 233.4,236.4 234.4,218.3 235.4,219.3 236.4,223.8 237.4,229.4 238.4,223.5 239.4,225.5 240.4,209.7 241.4,230.8 242.4,228.9 243.4,224.9 244.4,225.8 245.4,224.6 246.4,217.8 247.4,242.5 248.4,225.4 249.4,243.0 250.4,224.9 251.4,219.3 252.4,223.6 253.4,231.1 254.4,233.5 255.4,233.4 256.4,217.5 257.4,220.5 258.4,231.4 259.4,219.3 260.4,226.9 261.4,224.2 262.4,223.3 263.4,231.0 264.4,217.4 265.4,237.4 266.4,231.3 267.4,245.6 268.4,227.0 269.4,236.0 270.4,212.7 271.4,234.3 272.4,236.2 273.4,225.2 274.4,237.0 275.4,223.6 276.4,226.1 277.4,226.2 278.4,234.6 279.4,226.6 280.4,239.3 281.4,233.8 282.4,230.7 283.4,219.6 284.4,225.8 285.4,241.4 286.4,222.9 287.4,225.4 288.4,238.2 289.4,214.4 290.4,242.9 291.4,235.8 292.4,215.1 293.4,236.9 294.4,234.6 295.4,237.1 296.4,231.5 297.4,236.0 298.4,228.1 299.4,235.5 300.4,221.6 301.4,238.7 302.4,225.0 303.4,230.0 304.4,235.9 305.4,231.3 306.4,242.1 307.4,222.0 308.4,226.6 309.4,234.6 310.4,243.7 311.4,224.9 312.4,223.0 313.4,234.8 314.4,244.4 315.4,228.2 316.4,239.4 317.4,232.2 318.4,237.5 319.4,222.7 320.4,222.0 321.4,242.8 322.4,244.6 323.4,216.8 324.4,243.7 325.4,230.7 326.4,226.3 327.4,237.7 328.4,235.3 329.4,240.5 330.4,216.1 331.4,243.4 332.4,240.0 333.4,212.6 334.4,247.9 335.4,200.5 336.4,250.0 337.4,226.1 338.4,247.2 339.4,228.9 340.4,240.9 341.4,243.0 342.4,240.8 343.4,229.4 344.4,238.6 345.4,245.6 346.4,242.8 347.4,228.6 348.4,243.8 349.4,243.0 350.4,237.4 351.4,227.6 352.4,242.2 353.4,239.9 354.4,245.8 355.4,230.4 356.4,244.7 357.4,230.1 358.4,238.9 359.4,240.6 360.4,249.5 361.4,245.6 362.4,238.8 363.4,240.9 364.4,249.0 365.4,236.6 366.4,235.4 367.4,248.5 368.4,237.7 369.4,250.7 370.4,232.2 371.4,233.4 372.4,249.2 373.4,246.1 374.4,246.1 375.4,238.3 376.4,241.0 377.4,251.1 378.4,247.4 379.4,236.2 380.4,242.0 381.4,250.0 382.4,225.9 383.4,238.1 384.4,237.7 385.4,235.0 386.4,248.6 387.4,225.5 388.4,229.5 389.4,248.4 390.4,242.9 391.4,244.2 392.4,236.4 393.4,246.1 394.4,244.6 395.4,250.1 396.4,232.3 397.4,242.3 398.4,246.6 399.4,249.8 400.4,247.9 401.4,246.5 402.4,247.4 403.4,241.8 404.4,253.0 405.4,239.4 406.4,237.4 407.4,248.1 408.4,255.8 409.4,244.8 410.4,248.5 411.4,248.4 412.4,250.8 413.4,232.3 414.4,244.2 415.4,240.1 416.4,244.8 417.4,247.0 418.4,250.3 419.4,231.6 420.4,242.9 421.4,238.0 422.4,248.2 423.4,244.0 424.4,241.7 425.4,240.8 426.4,245.7 427.4,248.5 428.4,248.3 429.4,248.3 430.4,241.0 431.4,248.4 432.4,242.0 433.4,241.8 434.4,247.4 435.4,254.6 436.4,233.4 437.4,246.3 438.4,249.0 439.4,249.6 440.4,235.9 441.4,236.0 442.4,246.9 443.4,251.5 444.4,252.9 445.4,241.9 446.4,251.0 447.4,243.1 448.4,231.4 449.4,241.8 450.4,248.2 451.4,234.2 452.4,253.7 453.4,239.1 454.4,246.6 455.4,244.5 456.4,229.8 457.4,238.1 458.4,253.5 459.4,247.2 460.4,231.3 461.4,252.5 462.4,241.1 463.4,250.4 464.4,235.6 465.4,242.4 466.4,247.8 467.4,242.7 468.4,237.5 469.4,242.8 470.4,251.3 471.4,241.2 472.4,240.6 473.4,253.0 474.4,243.2 475.4,242.9 476.4,252.1 477.4,245.5 478.4,255.2 479.4,246.3 480.4,252.0 481.4,242.8 482.4,227.4 483.4,247.4 484.4,237.1 485.4,253.8 486.4,233.9 487.4,251.2 488.4,242.5 489.4,247.6 490.4,249.5 491.4,247.0 492.4,245.7 493.4,251.7 494.4,246.6 495.4,246.2 496.4,241.4 497.4,256.7 498.4,250.8 499.4,245.7 500.4,249.6 501.4,244.6 502.4,247.3 503.4,248.0 504.4,244.2 505.4,236.7 506.4,243.0 507.4,243.9 508.4,249.0 509.4,245.9 510.4,243.3 511.4,249.9 512.4,237.4 513.4,242.6 514.4,236.4 515.4,216.5 516.4,257.6 517.4,251.4 518.4,231.7 519.4,249.8 520.4,243.6 521.4,236.9 522.4,254.3 523.4,246.5 524.4,259.6 525.4,237.0 526.4,249.3 527.4,250.2 528.4,243.1 529.4,241.8 530.4,240.8 531.4,250.2 532.4,251.1 533.4,249.8 534.4,234.0 535.4,239.8 536.4,237.8 537.4,244.5 538.4,241.1 539.4,244.8 540.4,253.8 541.4,255.2 542.4,246.1 543.4,245.4 544.4,244.8 545.4,244.5 546.4,237.6 547.4,236.6 548.4,246.7 549.4,248.2 550.4,237.8 551.4,249.4 552.4,239.8 553.4,233.8 554.4,250.6 555.4,242.2 556.4,241.5 557.4,231.1 558.4,246.4 559.4,245.4 560.4,247.3 561.4,243.5 562.4,248.2 563.4,242.8 564.4,231.7 565.4,240.8 566.4,239.9 567.4,246.3 568.4,244.8 569.4,245.7 570.4,241.2 571.4,235.4 572.4,252.3 573.4,237.2 574.4,240.8 575.4,241.1 576.4,225.0 577.4,252.3 578.4,239.1 579.4,238.5 580.4,251.0 581.4,251.9 582.4,233.3 583.4,248.8 584.4,235.9 585.4,253.7 586.4,234.2 587.4,231.0 588.4,240.4 589.4,242.8 590.3,245.4 591.3,247.5 592.3,243.9 593.3,244.5 594.3,244.1 595.3,253.0 596.3,250.8 597.3,249.4 598.3,241.9 599.3,247.8 600.3,241.9 601.3,243.5 602.3,240.9 603.3,248.6 604.3,246.4 605.3,240.8 606.3,240.2 607.3,251.0 608.3,235.8 609.3,250.7 610.3,251.0 611.3,236.4 612.3,246.9 613.3,240.8 614.3,206.5 615.3,228.9 616.3,221.5 617.3,247.9 618.3,252.3 619.3,250.5 620.3,233.8 621.3,224.5 622.3,249.5 623.3,241.0 624.3,242.0 625.3,243.2 626.3,256.4 627.3,245.7 628.3,250.1 629.3,248.6 630.3,241.4 631.3,256.4 632.3,247.9 633.3,246.9 634.3,247.7 635.3,233.5 636.3,254.6 637.3,236.7 638.3,251.4 639.3,245.6 640.3,249.4 641.3,247.1 642.3,251.2 643.3,245.7 644.3,244.5 645.3,251.4 646.3,246.9 647.3,245.9 648.3,245.6 649.3,247.0 650.3,251.6 651.3,248.2 652.3,244.0 653.3,253.9 654.3,242.6 655.3,245.4 656.3,247.0 657.3,239.3 658.3,243.3 659.3,248.2 660.3,243.5 661.3,247.0 662.3,248.1 663.3,240.7 664.3,255.9 665.3,240.0 666.3,246.4 667.3,233.6 668.3,240.9 669.3,253.9 670.3,247.8 671.3,243.3 672.3,242.1 673.3,245.3 674.3,242.6 675.3,240.4 676.3,243.7 677.3,247.0 678.3,253.0 679.3,248.5 680.3,247.6 681.3,247.1 682.3,251.4 683.3,247.0 684.3,245.7 685.3,246.9 686.3,252.0 687.3,253.5 688.3,254.7 689.3,255.0 690.3,260.3 691.3,239.2 692.3,239.7 693.3,257.4 694.3,239.1 695.3,254.5 696.3,252.0 697.3,247.9 698.3,243.4 699.3,251.4"></path>
    <path class="data-series series-blue" d="M55.5,259.1 56.5,292.5 57.5,249.6 58.5,274.3 59.5,268.6 60.5,260.1 61.5,277.0 62.5,262.7 63.5,267.4 64.5,267.8 65.5,274.1 66.5,275.1 67.5,258.4 68.5,273.3 69.5,265.6 70.5,266.4 71.5,272.2 72.5,266.8 73.5,269.5 74.5,262.9 75.5,278.4 76.5,261.1 77.5,268.7 78.5,269.0 79.5,264.9 80.5,273.6 81.5,270.1 82.5,262.6 83.5,274.2 84.5,266.8 85.5,269.6 86.5,271.1 87.5,271.2 88.5,265.8 89.5,272.6 90.5,263.1 91.5,269.0 92.5,270.5 93.5,266.0 94.5,264.0 95.5,281.1 96.5,257.0 97.5,281.0 98.5,259.3 99.5,273.9 100.5,275.4 101.5,253.7 102.5,278.6 103.5,259.3 104.5,271.2 105.5,269.3 106.5,258.8 107.5,278.5 108.5,266.6 109.5,269.7 110.5,267.3 111.5,269.4 112.5,273.8 113.5,267.9 114.5,267.0 115.5,270.6 116.5,265.6 117.5,277.5 118.5,265.9 119.5,270.1 120.5,272.5 121.5,265.3 122.5,273.2 123.5,258.9 124.5,273.9 125.5,268.7 126.5,265.3 127.5,281.0 128.5,259.7 129.5,270.5 130.5,266.1 131.5,279.8 132.5,253.6 133.5,277.5 134.5,263.3 135.5,270.3 136.5,272.4 137.5,270.1 138.5,270.6 139.5,269.0 140.5,269.4 141.5,267.3 142.5,272.4 143.5,271.7 144.5,271.3 145.5,268.4 146.5,271.5 147.5,259.8 148.5,288.1 149.5,254.3 150.5,274.1 151.5,266.5 152.5,268.9 153.5,267.8 154.5,265.4 155.5,275.1 156.5,259.4 157.5,274.7 158.5,265.7 159.5,281.1 160.5,260.1 161.5,270.2 162.5,271.2 163.5,276.3 164.5,264.3 165.5,272.2 166.5,269.0 167.5,271.2 168.5,268.9 169.5,267.6 170.5,267.9 171.5,271.5 172.5,271.2 173.5,268.1 174.5,263.8 175.5,273.8 176.5,272.1 177.5,259.9 178.5,266.1 179.5,275.6 180.5,259.4 181.5,271.3 182.5,261.1 183.5,265.7 184.5,272.7 185.5,272.0 186.5,274.1 187.5,260.4 188.5,270.9 189.5,270.6 190.4,273.7 191.4,266.7 192.4,277.5 193.4,259.7 194.4,273.3 195.4,269.4 196.4,271.4 197.4,262.1 198.4,267.5 199.4,268.7 200.4,272.5 201.4,267.1 202.4,269.5 203.4,269.3 204.4,271.1 205.4,263.8 206.4,269.1 207.4,271.8 208.4,261.3 209.4,281.1 210.4,256.5 211.4,274.3 212.4,268.8 213.4,261.6 214.4,274.9 215.4,271.4 216.4,276.0 217.4,265.4 218.4,266.1 219.4,268.9 220.4,261.8 221.4,272.9 222.4,267.6 223.4,265.9 224.4,269.9 225.4,270.7 226.4,269.3 227.4,265.3 228.4,266.8 229.4,274.8 230.4,268.7 231.4,270.7 232.4,268.0 233.4,264.9 234.4,274.4 235.4,266.0 236.4,266.5 237.4,265.9 238.4,267.9 239.4,266.4 240.4,267.9 241.4,271.2 242.4,264.8 243.4,272.9 244.4,269.4 245.4,266.9 246.4,271.6 247.4,264.7 248.4,272.8 249.4,264.0 250.4,268.5 251.4,271.5 252.4,270.2 253.4,266.1 254.4,265.9 255.4,275.3 256.4,260.3 257.4,274.9 258.4,269.9 259.4,264.5 260.4,274.4 261.4,265.8 262.4,269.2 263.4,263.0 264.4,269.1 265.4,273.0 266.4,269.6 267.4,270.1 268.4,274.6 269.4,266.3 270.4,271.5 271.4,271.4 272.4,265.9 273.4,273.7 274.4,269.3 275.4,268.3 276.4,271.5 277.4,269.4 278.4,273.4 279.4,266.2 280.4,269.2 281.4,266.4 282.4,265.2 283.4,266.7 284.4,278.8 285.4,253.6 286.4,267.1 287.4,275.6 288.4,263.4 289.4,269.2 290.4,268.5 291.4,269.7 292.4,269.7 293.4,265.6 294.4,266.2 295.4,272.3 296.4,275.2 297.4,263.8 298.4,270.0 299.4,268.6 300.4,278.2 301.4,266.6 302.4,269.2 303.4,271.6 304.4,261.4 305.4,269.9 306.4,267.0 307.4,268.5 308.4,276.5 309.4,274.8 310.4,268.3 311.4,274.2 312.4,267.8 313.4,268.8 314.4,269.7 315.4,279.4 316.4,268.4 317.4,271.4 318.4,265.0 319.4,273.5 320.4,274.8 321.4,261.0 322.4,266.3 323.4,281.1 324.4,259.7 325.4,263.3 326.4,274.8 327.4,269.2 328.4,268.7 329.4,267.8 330.4,267.6 331.4,266.7 332.4,264.9 333.4,279.0 334.4,263.5 335.4,276.7 336.4,260.0 337.4,273.9 338.4,258.3 339.4,274.3 340.4,268.4 341.4,264.3 342.4,268.2 343.4,269.6 344.4,270.9 345.4,265.2 346.4,273.7 347.4,270.6 348.4,268.2 349.4,270.4 350.4,268.4 351.4,268.3 352.4,270.0 353.4,268.6 354.4,265.7 355.4,275.8 356.4,256.7 357.4,275.2 358.4,265.6 359.4,267.6 360.4,269.4 361.4,263.2 362.4,276.8 363.4,263.2 364.4,269.5 365.4,275.0 366.4,268.3 367.4,258.6 368.4,271.0 369.4,272.6 370.4,265.4 371.4,268.8 372.4,266.4 373.4,268.4 374.4,273.1 375.4,265.0 376.4,278.1 377.4,266.2 378.4,274.1 379.4,266.0 380.4,270.4 381.4,263.9 382.4,275.4 383.4,267.9 384.4,271.9 385.4,265.2 386.4,266.4 387.4,268.1 388.4,271.7 389.4,262.1 390.4,269.9 391.4,265.6 392.4,277.2 393.4,265.2 394.4,269.0 395.4,265.1 396.4,272.9 397.4,266.8 398.4,271.9 399.4,267.5 400.4,266.4 401.4,272.3 402.4,266.3 403.4,271.2 404.4,272.7 405.4,269.8 406.4,265.3 407.4,269.1 408.4,272.3 409.4,271.1 410.4,267.7 411.4,269.8 412.4,272.8 413.4,268.9 414.4,265.8 415.4,268.7 416.4,263.0 417.4,273.8 418.4,267.2 419.4,262.6 420.4,275.8 421.4,266.8 422.4,267.8 423.4,272.6 424.4,269.2 425.4,267.6 426.4,264.1 427.4,270.7 428.4,270.7 429.4,271.1 430.4,269.2 431.4,265.3 432.4,266.3 433.4,266.2 434.4,264.8 435.4,266.9 436.4,268.1 437.4,267.1 438.4,265.7 439.4,275.5 440.4,269.3 441.4,265.8 442.4,272.7 443.4,269.1 444.4,266.3 445.4,270.4 446.4,267.1 447.4,271.4 448.4,273.3 449.4,269.0 450.4,264.2 451.4,266.5 452.4,272.2 453.4,266.7 454.4,272.7 455.4,271.2 456.4,266.8 457.4,268.3 458.4,268.9 459.4,263.5 460.4,274.5 461.4,267.0 462.4,269.8 463.4,264.0 464.4,278.0 465.4,268.6 466.4,264.7 467.4,266.1 468.4,273.8 469.4,269.0 470.4,270.1 471.4,267.1 472.4,273.8 473.4,266.4 474.4,267.2 475.4,267.3 476.4,270.0 477.4,273.7 478.4,264.0 479.4,273.9 480.4,274.2 481.4,265.7 482.4,273.8 483.4,263.6 484.4,271.3 485.4,257.8 486.4,271.5 487.4,265.2 488.4,273.6 489.4,266.7 490.4,275.3 491.4,264.5 492.4,270.9 493.4,269.4 494.4,274.8 495.4,264.0 496.4,272.9 497.4,260.8 498.4,271.4 499.4,271.8 500.4,272.4 501.4,265.1 502.4,268.5 503.4,272.4 504.4,266.6 505.4,266.6 506.4,269.7 507.4,271.0 508.4,267.4 509.4,271.0 510.4,277.0 511.4,263.6 512.4,274.6 513.4,269.0 514.4,267.2 515.4,271.8 516.4,265.1 517.4,267.2 518.4,275.3 519.4,267.1 520.4,266.7 521.4,269.5 522.4,271.0 523.4,266.1 524.4,268.4 525.4,272.4 526.4,267.6 527.4,271.2 528.4,268.8 529.4,264.7 530.4,273.3 531.4,274.1 532.4,270.0 533.4,271.5 534.4,277.3 535.4,267.4 536.4,264.6 537.4,275.2 538.4,266.0 539.4,271.0 540.4,262.5 541.4,269.8 542.4,269.2 543.4,270.5 544.4,272.8 545.4,264.8 546.4,263.9 547.4,272.9 548.4,274.9 549.4,269.4 550.4,271.4 551.4,268.5 552.4,263.9 553.4,269.0 554.4,268.1 555.4,275.3 556.4,269.6 557.4,270.0 558.4,264.5 559.4,271.5 560.4,266.5 561.4,275.0 562.4,267.3 563.4,266.5 564.4,267.7 565.4,267.9 566.4,268.8 567.4,267.2 568.4,269.1 569.4,273.9 570.4,266.1 571.4,269.0 572.4,270.4 573.4,265.4 574.4,274.2 575.4,273.0 576.4,278.2 577.4,264.1 578.4,269.5 579.4,270.7 580.4,265.0 581.4,273.0 582.4,275.0 583.4,267.2 584.4,274.0 585.4,266.4 586.4,275.0 587.4,261.3 588.4,272.4 589.4,267.5 590.3,268.5 591.3,270.0 592.3,263.8 593.3,273.5 594.3,263.9 595.3,265.8 596.3,269.8 597.3,270.0 598.3,270.6 599.3,268.0 600.3,268.0 601.3,267.6 602.3,269.0 603.3,270.2 604.3,265.6 605.3,270.7 606.3,269.2 607.3,262.1 608.3,273.8 609.3,269.6 610.3,274.0 611.3,267.3 612.3,269.7 613.3,265.1 614.3,287.3 615.3,251.1 616.3,264.4 617.3,273.2 618.3,270.2 619.3,271.8 620.3,270.0 621.3,281.4 622.3,263.8 623.3,266.1 624.3,271.0 625.3,275.5 626.3,266.4 627.3,270.5 628.3,267.9 629.3,264.5 630.3,270.2 631.3,270.2 632.3,274.3 633.3,262.9 634.3,268.2 635.3,274.9 636.3,268.2 637.3,273.4 638.3,267.6 639.3,263.7 640.3,267.3 641.3,270.6 642.3,270.9 643.3,270.5 644.3,271.2 645.3,266.8 646.3,269.7 647.3,273.5 648.3,265.0 649.3,271.5 650.3,270.5 651.3,272.8 652.3,265.1 653.3,271.8 654.3,269.8 655.3,271.3 656.3,267.1 657.3,264.1 658.3,266.2 659.3,269.4 660.3,270.5 661.3,268.1 662.3,270.7 663.3,266.8 664.3,268.7 665.3,278.2 666.3,257.4 667.3,268.9 668.3,275.5 669.3,266.4 670.3,268.3 671.3,273.7 672.3,271.3 673.3,277.5 674.3,259.1 675.3,273.7 676.3,274.6 677.3,266.0 678.3,268.6 679.3,265.3 680.3,266.3 681.3,274.3 682.3,266.0 683.3,275.5 684.3,268.7 685.3,266.9 686.3,267.2 687.3,271.6 688.3,266.4 689.3,271.0 690.3,269.4 691.3,270.1 692.3,275.0 693.3,262.0 694.3,269.2 695.3,271.4 696.3,267.0 697.3,270.5 698.3,270.9 699.3,267.0"></path>
    <path class="data-series series-red" d="M55.5,303.6 56.5,303.6 57.5,302.9 58.5,302.4 59.5,300.9 60.5,300.2 61.5,299.3 62.5,299.4 63.5,299.2 64.5,299.1 65.5,299.5 66.5,298.7 67.5,297.0 68.5,296.3 69.5,295.6 70.5,294.8 71.5,295.5 72.5,295.4 73.5,294.3 74.5,293.9 75.5,293.4 76.5,292.9 77.5,292.2 78.5,291.6 79.5,291.0 80.5,291.3 81.5,291.2 82.5,290.6 83.5,289.9 84.5,289.3 85.5,289.0 86.5,289.0 87.5,289.5 88.5,288.7 89.5,288.9 90.5,287.0 91.5,286.7 92.5,288.2 93.5,289.4 94.5,288.0 95.5,289.0 96.5,289.9 97.5,291.0 98.5,291.1 99.5,291.1 100.5,291.4 101.5,290.9 102.5,291.3 103.5,291.2 104.5,290.6 105.5,290.4 106.5,290.2 107.5,290.1 108.5,290.1 109.5,290.2 110.5,289.5 111.5,288.3 112.5,287.9 113.5,288.1 114.5,287.3 115.5,286.5 116.5,286.5 117.5,287.0 118.5,287.1 119.5,286.9 120.5,286.6 121.5,286.7 122.5,286.2 123.5,285.8 124.5,285.3 125.5,285.9 126.5,287.3 127.5,287.7 128.5,286.9 129.5,287.3 130.5,288.2 131.5,287.7 132.5,287.1 133.5,285.6 134.5,285.9 135.5,284.9 136.5,284.7 137.5,284.2 138.5,283.8 139.5,283.6 140.5,284.3 141.5,283.9 142.5,283.4 143.5,282.9 144.5,283.1 145.5,283.7 146.5,284.3 147.5,284.8 148.5,285.0 149.5,285.4 150.5,285.2 151.5,285.1 152.5,285.1 153.5,284.5 154.5,283.3 155.5,281.9 156.5,281.1 157.5,280.7 158.5,280.0 159.5,279.7 160.5,279.0 161.5,279.0 162.5,279.2 163.5,279.4 164.5,279.6 165.5,280.0 166.5,278.9 167.5,277.0 168.5,277.5 169.5,277.7 170.5,275.5 171.5,274.8 172.5,274.2 173.5,273.3 174.5,272.1 175.5,271.9 176.5,270.9 177.5,268.7 178.5,268.2 179.5,267.5 180.5,267.3 181.5,266.6 182.5,266.2 183.5,265.7 184.5,265.3 185.5,266.4 186.5,266.9 187.5,266.4 188.5,266.0 189.5,265.5 190.4,264.7 191.4,262.6 192.4,261.5 193.4,261.0 194.4,260.5 195.4,259.6 196.4,257.9 197.4,256.7 198.4,256.4 199.4,256.9 200.4,256.8 201.4,255.6 202.4,254.5 203.4,254.4 204.4,254.4 205.4,254.5 206.4,254.6 207.4,254.1 208.4,255.2 209.4,254.6 210.4,254.6 211.4,255.2 212.4,254.9 213.4,256.2 214.4,256.5 215.4,255.7 216.4,254.7 217.4,252.9 218.4,250.6 219.4,250.2 220.4,249.4 221.4,249.2 222.4,248.2 223.4,248.1 224.4,247.7 225.4,247.7 226.4,247.6 227.4,247.3 228.4,247.5 229.4,247.4 230.4,247.2 231.4,247.8 232.4,248.4 233.4,248.7 234.4,248.8 235.4,249.7 236.4,249.8 237.4,248.6 238.4,248.5 239.4,247.3 240.4,247.1 241.4,246.0 242.4,245.4 243.4,244.9 244.4,245.3 245.4,243.6 246.4,240.7 247.4,240.1 248.4,238.4 249.4,239.3 250.4,241.2 251.4,240.8 252.4,243.0 253.4,241.6 254.4,240.0 255.4,242.4 256.4,243.0 257.4,243.8 258.4,243.2 259.4,241.0 260.4,241.2 261.4,241.3 262.4,241.0 263.4,240.5 264.4,241.1 265.4,241.0 266.4,240.2 267.4,239.2 268.4,238.8 269.4,239.5 270.4,239.8 271.4,239.8 272.4,239.1 273.4,238.8 274.4,238.8 275.4,238.4 276.4,239.0 277.4,238.7 278.4,237.9 279.4,238.1 280.4,238.1 281.4,237.9 282.4,237.4 283.4,237.1 284.4,235.5 285.4,235.3 286.4,234.4 287.4,234.8 288.4,235.5 289.4,235.2 290.4,234.7 291.4,234.4 292.4,234.7 293.4,234.6 294.4,234.1 295.4,234.5 296.4,232.7 297.4,232.2 298.4,231.9 299.4,230.6 300.4,230.6 301.4,230.2 302.4,230.6 303.4,231.1 304.4,231.3 305.4,231.4 306.4,231.3 307.4,231.3 308.4,230.4 309.4,229.1 310.4,228.3 311.4,228.5 312.4,228.4 313.4,228.3 314.4,227.8 315.4,227.4 316.4,227.5 317.4,226.7 318.4,226.0 319.4,226.3 320.4,226.6 321.4,226.4 322.4,226.7 323.4,227.0 324.4,227.2 325.4,227.4 326.4,227.4 327.4,226.7 328.4,225.7 329.4,225.3 330.4,225.0 331.4,224.4 332.4,223.7 333.4,223.9 334.4,224.6 335.4,225.1 336.4,224.4 337.4,223.5 338.4,223.0 339.4,222.5 340.4,222.0 341.4,222.6 342.4,222.1 343.4,221.6 344.4,220.8 345.4,221.0 346.4,220.4 347.4,220.5 348.4,219.9 349.4,220.8 350.4,220.8 351.4,219.7 352.4,218.0 353.4,218.0 354.4,218.2 355.4,217.4 356.4,216.6 357.4,216.5 358.4,216.6 359.4,216.5 360.4,216.4 361.4,216.9 362.4,216.5 363.4,216.4 364.4,216.0 365.4,215.9 366.4,216.4 367.4,216.1 368.4,215.6 369.4,215.5 370.4,216.6 371.4,216.7 372.4,214.8 373.4,213.7 374.4,214.4 375.4,215.1 376.4,215.5 377.4,216.4 378.4,216.1 379.4,216.3 380.4,216.0 381.4,215.3 382.4,215.0 383.4,214.5 384.4,214.5 385.4,214.6 386.4,214.9 387.4,215.1 388.4,214.8 389.4,214.1 390.4,214.4 391.4,214.7 392.4,215.4 393.4,214.6 394.4,213.9 395.4,212.6 396.4,211.5 397.4,209.5 398.4,207.8 399.4,207.7 400.4,207.4 401.4,207.7 402.4,207.4 403.4,207.1 404.4,207.1 405.4,206.7 406.4,207.2 407.4,206.6 408.4,205.6 409.4,205.7 410.4,206.5 411.4,206.5 412.4,205.5 413.4,205.7 414.4,205.0 415.4,205.4 416.4,204.8 417.4,204.2 418.4,204.6 419.4,204.6 420.4,204.2 421.4,203.9 422.4,203.3 423.4,203.6 424.4,204.6 425.4,203.9 426.4,202.4 427.4,203.5 428.4,203.8 429.4,203.7 430.4,204.6 431.4,204.2 432.4,204.5 433.4,204.6 434.4,204.5 435.4,204.6 436.4,204.9 437.4,205.3 438.4,204.9 439.4,205.5 440.4,205.3 441.4,204.8 442.4,204.3 443.4,203.9 444.4,203.6 445.4,204.1 446.4,204.4 447.4,204.9 448.4,205.1 449.4,205.0 450.4,205.5 451.4,205.4 452.4,205.2 453.4,205.4 454.4,205.8 455.4,206.1 456.4,204.0 457.4,203.5 458.4,203.1 459.4,203.1 460.4,202.4 461.4,202.9 462.4,203.6 463.4,204.0 464.4,205.3 465.4,204.6 466.4,202.7 467.4,202.0 468.4,201.5 469.4,200.6 470.4,200.3 471.4,200.2 472.4,200.0 473.4,199.1 474.4,199.5 475.4,200.0 476.4,200.2 477.4,200.8 478.4,200.9 479.4,201.3 480.4,201.8 481.4,201.0 482.4,201.8 483.4,202.9 484.4,203.0 485.4,202.3 486.4,202.6 487.4,203.1 488.4,203.6 489.4,204.2 490.4,203.7 491.4,203.7 492.4,203.7 493.4,203.4 494.4,203.6 495.4,204.0 496.4,204.1 497.4,203.9 498.4,204.1 499.4,203.9 500.4,203.7 501.4,204.5 502.4,204.9 503.4,205.1 504.4,205.4 505.4,205.2 506.4,204.7 507.4,204.6 508.4,205.1 509.4,205.5 510.4,204.7 511.4,205.0 512.4,205.8 513.4,206.3 514.4,205.2 515.4,204.1 516.4,203.9 517.4,203.7 518.4,205.5 519.4,205.9 520.4,206.4 521.4,207.1 522.4,207.1 523.4,207.2 524.4,207.3 525.4,207.2 526.4,206.6 527.4,206.4 528.4,206.7 529.4,207.6 530.4,208.0 531.4,208.0 532.4,208.4 533.4,208.6 534.4,209.1 535.4,209.6 536.4,210.0 537.4,210.7 538.4,211.3 539.4,211.3 540.4,210.5 541.4,211.6 542.4,211.6 543.4,212.6 544.4,212.3 545.4,212.7 546.4,212.6 547.4,211.8 548.4,211.0 549.4,210.6 550.4,210.6 551.4,210.4 552.4,211.2 553.4,211.8 554.4,212.5 555.4,212.4 556.4,212.5 557.4,212.9 558.4,212.1 559.4,213.4 560.4,214.4 561.4,214.2 562.4,213.7 563.4,212.8 564.4,212.3 565.4,212.7 566.4,212.5 567.4,212.7 568.4,213.1 569.4,213.3 570.4,214.1 571.4,214.2 572.4,214.4 573.4,214.6 574.4,214.3 575.4,213.8 576.4,214.3 577.4,213.6 578.4,213.4 579.4,213.3 580.4,213.3 581.4,212.8 582.4,212.8 583.4,211.6 584.4,211.2 585.4,210.9 586.4,211.1 587.4,211.1 588.4,210.9 589.4,211.2 590.3,211.1 591.3,210.6 592.3,210.1 593.3,209.2 594.3,209.1 595.3,209.0 596.3,209.3 597.3,208.2 598.3,207.4 599.3,207.0 600.3,206.4 601.3,205.8 602.3,205.6 603.3,205.4 604.3,205.5 605.3,205.6 606.3,205.5 607.3,204.8 608.3,205.2 609.3,204.8 610.3,204.1 611.3,204.1 612.3,202.6 613.3,201.7 614.3,202.3 615.3,202.3 616.3,202.5 617.3,202.5 618.3,203.1 619.3,203.2 620.3,202.5 621.3,202.0 622.3,202.3 623.3,201.4 624.3,199.8 625.3,199.3 626.3,198.3 627.3,198.2 628.3,198.3 629.3,198.0 630.3,197.0 631.3,196.7 632.3,196.8 633.3,198.3 634.3,198.5 635.3,198.6 636.3,198.5 637.3,198.3 638.3,198.4 639.3,198.4 640.3,198.3 641.3,198.2 642.3,198.1 643.3,198.6 644.3,198.5 645.3,199.2 646.3,198.9 647.3,197.6 648.3,197.6 649.3,197.3 650.3,197.1 651.3,197.2 652.3,197.0 653.3,197.2 654.3,196.7 655.3,197.0 656.3,197.0 657.3,197.0 658.3,196.7 659.3,196.7 660.3,197.0 661.3,197.4 662.3,197.2 663.3,197.5 664.3,197.1 665.3,196.8 666.3,196.8 667.3,197.2 668.3,197.6 669.3,198.2 670.3,198.3 671.3,198.4 672.3,198.6 673.3,198.6 674.3,197.4 675.3,198.6 676.3,199.4 677.3,198.5 678.3,199.0 679.3,197.7 680.3,197.2 681.3,197.4 682.3,195.6 683.3,194.1 684.3,194.5 685.3,193.7 686.3,192.9 687.3,192.8 688.3,192.2 689.3,192.4 690.3,192.2 691.3,191.6 692.3,191.8 693.3,192.0 694.3,191.6 695.3,191.2 696.3,190.7 697.3,190.0 698.3,189.6 699.3,188.5"></path>
    <text text-anchor="end" fill="currentColor" font-weight="600" class="series-red" x="696" y="180">Speed</text>
    <text text-anchor="end" fill="currentColor" font-weight="600" class="series-green" x="696" y="230">Food</text>
    <text text-anchor="end" fill="currentColor" font-weight="600" class="series-blue" x="696" y="295">Creatures</text>
</svg>