<svg width="720" height="360" xmlns="http://www.w3.org/2000/svg">

<style>
  .background {
    fill: none;
  }
  .axis {
    stroke: #111;
    stroke-width: 1;
  }
  .axis-label {
    text-anchor: middle;
  }
  .axis-units {
    font-size: 10px;
    font-family: Arial;
  }
  .y-axis-text {
    text-anchor: end;
  }
  .x-axis-text {
    text-anchor: middle;
  }
  .gridlines {
    stroke: black;
    stroke-width: 0.3;
    fill: none;
    opacity: 0.5;
  }
  .series-red {
    color: #ae5d40;
  }
  .series-green {
    color: #4f7754;
  }
  .series-blue {
    color: #433a60;
  }
  .data-series {
    fill: none;
    opacity: 0.9;
    stroke: currentColor;
    stroke-width: 2;
  }
  </style>

    <text class="axis-label" x="377.5" y="345">Time (1000 ticks)</text>
    <text class="axis-label" x="0" y="162.5" transform="translate(20.0) rotate(-90, 0, 162.5)">Population size</text>
    <line class="axis" x1="55" y1="310" x2="701" y2="310"></line>
    <line class="axis" x1="55" y1="310" x2="55" y2="15"></line>
    <g class="axis-units">
        <g class="x-axis-text">
            <text x="55.0" y="322">0</text>
            <text x="87.25" y="322">100</text>
            <text x="119.5" y="322">200</text>
            <text x="151.75" y="322">300</text>
            <text x="184.0" y="322">400</text>
            <text x="216.25" y="322">500</text>
            <text x="248.5" y="322">600</text>
            <text x="280.75" y="322">700</text>
            <text x="313.0" y="322">800</text>
            <text x="345.25" y="322">900</text>
            <text x="377.5" y="322">1000</text>
            <text x="409.75" y="322">1100</text>
            <text x="442.0" y="322">1200</text>
            <text x="474.25" y="322">1300</text>
            <text x="506.49999999999994" y="322">1400</text>
            <text x="538.75" y="322">1500</text>
            <text x="571.0" y="322">1600</text>
            <text x="603.25" y="322">1700</text>
            <text x="635.5" y="322">1800</text>
            <text x="667.75" y="322">1900</text>
            <text x="700.0" y="322">2000</text>
        </g>
        <g class="y-axis-text">
            <text x="52" y="313.0">0</text>
            <text x="52" y="280.22222222222223">20</text>
            <text x="52" y="247.44444444444446">40</text>
            <text x="52" y="214.66666666666669">60</text>
            <text x="52" y="181.88888888888889">80</text>
            <text x="52" y="149.11111111111111">100</text>
            <text x="52" y="116.33333333333334">120</text>
            <text x="52" y="83.55555555555557">140</text>
            <text x="52" y="50.77777777777777">160</text>
            <text x="52" y="18.0">180</text>
        </g>
    </g>
    <g class="gridlines">
        <line x1="87.5" y1="310" x2="87.5" y2="15"></line>
        <line x1="119.5" y1="310" x2="119.5" y2="15"></line>
        <line x1="151.5" y1="310" x2="151.5" y2="15"></line>
        <line x1="184.5" y1="310" x2="184.5" y2="15"></line>
        <line x1="216.5" y1="310" x2="216.5" y2="15"></line>
        <line x1="248.5" y1="310" x2="248.5" y2="15"></line>
        <line x1="280.5" y1="310" x2="280.5" y2="15"></line>
        <line x1="313.5" y1="310" x2="313.5" y2="15"></line>
        <line x1="345.5" y1="310" x2="345.5" y2="15"></line>
        <line x1="377.5" y1="310" x2="377.5" y2="15"></line>
        <line x1="409.5" y1="310" x2="409.5" y2="15"></line>
        <line x1="442.5" y1="310" x2="442.5" y2="15"></line>
        <line x1="474.5" y1="310" x2="474.5" y2="15"></line>
        <line x1="506.5" y1="310" x2="506.5" y2="15"></line>
        <line x1="538.5" y1="310" x2="538.5" y2="15"></line>
        <line x1="571.5" y1="310" x2="571.5" y2="15"></line>
        <line x1="603.5" y1="310" x2="603.5" y2="15"></line>
        <line x1="635.5" y1="310" x2="635.5" y2="15"></line>
        <line x1="667.5" y1="310" x2="667.5" y2="15"></line>
        <line x1="700.5" y1="310" x2="700.5" y2="15"></line>
        <line x1="55" y1="277.5" x2="700" y2="277.5"></line>
        <line x1="55" y1="244.5" x2="700" y2="244.5"></line>
        <line x1="55" y1="211.5" x2="700" y2="211.5"></line>
        <line x1="55" y1="178.5" x2="700" y2="178.5"></line>
        <line x1="55" y1="146.5" x2="700" y2="146.5"></line>
        <line x1="55" y1="113.5" x2="700" y2="113.5"></line>
        <line x1="55" y1="80.5" x2="700" y2="80.5"></line>
        <line x1="55" y1="47.5" x2="700" y2="47.5"></line>
        <line x1="55" y1="15.5" x2="700" y2="15.5"></line>
    </g>
    <path class="data-series series-green" d="M55.5,295.7 56.5,295.8 57.5,295.7 58.5,297.1 59.5,296.3 60.5,296.3 61.5,297.5 62.5,298.7 63.5,298.7 64.5,299.1 65.5,298.3 66.5,298.8 67.5,297.9 68.5,299.1 69.5,299.3 70.5,299.0 71.5,298.2 72.5,297.4 73.5,297.5 74.5,295.7 75.5,294.9 76.5,294.9 77.5,294.9 78.5,294.2 79.5,294.1 80.5,294.8 81.5,295.8 82.5,296.1 83.5,295.4 84.5,296.1 85.5,295.2 86.5,291.1 87.5,289.4 88.5,287.2 89.5,288.3 90.5,288.5 91.5,289.2 92.5,290.2 93.5,291.3 94.5,289.6 95.5,290.3 96.5,289.4 97.5,287.9 98.5,286.5 99.5,286.0 100.5,287.9 101.5,289.1 102.5,289.5 103.5,290.6 104.5,290.8 105.5,289.4 106.5,287.9 107.5,287.9 108.5,288.5 109.5,288.7 110.5,287.1 111.5,285.5 112.5,282.7 113.5,281.6 114.5,279.7 115.5,278.7 116.5,278.8 117.5,279.9 118.5,281.8 119.5,282.3 120.5,282.1 121.5,281.8 122.5,283.1 123.5,283.6 124.5,284.4 125.5,285.4 126.5,284.6 127.5,283.4 128.5,284.1 129.5,283.7 130.5,283.9 131.5,284.5 132.5,284.3 133.5,285.1 134.5,285.5 135.5,284.2 136.5,284.9 137.5,282.8 138.5,277.3 139.5,277.8 140.5,278.6 141.5,278.9 142.5,278.9 143.5,278.1 144.5,277.6 145.5,277.1 146.5,279.3 147.5,278.9 148.5,278.2 149.5,276.2 150.5,277.0 151.5,275.9 152.5,276.2 153.5,275.5 154.5,275.8 155.5,276.6 156.5,276.7 157.5,276.4 158.5,276.0 159.5,277.4 160.5,277.9 161.5,277.5 162.5,278.7 163.5,281.9 164.5,281.7 165.5,279.7 166.5,278.7 167.5,279.6 168.5,279.3 169.5,277.4 170.5,276.8 171.5,276.9 172.5,276.6 173.5,276.1 174.5,276.6 175.5,276.2 176.5,275.1 177.5,274.5 178.5,273.8 179.5,273.1 180.5,272.2 181.5,273.4 182.5,273.0 183.5,273.3 184.5,274.3 185.5,274.8 186.5,274.9 187.5,275.8 188.5,276.5 189.5,276.7 190.4,278.0 191.4,279.9 192.4,282.0 193.4,283.6 194.4,284.0 195.4,283.3 196.4,283.5 197.4,282.9 198.4,280.4 199.4,276.3 200.4,275.2 201.4,274.2 202.4,274.3 203.4,275.2 204.4,276.5 205.4,277.4 206.4,277.4 207.4,276.7 208.4,276.4 209.4,274.8 210.4,275.0 211.4,276.2 212.4,275.9 213.4,275.1 214.4,274.5 215.4,276.4 216.4,274.9 217.4,275.1 218.4,273.9 219.4,274.2 220.4,276.8 221.4,276.7 222.4,276.1 223.4,273.9 224.4,273.4 225.4,275.3 226.4,274.0 227.4,273.5 228.4,274.0 229.4,275.1 230.4,276.5 231.4,277.0 232.4,278.0 233.4,278.3 234.4,278.2 235.4,277.9 236.4,276.7 237.4,276.5 238.4,276.5 239.4,273.3 240.4,272.5 241.4,273.0 242.4,272.7 243.4,271.6 244.4,271.4 245.4,272.7 246.4,273.2 247.4,274.6 248.4,271.2 249.4,273.5 250.4,273.8 251.4,271.8 252.4,272.2 253.4,273.4 254.4,273.6 255.4,271.1 256.4,271.4 257.4,271.9 258.4,272.3 259.4,272.0 260.4,272.4 261.4,271.7 262.4,272.1 263.4,273.4 264.4,274.5 265.4,274.7 266.4,273.3 267.4,270.7 268.4,271.0 269.4,273.0 270.4,273.1 271.4,271.0 272.4,271.5 273.4,272.7 274.4,273.1 275.4,273.3 276.4,272.6 277.4,272.9 278.4,273.5 279.4,275.0 280.4,275.5 281.4,274.4 282.4,276.6 283.4,275.9 284.4,275.3 285.4,277.7 286.4,278.6 287.4,274.9 288.4,270.5 289.4,266.2 290.4,266.6 291.4,266.9 292.4,266.7 293.4,266.7 294.4,267.9 295.4,269.5 296.4,270.4 297.4,270.8 298.4,271.9 299.4,273.8 300.4,274.5 301.4,274.2 302.4,275.0 303.4,273.8 304.4,273.6 305.4,273.9 306.4,276.3 307.4,274.7 308.4,274.9 309.4,271.7 310.4,271.2 311.4,272.9 312.4,270.5 313.4,271.1 314.4,271.4 315.4,270.1 316.4,269.5 317.4,269.2 318.4,269.6 319.4,269.6 320.4,269.8 321.4,270.3 322.4,270.5 323.4,271.4 324.4,273.5 325.4,274.7 326.4,275.4 327.4,275.7 328.4,276.7 329.4,278.7 330.4,274.3 331.4,274.9 332.4,273.3 333.4,270.3 334.4,268.4 335.4,268.7 336.4,267.9 337.4,268.3 338.4,269.9 339.4,272.2 340.4,272.7 341.4,276.1 342.4,277.1 343.4,277.2 344.4,276.2 345.4,275.6 346.4,275.5 347.4,273.2 348.4,273.1 349.4,274.5 350.4,276.1 351.4,275.3 352.4,274.9 353.4,276.1 354.4,274.5 355.4,273.5 356.4,274.8 357.4,276.1 358.4,275.2 359.4,276.4 360.4,278.9 361.4,278.5 362.4,277.7 363.4,278.7 364.4,279.5 365.4,278.9 366.4,278.0 367.4,277.7 368.4,278.2 369.4,280.2 370.4,281.9 371.4,281.4 372.4,280.9 373.4,281.6 374.4,281.2 375.4,281.1 376.4,280.7 377.4,282.6 378.4,282.8 379.4,282.2 380.4,280.8 381.4,282.0 382.4,281.9 383.4,282.5 384.4,283.7 385.4,283.8 386.4,284.5 387.4,283.8 388.4,283.6 389.4,283.6 390.4,283.7 391.4,283.5 392.4,282.7 393.4,282.3 394.4,282.5 395.4,283.1 396.4,283.3 397.4,282.4 398.4,282.5 399.4,283.5 400.4,284.1 401.4,282.3 402.4,279.7 403.4,279.1 404.4,279.0 405.4,280.0 406.4,279.5 407.4,278.5 408.4,278.6 409.4,279.0 410.4,279.4 411.4,280.0 412.4,278.1 413.4,274.7 414.4,275.4 415.4,276.0 416.4,275.0 417.4,275.9 418.4,273.8 419.4,272.5 420.4,273.2 421.4,273.3 422.4,272.8 423.4,273.5 424.4,277.2 425.4,277.1 426.4,277.6 427.4,277.9 428.4,279.3 429.4,278.8 430.4,275.9 431.4,275.1 432.4,276.1 433.4,276.9 434.4,278.0 435.4,278.8 436.4,279.3 437.4,280.0 438.4,280.5 439.4,281.9 440.4,280.5 441.4,280.5 442.4,279.9 443.4,281.8 444.4,283.6 445.4,281.6 446.4,280.0 447.4,280.4 448.4,280.0 449.4,279.9 450.4,280.6 451.4,280.6 452.4,278.4 453.4,275.2 454.4,273.4 455.4,272.5 456.4,273.9 457.4,275.3 458.4,275.6 459.4,276.0 460.4,276.4 461.4,279.2 462.4,278.0 463.4,276.5 464.4,274.1 465.4,272.2 466.4,270.1 467.4,269.1 468.4,270.5 469.4,272.2 470.4,273.6 471.4,273.3 472.4,272.9 473.4,272.8 474.4,270.7 475.4,271.2 476.4,270.6 477.4,270.9 478.4,269.5 479.4,270.8 480.4,272.3 481.4,273.0 482.4,272.0 483.4,271.5 484.4,273.2 485.4,274.5 486.4,274.3 487.4,275.4 488.4,277.5 489.4,275.2 490.4,273.7 491.4,272.9 492.4,272.2 493.4,271.9 494.4,272.8 495.4,272.8 496.4,272.0 497.4,271.4 498.4,271.8 499.4,271.5 500.4,273.5 501.4,273.0 502.4,272.1 503.4,271.6 504.4,269.8 505.4,269.3 506.4,270.2 507.4,271.2 508.4,271.8 509.4,272.2 510.4,272.8 511.4,272.6 512.4,273.7 513.4,275.8 514.4,276.8 515.4,276.8 516.4,277.9 517.4,279.5 518.4,278.1 519.4,277.2 520.4,278.9 521.4,280.0 522.4,279.9 523.4,279.3 524.4,278.9 525.4,277.7 526.4,278.6 527.4,279.1 528.4,278.8 529.4,281.0 530.4,281.3 531.4,281.1 532.4,280.5 533.4,280.7 534.4,280.4 535.4,280.5 536.4,282.7 537.4,285.5 538.4,286.9 539.4,283.8 540.4,284.0 541.4,284.4 542.4,285.8 543.4,285.4 544.4,285.4 545.4,286.4 546.4,287.4 547.4,287.8 548.4,288.6 549.4,288.1 550.4,287.6 551.4,285.9 552.4,286.5 553.4,284.7 554.4,283.4 555.4,282.8 556.4,282.4 557.4,281.7 558.4,279.5 559.4,279.8 560.4,279.9 561.4,278.9 562.4,280.1 563.4,280.1 564.4,279.0 565.4,279.0 566.4,278.6 567.4,277.3 568.4,275.1 569.4,272.8 570.4,273.5 571.4,273.0 572.4,273.7 573.4,274.4 574.4,273.2 575.4,272.8 576.4,272.6 577.4,273.7 578.4,274.7 579.4,275.1 580.4,275.2 581.4,273.5 582.4,270.9 583.4,269.2 584.4,268.5 585.4,269.8 586.4,270.4 587.4,269.4 588.4,271.3 589.4,271.7 590.3,271.9 591.3,274.6 592.3,275.2 593.3,276.1 594.3,277.5 595.3,277.8 596.3,276.7 597.3,274.7 598.3,274.0 599.3,273.2 600.3,273.7 601.3,272.9 602.3,273.5 603.3,273.3 604.3,273.8 605.3,274.3 606.3,275.8 607.3,275.6 608.3,276.9 609.3,276.9 610.3,276.0 611.3,275.5 612.3,276.8 613.3,277.8 614.3,277.2 615.3,278.0 616.3,276.2 617.3,277.5 618.3,277.2 619.3,277.1 620.3,277.6 621.3,277.9 622.3,277.3 623.3,275.3 624.3,273.6 625.3,274.7 626.3,275.4 627.3,278.2 628.3,276.2 629.3,275.9 630.3,273.3 631.3,275.2 632.3,276.1 633.3,277.0 634.3,275.5 635.3,270.4 636.3,270.8 637.3,271.4 638.3,270.6 639.3,270.2 640.3,270.1 641.3,272.5 642.3,273.3 643.3,272.8 644.3,271.7 645.3,272.5 646.3,274.2 647.3,272.4 648.3,270.0 649.3,269.5 650.3,264.8 651.3,264.5 652.3,264.6 653.3,263.2 654.3,262.0 655.3,263.2 656.3,261.8 657.3,260.0 658.3,257.1 659.3,257.6 660.3,258.0 661.3,260.1 662.3,261.0 663.3,262.5 664.3,263.1 665.3,263.8 666.3,264.4 667.3,265.6 668.3,267.0 669.3,268.7 670.3,269.9 671.3,273.0 672.3,271.7 673.3,270.1 674.3,269.9 675.3,270.3 676.3,271.4 677.3,270.7 678.3,271.0 679.3,269.6 680.3,268.8 681.3,267.8 682.3,266.7 683.3,266.5 684.3,267.7 685.3,267.4 686.3,267.5 687.3,268.9 688.3,266.8 689.3,265.3 690.3,265.0 691.3,265.1 692.3,265.1 693.3,265.6 694.3,265.4 695.3,265.6 696.3,266.6 697.3,270.2 698.3,269.2 699.3,268.4"></path>
    <text text-anchor="end" fill="currentColor" font-weight="600" class="series-green" x="696" y="90">Food</text>
    <text text-anchor="end" fill="currentColor" font-weight="600" class="series-blue" x="696" y="248">Creatures</text>
</svg>