<svg width="720" height="360" xmlns="http://www.w3.org/2000/svg">

<style>
  .background {
    fill: none;
  }
  .axis {
    stroke: #111;
    stroke-width: 1;
  }
  .axis-label {
    text-anchor: middle;
  }
  .axis-units {
    font-size: 10px;
    font-family: Arial;
  }
  .y-axis-text {
    text-anchor: end;
  }
  .x-axis-text {
    text-anchor: middle;
  }
  .gridlines {
    stroke: black;
    stroke-width: 0.3;
    fill: none;
    opacity: 0.5;
  }
  .series-red {
    color: #ae5d40;
  }
  .series-green {
    color: #4f7754;
  }
  .series-blue {
    color: #433a60;
  }
  .data-series {
    fill: none;
    opacity: 0.9;
    stroke: currentColor;
    stroke-width: 2;
  }
  .data-area-series {
    fill: currentColor;
    opacity: 0.6;
  }
  </style>

    <text class="axis-label" x="377.5" y="345">Time (1000 ticks)</text>
    <text class="axis-label" x="0" y="162.5" transform="translate(20.0) rotate(-90, 0, 162.5)">Creature size</text>
    <line class="axis" x1="55" y1="310" x2="701" y2="310"></line>
    <line class="axis" x1="55" y1="310" x2="55" y2="15"></line>
    <g class="axis-units">
        <g class="x-axis-text">
            <text x="55.0" y="322">0</text>
            <text x="87.25" y="322">100</text>
            <text x="119.5" y="322">200</text>
            <text x="151.75" y="322">300</text>
            <text x="184.0" y="322">400</text>
            <text x="216.25" y="322">500</text>
            <text x="248.5" y="322">600</text>
            <text x="280.75" y="322">700</text>
            <text x="313.0" y="322">800</text>
            <text x="345.25" y="322">900</text>
            <text x="377.5" y="322">1000</text>
            <text x="409.75" y="322">1100</text>
            <text x="442.0" y="322">1200</text>
            <text x="474.25" y="322">1300</text>
            <text x="506.49999999999994" y="322">1400</text>
            <text x="538.75" y="322">1500</text>
            <text x="571.0" y="322">1600</text>
            <text x="603.25" y="322">1700</text>
            <text x="635.5" y="322">1800</text>
            <text x="667.75" y="322">1900</text>
            <text x="700.0" y="322">2000</text>
        </g>
        <g class="y-axis-text">
            <text x="52" y="313.0">0</text>
            <text x="52" y="280.22222222222223">20</text>
            <text x="52" y="247.44444444444446">40</text>
            <text x="52" y="214.66666666666669">60</text>
            <text x="52" y="181.88888888888889">80</text>
            <text x="52" y="149.11111111111111">100</text>
            <text x="52" y="116.33333333333334">120</text>
            <text x="52" y="83.55555555555557">140</text>
            <text x="52" y="50.77777777777777">160</text>
            <text x="52" y="18.0">180</text>
        </g>
    </g>
    <g class="gridlines">
        <line x1="87.5" y1="310" x2="87.5" y2="15"></line>
        <line x1="119.5" y1="310" x2="119.5" y2="15"></line>
        <line x1="151.5" y1="310" x2="151.5" y2="15"></line>
        <line x1="184.5" y1="310" x2="184.5" y2="15"></line>
        <line x1="216.5" y1="310" x2="216.5" y2="15"></line>
        <line x1="248.5" y1="310" x2="248.5" y2="15"></line>
        <line x1="280.5" y1="310" x2="280.5" y2="15"></line>
        <line x1="313.5" y1="310" x2="313.5" y2="15"></line>
        <line x1="345.5" y1="310" x2="345.5" y2="15"></line>
        <line x1="377.5" y1="310" x2="377.5" y2="15"></line>
        <line x1="409.5" y1="310" x2="409.5" y2="15"></line>
        <line x1="442.5" y1="310" x2="442.5" y2="15"></line>
        <line x1="474.5" y1="310" x2="474.5" y2="15"></line>
        <line x1="506.5" y1="310" x2="506.5" y2="15"></line>
        <line x1="538.5" y1="310" x2="538.5" y2="15"></line>
        <line x1="571.5" y1="310" x2="571.5" y2="15"></line>
        <line x1="603.5" y1="310" x2="603.5" y2="15"></line>
        <line x1="635.5" y1="310" x2="635.5" y2="15"></line>
        <line x1="667.5" y1="310" x2="667.5" y2="15"></line>
        <line x1="700.5" y1="310" x2="700.5" y2="15"></line>
        <line x1="55" y1="277.5" x2="700" y2="277.5"></line>
        <line x1="55" y1="244.5" x2="700" y2="244.5"></line>
        <line x1="55" y1="211.5" x2="700" y2="211.5"></line>
        <line x1="55" y1="178.5" x2="700" y2="178.5"></line>
        <line x1="55" y1="146.5" x2="700" y2="146.5"></line>
        <line x1="55" y1="113.5" x2="700" y2="113.5"></line>
        <line x1="55" y1="80.5" x2="700" y2="80.5"></line>
        <line x1="55" y1="47.5" x2="700" y2="47.5"></line>
        <line x1="55" y1="15.5" x2="700" y2="15.5"></line>
    </g>
    <path class="data-area-series series-green" d="M55.5,292.6 56.5,291.5 57.5,288.7 58.5,288.0 59.5,286.2 60.5,284.2 61.5,283.5 62.5,282.4 63.5,281.2 64.5,280.0 65.5,275.7 66.5,269.0 67.5,266.2 68.5,265.4 69.5,264.2 70.5,263.6 71.5,260.1 72.5,258.7 73.5,258.1 74.5,256.6 75.5,254.1 76.5,252.6 77.5,252.2 78.5,252.1 79.5,249.4 80.5,247.4 81.5,249.0 82.5,248.0 83.5,245.9 84.5,243.1 85.5,243.8 86.5,243.1 87.5,240.6 88.5,239.5 89.5,239.6 90.5,240.3 91.5,239.5 92.5,240.1 93.5,239.5 94.5,238.1 95.5,236.5 96.5,237.8 97.5,238.9 98.5,240.3 99.5,238.6 100.5,236.2 101.5,235.6 102.5,234.2 103.5,234.2 104.5,233.7 105.5,232.1 106.5,229.7 107.5,231.0 108.5,232.8 109.5,231.8 110.5,229.5 111.5,226.2 112.5,225.4 113.5,223.5 114.5,225.3 115.5,230.9 116.5,230.8 117.5,231.2 118.5,229.3 119.5,226.7 120.5,227.3 121.5,227.2 122.5,227.6 123.5,227.6 124.5,226.6 125.5,225.4 126.5,224.8 127.5,222.0 128.5,219.2 129.5,223.6 130.5,221.9 131.5,222.5 132.5,220.9 133.5,219.2 134.5,222.0 135.5,221.6 136.5,219.8 137.5,220.8 138.5,223.0 139.5,220.3 140.5,217.0 141.5,216.5 142.5,216.5 143.5,217.5 144.5,217.2 145.5,217.8 146.5,214.5 147.5,217.2 148.5,216.2 149.5,215.4 150.5,214.6 151.5,214.5 152.5,212.2 153.5,210.0 154.5,208.1 155.5,206.9 156.5,210.9 157.5,211.2 158.5,210.9 159.5,209.3 160.5,205.7 161.5,202.5 162.5,204.8 163.5,207.9 164.5,206.9 165.5,207.5 166.5,209.4 167.5,209.2 168.5,209.0 169.5,208.5 170.5,205.7 171.5,205.2 172.5,205.9 173.5,205.1 174.5,202.0 175.5,200.2 176.5,198.7 177.5,199.0 178.5,200.5 179.5,200.5 180.5,196.4 181.5,198.4 182.5,198.4 183.5,197.8 184.5,195.0 185.5,192.5 186.5,192.3 187.5,194.2 188.5,195.7 189.5,195.5 190.4,197.9 191.4,197.8 192.4,197.0 193.4,195.9 194.4,194.2 195.4,195.3 196.4,198.1 197.4,195.8 198.4,195.3 199.4,194.2 200.4,191.4 201.4,193.2 202.4,192.1 203.4,191.6 204.4,189.1 205.4,185.6 206.4,187.5 207.4,185.9 208.4,187.2 209.4,186.4 210.4,185.6 211.4,185.4 212.4,182.8 213.4,183.4 214.4,184.1 215.4,184.1 216.4,182.9 217.4,182.4 218.4,181.8 219.4,180.1 220.4,177.7 221.4,180.4 222.4,181.6 223.4,178.8 224.4,180.1 225.4,180.0 226.4,177.7 227.4,179.4 228.4,178.4 229.4,179.2 230.4,180.1 231.4,179.3 232.4,179.7 233.4,179.6 234.4,178.5 235.4,176.6 236.4,174.5 237.4,173.5 238.4,174.7 239.4,173.3 240.4,173.7 241.4,168.5 242.4,164.7 243.4,166.1 244.4,166.1 245.4,164.4 246.4,163.0 247.4,163.7 248.4,164.1 249.4,167.6 250.4,165.8 251.4,164.4 252.4,162.4 253.4,161.1 254.4,157.9 255.4,158.3 256.4,155.6 257.4,155.4 258.4,156.9 259.4,154.6 260.4,156.8 261.4,158.3 262.4,160.5 263.4,159.6 264.4,158.9 265.4,158.2 266.4,156.1 267.4,155.9 268.4,157.6 269.4,158.6 270.4,157.6 271.4,155.8 272.4,156.9 273.4,166.0 274.4,164.7 275.4,165.7 276.4,164.7 277.4,166.9 278.4,167.8 279.4,167.2 280.4,164.6 281.4,166.1 282.4,168.7 283.4,168.5 284.4,165.7 285.4,168.5 286.4,165.5 287.4,165.8 288.4,164.9 289.4,169.6 290.4,169.1 291.4,166.5 292.4,167.5 293.4,168.6 294.4,169.8 295.4,167.5 296.4,167.3 297.4,166.8 298.4,165.8 299.4,163.3 300.4,159.4 301.4,163.6 302.4,159.3 303.4,158.0 304.4,157.6 305.4,157.6 306.4,156.6 307.4,155.3 308.4,152.9 309.4,151.8 310.4,151.2 311.4,152.7 312.4,153.8 313.4,153.4 314.4,154.0 315.4,154.3 316.4,155.0 317.4,155.4 318.4,153.8 319.4,154.3 320.4,150.6 321.4,153.7 322.4,153.5 323.4,154.0 324.4,153.8 325.4,152.3 326.4,153.0 327.4,151.6 328.4,148.8 329.4,147.0 330.4,148.8 331.4,149.1 332.4,151.5 333.4,150.6 334.4,151.0 335.4,150.4 336.4,155.5 337.4,156.9 338.4,157.8 339.4,156.5 340.4,154.4 341.4,153.1 342.4,159.1 343.4,158.3 344.4,154.4 345.4,153.5 346.4,155.7 347.4,156.1 348.4,159.5 349.4,162.7 350.4,162.7 351.4,163.2 352.4,164.7 353.4,162.6 354.4,162.9 355.4,162.5 356.4,162.5 357.4,162.5 358.4,161.4 359.4,158.1 360.4,156.6 361.4,159.2 362.4,158.5 363.4,157.5 364.4,157.1 365.4,155.5 366.4,154.6 367.4,153.1 368.4,152.1 369.4,150.9 370.4,149.4 371.4,152.9 372.4,154.3 373.4,151.6 374.4,150.4 375.4,148.3 376.4,147.8 377.4,150.1 378.4,151.2 379.4,150.4 380.4,147.8 381.4,147.1 382.4,144.8 383.4,144.8 384.4,143.6 385.4,142.6 386.4,139.3 387.4,140.2 388.4,139.8 389.4,136.8 390.4,134.2 391.4,133.8 392.4,132.4 393.4,133.0 394.4,130.6 395.4,129.3 396.4,128.1 397.4,127.8 398.4,129.2 399.4,127.6 400.4,127.8 401.4,126.8 402.4,125.7 403.4,126.9 404.4,127.9 405.4,128.2 406.4,125.5 407.4,122.5 408.4,124.5 409.4,126.2 410.4,128.1 411.4,125.5 412.4,128.4 413.4,128.1 414.4,124.5 415.4,121.9 416.4,121.5 417.4,121.0 418.4,122.5 419.4,120.9 420.4,125.4 421.4,127.3 422.4,126.0 423.4,126.7 424.4,131.4 425.4,131.1 426.4,128.8 427.4,132.3 428.4,126.9 429.4,127.6 430.4,127.7 431.4,126.0 432.4,126.4 433.4,126.5 434.4,125.7 435.4,123.7 436.4,122.9 437.4,120.8 438.4,121.4 439.4,120.5 440.4,121.7 441.4,123.2 442.4,122.4 443.4,122.6 444.4,120.0 445.4,120.5 446.4,115.8 447.4,114.2 448.4,115.0 449.4,113.7 450.4,113.3 451.4,111.1 452.4,111.1 453.4,112.3 454.4,113.1 455.4,111.3 456.4,112.5 457.4,113.5 458.4,112.4 459.4,113.2 460.4,113.7 461.4,109.8 462.4,108.1 463.4,116.0 464.4,116.7 465.4,118.5 466.4,119.5 467.4,121.4 468.4,120.1 469.4,119.6 470.4,116.7 471.4,116.7 472.4,114.3 473.4,112.9 474.4,107.6 475.4,106.4 476.4,105.5 477.4,105.6 478.4,104.6 479.4,102.4 480.4,102.5 481.4,99.6 482.4,99.9 483.4,97.5 484.4,95.8 485.4,98.8 486.4,98.6 487.4,95.8 488.4,95.1 489.4,94.6 490.4,91.1 491.4,91.3 492.4,91.7 493.4,90.6 494.4,90.2 495.4,90.0 496.4,88.4 497.4,88.5 498.4,87.1 499.4,86.3 500.4,87.7 501.4,88.2 502.4,88.7 503.4,91.3 504.4,91.3 505.4,88.1 506.4,87.9 507.4,88.4 508.4,88.5 509.4,87.3 510.4,83.9 511.4,82.4 512.4,85.9 513.4,86.9 514.4,83.1 515.4,81.1 516.4,80.4 517.4,81.2 518.4,80.2 519.4,78.2 520.4,79.1 521.4,77.4 522.4,77.2 523.4,76.1 524.4,77.1 525.4,75.7 526.4,78.1 527.4,76.7 528.4,73.8 529.4,74.9 530.4,79.6 531.4,77.8 532.4,79.4 533.4,81.0 534.4,84.3 535.4,83.3 536.4,83.0 537.4,80.0 538.4,79.9 539.4,79.2 540.4,78.3 541.4,77.1 542.4,79.0 543.4,79.6 544.4,79.7 545.4,76.1 546.4,76.3 547.4,75.0 548.4,74.2 549.4,75.6 550.4,73.6 551.4,73.9 552.4,75.4 553.4,77.2 554.4,74.2 555.4,73.4 556.4,72.6 557.4,70.4 558.4,69.0 559.4,67.6 560.4,71.3 561.4,70.0 562.4,74.3 563.4,75.7 564.4,74.2 565.4,72.7 566.4,73.2 567.4,74.1 568.4,74.8 569.4,73.0 570.4,70.7 571.4,68.7 572.4,69.3 573.4,68.8 574.4,70.0 575.4,76.2 576.4,74.5 577.4,74.2 578.4,72.8 579.4,72.2 580.4,70.4 581.4,69.9 582.4,71.6 583.4,71.5 584.4,72.4 585.4,71.9 586.4,72.1 587.4,72.8 588.4,70.8 589.4,73.0 590.3,75.2 591.3,76.6 592.3,76.8 593.3,77.0 594.3,75.7 595.3,73.1 596.3,78.0 597.3,77.6 598.3,76.0 599.3,76.4 600.3,76.5 601.3,78.9 602.3,78.4 603.3,77.9 604.3,77.7 605.3,76.6 606.3,75.6 607.3,74.8 608.3,75.4 609.3,75.3 610.3,76.6 611.3,75.5 612.3,74.3 613.3,75.1 614.3,74.5 615.3,74.7 616.3,73.6 617.3,77.4 618.3,75.7 619.3,75.4 620.3,73.9 621.3,72.3 622.3,68.8 623.3,67.6 624.3,67.9 625.3,68.3 626.3,68.3 627.3,70.0 628.3,69.5 629.3,70.1 630.3,67.8 631.3,69.4 632.3,71.6 633.3,70.6 634.3,70.7 635.3,70.7 636.3,69.7 637.3,68.4 638.3,67.6 639.3,65.3 640.3,64.5 641.3,70.5 642.3,73.5 643.3,72.7 644.3,70.5 645.3,69.8 646.3,70.4 647.3,69.3 648.3,68.7 649.3,68.3 650.3,68.9 651.3,65.4 652.3,62.3 653.3,61.6 654.3,60.0 655.3,62.5 656.3,64.5 657.3,66.2 658.3,74.0 659.3,71.9 660.3,70.5 661.3,71.9 662.3,72.4 663.3,71.3 664.3,70.8 665.3,68.7 666.3,67.8 667.3,70.7 668.3,77.1 669.3,76.7 670.3,77.2 671.3,74.8 672.3,75.0 673.3,74.9 674.3,75.7 675.3,78.6 676.3,79.2 677.3,78.7 678.3,78.3 679.3,74.4 680.3,73.6 681.3,74.9 682.3,74.2 683.3,76.0 684.3,77.5 685.3,75.6 686.3,76.5 687.3,80.2 688.3,80.4 689.3,80.8 690.3,81.6 691.3,81.6 692.3,81.6 693.3,83.0 694.3,82.6 695.3,83.1 696.3,83.4 697.3,80.5 698.3,80.9 699.3,80.0 699.3,100.0 698.3,98.1 697.3,96.7 696.3,95.7 695.3,96.6 694.3,95.3 693.3,98.3 692.3,95.3 691.3,92.3 690.3,92.6 689.3,92.0 688.3,93.8 687.3,95.7 686.3,97.1 685.3,95.6 684.3,95.7 683.3,93.0 682.3,90.8 681.3,90.9 680.3,89.9 679.3,89.5 678.3,87.2 677.3,88.5 676.3,87.6 675.3,86.2 674.3,84.8 673.3,84.2 672.3,87.5 671.3,88.8 670.3,89.3 669.3,88.2 668.3,88.0 667.3,89.2 666.3,90.3 665.3,89.3 664.3,92.9 663.3,91.2 662.3,88.5 661.3,88.1 660.3,87.3 659.3,86.2 658.3,87.3 657.3,86.2 656.3,84.4 655.3,84.1 654.3,83.7 653.3,81.5 652.3,81.9 651.3,81.0 650.3,86.8 649.3,86.2 648.3,82.5 647.3,80.3 646.3,80.6 645.3,82.0 644.3,83.7 643.3,83.5 642.3,85.9 641.3,88.8 640.3,86.5 639.3,88.7 638.3,89.2 637.3,87.8 636.3,88.1 635.3,89.3 634.3,89.0 633.3,86.8 632.3,83.0 631.3,81.8 630.3,80.8 629.3,81.7 628.3,81.1 627.3,80.4 626.3,79.6 625.3,78.3 624.3,78.2 623.3,79.8 622.3,95.6 621.3,96.5 620.3,97.4 619.3,96.2 618.3,94.0 617.3,92.7 616.3,90.4 615.3,88.8 614.3,89.8 613.3,89.8 612.3,88.8 611.3,88.0 610.3,84.9 609.3,87.5 608.3,84.6 607.3,84.9 606.3,85.6 605.3,87.3 604.3,87.7 603.3,87.7 602.3,88.9 601.3,88.6 600.3,85.7 599.3,89.3 598.3,89.5 597.3,88.5 596.3,89.2 595.3,85.8 594.3,84.9 593.3,84.3 592.3,84.8 591.3,84.6 590.3,82.8 589.4,81.4 588.4,82.7 587.4,85.3 586.4,86.1 585.4,85.7 584.4,83.2 583.4,80.9 582.4,80.8 581.4,79.3 580.4,83.9 579.4,90.7 578.4,91.7 577.4,92.1 576.4,92.0 575.4,92.9 574.4,92.0 573.4,91.9 572.4,87.3 571.4,85.7 570.4,85.5 569.4,87.0 568.4,88.4 567.4,89.0 566.4,90.5 565.4,86.1 564.4,87.0 563.4,89.2 562.4,85.3 561.4,84.6 560.4,83.4 559.4,81.9 558.4,80.0 557.4,81.2 556.4,90.1 555.4,88.4 554.4,87.5 553.4,85.8 552.4,85.6 551.4,85.3 550.4,85.3 549.4,86.5 548.4,86.2 547.4,85.2 546.4,86.8 545.4,88.0 544.4,89.1 543.4,94.0 542.4,95.9 541.4,97.0 540.4,95.4 539.4,93.7 538.4,95.2 537.4,95.3 536.4,96.9 535.4,101.9 534.4,98.8 533.4,98.7 532.4,98.3 531.4,101.3 530.4,99.9 529.4,98.3 528.4,97.4 527.4,95.4 526.4,93.8 525.4,93.2 524.4,93.8 523.4,92.8 522.4,89.5 521.4,89.6 520.4,95.1 519.4,93.7 518.4,95.9 517.4,93.2 516.4,91.1 515.4,93.4 514.4,94.5 513.4,97.0 512.4,99.2 511.4,103.5 510.4,100.8 509.4,100.1 508.4,100.5 507.4,104.9 506.4,103.0 505.4,103.7 504.4,102.9 503.4,105.7 502.4,104.6 501.4,103.3 500.4,102.2 499.4,102.6 498.4,104.6 497.4,104.1 496.4,102.1 495.4,104.7 494.4,103.2 493.4,101.8 492.4,99.3 491.4,102.4 490.4,104.8 489.4,105.1 488.4,107.5 487.4,108.1 486.4,109.0 485.4,109.1 484.4,109.6 483.4,115.2 482.4,115.0 481.4,117.0 480.4,121.6 479.4,119.4 478.4,120.0 477.4,122.0 476.4,121.8 475.4,124.6 474.4,125.0 473.4,130.3 472.4,133.4 471.4,132.6 470.4,133.0 469.4,132.9 468.4,135.4 467.4,135.4 466.4,134.1 465.4,132.9 464.4,132.2 463.4,131.8 462.4,130.4 461.4,130.4 460.4,128.1 459.4,129.9 458.4,127.4 457.4,124.4 456.4,123.7 455.4,125.7 454.4,124.0 453.4,122.0 452.4,122.8 451.4,124.0 450.4,124.2 449.4,128.0 448.4,128.5 447.4,128.7 446.4,131.8 445.4,138.1 444.4,138.8 443.4,138.2 442.4,136.0 441.4,133.3 440.4,134.2 439.4,137.0 438.4,137.1 437.4,137.7 436.4,136.2 435.4,136.3 434.4,135.1 433.4,135.4 432.4,135.3 431.4,136.5 430.4,137.9 429.4,138.1 428.4,139.1 427.4,141.6 426.4,142.0 425.4,140.0 424.4,140.6 423.4,141.1 422.4,140.8 421.4,139.7 420.4,138.0 419.4,136.9 418.4,136.4 417.4,133.9 416.4,133.7 415.4,140.9 414.4,142.5 413.4,141.6 412.4,143.3 411.4,140.9 410.4,139.3 409.4,139.0 408.4,138.6 407.4,139.7 406.4,139.3 405.4,139.6 404.4,141.3 403.4,141.6 402.4,143.0 401.4,140.1 400.4,141.6 399.4,142.8 398.4,139.1 397.4,138.8 396.4,137.9 395.4,138.0 394.4,139.7 393.4,142.3 392.4,151.9 391.4,152.6 390.4,150.1 389.4,149.5 388.4,151.9 387.4,151.8 386.4,153.8 385.4,157.8 384.4,160.0 383.4,160.3 382.4,157.5 381.4,157.7 380.4,159.6 379.4,159.5 378.4,160.9 377.4,161.3 376.4,166.0 375.4,167.5 374.4,164.6 373.4,172.6 372.4,174.8 371.4,172.4 370.4,170.1 369.4,167.8 368.4,164.7 367.4,163.0 366.4,161.8 365.4,168.9 364.4,170.3 363.4,170.0 362.4,171.2 361.4,173.8 360.4,172.1 359.4,173.3 358.4,174.3 357.4,177.5 356.4,173.2 355.4,174.1 354.4,174.0 353.4,173.9 352.4,175.3 351.4,179.2 350.4,180.6 349.4,181.7 348.4,179.2 347.4,176.5 346.4,174.5 345.4,173.9 344.4,174.2 343.4,171.8 342.4,171.1 341.4,168.9 340.4,169.5 339.4,169.3 338.4,172.6 337.4,171.0 336.4,170.3 335.4,169.6 334.4,166.7 333.4,166.3 332.4,166.1 331.4,165.2 330.4,165.1 329.4,164.5 328.4,165.4 327.4,164.1 326.4,166.6 325.4,166.5 324.4,166.8 323.4,172.6 322.4,174.0 321.4,173.5 320.4,171.9 319.4,170.4 318.4,167.5 317.4,166.2 316.4,167.4 315.4,167.2 314.4,163.4 313.4,163.8 312.4,171.3 311.4,174.5 310.4,174.1 309.4,170.1 308.4,171.7 307.4,171.8 306.4,172.3 305.4,172.4 304.4,171.5 303.4,172.5 302.4,177.4 301.4,175.9 300.4,177.9 299.4,179.0 298.4,181.0 297.4,179.6 296.4,178.5 295.4,179.3 294.4,182.0 293.4,184.1 292.4,184.1 291.4,184.7 290.4,185.8 289.4,186.5 288.4,184.7 287.4,185.0 286.4,183.0 285.4,183.1 284.4,183.8 283.4,183.0 282.4,184.3 281.4,186.3 280.4,184.3 279.4,185.8 278.4,185.4 277.4,187.2 276.4,186.3 275.4,184.3 274.4,181.6 273.4,178.3 272.4,177.5 271.4,176.1 270.4,173.3 269.4,172.0 268.4,171.1 267.4,171.8 266.4,174.3 265.4,178.0 264.4,177.2 263.4,175.0 262.4,174.4 261.4,175.6 260.4,174.0 259.4,171.0 258.4,168.4 257.4,173.0 256.4,183.6 255.4,189.3 254.4,192.5 253.4,191.3 252.4,191.5 251.4,191.5 250.4,192.3 249.4,188.8 248.4,187.5 247.4,187.7 246.4,186.5 245.4,186.7 244.4,189.7 243.4,188.6 242.4,189.9 241.4,187.1 240.4,188.3 239.4,188.8 238.4,188.7 237.4,188.7 236.4,188.1 235.4,188.6 234.4,190.6 233.4,191.3 232.4,190.7 231.4,188.6 230.4,188.7 229.4,194.6 228.4,196.5 227.4,193.6 226.4,192.2 225.4,193.8 224.4,194.8 223.4,192.7 222.4,195.3 221.4,189.4 220.4,188.6 219.4,192.4 218.4,193.6 217.4,192.4 216.4,192.0 215.4,194.8 214.4,194.9 213.4,195.0 212.4,194.1 211.4,195.2 210.4,194.5 209.4,197.3 208.4,212.5 207.4,215.4 206.4,214.6 205.4,214.6 204.4,213.6 203.4,213.6 202.4,209.2 201.4,205.1 200.4,203.1 199.4,204.3 198.4,205.1 197.4,206.5 196.4,207.5 195.4,209.2 194.4,212.7 193.4,210.7 192.4,208.1 191.4,208.2 190.4,208.5 189.5,209.9 188.5,206.2 187.5,205.2 186.5,208.7 185.5,213.6 184.5,210.5 183.5,213.0 182.5,211.2 181.5,208.9 180.5,210.0 179.5,211.3 178.5,209.4 177.5,209.2 176.5,208.4 175.5,213.7 174.5,223.5 173.5,224.4 172.5,224.5 171.5,222.6 170.5,221.1 169.5,220.2 168.5,221.4 167.5,223.0 166.5,223.6 165.5,224.2 164.5,224.3 163.5,222.4 162.5,224.7 161.5,227.4 160.5,233.0 159.5,233.5 158.5,231.7 157.5,232.3 156.5,233.8 155.5,233.7 154.5,230.8 153.5,229.0 152.5,227.6 151.5,225.1 150.5,226.7 149.5,227.7 148.5,226.2 147.5,227.2 146.5,228.3 145.5,230.3 144.5,228.8 143.5,227.8 142.5,228.7 141.5,231.0 140.5,233.2 139.5,234.7 138.5,235.4 137.5,234.5 136.5,236.6 135.5,234.6 134.5,233.0 133.5,234.9 132.5,235.1 131.5,234.1 130.5,233.6 129.5,232.5 128.5,235.2 127.5,238.9 126.5,241.2 125.5,239.5 124.5,239.5 123.5,237.8 122.5,238.2 121.5,236.7 120.5,241.4 119.5,245.4 118.5,246.2 117.5,249.4 116.5,250.4 115.5,249.6 114.5,245.4 113.5,242.6 112.5,242.1 111.5,242.4 110.5,242.9 109.5,244.3 108.5,246.1 107.5,246.8 106.5,242.0 105.5,245.1 104.5,247.2 103.5,246.5 102.5,245.1 101.5,246.9 100.5,247.2 99.5,248.8 98.5,251.4 97.5,249.8 96.5,250.0 95.5,251.3 94.5,251.4 93.5,253.2 92.5,255.4 91.5,259.4 90.5,260.0 89.5,259.6 88.5,258.8 87.5,257.4 86.5,257.9 85.5,259.3 84.5,258.0 83.5,259.1 82.5,259.4 81.5,262.4 80.5,265.3 79.5,265.0 78.5,265.1 77.5,262.9 76.5,268.1 75.5,278.9 74.5,277.6 73.5,280.2 72.5,277.4 71.5,278.3 70.5,289.8 69.5,289.5 68.5,288.7 67.5,286.6 66.5,288.5 65.5,287.3 64.5,292.3 63.5,293.6 62.5,296.7 61.5,294.7 60.5,294.4 59.5,296.6 58.5,297.2 57.5,299.2 56.5,300.1 55.5,298.4 Z"></path>
    <path class="data-area-series series-blue" d="M55.5,292.6 56.5,291.0 57.5,287.7 58.5,287.7 59.5,281.9 60.5,280.1 61.5,274.2 62.5,271.6 63.5,269.4 64.5,267.4 65.5,267.4 66.5,264.9 67.5,266.3 68.5,266.5 69.5,265.5 70.5,266.0 71.5,265.6 72.5,264.2 73.5,263.8 74.5,260.0 75.5,257.2 76.5,256.6 77.5,253.9 78.5,252.2 79.5,251.7 80.5,251.7 81.5,249.6 82.5,248.7 83.5,247.8 84.5,244.6 85.5,238.5 86.5,239.4 87.5,238.6 88.5,233.8 89.5,234.1 90.5,232.0 91.5,232.4 92.5,233.2 93.5,232.4 94.5,228.7 95.5,228.1 96.5,227.4 97.5,226.7 98.5,224.6 99.5,224.5 100.5,224.6 101.5,222.7 102.5,222.3 103.5,227.4 104.5,227.5 105.5,224.9 106.5,225.4 107.5,230.5 108.5,231.3 109.5,233.1 110.5,233.4 111.5,232.2 112.5,230.3 113.5,230.1 114.5,228.1 115.5,229.1 116.5,227.4 117.5,226.9 118.5,228.8 119.5,226.3 120.5,225.3 121.5,223.5 122.5,221.0 123.5,224.7 124.5,225.6 125.5,222.6 126.5,224.6 127.5,222.3 128.5,220.2 129.5,220.8 130.5,219.6 131.5,219.0 132.5,217.6 133.5,213.4 134.5,215.4 135.5,217.1 136.5,215.9 137.5,215.1 138.5,213.5 139.5,212.8 140.5,210.1 141.5,210.4 142.5,210.5 143.5,210.5 144.5,208.8 145.5,209.1 146.5,207.0 147.5,204.6 148.5,207.2 149.5,206.6 150.5,205.8 151.5,205.1 152.5,203.7 153.5,203.0 154.5,201.4 155.5,202.2 156.5,199.4 157.5,198.6 158.5,197.2 159.5,197.1 160.5,196.8 161.5,193.2 162.5,195.7 163.5,196.0 164.5,191.6 165.5,192.8 166.5,191.7 167.5,188.1 168.5,185.4 169.5,186.6 170.5,185.4 171.5,183.3 172.5,185.7 173.5,184.2 174.5,184.5 175.5,182.4 176.5,183.2 177.5,181.6 178.5,182.7 179.5,183.5 180.5,182.1 181.5,177.6 182.5,176.2 183.5,175.5 184.5,174.5 185.5,174.1 186.5,172.0 187.5,170.9 188.5,169.5 189.5,168.3 190.4,167.4 191.4,168.6 192.4,167.7 193.4,168.3 194.4,168.3 195.4,167.5 196.4,166.7 197.4,164.6 198.4,164.8 199.4,167.3 200.4,169.2 201.4,168.5 202.4,168.6 203.4,166.6 204.4,164.5 205.4,163.8 206.4,161.1 207.4,161.2 208.4,160.2 209.4,160.1 210.4,161.0 211.4,166.3 212.4,167.7 213.4,167.2 214.4,166.4 215.4,162.1 216.4,162.6 217.4,162.4 218.4,163.7 219.4,160.0 220.4,159.4 221.4,158.1 222.4,158.6 223.4,160.0 224.4,156.9 225.4,157.4 226.4,157.6 227.4,156.8 228.4,155.6 229.4,154.6 230.4,155.2 231.4,154.9 232.4,155.1 233.4,154.8 234.4,154.0 235.4,151.5 236.4,151.9 237.4,151.2 238.4,151.7 239.4,153.1 240.4,156.5 241.4,156.2 242.4,154.9 243.4,154.6 244.4,156.2 245.4,157.7 246.4,159.0 247.4,160.6 248.4,161.2 249.4,163.6 250.4,164.4 251.4,162.9 252.4,158.0 253.4,157.6 254.4,156.9 255.4,157.3 256.4,165.9 257.4,165.8 258.4,163.8 259.4,161.1 260.4,161.6 261.4,162.1 262.4,160.4 263.4,158.7 264.4,157.3 265.4,155.9 266.4,159.2 267.4,158.6 268.4,157.0 269.4,161.5 270.4,162.0 271.4,160.5 272.4,160.3 273.4,161.9 274.4,162.8 275.4,162.9 276.4,163.2 277.4,168.4 278.4,170.2 279.4,168.7 280.4,170.1 281.4,174.1 282.4,173.3 283.4,172.6 284.4,175.3 285.4,176.3 286.4,174.6 287.4,172.0 288.4,172.0 289.4,170.0 290.4,168.7 291.4,169.1 292.4,170.7 293.4,170.2 294.4,173.5 295.4,172.2 296.4,170.4 297.4,169.1 298.4,167.9 299.4,166.2 300.4,164.7 301.4,163.9 302.4,164.0 303.4,164.5 304.4,163.6 305.4,165.0 306.4,164.5 307.4,160.3 308.4,157.3 309.4,160.0 310.4,160.8 311.4,160.6 312.4,161.2 313.4,161.3 314.4,160.7 315.4,159.5 316.4,159.9 317.4,163.0 318.4,163.8 319.4,163.0 320.4,162.5 321.4,164.6 322.4,161.4 323.4,163.4 324.4,166.3 325.4,164.2 326.4,163.5 327.4,163.8 328.4,161.3 329.4,160.9 330.4,158.4 331.4,160.6 332.4,162.2 333.4,161.5 334.4,158.8 335.4,156.2 336.4,155.7 337.4,157.1 338.4,155.9 339.4,152.5 340.4,152.8 341.4,151.1 342.4,149.7 343.4,146.5 344.4,151.6 345.4,151.3 346.4,149.3 347.4,150.5 348.4,149.2 349.4,149.4 350.4,150.0 351.4,149.0 352.4,148.1 353.4,148.6 354.4,147.9 355.4,146.7 356.4,146.1 357.4,147.9 358.4,149.5 359.4,148.5 360.4,148.5 361.4,149.7 362.4,147.6 363.4,146.9 364.4,145.0 365.4,145.6 366.4,142.1 367.4,142.1 368.4,143.6 369.4,145.2 370.4,146.5 371.4,145.6 372.4,147.8 373.4,147.0 374.4,145.5 375.4,147.5 376.4,147.0 377.4,150.6 378.4,150.6 379.4,150.0 380.4,150.7 381.4,147.4 382.4,147.2 383.4,144.3 384.4,150.0 385.4,150.1 386.4,146.4 387.4,144.3 388.4,139.0 389.4,139.0 390.4,137.8 391.4,141.3 392.4,141.2 393.4,139.3 394.4,138.6 395.4,137.9 396.4,136.9 397.4,136.4 398.4,135.7 399.4,136.8 400.4,137.4 401.4,137.5 402.4,135.7 403.4,134.6 404.4,133.3 405.4,132.0 406.4,130.7 407.4,131.4 408.4,130.7 409.4,132.4 410.4,131.4 411.4,130.4 412.4,128.4 413.4,132.5 414.4,139.1 415.4,139.9 416.4,138.6 417.4,138.3 418.4,140.1 419.4,139.3 420.4,141.4 421.4,136.3 422.4,132.9 423.4,129.7 424.4,126.1 425.4,125.5 426.4,126.0 427.4,124.8 428.4,125.3 429.4,126.6 430.4,126.7 431.4,128.0 432.4,127.1 433.4,138.7 434.4,141.2 435.4,140.0 436.4,141.8 437.4,138.7 438.4,136.7 439.4,134.5 440.4,134.7 441.4,135.6 442.4,137.9 443.4,135.9 444.4,135.0 445.4,133.5 446.4,133.1 447.4,133.6 448.4,132.2 449.4,129.8 450.4,129.7 451.4,129.7 452.4,128.1 453.4,127.4 454.4,127.3 455.4,125.7 456.4,123.5 457.4,122.8 458.4,124.1 459.4,126.8 460.4,127.7 461.4,128.2 462.4,127.5 463.4,125.9 464.4,123.2 465.4,121.9 466.4,121.8 467.4,121.4 468.4,119.1 469.4,121.8 470.4,121.9 471.4,119.2 472.4,116.9 473.4,114.9 474.4,113.2 475.4,113.1 476.4,114.3 477.4,114.4 478.4,112.5 479.4,114.5 480.4,115.2 481.4,116.6 482.4,115.8 483.4,113.2 484.4,111.9 485.4,112.5 486.4,110.6 487.4,109.4 488.4,112.9 489.4,115.2 490.4,116.1 491.4,115.8 492.4,116.3 493.4,113.5 494.4,111.3 495.4,114.2 496.4,115.2 497.4,111.8 498.4,109.9 499.4,109.5 500.4,108.5 501.4,108.0 502.4,106.2 503.4,105.1 504.4,103.9 505.4,105.5 506.4,108.5 507.4,106.0 508.4,107.0 509.4,109.0 510.4,110.1 511.4,108.0 512.4,106.6 513.4,104.3 514.4,104.3 515.4,103.1 516.4,101.0 517.4,99.8 518.4,98.6 519.4,99.7 520.4,101.0 521.4,100.7 522.4,101.1 523.4,99.9 524.4,97.2 525.4,95.0 526.4,93.0 527.4,92.2 528.4,89.3 529.4,88.3 530.4,88.3 531.4,89.9 532.4,90.1 533.4,88.6 534.4,89.2 535.4,87.2 536.4,86.6 537.4,86.1 538.4,86.3 539.4,86.2 540.4,85.9 541.4,82.5 542.4,81.5 543.4,79.9 544.4,78.8 545.4,79.0 546.4,78.0 547.4,75.1 548.4,75.1 549.4,76.6 550.4,76.0 551.4,74.8 552.4,74.0 553.4,72.9 554.4,73.5 555.4,73.9 556.4,73.2 557.4,74.6 558.4,70.8 559.4,70.9 560.4,71.1 561.4,73.0 562.4,76.9 563.4,76.2 564.4,75.6 565.4,75.0 566.4,75.2 567.4,77.2 568.4,77.3 569.4,76.7 570.4,80.0 571.4,79.4 572.4,78.4 573.4,79.7 574.4,80.5 575.4,77.8 576.4,78.4 577.4,76.8 578.4,77.7 579.4,77.8 580.4,76.4 581.4,73.9 582.4,74.0 583.4,73.2 584.4,73.4 585.4,75.1 586.4,75.4 587.4,74.4 588.4,71.6 589.4,71.1 590.3,70.8 591.3,72.9 592.3,73.9 593.3,70.7 594.3,69.8 595.3,65.9 596.3,66.0 597.3,65.0 598.3,63.3 599.3,63.7 600.3,61.0 601.3,58.6 602.3,59.2 603.3,58.5 604.3,56.2 605.3,53.1 606.3,60.3 607.3,57.1 608.3,52.0 609.3,53.0 610.3,60.1 611.3,60.5 612.3,61.3 613.3,61.5 614.3,61.8 615.3,61.0 616.3,66.3 617.3,67.1 618.3,66.4 619.3,64.2 620.3,63.6 621.3,63.2 622.3,61.5 623.3,57.8 624.3,58.1 625.3,57.3 626.3,55.8 627.3,55.1 628.3,54.5 629.3,53.2 630.3,52.4 631.3,47.5 632.3,48.8 633.3,47.1 634.3,43.4 635.3,43.2 636.3,48.1 637.3,53.4 638.3,52.4 639.3,54.6 640.3,54.4 641.3,51.4 642.3,52.1 643.3,51.8 644.3,52.6 645.3,51.6 646.3,51.7 647.3,52.7 648.3,51.9 649.3,50.5 650.3,48.9 651.3,45.4 652.3,46.1 653.3,45.9 654.3,47.7 655.3,48.7 656.3,49.9 657.3,47.1 658.3,49.8 659.3,50.2 660.3,48.7 661.3,49.8 662.3,52.1 663.3,52.5 664.3,54.1 665.3,54.3 666.3,55.8 667.3,57.2 668.3,55.5 669.3,54.0 670.3,53.5 671.3,53.1 672.3,56.7 673.3,55.3 674.3,53.1 675.3,52.7 676.3,51.1 677.3,51.5 678.3,49.7 679.3,49.2 680.3,48.3 681.3,47.1 682.3,49.3 683.3,49.4 684.3,49.2 685.3,48.2 686.3,49.4 687.3,47.5 688.3,48.0 689.3,47.7 690.3,44.7 691.3,46.5 692.3,46.1 693.3,45.6 694.3,46.5 695.3,44.1 696.3,43.3 697.3,43.8 698.3,45.6 699.3,44.3 699.3,56.0 698.3,55.0 697.3,53.1 696.3,54.6 695.3,55.4 694.3,56.5 693.3,55.5 692.3,56.8 691.3,59.4 690.3,57.3 689.3,58.1 688.3,59.6 687.3,60.7 686.3,60.1 685.3,58.6 684.3,59.6 683.3,59.4 682.3,59.5 681.3,57.9 680.3,63.3 679.3,66.9 678.3,69.2 677.3,67.4 676.3,69.3 675.3,68.7 674.3,67.8 673.3,67.8 672.3,65.7 671.3,65.9 670.3,66.0 669.3,65.6 668.3,68.7 667.3,69.0 666.3,64.9 665.3,65.1 664.3,64.6 663.3,65.4 662.3,71.8 661.3,71.9 660.3,71.5 659.3,70.6 658.3,68.2 657.3,68.3 656.3,68.4 655.3,65.1 654.3,63.4 653.3,63.7 652.3,62.8 651.3,61.7 650.3,66.6 649.3,70.1 648.3,70.7 647.3,66.0 646.3,64.1 645.3,61.7 644.3,68.2 643.3,67.2 642.3,64.7 641.3,65.8 640.3,64.4 639.3,64.9 638.3,63.3 637.3,66.4 636.3,64.6 635.3,66.0 634.3,66.3 633.3,69.1 632.3,67.3 631.3,67.0 630.3,65.9 629.3,66.6 628.3,66.7 627.3,67.4 626.3,69.5 625.3,71.6 624.3,70.7 623.3,74.0 622.3,76.1 621.3,77.3 620.3,78.4 619.3,81.7 618.3,83.2 617.3,83.2 616.3,81.7 615.3,80.3 614.3,78.9 613.3,77.9 612.3,74.2 611.3,71.8 610.3,71.5 609.3,70.0 608.3,68.7 607.3,68.2 606.3,71.0 605.3,71.5 604.3,72.3 603.3,73.0 602.3,71.5 601.3,71.3 600.3,72.0 599.3,75.1 598.3,80.5 597.3,81.6 596.3,82.7 595.3,86.0 594.3,85.8 593.3,86.6 592.3,87.2 591.3,89.2 590.3,91.8 589.4,90.4 588.4,90.9 587.4,91.7 586.4,89.5 585.4,90.1 584.4,89.9 583.4,88.9 582.4,88.3 581.4,91.2 580.4,98.4 579.4,100.4 578.4,98.8 577.4,98.6 576.4,98.2 575.4,95.7 574.4,95.0 573.4,92.7 572.4,91.3 571.4,91.2 570.4,89.0 569.4,88.0 568.4,89.5 567.4,87.2 566.4,87.7 565.4,87.0 564.4,86.8 563.4,89.2 562.4,91.3 561.4,90.9 560.4,89.1 559.4,89.2 558.4,88.4 557.4,88.1 556.4,87.7 555.4,87.3 554.4,85.4 553.4,84.3 552.4,85.0 551.4,87.6 550.4,106.5 549.4,113.7 548.4,109.9 547.4,107.7 546.4,104.1 545.4,106.1 544.4,112.4 543.4,110.8 542.4,108.7 541.4,108.5 540.4,107.8 539.4,104.6 538.4,107.3 537.4,106.9 536.4,106.7 535.4,104.4 534.4,103.4 533.4,104.2 532.4,107.0 531.4,112.8 530.4,112.0 529.4,110.1 528.4,109.5 527.4,108.6 526.4,107.3 525.4,108.2 524.4,109.4 523.4,108.9 522.4,109.9 521.4,113.2 520.4,112.2 519.4,112.3 518.4,112.8 517.4,115.1 516.4,112.6 515.4,115.5 514.4,118.0 513.4,118.1 512.4,120.7 511.4,126.1 510.4,125.4 509.4,124.4 508.4,125.5 507.4,126.9 506.4,127.8 505.4,126.5 504.4,127.2 503.4,125.9 502.4,124.3 501.4,121.9 500.4,121.7 499.4,124.2 498.4,128.0 497.4,130.8 496.4,130.4 495.4,125.3 494.4,125.9 493.4,127.6 492.4,127.1 491.4,126.9 490.4,125.8 489.4,134.9 488.4,135.9 487.4,133.9 486.4,131.1 485.4,128.3 484.4,129.5 483.4,129.1 482.4,130.5 481.4,128.9 480.4,128.7 479.4,130.9 478.4,132.4 477.4,133.0 476.4,133.5 475.4,135.2 474.4,142.9 473.4,141.7 472.4,142.8 471.4,142.3 470.4,142.8 469.4,141.3 468.4,137.7 467.4,136.1 466.4,136.0 465.4,135.3 464.4,134.7 463.4,134.5 462.4,135.9 461.4,135.6 460.4,137.3 459.4,137.6 458.4,135.7 457.4,137.9 456.4,139.7 455.4,137.4 454.4,137.9 453.4,136.4 452.4,137.3 451.4,144.6 450.4,146.1 449.4,151.3 448.4,152.9 447.4,155.4 446.4,154.1 445.4,153.8 444.4,151.6 443.4,151.8 442.4,151.1 441.4,150.8 440.4,151.1 439.4,149.4 438.4,154.2 437.4,152.5 436.4,150.9 435.4,152.0 434.4,152.8 433.4,150.4 432.4,148.9 431.4,149.4 430.4,149.7 429.4,149.4 428.4,148.3 427.4,148.7 426.4,147.7 425.4,147.6 424.4,148.6 423.4,150.6 422.4,150.8 421.4,151.7 420.4,150.0 419.4,149.9 418.4,149.3 417.4,149.8 416.4,150.4 415.4,150.0 414.4,149.4 413.4,151.7 412.4,149.9 411.4,152.3 410.4,152.6 409.4,151.9 408.4,151.8 407.4,149.5 406.4,147.6 405.4,146.6 404.4,150.8 403.4,153.5 402.4,153.4 401.4,152.6 400.4,154.0 399.4,156.5 398.4,155.3 397.4,150.2 396.4,149.7 395.4,153.1 394.4,152.0 393.4,154.1 392.4,154.6 391.4,157.2 390.4,156.6 389.4,157.9 388.4,158.6 387.4,160.3 386.4,160.3 385.4,160.8 384.4,160.1 383.4,158.6 382.4,162.9 381.4,163.8 380.4,160.8 379.4,161.9 378.4,164.4 377.4,163.0 376.4,162.9 375.4,163.4 374.4,164.7 373.4,164.8 372.4,163.0 371.4,160.9 370.4,159.0 369.4,158.5 368.4,156.6 367.4,155.8 366.4,157.8 365.4,157.3 364.4,160.5 363.4,158.3 362.4,159.8 361.4,159.7 360.4,159.1 359.4,161.6 358.4,159.2 357.4,159.2 356.4,159.0 355.4,160.1 354.4,161.7 353.4,162.0 352.4,161.4 351.4,164.1 350.4,163.1 349.4,164.1 348.4,162.0 347.4,163.2 346.4,163.9 345.4,163.1 344.4,167.5 343.4,172.2 342.4,171.7 341.4,172.0 340.4,171.2 339.4,171.2 338.4,171.9 337.4,172.3 336.4,173.2 335.4,175.5 334.4,174.0 333.4,175.5 332.4,176.0 331.4,176.7 330.4,176.2 329.4,175.4 328.4,174.3 327.4,174.1 326.4,178.9 325.4,179.6 324.4,179.9 323.4,180.1 322.4,179.2 321.4,178.5 320.4,177.5 319.4,175.9 318.4,175.6 317.4,175.6 316.4,173.4 315.4,172.2 314.4,175.6 313.4,176.2 312.4,173.9 311.4,173.8 310.4,173.5 309.4,172.7 308.4,173.5 307.4,176.1 306.4,175.9 305.4,176.2 304.4,173.9 303.4,174.6 302.4,177.5 301.4,184.7 300.4,184.1 299.4,186.6 298.4,184.4 297.4,187.5 296.4,188.0 295.4,185.7 294.4,182.4 293.4,179.1 292.4,181.5 291.4,183.1 290.4,179.7 289.4,183.0 288.4,187.0 287.4,186.9 286.4,186.3 285.4,185.8 284.4,187.6 283.4,188.0 282.4,191.9 281.4,189.8 280.4,189.6 279.4,192.2 278.4,186.3 277.4,183.6 276.4,181.6 275.4,181.1 274.4,182.7 273.4,180.5 272.4,177.3 271.4,176.7 270.4,174.5 269.4,173.9 268.4,180.8 267.4,179.4 266.4,176.5 265.4,176.5 264.4,176.0 263.4,175.1 262.4,175.1 261.4,176.4 260.4,174.9 259.4,174.2 258.4,175.3 257.4,179.6 256.4,180.6 255.4,182.2 254.4,181.1 253.4,183.1 252.4,180.1 251.4,178.1 250.4,174.3 249.4,174.9 248.4,171.7 247.4,171.8 246.4,173.3 245.4,171.1 244.4,168.9 243.4,167.8 242.4,167.3 241.4,171.3 240.4,166.4 239.4,166.6 238.4,166.7 237.4,165.8 236.4,162.5 235.4,162.0 234.4,161.1 233.4,162.0 232.4,165.6 231.4,169.0 230.4,171.0 229.4,169.0 228.4,169.4 227.4,171.5 226.4,170.4 225.4,169.8 224.4,169.9 223.4,169.5 222.4,170.0 221.4,171.2 220.4,174.6 219.4,178.5 218.4,179.2 217.4,184.5 216.4,184.5 215.4,183.4 214.4,182.2 213.4,183.9 212.4,181.8 211.4,180.1 210.4,181.2 209.4,181.5 208.4,185.8 207.4,186.8 206.4,184.4 205.4,185.1 204.4,183.9 203.4,179.8 202.4,179.7 201.4,178.7 200.4,179.5 199.4,179.9 198.4,180.6 197.4,181.8 196.4,180.2 195.4,178.3 194.4,182.7 193.4,185.2 192.4,183.4 191.4,180.7 190.4,179.4 189.5,185.7 188.5,190.0 187.5,191.2 186.5,191.6 185.5,190.7 184.5,190.4 183.5,189.9 182.5,189.7 181.5,201.1 180.5,200.8 179.5,200.2 178.5,199.5 177.5,198.9 176.5,198.5 175.5,194.9 174.5,195.1 173.5,194.1 172.5,197.1 171.5,207.1 170.5,204.5 169.5,206.5 168.5,208.9 167.5,210.3 166.5,210.0 165.5,210.1 164.5,209.3 163.5,210.0 162.5,207.6 161.5,206.4 160.5,205.3 159.5,205.4 158.5,207.3 157.5,209.4 156.5,210.3 155.5,211.8 154.5,212.6 153.5,213.1 152.5,212.1 151.5,213.1 150.5,216.7 149.5,217.1 148.5,219.5 147.5,219.4 146.5,217.9 145.5,218.0 144.5,219.6 143.5,221.8 142.5,222.8 141.5,221.9 140.5,224.2 139.5,222.1 138.5,223.6 137.5,226.8 136.5,227.6 135.5,227.1 134.5,227.1 133.5,230.3 132.5,231.8 131.5,235.9 130.5,239.6 129.5,240.0 128.5,241.2 127.5,239.4 126.5,236.1 125.5,237.9 124.5,234.4 123.5,233.6 122.5,235.6 121.5,237.0 120.5,237.8 119.5,239.8 118.5,240.6 117.5,240.0 116.5,241.3 115.5,242.3 114.5,243.7 113.5,245.1 112.5,242.9 111.5,242.5 110.5,244.9 109.5,249.4 108.5,245.7 107.5,242.2 106.5,239.6 105.5,241.3 104.5,243.7 103.5,243.8 102.5,243.1 101.5,242.8 100.5,240.8 99.5,239.9 98.5,239.7 97.5,237.2 96.5,242.3 95.5,251.6 94.5,254.3 93.5,255.9 92.5,253.5 91.5,250.6 90.5,252.0 89.5,254.1 88.5,255.9 87.5,257.8 86.5,257.9 85.5,257.2 84.5,258.1 83.5,263.5 82.5,262.5 81.5,261.2 80.5,260.4 79.5,260.0 78.5,261.6 77.5,269.5 76.5,273.4 75.5,273.3 74.5,272.5 73.5,274.9 72.5,274.8 71.5,276.9 70.5,276.6 69.5,278.8 68.5,281.0 67.5,279.5 66.5,279.6 65.5,279.0 64.5,289.0 63.5,297.3 62.5,296.9 61.5,300.2 60.5,299.4 59.5,298.7 58.5,300.3 57.5,300.9 56.5,297.7 55.5,297.6 Z"></path>
    <path class="data-area-series series-red" d="M55.5,291.7 56.5,288.2 57.5,285.4 58.5,283.1 59.5,283.1 60.5,283.3 61.5,282.9 62.5,280.6 63.5,278.4 64.5,276.3 65.5,275.7 66.5,275.5 67.5,276.4 68.5,273.5 69.5,271.3 70.5,272.0 71.5,270.9 72.5,267.7 73.5,267.1 74.5,266.1 75.5,266.0 76.5,262.8 77.5,262.9 78.5,264.9 79.5,263.3 80.5,262.8 81.5,262.8 82.5,259.2 83.5,258.8 84.5,258.4 85.5,261.4 86.5,256.9 87.5,256.6 88.5,257.2 89.5,255.1 90.5,254.8 91.5,253.9 92.5,256.4 93.5,259.0 94.5,262.3 95.5,264.1 96.5,263.8 97.5,262.7 98.5,261.6 99.5,261.9 100.5,260.0 101.5,259.1 102.5,256.1 103.5,257.4 104.5,258.7 105.5,259.4 106.5,259.4 107.5,259.5 108.5,258.2 109.5,256.4 110.5,252.7 111.5,249.6 112.5,249.0 113.5,248.2 114.5,246.6 115.5,246.5 116.5,248.5 117.5,247.7 118.5,244.4 119.5,241.1 120.5,241.7 121.5,243.3 122.5,243.4 123.5,240.8 124.5,238.6 125.5,244.2 126.5,241.4 127.5,243.0 128.5,243.3 129.5,240.6 130.5,242.1 131.5,239.1 132.5,240.6 133.5,242.1 134.5,241.4 135.5,239.5 136.5,237.6 137.5,236.9 138.5,234.7 139.5,233.7 140.5,233.4 141.5,228.1 142.5,227.3 143.5,227.8 144.5,225.4 145.5,223.7 146.5,223.6 147.5,222.4 148.5,224.8 149.5,224.8 150.5,222.8 151.5,221.5 152.5,219.8 153.5,219.3 154.5,218.5 155.5,221.2 156.5,220.3 157.5,218.4 158.5,218.2 159.5,217.3 160.5,217.3 161.5,217.5 162.5,217.5 163.5,216.5 164.5,214.6 165.5,215.2 166.5,214.3 167.5,216.3 168.5,215.4 169.5,214.6 170.5,214.6 171.5,216.0 172.5,216.1 173.5,214.9 174.5,214.4 175.5,213.7 176.5,212.5 177.5,212.4 178.5,209.8 179.5,206.2 180.5,207.4 181.5,210.3 182.5,210.0 183.5,210.1 184.5,213.5 185.5,209.3 186.5,204.5 187.5,206.0 188.5,205.7 189.5,207.1 190.4,206.0 191.4,202.6 192.4,205.5 193.4,205.4 194.4,202.9 195.4,205.1 196.4,204.5 197.4,203.8 198.4,202.7 199.4,200.2 200.4,198.2 201.4,197.2 202.4,197.0 203.4,195.6 204.4,195.9 205.4,194.7 206.4,194.6 207.4,194.1 208.4,191.5 209.4,190.7 210.4,189.7 211.4,190.1 212.4,187.1 213.4,187.1 214.4,187.3 215.4,188.4 216.4,187.7 217.4,186.2 218.4,185.8 219.4,186.4 220.4,191.2 221.4,190.8 222.4,187.9 223.4,184.2 224.4,181.5 225.4,181.5 226.4,179.7 227.4,179.2 228.4,181.5 229.4,183.0 230.4,182.4 231.4,183.2 232.4,183.0 233.4,178.4 234.4,176.6 235.4,175.4 236.4,174.8 237.4,175.2 238.4,175.0 239.4,175.6 240.4,175.9 241.4,175.0 242.4,173.7 243.4,170.6 244.4,173.5 245.4,177.0 246.4,177.0 247.4,176.4 248.4,177.4 249.4,177.0 250.4,177.7 251.4,177.1 252.4,175.3 253.4,176.3 254.4,177.7 255.4,179.9 256.4,177.5 257.4,175.2 258.4,171.8 259.4,170.9 260.4,171.0 261.4,169.0 262.4,167.6 263.4,168.7 264.4,169.1 265.4,169.4 266.4,168.1 267.4,168.0 268.4,166.1 269.4,165.7 270.4,167.5 271.4,168.8 272.4,167.9 273.4,167.4 274.4,167.5 275.4,164.6 276.4,158.0 277.4,152.4 278.4,150.2 279.4,149.6 280.4,148.5 281.4,148.7 282.4,149.2 283.4,148.1 284.4,149.4 285.4,148.0 286.4,146.1 287.4,145.2 288.4,144.1 289.4,144.9 290.4,146.1 291.4,146.4 292.4,145.1 293.4,142.6 294.4,143.0 295.4,142.8 296.4,141.7 297.4,141.1 298.4,139.0 299.4,136.3 300.4,138.9 301.4,147.9 302.4,147.2 303.4,146.5 304.4,146.8 305.4,145.9 306.4,143.0 307.4,140.6 308.4,140.3 309.4,140.6 310.4,139.3 311.4,140.1 312.4,138.8 313.4,135.9 314.4,133.5 315.4,133.6 316.4,130.6 317.4,129.7 318.4,128.8 319.4,128.5 320.4,124.6 321.4,125.8 322.4,124.3 323.4,125.8 324.4,122.6 325.4,119.5 326.4,118.4 327.4,117.9 328.4,118.7 329.4,117.9 330.4,118.5 331.4,117.6 332.4,118.5 333.4,118.5 334.4,117.6 335.4,115.8 336.4,117.2 337.4,116.3 338.4,116.6 339.4,117.3 340.4,116.3 341.4,114.4 342.4,114.1 343.4,116.3 344.4,114.5 345.4,113.0 346.4,116.4 347.4,121.2 348.4,119.7 349.4,120.3 350.4,120.6 351.4,119.9 352.4,119.5 353.4,119.7 354.4,118.4 355.4,120.9 356.4,122.6 357.4,121.4 358.4,120.5 359.4,125.9 360.4,124.4 361.4,123.4 362.4,119.4 363.4,118.9 364.4,121.6 365.4,120.2 366.4,117.7 367.4,116.6 368.4,116.2 369.4,115.0 370.4,114.3 371.4,113.9 372.4,115.4 373.4,114.3 374.4,111.8 375.4,108.3 376.4,103.4 377.4,100.3 378.4,100.4 379.4,99.9 380.4,99.3 381.4,100.1 382.4,101.9 383.4,103.1 384.4,103.3 385.4,98.6 386.4,96.9 387.4,93.7 388.4,99.0 389.4,103.0 390.4,101.4 391.4,99.6 392.4,100.0 393.4,99.0 394.4,99.2 395.4,97.7 396.4,95.3 397.4,94.0 398.4,95.3 399.4,93.2 400.4,92.9 401.4,89.3 402.4,88.6 403.4,87.3 404.4,87.0 405.4,87.4 406.4,87.1 407.4,84.4 408.4,81.2 409.4,84.7 410.4,83.7 411.4,87.1 412.4,86.8 413.4,88.1 414.4,89.3 415.4,89.4 416.4,88.8 417.4,91.3 418.4,89.5 419.4,88.2 420.4,88.8 421.4,87.2 422.4,86.3 423.4,85.0 424.4,81.5 425.4,79.2 426.4,80.8 427.4,87.2 428.4,85.4 429.4,82.2 430.4,86.4 431.4,84.3 432.4,81.9 433.4,79.8 434.4,77.0 435.4,75.0 436.4,72.4 437.4,75.6 438.4,74.8 439.4,76.0 440.4,74.3 441.4,73.4 442.4,75.3 443.4,74.5 444.4,72.1 445.4,73.9 446.4,72.5 447.4,73.5 448.4,72.9 449.4,71.4 450.4,68.8 451.4,68.0 452.4,66.3 453.4,65.8 454.4,71.1 455.4,68.8 456.4,70.2 457.4,72.4 458.4,71.2 459.4,70.2 460.4,66.8 461.4,61.9 462.4,61.4 463.4,61.0 464.4,63.9 465.4,64.4 466.4,62.6 467.4,65.6 468.4,67.9 469.4,68.5 470.4,69.9 471.4,64.9 472.4,63.2 473.4,60.8 474.4,60.8 475.4,60.7 476.4,61.4 477.4,62.7 478.4,64.1 479.4,67.8 480.4,70.3 481.4,70.8 482.4,69.2 483.4,67.1 484.4,66.8 485.4,66.4 486.4,65.9 487.4,64.5 488.4,64.5 489.4,64.9 490.4,67.4 491.4,66.5 492.4,65.8 493.4,67.7 494.4,66.0 495.4,67.6 496.4,66.2 497.4,66.3 498.4,64.6 499.4,65.6 500.4,62.7 501.4,61.2 502.4,60.8 503.4,59.0 504.4,58.4 505.4,57.6 506.4,55.4 507.4,56.1 508.4,56.1 509.4,54.8 510.4,56.0 511.4,57.8 512.4,60.1 513.4,60.0 514.4,56.0 515.4,62.4 516.4,61.2 517.4,62.6 518.4,62.8 519.4,66.0 520.4,66.6 521.4,67.4 522.4,69.0 523.4,69.1 524.4,69.1 525.4,67.3 526.4,62.1 527.4,61.3 528.4,64.3 529.4,64.3 530.4,64.9 531.4,61.1 532.4,60.4 533.4,58.1 534.4,56.7 535.4,55.9 536.4,53.3 537.4,50.5 538.4,54.1 539.4,54.3 540.4,52.7 541.4,51.6 542.4,49.7 543.4,50.5 544.4,50.3 545.4,49.1 546.4,49.9 547.4,48.3 548.4,47.4 549.4,45.7 550.4,43.9 551.4,47.0 552.4,46.7 553.4,45.6 554.4,47.7 555.4,52.1 556.4,49.5 557.4,49.2 558.4,46.7 559.4,47.0 560.4,49.3 561.4,50.1 562.4,51.4 563.4,51.2 564.4,50.5 565.4,49.6 566.4,50.9 567.4,50.8 568.4,48.6 569.4,48.5 570.4,45.1 571.4,46.5 572.4,49.6 573.4,48.8 574.4,45.3 575.4,43.5 576.4,42.2 577.4,42.3 578.4,43.8 579.4,42.9 580.4,39.2 581.4,37.4 582.4,37.0 583.4,44.1 584.4,44.2 585.4,41.1 586.4,39.2 587.4,34.8 588.4,34.4 589.4,32.0 590.3,31.5 591.3,30.4 592.3,31.4 593.3,28.8 594.3,29.2 595.3,28.4 596.3,28.1 597.3,27.1 598.3,27.2 599.3,28.1 600.3,26.7 601.3,25.5 602.3,22.9 603.3,22.0 604.3,25.0 605.3,23.6 606.3,24.1 607.3,22.4 608.3,20.1 609.3,24.3 610.3,23.7 611.3,25.6 612.3,25.5 613.3,25.2 614.3,20.5 615.3,21.7 616.3,22.8 617.3,26.2 618.3,25.3 619.3,24.8 620.3,25.3 621.3,26.3 622.3,29.9 623.3,32.4 624.3,30.7 625.3,29.8 626.3,28.4 627.3,29.5 628.3,31.1 629.3,42.5 630.3,41.2 631.3,43.0 632.3,44.6 633.3,43.9 634.3,44.3 635.3,44.2 636.3,44.7 637.3,43.4 638.3,45.0 639.3,41.3 640.3,38.6 641.3,38.4 642.3,39.1 643.3,39.8 644.3,39.6 645.3,37.5 646.3,36.2 647.3,34.6 648.3,34.3 649.3,34.1 650.3,32.3 651.3,31.7 652.3,33.5 653.3,33.6 654.3,36.1 655.3,37.6 656.3,38.7 657.3,38.2 658.3,40.9 659.3,40.7 660.3,39.7 661.3,37.5 662.3,38.3 663.3,38.2 664.3,39.6 665.3,42.2 666.3,43.7 667.3,39.7 668.3,38.7 669.3,40.2 670.3,39.1 671.3,39.8 672.3,42.9 673.3,45.6 674.3,45.1 675.3,43.7 676.3,43.2 677.3,45.5 678.3,42.5 679.3,40.4 680.3,40.8 681.3,39.6 682.3,38.7 683.3,37.1 684.3,35.9 685.3,35.2 686.3,31.2 687.3,33.0 688.3,29.3 689.3,30.3 690.3,30.0 691.3,29.8 692.3,27.4 693.3,24.0 694.3,23.9 695.3,22.7 696.3,23.9 697.3,24.6 698.3,21.6 699.3,25.9 699.3,38.6 698.3,37.9 697.3,36.8 696.3,36.6 695.3,38.3 694.3,38.2 693.3,37.6 692.3,42.5 691.3,41.0 690.3,44.9 689.3,43.3 688.3,41.5 687.3,41.2 686.3,46.7 685.3,58.4 684.3,60.8 683.3,62.8 682.3,61.5 681.3,59.4 680.3,59.1 679.3,57.9 678.3,58.8 677.3,61.7 676.3,58.6 675.3,58.2 674.3,58.4 673.3,59.4 672.3,57.2 671.3,57.3 670.3,64.6 669.3,63.3 668.3,62.7 667.3,59.4 666.3,57.1 665.3,56.6 664.3,56.3 663.3,55.1 662.3,52.3 661.3,51.4 660.3,52.8 659.3,50.4 658.3,50.2 657.3,52.7 656.3,52.5 655.3,52.8 654.3,50.6 653.3,49.8 652.3,47.4 651.3,43.8 650.3,43.5 649.3,53.2 648.3,57.4 647.3,57.9 646.3,60.9 645.3,59.6 644.3,58.0 643.3,58.1 642.3,57.1 641.3,57.9 640.3,57.4 639.3,61.9 638.3,58.7 637.3,57.8 636.3,56.8 635.3,56.9 634.3,55.7 633.3,57.4 632.3,55.7 631.3,55.6 630.3,53.8 629.3,54.4 628.3,56.5 627.3,52.6 626.3,50.6 625.3,48.9 624.3,46.5 623.3,47.1 622.3,45.1 621.3,42.3 620.3,39.2 619.3,40.2 618.3,37.9 617.3,36.8 616.3,35.8 615.3,38.2 614.3,39.2 613.3,37.7 612.3,36.7 611.3,38.8 610.3,36.8 609.3,36.5 608.3,35.6 607.3,33.7 606.3,35.8 605.3,35.5 604.3,35.8 603.3,38.5 602.3,41.6 601.3,41.0 600.3,40.3 599.3,40.4 598.3,41.1 597.3,44.0 596.3,43.4 595.3,44.8 594.3,45.5 593.3,45.1 592.3,45.6 591.3,50.6 590.3,58.4 589.4,57.7 588.4,55.5 587.4,56.6 586.4,54.7 585.4,55.9 584.4,57.2 583.4,56.9 582.4,56.3 581.4,54.9 580.4,53.1 579.4,57.8 578.4,66.9 577.4,67.1 576.4,67.3 575.4,66.1 574.4,65.8 573.4,67.6 572.4,69.7 571.4,67.3 570.4,65.7 569.4,65.4 568.4,66.9 567.4,65.9 566.4,67.1 565.4,65.8 564.4,64.4 563.4,62.0 562.4,60.4 561.4,61.4 560.4,65.4 559.4,64.6 558.4,63.3 557.4,62.9 556.4,59.4 555.4,60.5 554.4,59.7 553.4,58.5 552.4,57.5 551.4,60.8 550.4,59.8 549.4,58.9 548.4,58.1 547.4,57.0 546.4,61.4 545.4,60.5 544.4,58.0 543.4,61.6 542.4,62.9 541.4,64.5 540.4,65.4 539.4,65.6 538.4,64.5 537.4,65.6 536.4,68.0 535.4,70.4 534.4,70.7 533.4,70.4 532.4,74.6 531.4,75.3 530.4,74.7 529.4,72.6 528.4,78.0 527.4,80.3 526.4,81.8 525.4,83.4 524.4,82.2 523.4,80.6 522.4,79.2 521.4,78.5 520.4,77.2 519.4,76.0 518.4,74.7 517.4,73.5 516.4,75.8 515.4,74.1 514.4,75.5 513.4,72.1 512.4,76.2 511.4,76.0 510.4,76.7 509.4,76.2 508.4,75.4 507.4,73.7 506.4,75.6 505.4,78.4 504.4,80.7 503.4,82.6 502.4,81.9 501.4,79.2 500.4,78.8 499.4,78.2 498.4,79.3 497.4,78.8 496.4,77.8 495.4,77.4 494.4,76.9 493.4,75.9 492.4,75.6 491.4,74.7 490.4,74.2 489.4,77.0 488.4,75.7 487.4,75.1 486.4,76.1 485.4,77.6 484.4,74.5 483.4,76.8 482.4,79.1 481.4,81.7 480.4,82.0 479.4,80.6 478.4,80.2 477.4,79.3 476.4,78.9 475.4,78.7 474.4,81.9 473.4,83.0 472.4,83.7 471.4,84.3 470.4,83.7 469.4,80.8 468.4,81.6 467.4,80.8 466.4,86.6 465.4,86.7 464.4,85.9 463.4,85.8 462.4,85.0 461.4,91.9 460.4,89.6 459.4,88.7 458.4,88.6 457.4,88.8 456.4,85.2 455.4,83.5 454.4,82.5 453.4,79.1 452.4,80.2 451.4,82.2 450.4,85.2 449.4,88.0 448.4,89.9 447.4,88.9 446.4,87.3 445.4,96.9 444.4,95.3 443.4,91.6 442.4,90.7 441.4,88.1 440.4,85.9 439.4,86.7 438.4,94.7 437.4,95.7 436.4,94.0 435.4,92.9 434.4,94.2 433.4,93.2 432.4,101.0 431.4,106.2 430.4,105.5 429.4,105.0 428.4,104.3 427.4,103.6 426.4,102.1 425.4,98.6 424.4,97.3 423.4,99.5 422.4,102.2 421.4,104.5 420.4,101.3 419.4,100.1 418.4,100.1 417.4,99.0 416.4,100.5 415.4,99.1 414.4,99.0 413.4,98.7 412.4,97.6 411.4,99.2 410.4,99.2 409.4,98.5 408.4,97.9 407.4,95.7 406.4,98.6 405.4,105.6 404.4,104.9 403.4,105.9 402.4,107.4 401.4,107.6 400.4,108.0 399.4,108.4 398.4,109.7 397.4,109.6 396.4,110.2 395.4,112.5 394.4,116.7 393.4,114.9 392.4,115.0 391.4,118.7 390.4,118.6 389.4,120.1 388.4,119.2 387.4,119.6 386.4,123.0 385.4,121.4 384.4,117.2 383.4,116.0 382.4,116.4 381.4,114.4 380.4,118.5 379.4,122.4 378.4,120.3 377.4,120.4 376.4,125.7 375.4,127.8 374.4,125.2 373.4,122.9 372.4,124.1 371.4,128.2 370.4,124.3 369.4,125.3 368.4,132.5 367.4,133.5 366.4,135.4 365.4,135.3 364.4,140.3 363.4,135.4 362.4,132.0 361.4,135.5 360.4,138.4 359.4,136.5 358.4,135.3 357.4,136.7 356.4,135.1 355.4,132.0 354.4,130.2 353.4,128.9 352.4,129.9 351.4,128.2 350.4,127.3 349.4,135.3 348.4,138.4 347.4,137.3 346.4,135.4 345.4,134.9 344.4,136.0 343.4,135.3 342.4,131.8 341.4,131.5 340.4,130.0 339.4,129.2 338.4,129.2 337.4,129.1 336.4,127.7 335.4,126.1 334.4,128.5 333.4,128.8 332.4,128.6 331.4,129.3 330.4,128.3 329.4,125.7 328.4,127.3 327.4,133.1 326.4,136.6 325.4,141.0 324.4,143.3 323.4,141.4 322.4,138.8 321.4,139.4 320.4,139.8 319.4,140.5 318.4,140.5 317.4,142.2 316.4,144.3 315.4,146.2 314.4,152.1 313.4,164.3 312.4,163.6 311.4,163.0 310.4,161.0 309.4,159.8 308.4,159.6 307.4,159.0 306.4,160.6 305.4,161.1 304.4,159.5 303.4,159.2 302.4,157.6 301.4,157.2 300.4,157.1 299.4,157.9 298.4,158.5 297.4,158.6 296.4,157.1 295.4,154.7 294.4,154.2 293.4,153.1 292.4,161.9 291.4,166.0 290.4,163.1 289.4,161.6 288.4,160.2 287.4,159.0 286.4,158.4 285.4,157.2 284.4,158.4 283.4,156.8 282.4,166.6 281.4,163.6 280.4,169.9 279.4,170.7 278.4,171.6 277.4,188.5 276.4,190.9 275.4,192.5 274.4,196.2 273.4,193.0 272.4,188.2 271.4,185.3 270.4,184.0 269.4,183.0 268.4,186.0 267.4,188.2 266.4,184.0 265.4,182.3 264.4,183.1 263.4,180.1 262.4,181.9 261.4,182.6 260.4,183.1 259.4,188.1 258.4,189.8 257.4,190.1 256.4,190.1 255.4,190.6 254.4,191.8 253.4,194.2 252.4,194.0 251.4,196.7 250.4,194.5 249.4,193.6 248.4,191.0 247.4,189.0 246.4,187.6 245.4,186.7 244.4,187.1 243.4,186.2 242.4,185.6 241.4,185.2 240.4,186.4 239.4,192.0 238.4,191.8 237.4,190.9 236.4,188.8 235.4,192.1 234.4,196.4 233.4,197.8 232.4,201.3 231.4,201.0 230.4,199.9 229.4,200.7 228.4,201.6 227.4,200.2 226.4,202.7 225.4,202.7 224.4,205.6 223.4,203.2 222.4,201.6 221.4,202.3 220.4,201.9 219.4,200.4 218.4,200.7 217.4,199.8 216.4,200.9 215.4,201.9 214.4,198.7 213.4,202.0 212.4,202.8 211.4,200.6 210.4,200.2 209.4,201.8 208.4,204.5 207.4,211.5 206.4,215.9 205.4,216.2 204.4,216.6 203.4,216.9 202.4,215.6 201.4,216.1 200.4,213.9 199.4,212.7 198.4,211.8 197.4,213.4 196.4,219.1 195.4,215.7 194.4,216.8 193.4,218.6 192.4,216.7 191.4,217.1 190.4,217.4 189.5,218.2 188.5,218.1 187.5,224.2 186.5,222.8 185.5,223.1 184.5,223.5 183.5,225.3 182.5,226.1 181.5,224.4 180.5,225.6 179.5,229.4 178.5,230.2 177.5,229.4 176.5,228.1 175.5,225.9 174.5,225.7 173.5,224.5 172.5,223.5 171.5,228.9 170.5,226.3 169.5,224.0 168.5,224.8 167.5,226.6 166.5,226.2 165.5,226.4 164.5,229.0 163.5,226.4 162.5,230.2 161.5,236.3 160.5,236.9 159.5,236.1 158.5,236.4 157.5,237.5 156.5,234.1 155.5,233.6 154.5,234.3 153.5,236.5 152.5,236.5 151.5,238.7 150.5,243.3 149.5,238.8 148.5,236.7 147.5,238.8 146.5,241.8 145.5,243.1 144.5,244.9 143.5,249.9 142.5,249.8 141.5,248.5 140.5,246.3 139.5,249.7 138.5,250.6 137.5,250.4 136.5,249.7 135.5,252.6 134.5,252.2 133.5,254.3 132.5,250.8 131.5,249.8 130.5,249.7 129.5,252.5 128.5,254.5 127.5,255.5 126.5,253.2 125.5,254.6 124.5,252.0 123.5,253.0 122.5,253.0 121.5,252.8 120.5,255.8 119.5,257.6 118.5,263.0 117.5,268.2 116.5,267.2 115.5,268.7 114.5,266.5 113.5,264.4 112.5,263.7 111.5,264.6 110.5,267.0 109.5,265.5 108.5,267.3 107.5,270.3 106.5,272.4 105.5,272.2 104.5,272.8 103.5,273.9 102.5,274.9 101.5,274.4 100.5,273.1 99.5,270.9 98.5,272.5 97.5,274.2 96.5,275.5 95.5,276.2 94.5,276.2 93.5,274.8 92.5,275.5 91.5,275.6 90.5,271.6 89.5,272.2 88.5,272.3 87.5,272.0 86.5,273.5 85.5,274.8 84.5,280.4 83.5,279.4 82.5,279.1 81.5,280.6 80.5,281.0 79.5,279.6 78.5,277.1 77.5,277.2 76.5,278.6 75.5,277.2 74.5,279.3 73.5,280.9 72.5,284.7 71.5,282.1 70.5,282.7 69.5,281.7 68.5,284.4 67.5,283.6 66.5,285.6 65.5,285.7 64.5,285.9 63.5,291.3 62.5,296.5 61.5,296.9 60.5,297.2 59.5,296.7 58.5,296.6 57.5,297.3 56.5,297.7 55.5,298.8 Z"></path>
</svg>