<svg width="720" height="360" xmlns="http://www.w3.org/2000/svg">

<style>
  .background {
    fill: none;
  }
  .axis {
    stroke: #111;
    stroke-width: 1;
  }
  .axis-label {
    text-anchor: middle;
  }
  .axis-units {
    font-size: 10px;
    font-family: Arial;
  }
  .y-axis-text {
    text-anchor: end;
  }
  .x-axis-text {
    text-anchor: middle;
  }
  .gridlines {
    stroke: black;
    stroke-width: 0.3;
    fill: none;
    opacity: 0.5;
  }
  .series-red {
    color: #ae5d40;
  }
  .series-green {
    color: #4f7754;
  }
  .series-blue {
    color: #433a60;
  }
  .data-series {
    fill: none;
    opacity: 0.9;
    stroke: currentColor;
    stroke-width: 2;
  }
  </style>

    <text class="axis-label" x="377.5" y="345">Time (1000 ticks)</text>
    <text class="axis-label" x="0" y="162.5" transform="translate(20.0) rotate(-90, 0, 162.5)">Population size</text>
    <line class="axis" x1="55" y1="310" x2="701" y2="310"></line>
    <line class="axis" x1="55" y1="310" x2="55" y2="15"></line>
    <g class="axis-units">
        <g class="x-axis-text">
            <text x="55.0" y="322">0</text>
            <text x="119.5" y="322">10</text>
            <text x="184.0" y="322">20</text>
            <text x="248.5" y="322">30</text>
            <text x="313.0" y="322">40</text>
            <text x="377.5" y="322">50</text>
            <text x="442.0" y="322">60</text>
            <text x="506.5" y="322">70</text>
            <text x="571.0" y="322">80</text>
            <text x="635.5" y="322">90</text>
            <text x="700.0" y="322">100</text>
        </g>
        <g class="y-axis-text">
            <text x="52" y="313.0">0</text>
            <text x="52" y="270.85714285714283">100</text>
            <text x="52" y="228.71428571428572">200</text>
            <text x="52" y="186.57142857142856">300</text>
            <text x="52" y="144.42857142857142">400</text>
            <text x="52" y="102.28571428571428">500</text>
            <text x="52" y="60.14285714285714">600</text>
            <text x="52" y="18.0">700</text>
        </g>
    </g>
    <g class="gridlines">
        <line x1="119.5" y1="310" x2="119.5" y2="15"></line>
        <line x1="184.5" y1="310" x2="184.5" y2="15"></line>
        <line x1="248.5" y1="310" x2="248.5" y2="15"></line>
        <line x1="313.5" y1="310" x2="313.5" y2="15"></line>
        <line x1="377.5" y1="310" x2="377.5" y2="15"></line>
        <line x1="442.5" y1="310" x2="442.5" y2="15"></line>
        <line x1="506.5" y1="310" x2="506.5" y2="15"></line>
        <line x1="571.5" y1="310" x2="571.5" y2="15"></line>
        <line x1="635.5" y1="310" x2="635.5" y2="15"></line>
        <line x1="700.5" y1="310" x2="700.5" y2="15"></line>
        <line x1="55" y1="267.5" x2="700" y2="267.5"></line>
        <line x1="55" y1="225.5" x2="700" y2="225.5"></line>
        <line x1="55" y1="183.5" x2="700" y2="183.5"></line>
        <line x1="55" y1="141.5" x2="700" y2="141.5"></line>
        <line x1="55" y1="99.5" x2="700" y2="99.5"></line>
        <line x1="55" y1="57.5" x2="700" y2="57.5"></line>
        <line x1="55" y1="15.5" x2="700" y2="15.5"></line>
    </g>
    <path class="data-series series-green" d="M55.6,224.0 56.3,221.9 56.9,219.4 57.6,215.2 58.2,211.4 58.9,210.5 59.5,208.0 60.2,205.5 60.8,201.3 61.5,195.8 62.1,192.8 62.7,189.5 63.4,186.5 64.0,182.7 64.7,176.0 65.3,171.3 66.0,167.6 66.6,162.1 67.3,158.3 67.9,152.8 68.5,147.3 69.2,145.6 69.8,137.6 70.5,134.7 71.1,130.1 71.8,125.4 72.4,122.9 73.1,118.2 73.7,111.1 74.3,107.3 75.0,105.2 75.6,101.4 76.3,98.9 76.9,95.1 77.6,86.2 78.2,80.3 78.9,73.6 79.5,70.2 80.2,66.4 80.8,63.0 81.4,58.8 82.1,56.7 82.7,54.6 83.4,52.1 84.0,47.9 84.7,44.9 85.3,44.1 86.0,41.6 86.6,39.4 87.2,36.1 87.9,37.3 88.5,34.8 89.2,34.0 89.8,29.3 90.5,28.5 91.1,23.4 91.8,20.5 92.4,20.9 93.1,23.9 93.7,27.2 94.3,30.6 95.0,34.4 95.6,41.6 96.3,54.2 96.9,69.4 97.6,79.5 98.2,101.8 98.9,114.0 99.5,130.9 100.2,149.9 100.8,172.6 101.4,190.3 102.1,198.3 102.7,213.5 103.4,220.7 104.0,227.0 104.7,229.9 105.3,235.0 106.0,241.3 106.6,243.4 107.2,243.4 107.9,242.2 108.5,246.4 109.2,243.4 109.8,240.0 110.5,240.9 111.1,234.6 111.8,237.5 112.4,235.4 113.0,232.0 113.7,233.3 114.3,228.2 115.0,226.6 115.6,225.7 116.3,225.7 116.9,223.2 117.6,219.8 118.2,214.8 118.9,211.4 119.5,208.0 120.1,201.3 120.8,200.0 121.4,198.3 122.1,196.2 122.7,194.5 123.4,192.8 124.0,187.8 124.7,183.6 125.3,181.0 126.0,177.7 126.6,174.3 127.2,173.0 127.9,170.1 128.5,166.7 129.2,165.4 129.8,162.5 130.5,157.4 131.1,156.2 131.8,152.0 132.4,149.0 133.0,144.0 133.7,143.5 134.3,141.8 135.0,141.0 135.6,139.7 136.3,135.9 136.9,133.0 137.6,128.4 138.2,127.5 138.8,124.2 139.5,122.5 140.1,119.5 140.8,119.1 141.4,118.7 142.1,116.1 142.7,114.0 143.4,111.5 144.0,111.5 144.7,109.8 145.3,113.6 145.9,114.9 146.6,118.7 147.2,117.8 147.9,116.6 148.5,120.4 149.2,119.9 149.8,121.2 150.5,125.0 151.1,129.6 151.8,133.0 152.4,138.5 153.0,144.0 153.7,152.8 154.3,154.1 155.0,157.9 155.6,163.8 156.3,169.2 156.9,175.6 157.6,184.8 158.2,191.2 158.8,197.1 159.5,205.9 160.1,213.1 160.8,217.7 161.4,220.7 162.1,225.3 162.7,226.6 163.4,227.8 164.0,228.2 164.7,227.8 165.3,229.1 165.9,231.2 166.6,229.1 167.2,227.8 167.9,228.7 168.5,222.3 169.2,220.2 169.8,218.6 170.5,219.4 171.1,216.4 171.7,218.1 172.4,213.1 173.0,209.3 173.7,208.0 174.3,209.3 175.0,205.1 175.6,202.1 176.3,197.5 176.9,195.4 177.6,192.8 178.2,192.0 178.8,191.2 179.5,186.5 180.1,182.3 180.8,178.9 181.4,178.5 182.1,176.0 182.7,172.6 183.4,170.5 184.0,170.9 184.6,167.1 185.3,169.2 185.9,170.9 186.6,171.3 187.2,172.2 187.9,171.8 188.5,176.8 189.2,176.4 189.8,179.8 190.4,184.0 191.1,182.3 191.7,187.4 192.4,188.6 193.0,189.1 193.7,191.6 194.3,190.3 195.0,189.9 195.6,191.2 196.3,188.2 196.9,188.6 197.5,192.0 198.2,192.0 198.8,189.5 199.5,186.9 200.1,190.3 200.8,192.4 201.4,190.3 202.1,188.2 202.7,188.6 203.3,189.1 204.0,192.8 204.6,191.6 205.3,194.1 205.9,193.3 206.6,194.5 207.2,194.5 207.9,194.9 208.5,196.2 209.2,194.5 209.8,194.1 210.4,191.6 211.1,195.4 211.7,192.0 212.4,191.6 213.0,188.2 213.7,188.2 214.3,186.5 215.0,184.4 215.6,183.2 216.2,182.7 216.9,176.0 217.5,179.4 218.2,178.1 218.8,177.2 219.5,175.1 220.1,170.5 220.8,168.4 221.4,167.1 222.1,168.4 222.7,170.5 223.3,167.6 224.0,166.3 224.6,165.0 225.3,164.2 225.9,164.2 226.6,163.8 227.2,163.8 227.9,162.9 228.5,162.1 229.2,160.8 229.8,160.8 230.4,162.9 231.1,164.2 231.7,166.3 232.4,165.4 233.0,166.3 233.7,168.8 234.3,169.2 235.0,171.8 235.6,172.2 236.2,172.6 236.9,176.8 237.5,182.7 238.2,183.6 238.8,186.1 239.5,186.9 240.1,188.2 240.8,190.7 241.4,195.4 242.1,202.5 242.7,205.5 243.3,206.8 244.0,210.1 244.6,212.2 245.3,212.2 245.9,212.2 246.6,216.0 247.2,219.4 247.9,219.8 248.5,219.0 249.1,221.5 249.8,222.3 250.4,219.0 251.1,219.0 251.7,218.6 252.4,216.4 253.0,213.1 253.7,211.0 254.3,204.2 254.9,200.4 255.6,197.9 256.2,197.1 256.9,194.5 257.5,189.9 258.2,185.3 258.8,183.2 259.5,179.8 260.1,178.1 260.8,174.7 261.4,173.0 262.0,169.2 262.7,170.1 263.3,165.4 264.0,161.2 264.6,158.3 265.3,155.3 265.9,153.2 266.6,149.0 267.2,146.5 267.9,142.7 268.5,139.7 269.1,136.4 269.8,135.9 270.4,133.4 271.1,133.4 271.7,127.5 272.4,124.6 273.0,120.8 273.7,121.2 274.3,117.0 274.9,111.1 275.6,110.2 276.2,111.1 276.9,111.9 277.5,109.4 278.2,111.1 278.8,114.0 279.5,118.2 280.1,122.9 280.8,126.3 281.4,129.2 282.0,132.6 282.7,137.2 283.3,145.6 284.0,148.6 284.6,155.3 285.3,164.6 285.9,170.9 286.6,176.8 287.2,185.7 287.8,197.9 288.5,200.4 289.1,208.4 289.8,216.0 290.4,219.0 291.1,218.6 291.7,223.2 292.4,229.5 293.0,232.9 293.6,234.6 294.3,230.8 294.9,229.9 295.6,230.8 296.2,231.6 296.9,231.6 297.5,229.9 298.2,227.4 298.8,227.4 299.5,224.9 300.1,224.0 300.7,221.5 301.4,218.1 302.0,215.2 302.7,211.4 303.3,210.1 304.0,208.4 304.6,205.5 305.3,205.1 305.9,203.4 306.6,197.9 307.2,194.5 307.8,190.7 308.5,185.7 309.1,183.2 309.8,181.5 310.4,178.9 311.1,176.0 311.7,174.3 312.4,172.6 313.0,168.0 313.6,162.9 314.3,159.1 314.9,160.0 315.6,158.3 316.2,156.2 316.9,152.0 317.5,147.8 318.2,143.5 318.8,142.3 319.4,135.5 320.1,133.4 320.7,131.3 321.4,129.6 322.0,128.4 322.7,126.7 323.3,122.5 324.0,119.1 324.6,116.6 325.3,113.6 325.9,112.8 326.5,117.8 327.2,120.8 327.8,122.0 328.5,125.0 329.1,126.7 329.8,132.2 330.4,132.6 331.1,135.1 331.7,140.2 332.4,146.9 333.0,157.0 333.6,158.3 334.3,160.4 334.9,166.3 335.6,173.0 336.2,175.6 336.9,180.6 337.5,186.5 338.2,187.4 338.8,192.0 339.4,202.5 340.1,201.3 340.7,203.4 341.4,203.0 342.0,205.1 342.7,206.3 343.3,206.8 344.0,210.1 344.6,211.0 345.2,212.7 345.9,211.8 346.5,214.3 347.2,213.9 347.8,211.0 348.5,207.6 349.1,206.3 349.8,205.9 350.4,204.2 351.1,203.8 351.7,203.0 352.3,203.8 353.0,202.5 353.6,202.1 354.3,202.1 354.9,199.2 355.6,197.9 356.2,197.1 356.9,198.3 357.5,197.5 358.1,199.2 358.8,196.6 359.4,195.4 360.1,196.2 360.7,196.2 361.4,193.3 362.0,192.8 362.7,191.2 363.3,189.1 364.0,190.3 364.6,188.6 365.2,185.7 365.9,185.7 366.5,186.1 367.2,183.2 367.8,181.0 368.5,178.5 369.1,177.7 369.8,175.1 370.4,174.3 371.1,173.9 371.7,174.3 372.3,173.9 373.0,172.6 373.6,172.2 374.3,170.9 374.9,168.0 375.6,166.3 376.2,163.8 376.9,163.8 377.5,161.7 378.1,160.4 378.8,160.4 379.4,162.9 380.1,158.7 380.7,157.9 381.4,157.9 382.0,160.4 382.7,160.8 383.3,158.3 383.9,154.1 384.6,149.9 385.2,149.0 385.9,149.4 386.5,153.2 387.2,154.9 387.8,155.8 388.5,158.3 389.1,161.2 389.8,166.7 390.4,170.5 391.0,174.7 391.7,178.1 392.3,176.8 393.0,177.7 393.6,177.7 394.3,178.5 394.9,178.9 395.6,178.1 396.2,180.6 396.9,183.2 397.5,186.5 398.1,186.5 398.8,189.5 399.4,185.7 400.1,186.1 400.7,189.1 401.4,189.5 402.0,189.5 402.7,188.2 403.3,189.1 403.9,187.8 404.6,186.5 405.2,184.8 405.9,184.8 406.5,186.5 407.2,190.7 407.8,188.6 408.5,189.5 409.1,190.7 409.8,188.6 410.4,192.8 411.0,191.6 411.7,193.3 412.3,193.7 413.0,192.0 413.6,191.6 414.3,189.1 414.9,187.8 415.6,186.1 416.2,186.5 416.8,180.2 417.5,178.9 418.1,176.0 418.8,176.0 419.4,175.6 420.1,172.6 420.7,171.3 421.4,168.0 422.0,167.1 422.6,168.4 423.3,165.4 423.9,163.3 424.6,162.5 425.2,160.8 425.9,162.1 426.5,161.7 427.2,159.6 427.8,157.4 428.5,156.2 429.1,158.3 429.7,158.7 430.4,156.2 431.0,154.1 431.7,152.4 432.3,148.2 433.0,147.3 433.6,146.1 434.3,144.4 434.9,145.6 435.6,144.4 436.2,146.5 436.8,148.2 437.5,148.6 438.1,144.0 438.8,144.4 439.4,144.4 440.1,148.6 440.7,149.4 441.4,150.7 442.0,154.9 442.6,155.3 443.3,157.4 443.9,160.0 444.6,162.1 445.2,160.8 445.9,169.2 446.5,173.9 447.2,176.0 447.8,178.1 448.4,182.3 449.1,189.1 449.7,192.8 450.4,198.3 451.0,197.9 451.7,201.3 452.3,203.8 453.0,202.1 453.6,201.7 454.3,200.8 454.9,200.4 455.5,200.4 456.2,205.9 456.8,207.2 457.5,210.5 458.1,215.6 458.8,213.9 459.4,216.9 460.1,216.4 460.7,216.9 461.4,215.2 462.0,212.7 462.6,208.9 463.3,208.0 463.9,205.9 464.6,200.4 465.2,202.1 465.9,199.6 466.5,197.9 467.2,196.2 467.8,190.7 468.4,189.5 469.1,186.5 469.7,185.3 470.4,183.2 471.0,182.3 471.7,179.8 472.3,178.5 473.0,178.5 473.6,174.7 474.2,173.5 474.9,168.0 475.5,166.3 476.2,165.9 476.8,164.6 477.5,162.5 478.1,160.0 478.8,158.7 479.4,156.2 480.1,154.1 480.7,149.9 481.3,149.0 482.0,147.8 482.6,146.9 483.3,146.1 483.9,147.3 484.6,146.9 485.2,148.6 485.9,147.3 486.5,149.4 487.1,149.9 487.8,151.5 488.4,154.1 489.1,152.4 489.7,154.5 490.4,155.3 491.0,160.0 491.7,158.3 492.3,154.5 493.0,155.8 493.6,160.0 494.2,158.3 494.9,163.3 495.5,161.7 496.2,170.5 496.8,167.1 497.5,167.6 498.1,173.5 498.8,174.3 499.4,180.2 500.1,181.5 500.7,187.8 501.3,188.2 502.0,190.3 502.6,192.0 503.3,189.9 503.9,191.2 504.6,195.4 505.2,192.8 505.9,195.4 506.5,195.4 507.1,194.5 507.8,192.4 508.4,189.9 509.1,189.1 509.7,187.8 510.4,189.1 511.0,188.2 511.7,186.1 512.3,186.1 513.0,185.3 513.6,189.9 514.2,190.3 514.9,190.7 515.5,192.8 516.2,194.9 516.8,198.3 517.5,199.6 518.1,194.9 518.8,194.5 519.4,193.3 520.0,197.5 520.7,199.6 521.3,198.3 522.0,197.5 522.6,194.9 523.3,192.8 523.9,191.2 524.6,192.8 525.2,190.7 525.9,187.8 526.5,187.8 527.1,185.7 527.8,186.1 528.4,184.4 529.1,179.4 529.7,178.5 530.4,176.4 531.0,175.1 531.7,173.5 532.3,173.0 532.9,172.6 533.6,173.0 534.2,170.1 534.9,169.2 535.5,168.0 536.2,166.3 536.8,164.2 537.5,164.2 538.1,162.5 538.8,162.5 539.4,158.7 540.0,159.6 540.7,159.6 541.3,161.2 542.0,162.9 542.6,163.3 543.3,165.9 543.9,166.7 544.6,165.4 545.2,165.4 545.8,169.2 546.5,170.1 547.1,174.7 547.8,174.7 548.4,177.7 549.1,177.2 549.7,182.3 550.4,185.3 551.0,190.3 551.6,195.8 552.3,193.7 552.9,197.1 553.6,199.6 554.2,198.7 554.9,203.0 555.5,203.4 556.2,203.0 556.8,204.2 557.5,207.2 558.1,207.2 558.7,202.5 559.4,200.8 560.0,197.5 560.7,194.5 561.3,188.2 562.0,185.7 562.6,184.0 563.3,184.4 563.9,184.4 564.5,184.8 565.2,186.5 565.8,183.6 566.5,184.0 567.1,176.8 567.8,174.7 568.4,172.2 569.1,173.5 569.7,172.2 570.4,171.8 571.0,174.7 571.6,174.7 572.3,175.6 572.9,173.9 573.6,170.5 574.2,167.6 574.9,163.8 575.5,161.2 576.2,160.8 576.8,156.2 577.5,153.2 578.1,153.7 578.7,153.2 579.4,150.3 580.0,149.4 580.7,145.2 581.3,141.8 582.0,142.3 582.6,141.8 583.3,143.5 583.9,144.4 584.5,144.4 585.2,149.9 585.8,150.3 586.5,153.2 587.1,155.3 587.8,157.4 588.4,163.3 589.1,168.8 589.7,173.9 590.4,177.2 591.0,181.0 591.6,180.6 592.3,181.9 592.9,185.7 593.6,191.6 594.2,193.7 594.9,197.9 595.5,200.8 596.2,205.5 596.8,211.4 597.4,212.2 598.1,213.5 598.7,213.1 599.4,212.2 600.0,212.7 600.7,213.1 601.3,210.1 602.0,209.3 602.6,209.7 603.2,211.4 603.9,212.2 604.5,211.8 605.2,208.9 605.8,207.6 606.5,205.1 607.1,203.0 607.8,198.7 608.4,199.2 609.1,199.6 609.7,199.6 610.3,196.2 611.0,192.0 611.6,188.6 612.3,182.7 612.9,179.8 613.6,176.0 614.2,173.9 614.9,170.1 615.5,167.1 616.1,164.6 616.8,161.7 617.4,157.9 618.1,154.9 618.7,150.3 619.4,145.2 620.0,142.7 620.7,141.0 621.3,139.3 622.0,134.7 622.6,133.4 623.2,130.5 623.9,130.1 624.5,130.1 625.2,127.5 625.8,124.2 626.5,122.5 627.1,122.0 627.8,120.8 628.4,115.7 629.0,112.3 629.7,111.5 630.3,110.7 631.0,111.5 631.6,112.3 632.3,112.8 632.9,114.0 633.6,109.8 634.2,111.5 634.9,115.3 635.5,114.5 636.1,116.6 636.8,122.5 637.4,127.1 638.1,128.8 638.7,136.4 639.4,140.2 640.0,143.1 640.7,149.0 641.3,154.1 642.0,157.9 642.6,160.8 643.2,169.7 643.9,172.6 644.5,178.9 645.2,178.9 645.8,184.4 646.5,189.5 647.1,191.2 647.8,197.1 648.4,198.3 649.0,202.5 649.7,203.4 650.3,204.6 651.0,207.2 651.6,209.3 652.3,207.6 652.9,208.0 653.6,205.9 654.2,205.9 654.9,205.9 655.5,206.3 656.1,205.1 656.8,204.6 657.4,203.4 658.1,204.6 658.7,206.8 659.4,205.9 660.0,205.1 660.7,204.2 661.3,203.4 661.9,201.3 662.6,202.1 663.2,200.8 663.9,196.2 664.5,194.5 665.2,194.5 665.8,197.1 666.5,194.5 667.1,195.8 667.8,197.1 668.4,194.5 669.0,194.1 669.7,193.7 670.3,190.7 671.0,190.7 671.6,190.3 672.3,192.0 672.9,189.9 673.6,186.9 674.2,183.6 674.8,181.0 675.5,179.4 676.1,179.8 676.8,178.5 677.4,176.0 678.1,172.2 678.7,170.5 679.4,165.9 680.0,164.6 680.6,164.2 681.3,162.5 681.9,162.1 682.6,162.5 683.2,161.2 683.9,159.1 684.5,157.9 685.2,154.9 685.8,154.5 686.5,155.8 687.1,155.3 687.7,156.2 688.4,153.2 689.0,157.4 689.7,154.5 690.3,152.4 691.0,150.7 691.6,152.4 692.3,156.6 692.9,154.9 693.5,158.3 694.2,163.3 694.8,163.3 695.5,167.1 696.1,170.9 696.8,176.8 697.4,178.5 698.1,181.0 698.7,184.0 699.4,187.8 700.0,187.8"></path>
    <path class="data-series series-blue" d="M55.6,305.8 56.3,305.8 56.9,305.8 57.6,305.4 58.2,305.4 58.9,307.1 59.5,307.1 60.2,307.1 60.8,306.6 61.5,306.6 62.1,307.5 62.7,307.5 63.4,307.1 64.0,306.6 64.7,306.2 65.3,307.1 66.0,307.1 66.6,307.1 67.3,308.3 67.9,308.7 68.5,308.3 69.2,307.9 69.8,307.9 70.5,307.9 71.1,307.9 71.8,307.5 72.4,307.5 73.1,307.5 73.7,307.5 74.3,306.6 75.0,306.2 75.6,306.2 76.3,307.1 76.9,307.1 77.6,307.1 78.2,307.9 78.9,307.9 79.5,307.9 80.2,307.5 80.8,308.3 81.4,307.9 82.1,307.5 82.7,306.6 83.4,305.8 84.0,305.4 84.7,304.1 85.3,302.0 86.0,302.4 86.6,302.0 87.2,302.0 87.9,300.7 88.5,300.7 89.2,300.3 89.8,299.5 90.5,299.0 91.1,299.0 91.8,295.7 92.4,294.8 93.1,292.3 93.7,287.2 94.3,284.7 95.0,280.1 95.6,273.8 96.3,264.9 96.9,258.2 97.6,253.9 98.2,241.3 98.9,234.1 99.5,225.3 100.2,218.6 100.8,213.1 101.4,204.6 102.1,208.0 102.7,208.4 103.4,211.8 104.0,216.9 104.7,226.6 105.3,233.7 106.0,238.4 106.6,247.2 107.2,256.9 107.9,264.5 108.5,267.0 109.2,273.3 109.8,278.8 110.5,282.6 111.1,286.8 111.8,288.9 112.4,288.5 113.0,290.2 113.7,291.0 114.3,294.4 115.0,295.2 115.6,296.1 116.3,298.6 116.9,299.5 117.6,299.0 118.2,299.0 118.9,299.5 119.5,300.7 120.1,300.3 120.8,303.7 121.4,305.4 122.1,304.9 122.7,305.8 123.4,306.2 124.0,306.2 124.7,306.2 125.3,305.8 126.0,304.9 126.6,305.4 127.2,304.9 127.9,303.7 128.5,303.7 129.2,303.7 129.8,304.1 130.5,303.3 131.1,302.8 131.8,301.6 132.4,300.7 133.0,300.3 133.7,300.7 134.3,300.7 135.0,299.9 135.6,299.0 136.3,299.0 136.9,297.4 137.6,296.9 138.2,297.4 138.8,299.0 139.5,296.9 140.1,295.7 140.8,296.1 141.4,296.9 142.1,295.2 142.7,293.1 143.4,293.1 144.0,290.6 144.7,288.9 145.3,287.7 145.9,287.2 146.6,282.6 147.2,280.1 147.9,278.4 148.5,275.9 149.2,275.0 149.8,272.5 150.5,273.3 151.1,274.2 151.8,273.8 152.4,270.4 153.0,270.0 153.7,267.9 154.3,266.2 155.0,263.6 155.6,262.8 156.3,262.8 156.9,259.9 157.6,256.5 158.2,253.9 158.8,254.8 159.5,256.1 160.1,253.9 160.8,254.8 161.4,257.7 162.1,259.9 162.7,264.1 163.4,266.6 164.0,270.8 164.7,274.6 165.3,275.0 165.9,280.1 166.6,283.4 167.2,284.7 167.9,286.8 168.5,290.6 169.2,291.9 169.8,293.6 170.5,292.3 171.1,294.4 171.7,294.4 172.4,294.4 173.0,295.7 173.7,296.1 174.3,296.9 175.0,297.4 175.6,298.2 176.3,298.6 176.9,299.0 177.6,299.5 178.2,298.6 178.8,298.6 179.5,298.6 180.1,298.6 180.8,298.6 181.4,299.0 182.1,298.6 182.7,298.6 183.4,298.6 184.0,298.2 184.6,296.1 185.3,293.1 185.9,292.3 186.6,289.4 187.2,288.5 187.9,287.7 188.5,283.9 189.2,284.7 189.8,282.2 190.4,280.9 191.1,280.9 191.7,278.8 192.4,279.7 193.0,280.5 193.7,281.8 194.3,281.8 195.0,281.8 195.6,281.8 196.3,280.5 196.9,280.9 197.5,279.7 198.2,279.2 198.8,280.1 199.5,280.1 200.1,280.9 200.8,282.6 201.4,284.3 202.1,283.9 202.7,285.1 203.3,285.1 204.0,285.1 204.6,284.3 205.3,283.0 205.9,284.7 206.6,284.7 207.2,284.3 207.9,285.1 208.5,284.3 209.2,286.8 209.8,287.7 210.4,288.1 211.1,288.5 211.7,288.5 212.4,291.5 213.0,291.5 213.7,292.3 214.3,291.5 215.0,292.7 215.6,292.3 216.2,292.7 216.9,293.6 217.5,294.4 218.2,294.8 218.8,293.1 219.5,293.1 220.1,293.1 220.8,293.6 221.4,293.6 222.1,294.4 222.7,294.0 223.3,294.0 224.0,294.8 224.6,294.0 225.3,294.0 225.9,293.6 226.6,294.0 227.2,293.1 227.9,293.6 228.5,293.1 229.2,291.0 229.8,291.0 230.4,288.9 231.1,286.8 231.7,285.1 232.4,286.0 233.0,286.4 233.7,286.0 234.3,285.1 235.0,283.9 235.6,282.2 236.2,281.8 236.9,278.8 237.5,278.4 238.2,278.8 238.8,277.6 239.5,278.4 240.1,278.4 240.8,279.2 241.4,277.6 242.1,277.1 242.7,274.6 243.3,273.8 244.0,273.8 244.6,272.9 245.3,274.2 245.9,274.2 246.6,275.0 247.2,276.7 247.9,278.8 248.5,279.7 249.1,281.3 249.8,283.0 250.4,287.2 251.1,289.4 251.7,289.8 252.4,292.7 253.0,294.8 253.7,296.1 254.3,297.4 254.9,297.4 255.6,300.3 256.2,301.1 256.9,301.1 257.5,301.1 258.2,302.4 258.8,302.4 259.5,302.4 260.1,300.7 260.8,299.0 261.4,299.9 262.0,300.3 262.7,300.7 263.3,301.1 264.0,301.6 264.6,303.3 265.3,302.4 265.9,302.0 266.6,301.1 267.2,303.3 267.9,302.0 268.5,301.1 269.1,302.0 269.8,302.0 270.4,302.0 271.1,302.4 271.7,304.5 272.4,303.3 273.0,302.8 273.7,300.3 274.3,298.6 274.9,298.2 275.6,297.4 276.2,295.2 276.9,294.0 277.5,293.1 278.2,290.2 278.8,286.4 279.5,283.4 280.1,279.7 280.8,278.4 281.4,276.7 282.0,273.8 282.7,271.2 283.3,267.4 284.0,266.2 284.6,265.8 285.3,264.1 285.9,261.5 286.6,259.0 287.2,255.6 287.8,251.0 288.5,248.1 289.1,247.2 289.8,248.1 290.4,249.3 291.1,256.1 291.7,260.7 292.4,263.2 293.0,267.0 293.6,269.5 294.3,273.8 294.9,277.1 295.6,278.4 296.2,282.6 296.9,283.9 297.5,285.6 298.2,287.7 298.8,287.7 299.5,290.6 300.1,292.3 300.7,296.5 301.4,296.9 302.0,296.5 302.7,296.9 303.3,297.4 304.0,298.2 304.6,299.0 305.3,299.0 305.9,301.1 306.6,303.3 307.2,303.3 307.8,303.7 308.5,302.4 309.1,302.4 309.8,302.0 310.4,300.7 311.1,302.0 311.7,301.6 312.4,301.6 313.0,300.3 313.6,301.6 314.3,301.6 314.9,297.8 315.6,297.4 316.2,299.0 316.9,298.6 317.5,296.9 318.2,297.4 318.8,298.6 319.4,299.5 320.1,299.9 320.7,298.6 321.4,297.4 322.0,298.6 322.7,297.8 323.3,297.4 324.0,299.5 324.6,299.0 325.3,299.5 325.9,298.2 326.5,295.7 327.2,292.7 327.8,289.8 328.5,287.2 329.1,283.9 329.8,279.7 330.4,277.6 331.1,274.6 331.7,273.8 332.4,272.9 333.0,270.4 333.6,268.3 334.3,266.6 334.9,264.5 335.6,262.4 336.2,262.0 336.9,264.5 337.5,262.0 338.2,263.2 338.8,262.8 339.4,265.3 340.1,266.6 340.7,270.4 341.4,272.1 342.0,272.5 342.7,275.9 343.3,276.3 344.0,278.0 344.6,280.1 345.2,281.8 345.9,282.6 346.5,283.0 347.2,285.1 347.8,287.7 348.5,286.4 349.1,285.6 349.8,286.8 350.4,288.9 351.1,288.5 351.7,288.9 352.3,289.4 353.0,289.8 353.6,289.8 354.3,291.0 354.9,291.0 355.6,291.5 356.2,293.1 356.9,293.6 357.5,291.9 358.1,289.8 358.8,289.4 359.4,287.7 360.1,286.4 360.7,285.6 361.4,288.1 362.0,288.1 362.7,290.2 363.3,291.5 364.0,291.9 364.6,292.7 365.2,294.4 365.9,296.1 366.5,295.7 367.2,294.8 367.8,295.7 368.5,297.4 369.1,298.2 369.8,296.5 370.4,296.1 371.1,294.8 371.7,295.2 372.3,294.4 373.0,294.4 373.6,293.1 374.3,293.1 374.9,293.1 375.6,294.4 376.2,294.8 376.9,295.2 377.5,297.8 378.1,296.5 378.8,294.4 379.4,292.3 380.1,291.0 380.7,289.4 381.4,288.9 382.0,291.0 382.7,289.8 383.3,289.4 383.9,289.8 384.6,288.5 385.2,288.1 385.9,285.6 386.5,285.6 387.2,287.7 387.8,286.4 388.5,285.1 389.1,284.7 389.8,280.1 390.4,279.2 391.0,278.0 391.7,278.4 392.3,278.4 393.0,278.4 393.6,277.6 394.3,277.6 394.9,278.4 395.6,281.3 396.2,281.8 396.9,282.6 397.5,279.2 398.1,282.2 398.8,280.1 399.4,279.2 400.1,278.4 400.7,282.2 401.4,285.1 402.0,285.1 402.7,285.1 403.3,285.1 403.9,288.1 404.6,287.2 405.2,288.1 405.9,286.8 406.5,286.4 407.2,283.9 407.8,283.4 408.5,283.0 409.1,283.9 409.8,285.1 410.4,283.0 411.0,283.0 411.7,281.8 412.3,282.2 413.0,283.9 413.6,286.0 414.3,288.5 414.9,288.5 415.6,288.5 416.2,290.2 416.8,291.9 417.5,294.4 418.1,296.5 418.8,294.4 419.4,296.1 420.1,296.9 420.7,296.5 421.4,294.8 422.0,297.4 422.6,296.1 423.3,295.7 423.9,295.2 424.6,296.5 425.2,296.1 425.9,294.4 426.5,293.1 427.2,290.2 427.8,289.8 428.5,291.5 429.1,289.4 429.7,289.4 430.4,289.8 431.0,291.9 431.7,292.3 432.3,292.3 433.0,291.9 433.6,293.6 434.3,294.4 434.9,292.7 435.6,292.7 436.2,291.5 436.8,290.2 437.5,290.6 438.1,289.4 438.8,290.2 439.4,288.1 440.1,288.1 440.7,287.2 441.4,283.9 442.0,281.3 442.6,280.9 443.3,281.3 443.9,278.8 444.6,275.4 445.2,277.1 445.9,274.6 446.5,272.5 447.2,270.8 447.8,267.0 448.4,268.3 449.1,265.8 449.7,264.9 450.4,264.1 451.0,265.3 451.7,267.0 452.3,267.4 453.0,267.0 453.6,271.2 454.3,274.6 454.9,274.2 455.5,278.0 456.2,277.6 456.8,273.3 457.5,270.4 458.1,270.0 458.8,272.5 459.4,274.6 460.1,278.0 460.7,279.7 461.4,283.0 462.0,282.6 462.6,286.4 463.3,288.1 463.9,287.2 464.6,288.5 465.2,289.8 465.9,290.2 466.5,291.9 467.2,291.9 467.8,294.4 468.4,296.5 469.1,297.4 469.7,297.8 470.4,297.4 471.0,298.6 471.7,298.6 472.3,299.0 473.0,298.6 473.6,299.0 474.2,299.0 474.9,299.5 475.5,300.3 476.2,300.3 476.8,299.5 477.5,298.2 478.1,298.6 478.8,298.2 479.4,298.2 480.1,297.4 480.7,297.4 481.3,296.5 482.0,297.4 482.6,295.7 483.3,294.4 483.9,291.5 484.6,291.9 485.2,291.0 485.9,288.9 486.5,288.1 487.1,288.9 487.8,289.4 488.4,285.6 489.1,285.6 489.7,285.6 490.4,286.8 491.0,282.2 491.7,282.2 492.3,282.2 493.0,279.7 493.6,279.7 494.2,283.0 494.9,283.9 495.5,280.9 496.2,279.7 496.8,278.8 497.5,278.0 498.1,276.7 498.8,275.4 499.4,275.9 500.1,274.6 500.7,272.9 501.3,271.6 502.0,270.4 502.6,270.0 503.3,273.8 503.9,275.9 504.6,275.0 505.2,276.3 505.9,280.1 506.5,280.9 507.1,280.9 507.8,283.9 508.4,283.9 509.1,286.4 509.7,287.2 510.4,286.4 511.0,288.5 511.7,290.2 512.3,288.9 513.0,288.1 513.6,286.4 514.2,286.8 514.9,286.0 515.5,283.0 516.2,282.6 516.8,283.4 517.5,282.2 518.1,282.2 518.8,281.8 519.4,283.9 520.0,283.9 520.7,286.0 521.3,286.4 522.0,288.9 522.6,289.4 523.3,291.0 523.9,290.6 524.6,289.8 525.2,293.1 525.9,293.1 526.5,291.0 527.1,292.3 527.8,293.6 528.4,292.7 529.1,295.2 529.7,296.5 530.4,296.9 531.0,297.4 531.7,296.1 532.3,296.5 532.9,295.7 533.6,294.4 534.2,293.6 534.9,292.7 535.5,294.0 536.2,294.8 536.8,295.2 537.5,296.1 538.1,295.2 538.8,294.4 539.4,294.4 540.0,291.5 540.7,287.7 541.3,285.1 542.0,282.2 542.6,279.7 543.3,277.6 543.9,277.6 544.6,278.4 545.2,277.6 545.8,278.0 546.5,280.1 547.1,278.4 547.8,276.7 548.4,275.0 549.1,276.3 549.7,276.7 550.4,275.9 551.0,275.4 551.6,272.5 552.3,272.9 552.9,273.8 553.6,272.9 554.2,274.2 554.9,278.0 555.5,278.8 556.2,280.9 556.8,282.6 557.5,280.5 558.1,280.5 558.7,279.7 559.4,281.8 560.0,282.6 560.7,286.4 561.3,289.4 562.0,292.3 562.6,291.9 563.3,292.3 563.9,292.7 564.5,293.6 565.2,292.7 565.8,294.0 566.5,293.1 567.1,294.4 567.8,294.4 568.4,294.8 569.1,294.4 569.7,293.1 570.4,291.0 571.0,288.5 571.6,289.4 572.3,289.4 572.9,290.2 573.6,291.9 574.2,292.7 574.9,296.5 575.5,297.8 576.2,297.4 576.8,298.6 577.5,299.0 578.1,299.5 578.7,296.9 579.4,297.8 580.0,297.8 580.7,295.7 581.3,295.2 582.0,292.3 582.6,293.6 583.3,291.5 583.9,289.4 584.5,288.1 585.2,284.7 585.8,282.2 586.5,280.1 587.1,279.2 587.8,275.9 588.4,272.9 589.1,270.8 589.7,268.3 590.4,270.0 591.0,267.9 591.6,270.0 592.3,272.5 592.9,272.9 593.6,269.5 594.2,267.9 594.9,270.0 595.5,270.4 596.2,269.1 596.8,267.4 597.4,270.4 598.1,272.9 598.7,274.2 599.4,277.6 600.0,282.2 600.7,283.0 601.3,282.6 602.0,283.0 602.6,284.3 603.2,285.1 603.9,286.8 604.5,286.4 605.2,289.4 605.8,288.5 606.5,288.9 607.1,291.0 607.8,291.9 608.4,293.6 609.1,292.3 609.7,296.1 610.3,295.2 611.0,295.2 611.6,298.6 612.3,300.7 612.9,302.4 613.6,303.3 614.2,304.5 614.9,304.1 615.5,303.3 616.1,303.7 616.8,304.5 617.4,304.1 618.1,304.9 618.7,305.4 619.4,305.4 620.0,304.9 620.7,304.1 621.3,304.1 622.0,304.1 622.6,302.8 623.2,302.0 623.9,299.5 624.5,299.0 625.2,298.6 625.8,298.2 626.5,298.2 627.1,298.2 627.8,298.6 628.4,298.2 629.0,299.0 629.7,297.8 630.3,296.9 631.0,295.2 631.6,294.8 632.3,292.7 632.9,291.9 633.6,291.0 634.2,290.2 634.9,288.9 635.5,287.7 636.1,285.1 636.8,283.0 637.4,278.0 638.1,277.6 638.7,273.8 639.4,270.0 640.0,267.4 640.7,270.4 641.3,269.5 642.0,267.4 642.6,269.1 643.2,263.2 643.9,262.4 644.5,263.2 645.2,262.4 645.8,262.0 646.5,261.1 647.1,267.4 647.8,267.9 648.4,271.2 649.0,269.5 649.7,270.4 650.3,271.2 651.0,271.6 651.6,275.0 652.3,277.6 652.9,281.8 653.6,283.4 654.2,285.6 654.9,286.0 655.5,286.8 656.1,290.6 656.8,290.2 657.4,289.4 658.1,287.7 658.7,285.6 659.4,285.6 660.0,287.7 660.7,288.1 661.3,286.8 661.9,289.4 662.6,291.0 663.2,291.0 663.9,289.4 664.5,288.9 665.2,288.9 665.8,288.1 666.5,288.5 667.1,289.4 667.8,288.9 668.4,288.9 669.0,291.0 669.7,289.8 670.3,290.6 671.0,290.6 671.6,290.2 672.3,290.6 672.9,292.3 673.6,291.9 674.2,292.7 674.8,293.1 675.5,292.7 676.1,293.6 676.8,294.0 677.4,293.6 678.1,293.1 678.7,291.9 679.4,293.6 680.0,295.2 680.6,294.8 681.3,295.2 681.9,296.1 682.6,295.2 683.2,294.4 683.9,294.0 684.5,292.7 685.2,294.8 685.8,294.4 686.5,293.6 687.1,294.0 687.7,292.3 688.4,292.7 689.0,288.5 689.7,286.4 690.3,286.8 691.0,283.4 691.6,281.3 692.3,279.2 692.9,278.8 693.5,277.6 694.2,275.4 694.8,276.3 695.5,274.6 696.1,273.3 696.8,268.7 697.4,267.9 698.1,269.1 698.7,271.6 699.4,270.8 700.0,272.5"></path>
    <text text-anchor="end" fill="currentColor" font-weight="600" class="series-green" x="696" y="140">Food</text>
    <text text-anchor="end" fill="currentColor" font-weight="600" class="series-blue" x="696" y="248">Creatures</text>
</svg>