<svg width="750" height="360" xmlns="http://www.w3.org/2000/svg">

<style>
  .background {
    fill: none;
  }
  .axis {
    stroke: #111;
    stroke-width: 1;
  }
  .axis-label {
    text-anchor: middle;
  }
  .axis-units {
    font-size: 10px;
    font-family: Arial;
  }
  .y-axis-text {
    text-anchor: end;
  }
  .x-axis-text {
    text-anchor: middle;
  }
  .gridlines {
    stroke: black;
    stroke-width: 0.3;
    fill: none;
    opacity: 0.5;
  }
  .series-label {
    fill: currentColor;
  }
  .series-colour-1 {
    color: rgb(0, 63, 92);
  }
  .series-colour-2 {
    color: rgb(122, 81, 149);
  }
  .series-colour-3 {
    color: rgb(239, 86, 117);
  }
  .series-colour-4 {
    color: rgb(255, 166, 0);
  }
  .series-red {
    color: #ae5d40;
  }
  .series-green {
    color: #4f7754;
  }
  .series-blue {
    color: #433a60;
  }
  .data-series {
    fill: none;
    opacity: 0.9;
    stroke: currentColor;
    stroke-width: 2;
  }
  </style>

    <text class="axis-label" x="377.5" y="345">Time (1000 ticks)</text>
    <text class="axis-label" x="0" y="162.5" transform="translate(20.0) rotate(-90, 0, 162.5)">Creature size (mean)</text>
    <line class="axis" x1="55" y1="310" x2="701" y2="310"></line>
    <line class="axis" x1="55" y1="310" x2="55" y2="15"></line>
    <g class="axis-units">
        <g class="x-axis-text">
            <text x="55.0" y="322">0</text>
            <text x="87.25" y="322">100</text>
            <text x="119.5" y="322">200</text>
            <text x="151.75" y="322">300</text>
            <text x="184.0" y="322">400</text>
            <text x="216.25" y="322">500</text>
            <text x="248.5" y="322">600</text>
            <text x="280.75" y="322">700</text>
            <text x="313.0" y="322">800</text>
            <text x="345.25" y="322">900</text>
            <text x="377.5" y="322">1000</text>
            <text x="409.75" y="322">1100</text>
            <text x="442.0" y="322">1200</text>
            <text x="474.25" y="322">1300</text>
            <text x="506.49999999999994" y="322">1400</text>
            <text x="538.75" y="322">1500</text>
            <text x="571.0" y="322">1600</text>
            <text x="603.25" y="322">1700</text>
            <text x="635.5" y="322">1800</text>
            <text x="667.75" y="322">1900</text>
            <text x="700.0" y="322">2000</text>
        </g>
        <g class="y-axis-text">
            <text x="52" y="313.0">0</text>
            <text x="52" y="280.22222222222223">20</text>
            <text x="52" y="247.44444444444446">40</text>
            <text x="52" y="214.66666666666669">60</text>
            <text x="52" y="181.88888888888889">80</text>
            <text x="52" y="149.11111111111111">100</text>
            <text x="52" y="116.33333333333334">120</text>
            <text x="52" y="83.55555555555557">140</text>
            <text x="52" y="50.77777777777777">160</text>
            <text x="52" y="18.0">180</text>
        </g>
    </g>
    <g class="gridlines">
        <line x1="87.5" y1="310" x2="87.5" y2="15"></line>
        <line x1="119.5" y1="310" x2="119.5" y2="15"></line>
        <line x1="151.5" y1="310" x2="151.5" y2="15"></line>
        <line x1="184.5" y1="310" x2="184.5" y2="15"></line>
        <line x1="216.5" y1="310" x2="216.5" y2="15"></line>
        <line x1="248.5" y1="310" x2="248.5" y2="15"></line>
        <line x1="280.5" y1="310" x2="280.5" y2="15"></line>
        <line x1="313.5" y1="310" x2="313.5" y2="15"></line>
        <line x1="345.5" y1="310" x2="345.5" y2="15"></line>
        <line x1="377.5" y1="310" x2="377.5" y2="15"></line>
        <line x1="409.5" y1="310" x2="409.5" y2="15"></line>
        <line x1="442.5" y1="310" x2="442.5" y2="15"></line>
        <line x1="474.5" y1="310" x2="474.5" y2="15"></line>
        <line x1="506.5" y1="310" x2="506.5" y2="15"></line>
        <line x1="538.5" y1="310" x2="538.5" y2="15"></line>
        <line x1="571.5" y1="310" x2="571.5" y2="15"></line>
        <line x1="603.5" y1="310" x2="603.5" y2="15"></line>
        <line x1="635.5" y1="310" x2="635.5" y2="15"></line>
        <line x1="667.5" y1="310" x2="667.5" y2="15"></line>
        <line x1="700.5" y1="310" x2="700.5" y2="15"></line>
        <line x1="55" y1="277.5" x2="700" y2="277.5"></line>
        <line x1="55" y1="244.5" x2="700" y2="244.5"></line>
        <line x1="55" y1="211.5" x2="700" y2="211.5"></line>
        <line x1="55" y1="178.5" x2="700" y2="178.5"></line>
        <line x1="55" y1="146.5" x2="700" y2="146.5"></line>
        <line x1="55" y1="113.5" x2="700" y2="113.5"></line>
        <line x1="55" y1="80.5" x2="700" y2="80.5"></line>
        <line x1="55" y1="47.5" x2="700" y2="47.5"></line>
        <line x1="55" y1="15.5" x2="700" y2="15.5"></line>
    </g>
    <g class="series-label" transform="translate(705, 0)">
      <text y="45" class="series-colour-1">25%</text>
      <text y="245" class="series-colour-2">20%</text>
      <text y="275" class="series-colour-3">15%</text>
      <text y="305" class="series-colour-4">10%</text>
    </g>
    <path class="data-series series-colour-1" d="M55.5,295.7 56.5,295.9 57.5,294.2 58.5,293.1 59.5,289.7 60.5,288.1 61.5,286.2 62.5,286.5 63.5,285.9 64.5,285.7 65.5,286.7 66.5,284.8 67.5,281.2 68.5,279.6 69.5,277.9 70.5,276.3 71.5,277.8 72.5,277.6 73.5,275.1 74.5,274.2 75.5,273.2 76.5,271.9 77.5,270.5 78.5,269.2 79.5,267.8 80.5,268.5 81.5,268.1 82.5,267.0 83.5,265.4 84.5,264.0 85.5,263.4 86.5,263.4 87.5,264.5 88.5,262.7 89.5,263.0 90.5,258.9 91.5,258.1 92.5,261.6 93.5,264.3 94.5,261.1 95.5,263.3 96.5,265.3 97.5,267.8 98.5,267.9 99.5,268.0 100.5,268.6 101.5,267.6 102.5,268.4 103.5,268.2 104.5,266.8 105.5,266.5 106.5,265.9 107.5,265.9 108.5,265.8 109.5,266.0 110.5,264.5 111.5,261.7 112.5,260.8 113.5,261.3 114.5,259.5 115.5,257.7 116.5,257.8 117.5,258.8 118.5,259.1 119.5,258.6 120.5,258.0 121.5,258.2 122.5,257.1 123.5,256.3 124.5,255.1 125.5,256.4 126.5,259.5 127.5,260.5 128.5,258.8 129.5,259.5 130.5,261.6 131.5,260.5 132.5,259.2 133.5,255.9 134.5,256.4 135.5,254.3 136.5,253.9 137.5,252.8 138.5,251.8 139.5,251.3 140.5,253.0 141.5,252.1 142.5,251.0 143.5,249.7 144.5,250.3 145.5,251.6 146.5,252.8 147.5,254.1 148.5,254.5 149.5,255.4 150.5,254.9 151.5,254.7 152.5,254.6 153.5,253.3 154.5,250.6 155.5,247.5 156.5,245.7 157.5,244.8 158.5,243.4 159.5,242.6 160.5,241.2 161.5,241.1 162.5,241.6 163.5,242.0 164.5,242.4 165.5,243.4 166.5,240.9 167.5,236.7 168.5,237.9 169.5,238.2 170.5,233.3 171.5,231.7 172.5,230.5 173.5,228.5 174.5,225.8 175.5,225.4 176.5,223.2 177.5,218.2 178.5,217.2 179.5,215.5 180.5,215.0 181.5,213.6 182.5,212.6 183.5,211.5 184.5,210.7 185.5,213.2 186.5,214.2 187.5,213.1 188.5,212.3 189.5,211.2 190.4,209.3 191.4,204.7 192.4,202.1 193.4,201.1 194.4,200.1 195.4,198.0 196.4,194.2 197.4,191.7 198.4,190.9 199.4,192.1 200.4,191.7 201.4,189.2 202.4,186.6 203.4,186.5 204.4,186.5 205.4,186.8 206.4,186.8 207.4,185.8 208.4,188.2 209.4,187.0 210.4,186.9 211.4,188.2 212.4,187.5 213.4,190.5 214.4,191.2 215.4,189.4 216.4,187.2 217.4,183.0 218.4,178.1 219.4,177.1 220.4,175.4 221.4,174.9 222.4,172.6 223.4,172.4 224.4,171.5 225.4,171.6 226.4,171.4 227.4,170.7 228.4,171.0 229.4,170.9 230.4,170.5 231.4,171.9 232.4,173.1 233.4,173.8 234.4,174.1 235.4,176.1 236.4,176.2 237.4,173.5 238.4,173.4 239.4,170.6 240.4,170.2 241.4,167.8 242.4,166.5 243.4,165.3 244.4,166.3 245.4,162.4 246.4,156.1 247.4,154.6 248.4,150.8 249.4,153.0 250.4,157.1 251.4,156.2 252.4,161.2 253.4,158.0 254.4,154.5 255.4,159.8 256.4,161.2 257.4,162.9 258.4,161.7 259.4,156.7 260.4,157.1 261.4,157.3 262.4,156.6 263.4,155.6 264.4,156.8 265.4,156.7 266.4,154.9 267.4,152.7 268.4,151.9 269.4,153.3 270.4,153.9 271.4,153.9 272.4,152.4 273.4,151.7 274.4,151.7 275.4,150.8 276.4,152.2 277.4,151.6 278.4,149.8 279.4,150.3 280.4,150.2 281.4,149.9 282.4,148.6 283.4,148.1 284.4,144.5 285.4,144.1 286.4,142.0 287.4,142.8 288.4,144.4 289.4,143.8 290.4,142.6 291.4,142.1 292.4,142.7 293.4,142.4 294.4,141.2 295.4,142.1 296.4,138.2 297.4,137.0 298.4,136.3 299.4,133.6 300.4,133.6 301.4,132.7 302.4,133.5 303.4,134.6 304.4,135.2 305.4,135.3 306.4,135.0 307.4,135.1 308.4,133.0 309.4,130.1 310.4,128.5 311.4,129.0 312.4,128.6 313.4,128.5 314.4,127.4 315.4,126.4 316.4,126.6 317.4,124.8 318.4,123.3 319.4,123.9 320.4,124.6 321.4,124.3 322.4,124.8 323.4,125.6 324.4,126.0 325.4,126.3 326.4,126.5 327.4,125.0 328.4,122.8 329.4,121.7 330.4,121.1 331.4,119.8 332.4,118.3 333.4,118.6 334.4,120.1 335.4,121.2 336.4,119.9 337.4,117.8 338.4,116.6 339.4,115.6 340.4,114.4 341.4,115.8 342.4,114.6 343.4,113.6 344.4,111.8 345.4,112.3 346.4,110.8 347.4,111.1 348.4,109.8 349.4,111.8 350.4,111.8 351.4,109.4 352.4,105.6 353.4,105.5 354.4,106.1 355.4,104.2 356.4,102.4 357.4,102.3 358.4,102.5 359.4,102.2 360.4,102.0 361.4,103.0 362.4,102.3 363.4,101.9 364.4,101.1 365.4,100.9 366.4,102.0 367.4,101.3 368.4,100.2 369.4,100.0 370.4,102.4 371.4,102.7 372.4,98.4 373.4,96.0 374.4,97.6 375.4,99.1 376.4,100.0 377.4,101.9 378.4,101.4 379.4,101.7 380.4,101.1 381.4,99.6 382.4,98.8 383.4,97.7 384.4,97.7 385.4,98.0 386.4,98.6 387.4,99.0 388.4,98.3 389.4,96.8 390.4,97.5 391.4,98.3 392.4,99.7 393.4,98.0 394.4,96.4 395.4,93.5 396.4,91.2 397.4,86.6 398.4,82.8 399.4,82.7 400.4,82.0 401.4,82.6 402.4,81.9 403.4,81.2 404.4,81.4 405.4,80.3 406.4,81.6 407.4,80.3 408.4,78.0 409.4,78.2 410.4,79.9 411.4,79.9 412.4,77.9 413.4,78.3 414.4,76.6 415.4,77.5 416.4,76.2 417.4,74.9 418.4,75.8 419.4,75.8 420.4,74.9 421.4,74.1 422.4,72.8 423.4,73.5 424.4,75.7 425.4,74.2 426.4,70.8 427.4,73.4 428.4,74.0 429.4,73.7 430.4,75.7 431.4,74.9 432.4,75.5 433.4,75.8 434.4,75.5 435.4,75.7 436.4,76.4 437.4,77.3 438.4,76.5 439.4,77.7 440.4,77.3 441.4,76.2 442.4,75.2 443.4,74.2 444.4,73.5 445.4,74.7 446.4,75.3 447.4,76.5 448.4,76.9 449.4,76.6 450.4,77.8 451.4,77.6 452.4,77.1 453.4,77.6 454.4,78.5 455.4,79.1 456.4,74.4 457.4,73.4 458.4,72.5 459.4,72.5 460.4,70.9 461.4,71.9 462.4,73.5 463.4,74.5 464.4,77.3 465.4,75.8 466.4,71.6 467.4,70.0 468.4,68.8 469.4,66.9 470.4,66.2 471.4,66.0 472.4,65.5 473.4,63.5 474.4,64.4 475.4,65.6 476.4,66.1 477.4,67.2 478.4,67.6 479.4,68.5 480.4,69.6 481.4,67.8 482.4,69.6 483.4,72.0 484.4,72.3 485.4,70.6 486.4,71.2 487.4,72.4 488.4,73.5 489.4,74.8 490.4,73.8 491.4,73.8 492.4,73.7 493.4,73.2 494.4,73.5 495.4,74.4 496.4,74.8 497.4,74.1 498.4,74.8 499.4,74.3 500.4,73.8 501.4,75.5 502.4,76.4 503.4,76.9 504.4,77.6 505.4,77.0 506.4,76.0 507.4,75.8 508.4,77.0 509.4,77.7 510.4,75.9 511.4,76.6 512.4,78.5 513.4,79.5 514.4,77.2 515.4,74.7 516.4,74.2 517.4,73.8 518.4,77.7 519.4,78.6 520.4,79.7 521.4,81.2 522.4,81.4 523.4,81.5 524.4,81.7 525.4,81.6 526.4,80.2 527.4,79.9 528.4,80.4 529.4,82.5 530.4,83.4 531.4,83.4 532.4,84.2 533.4,84.8 534.4,85.8 535.4,86.8 536.4,87.8 537.4,89.4 538.4,90.7 539.4,90.7 540.4,88.9 541.4,91.4 542.4,91.3 543.4,93.7 544.4,93.0 545.4,93.7 546.4,93.5 547.4,91.8 548.4,90.0 549.4,89.1 550.4,89.2 551.4,88.7 552.4,90.3 553.4,91.9 554.4,93.2 555.4,93.0 556.4,93.4 557.4,94.2 558.4,92.4 559.4,95.3 560.4,97.4 561.4,97.1 562.4,96.0 563.4,94.1 564.4,93.0 565.4,93.8 566.4,93.4 567.4,93.8 568.4,94.7 569.4,95.1 570.4,96.8 571.4,97.2 572.4,97.6 573.4,97.9 574.4,97.4 575.4,96.2 576.4,97.2 577.4,95.8 578.4,95.3 579.4,95.2 580.4,95.2 581.4,94.1 582.4,94.1 583.4,91.3 584.4,90.4 585.4,89.8 586.4,90.1 587.4,90.2 588.4,89.7 589.4,90.4 590.3,90.3 591.3,89.1 592.3,88.0 593.3,86.0 594.3,85.7 595.3,85.5 596.3,86.2 597.3,83.8 598.3,82.1 599.3,81.0 600.3,79.8 601.3,78.5 602.3,78.0 603.3,77.6 604.3,77.8 605.3,77.9 606.3,77.7 607.3,76.2 608.3,77.2 609.3,76.3 610.3,74.6 611.3,74.8 612.3,71.4 613.3,69.4 614.3,70.6 615.3,70.6 616.3,71.2 617.3,71.2 618.3,72.5 619.3,72.7 620.3,71.1 621.3,70.0 622.3,70.8 623.3,68.7 624.3,65.1 625.3,64.1 626.3,61.8 627.3,61.6 628.3,61.9 629.3,61.0 630.3,58.8 631.3,58.3 632.3,58.5 633.3,61.7 634.3,62.2 635.3,62.5 636.3,62.3 637.3,61.9 638.3,61.9 639.3,61.9 640.3,61.9 641.3,61.6 642.3,61.3 643.3,62.5 644.3,62.3 645.3,63.8 646.3,63.0 647.3,60.2 648.3,60.2 649.3,59.5 650.3,59.2 651.3,59.3 652.3,58.8 653.3,59.3 654.3,58.3 655.3,58.8 656.3,58.8 657.3,58.8 658.3,58.2 659.3,58.3 660.3,58.9 661.3,59.7 662.3,59.3 663.3,60.1 664.3,59.1 665.3,58.5 666.3,58.5 667.3,59.4 668.3,60.2 669.3,61.5 670.3,61.8 671.3,61.9 672.3,62.5 673.3,62.5 674.3,59.8 675.3,62.5 676.3,64.3 677.3,62.1 678.3,63.3 679.3,60.5 680.3,59.3 681.3,59.7 682.3,55.8 683.3,52.5 684.3,53.4 685.3,51.6 686.3,49.9 687.3,49.5 688.3,48.2 689.3,48.8 690.3,48.3 691.3,46.9 692.3,47.4 693.3,47.9 694.3,46.8 695.3,46.0 696.3,44.8 697.3,43.4 698.3,42.4 699.3,40.1"></path>
    <path class="data-series series-colour-2" d="M55.5,295.4 56.5,295.9 57.5,295.8 58.5,295.2 59.5,295.7 60.5,296.3 61.5,294.7 62.5,291.4 63.5,290.6 64.5,290.8 65.5,291.5 66.5,292.0 67.5,291.0 68.5,290.9 69.5,291.0 70.5,289.1 71.5,288.0 72.5,289.1 73.5,289.5 74.5,290.0 75.5,288.7 76.5,284.8 77.5,285.2 78.5,285.6 79.5,283.7 80.5,283.6 81.5,284.7 82.5,280.7 83.5,279.2 84.5,279.3 85.5,279.0 86.5,279.3 87.5,280.8 88.5,280.8 89.5,282.2 90.5,280.4 91.5,279.9 92.5,278.5 93.5,276.9 94.5,276.3 95.5,274.7 96.5,271.1 97.5,269.3 98.5,268.4 99.5,268.4 100.5,269.8 101.5,270.9 102.5,270.3 103.5,267.4 104.5,268.4 105.5,268.3 106.5,268.5 107.5,269.9 108.5,270.6 109.5,269.4 110.5,268.8 111.5,268.6 112.5,268.7 113.5,269.7 114.5,268.7 115.5,269.0 116.5,267.0 117.5,265.6 118.5,264.5 119.5,265.2 120.5,262.3 121.5,261.1 122.5,260.2 123.5,256.0 124.5,250.1 125.5,249.4 126.5,251.4 127.5,249.4 128.5,246.5 129.5,244.5 130.5,242.6 131.5,241.6 132.5,242.1 133.5,241.0 134.5,241.5 135.5,242.7 136.5,243.1 137.5,244.0 138.5,242.8 139.5,243.7 140.5,243.5 141.5,244.2 142.5,243.4 143.5,244.0 144.5,243.6 145.5,243.7 146.5,242.4 147.5,241.9 148.5,241.4 149.5,239.7 150.5,240.8 151.5,241.0 152.5,241.4 153.5,241.4 154.5,238.2 155.5,236.4 156.5,238.2 157.5,240.0 158.5,239.6 159.5,240.4 160.5,242.5 161.5,244.0 162.5,244.1 163.5,244.1 164.5,243.3 165.5,244.0 166.5,244.5 167.5,243.5 168.5,241.6 169.5,241.9 170.5,244.2 171.5,244.7 172.5,244.2 173.5,243.8 174.5,242.3 175.5,241.6 176.5,240.2 177.5,238.3 178.5,238.3 179.5,238.4 180.5,239.8 181.5,242.1 182.5,242.5 183.5,244.0 184.5,242.8 185.5,242.0 186.5,239.8 187.5,239.8 188.5,240.1 189.5,240.3 190.4,239.7 191.4,239.2 192.4,238.4 193.4,237.9 194.4,237.6 195.4,237.7 196.4,238.8 197.4,237.9 198.4,239.0 199.4,238.0 200.4,234.7 201.4,232.5 202.4,230.9 203.4,230.9 204.4,230.4 205.4,228.5 206.4,226.9 207.4,227.1 208.4,226.9 209.4,223.6 210.4,219.8 211.4,218.9 212.4,219.1 213.4,219.1 214.4,221.9 215.4,223.5 216.4,223.1 217.4,223.0 218.4,223.6 219.4,224.0 220.4,224.9 221.4,224.4 222.4,224.1 223.4,223.9 224.4,223.4 225.4,223.4 226.4,223.8 227.4,223.4 228.4,221.8 229.4,223.6 230.4,223.3 231.4,223.3 232.4,223.2 233.4,224.9 234.4,226.7 235.4,227.3 236.4,228.6 237.4,228.4 238.4,231.4 239.4,232.8 240.4,231.4 241.4,231.6 242.4,227.7 243.4,223.5 244.4,219.5 245.4,217.0 246.4,217.1 247.4,218.8 248.4,220.3 249.4,220.8 250.4,221.2 251.4,220.5 252.4,221.0 253.4,223.7 254.4,224.9 255.4,223.8 256.4,223.4 257.4,222.3 258.4,220.0 259.4,220.0 260.4,220.3 261.4,220.3 262.4,219.9 263.4,218.0 264.4,216.0 265.4,215.9 266.4,213.2 267.4,212.8 268.4,212.9 269.4,213.7 270.4,213.3 271.4,213.9 272.4,214.1 273.4,213.7 274.4,212.3 275.4,211.5 276.4,211.6 277.4,212.8 278.4,212.6 279.4,211.6 280.4,211.5 281.4,214.6 282.4,214.2 283.4,216.2 284.4,217.4 285.4,217.8 286.4,217.2 287.4,217.5 288.4,216.7 289.4,213.9 290.4,214.3 291.4,213.2 292.4,213.5 293.4,215.2 294.4,217.6 295.4,217.9 296.4,217.6 297.4,217.0 298.4,218.3 299.4,220.6 300.4,223.1 301.4,220.7 302.4,219.1 303.4,217.6 304.4,218.5 305.4,219.0 306.4,218.6 307.4,219.4 308.4,218.0 309.4,214.8 310.4,213.4 311.4,214.0 312.4,216.0 313.4,216.4 314.4,217.3 315.4,218.1 316.4,219.5 317.4,219.6 318.4,219.1 319.4,219.2 320.4,219.1 321.4,219.0 322.4,221.8 323.4,224.3 324.4,224.7 325.4,224.3 326.4,224.9 327.4,227.7 328.4,229.9 329.4,229.4 330.4,231.7 331.4,231.5 332.4,232.2 333.4,232.2 334.4,234.7 335.4,235.1 336.4,236.1 337.4,236.4 338.4,237.1 339.4,235.7 340.4,234.3 341.4,235.4 342.4,235.7 343.4,237.2 344.4,239.2 345.4,239.3 346.4,239.2 347.4,238.0 348.4,238.3 349.4,239.3 350.4,236.7 351.4,235.7 352.4,239.3 353.4,241.9 354.4,244.6 355.4,244.5 356.4,245.0 357.4,243.5 358.4,241.6 359.4,235.3 360.4,234.8 361.4,231.8 362.4,232.4 363.4,232.8 364.4,231.6 365.4,232.4 366.4,233.3 367.4,234.2 368.4,235.8 369.4,235.2 370.4,236.3 371.4,236.3 372.4,235.7 373.4,237.8 374.4,237.6 375.4,238.6 376.4,237.7 377.4,237.0 378.4,238.0 379.4,239.9 380.4,238.7 381.4,236.8 382.4,235.1 383.4,234.2 384.4,234.8 385.4,233.9 386.4,236.6 387.4,238.2 388.4,235.0 389.4,234.1 390.4,232.9 391.4,230.6 392.4,228.3 393.4,226.7 394.4,228.4 395.4,227.1 396.4,227.5 397.4,225.3 398.4,223.9 399.4,222.1 400.4,221.7 401.4,219.6 402.4,219.4 403.4,219.3 404.4,220.7 405.4,222.2 406.4,221.4 407.4,219.6 408.4,220.9 409.4,222.0 410.4,222.4 411.4,221.7 412.4,221.2 413.4,220.2 414.4,220.5 415.4,223.9 416.4,227.3 417.4,225.3 418.4,223.0 419.4,223.2 420.4,223.5 421.4,226.0 422.4,226.4 423.4,225.4 424.4,224.8 425.4,225.0 426.4,224.4 427.4,225.0 428.4,225.3 429.4,227.0 430.4,226.0 431.4,226.0 432.4,226.4 433.4,225.4 434.4,226.9 435.4,230.8 436.4,235.1 437.4,236.6 438.4,233.8 439.4,235.3 440.4,236.0 441.4,234.4 442.4,231.8 443.4,230.7 444.4,231.6 445.4,227.0 446.4,225.2 447.4,225.3 448.4,227.8 449.4,229.5 450.4,230.2 451.4,229.6 452.4,227.3 453.4,226.9 454.4,225.0 455.4,225.1 456.4,226.0 457.4,228.3 458.4,228.3 459.4,227.0 460.4,227.5 461.4,227.7 462.4,224.5 463.4,224.2 464.4,225.4 465.4,223.0 466.4,219.5 467.4,219.7 468.4,216.1 469.4,215.4 470.4,216.0 471.4,216.1 472.4,216.8 473.4,217.1 474.4,216.6 475.4,216.5 476.4,215.6 477.4,216.1 478.4,217.6 479.4,218.8 480.4,220.9 481.4,222.4 482.4,221.8 483.4,220.1 484.4,217.9 485.4,217.8 486.4,218.4 487.4,216.5 488.4,213.9 489.4,214.3 490.4,217.9 491.4,219.1 492.4,218.3 493.4,218.3 494.4,218.0 495.4,218.4 496.4,222.1 497.4,223.0 498.4,221.7 499.4,223.3 500.4,225.7 501.4,225.4 502.4,224.1 503.4,224.2 504.4,223.5 505.4,224.5 506.4,225.4 507.4,224.8 508.4,223.4 509.4,223.0 510.4,224.5 511.4,224.8 512.4,223.7 513.4,224.3 514.4,223.8 515.4,225.2 516.4,225.7 517.4,224.9 518.4,226.1 519.4,226.7 520.4,226.4 521.4,226.6 522.4,227.7 523.4,225.3 524.4,224.6 525.4,224.9 526.4,225.8 527.4,229.2 528.4,230.6 529.4,228.6 530.4,229.2 531.4,227.8 532.4,231.0 533.4,227.5 534.4,225.0 535.4,222.9 536.4,220.9 537.4,221.4 538.4,222.0 539.4,219.3 540.4,219.9 541.4,218.9 542.4,220.9 543.4,223.4 544.4,224.9 545.4,225.7 546.4,226.3 547.4,224.4 548.4,223.8 549.4,224.2 550.4,223.8 551.4,223.0 552.4,222.9 553.4,221.2 554.4,219.5 555.4,217.0 556.4,216.9 557.4,216.0 558.4,213.6 559.4,213.7 560.4,215.1 561.4,216.3 562.4,217.6 563.4,219.1 564.4,218.2 565.4,217.2 566.4,217.5 567.4,217.4 568.4,219.8 569.4,218.4 570.4,215.2 571.4,213.0 572.4,212.4 573.4,211.1 574.4,211.2 575.4,211.4 576.4,210.0 577.4,208.4 578.4,211.0 579.4,209.7 580.4,208.6 581.4,209.2 582.4,212.4 583.4,214.5 584.4,218.0 585.4,219.3 586.4,219.3 587.4,219.7 588.4,220.1 589.4,218.7 590.3,219.3 591.3,220.6 592.3,221.0 593.3,222.0 594.3,223.4 595.3,224.2 596.3,225.0 597.3,225.4 598.3,225.4 599.3,228.1 600.3,227.6 601.3,226.6 602.3,228.1 603.3,229.8 604.3,228.9 605.3,228.9 606.3,229.2 607.3,228.9 608.3,229.2 609.3,230.2 610.3,230.5 611.3,230.2 612.3,230.0 613.3,229.4 614.3,228.3 615.3,229.7 616.3,231.2 617.3,230.7 618.3,227.8 619.3,225.1 620.3,226.8 621.3,228.3 622.3,229.5 623.3,230.7 624.3,230.7 625.3,230.5 626.3,234.5 627.3,235.4 628.3,236.1 629.3,233.9 630.3,235.1 631.3,235.2 632.3,237.6 633.3,234.4 634.3,236.6 635.3,237.5 636.3,237.4 637.3,236.7 638.3,235.7 639.3,235.3 640.3,237.3 641.3,236.4 642.3,240.8 643.3,243.4 644.3,245.5 645.3,244.4 646.3,243.4 647.3,243.7 648.3,245.2 649.3,245.5 650.3,246.2 651.3,245.9 652.3,246.4 653.3,246.2 654.3,245.6 655.3,246.3 656.3,243.7 657.3,241.0 658.3,241.2 659.3,242.8 660.3,243.4 661.3,242.2 662.3,243.3 663.3,243.0 664.3,241.9 665.3,239.9 666.3,237.2 667.3,234.3 668.3,234.8 669.3,234.6 670.3,234.1 671.3,236.1 672.3,237.5 673.3,238.3 674.3,238.2 675.3,238.7 676.3,238.0 677.3,237.7 678.3,238.4 679.3,240.0 680.3,239.7 681.3,239.1 682.3,237.1 683.3,237.5 684.3,239.3 685.3,240.5 686.3,242.2 687.3,240.9 688.3,240.5 689.3,241.4 690.3,242.0 691.3,243.0 692.3,242.8 693.3,243.0 694.3,240.7 695.3,240.9 696.3,242.3 697.3,242.0 698.3,241.9 699.3,243.0"></path>
    <path class="data-series series-colour-3" d="M55.5,295.7 56.5,295.8 57.5,295.7 58.5,297.1 59.5,296.3 60.5,296.3 61.5,297.5 62.5,298.7 63.5,298.7 64.5,299.1 65.5,298.3 66.5,298.8 67.5,297.9 68.5,299.1 69.5,299.3 70.5,299.0 71.5,298.2 72.5,297.4 73.5,297.5 74.5,295.7 75.5,294.9 76.5,294.9 77.5,294.9 78.5,294.2 79.5,294.1 80.5,294.8 81.5,295.8 82.5,296.1 83.5,295.4 84.5,296.1 85.5,295.2 86.5,291.1 87.5,289.4 88.5,287.2 89.5,288.3 90.5,288.5 91.5,289.2 92.5,290.2 93.5,291.3 94.5,289.6 95.5,290.3 96.5,289.4 97.5,287.9 98.5,286.5 99.5,286.0 100.5,287.9 101.5,289.1 102.5,289.5 103.5,290.6 104.5,290.8 105.5,289.4 106.5,287.9 107.5,287.9 108.5,288.5 109.5,288.7 110.5,287.1 111.5,285.5 112.5,282.7 113.5,281.6 114.5,279.7 115.5,278.7 116.5,278.8 117.5,279.9 118.5,281.8 119.5,282.3 120.5,282.1 121.5,281.8 122.5,283.1 123.5,283.6 124.5,284.4 125.5,285.4 126.5,284.6 127.5,283.4 128.5,284.1 129.5,283.7 130.5,283.9 131.5,284.5 132.5,284.3 133.5,285.1 134.5,285.5 135.5,284.2 136.5,284.9 137.5,282.8 138.5,277.3 139.5,277.8 140.5,278.6 141.5,278.9 142.5,278.9 143.5,278.1 144.5,277.6 145.5,277.1 146.5,279.3 147.5,278.9 148.5,278.2 149.5,276.2 150.5,277.0 151.5,275.9 152.5,276.2 153.5,275.5 154.5,275.8 155.5,276.6 156.5,276.7 157.5,276.4 158.5,276.0 159.5,277.4 160.5,277.9 161.5,277.5 162.5,278.7 163.5,281.9 164.5,281.7 165.5,279.7 166.5,278.7 167.5,279.6 168.5,279.3 169.5,277.4 170.5,276.8 171.5,276.9 172.5,276.6 173.5,276.1 174.5,276.6 175.5,276.2 176.5,275.1 177.5,274.5 178.5,273.8 179.5,273.1 180.5,272.2 181.5,273.4 182.5,273.0 183.5,273.3 184.5,274.3 185.5,274.8 186.5,274.9 187.5,275.8 188.5,276.5 189.5,276.7 190.4,278.0 191.4,279.9 192.4,282.0 193.4,283.6 194.4,284.0 195.4,283.3 196.4,283.5 197.4,282.9 198.4,280.4 199.4,276.3 200.4,275.2 201.4,274.2 202.4,274.3 203.4,275.2 204.4,276.5 205.4,277.4 206.4,277.4 207.4,276.7 208.4,276.4 209.4,274.8 210.4,275.0 211.4,276.2 212.4,275.9 213.4,275.1 214.4,274.5 215.4,276.4 216.4,274.9 217.4,275.1 218.4,273.9 219.4,274.2 220.4,276.8 221.4,276.7 222.4,276.1 223.4,273.9 224.4,273.4 225.4,275.3 226.4,274.0 227.4,273.5 228.4,274.0 229.4,275.1 230.4,276.5 231.4,277.0 232.4,278.0 233.4,278.3 234.4,278.2 235.4,277.9 236.4,276.7 237.4,276.5 238.4,276.5 239.4,273.3 240.4,272.5 241.4,273.0 242.4,272.7 243.4,271.6 244.4,271.4 245.4,272.7 246.4,273.2 247.4,274.6 248.4,271.2 249.4,273.5 250.4,273.8 251.4,271.8 252.4,272.2 253.4,273.4 254.4,273.6 255.4,271.1 256.4,271.4 257.4,271.9 258.4,272.3 259.4,272.0 260.4,272.4 261.4,271.7 262.4,272.1 263.4,273.4 264.4,274.5 265.4,274.7 266.4,273.3 267.4,270.7 268.4,271.0 269.4,273.0 270.4,273.1 271.4,271.0 272.4,271.5 273.4,272.7 274.4,273.1 275.4,273.3 276.4,272.6 277.4,272.9 278.4,273.5 279.4,275.0 280.4,275.5 281.4,274.4 282.4,276.6 283.4,275.9 284.4,275.3 285.4,277.7 286.4,278.6 287.4,274.9 288.4,270.5 289.4,266.2 290.4,266.6 291.4,266.9 292.4,266.7 293.4,266.7 294.4,267.9 295.4,269.5 296.4,270.4 297.4,270.8 298.4,271.9 299.4,273.8 300.4,274.5 301.4,274.2 302.4,275.0 303.4,273.8 304.4,273.6 305.4,273.9 306.4,276.3 307.4,274.7 308.4,274.9 309.4,271.7 310.4,271.2 311.4,272.9 312.4,270.5 313.4,271.1 314.4,271.4 315.4,270.1 316.4,269.5 317.4,269.2 318.4,269.6 319.4,269.6 320.4,269.8 321.4,270.3 322.4,270.5 323.4,271.4 324.4,273.5 325.4,274.7 326.4,275.4 327.4,275.7 328.4,276.7 329.4,278.7 330.4,274.3 331.4,274.9 332.4,273.3 333.4,270.3 334.4,268.4 335.4,268.7 336.4,267.9 337.4,268.3 338.4,269.9 339.4,272.2 340.4,272.7 341.4,276.1 342.4,277.1 343.4,277.2 344.4,276.2 345.4,275.6 346.4,275.5 347.4,273.2 348.4,273.1 349.4,274.5 350.4,276.1 351.4,275.3 352.4,274.9 353.4,276.1 354.4,274.5 355.4,273.5 356.4,274.8 357.4,276.1 358.4,275.2 359.4,276.4 360.4,278.9 361.4,278.5 362.4,277.7 363.4,278.7 364.4,279.5 365.4,278.9 366.4,278.0 367.4,277.7 368.4,278.2 369.4,280.2 370.4,281.9 371.4,281.4 372.4,280.9 373.4,281.6 374.4,281.2 375.4,281.1 376.4,280.7 377.4,282.6 378.4,282.8 379.4,282.2 380.4,280.8 381.4,282.0 382.4,281.9 383.4,282.5 384.4,283.7 385.4,283.8 386.4,284.5 387.4,283.8 388.4,283.6 389.4,283.6 390.4,283.7 391.4,283.5 392.4,282.7 393.4,282.3 394.4,282.5 395.4,283.1 396.4,283.3 397.4,282.4 398.4,282.5 399.4,283.5 400.4,284.1 401.4,282.3 402.4,279.7 403.4,279.1 404.4,279.0 405.4,280.0 406.4,279.5 407.4,278.5 408.4,278.6 409.4,279.0 410.4,279.4 411.4,280.0 412.4,278.1 413.4,274.7 414.4,275.4 415.4,276.0 416.4,275.0 417.4,275.9 418.4,273.8 419.4,272.5 420.4,273.2 421.4,273.3 422.4,272.8 423.4,273.5 424.4,277.2 425.4,277.1 426.4,277.6 427.4,277.9 428.4,279.3 429.4,278.8 430.4,275.9 431.4,275.1 432.4,276.1 433.4,276.9 434.4,278.0 435.4,278.8 436.4,279.3 437.4,280.0 438.4,280.5 439.4,281.9 440.4,280.5 441.4,280.5 442.4,279.9 443.4,281.8 444.4,283.6 445.4,281.6 446.4,280.0 447.4,280.4 448.4,280.0 449.4,279.9 450.4,280.6 451.4,280.6 452.4,278.4 453.4,275.2 454.4,273.4 455.4,272.5 456.4,273.9 457.4,275.3 458.4,275.6 459.4,276.0 460.4,276.4 461.4,279.2 462.4,278.0 463.4,276.5 464.4,274.1 465.4,272.2 466.4,270.1 467.4,269.1 468.4,270.5 469.4,272.2 470.4,273.6 471.4,273.3 472.4,272.9 473.4,272.8 474.4,270.7 475.4,271.2 476.4,270.6 477.4,270.9 478.4,269.5 479.4,270.8 480.4,272.3 481.4,273.0 482.4,272.0 483.4,271.5 484.4,273.2 485.4,274.5 486.4,274.3 487.4,275.4 488.4,277.5 489.4,275.2 490.4,273.7 491.4,272.9 492.4,272.2 493.4,271.9 494.4,272.8 495.4,272.8 496.4,272.0 497.4,271.4 498.4,271.8 499.4,271.5 500.4,273.5 501.4,273.0 502.4,272.1 503.4,271.6 504.4,269.8 505.4,269.3 506.4,270.2 507.4,271.2 508.4,271.8 509.4,272.2 510.4,272.8 511.4,272.6 512.4,273.7 513.4,275.8 514.4,276.8 515.4,276.8 516.4,277.9 517.4,279.5 518.4,278.1 519.4,277.2 520.4,278.9 521.4,280.0 522.4,279.9 523.4,279.3 524.4,278.9 525.4,277.7 526.4,278.6 527.4,279.1 528.4,278.8 529.4,281.0 530.4,281.3 531.4,281.1 532.4,280.5 533.4,280.7 534.4,280.4 535.4,280.5 536.4,282.7 537.4,285.5 538.4,286.9 539.4,283.8 540.4,284.0 541.4,284.4 542.4,285.8 543.4,285.4 544.4,285.4 545.4,286.4 546.4,287.4 547.4,287.8 548.4,288.6 549.4,288.1 550.4,287.6 551.4,285.9 552.4,286.5 553.4,284.7 554.4,283.4 555.4,282.8 556.4,282.4 557.4,281.7 558.4,279.5 559.4,279.8 560.4,279.9 561.4,278.9 562.4,280.1 563.4,280.1 564.4,279.0 565.4,279.0 566.4,278.6 567.4,277.3 568.4,275.1 569.4,272.8 570.4,273.5 571.4,273.0 572.4,273.7 573.4,274.4 574.4,273.2 575.4,272.8 576.4,272.6 577.4,273.7 578.4,274.7 579.4,275.1 580.4,275.2 581.4,273.5 582.4,270.9 583.4,269.2 584.4,268.5 585.4,269.8 586.4,270.4 587.4,269.4 588.4,271.3 589.4,271.7 590.3,271.9 591.3,274.6 592.3,275.2 593.3,276.1 594.3,277.5 595.3,277.8 596.3,276.7 597.3,274.7 598.3,274.0 599.3,273.2 600.3,273.7 601.3,272.9 602.3,273.5 603.3,273.3 604.3,273.8 605.3,274.3 606.3,275.8 607.3,275.6 608.3,276.9 609.3,276.9 610.3,276.0 611.3,275.5 612.3,276.8 613.3,277.8 614.3,277.2 615.3,278.0 616.3,276.2 617.3,277.5 618.3,277.2 619.3,277.1 620.3,277.6 621.3,277.9 622.3,277.3 623.3,275.3 624.3,273.6 625.3,274.7 626.3,275.4 627.3,278.2 628.3,276.2 629.3,275.9 630.3,273.3 631.3,275.2 632.3,276.1 633.3,277.0 634.3,275.5 635.3,270.4 636.3,270.8 637.3,271.4 638.3,270.6 639.3,270.2 640.3,270.1 641.3,272.5 642.3,273.3 643.3,272.8 644.3,271.7 645.3,272.5 646.3,274.2 647.3,272.4 648.3,270.0 649.3,269.5 650.3,264.8 651.3,264.5 652.3,264.6 653.3,263.2 654.3,262.0 655.3,263.2 656.3,261.8 657.3,260.0 658.3,257.1 659.3,257.6 660.3,258.0 661.3,260.1 662.3,261.0 663.3,262.5 664.3,263.1 665.3,263.8 666.3,264.4 667.3,265.6 668.3,267.0 669.3,268.7 670.3,269.9 671.3,273.0 672.3,271.7 673.3,270.1 674.3,269.9 675.3,270.3 676.3,271.4 677.3,270.7 678.3,271.0 679.3,269.6 680.3,268.8 681.3,267.8 682.3,266.7 683.3,266.5 684.3,267.7 685.3,267.4 686.3,267.5 687.3,268.9 688.3,266.8 689.3,265.3 690.3,265.0 691.3,265.1 692.3,265.1 693.3,265.6 694.3,265.4 695.3,265.6 696.3,266.6 697.3,270.2 698.3,269.2 699.3,268.4"></path>
    <path class="data-series series-colour-4" stroke-opacity="0.75" d="M55.1,295.3 55.3,295.5 55.5,295.5 55.7,295.5 55.9,295.5 56.0,296.0 56.2,295.6 56.4,295.4 56.6,295.4 56.8,295.9 57.0,296.4 57.2,296.3 57.4,296.5 57.6,297.1 57.8,297.3 58.0,297.6 58.2,297.7 58.4,297.3 58.6,297.2 58.8,297.5 59.0,297.2 59.1,297.3 59.3,296.9 59.5,296.5 59.7,296.8 59.9,296.3 60.1,295.9 60.3,296.5 60.5,296.9 60.7,296.5 60.9,296.5 61.1,297.1 61.3,297.4 61.5,297.3 61.7,296.9 61.9,296.5 62.0,296.3 62.2,296.5 62.4,296.7 62.6,296.8 62.8,296.7 63.0,296.8 63.2,296.9 63.4,297.0 63.6,297.3 63.8,297.6 64.0,298.0 64.2,298.3 64.4,298.6 64.6,298.8 64.8,298.7 64.9,298.8 65.1,298.5 65.3,298.5 65.5,298.0 65.7,297.6 65.9,297.4 66.1,297.8 66.3,297.5 66.5,296.7 66.7,296.6 66.9,296.2 67.1,295.9 67.3,296.1 67.5,296.1 67.7,296.3 67.9,296.5 68.0,296.6 68.2,296.8 68.4,296.9 68.6,297.6 68.8,297.6 69.0,297.5 69.2,297.5 69.4,297.0 69.6,296.7 69.8,296.8 70.0,296.6 70.2,296.7 70.4,297.6 70.6,297.5 70.8,297.3 70.9,297.0 71.1,296.7 71.3,296.8 71.5,296.4 71.7,295.7 71.9,295.5 72.1,296.7 72.3,297.2 72.5,296.3 72.7,296.1 72.9,295.8 73.1,295.9 73.3,296.3 73.5,296.3 73.7,296.4 73.9,296.7 74.0,296.9 74.2,296.9 74.4,297.3 74.6,297.6 74.8,297.7 75.0,297.6 75.2,297.9 75.4,297.5 75.6,296.8 75.8,296.4 76.0,296.4 76.2,296.5 76.4,296.2 76.6,296.2 76.8,296.1 76.9,296.3 77.1,296.6 77.3,297.1 77.5,298.1 77.7,298.3 77.9,298.1 78.1,298.0 78.3,298.0 78.5,297.9 78.7,297.7 78.9,298.3 79.1,298.7 79.3,299.1 79.5,299.3 79.7,299.6 79.8,299.3 80.0,299.2 80.2,298.9 80.4,298.9 80.6,299.7 80.8,300.0 81.0,300.2 81.2,300.3 81.4,300.4 81.6,300.6 81.8,301.6 82.0,301.7 82.2,300.9 82.4,299.5 82.6,299.0 82.8,298.9 82.9,298.5 83.1,299.0 83.3,298.6 83.5,298.1 83.7,297.8 83.9,297.0 84.1,296.6 84.3,294.6 84.5,293.7 84.7,293.5 84.9,293.3 85.1,293.5 85.3,293.3 85.5,293.1 85.7,293.6 85.8,293.8 86.0,294.1 86.2,293.7 86.4,293.9 86.6,293.5 86.8,292.5 87.0,291.8 87.2,291.8 87.4,292.0 87.6,292.1 87.8,292.3 88.0,291.6 88.2,290.8 88.4,290.1 88.6,288.6 88.7,289.1 88.9,288.6 89.1,289.3 89.3,289.5 89.5,289.7 89.7,290.2 89.9,291.0 90.1,291.2 90.3,289.9 90.5,290.6 90.7,291.5 90.9,290.4 91.1,290.8 91.3,290.2 91.5,289.9 91.7,289.3 91.8,289.0 92.0,289.0 92.2,289.2 92.4,289.4 92.6,289.8 92.8,289.8 93.0,290.3 93.2,290.1 93.4,289.4 93.6,289.6 93.8,290.5 94.0,290.7 94.2,290.8 94.4,291.5 94.6,292.4 94.7,291.8 94.9,291.9 95.1,293.0 95.3,293.9 95.5,294.6 95.7,294.1 95.9,293.5 96.1,294.0 96.3,294.1 96.5,294.5 96.7,294.9 96.9,294.8 97.1,294.1 97.3,294.1 97.5,295.0 97.7,295.1 97.8,295.6 98.0,295.4 98.2,295.9 98.4,295.8 98.6,295.6 98.8,294.8 99.0,294.4 99.2,294.7 99.4,295.2 99.6,295.8 99.8,296.7 100.0,297.2 100.2,296.6 100.4,296.2 100.6,296.1 100.7,296.5 100.9,296.8 101.1,296.8 101.3,297.5 101.5,297.6 101.7,297.7 101.9,297.7 102.1,298.0 102.3,299.3 102.5,300.0 102.7,300.2 102.9,299.5 103.1,298.5 103.3,297.5 103.5,297.6 103.6,297.3 103.8,297.4 104.0,297.2 104.2,297.1 104.4,296.9 104.6,296.5 104.8,296.6 105.0,296.3 105.2,296.4 105.4,296.6 105.6,296.6 105.8,296.9 106.0,296.7 106.2,297.4 106.4,296.8 106.6,298.1 106.7,297.3 106.9,297.5 107.1,298.0 107.3,297.9 107.5,297.6 107.7,297.8 107.9,297.5 108.1,297.5 108.3,296.6 108.5,296.3 108.7,296.9 108.9,296.2 109.1,296.1 109.3,295.7 109.5,295.9 109.6,295.6 109.8,295.4 110.0,295.5 110.2,295.9 110.4,295.6 110.6,296.3 110.8,296.5 111.0,297.1 111.2,298.0 111.4,298.2 111.6,298.4 111.8,297.9 112.0,297.3 112.2,297.6 112.4,297.4 112.6,297.0 112.7,296.9 112.9,297.2 113.1,297.2 113.3,297.8 113.5,298.2 113.7,297.4 113.9,297.8 114.1,298.7 114.3,299.3 114.5,300.1 114.7,299.9 114.9,300.0 115.1,299.9 115.3,299.1 115.5,299.1 115.6,299.3 115.8,299.1 116.0,299.1 116.2,299.1 116.4,299.2 116.6,299.3 116.8,299.7 117.0,300.1 117.2,300.4 117.4,300.5 117.6,300.3 117.8,300.1 118.0,300.3 118.2,300.9 118.4,301.1 118.5,300.6 118.7,300.0 118.9,300.0 119.1,300.1 119.3,299.5 119.5,299.0 119.7,298.2 119.9,298.3 120.1,297.9 120.3,299.0 120.5,299.3 120.7,299.0 120.9,298.5 121.1,298.3 121.3,298.2 121.5,298.6 121.6,299.0 121.8,299.4 122.0,299.1 122.2,298.9 122.4,298.3 122.6,298.4 122.8,298.1 123.0,297.0 123.2,297.0 123.4,296.8 123.6,297.1 123.8,297.4 124.0,297.3 124.2,297.0 124.4,296.9 124.5,297.2 124.7,296.8 124.9,296.3 125.1,295.9 125.3,295.7 125.5,295.6 125.7,295.5 125.9,295.0 126.1,295.2 126.3,295.5 126.5,295.5 126.7,295.2 126.9,295.1 127.1,294.9 127.3,296.0 127.4,296.2 127.6,294.9 127.8,294.9 128.0,295.7 128.2,296.4 128.4,296.0 128.6,295.9 128.8,295.9 129.0,295.2 129.2,294.5 129.4,294.3 129.6,294.2 129.8,295.0 130.0,294.1 130.2,293.7 130.4,292.9 130.5,293.5 130.7,293.4 130.9,293.5 131.1,293.1 131.3,293.2 131.5,293.9 131.7,293.9 131.9,294.0 132.1,293.9 132.3,293.6 132.5,293.6 132.7,293.7 132.9,293.6 133.1,293.9 133.3,294.1 133.4,294.6 133.6,294.9 133.8,295.1 134.0,295.6 134.2,295.8 134.4,296.0 134.6,296.4 134.8,295.7 135.0,295.6 135.2,295.3 135.4,295.0 135.6,294.4 135.8,294.4 136.0,294.4 136.2,294.1 136.4,294.1 136.5,295.1 136.7,295.2 136.9,294.1 137.1,293.7 137.3,294.2 137.5,294.7 137.7,294.8 137.9,294.8 138.1,295.0 138.3,294.5 138.5,294.5 138.7,294.9 138.9,295.6 139.1,295.5 139.3,295.9 139.4,297.0 139.6,297.1 139.8,296.8 140.0,296.8 140.2,296.4 140.4,296.1 140.6,296.4 140.8,295.8 141.0,296.1 141.2,296.3 141.4,296.7 141.6,295.8 141.8,296.0 142.0,296.2 142.2,296.2 142.3,296.2 142.5,295.9 142.7,295.5 142.9,295.8 143.1,295.8 143.3,295.9 143.5,295.3 143.7,294.5 143.9,294.9 144.1,294.8 144.3,294.1 144.5,294.2 144.7,294.2 144.9,294.2 145.1,294.2 145.3,294.3 145.4,294.4 145.6,294.7 145.8,294.6 146.0,294.5 146.2,294.8 146.4,294.9 146.6,294.8 146.8,294.5 147.0,294.3 147.2,294.3 147.4,293.7 147.6,293.2 147.8,292.4 148.0,291.8 148.2,291.9 148.3,292.6 148.5,292.9 148.7,292.3 148.9,291.5 149.1,292.0 149.3,292.2 149.5,292.4 149.7,292.8 149.9,293.6 150.1,293.5 150.3,293.3 150.5,293.3 150.7,293.3 150.9,292.9 151.1,292.1 151.3,291.7 151.4,292.4 151.6,292.9 151.8,292.9 152.0,293.0 152.2,293.3 152.4,293.8 152.6,294.2 152.8,294.2 153.0,294.0 153.2,294.2 153.4,295.6 153.6,296.0 153.8,297.0 154.0,297.9 154.2,298.5 154.3,299.1 154.5,299.3 154.7,298.8 154.9,298.5 155.1,298.2 155.3,298.1 155.5,297.8 155.7,298.1 155.9,297.8 156.1,297.9 156.3,298.2 156.5,298.8 156.7,298.3 156.9,298.2 157.1,298.0 157.2,297.9 157.4,298.1 157.6,298.4 157.8,298.3 158.0,298.5 158.2,298.5 158.4,298.4 158.6,299.0 158.8,299.3 159.0,299.5 159.2,299.6 159.4,300.2 159.6,300.6 159.8,301.2 160.0,301.5 160.2,301.3 160.3,301.2 160.5,301.2 160.7,301.2 160.9,301.2 161.1,301.1 161.3,301.0 161.5,300.8 161.7,300.9 161.9,300.8 162.1,300.9 162.3,301.1 162.5,301.1 162.7,299.8 162.9,299.8 163.1,300.3 163.2,300.5 163.4,300.5 163.6,300.6 163.8,300.4 164.0,300.2 164.2,300.4 164.4,300.4 164.6,300.4 164.8,300.2 165.0,299.2 165.2,299.5 165.4,299.2 165.6,298.7 165.8,298.3 166.0,298.3 166.1,298.4 166.3,298.6 166.5,299.1 166.7,299.3 166.9,299.3 167.1,299.5 167.3,299.2 167.5,299.7 167.7,299.8 167.9,299.6 168.1,299.4 168.3,299.8 168.5,300.3 168.7,300.0 168.9,299.8 169.1,299.9 169.2,300.6 169.4,300.4 169.6,300.3 169.8,300.3 170.0,300.6 170.2,300.5 170.4,300.6 170.6,300.7 170.8,300.4 171.0,299.6 171.2,299.3 171.4,299.7 171.6,299.5 171.8,299.9 172.0,300.1 172.1,300.7 172.3,301.6 172.5,301.8 172.7,302.1 172.9,303.0 173.1,302.8 173.3,302.4 173.5,302.4 173.7,302.3 173.9,302.0 174.1,301.3 174.3,301.5 174.5,301.7 174.7,301.6 174.9,301.5 175.1,301.8 175.2,301.7 175.4,302.2 175.6,302.5 175.8,302.0 176.0,302.2 176.2,302.3 176.4,302.5 176.6,302.4 176.8,302.5 177.0,302.7 177.2,302.5 177.4,301.9 177.6,301.7 177.8,301.3 178.0,300.6 178.1,300.3 178.3,300.1 178.5,300.1 178.7,299.7 178.9,299.7 179.1,299.6 179.3,299.8 179.5,300.1 179.7,299.9 179.9,299.6 180.1,300.0 180.3,300.1 180.5,299.9 180.7,300.2 180.9,299.0 181.0,297.5 181.2,297.6 181.4,297.4 181.6,297.6 181.8,297.0 182.0,297.0 182.2,296.8 182.4,296.8 182.6,296.5 182.8,296.7 183.0,296.5 183.2,296.9 183.4,296.8 183.6,296.8 183.8,295.8 184.0,296.2 184.1,295.9 184.3,296.4 184.5,297.1 184.7,297.5 184.9,298.0 185.1,298.1 185.3,298.3 185.5,298.3 185.7,298.8 185.9,299.2 186.1,299.0 186.3,299.9 186.5,300.2 186.7,300.1 186.9,300.3 187.0,300.2 187.2,300.1 187.4,299.6 187.6,299.7 187.8,300.0 188.0,299.7 188.2,300.0 188.4,300.1 188.6,300.1 188.8,300.1 189.0,299.8 189.2,299.5 189.4,299.4 189.6,299.5 189.8,299.6 190.0,299.6 190.1,300.0 190.3,300.3 190.5,300.3 190.7,300.4 190.9,300.8 191.1,300.6 191.3,300.6 191.5,301.3 191.7,301.3 191.9,301.5 192.1,301.6 192.3,302.3 192.5,302.7 192.7,302.7 192.9,302.4 193.0,302.8 193.2,303.3 193.4,303.3 193.6,303.4 193.8,303.8 194.0,304.0 194.2,304.3 194.4,304.1 194.6,304.3 194.8,304.1 195.0,304.7 195.2,304.5 195.4,304.2 195.6,304.4 195.8,304.1 195.9,303.4 196.1,303.3 196.3,303.0 196.5,302.9 196.7,302.5 196.9,300.8 197.1,300.2"></path>
    <path class="data-series series-colour-4" stroke-opacity="0.75" d="M55.1,295.3 55.3,295.5 55.5,296.1 55.8,296.2 56.0,296.7 56.2,296.9 56.5,296.9 56.7,297.1 56.9,296.8 57.1,297.0 57.4,297.0 57.6,296.3 57.8,296.4 58.0,296.3 58.3,296.6 58.5,297.0 58.7,297.3 58.9,297.4 59.2,297.4 59.4,297.4 59.6,297.2 59.8,296.7 60.1,296.4 60.3,296.5 60.5,296.6 60.7,296.9 61.0,296.6 61.2,296.9 61.4,297.3 61.6,298.1 61.9,298.1 62.1,298.5 62.3,299.0 62.5,299.0 62.8,298.5 63.0,298.1 63.2,297.6 63.4,298.0 63.7,298.5 63.9,298.4 64.1,298.0 64.4,297.5 64.6,296.8 64.8,296.1 65.0,295.8 65.3,295.6 65.5,295.4 65.7,295.7 65.9,295.6 66.2,295.1 66.4,296.8 66.6,297.4 66.8,298.2 67.1,298.2 67.3,299.0 67.5,299.5 67.7,299.4 68.0,299.8 68.2,299.1 68.4,298.9 68.6,298.8 68.9,299.2 69.1,299.0 69.3,298.2 69.5,298.6 69.8,298.7 70.0,298.6 70.2,298.9 70.4,299.0 70.7,299.1 70.9,298.3 71.1,299.1 71.4,299.6 71.6,300.0 71.8,299.2 72.0,298.6 72.3,297.4 72.5,297.7 72.7,297.2 72.9,297.1 73.2,297.1 73.4,296.6 73.6,296.8 73.8,296.5 74.1,296.2 74.3,295.3 74.5,295.4 74.7,295.2 75.0,294.4 75.2,294.3 75.4,293.4 75.6,293.5 75.9,293.2 76.1,293.3 76.3,293.3 76.5,293.6 76.8,293.8 77.0,293.7 77.2,293.7 77.4,293.8 77.7,294.4 77.9,294.3 78.1,294.3 78.3,294.2 78.6,293.4 78.8,293.5 79.0,293.2 79.3,293.4 79.5,293.4 79.7,293.8 79.9,294.1 80.2,294.0 80.4,294.5 80.6,294.9 80.8,294.7 81.1,294.8 81.3,295.1 81.5,294.6 81.7,294.7 82.0,294.9 82.2,295.1 82.4,295.2 82.6,295.0 82.9,295.0 83.1,294.7 83.3,294.9 83.5,294.8 83.8,294.6 84.0,294.4 84.2,294.3 84.4,294.7 84.7,295.3 84.9,295.2 85.1,294.9 85.3,295.0 85.6,294.6 85.8,293.9 86.0,293.8 86.3,294.1 86.5,294.4 86.7,294.4 86.9,294.2 87.2,294.5 87.4,293.1 87.6,292.9 87.8,293.0 88.1,291.9 88.3,291.0 88.5,290.0 88.7,289.8 89.0,289.5 89.2,289.7 89.4,290.2 89.6,290.4 89.9,290.3 90.1,289.9 90.3,290.0 90.5,289.5 90.8,289.2 91.0,289.1 91.2,289.1 91.4,289.6 91.7,289.6 91.9,289.5 92.1,289.5 92.3,288.8 92.6,288.5 92.8,288.2 93.0,288.3 93.2,288.6 93.5,288.6 93.7,288.6 93.9,288.5 94.2,288.4 94.4,288.3 94.6,288.3 94.8,287.7 95.1,286.9 95.3,285.5 95.5,284.4 95.7,284.7 96.0,284.5 96.2,284.4 96.4,284.5 96.6,283.8 96.9,283.5 97.1,283.1 97.3,282.9 97.5,282.6 97.8,283.1 98.0,283.5 98.2,283.3 98.4,282.7 98.7,283.0 98.9,283.4 99.1,284.0 99.3,284.3 99.6,284.4 99.8,284.5 100.0,285.1 100.2,285.5 100.5,285.7 100.7,286.4 100.9,286.0 101.1,285.4 101.4,285.3 101.6,286.1 101.8,285.5 102.1,286.6 102.3,287.3 102.5,287.3 102.7,287.0 103.0,287.3 103.2,287.0 103.4,286.5 103.6,286.6 103.9,286.6 104.1,286.9 104.3,287.1 104.5,287.1 104.8,287.3 105.0,287.7 105.2,288.6 105.4,289.2 105.7,290.1 105.9,290.4 106.1,291.1 106.3,291.9 106.6,292.4 106.8,292.4 107.0,292.9 107.2,292.8 107.5,292.6 107.7,292.1 107.9,292.3 108.1,293.5 108.4,293.3 108.6,292.7 108.8,293.2 109.1,294.1 109.3,293.3 109.5,293.3 109.7,293.5 110.0,292.5 110.2,291.7 110.4,291.6 110.6,291.6 110.9,291.5 111.1,291.3 111.3,291.8 111.5,291.5 111.8,291.4 112.0,291.3 112.2,291.5 112.4,291.5 112.7,292.0 112.9,291.8 113.1,291.4 113.3,291.9 113.6,291.8 113.8,292.0 114.0,292.8 114.2,292.6 114.5,292.4 114.7,292.0 114.9,292.1 115.1,292.6 115.4,292.2 115.6,292.3 115.8,292.3 116.0,292.4 116.3,291.9 116.5,291.8 116.7,292.5 117.0,292.8 117.2,292.5 117.4,293.3 117.6,294.4 117.9,293.7 118.1,293.3 118.3,293.6 118.5,294.0 118.8,293.7 119.0,293.5 119.2,292.9 119.4,293.8 119.7,294.7 119.9,294.4 120.1,294.7 120.3,295.2 120.6,295.3 120.8,295.3 121.0,295.4 121.2,295.0 121.5,294.3 121.7,294.6 121.9,294.4 122.1,294.7 122.4,294.7 122.6,294.4 122.8,294.5 123.0,295.0 123.3,295.3 123.5,295.5 123.7,296.0 124.0,296.9 124.2,296.5 124.4,296.8 124.6,297.9 124.9,298.1 125.1,298.1 125.3,298.0 125.5,297.0 125.8,297.7 126.0,297.8 126.2,297.9 126.4,297.8 126.7,297.6 126.9,298.1 127.1,298.3 127.3,298.7 127.6,299.2 127.8,298.9 128.0,299.0 128.2,299.4 128.5,299.3 128.7,299.5 128.9,299.2 129.1,299.3 129.4,299.3 129.6,299.3 129.8,299.7 130.0,300.4 130.3,300.6 130.5,301.1 130.7,300.8 130.9,301.6 131.2,303.1 131.4,303.0 131.6,302.1 131.9,301.4 132.1,300.7 132.3,300.4 132.5,299.7 132.8,298.9 133.0,298.0 133.2,297.3 133.4,297.2 133.7,298.6 133.9,298.2 134.1,297.3 134.3,297.8 134.6,297.8 134.8,297.9 135.0,297.7 135.2,298.6 135.5,298.6 135.7,297.7 135.9,297.9 136.1,297.9 136.4,298.3 136.6,297.9 136.8,298.0 137.0,297.9 137.3,298.0 137.5,298.1 137.7,298.1 137.9,297.9 138.2,297.8 138.4,297.8 138.6,297.7 138.8,298.5 139.1,298.4 139.3,298.1 139.5,298.1 139.8,298.9 140.0,299.0 140.2,298.5 140.4,297.7 140.7,297.0 140.9,296.4 141.1,296.5 141.3,296.7 141.6,297.4 141.8,297.7 142.0,298.3 142.2,298.0 142.5,297.8 142.7,298.3 142.9,299.4 143.1,299.1 143.4,299.5 143.6,299.6 143.8,299.0 144.0,298.4 144.3,298.3 144.5,298.5 144.7,299.4 144.9,298.8 145.2,298.1 145.4,297.4 145.6,297.0 145.8,296.5 146.1,295.9 146.3,295.6 146.5,295.7 146.8,295.3 147.0,295.7 147.2,295.5 147.4,296.0 147.7,295.5 147.9,296.0 148.1,296.8 148.3,297.2 148.6,296.7 148.8,296.6 149.0,296.1 149.2,295.3 149.5,295.5 149.7,295.8 149.9,295.5 150.1,295.8 150.4,296.1 150.6,296.1 150.8,295.6 151.0,295.6 151.3,295.7 151.5,295.3 151.7,295.3 151.9,295.2 152.2,295.4 152.4,295.0 152.6,295.9 152.8,296.6 153.1,296.7 153.3,296.7 153.5,297.4 153.7,296.1 154.0,295.6 154.2,295.1 154.4,295.0 154.7,295.2 154.9,295.5 155.1,295.3 155.3,295.2 155.6,295.9 155.8,296.2 156.0,296.0 156.2,295.7 156.5,295.4 156.7,295.6 156.9,295.9 157.1,295.6 157.4,295.9 157.6,296.4 157.8,296.7 158.0,296.6 158.3,296.6 158.5,296.5 158.7,296.2 158.9,296.3 159.2,296.6 159.4,296.3 159.6,296.0 159.8,296.5 160.1,296.9 160.3,297.4 160.5,297.7 160.7,297.3 161.0,297.4 161.2,297.8 161.4,298.0 161.7,298.4 161.9,298.3 162.1,298.1 162.3,297.8 162.6,297.3 162.8,297.0 163.0,297.1 163.2,297.2 163.5,297.9 163.7,298.1 163.9,297.9 164.1,297.9 164.4,298.1 164.6,297.8 164.8,297.7 165.0,298.1 165.3,298.4 165.5,297.8 165.7,298.5 165.9,298.8 166.2,300.1 166.4,301.2 166.6,301.5 166.8,300.8 167.1,300.3 167.3,300.6 167.5,300.0 167.7,299.9 168.0,300.1 168.2,300.6 168.4,299.3 168.6,298.2 168.9,297.1 169.1,296.4 169.3,296.7 169.6,297.1 169.8,296.6 170.0,296.9 170.2,296.7 170.5,296.4 170.7,295.7 170.9,294.2 171.1,293.7 171.4,294.4 171.6,293.9 171.8,294.3 172.0,294.7 172.3,294.8 172.5,294.7 172.7,294.8 172.9,294.3 173.2,294.2 173.4,293.6 173.6,293.9 173.8,294.3 174.1,294.2 174.3,294.6 174.5,294.8 174.7,294.9 175.0,295.1 175.2,294.8 175.4,294.4 175.6,294.2 175.9,293.6 176.1,294.1 176.3,294.8 176.6,295.0 176.8,295.6 177.0,296.1 177.2,296.2 177.5,295.7 177.7,295.6 177.9,295.7 178.1,295.4 178.4,296.7 178.6,296.2 178.8,297.0 179.0,297.7 179.3,297.2 179.5,298.1 179.7,298.4 179.9,297.4 180.2,297.4 180.4,297.6 180.6,298.4 180.8,299.0 181.1,299.0 181.3,298.2 181.5,297.6 181.7,297.3 182.0,297.4 182.2,297.5 182.4,297.7 182.6,297.8 182.9,299.1 183.1,299.3 183.3,299.4 183.5,299.7 183.8,299.1 184.0,300.0 184.2,299.5 184.5,299.2 184.7,299.3 184.9,298.9 185.1,299.0 185.4,299.7 185.6,300.0 185.8,300.1 186.0,300.2 186.3,300.4 186.5,300.5 186.7,300.7 186.9,301.5 187.2,301.9 187.4,301.6 187.6,301.5 187.8,302.1 188.1,302.3 188.3,302.1 188.5,301.8 188.7,302.0 189.0,303.0 189.2,302.9 189.4,302.6 189.6,302.7 189.9,303.4 190.1,302.9 190.3,302.3 190.5,302.3 190.8,302.3 191.0,302.5 191.2,303.1 191.4,303.7 191.7,303.9 191.9,304.1 192.1,304.4 192.4,303.8 192.6,303.6 192.8,303.4 193.0,303.2 193.3,303.2 193.5,302.8 193.7,302.5 193.9,302.9 194.2,302.2 194.4,301.7 194.6,301.1 194.8,301.3 195.1,301.5 195.3,302.3 195.5,302.6 195.7,302.9 196.0,302.5 196.2,302.3 196.4,302.4 196.6,302.4 196.9,302.8 197.1,303.0 197.3,302.9 197.5,303.0 197.8,303.2 198.0,302.5 198.2,302.0 198.4,302.4 198.7,301.8 198.9,300.0 199.1,299.5 199.4,299.6 199.6,299.6 199.8,299.9 200.0,299.9 200.3,300.3 200.5,300.2 200.7,300.0 200.9,299.9 201.2,299.8 201.4,299.7 201.6,300.4 201.8,300.2 202.1,300.2 202.3,300.6 202.5,301.2 202.7,301.9 203.0,302.3 203.2,302.6 203.4,302.5 203.6,302.5 203.9,302.1 204.1,298.8 204.3,302.9 204.5,303.8"></path>
</svg>